<svg width="218" height="53" viewBox="0 0 218 53" fill="none" xmlns="http://www.w3.org/2000/svg">
<path d="M24.5 26.5C24.5 33.1274 19.1274 38.5 12.5 38.5C5.87258 38.5 0.5 33.1274 0.5 26.5C0.5 19.8726 5.87258 14.5 12.5 14.5C19.1274 14.5 24.5 19.8726 24.5 26.5Z" fill="#EDC41F" stroke="white"/>
<path d="M202.5 12.5C202.5 19.1274 197.127 24.5 190.5 24.5C183.873 24.5 178.5 19.1274 178.5 12.5C178.5 5.87258 183.873 0.5 190.5 0.5C197.127 0.5 202.5 5.87258 202.5 12.5Z" fill="#38BEBD" stroke="white"/>
<path d="M203.5 40.5C203.5 47.1274 198.127 52.5 191.5 52.5C184.873 52.5 179.5 47.1274 179.5 40.5C179.5 33.8726 184.873 28.5 191.5 28.5C198.127 28.5 203.5 33.8726 203.5 40.5Z" fill="#EDC41F" stroke="white"/>
<path d="M189.5 26.5C189.5 33.1274 184.127 38.5 177.5 38.5C170.873 38.5 165.5 33.1274 165.5 26.5C165.5 19.8726 170.873 14.5 177.5 14.5C184.127 14.5 189.5 19.8726 189.5 26.5Z" fill="#32AD28" stroke="white"/>
<path d="M217.5 26.5C217.5 33.1274 212.127 38.5 205.5 38.5C198.873 38.5 193.5 33.1274 193.5 26.5C193.5 19.8726 198.873 14.5 205.5 14.5C212.127 14.5 217.5 19.8726 217.5 26.5Z" fill="#D73030" stroke="white"/>
</svg>
