<svg width="215" height="50" viewBox="0 0 215 50" fill="none" xmlns="http://www.w3.org/2000/svg">
<path d="M21.5 25C21.5 30.799 16.799 35.5 11 35.5C5.20101 35.5 0.5 30.799 0.5 25C0.5 19.201 5.20101 14.5 11 14.5C16.799 14.5 21.5 19.201 21.5 25Z" fill="#EDC41F" stroke="white"/>
<path d="M199.5 11C199.5 16.799 194.799 21.5 189 21.5C183.201 21.5 178.5 16.799 178.5 11C178.5 5.20101 183.201 0.5 189 0.5C194.799 0.5 199.5 5.20101 199.5 11Z" fill="#38BEBD" stroke="white"/>
<path d="M200.5 39C200.5 44.799 195.799 49.5 190 49.5C184.201 49.5 179.5 44.799 179.5 39C179.5 33.201 184.201 28.5 190 28.5C195.799 28.5 200.5 33.201 200.5 39Z" fill="#EDC41F" stroke="white"/>
<path d="M186.5 25C186.5 30.799 181.799 35.5 176 35.5C170.201 35.5 165.5 30.799 165.5 25C165.5 19.201 170.201 14.5 176 14.5C181.799 14.5 186.5 19.201 186.5 25Z" fill="#32AD28" stroke="white"/>
<path d="M214.5 25C214.5 30.799 209.799 35.5 204 35.5C198.201 35.5 193.5 30.799 193.5 25C193.5 19.201 198.201 14.5 204 14.5C209.799 14.5 214.5 19.201 214.5 25Z" fill="#D73030" stroke="white"/>
</svg>
