<svg width="362" height="162" viewBox="0 0 362 162" fill="none" xmlns="http://www.w3.org/2000/svg">
<rect x="35" y="80" width="320" height="2" rx="1" fill="white"/>
<rect x="35" y="5" width="2" height="152" rx="1" fill="white"/>
<rect width="6" height="1" rx="0.5" transform="matrix(1 0 0 -1 31 31)" fill="white"/>
<rect width="6" height="1" rx="0.5" transform="matrix(1 0 0 -1 31 6)" fill="white"/>
<rect width="6" height="1" rx="0.5" transform="matrix(1 0 0 -1 31 56)" fill="white"/>
<rect width="6" height="1" rx="0.5" transform="matrix(1 0 0 -1 31 107)" fill="white"/>
<rect width="1" height="10" rx="0.5" transform="matrix(1 0 0 -1 87 86)" fill="white"/>
<rect width="1" height="10" rx="0.5" transform="matrix(1 0 0 -1 138 86)" fill="white"/>
<rect width="1" height="10" rx="0.5" transform="matrix(1 0 0 -1 189 86)" fill="white"/>
<rect width="1" height="10" rx="0.5" transform="matrix(1 0 0 -1 240 86)" fill="white"/>
<rect width="1" height="10" rx="0.5" transform="matrix(1 0 0 -1 291 86)" fill="white"/>
<rect width="1" height="10" rx="0.5" transform="matrix(1 0 0 -1 342 86)" fill="white"/>
<rect width="6" height="1" rx="0.5" transform="matrix(1 0 0 -1 31 132)" fill="white"/>
<rect width="6" height="1" rx="0.5" transform="matrix(1 0 0 -1 31 157)" fill="white"/>
<path d="M10.377 6.55859C10.416 6.57422 10.4688 6.59766 10.5352 6.62891C10.6055 6.65625 10.7266 6.72656 10.8984 6.83984C11.0703 6.94922 11.2227 7.07617 11.3555 7.2207C11.4883 7.36523 11.6074 7.56641 11.7129 7.82422C11.8223 8.07812 11.877 8.35742 11.877 8.66211C11.877 9.34961 11.6016 9.93164 11.0508 10.4082C10.5039 10.8809 9.7793 11.1172 8.87695 11.1172C8.49414 11.1172 8.13086 11.0723 7.78711 10.9824C7.44336 10.8887 7.1582 10.7793 6.93164 10.6543C6.70898 10.5254 6.51562 10.3965 6.35156 10.2676C6.1875 10.1387 6.06836 10.0312 5.99414 9.94531L5.87695 9.79883L6.71484 8.96094C6.73047 8.98438 6.75781 9.01953 6.79688 9.06641C6.83984 9.10938 6.92969 9.1875 7.06641 9.30078C7.20312 9.41016 7.3457 9.50781 7.49414 9.59375C7.64648 9.67578 7.8457 9.75195 8.0918 9.82227C8.3418 9.88867 8.60352 9.92188 8.87695 9.92188C9.39648 9.92188 9.80664 9.79688 10.1074 9.54688C10.4082 9.29297 10.5586 8.97852 10.5586 8.60352C10.5586 8.22461 10.4082 7.91016 10.1074 7.66016C9.80664 7.40625 9.39648 7.2793 8.87695 7.2793H8.03906V6.07812H8.87695C9.29102 6.07812 9.61328 5.9707 9.84375 5.75586C10.0781 5.54102 10.1953 5.25 10.1953 4.88281C10.1953 4.51172 10.0781 4.21875 9.84375 4.00391C9.61328 3.78906 9.29102 3.68164 8.87695 3.68164C8.52539 3.68164 8.19336 3.75781 7.88086 3.91016C7.56836 4.0625 7.34766 4.20898 7.21875 4.34961L7.01953 4.57812L6.17578 3.74023C6.19922 3.70898 6.23438 3.66602 6.28125 3.61133C6.33203 3.55273 6.44141 3.44922 6.60938 3.30078C6.77734 3.15234 6.95703 3.02539 7.14844 2.91992C7.33984 2.81055 7.5918 2.71094 7.9043 2.62109C8.2168 2.52734 8.54102 2.48047 8.87695 2.48047C9.70117 2.48047 10.3477 2.69336 10.8164 3.11914C11.2852 3.54102 11.5195 4.08789 11.5195 4.75977C11.5195 4.99023 11.4785 5.21289 11.3965 5.42773C11.3184 5.63867 11.2227 5.81055 11.1094 5.94336C10.9961 6.07617 10.8848 6.19141 10.7754 6.28906C10.6699 6.38281 10.5762 6.44922 10.4941 6.48828L10.377 6.55859ZM14.2266 9.93945C13.543 9.1582 13.2012 8.11133 13.2012 6.79883C13.2012 5.48633 13.543 4.43945 14.2266 3.6582C14.9102 2.87305 15.748 2.48047 16.7402 2.48047C17.7324 2.48047 18.5703 2.87305 19.2539 3.6582C19.9375 4.43945 20.2793 5.48633 20.2793 6.79883C20.2793 8.11133 19.9375 9.16016 19.2539 9.94531C18.5703 10.7266 17.7324 11.1172 16.7402 11.1172C15.748 11.1172 14.9102 10.7246 14.2266 9.93945ZM18.3105 9.08398C18.7441 8.5293 18.9609 7.76758 18.9609 6.79883C18.9609 5.83008 18.7422 5.06836 18.3047 4.51367C17.8711 3.95898 17.3496 3.68164 16.7402 3.68164C16.1309 3.68164 15.6074 3.95898 15.1699 4.51367C14.7363 5.06836 14.5195 5.83008 14.5195 6.79883C14.5195 7.76758 14.7363 8.53125 15.1699 9.08984C15.6074 9.64453 16.1309 9.92188 16.7402 9.92188C17.3496 9.92188 17.873 9.64258 18.3105 9.08398Z" fill="white"/>
<path d="M11.7539 35H6.17578C6.17578 34.4805 6.25391 34.0098 6.41016 33.5879C6.56641 33.1621 6.76953 32.8086 7.01953 32.5273C7.27344 32.2461 7.55078 31.9883 7.85156 31.7539C8.15625 31.5195 8.45898 31.3066 8.75977 31.1152C9.06055 30.9199 9.33594 30.7285 9.58594 30.541C9.83984 30.3535 10.0449 30.1348 10.2012 29.8848C10.3574 29.6309 10.4355 29.3555 10.4355 29.0586C10.4355 28.6328 10.3027 28.2969 10.0371 28.0508C9.77539 27.8047 9.4082 27.6816 8.93555 27.6816C8.70508 27.6816 8.48828 27.7246 8.28516 27.8105C8.08594 27.8926 7.92969 27.9922 7.81641 28.1094C7.70703 28.2227 7.60938 28.3379 7.52344 28.4551C7.44141 28.5723 7.38477 28.6738 7.35352 28.7598L7.3125 28.8828L6.23438 28.4023C6.25 28.3477 6.27148 28.2773 6.29883 28.1914C6.33008 28.1055 6.41211 27.9531 6.54492 27.7344C6.68164 27.5156 6.83984 27.3223 7.01953 27.1543C7.19922 26.9863 7.45898 26.832 7.79883 26.6914C8.13867 26.5508 8.51758 26.4805 8.93555 26.4805C9.75977 26.4805 10.4355 26.7285 10.9629 27.2246C11.4902 27.7207 11.7539 28.332 11.7539 29.0586C11.7539 29.4414 11.6758 29.7969 11.5195 30.125C11.3633 30.4531 11.1641 30.7285 10.9219 30.9512C10.6836 31.1699 10.4082 31.3965 10.0957 31.6309C9.78711 31.8613 9.48633 32.0723 9.19336 32.2637C8.90039 32.4551 8.61133 32.6855 8.32617 32.9551C8.04492 33.2207 7.82812 33.502 7.67578 33.7988H11.7539V35ZM14.2266 33.9395C13.543 33.1582 13.2012 32.1113 13.2012 30.7988C13.2012 29.4863 13.543 28.4395 14.2266 27.6582C14.9102 26.873 15.748 26.4805 16.7402 26.4805C17.7324 26.4805 18.5703 26.873 19.2539 27.6582C19.9375 28.4395 20.2793 29.4863 20.2793 30.7988C20.2793 32.1113 19.9375 33.1602 19.2539 33.9453C18.5703 34.7266 17.7324 35.1172 16.7402 35.1172C15.748 35.1172 14.9102 34.7246 14.2266 33.9395ZM18.3105 33.084C18.7441 32.5293 18.9609 31.7676 18.9609 30.7988C18.9609 29.8301 18.7422 29.0684 18.3047 28.5137C17.8711 27.959 17.3496 27.6816 16.7402 27.6816C16.1309 27.6816 15.6074 27.959 15.1699 28.5137C14.7363 29.0684 14.5195 29.8301 14.5195 30.7988C14.5195 31.7676 14.7363 32.5312 15.1699 33.0898C15.6074 33.6445 16.1309 33.9219 16.7402 33.9219C17.3496 33.9219 17.873 33.6426 18.3105 33.084Z" fill="white"/>
<path d="M10.1426 52.5977H11.1621V61H9.84375V54.6426H8.34375V53.7402C8.84766 53.6855 9.23047 53.5664 9.49219 53.3828C9.75781 53.1953 9.97461 52.9336 10.1426 52.5977ZM14.2266 59.9395C13.543 59.1582 13.2012 58.1113 13.2012 56.7988C13.2012 55.4863 13.543 54.4395 14.2266 53.6582C14.9102 52.873 15.748 52.4805 16.7402 52.4805C17.7324 52.4805 18.5703 52.873 19.2539 53.6582C19.9375 54.4395 20.2793 55.4863 20.2793 56.7988C20.2793 58.1113 19.9375 59.1602 19.2539 59.9453C18.5703 60.7266 17.7324 61.1172 16.7402 61.1172C15.748 61.1172 14.9102 60.7246 14.2266 59.9395ZM18.3105 59.084C18.7441 58.5293 18.9609 57.7676 18.9609 56.7988C18.9609 55.8301 18.7422 55.0684 18.3047 54.5137C17.8711 53.959 17.3496 53.6816 16.7402 53.6816C16.1309 53.6816 15.6074 53.959 15.1699 54.5137C14.7363 55.0684 14.5195 55.8301 14.5195 56.7988C14.5195 57.7676 14.7363 58.5312 15.1699 59.0898C15.6074 59.6445 16.1309 59.9219 16.7402 59.9219C17.3496 59.9219 17.873 59.6426 18.3105 59.084Z" fill="white"/>
<path d="M14.2266 83.9395C13.543 83.1582 13.2012 82.1113 13.2012 80.7988C13.2012 79.4863 13.543 78.4395 14.2266 77.6582C14.9102 76.873 15.748 76.4805 16.7402 76.4805C17.7324 76.4805 18.5703 76.873 19.2539 77.6582C19.9375 78.4395 20.2793 79.4863 20.2793 80.7988C20.2793 82.1113 19.9375 83.1602 19.2539 83.9453C18.5703 84.7266 17.7324 85.1172 16.7402 85.1172C15.748 85.1172 14.9102 84.7246 14.2266 83.9395ZM18.3105 83.084C18.7441 82.5293 18.9609 81.7676 18.9609 80.7988C18.9609 79.8301 18.7422 79.0684 18.3047 78.5137C17.8711 77.959 17.3496 77.6816 16.7402 77.6816C16.1309 77.6816 15.6074 77.959 15.1699 78.5137C14.7363 79.0684 14.5195 79.8301 14.5195 80.7988C14.5195 81.7676 14.7363 82.5312 15.1699 83.0898C15.6074 83.6445 16.1309 83.9219 16.7402 83.9219C17.3496 83.9219 17.873 83.6426 18.3105 83.084Z" fill="white"/>
<path d="M7.38867 104.922V106H3.1875V104.922H7.38867ZM10.1426 100.598H11.1621V109H9.84375V102.643H8.34375V101.74C8.84766 101.686 9.23047 101.566 9.49219 101.383C9.75781 101.195 9.97461 100.934 10.1426 100.598ZM14.2266 107.939C13.543 107.158 13.2012 106.111 13.2012 104.799C13.2012 103.486 13.543 102.439 14.2266 101.658C14.9102 100.873 15.748 100.48 16.7402 100.48C17.7324 100.48 18.5703 100.873 19.2539 101.658C19.9375 102.439 20.2793 103.486 20.2793 104.799C20.2793 106.111 19.9375 107.16 19.2539 107.945C18.5703 108.727 17.7324 109.117 16.7402 109.117C15.748 109.117 14.9102 108.725 14.2266 107.939ZM18.3105 107.084C18.7441 106.529 18.9609 105.768 18.9609 104.799C18.9609 103.83 18.7422 103.068 18.3047 102.514C17.8711 101.959 17.3496 101.682 16.7402 101.682C16.1309 101.682 15.6074 101.959 15.1699 102.514C14.7363 103.068 14.5195 103.83 14.5195 104.799C14.5195 105.768 14.7363 106.531 15.1699 107.09C15.6074 107.645 16.1309 107.922 16.7402 107.922C17.3496 107.922 17.873 107.643 18.3105 107.084Z" fill="white"/>
<path d="M5.2207 129.922V131H1.01953V129.922H5.2207ZM11.7539 134H6.17578C6.17578 133.48 6.25391 133.01 6.41016 132.588C6.56641 132.162 6.76953 131.809 7.01953 131.527C7.27344 131.246 7.55078 130.988 7.85156 130.754C8.15625 130.52 8.45898 130.307 8.75977 130.115C9.06055 129.92 9.33594 129.729 9.58594 129.541C9.83984 129.354 10.0449 129.135 10.2012 128.885C10.3574 128.631 10.4355 128.355 10.4355 128.059C10.4355 127.633 10.3027 127.297 10.0371 127.051C9.77539 126.805 9.4082 126.682 8.93555 126.682C8.70508 126.682 8.48828 126.725 8.28516 126.811C8.08594 126.893 7.92969 126.992 7.81641 127.109C7.70703 127.223 7.60938 127.338 7.52344 127.455C7.44141 127.572 7.38477 127.674 7.35352 127.76L7.3125 127.883L6.23438 127.402C6.25 127.348 6.27148 127.277 6.29883 127.191C6.33008 127.105 6.41211 126.953 6.54492 126.734C6.68164 126.516 6.83984 126.322 7.01953 126.154C7.19922 125.986 7.45898 125.832 7.79883 125.691C8.13867 125.551 8.51758 125.48 8.93555 125.48C9.75977 125.48 10.4355 125.729 10.9629 126.225C11.4902 126.721 11.7539 127.332 11.7539 128.059C11.7539 128.441 11.6758 128.797 11.5195 129.125C11.3633 129.453 11.1641 129.729 10.9219 129.951C10.6836 130.17 10.4082 130.396 10.0957 130.631C9.78711 130.861 9.48633 131.072 9.19336 131.264C8.90039 131.455 8.61133 131.686 8.32617 131.955C8.04492 132.221 7.82812 132.502 7.67578 132.799H11.7539V134ZM14.2266 132.939C13.543 132.158 13.2012 131.111 13.2012 129.799C13.2012 128.486 13.543 127.439 14.2266 126.658C14.9102 125.873 15.748 125.48 16.7402 125.48C17.7324 125.48 18.5703 125.873 19.2539 126.658C19.9375 127.439 20.2793 128.486 20.2793 129.799C20.2793 131.111 19.9375 132.16 19.2539 132.945C18.5703 133.727 17.7324 134.117 16.7402 134.117C15.748 134.117 14.9102 133.725 14.2266 132.939ZM18.3105 132.084C18.7441 131.529 18.9609 130.768 18.9609 129.799C18.9609 128.83 18.7422 128.068 18.3047 127.514C17.8711 126.959 17.3496 126.682 16.7402 126.682C16.1309 126.682 15.6074 126.959 15.1699 127.514C14.7363 128.068 14.5195 128.83 14.5195 129.799C14.5195 130.768 14.7363 131.531 15.1699 132.09C15.6074 132.645 16.1309 132.922 16.7402 132.922C17.3496 132.922 17.873 132.643 18.3105 132.084Z" fill="white"/>
<path d="M5.16211 154.922V156H0.960938V154.922H5.16211ZM10.377 154.559C10.416 154.574 10.4688 154.598 10.5352 154.629C10.6055 154.656 10.7266 154.727 10.8984 154.84C11.0703 154.949 11.2227 155.076 11.3555 155.221C11.4883 155.365 11.6074 155.566 11.7129 155.824C11.8223 156.078 11.877 156.357 11.877 156.662C11.877 157.35 11.6016 157.932 11.0508 158.408C10.5039 158.881 9.7793 159.117 8.87695 159.117C8.49414 159.117 8.13086 159.072 7.78711 158.982C7.44336 158.889 7.1582 158.779 6.93164 158.654C6.70898 158.525 6.51562 158.396 6.35156 158.268C6.1875 158.139 6.06836 158.031 5.99414 157.945L5.87695 157.799L6.71484 156.961C6.73047 156.984 6.75781 157.02 6.79688 157.066C6.83984 157.109 6.92969 157.188 7.06641 157.301C7.20312 157.41 7.3457 157.508 7.49414 157.594C7.64648 157.676 7.8457 157.752 8.0918 157.822C8.3418 157.889 8.60352 157.922 8.87695 157.922C9.39648 157.922 9.80664 157.797 10.1074 157.547C10.4082 157.293 10.5586 156.979 10.5586 156.604C10.5586 156.225 10.4082 155.91 10.1074 155.66C9.80664 155.406 9.39648 155.279 8.87695 155.279H8.03906V154.078H8.87695C9.29102 154.078 9.61328 153.971 9.84375 153.756C10.0781 153.541 10.1953 153.25 10.1953 152.883C10.1953 152.512 10.0781 152.219 9.84375 152.004C9.61328 151.789 9.29102 151.682 8.87695 151.682C8.52539 151.682 8.19336 151.758 7.88086 151.91C7.56836 152.062 7.34766 152.209 7.21875 152.35L7.01953 152.578L6.17578 151.74C6.19922 151.709 6.23438 151.666 6.28125 151.611C6.33203 151.553 6.44141 151.449 6.60938 151.301C6.77734 151.152 6.95703 151.025 7.14844 150.92C7.33984 150.811 7.5918 150.711 7.9043 150.621C8.2168 150.527 8.54102 150.48 8.87695 150.48C9.70117 150.48 10.3477 150.693 10.8164 151.119C11.2852 151.541 11.5195 152.088 11.5195 152.76C11.5195 152.99 11.4785 153.213 11.3965 153.428C11.3184 153.639 11.2227 153.811 11.1094 153.943C10.9961 154.076 10.8848 154.191 10.7754 154.289C10.6699 154.383 10.5762 154.449 10.4941 154.488L10.377 154.559ZM14.2266 157.939C13.543 157.158 13.2012 156.111 13.2012 154.799C13.2012 153.486 13.543 152.439 14.2266 151.658C14.9102 150.873 15.748 150.48 16.7402 150.48C17.7324 150.48 18.5703 150.873 19.2539 151.658C19.9375 152.439 20.2793 153.486 20.2793 154.799C20.2793 156.111 19.9375 157.16 19.2539 157.945C18.5703 158.727 17.7324 159.117 16.7402 159.117C15.748 159.117 14.9102 158.725 14.2266 157.939ZM18.3105 157.084C18.7441 156.529 18.9609 155.768 18.9609 154.799C18.9609 153.83 18.7422 153.068 18.3047 152.514C17.8711 151.959 17.3496 151.682 16.7402 151.682C16.1309 151.682 15.6074 151.959 15.1699 152.514C14.7363 153.068 14.5195 153.83 14.5195 154.799C14.5195 155.768 14.7363 156.531 15.1699 157.09C15.6074 157.645 16.1309 157.922 16.7402 157.922C17.3496 157.922 17.873 157.643 18.3105 157.084Z" fill="white"/>
<path d="M124.084 97.9395C123.4 97.1582 123.059 96.1113 123.059 94.7988C123.059 93.4863 123.4 92.4395 124.084 91.6582C124.768 90.873 125.605 90.4805 126.598 90.4805C127.59 90.4805 128.428 90.873 129.111 91.6582C129.795 92.4395 130.137 93.4863 130.137 94.7988C130.137 96.1113 129.795 97.1602 129.111 97.9453C128.428 98.7266 127.59 99.1172 126.598 99.1172C125.605 99.1172 124.768 98.7246 124.084 97.9395ZM128.168 97.084C128.602 96.5293 128.818 95.7676 128.818 94.7988C128.818 93.8301 128.6 93.0684 128.162 92.5137C127.729 91.959 127.207 91.6816 126.598 91.6816C125.988 91.6816 125.465 91.959 125.027 92.5137C124.594 93.0684 124.377 93.8301 124.377 94.7988C124.377 95.7676 124.594 96.5312 125.027 97.0898C125.465 97.6445 125.988 97.9219 126.598 97.9219C127.207 97.9219 127.73 97.6426 128.168 97.084ZM135.24 96.5977V99H134.039V93.2402H135.24V95.5195H138.059V93.2402H139.26V99H138.059V96.5977H135.24ZM146.279 96.5391H141.779C141.842 96.9453 142.041 97.2969 142.377 97.5938C142.717 97.8906 143.119 98.0391 143.584 98.0391C143.92 98.0391 144.232 97.9629 144.521 97.8105C144.814 97.6582 145.021 97.5098 145.143 97.3652L145.324 97.1426L146.104 97.9219C146.08 97.9531 146.043 97.998 145.992 98.0566C145.945 98.1113 145.842 98.207 145.682 98.3438C145.521 98.4766 145.352 98.5957 145.172 98.7012C144.992 98.8027 144.758 98.8984 144.469 98.9883C144.184 99.0742 143.889 99.1172 143.584 99.1172C142.768 99.1172 142.062 98.8184 141.469 98.2207C140.879 97.6191 140.584 96.8984 140.584 96.0586C140.584 95.25 140.871 94.5586 141.445 93.9844C142.023 93.4062 142.715 93.1172 143.52 93.1172C144.328 93.1172 145 93.3867 145.535 93.9258C146.074 94.4609 146.344 95.1328 146.344 95.9414L146.279 96.5391ZM143.52 94.1426C143.086 94.1426 142.721 94.2715 142.424 94.5293C142.131 94.7832 141.934 95.1133 141.832 95.5195H145.166C145.096 95.1133 144.914 94.7832 144.621 94.5293C144.328 94.2715 143.961 94.1426 143.52 94.1426ZM146.818 97.9219H147.234C147.258 97.8984 147.291 97.8613 147.334 97.8105C147.381 97.7559 147.459 97.6367 147.568 97.4531C147.682 97.2695 147.779 97.0723 147.861 96.8613C147.947 96.6465 148.023 96.3652 148.09 96.0176C148.16 95.6699 148.195 95.3047 148.195 94.9219V93.2402H152.396V97.9219H153.234V100.441H152.039V99H148.02V100.441H146.818V97.9219ZM149.396 94.3184V94.9219C149.396 95.3047 149.363 95.668 149.297 96.0117C149.234 96.3555 149.154 96.6406 149.057 96.8672C148.963 97.0898 148.867 97.2832 148.77 97.4473C148.676 97.6113 148.598 97.7285 148.535 97.7988L148.436 97.9219H151.195V94.3184H149.396Z" fill="white"/>
<path d="M226.416 90.5977H227.436V99H226.117V92.6426H224.617V91.7402C225.121 91.6855 225.504 91.5664 225.766 91.3828C226.031 91.1953 226.248 90.9336 226.416 90.5977ZM229.111 90.5977H234.695V91.6816L231.156 99H229.832L233.312 91.7988H229.111V90.5977ZM239.441 96.5977V99H238.24V93.2402H239.441V95.5195H242.26V93.2402H243.461V99H242.26V96.5977H239.441ZM250.48 96.5391H245.98C246.043 96.9453 246.242 97.2969 246.578 97.5938C246.918 97.8906 247.32 98.0391 247.785 98.0391C248.121 98.0391 248.434 97.9629 248.723 97.8105C249.016 97.6582 249.223 97.5098 249.344 97.3652L249.525 97.1426L250.305 97.9219C250.281 97.9531 250.244 97.998 250.193 98.0566C250.146 98.1113 250.043 98.207 249.883 98.3438C249.723 98.4766 249.553 98.5957 249.373 98.7012C249.193 98.8027 248.959 98.8984 248.67 98.9883C248.385 99.0742 248.09 99.1172 247.785 99.1172C246.969 99.1172 246.264 98.8184 245.67 98.2207C245.08 97.6191 244.785 96.8984 244.785 96.0586C244.785 95.25 245.072 94.5586 245.646 93.9844C246.225 93.4062 246.916 93.1172 247.721 93.1172C248.529 93.1172 249.201 93.3867 249.736 93.9258C250.275 94.4609 250.545 95.1328 250.545 95.9414L250.48 96.5391ZM247.721 94.1426C247.287 94.1426 246.922 94.2715 246.625 94.5293C246.332 94.7832 246.135 95.1133 246.033 95.5195H249.367C249.297 95.1133 249.115 94.7832 248.822 94.5293C248.529 94.2715 248.162 94.1426 247.721 94.1426ZM251.02 97.9219H251.436C251.459 97.8984 251.492 97.8613 251.535 97.8105C251.582 97.7559 251.66 97.6367 251.77 97.4531C251.883 97.2695 251.98 97.0723 252.062 96.8613C252.148 96.6465 252.225 96.3652 252.291 96.0176C252.361 95.6699 252.396 95.3047 252.396 94.9219V93.2402H256.598V97.9219H257.436V100.441H256.24V99H252.221V100.441H251.02V97.9219ZM253.598 94.3184V94.9219C253.598 95.3047 253.564 95.668 253.498 96.0117C253.436 96.3555 253.355 96.6406 253.258 96.8672C253.164 97.0898 253.068 97.2832 252.971 97.4473C252.877 97.6113 252.799 97.7285 252.736 97.7988L252.637 97.9219H255.396V94.3184H253.598Z" fill="white"/>
<path d="M330.896 96.1172H331.975V97.3184H330.896V99H329.572V97.3184H325.494V95.8828L329.215 90.5977H330.896V96.1172ZM329.572 96.1172V92.0977L326.754 96.1172H329.572ZM337.078 94.5586C337.117 94.5742 337.17 94.5977 337.236 94.6289C337.307 94.6562 337.428 94.7266 337.6 94.8398C337.771 94.9492 337.924 95.0762 338.057 95.2207C338.189 95.3652 338.309 95.5664 338.414 95.8242C338.523 96.0781 338.578 96.3574 338.578 96.6621C338.578 97.3496 338.303 97.9316 337.752 98.4082C337.205 98.8809 336.48 99.1172 335.578 99.1172C335.195 99.1172 334.832 99.0723 334.488 98.9824C334.145 98.8887 333.859 98.7793 333.633 98.6543C333.41 98.5254 333.217 98.3965 333.053 98.2676C332.889 98.1387 332.77 98.0312 332.695 97.9453L332.578 97.7988L333.416 96.9609C333.432 96.9844 333.459 97.0195 333.498 97.0664C333.541 97.1094 333.631 97.1875 333.768 97.3008C333.904 97.4102 334.047 97.5078 334.195 97.5938C334.348 97.6758 334.547 97.752 334.793 97.8223C335.043 97.8887 335.305 97.9219 335.578 97.9219C336.098 97.9219 336.508 97.7969 336.809 97.5469C337.109 97.293 337.26 96.9785 337.26 96.6035C337.26 96.2246 337.109 95.9102 336.809 95.6602C336.508 95.4062 336.098 95.2793 335.578 95.2793H334.74V94.0781H335.578C335.992 94.0781 336.314 93.9707 336.545 93.7559C336.779 93.541 336.896 93.25 336.896 92.8828C336.896 92.5117 336.779 92.2188 336.545 92.0039C336.314 91.7891 335.992 91.6816 335.578 91.6816C335.227 91.6816 334.895 91.7578 334.582 91.9102C334.27 92.0625 334.049 92.209 333.92 92.3496L333.721 92.5781L332.877 91.7402C332.9 91.709 332.936 91.666 332.982 91.6113C333.033 91.5527 333.143 91.4492 333.311 91.3008C333.479 91.1523 333.658 91.0254 333.85 90.9199C334.041 90.8105 334.293 90.7109 334.605 90.6211C334.918 90.5273 335.242 90.4805 335.578 90.4805C336.402 90.4805 337.049 90.6934 337.518 91.1191C337.986 91.541 338.221 92.0879 338.221 92.7598C338.221 92.9902 338.18 93.2129 338.098 93.4277C338.02 93.6387 337.924 93.8105 337.811 93.9434C337.697 94.0762 337.586 94.1914 337.477 94.2891C337.371 94.3828 337.277 94.4492 337.195 94.4883L337.078 94.5586ZM343.564 96.5977V99H342.363V93.2402H343.564V95.5195H346.383V93.2402H347.584V99H346.383V96.5977H343.564ZM354.604 96.5391H350.104C350.166 96.9453 350.365 97.2969 350.701 97.5938C351.041 97.8906 351.443 98.0391 351.908 98.0391C352.244 98.0391 352.557 97.9629 352.846 97.8105C353.139 97.6582 353.346 97.5098 353.467 97.3652L353.648 97.1426L354.428 97.9219C354.404 97.9531 354.367 97.998 354.316 98.0566C354.27 98.1113 354.166 98.207 354.006 98.3438C353.846 98.4766 353.676 98.5957 353.496 98.7012C353.316 98.8027 353.082 98.8984 352.793 98.9883C352.508 99.0742 352.213 99.1172 351.908 99.1172C351.092 99.1172 350.387 98.8184 349.793 98.2207C349.203 97.6191 348.908 96.8984 348.908 96.0586C348.908 95.25 349.195 94.5586 349.77 93.9844C350.348 93.4062 351.039 93.1172 351.844 93.1172C352.652 93.1172 353.324 93.3867 353.859 93.9258C354.398 94.4609 354.668 95.1328 354.668 95.9414L354.604 96.5391ZM351.844 94.1426C351.41 94.1426 351.045 94.2715 350.748 94.5293C350.455 94.7832 350.258 95.1133 350.156 95.5195H353.49C353.42 95.1133 353.238 94.7832 352.945 94.5293C352.652 94.2715 352.285 94.1426 351.844 94.1426ZM355.143 97.9219H355.559C355.582 97.8984 355.615 97.8613 355.658 97.8105C355.705 97.7559 355.783 97.6367 355.893 97.4531C356.006 97.2695 356.104 97.0723 356.186 96.8613C356.271 96.6465 356.348 96.3652 356.414 96.0176C356.484 95.6699 356.52 95.3047 356.52 94.9219V93.2402H360.721V97.9219H361.559V100.441H360.363V99H356.344V100.441H355.143V97.9219ZM357.721 94.3184V94.9219C357.721 95.3047 357.688 95.668 357.621 96.0117C357.559 96.3555 357.479 96.6406 357.381 96.8672C357.287 97.0898 357.191 97.2832 357.094 97.4473C357 97.6113 356.922 97.7285 356.859 97.7988L356.76 97.9219H359.52V94.3184H357.721Z" fill="white"/>
<path d="M87.5 81L240.5 129.5L342.5 72" stroke="#936262" stroke-linejoin="round"/>
<path d="M87.5 81L240.5 80.5L342.5 63.5" stroke="#F97923" stroke-linejoin="round"/>
<path d="M87.5 81L240.5 74.5L342.5 54.5" stroke="#229CDB" stroke-linejoin="round"/>
</svg>
