<svg width="259" height="261" viewBox="0 0 259 261" fill="none" xmlns="http://www.w3.org/2000/svg">
<path fill-rule="evenodd" clip-rule="evenodd" d="M67 136L92.9808 151V181L67 196L41.0192 181V151L67 136Z" stroke="#4C57B9" stroke-width="2" stroke-linejoin="round"/>
<path fill-rule="evenodd" clip-rule="evenodd" d="M119 136L144.981 151V181L119 196L93.0192 181V151L119 136Z" stroke="#4C57B9" stroke-width="2" stroke-linejoin="round"/>
<path fill-rule="evenodd" clip-rule="evenodd" d="M145 91L170.981 106V136L145 151L119.019 136V106L145 91Z" stroke="#4C57B9" stroke-width="2" stroke-linejoin="round"/>
<path d="M209.831 55.4619L229 42L257.532 62.7295L246.705 96" stroke="#4C57B9" stroke-width="2" stroke-linecap="round" stroke-linejoin="round"/>
<path d="M207 61.5C207 64.5376 204.538 67 201.5 67C198.462 67 196 64.5376 196 61.5C196 58.4624 198.462 56 201.5 56C204.538 56 207 58.4624 207 61.5Z" stroke="#4C57B9" stroke-width="2"/>
<path fill-rule="evenodd" clip-rule="evenodd" d="M235 6C235 2.68629 232.314 0 229 0C225.686 0 223 2.68629 223 6C223 9.31371 225.686 12 229 12C232.314 12 235 9.31371 235 6ZM225 6C225 3.79086 226.791 2 229 2C231.209 2 233 3.79086 233 6C233 8.20914 231.209 10 229 10C226.791 10 225 8.20914 225 6ZM225 16C225 15.4477 225.448 15 226 15C226.552 15 227 15.4477 227 16V38C227 38.5523 226.552 39 226 39C225.448 39 225 38.5523 225 38V16ZM232 15C231.448 15 231 15.4477 231 16V38C231 38.5523 231.448 39 232 39C232.552 39 233 38.5523 233 38V16C233 15.4477 232.552 15 232 15Z" fill="#4C57B9"/>
<path fill-rule="evenodd" clip-rule="evenodd" d="M5.30846 195.054C2.4387 196.711 1.45545 200.38 3.1123 203.25C4.76916 206.12 8.4387 207.103 11.3085 205.446C14.1782 203.789 15.1615 200.12 13.5046 197.25C11.8478 194.38 8.17821 193.397 5.30846 195.054ZM10.3085 203.714C8.39529 204.819 5.94893 204.163 4.84436 202.25C3.73979 200.337 4.39529 197.89 6.30846 196.786C8.22163 195.681 10.668 196.337 11.7726 198.25C12.8771 200.163 12.2216 202.61 10.3085 203.714ZM18.9687 198.714C18.4904 198.99 17.8788 198.826 17.6027 198.348C17.3265 197.87 17.4904 197.258 17.9687 196.982L37.0213 185.982C37.4996 185.706 38.1112 185.87 38.3873 186.348C38.6634 186.826 38.4996 187.438 38.0213 187.714L18.9687 198.714ZM14.6027 193.152C14.8788 193.63 15.4904 193.794 15.9687 193.518L35.0213 182.518C35.4996 182.242 35.6634 181.63 35.3873 181.152C35.1112 180.674 34.4996 180.51 34.0213 180.786L14.9687 191.786C14.4904 192.062 14.3265 192.674 14.6027 193.152Z" fill="#4C57B9"/>
<path fill-rule="evenodd" clip-rule="evenodd" d="M136.308 247.054C133.439 248.711 132.455 252.38 134.112 255.25C135.769 258.12 139.439 259.103 142.308 257.446C145.178 255.789 146.161 252.12 144.505 249.25C142.848 246.38 139.178 245.397 136.308 247.054ZM141.308 255.714C139.395 256.819 136.949 256.163 135.844 254.25C134.74 252.337 135.395 249.89 137.308 248.786C139.222 247.681 141.668 248.337 142.773 250.25C143.877 252.163 143.222 254.61 141.308 255.714ZM149.969 250.714C149.49 250.99 148.879 250.826 148.603 250.348C148.327 249.87 148.49 249.258 148.969 248.982L168.021 237.982C168.5 237.706 169.111 237.87 169.387 238.348C169.663 238.826 169.5 239.438 169.021 239.714L149.969 250.714ZM145.603 245.152C145.879 245.63 146.49 245.794 146.969 245.518L166.021 234.518C166.5 234.242 166.663 233.63 166.387 233.152C166.111 232.674 165.5 232.51 165.021 232.786L145.969 243.786C145.49 244.062 145.327 244.674 145.603 245.152Z" fill="#4C57B9"/>
<path fill-rule="evenodd" clip-rule="evenodd" d="M203.543 71.7606L209.459 91.0552L203.543 71.7606Z" fill="#4C57B9"/>
<path d="M203.543 71.7606L209.459 91.0552" stroke="#4C57B9" stroke-width="4" stroke-linecap="round" stroke-linejoin="round"/>
<path d="M222.981 136L197 151L171.02 136V106L211 96L222.981 136Z" stroke="#4C57B9" stroke-width="2" stroke-linejoin="round"/>
<path fill-rule="evenodd" clip-rule="evenodd" d="M67.4121 190.633L88.574 178.4L67.4121 190.633Z" fill="#4C57B9"/>
<path d="M67.4121 190.633L88.574 178.4" stroke="#4C57B9" stroke-width="2" stroke-linecap="round" stroke-linejoin="round"/>
<path fill-rule="evenodd" clip-rule="evenodd" d="M242.5 93.5V99.5V93.5Z" fill="#4C57B9"/>
<path d="M242.5 93.5V99.5" stroke="#4C57B9" stroke-linecap="round"/>
<path fill-rule="evenodd" clip-rule="evenodd" d="M239.5 93.5V99.5V93.5Z" fill="#4C57B9"/>
<path d="M239.5 93.5V99.5" stroke="#4C57B9" stroke-linecap="round"/>
<path fill-rule="evenodd" clip-rule="evenodd" d="M236.5 93.5V99.5V93.5Z" fill="#4C57B9"/>
<path d="M236.5 93.5V99.5" stroke="#4C57B9" stroke-linecap="round"/>
<path fill-rule="evenodd" clip-rule="evenodd" d="M233.5 93.5V99.5V93.5Z" fill="#4C57B9"/>
<path d="M233.5 93.5V99.5" stroke="#4C57B9" stroke-linecap="round"/>
<path fill-rule="evenodd" clip-rule="evenodd" d="M230.5 93.5V99.5V93.5Z" fill="#4C57B9"/>
<path d="M230.5 93.5V99.5" stroke="#4C57B9" stroke-linecap="round"/>
<path fill-rule="evenodd" clip-rule="evenodd" d="M227.5 93.5V99.5V93.5Z" fill="#4C57B9"/>
<path d="M227.5 93.5V99.5" stroke="#4C57B9" stroke-linecap="round"/>
<path fill-rule="evenodd" clip-rule="evenodd" d="M224.5 93.5V99.5V93.5Z" fill="#4C57B9"/>
<path d="M224.5 93.5V99.5" stroke="#4C57B9" stroke-linecap="round"/>
<path fill-rule="evenodd" clip-rule="evenodd" d="M221.5 93.5V99.5V93.5Z" fill="#4C57B9"/>
<path d="M221.5 93.5V99.5" stroke="#4C57B9" stroke-linecap="round"/>
<path fill-rule="evenodd" clip-rule="evenodd" d="M218.5 93.5V99.5V93.5Z" fill="#4C57B9"/>
<path d="M218.5 93.5V99.5" stroke="#4C57B9" stroke-linecap="round"/>
<path fill-rule="evenodd" clip-rule="evenodd" d="M215.5 93.5V99.5V93.5Z" fill="#4C57B9"/>
<path d="M215.5 93.5V99.5" stroke="#4C57B9" stroke-linecap="round"/>
<path fill-rule="evenodd" clip-rule="evenodd" d="M166.322 192.065C166.096 191.907 165.784 191.962 165.626 192.188L162.758 196.284C162.6 196.51 162.654 196.822 162.881 196.98C163.107 197.138 163.419 197.083 163.577 196.857L166.445 192.761C166.603 192.535 166.548 192.223 166.322 192.065ZM163.025 190.672C163.183 190.446 163.495 190.391 163.721 190.549C163.948 190.708 164.002 191.019 163.844 191.245L161.263 194.932C161.105 195.158 160.793 195.213 160.567 195.054C160.34 194.896 160.285 194.584 160.444 194.358L163.025 190.672ZM161.12 189.033C160.894 188.875 160.582 188.93 160.424 189.156L158.13 192.433C157.971 192.659 158.026 192.971 158.253 193.129C158.479 193.287 158.791 193.232 158.949 193.006L161.243 189.73C161.402 189.503 161.347 189.192 161.12 189.033ZM157.68 187.845C157.838 187.619 158.15 187.564 158.376 187.722C158.602 187.88 158.657 188.192 158.499 188.418L156.778 190.876C156.62 191.102 156.308 191.157 156.082 190.999C155.856 190.84 155.801 190.528 155.959 190.302L157.68 187.845ZM155.775 186.206C155.549 186.048 155.237 186.103 155.079 186.329L153.645 188.377C153.487 188.603 153.542 188.915 153.768 189.073C153.994 189.232 154.306 189.177 154.464 188.95L155.898 186.902C156.057 186.676 156.002 186.364 155.775 186.206ZM152.478 184.813C152.637 184.587 152.948 184.532 153.175 184.69C153.401 184.849 153.456 185.16 153.297 185.387L152.15 187.025C151.992 187.251 151.68 187.306 151.454 187.148C151.228 186.989 151.173 186.677 151.331 186.451L152.478 184.813ZM150.574 183.174C150.347 183.016 150.036 183.071 149.877 183.297L149.017 184.526C148.859 184.752 148.914 185.064 149.14 185.222C149.366 185.38 149.678 185.326 149.836 185.099L150.696 183.871C150.855 183.644 150.8 183.333 150.574 183.174ZM147.276 181.781C147.435 181.555 147.747 181.5 147.973 181.658C148.199 181.817 148.254 182.128 148.096 182.355L147.522 183.174C147.364 183.4 147.052 183.455 146.826 183.297C146.599 183.138 146.544 182.826 146.703 182.6L147.276 181.781ZM144.532 180.47C144.691 180.244 145.002 180.189 145.229 180.347C145.455 180.506 145.51 180.817 145.351 181.043C145.193 181.27 144.881 181.325 144.655 181.166C144.429 181.008 144.374 180.696 144.532 180.47Z" fill="#4C57B9"/>
<path fill-rule="evenodd" clip-rule="evenodd" d="M91 138H95L93 153L91 138Z" fill="#4C57B9"/>
<path fill-rule="evenodd" clip-rule="evenodd" d="M169 94H173L171 109L169 94Z" fill="#4C57B9"/>
<path d="M226.529 76.8979H234.824V79H224.222V64.2959H234.619V66.3979H226.529V70.2842H232.938V72.3862H226.529V76.8979Z" fill="#4C57B9"/>
<path d="M189.125 116.296H194.272C196.316 116.296 198.069 117.021 199.532 118.47C200.995 119.919 201.727 121.645 201.727 123.648C201.727 125.651 200.995 127.377 199.532 128.826C198.069 130.275 196.316 131 194.272 131H189.125V116.296ZM194.272 118.398H191.432V128.898H194.272C195.701 128.898 196.914 128.392 197.912 127.38C198.91 126.362 199.409 125.118 199.409 123.648C199.409 122.178 198.91 120.938 197.912 119.926C196.914 118.907 195.701 118.398 194.272 118.398Z" fill="#4C57B9"/>
<path d="M146.056 114.091C146.801 114.091 147.516 114.19 148.199 114.388C148.883 114.58 149.447 114.815 149.891 115.096C150.342 115.376 150.735 115.653 151.07 115.926C151.405 116.2 151.651 116.436 151.809 116.634L152.034 116.921L150.568 118.397C150.527 118.343 150.465 118.268 150.383 118.172C150.308 118.069 150.13 117.888 149.85 117.628C149.57 117.369 149.269 117.146 148.948 116.962C148.626 116.771 148.206 116.596 147.687 116.439C147.174 116.275 146.63 116.193 146.056 116.193C144.532 116.193 143.24 116.723 142.18 117.782C141.121 118.835 140.591 120.124 140.591 121.648C140.591 123.172 141.117 124.464 142.17 125.524C143.229 126.583 144.525 127.113 146.056 127.113C146.63 127.113 147.177 127.035 147.697 126.877C148.223 126.713 148.657 126.519 148.999 126.293C149.348 126.067 149.652 125.845 149.912 125.626C150.178 125.401 150.376 125.209 150.506 125.052L150.67 124.796L152.147 126.272C152.092 126.354 152.007 126.464 151.891 126.601C151.781 126.73 151.532 126.963 151.142 127.298C150.759 127.633 150.349 127.93 149.912 128.19C149.481 128.45 148.914 128.686 148.209 128.897C147.512 129.103 146.794 129.205 146.056 129.205C143.855 129.205 142.009 128.474 140.519 127.011C139.029 125.548 138.284 123.76 138.284 121.648C138.284 119.536 139.029 117.748 140.519 116.285C142.009 114.822 143.855 114.091 146.056 114.091Z" fill="#4C57B9"/>
<path d="M120.71 173H114.414V158.296H120.392C121.582 158.296 122.597 158.689 123.438 159.475C124.278 160.261 124.699 161.164 124.699 162.182C124.699 162.77 124.576 163.31 124.33 163.802C124.09 164.294 123.851 164.636 123.612 164.828L123.232 165.125C123.287 165.152 123.362 165.2 123.458 165.269C123.561 165.33 123.742 165.47 124.001 165.689C124.261 165.901 124.483 166.137 124.668 166.396C124.859 166.656 125.034 166.995 125.191 167.412C125.355 167.822 125.437 168.249 125.437 168.693C125.437 169.869 124.986 170.881 124.083 171.729C123.181 172.576 122.057 173 120.71 173ZM116.721 171H120.71C121.394 171 121.968 170.771 122.433 170.313C122.897 169.849 123.13 169.274 123.13 168.591C123.13 167.907 122.897 167.333 122.433 166.868C121.975 166.403 121.4 166.171 120.71 166.171H116.721V171ZM120.392 160.295H116.721V164.284H120.392C120.966 164.284 121.441 164.096 121.817 163.72C122.2 163.337 122.392 162.862 122.392 162.295C122.392 161.721 122.2 161.246 121.817 160.87C121.441 160.487 120.966 160.295 120.392 160.295Z" fill="#4C57B9"/>
<path d="M59.2505 173L65.3413 158.296H67.6484L73.7393 173H71.3296L69.7505 169.114H63.2393L61.6602 173H59.2505ZM66.5 160.921L64.0801 167.012H68.9097L66.5 160.921Z" fill="#4C57B9"/>
<path d="M88.6881 127.242L93.0085 121.797H94.5319V133H92.7741V124.844L88.6881 129.961L84.61 124.844V133H82.8522V121.797H84.3678L88.6881 127.242ZM103.952 129.719H97.9525C98.0358 130.26 98.3014 130.729 98.7494 131.125C99.2025 131.521 99.7389 131.719 100.359 131.719C100.807 131.719 101.223 131.617 101.609 131.414C101.999 131.211 102.275 131.013 102.437 130.82L102.679 130.523L103.718 131.562C103.687 131.604 103.637 131.664 103.57 131.742C103.507 131.815 103.369 131.943 103.156 132.125C102.942 132.302 102.716 132.461 102.476 132.602C102.236 132.737 101.924 132.865 101.538 132.984C101.158 133.099 100.765 133.156 100.359 133.156C99.2702 133.156 98.3301 132.758 97.5384 131.961C96.752 131.159 96.3587 130.198 96.3587 129.078C96.3587 128 96.7415 127.078 97.5072 126.312C98.278 125.542 99.1999 125.156 100.273 125.156C101.351 125.156 102.247 125.516 102.96 126.234C103.679 126.948 104.038 127.844 104.038 128.922L103.952 129.719ZM100.273 126.523C99.6947 126.523 99.2077 126.695 98.8119 127.039C98.4212 127.378 98.1582 127.818 98.0228 128.359H102.468C102.374 127.818 102.132 127.378 101.742 127.039C101.351 126.695 100.861 126.523 100.273 126.523Z" fill="#4C57B9"/>
<path fill-rule="evenodd" clip-rule="evenodd" d="M201.825 255.835V247.219L206.06 252.624L210.303 247.219V255.835H212.128V244H210.546L206.06 249.752L201.574 244H200V255.835H201.825ZM218.179 256C218.601 256 219.011 255.938 219.408 255.814C219.806 255.691 220.129 255.556 220.377 255.41C220.626 255.264 220.862 255.096 221.083 254.906C221.305 254.717 221.45 254.582 221.517 254.502C221.585 254.422 221.635 254.36 221.667 254.316L220.588 253.219L220.337 253.532C220.169 253.736 219.884 253.945 219.481 254.16C219.078 254.374 218.644 254.481 218.179 254.481C217.535 254.481 216.98 254.272 216.512 253.854C216.044 253.436 215.767 252.941 215.68 252.369H221.911L222 251.527C222 250.388 221.628 249.44 220.885 248.684C220.141 247.927 219.211 247.549 218.094 247.549C216.977 247.549 216.02 247.955 215.222 248.766C214.424 249.578 214.025 250.553 214.025 251.692C214.025 252.875 214.435 253.889 215.254 254.733C216.074 255.578 217.049 256 218.179 256ZM215.753 250.933H220.369C220.272 250.36 220.021 249.894 219.615 249.534C219.209 249.173 218.701 248.993 218.09 248.993C217.489 248.993 216.985 249.173 216.577 249.534C216.168 249.894 215.894 250.36 215.753 250.933Z" fill="#4C57B9"/>
<path d="M173.164 202.797C173.164 202.453 173.055 202.167 172.836 201.938C172.617 201.703 172.333 201.521 171.984 201.391C171.641 201.255 171.258 201.135 170.836 201.031C170.414 200.922 169.992 200.789 169.57 200.633C169.148 200.477 168.763 200.289 168.414 200.07C168.07 199.852 167.789 199.542 167.57 199.141C167.352 198.734 167.242 198.247 167.242 197.68C167.242 196.815 167.573 196.094 168.234 195.516C168.896 194.932 169.792 194.641 170.922 194.641C171.339 194.641 171.737 194.693 172.117 194.797C172.503 194.896 172.82 195.016 173.07 195.156C173.326 195.292 173.547 195.43 173.734 195.57C173.927 195.706 174.068 195.823 174.156 195.922L174.281 196.078L173.164 197.203C173.143 197.182 173.112 197.148 173.07 197.102C173.034 197.049 172.945 196.971 172.805 196.867C172.669 196.758 172.521 196.661 172.359 196.578C172.203 196.49 171.995 196.411 171.734 196.344C171.479 196.276 171.208 196.242 170.922 196.242C170.344 196.242 169.878 196.385 169.523 196.672C169.174 196.958 169 197.294 169 197.68C169 198.023 169.109 198.312 169.328 198.547C169.547 198.781 169.828 198.966 170.172 199.102C170.521 199.232 170.906 199.352 171.328 199.461C171.75 199.565 172.172 199.695 172.594 199.852C173.016 200.003 173.398 200.188 173.742 200.406C174.091 200.625 174.375 200.938 174.594 201.344C174.812 201.75 174.922 202.234 174.922 202.797C174.922 203.786 174.568 204.594 173.859 205.219C173.151 205.844 172.172 206.156 170.922 206.156C170.411 206.156 169.924 206.096 169.461 205.977C169.003 205.852 168.625 205.706 168.328 205.539C168.031 205.367 167.773 205.195 167.555 205.023C167.336 204.852 167.177 204.708 167.078 204.594L166.922 204.398L168.039 203.281C168.06 203.312 168.094 203.359 168.141 203.422C168.193 203.479 168.305 203.583 168.477 203.734C168.654 203.88 168.844 204.01 169.047 204.125C169.25 204.234 169.518 204.336 169.852 204.43C170.19 204.518 170.547 204.562 170.922 204.562C171.615 204.562 172.161 204.393 172.562 204.055C172.964 203.716 173.164 203.297 173.164 202.797Z" fill="#4C57B9"/>
<path d="M166.688 82.2422L171.008 76.7969H172.532V88H170.774V79.8438L166.688 84.9609L162.61 79.8438V88H160.852V76.7969H162.368L166.688 82.2422ZM181.952 84.7188H175.952C176.036 85.2604 176.301 85.7292 176.749 86.125C177.202 86.5208 177.739 86.7188 178.359 86.7188C178.807 86.7188 179.223 86.6172 179.609 86.4141C179.999 86.2109 180.275 86.013 180.437 85.8203L180.679 85.5234L181.718 86.5625C181.687 86.6042 181.637 86.6641 181.57 86.7422C181.507 86.8151 181.369 86.9427 181.156 87.125C180.942 87.3021 180.716 87.4609 180.476 87.6016C180.236 87.737 179.924 87.8646 179.538 87.9844C179.158 88.099 178.765 88.1562 178.359 88.1562C177.27 88.1562 176.33 87.7578 175.538 86.9609C174.752 86.1589 174.359 85.1979 174.359 84.0781C174.359 83 174.742 82.0781 175.507 81.3125C176.278 80.5417 177.2 80.1562 178.273 80.1562C179.351 80.1562 180.247 80.5156 180.96 81.2344C181.679 81.9479 182.038 82.8438 182.038 83.9219L181.952 84.7188ZM178.273 81.5234C177.695 81.5234 177.208 81.6953 176.812 82.0391C176.421 82.3776 176.158 82.8177 176.023 83.3594H180.468C180.374 82.8177 180.132 82.3776 179.742 82.0391C179.351 81.6953 178.861 81.5234 178.273 81.5234Z" fill="#4C57B9"/>
<rect x="170" y="210" width="2" height="24" rx="1" fill="#4C57B9"/>
<rect x="196.058" y="246.884" width="2" height="29" rx="1" transform="rotate(120 196.058 246.884)" fill="#4C57B9"/>
</svg>
