<svg width="370" height="247" viewBox="0 0 370 247" fill="none" xmlns="http://www.w3.org/2000/svg">
<path d="M124.5 46C124.5 50.1421 121.142 53.5 117 53.5C112.858 53.5 109.5 50.1421 109.5 46C109.5 41.8579 112.858 38.5 117 38.5C121.142 38.5 124.5 41.8579 124.5 46Z" fill="#EDC41F" stroke="white"/>
<path d="M117.5 84C117.5 88.1421 114.142 91.5 110 91.5C105.858 91.5 102.5 88.1421 102.5 84C102.5 79.8579 105.858 76.5 110 76.5C114.142 76.5 117.5 79.8579 117.5 84Z" fill="#EDC41F" stroke="white"/>
<path d="M178.5 51C178.5 55.1421 175.142 58.5 171 58.5C166.858 58.5 163.5 55.1421 163.5 51C163.5 46.8579 166.858 43.5 171 43.5C175.142 43.5 178.5 46.8579 178.5 51Z" fill="#EDC41F" stroke="white"/>
<path d="M75.5 54C75.5 58.1421 72.1421 61.5 68 61.5C63.8579 61.5 60.5 58.1421 60.5 54C60.5 49.8579 63.8579 46.5 68 46.5C72.1421 46.5 75.5 49.8579 75.5 54Z" fill="#EDC41F" stroke="white"/>
<path d="M231.5 51C231.5 55.1421 228.142 58.5 224 58.5C219.858 58.5 216.5 55.1421 216.5 51C216.5 46.8579 219.858 43.5 224 43.5C228.142 43.5 231.5 46.8579 231.5 51Z" fill="#EDC41F" stroke="white"/>
<path d="M170.5 84C170.5 88.1421 167.142 91.5 163 91.5C158.858 91.5 155.5 88.1421 155.5 84C155.5 79.8579 158.858 76.5 163 76.5C167.142 76.5 170.5 79.8579 170.5 84Z" fill="#EDC41F" stroke="white"/>
<path d="M280.5 54C280.5 58.1421 277.142 61.5 273 61.5C268.858 61.5 265.5 58.1421 265.5 54C265.5 49.8579 268.858 46.5 273 46.5C277.142 46.5 280.5 49.8579 280.5 54Z" fill="#EDC41F" stroke="white"/>
<path d="M261.5 93C261.5 97.1421 258.142 100.5 254 100.5C249.858 100.5 246.5 97.1421 246.5 93C246.5 88.8579 249.858 85.5 254 85.5C258.142 85.5 261.5 88.8579 261.5 93Z" fill="#EDC41F" stroke="white"/>
<path d="M220.5 84C220.5 88.1421 217.142 91.5 213 91.5C208.858 91.5 205.5 88.1421 205.5 84C205.5 79.8579 208.858 76.5 213 76.5C217.142 76.5 220.5 79.8579 220.5 84Z" fill="#EDC41F" stroke="white"/>
<path d="M306.5 65C306.5 69.1421 303.142 72.5 299 72.5C294.858 72.5 291.5 69.1421 291.5 65C291.5 60.8579 294.858 57.5 299 57.5C303.142 57.5 306.5 60.8579 306.5 65Z" fill="#EDC41F" stroke="white"/>
<path d="M89.3516 13.083L95.292 5.5957H97.3867V21H94.9697V9.78516L89.3516 16.8213L83.7441 9.78516V21H81.3271V5.5957H83.4111L89.3516 13.083ZM108.172 18.2178C108.824 17.5374 109.149 16.7067 109.149 15.7256C109.149 14.7373 108.824 13.903 108.172 13.2227C107.52 12.5423 106.747 12.2021 105.852 12.2021C104.956 12.2021 104.179 12.5423 103.521 13.2227C102.869 13.903 102.543 14.7373 102.543 15.7256C102.543 16.7067 102.869 17.5374 103.521 18.2178C104.179 18.8981 104.956 19.2383 105.852 19.2383C106.747 19.2383 107.52 18.8981 108.172 18.2178ZM101.995 19.5713C100.899 18.4827 100.352 17.2008 100.352 15.7256C100.352 14.2432 100.896 12.9541 101.984 11.8584C103.08 10.7627 104.369 10.2148 105.852 10.2148C107.334 10.2148 108.619 10.7627 109.708 11.8584C110.804 12.9541 111.352 14.2432 111.352 15.7256C111.352 17.2008 110.804 18.4863 109.708 19.582C108.619 20.6706 107.334 21.2148 105.852 21.2148C104.369 21.2148 103.084 20.667 101.995 19.5713ZM114.982 10.4404H123.125V21H120.923V12.417H117.185V13.5234C117.185 15.5358 117.023 17.1257 116.701 18.293C116.386 19.4531 115.978 20.2301 115.477 20.624C114.982 21.0179 114.341 21.2148 113.554 21.2148C113.36 21.2148 113.153 21.1969 112.931 21.1611C112.716 21.1253 112.548 21.0859 112.426 21.043L112.232 21V18.9053C112.526 18.9769 112.78 19.0163 112.995 19.0234C113.446 19.0234 113.801 18.9017 114.059 18.6582C114.324 18.4147 114.542 17.8776 114.714 17.0469C114.893 16.209 114.982 15.0345 114.982 13.5234V10.4404ZM135.994 16.4883H127.744C127.859 17.2331 128.224 17.8776 128.84 18.4219C129.463 18.9661 130.201 19.2383 131.053 19.2383C131.669 19.2383 132.242 19.0986 132.771 18.8193C133.309 18.54 133.688 18.2679 133.91 18.0029L134.243 17.5947L135.672 19.0234C135.629 19.0807 135.561 19.1631 135.468 19.2705C135.382 19.3708 135.192 19.5462 134.898 19.7969C134.605 20.0404 134.293 20.2588 133.964 20.4521C133.634 20.6383 133.205 20.8138 132.675 20.9785C132.152 21.1361 131.611 21.2148 131.053 21.2148C129.556 21.2148 128.263 20.667 127.175 19.5713C126.093 18.4684 125.553 17.1471 125.553 15.6074C125.553 14.125 126.079 12.8574 127.132 11.8047C128.192 10.7448 129.459 10.2148 130.935 10.2148C132.417 10.2148 133.649 10.709 134.63 11.6973C135.618 12.6784 136.112 13.9102 136.112 15.3926L135.994 16.4883ZM130.935 12.0947C130.14 12.0947 129.47 12.3311 128.926 12.8037C128.389 13.2692 128.027 13.8743 127.841 14.6191H133.953C133.824 13.8743 133.491 13.2692 132.954 12.8037C132.417 12.3311 131.744 12.0947 130.935 12.0947ZM147.875 10.4404L143.804 14.8447L148.197 21H145.78L142.375 16.2734L140.721 18.0352V21H138.519V10.4404H140.721V15.167L145.232 10.4404H147.875ZM152.483 22.0957L152.924 21L148.627 10.4404H150.937L154.02 18.1426L157.103 10.4404H159.412L154.675 22.0957C154.131 23.3991 153.59 24.3122 153.053 24.835C152.523 25.3577 151.857 25.6191 151.055 25.6191C150.761 25.6191 150.485 25.6012 150.228 25.5654C149.97 25.5296 149.78 25.4902 149.658 25.4473L149.508 25.4043V23.417C149.873 23.5602 150.242 23.6354 150.614 23.6426C151.452 23.6354 152.075 23.1198 152.483 22.0957ZM162.377 10.4404H170.52V21H168.317V12.417H164.579V13.5234C164.579 15.5358 164.418 17.1257 164.096 18.293C163.781 19.4531 163.372 20.2301 162.871 20.624C162.377 21.0179 161.736 21.2148 160.948 21.2148C160.755 21.2148 160.547 21.1969 160.325 21.1611C160.11 21.1253 159.942 21.0859 159.82 21.043L159.627 21V18.9053C159.921 18.9769 160.175 19.0163 160.39 19.0234C160.841 19.0234 161.195 18.9017 161.453 18.6582C161.718 18.4147 161.937 17.8776 162.108 17.0469C162.287 16.209 162.377 15.0345 162.377 13.5234V10.4404ZM175.805 19.1309H178.114C178.616 19.1309 179.035 18.9626 179.371 18.626C179.708 18.2894 179.876 17.8704 179.876 17.3691C179.876 16.8678 179.708 16.4489 179.371 16.1123C179.035 15.7757 178.616 15.6074 178.114 15.6074H175.805V19.1309ZM180.993 14.7588C181.716 15.4463 182.078 16.32 182.078 17.3799C182.078 18.4326 181.713 19.2992 180.982 19.9795C180.259 20.6598 179.303 21 178.114 21H173.603V10.4404H175.805V13.7383H178.114C179.303 13.7383 180.263 14.0785 180.993 14.7588ZM185.816 10.4404V21H183.614V10.4404H185.816ZM200.694 11.8584C201.783 12.9541 202.327 14.2432 202.327 15.7256C202.327 17.2008 201.779 18.4863 200.684 19.582C199.595 20.6706 198.31 21.2148 196.827 21.2148C196.312 21.2148 195.807 21.1396 195.312 20.9893C194.826 20.8317 194.417 20.6491 194.088 20.4414C193.758 20.2266 193.461 20.0153 193.196 19.8076C192.931 19.5928 192.742 19.403 192.627 19.2383L192.423 19.0234L193.852 17.5947C193.88 17.6377 193.923 17.695 193.98 17.7666C194.045 17.8382 194.17 17.9707 194.356 18.1641C194.55 18.3503 194.75 18.5186 194.958 18.6689C195.173 18.8122 195.449 18.9447 195.785 19.0664C196.129 19.181 196.476 19.2383 196.827 19.2383C197.328 19.2383 197.776 19.1452 198.17 18.959C198.564 18.7656 198.868 18.5365 199.083 18.2715C199.305 18.0065 199.488 17.738 199.631 17.4658C199.781 17.1937 199.882 16.9645 199.932 16.7783L200.018 16.4883H195.173V14.6191H199.91C199.896 14.5618 199.864 14.4795 199.813 14.3721C199.771 14.2575 199.667 14.0605 199.502 13.7812C199.344 13.502 199.162 13.2585 198.954 13.0508C198.754 12.8359 198.46 12.6426 198.073 12.4707C197.694 12.2917 197.278 12.2021 196.827 12.2021C196.269 12.2021 195.749 12.3311 195.27 12.5889C194.797 12.8395 194.457 13.0902 194.249 13.3408L193.97 13.7383L192.53 12.3096C192.573 12.2523 192.634 12.1771 192.713 12.084C192.799 11.9837 192.978 11.819 193.25 11.5898C193.522 11.3535 193.812 11.1423 194.12 10.9561C194.428 10.7699 194.826 10.6016 195.312 10.4512C195.807 10.2936 196.312 10.2148 196.827 10.2148C198.31 10.2148 199.599 10.7627 200.694 11.8584ZM206.936 12.417V21H204.733V10.4404H214.305V21H212.103V12.417H206.936ZM218.602 10.4404H226.744V21H224.542V12.417H220.804V13.5234C220.804 15.5358 220.643 17.1257 220.32 18.293C220.005 19.4531 219.597 20.2301 219.096 20.624C218.602 21.0179 217.961 21.2148 217.173 21.2148C216.979 21.2148 216.772 21.1969 216.55 21.1611C216.335 21.1253 216.167 21.0859 216.045 21.043L215.852 21V18.9053C216.145 18.9769 216.399 19.0163 216.614 19.0234C217.065 19.0234 217.42 18.9017 217.678 18.6582C217.943 18.4147 218.161 17.8776 218.333 17.0469C218.512 16.209 218.602 15.0345 218.602 13.5234V10.4404ZM239.613 16.4883H231.363C231.478 17.2331 231.843 17.8776 232.459 18.4219C233.082 18.9661 233.82 19.2383 234.672 19.2383C235.288 19.2383 235.861 19.0986 236.391 18.8193C236.928 18.54 237.307 18.2679 237.529 18.0029L237.862 17.5947L239.291 19.0234C239.248 19.0807 239.18 19.1631 239.087 19.2705C239.001 19.3708 238.811 19.5462 238.518 19.7969C238.224 20.0404 237.912 20.2588 237.583 20.4521C237.254 20.6383 236.824 20.8138 236.294 20.9785C235.771 21.1361 235.23 21.2148 234.672 21.2148C233.175 21.2148 231.882 20.667 230.794 19.5713C229.713 18.4684 229.172 17.1471 229.172 15.6074C229.172 14.125 229.698 12.8574 230.751 11.8047C231.811 10.7448 233.078 10.2148 234.554 10.2148C236.036 10.2148 237.268 10.709 238.249 11.6973C239.237 12.6784 239.731 13.9102 239.731 15.3926L239.613 16.4883ZM234.554 12.0947C233.759 12.0947 233.089 12.3311 232.545 12.8037C232.008 13.2692 231.646 13.8743 231.46 14.6191H237.572C237.443 13.8743 237.11 13.2692 236.573 12.8037C236.036 12.3311 235.363 12.0947 234.554 12.0947ZM247.745 21.2148C247.351 21.2148 246.968 21.1683 246.596 21.0752C246.223 20.9821 245.905 20.8675 245.64 20.7314C245.375 20.5882 245.138 20.445 244.931 20.3018C244.73 20.1514 244.583 20.0332 244.49 19.9473L244.34 19.7861V25.6191H242.138V10.4404H244.34V11.6543C244.44 11.554 244.58 11.4215 244.759 11.2568C244.945 11.0921 245.335 10.8773 245.93 10.6123C246.524 10.3473 247.129 10.2148 247.745 10.2148C249.142 10.2148 250.352 10.752 251.376 11.8262C252.407 12.8932 252.923 14.1895 252.923 15.7148C252.923 17.2402 252.407 18.54 251.376 19.6143C250.352 20.6813 249.142 21.2148 247.745 21.2148ZM249.754 13.2334C249.109 12.5459 248.368 12.2021 247.53 12.2021C246.692 12.2021 245.951 12.5459 245.307 13.2334C244.662 13.9209 244.34 14.7516 244.34 15.7256C244.34 16.6924 244.662 17.5195 245.307 18.207C245.951 18.8945 246.692 19.2383 247.53 19.2383C248.368 19.2383 249.109 18.8945 249.754 18.207C250.398 17.5195 250.721 16.6924 250.721 15.7256C250.721 14.7516 250.398 13.9209 249.754 13.2334ZM262.494 18.2178C263.146 17.5374 263.472 16.7067 263.472 15.7256C263.472 14.7373 263.146 13.903 262.494 13.2227C261.842 12.5423 261.069 12.2021 260.174 12.2021C259.279 12.2021 258.502 12.5423 257.843 13.2227C257.191 13.903 256.865 14.7373 256.865 15.7256C256.865 16.7067 257.191 17.5374 257.843 18.2178C258.502 18.8981 259.279 19.2383 260.174 19.2383C261.069 19.2383 261.842 18.8981 262.494 18.2178ZM256.317 19.5713C255.222 18.4827 254.674 17.2008 254.674 15.7256C254.674 14.2432 255.218 12.9541 256.307 11.8584C257.402 10.7627 258.691 10.2148 260.174 10.2148C261.656 10.2148 262.942 10.7627 264.03 11.8584C265.126 12.9541 265.674 14.2432 265.674 15.7256C265.674 17.2008 265.126 18.4863 264.03 19.582C262.942 20.6706 261.656 21.2148 260.174 21.2148C258.691 21.2148 257.406 20.667 256.317 19.5713ZM270.293 16.5957V21H268.091V10.4404H270.293V14.6191H275.46V10.4404H277.662V21H275.46V16.5957H270.293ZM289.221 21H287.019V19.9043C286.99 19.9329 286.94 19.9795 286.868 20.0439C286.804 20.1084 286.668 20.2158 286.46 20.3662C286.259 20.5094 286.041 20.6419 285.805 20.7637C285.568 20.8783 285.271 20.9821 284.913 21.0752C284.555 21.1683 284.193 21.2148 283.828 21.2148C282.754 21.2148 281.862 20.9033 281.153 20.2803C280.444 19.6572 280.09 18.9447 280.09 18.1426C280.09 17.276 280.362 16.5492 280.906 15.9619C281.458 15.3747 282.21 15.0023 283.162 14.8447L287.019 14.1787C287.019 13.6201 286.811 13.151 286.396 12.7715C285.987 12.3919 285.461 12.2021 284.816 12.2021C284.258 12.2021 283.749 12.3203 283.291 12.5566C282.84 12.7858 282.528 13.0186 282.356 13.2549L282.066 13.6309L280.638 12.2021C280.681 12.1449 280.738 12.0732 280.81 11.9873C280.888 11.8942 281.057 11.7367 281.314 11.5146C281.579 11.2855 281.859 11.0814 282.152 10.9023C282.446 10.7233 282.833 10.5658 283.312 10.4297C283.799 10.2865 284.301 10.2148 284.816 10.2148C286.105 10.2148 287.162 10.598 287.985 11.3643C288.809 12.1234 289.221 13.0615 289.221 14.1787V21ZM284.161 19.2383C285.056 19.2383 285.755 18.9733 286.256 18.4434C286.764 17.9062 287.019 17.1436 287.019 16.1553V15.9404L283.603 16.4883C283.209 16.5599 282.89 16.721 282.646 16.9717C282.403 17.2223 282.281 17.5374 282.281 17.917C282.281 18.2679 282.45 18.5758 282.786 18.8408C283.13 19.1058 283.588 19.2383 284.161 19.2383Z" fill="black"/>
<path d="M129.533 226.596H135.688C137.157 226.596 138.385 227.079 139.373 228.046C140.368 229.006 140.866 230.176 140.866 231.559C140.866 232.934 140.368 234.101 139.373 235.061C138.385 236.02 137.157 236.5 135.688 236.5H131.95V242H129.533V226.596ZM135.688 228.798H131.95V234.298H135.688C136.448 234.298 137.096 234.036 137.633 233.514C138.17 232.984 138.438 232.332 138.438 231.559C138.438 230.778 138.17 230.123 137.633 229.593C137.096 229.063 136.448 228.798 135.688 228.798ZM152.94 237.488H144.69C144.805 238.233 145.17 238.878 145.786 239.422C146.409 239.966 147.147 240.238 147.999 240.238C148.615 240.238 149.188 240.099 149.718 239.819C150.255 239.54 150.634 239.268 150.856 239.003L151.189 238.595L152.618 240.023C152.575 240.081 152.507 240.163 152.414 240.271C152.328 240.371 152.138 240.546 151.845 240.797C151.551 241.04 151.24 241.259 150.91 241.452C150.581 241.638 150.151 241.814 149.621 241.979C149.098 242.136 148.558 242.215 147.999 242.215C146.502 242.215 145.21 241.667 144.121 240.571C143.04 239.468 142.499 238.147 142.499 236.607C142.499 235.125 143.025 233.857 144.078 232.805C145.138 231.745 146.406 231.215 147.881 231.215C149.363 231.215 150.595 231.709 151.576 232.697C152.564 233.678 153.059 234.91 153.059 236.393L152.94 237.488ZM147.881 233.095C147.086 233.095 146.416 233.331 145.872 233.804C145.335 234.269 144.973 234.874 144.787 235.619H150.899C150.771 234.874 150.438 234.269 149.9 233.804C149.363 233.331 148.69 233.095 147.881 233.095ZM155.465 242V231.44H157.667V240.023H162.619V231.44H164.821V240.023H166.357V244.643H164.155V242H155.465ZM178.335 237.488H170.085C170.2 238.233 170.565 238.878 171.181 239.422C171.804 239.966 172.541 240.238 173.394 240.238C174.009 240.238 174.582 240.099 175.112 239.819C175.649 239.54 176.029 239.268 176.251 239.003L176.584 238.595L178.013 240.023C177.97 240.081 177.902 240.163 177.809 240.271C177.723 240.371 177.533 240.546 177.239 240.797C176.946 241.04 176.634 241.259 176.305 241.452C175.975 241.638 175.546 241.814 175.016 241.979C174.493 242.136 173.952 242.215 173.394 242.215C171.897 242.215 170.604 241.667 169.516 240.571C168.434 239.468 167.894 238.147 167.894 236.607C167.894 235.125 168.42 233.857 169.473 232.805C170.533 231.745 171.8 231.215 173.275 231.215C174.758 231.215 175.99 231.709 176.971 232.697C177.959 233.678 178.453 234.91 178.453 236.393L178.335 237.488ZM173.275 233.095C172.48 233.095 171.811 233.331 171.267 233.804C170.729 234.269 170.368 234.874 170.182 235.619H176.294C176.165 234.874 175.832 234.269 175.295 233.804C174.758 233.331 174.085 233.095 173.275 233.095ZM183.062 233.417V242H180.859V231.44H190.431V242H188.229V233.417H183.062ZM192.418 233.417V231.44H201.871V233.417H198.24V242H196.049V233.417H192.418ZM211.013 239.218C211.664 238.537 211.99 237.707 211.99 236.726C211.99 235.737 211.664 234.903 211.013 234.223C210.361 233.542 209.588 233.202 208.692 233.202C207.797 233.202 207.02 233.542 206.361 234.223C205.71 234.903 205.384 235.737 205.384 236.726C205.384 237.707 205.71 238.537 206.361 239.218C207.02 239.898 207.797 240.238 208.692 240.238C209.588 240.238 210.361 239.898 211.013 239.218ZM204.836 240.571C203.74 239.483 203.192 238.201 203.192 236.726C203.192 235.243 203.737 233.954 204.825 232.858C205.921 231.763 207.21 231.215 208.692 231.215C210.175 231.215 211.46 231.763 212.549 232.858C213.645 233.954 214.192 235.243 214.192 236.726C214.192 238.201 213.645 239.486 212.549 240.582C211.46 241.671 210.175 242.215 208.692 242.215C207.21 242.215 205.924 241.667 204.836 240.571ZM222.217 242.215C221.823 242.215 221.44 242.168 221.067 242.075C220.695 241.982 220.376 241.868 220.111 241.731C219.846 241.588 219.61 241.445 219.402 241.302C219.202 241.151 219.055 241.033 218.962 240.947L218.812 240.786V246.619H216.609V231.44H218.812V232.654C218.912 232.554 219.051 232.422 219.23 232.257C219.417 232.092 219.807 231.877 220.401 231.612C220.996 231.347 221.601 231.215 222.217 231.215C223.613 231.215 224.824 231.752 225.848 232.826C226.879 233.893 227.395 235.189 227.395 236.715C227.395 238.24 226.879 239.54 225.848 240.614C224.824 241.681 223.613 242.215 222.217 242.215ZM224.226 234.233C223.581 233.546 222.84 233.202 222.002 233.202C221.164 233.202 220.423 233.546 219.778 234.233C219.134 234.921 218.812 235.752 218.812 236.726C218.812 237.692 219.134 238.52 219.778 239.207C220.423 239.895 221.164 240.238 222.002 240.238C222.84 240.238 223.581 239.895 224.226 239.207C224.87 238.52 225.192 237.692 225.192 236.726C225.192 235.752 224.87 234.921 224.226 234.233ZM232.003 240.131H234.312C234.814 240.131 235.233 239.963 235.569 239.626C235.906 239.289 236.074 238.87 236.074 238.369C236.074 237.868 235.906 237.449 235.569 237.112C235.233 236.776 234.814 236.607 234.312 236.607H232.003V240.131ZM237.191 235.759C237.915 236.446 238.276 237.32 238.276 238.38C238.276 239.433 237.911 240.299 237.181 240.979C236.457 241.66 235.501 242 234.312 242H229.801V231.44H232.003V234.738H234.312C235.501 234.738 236.461 235.078 237.191 235.759ZM242.015 231.44V242H239.812V231.44H242.015Z" fill="black"/>
<path fill-rule="evenodd" clip-rule="evenodd" d="M52 112C52 112 57.3571 137 77 137C96.6429 137 102 112 102 112H52Z" fill="#EDC41F"/>
<path fill-rule="evenodd" clip-rule="evenodd" d="M124 112C124 112 129.357 137 149 137C168.643 137 174 112 174 112H124Z" fill="#32AD28"/>
<path fill-rule="evenodd" clip-rule="evenodd" d="M196 112C196 112 201.357 137 221 137C240.643 137 246 112 246 112H196Z" fill="#D73030"/>
<path fill-rule="evenodd" clip-rule="evenodd" d="M268 112C268 112 273.357 137 293 137C312.643 137 318 112 318 112H268Z" fill="#38BEBD"/>
<path d="M101.7 113.298C101.729 113.191 101.756 113.092 101.781 113H124.219C124.243 113.092 124.27 113.191 124.299 113.297C124.485 113.972 124.771 114.931 125.173 116.08C125.976 118.375 127.248 121.444 129.125 124.521C132.868 130.658 139.136 137 149 137C158.864 137 165.132 130.658 168.875 124.521C170.752 121.444 172.024 118.375 172.827 116.08C173.229 114.931 173.515 113.972 173.701 113.297C173.73 113.191 173.757 113.092 173.781 113H196.235C196.263 113.097 196.293 113.202 196.327 113.316C196.527 113.99 196.832 114.948 197.256 116.096C198.101 118.389 199.424 121.454 201.334 124.528C205.137 130.649 211.402 137 221 137C230.598 137 236.863 130.649 240.666 124.528C242.576 121.454 243.899 118.389 244.744 116.096C245.168 114.948 245.473 113.99 245.673 113.316C245.707 113.202 245.737 113.097 245.765 113H268.186C268.204 113.081 268.223 113.167 268.245 113.259C268.403 113.935 268.65 114.897 269.009 116.048C269.726 118.347 270.896 121.422 272.707 124.506C276.329 130.674 282.603 137 293 137C303.397 137 309.671 130.674 313.293 124.506C315.104 121.422 316.274 118.347 316.991 116.048C317.35 114.897 317.597 113.935 317.755 113.259C317.777 113.167 317.796 113.081 317.814 113H350C360.493 113 369 121.507 369 132V179C369 189.493 360.493 198 350 198H20C9.5066 198 1 189.493 1 179V132C1 121.507 9.50659 113 20 113H52.2194C52.2439 113.092 52.2708 113.191 52.3002 113.298C52.4867 113.973 52.7733 114.932 53.1761 116.081C53.9804 118.375 55.2545 121.444 57.1324 124.521C60.8778 130.658 67.1452 137 77 137C86.8548 137 93.1222 130.658 96.8676 124.521C98.7456 121.444 100.02 118.375 100.824 116.081C101.227 114.932 101.513 113.973 101.7 113.298Z" fill="white" fill-opacity="0.4" stroke="#4C57B9" stroke-width="2"/>
<path d="M16.0181 153.313L11.2534 159.597L6.49707 153.313V163H5.21875V151.097H6.32275L11.2534 157.563L16.1841 151.097H17.2881V163H16.0181V153.313ZM26.4688 154.84H27.4897V163H26.2944V156.882L21.3638 163H20.3511V154.84H21.5381V160.958L26.4688 154.84ZM36.0728 163V159.431H31.3994V163H30.2124V154.84H31.3994V158.327H36.0728V154.84H37.2681V163H36.0728ZM47.2124 159.364L40.5801 159.348C40.6243 160.084 40.9259 160.72 41.4849 161.257C42.0493 161.794 42.7106 162.062 43.4688 162.062C43.9779 162.062 44.451 161.949 44.8882 161.722C45.3254 161.495 45.6353 161.268 45.8179 161.041L46.1084 160.709L46.8721 161.473C46.8389 161.517 46.7891 161.581 46.7227 161.664C46.6618 161.741 46.5234 161.877 46.3076 162.07C46.0973 162.258 45.8677 162.427 45.6187 162.577C45.3752 162.721 45.057 162.856 44.6641 162.983C44.2767 163.105 43.8783 163.166 43.4688 163.166C42.3564 163.166 41.3991 162.754 40.5967 161.929C39.7943 161.099 39.3931 160.095 39.3931 158.916C39.3931 157.737 39.7887 156.736 40.5801 155.911C41.377 155.081 42.3122 154.666 43.3857 154.666C44.498 154.666 45.4277 155.053 46.1748 155.828C46.9219 156.597 47.2954 157.571 47.2954 158.75L47.2124 159.364ZM45.2202 156.5C44.7111 156.019 44.0996 155.778 43.3857 155.778C42.6719 155.778 42.0493 156.03 41.5181 156.534C40.9868 157.037 40.6742 157.635 40.5801 158.327H46.1084C46.0199 157.591 45.7238 156.982 45.2202 156.5ZM51.5039 156.716C50.9062 157.347 50.6074 158.083 50.6074 158.924C50.6074 159.76 50.9035 160.493 51.4956 161.124C52.0933 161.749 52.7601 162.062 53.4961 162.062C54.1989 162.062 54.827 161.758 55.3804 161.149C55.9393 160.535 56.2188 159.793 56.2188 158.924C56.2188 158.05 55.9393 157.308 55.3804 156.7C54.827 156.085 54.1989 155.778 53.4961 155.778C52.7601 155.778 52.096 156.091 51.5039 156.716ZM50.6074 161.722V166.569H49.4204V154.84H50.6074V156.119C50.6296 156.085 50.6683 156.036 50.7236 155.969C50.7845 155.897 50.9035 155.778 51.0806 155.612C51.2632 155.446 51.4596 155.3 51.6699 155.172C51.8802 155.04 52.1486 154.923 52.4751 154.824C52.8071 154.719 53.1475 154.666 53.4961 154.666C54.5365 154.666 55.4468 155.084 56.2271 155.919C57.0129 156.755 57.4058 157.757 57.4058 158.924C57.4058 160.086 57.0156 161.085 56.2354 161.921C55.4551 162.751 54.542 163.166 53.4961 163.166C53.1475 163.166 52.8099 163.116 52.4834 163.017C52.1624 162.917 51.8913 162.798 51.6699 162.66C51.4486 162.521 51.2549 162.383 51.0889 162.245C50.9284 162.101 50.8066 161.979 50.7236 161.879L50.6074 161.722ZM61.3154 158.327L64.4614 157.812C64.4614 157.209 64.2705 156.719 63.8887 156.343C63.5068 155.966 63.0171 155.778 62.4194 155.778C61.9878 155.778 61.5811 155.878 61.1992 156.077C60.8229 156.271 60.549 156.47 60.3774 156.675L60.1201 156.965L59.3564 156.202C59.3896 156.157 59.4339 156.102 59.4893 156.036C59.5501 155.964 59.6774 155.842 59.8711 155.67C60.0703 155.493 60.2778 155.336 60.4937 155.197C60.7095 155.059 60.9917 154.937 61.3403 154.832C61.6945 154.721 62.0542 154.666 62.4194 154.666C63.3491 154.666 64.1183 154.968 64.7271 155.571C65.3413 156.174 65.6484 156.921 65.6484 157.812V163H64.4614V161.896C64.4393 161.929 64.4033 161.976 64.3535 162.037C64.3092 162.092 64.2041 162.195 64.0381 162.344C63.8776 162.488 63.7033 162.618 63.5151 162.734C63.327 162.845 63.078 162.945 62.7681 163.033C62.4637 163.122 62.1483 163.166 61.8218 163.166C61.0083 163.166 60.3221 162.925 59.7632 162.444C59.2098 161.962 58.9331 161.412 58.9331 160.792C58.9331 160.111 59.1379 159.563 59.5474 159.148C59.9569 158.728 60.5462 158.454 61.3154 158.327ZM61.8218 162.062C62.591 162.062 63.2218 161.81 63.7144 161.307C64.2124 160.803 64.4614 160.15 64.4614 159.348V158.833L61.6558 159.348C60.6375 159.541 60.1257 160.023 60.1201 160.792C60.1201 161.157 60.2695 161.462 60.5684 161.705C60.8727 161.943 61.2905 162.062 61.8218 162.062ZM69.2095 154.84H75.1611V163H73.9658V155.944H70.3965V157.223C70.3965 158.424 70.3356 159.425 70.2139 160.228C70.0977 161.024 69.9206 161.633 69.6826 162.054C69.4447 162.469 69.1818 162.759 68.894 162.925C68.6063 163.086 68.2576 163.166 67.8481 163.166C67.7098 163.166 67.5687 163.152 67.4248 163.125C67.2865 163.097 67.1841 163.066 67.1177 163.033L67.0015 163V161.813C67.2284 161.924 67.4552 161.979 67.6821 161.979C68.0308 161.979 68.3047 161.879 68.5039 161.68C68.7031 161.481 68.8691 161.022 69.002 160.302C69.1403 159.583 69.2095 158.556 69.2095 157.223V154.84ZM83.5449 161.149C84.126 160.546 84.4165 159.804 84.4165 158.924C84.4165 158.039 84.1232 157.295 83.5366 156.691C82.9556 156.083 82.2555 155.778 81.4365 155.778C80.623 155.778 79.923 156.083 79.3364 156.691C78.7554 157.295 78.4648 158.036 78.4648 158.916C78.4648 159.79 78.7554 160.535 79.3364 161.149C79.923 161.758 80.623 162.062 81.4365 162.062C82.2555 162.062 82.9583 161.758 83.5449 161.149ZM78.498 161.938C77.6846 161.118 77.2778 160.114 77.2778 158.924C77.2778 157.729 77.6818 156.722 78.4897 155.903C79.3032 155.078 80.2882 154.666 81.4448 154.666C82.6014 154.666 83.5837 155.078 84.3916 155.903C85.1995 156.722 85.6035 157.729 85.6035 158.924C85.6035 160.114 85.1995 161.118 84.3916 161.938C83.5837 162.757 82.6014 163.166 81.4448 163.166C80.2882 163.166 79.306 162.757 78.498 161.938ZM88.9238 160.709V163H87.7368V154.84H88.9238V159.173L92.9995 154.84H94.4521L91.3062 158.152L94.7925 163H93.4312L90.5425 159.007L88.9238 160.709ZM101.641 161.149C102.222 160.546 102.512 159.804 102.512 158.924C102.512 158.039 102.219 157.295 101.632 156.691C101.051 156.083 100.351 155.778 99.5322 155.778C98.7188 155.778 98.0187 156.083 97.4321 156.691C96.8511 157.295 96.5605 158.036 96.5605 158.916C96.5605 159.79 96.8511 160.535 97.4321 161.149C98.0187 161.758 98.7188 162.062 99.5322 162.062C100.351 162.062 101.054 161.758 101.641 161.149ZM96.5938 161.938C95.7803 161.118 95.3735 160.114 95.3735 158.924C95.3735 157.729 95.7775 156.722 96.5854 155.903C97.3989 155.078 98.384 154.666 99.5405 154.666C100.697 154.666 101.679 155.078 102.487 155.903C103.295 156.722 103.699 157.729 103.699 158.924C103.699 160.114 103.295 161.118 102.487 161.938C101.679 162.757 100.697 163.166 99.5405 163.166C98.384 163.166 97.4017 162.757 96.5938 161.938ZM107.916 156.716C107.318 157.347 107.02 158.083 107.02 158.924C107.02 159.76 107.316 160.493 107.908 161.124C108.505 161.749 109.172 162.062 109.908 162.062C110.611 162.062 111.239 161.758 111.792 161.149C112.351 160.535 112.631 159.793 112.631 158.924C112.631 158.05 112.351 157.308 111.792 156.7C111.239 156.085 110.611 155.778 109.908 155.778C109.172 155.778 108.508 156.091 107.916 156.716ZM107.02 161.722V166.569H105.833V154.84H107.02V156.119C107.042 156.085 107.08 156.036 107.136 155.969C107.197 155.897 107.316 155.778 107.493 155.612C107.675 155.446 107.872 155.3 108.082 155.172C108.292 155.04 108.561 154.923 108.887 154.824C109.219 154.719 109.56 154.666 109.908 154.666C110.949 154.666 111.859 155.084 112.639 155.919C113.425 156.755 113.818 157.757 113.818 158.924C113.818 160.086 113.428 161.085 112.647 161.921C111.867 162.751 110.954 163.166 109.908 163.166C109.56 163.166 109.222 163.116 108.896 163.017C108.575 162.917 108.303 162.798 108.082 162.66C107.861 162.521 107.667 162.383 107.501 162.245C107.34 162.101 107.219 161.979 107.136 161.879L107.02 161.722ZM114.922 155.944V154.84H121.886V155.944H118.998V163H117.811V155.944H114.922ZM129.714 154.84H130.735V163H129.54V156.882L124.609 163H123.596V154.84H124.783V160.958L129.714 154.84ZM134.645 160.709V163H133.458V154.84H134.645V159.173L138.72 154.84H140.173L137.027 158.152L140.513 163H139.152L136.263 159.007L134.645 160.709ZM147.361 161.149C147.942 160.546 148.233 159.804 148.233 158.924C148.233 158.039 147.94 157.295 147.353 156.691C146.772 156.083 146.072 155.778 145.253 155.778C144.439 155.778 143.739 156.083 143.153 156.691C142.572 157.295 142.281 158.036 142.281 158.916C142.281 159.79 142.572 160.535 143.153 161.149C143.739 161.758 144.439 162.062 145.253 162.062C146.072 162.062 146.775 161.758 147.361 161.149ZM142.314 161.938C141.501 161.118 141.094 160.114 141.094 158.924C141.094 157.729 141.498 156.722 142.306 155.903C143.12 155.078 144.105 154.666 145.261 154.666C146.418 154.666 147.4 155.078 148.208 155.903C149.016 156.722 149.42 157.729 149.42 158.924C149.42 160.114 149.016 161.118 148.208 161.938C147.4 162.757 146.418 163.166 145.261 163.166C144.105 163.166 143.122 162.757 142.314 161.938ZM157.671 154.84H158.692V163H157.497V156.882L152.566 163H151.553V154.84H152.74V160.958L157.671 154.84ZM168.977 161.896V165.042H167.79V163H161.24V165.042H160.053V161.896H160.643C160.676 161.863 160.726 161.807 160.792 161.73C160.864 161.647 160.983 161.464 161.149 161.182C161.315 160.9 161.462 160.596 161.589 160.269C161.722 159.937 161.838 159.497 161.938 158.949C162.043 158.396 162.095 157.82 162.095 157.223V154.84H167.698V161.896H168.977ZM163.282 155.944V157.223C163.282 158.152 163.169 159.005 162.942 159.779C162.715 160.554 162.488 161.102 162.261 161.423L161.921 161.896H166.511V155.944H163.282Z" fill="black"/>
<path d="M118.611 182.493L116.32 176.881L114.021 182.493H118.611ZM119.125 183.688H113.514L112.153 187H110.792L115.722 175.097H116.909L121.84 187H120.487L119.125 183.688ZM129.41 187V183.431H124.737V187H123.55V178.84H124.737V182.327H129.41V178.84H130.605V187H129.41ZM140.89 185.896V189.042H139.703V187H133.154V189.042H131.967V185.896H132.556C132.589 185.863 132.639 185.807 132.706 185.73C132.778 185.647 132.896 185.464 133.062 185.182C133.229 184.9 133.375 184.596 133.502 184.269C133.635 183.937 133.751 183.497 133.851 182.949C133.956 182.396 134.009 181.82 134.009 181.223V178.84H139.612V185.896H140.89ZM135.196 179.944V181.223C135.196 182.152 135.082 183.005 134.855 183.779C134.629 184.554 134.402 185.102 134.175 185.423L133.834 185.896H138.425V179.944H135.196ZM144.841 180.716C144.244 181.347 143.945 182.083 143.945 182.924C143.945 183.76 144.241 184.493 144.833 185.124C145.431 185.749 146.097 186.062 146.833 186.062C147.536 186.062 148.164 185.758 148.718 185.149C149.277 184.535 149.556 183.793 149.556 182.924C149.556 182.05 149.277 181.308 148.718 180.7C148.164 180.085 147.536 179.778 146.833 179.778C146.097 179.778 145.433 180.091 144.841 180.716ZM143.945 185.722V190.569H142.758V178.84H143.945V180.119C143.967 180.085 144.006 180.036 144.061 179.969C144.122 179.897 144.241 179.778 144.418 179.612C144.601 179.446 144.797 179.3 145.007 179.172C145.218 179.04 145.486 178.923 145.812 178.824C146.145 178.719 146.485 178.666 146.833 178.666C147.874 178.666 148.784 179.084 149.564 179.919C150.35 180.755 150.743 181.757 150.743 182.924C150.743 184.086 150.353 185.085 149.573 185.921C148.792 186.751 147.879 187.166 146.833 187.166C146.485 187.166 146.147 187.116 145.821 187.017C145.5 186.917 145.229 186.798 145.007 186.66C144.786 186.521 144.592 186.383 144.426 186.245C144.266 186.101 144.144 185.979 144.061 185.879L143.945 185.722ZM158.538 185.149C159.119 184.546 159.409 183.804 159.409 182.924C159.409 182.039 159.116 181.295 158.529 180.691C157.948 180.083 157.248 179.778 156.429 179.778C155.616 179.778 154.916 180.083 154.329 180.691C153.748 181.295 153.458 182.036 153.458 182.916C153.458 183.79 153.748 184.535 154.329 185.149C154.916 185.758 155.616 186.062 156.429 186.062C157.248 186.062 157.951 185.758 158.538 185.149ZM153.491 185.938C152.677 185.118 152.271 184.114 152.271 182.924C152.271 181.729 152.674 180.722 153.482 179.903C154.296 179.078 155.281 178.666 156.438 178.666C157.594 178.666 158.576 179.078 159.384 179.903C160.192 180.722 160.596 181.729 160.596 182.924C160.596 184.114 160.192 185.118 159.384 185.938C158.576 186.757 157.594 187.166 156.438 187.166C155.281 187.166 154.299 186.757 153.491 185.938ZM168.167 178.84V179.944H163.917V187H162.729V178.84H168.167ZM176.924 183.364L170.292 183.348C170.336 184.084 170.637 184.72 171.196 185.257C171.761 185.794 172.422 186.062 173.18 186.062C173.689 186.062 174.162 185.949 174.6 185.722C175.037 185.495 175.347 185.268 175.529 185.041L175.82 184.709L176.583 185.473C176.55 185.517 176.5 185.581 176.434 185.664C176.373 185.741 176.235 185.877 176.019 186.07C175.809 186.258 175.579 186.427 175.33 186.577C175.087 186.721 174.768 186.856 174.375 186.983C173.988 187.105 173.59 187.166 173.18 187.166C172.068 187.166 171.111 186.754 170.308 185.929C169.506 185.099 169.104 184.095 169.104 182.916C169.104 181.737 169.5 180.736 170.292 179.911C171.088 179.081 172.024 178.666 173.097 178.666C174.209 178.666 175.139 179.053 175.886 179.828C176.633 180.597 177.007 181.571 177.007 182.75L176.924 183.364ZM174.932 180.5C174.423 180.019 173.811 179.778 173.097 179.778C172.383 179.778 171.761 180.03 171.229 180.534C170.698 181.037 170.386 181.635 170.292 182.327H175.82C175.731 181.591 175.435 180.982 174.932 180.5ZM184.992 187V183.431H180.319V187H179.132V178.84H180.319V182.327H184.992V178.84H186.188V187H184.992Z" fill="black"/>
<path d="M237.85 187V175.097H245.246V176.292H239.128V187H237.85ZM246.175 178.84H252.127V187H250.932V179.944H247.362V181.223C247.362 182.424 247.301 183.425 247.18 184.228C247.063 185.024 246.886 185.633 246.648 186.054C246.41 186.469 246.148 186.759 245.86 186.925C245.572 187.086 245.223 187.166 244.814 187.166C244.676 187.166 244.535 187.152 244.391 187.125C244.252 187.097 244.15 187.066 244.083 187.033L243.967 187V185.813C244.194 185.924 244.421 185.979 244.648 185.979C244.997 185.979 245.271 185.879 245.47 185.68C245.669 185.481 245.835 185.022 245.968 184.302C246.106 183.583 246.175 182.556 246.175 181.223V178.84ZM264.769 179.903C265.571 180.733 265.973 181.737 265.973 182.916C265.973 184.095 265.569 185.099 264.761 185.929C263.958 186.754 263.004 187.166 261.897 187.166C260.857 187.166 259.946 186.804 259.166 186.079C258.391 185.354 257.94 184.471 257.813 183.431H256.028V187H254.841V178.84H256.028V182.327H257.813C257.951 181.331 258.405 180.473 259.174 179.753C259.944 179.028 260.851 178.666 261.897 178.666C263.009 178.666 263.967 179.078 264.769 179.903ZM259.863 180.683C259.288 181.292 259 182.039 259 182.924C259 183.804 259.285 184.549 259.855 185.157C260.431 185.76 261.108 186.062 261.889 186.062C262.674 186.062 263.352 185.76 263.922 185.157C264.498 184.549 264.786 183.804 264.786 182.924C264.786 182.039 264.498 181.295 263.922 180.691C263.352 180.083 262.674 179.778 261.889 179.778C261.108 179.778 260.433 180.08 259.863 180.683ZM269.293 184.709V187H268.106V178.84H269.293V183.173L273.369 178.84H274.821L271.675 182.152L275.162 187H273.8L270.912 183.007L269.293 184.709ZM282.01 185.149C282.591 184.546 282.881 183.804 282.881 182.924C282.881 182.039 282.588 181.295 282.001 180.691C281.42 180.083 280.72 179.778 279.901 179.778C279.088 179.778 278.388 180.083 277.801 180.691C277.22 181.295 276.93 182.036 276.93 182.916C276.93 183.79 277.22 184.535 277.801 185.149C278.388 185.758 279.088 186.062 279.901 186.062C280.72 186.062 281.423 185.758 282.01 185.149ZM276.963 185.938C276.149 185.118 275.743 184.114 275.743 182.924C275.743 181.729 276.147 180.722 276.955 179.903C277.768 179.078 278.753 178.666 279.91 178.666C281.066 178.666 282.049 179.078 282.856 179.903C283.664 180.722 284.068 181.729 284.068 182.924C284.068 184.114 283.664 185.118 282.856 185.938C282.049 186.757 281.066 187.166 279.91 187.166C278.753 187.166 277.771 186.757 276.963 185.938ZM288.285 180.716C287.688 181.347 287.389 182.083 287.389 182.924C287.389 183.76 287.685 184.493 288.277 185.124C288.875 185.749 289.541 186.062 290.277 186.062C290.98 186.062 291.608 185.758 292.162 185.149C292.721 184.535 293 183.793 293 182.924C293 182.05 292.721 181.308 292.162 180.7C291.608 180.085 290.98 179.778 290.277 179.778C289.541 179.778 288.877 180.091 288.285 180.716ZM287.389 185.722V190.569H286.202V178.84H287.389V180.119C287.411 180.085 287.45 180.036 287.505 179.969C287.566 179.897 287.685 179.778 287.862 179.612C288.044 179.446 288.241 179.3 288.451 179.172C288.661 179.04 288.93 178.923 289.256 178.824C289.588 178.719 289.929 178.666 290.277 178.666C291.318 178.666 292.228 179.084 293.008 179.919C293.794 180.755 294.187 181.757 294.187 182.924C294.187 184.086 293.797 185.085 293.017 185.921C292.236 186.751 291.323 187.166 290.277 187.166C289.929 187.166 289.591 187.116 289.265 187.017C288.944 186.917 288.673 186.798 288.451 186.66C288.23 186.521 288.036 186.383 287.87 186.245C287.71 186.101 287.588 185.979 287.505 185.879L287.389 185.722ZM295.291 179.944V178.84H302.255V179.944H299.367V187H298.18V179.944H295.291ZM310.083 178.84H311.104V187H309.909V180.882L304.978 187H303.965V178.84H305.152V184.958L310.083 178.84ZM315.014 184.709V187H313.827V178.84H315.014V183.173L319.089 178.84H320.542L317.396 182.152L320.882 187H319.521L316.632 183.007L315.014 184.709ZM327.73 185.149C328.312 184.546 328.602 183.804 328.602 182.924C328.602 182.039 328.309 181.295 327.722 180.691C327.141 180.083 326.441 179.778 325.622 179.778C324.809 179.778 324.109 180.083 323.522 180.691C322.941 181.295 322.65 182.036 322.65 182.916C322.65 183.79 322.941 184.535 323.522 185.149C324.109 185.758 324.809 186.062 325.622 186.062C326.441 186.062 327.144 185.758 327.73 185.149ZM322.684 185.938C321.87 185.118 321.463 184.114 321.463 182.924C321.463 181.729 321.867 180.722 322.675 179.903C323.489 179.078 324.474 178.666 325.63 178.666C326.787 178.666 327.769 179.078 328.577 179.903C329.385 180.722 329.789 181.729 329.789 182.924C329.789 184.114 329.385 185.118 328.577 185.938C327.769 186.757 326.787 187.166 325.63 187.166C324.474 187.166 323.492 186.757 322.684 185.938ZM338.04 178.84H339.061V187H337.866V180.882L332.935 187H331.922V178.84H333.109V184.958L338.04 178.84ZM349.346 185.896V189.042H348.159V187H341.609V189.042H340.422V185.896H341.012C341.045 185.863 341.095 185.807 341.161 185.73C341.233 185.647 341.352 185.464 341.518 185.182C341.684 184.9 341.831 184.596 341.958 184.269C342.091 183.937 342.207 183.497 342.307 182.949C342.412 182.396 342.464 181.82 342.464 181.223V178.84H348.067V185.896H349.346ZM343.651 179.944V181.223C343.651 182.152 343.538 183.005 343.311 183.779C343.084 184.554 342.857 185.102 342.63 185.423L342.29 185.896H346.88V179.944H343.651Z" fill="black"/>
<path d="M186.112 151.097V163H184.834V152.292H178.21V163H176.932V151.097H186.112ZM191.259 156.716C190.661 157.347 190.362 158.083 190.362 158.924C190.362 159.76 190.658 160.493 191.25 161.124C191.848 161.749 192.515 162.062 193.251 162.062C193.954 162.062 194.582 161.758 195.135 161.149C195.694 160.535 195.974 159.793 195.974 158.924C195.974 158.05 195.694 157.308 195.135 156.7C194.582 156.085 193.954 155.778 193.251 155.778C192.515 155.778 191.851 156.091 191.259 156.716ZM190.362 161.722V166.569H189.175V154.84H190.362V156.119C190.384 156.085 190.423 156.036 190.479 155.969C190.539 155.897 190.658 155.778 190.835 155.612C191.018 155.446 191.215 155.3 191.425 155.172C191.635 155.04 191.903 154.923 192.23 154.824C192.562 154.719 192.902 154.666 193.251 154.666C194.291 154.666 195.202 155.084 195.982 155.919C196.768 156.755 197.161 157.757 197.161 158.924C197.161 160.086 196.771 161.085 195.99 161.921C195.21 162.751 194.297 163.166 193.251 163.166C192.902 163.166 192.565 163.116 192.238 163.017C191.917 162.917 191.646 162.798 191.425 162.66C191.203 162.521 191.01 162.383 190.844 162.245C190.683 162.101 190.562 161.979 190.479 161.879L190.362 161.722ZM204.955 161.149C205.536 160.546 205.827 159.804 205.827 158.924C205.827 158.039 205.533 157.295 204.947 156.691C204.366 156.083 203.666 155.778 202.847 155.778C202.033 155.778 201.333 156.083 200.747 156.691C200.166 157.295 199.875 158.036 199.875 158.916C199.875 159.79 200.166 160.535 200.747 161.149C201.333 161.758 202.033 162.062 202.847 162.062C203.666 162.062 204.368 161.758 204.955 161.149ZM199.908 161.938C199.095 161.118 198.688 160.114 198.688 158.924C198.688 157.729 199.092 156.722 199.9 155.903C200.713 155.078 201.698 154.666 202.855 154.666C204.012 154.666 204.994 155.078 205.802 155.903C206.61 156.722 207.014 157.729 207.014 158.924C207.014 160.114 206.61 161.118 205.802 161.938C204.994 162.757 204.012 163.166 202.855 163.166C201.698 163.166 200.716 162.757 199.908 161.938ZM214.584 154.84V155.944H210.334V163H209.147V154.84H214.584ZM223.341 159.364L216.709 159.348C216.753 160.084 217.055 160.72 217.614 161.257C218.178 161.794 218.84 162.062 219.598 162.062C220.107 162.062 220.58 161.949 221.017 161.722C221.454 161.495 221.764 161.268 221.947 161.041L222.237 160.709L223.001 161.473C222.968 161.517 222.918 161.581 222.852 161.664C222.791 161.741 222.652 161.877 222.437 162.07C222.226 162.258 221.997 162.427 221.748 162.577C221.504 162.721 221.186 162.856 220.793 162.983C220.406 163.105 220.007 163.166 219.598 163.166C218.485 163.166 217.528 162.754 216.726 161.929C215.923 161.099 215.522 160.095 215.522 158.916C215.522 157.737 215.918 156.736 216.709 155.911C217.506 155.081 218.441 154.666 219.515 154.666C220.627 154.666 221.557 155.053 222.304 155.828C223.051 156.597 223.424 157.571 223.424 158.75L223.341 159.364ZM221.349 156.5C220.84 156.019 220.229 155.778 219.515 155.778C218.801 155.778 218.178 156.03 217.647 156.534C217.116 157.037 216.803 157.635 216.709 158.327H222.237C222.149 157.591 221.853 156.982 221.349 156.5ZM226.155 161.921C225.353 161.096 224.952 160.095 224.952 158.916C224.952 157.737 225.353 156.736 226.155 155.911C226.963 155.081 227.921 154.666 229.027 154.666C229.664 154.666 230.256 154.804 230.804 155.081C231.357 155.352 231.753 155.623 231.991 155.895L232.348 156.285L231.493 157.131C231.471 157.098 231.437 157.051 231.393 156.99C231.349 156.929 231.249 156.819 231.094 156.658C230.945 156.498 230.782 156.359 230.604 156.243C230.427 156.121 230.198 156.014 229.916 155.919C229.633 155.825 229.337 155.778 229.027 155.778C228.247 155.778 227.569 156.083 226.994 156.691C226.424 157.295 226.139 158.039 226.139 158.924C226.139 159.804 226.424 160.549 226.994 161.157C227.569 161.76 228.247 162.062 229.027 162.062C229.503 162.062 229.954 161.949 230.38 161.722C230.806 161.495 231.116 161.268 231.31 161.041L231.584 160.709L232.431 161.473C232.397 161.517 232.345 161.581 232.273 161.664C232.207 161.741 232.063 161.877 231.841 162.07C231.62 162.258 231.388 162.427 231.144 162.577C230.901 162.721 230.585 162.856 230.198 162.983C229.816 163.105 229.426 163.166 229.027 163.166C227.915 163.166 226.958 162.751 226.155 161.921ZM233.277 155.944V154.84H240.242V155.944H237.353V163H236.166V155.944H233.277ZM249.173 159.364L242.541 159.348C242.585 160.084 242.887 160.72 243.446 161.257C244.01 161.794 244.672 162.062 245.43 162.062C245.939 162.062 246.412 161.949 246.849 161.722C247.286 161.495 247.596 161.268 247.779 161.041L248.069 160.709L248.833 161.473C248.8 161.517 248.75 161.581 248.684 161.664C248.623 161.741 248.484 161.877 248.269 162.07C248.058 162.258 247.829 162.427 247.58 162.577C247.336 162.721 247.018 162.856 246.625 162.983C246.238 163.105 245.839 163.166 245.43 163.166C244.317 163.166 243.36 162.754 242.558 161.929C241.755 161.099 241.354 160.095 241.354 158.916C241.354 157.737 241.75 156.736 242.541 155.911C243.338 155.081 244.273 154.666 245.347 154.666C246.459 154.666 247.389 155.053 248.136 155.828C248.883 156.597 249.256 157.571 249.256 158.75L249.173 159.364ZM247.181 156.5C246.672 156.019 246.061 155.778 245.347 155.778C244.633 155.778 244.01 156.03 243.479 156.534C242.948 157.037 242.635 157.635 242.541 158.327H248.069C247.981 157.591 247.685 156.982 247.181 156.5ZM253.465 156.716C252.867 157.347 252.568 158.083 252.568 158.924C252.568 159.76 252.864 160.493 253.457 161.124C254.054 161.749 254.721 162.062 255.457 162.062C256.16 162.062 256.788 161.758 257.341 161.149C257.9 160.535 258.18 159.793 258.18 158.924C258.18 158.05 257.9 157.308 257.341 156.7C256.788 156.085 256.16 155.778 255.457 155.778C254.721 155.778 254.057 156.091 253.465 156.716ZM252.568 161.722V166.569H251.381V154.84H252.568V156.119C252.59 156.085 252.629 156.036 252.685 155.969C252.745 155.897 252.864 155.778 253.042 155.612C253.224 155.446 253.421 155.3 253.631 155.172C253.841 155.04 254.11 154.923 254.436 154.824C254.768 154.719 255.108 154.666 255.457 154.666C256.497 154.666 257.408 155.084 258.188 155.919C258.974 156.755 259.367 157.757 259.367 158.924C259.367 160.086 258.977 161.085 258.196 161.921C257.416 162.751 256.503 163.166 255.457 163.166C255.108 163.166 254.771 163.116 254.444 163.017C254.123 162.917 253.852 162.798 253.631 162.66C253.41 162.521 253.216 162.383 253.05 162.245C252.889 162.101 252.768 161.979 252.685 161.879L252.568 161.722ZM267.161 161.149C267.742 160.546 268.033 159.804 268.033 158.924C268.033 158.039 267.739 157.295 267.153 156.691C266.572 156.083 265.872 155.778 265.053 155.778C264.239 155.778 263.539 156.083 262.953 156.691C262.372 157.295 262.081 158.036 262.081 158.916C262.081 159.79 262.372 160.535 262.953 161.149C263.539 161.758 264.239 162.062 265.053 162.062C265.872 162.062 266.575 161.758 267.161 161.149ZM262.114 161.938C261.301 161.118 260.894 160.114 260.894 158.924C260.894 157.729 261.298 156.722 262.106 155.903C262.919 155.078 263.904 154.666 265.061 154.666C266.218 154.666 267.2 155.078 268.008 155.903C268.816 156.722 269.22 157.729 269.22 158.924C269.22 160.114 268.816 161.118 268.008 161.938C267.2 162.757 266.218 163.166 265.061 163.166C263.904 163.166 262.922 162.757 262.114 161.938ZM277.213 163V159.431H272.54V163H271.353V154.84H272.54V158.327H277.213V154.84H278.409V163H277.213Z" fill="black"/>
<path d="M92 112C92 120.284 85.2843 127 77 127C68.7157 127 62 120.284 62 112C62 103.716 68.7157 97 77 97C85.2843 97 92 103.716 92 112Z" fill="#EDC41F" stroke="white" stroke-width="2"/>
</svg>
