<svg width="370" height="242" viewBox="0 0 370 242" fill="none" xmlns="http://www.w3.org/2000/svg">
<path d="M124.5 46C124.5 50.1421 121.142 53.5 117 53.5C112.858 53.5 109.5 50.1421 109.5 46C109.5 41.8579 112.858 38.5 117 38.5C121.142 38.5 124.5 41.8579 124.5 46Z" fill="#EDC41F" stroke="white"/>
<path d="M117.5 84C117.5 88.1421 114.142 91.5 110 91.5C105.858 91.5 102.5 88.1421 102.5 84C102.5 79.8579 105.858 76.5 110 76.5C114.142 76.5 117.5 79.8579 117.5 84Z" fill="#EDC41F" stroke="white"/>
<path d="M178.5 51C178.5 55.1421 175.142 58.5 171 58.5C166.858 58.5 163.5 55.1421 163.5 51C163.5 46.8579 166.858 43.5 171 43.5C175.142 43.5 178.5 46.8579 178.5 51Z" fill="#EDC41F" stroke="white"/>
<path d="M75.5 54C75.5 58.1421 72.1421 61.5 68 61.5C63.8579 61.5 60.5 58.1421 60.5 54C60.5 49.8579 63.8579 46.5 68 46.5C72.1421 46.5 75.5 49.8579 75.5 54Z" fill="#EDC41F" stroke="white"/>
<path d="M231.5 51C231.5 55.1421 228.142 58.5 224 58.5C219.858 58.5 216.5 55.1421 216.5 51C216.5 46.8579 219.858 43.5 224 43.5C228.142 43.5 231.5 46.8579 231.5 51Z" fill="#EDC41F" stroke="white"/>
<path d="M170.5 84C170.5 88.1421 167.142 91.5 163 91.5C158.858 91.5 155.5 88.1421 155.5 84C155.5 79.8579 158.858 76.5 163 76.5C167.142 76.5 170.5 79.8579 170.5 84Z" fill="#EDC41F" stroke="white"/>
<path d="M280.5 54C280.5 58.1421 277.142 61.5 273 61.5C268.858 61.5 265.5 58.1421 265.5 54C265.5 49.8579 268.858 46.5 273 46.5C277.142 46.5 280.5 49.8579 280.5 54Z" fill="#EDC41F" stroke="white"/>
<path d="M261.5 93C261.5 97.1421 258.142 100.5 254 100.5C249.858 100.5 246.5 97.1421 246.5 93C246.5 88.8579 249.858 85.5 254 85.5C258.142 85.5 261.5 88.8579 261.5 93Z" fill="#EDC41F" stroke="white"/>
<path d="M220.5 84C220.5 88.1421 217.142 91.5 213 91.5C208.858 91.5 205.5 88.1421 205.5 84C205.5 79.8579 208.858 76.5 213 76.5C217.142 76.5 220.5 79.8579 220.5 84Z" fill="#EDC41F" stroke="white"/>
<path d="M306.5 65C306.5 69.1421 303.142 72.5 299 72.5C294.858 72.5 291.5 69.1421 291.5 65C291.5 60.8579 294.858 57.5 299 57.5C303.142 57.5 306.5 60.8579 306.5 65Z" fill="#EDC41F" stroke="white"/>
<path d="M106.742 10.5225L111.603 4.39648H113.316V17H111.339V7.82422L106.742 13.5811L102.154 7.82422V17H100.177V4.39648H101.882L106.742 10.5225ZM122.141 14.7236C122.674 14.167 122.94 13.4873 122.94 12.6846C122.94 11.876 122.674 11.1934 122.141 10.6367C121.607 10.0801 120.975 9.80176 120.242 9.80176C119.51 9.80176 118.874 10.0801 118.335 10.6367C117.802 11.1934 117.535 11.876 117.535 12.6846C117.535 13.4873 117.802 14.167 118.335 14.7236C118.874 15.2803 119.51 15.5586 120.242 15.5586C120.975 15.5586 121.607 15.2803 122.141 14.7236ZM117.087 15.8311C116.19 14.9404 115.742 13.8916 115.742 12.6846C115.742 11.4717 116.188 10.417 117.078 9.52051C117.975 8.62402 119.029 8.17578 120.242 8.17578C121.455 8.17578 122.507 8.62402 123.397 9.52051C124.294 10.417 124.742 11.4717 124.742 12.6846C124.742 13.8916 124.294 14.9434 123.397 15.8398C122.507 16.7305 121.455 17.1758 120.242 17.1758C119.029 17.1758 117.978 16.7275 117.087 15.8311ZM127.713 8.36035H134.375V17H132.573V9.97754H129.515V10.8828C129.515 12.5293 129.383 13.8301 129.119 14.7852C128.861 15.7344 128.527 16.3701 128.117 16.6924C127.713 17.0146 127.188 17.1758 126.544 17.1758C126.386 17.1758 126.216 17.1611 126.034 17.1318C125.858 17.1025 125.721 17.0703 125.621 17.0352L125.463 17V15.2861C125.703 15.3447 125.911 15.377 126.087 15.3828C126.456 15.3828 126.746 15.2832 126.957 15.084C127.174 14.8848 127.353 14.4453 127.493 13.7656C127.64 13.0801 127.713 12.1191 127.713 10.8828V8.36035ZM144.904 13.3086H138.154C138.248 13.918 138.547 14.4453 139.051 14.8906C139.561 15.3359 140.164 15.5586 140.861 15.5586C141.365 15.5586 141.834 15.4443 142.268 15.2158C142.707 14.9873 143.018 14.7646 143.199 14.5479L143.472 14.2139L144.641 15.3828C144.605 15.4297 144.55 15.4971 144.474 15.585C144.403 15.667 144.248 15.8105 144.008 16.0156C143.768 16.2148 143.513 16.3936 143.243 16.5518C142.974 16.7041 142.622 16.8477 142.188 16.9824C141.761 17.1113 141.318 17.1758 140.861 17.1758C139.637 17.1758 138.579 16.7275 137.688 15.8311C136.804 14.9287 136.361 13.8477 136.361 12.5879C136.361 11.375 136.792 10.3379 137.653 9.47656C138.521 8.60938 139.558 8.17578 140.765 8.17578C141.978 8.17578 142.985 8.58008 143.788 9.38867C144.597 10.1914 145.001 11.1992 145.001 12.4121L144.904 13.3086ZM140.765 9.71387C140.114 9.71387 139.566 9.90723 139.121 10.2939C138.682 10.6748 138.386 11.1699 138.233 11.7793H143.234C143.129 11.1699 142.856 10.6748 142.417 10.2939C141.978 9.90723 141.427 9.71387 140.765 9.71387ZM154.625 8.36035L151.294 11.9639L154.889 17H152.911L150.125 13.1328L148.771 14.5742V17H146.97V8.36035H148.771V12.2275L152.463 8.36035H154.625ZM158.396 17.8965L158.756 17L155.24 8.36035H157.13L159.652 14.6621L162.175 8.36035H164.064L160.188 17.8965C159.743 18.9629 159.301 19.71 158.861 20.1377C158.428 20.5654 157.883 20.7793 157.227 20.7793C156.986 20.7793 156.761 20.7646 156.55 20.7354C156.339 20.7061 156.184 20.6738 156.084 20.6387L155.961 20.6035V18.9775C156.26 19.0947 156.562 19.1562 156.866 19.1621C157.552 19.1562 158.062 18.7344 158.396 17.8965ZM166.49 8.36035H173.152V17H171.351V9.97754H168.292V10.8828C168.292 12.5293 168.16 13.8301 167.896 14.7852C167.639 15.7344 167.305 16.3701 166.895 16.6924C166.49 17.0146 165.966 17.1758 165.321 17.1758C165.163 17.1758 164.993 17.1611 164.812 17.1318C164.636 17.1025 164.498 17.0703 164.398 17.0352L164.24 17V15.2861C164.48 15.3447 164.688 15.377 164.864 15.3828C165.233 15.3828 165.523 15.2832 165.734 15.084C165.951 14.8848 166.13 14.4453 166.271 13.7656C166.417 13.0801 166.49 12.1191 166.49 10.8828V8.36035ZM177.477 15.4707H179.366C179.776 15.4707 180.119 15.333 180.395 15.0576C180.67 14.7822 180.808 14.4395 180.808 14.0293C180.808 13.6191 180.67 13.2764 180.395 13.001C180.119 12.7256 179.776 12.5879 179.366 12.5879H177.477V15.4707ZM181.722 11.8936C182.313 12.4561 182.609 13.1709 182.609 14.0381C182.609 14.8994 182.311 15.6084 181.713 16.165C181.121 16.7217 180.339 17 179.366 17H175.675V8.36035H177.477V11.0586H179.366C180.339 11.0586 181.124 11.3369 181.722 11.8936ZM185.668 8.36035V17H183.866V8.36035H185.668ZM197.841 9.52051C198.731 10.417 199.177 11.4717 199.177 12.6846C199.177 13.8916 198.729 14.9434 197.832 15.8398C196.941 16.7305 195.89 17.1758 194.677 17.1758C194.255 17.1758 193.842 17.1143 193.438 16.9912C193.039 16.8623 192.705 16.7129 192.436 16.543C192.166 16.3672 191.923 16.1943 191.706 16.0244C191.489 15.8486 191.334 15.6934 191.24 15.5586L191.073 15.3828L192.242 14.2139C192.266 14.249 192.301 14.2959 192.348 14.3545C192.4 14.4131 192.503 14.5215 192.655 14.6797C192.813 14.832 192.978 14.9697 193.147 15.0928C193.323 15.21 193.549 15.3184 193.824 15.418C194.105 15.5117 194.39 15.5586 194.677 15.5586C195.087 15.5586 195.453 15.4824 195.775 15.3301C196.098 15.1719 196.347 14.9844 196.522 14.7676C196.704 14.5508 196.854 14.3311 196.971 14.1084C197.094 13.8857 197.176 13.6982 197.217 13.5459L197.287 13.3086H193.323V11.7793H197.199C197.188 11.7324 197.161 11.665 197.12 11.5771C197.085 11.4834 197 11.3223 196.865 11.0938C196.736 10.8652 196.587 10.666 196.417 10.4961C196.253 10.3203 196.013 10.1621 195.696 10.0215C195.386 9.875 195.046 9.80176 194.677 9.80176C194.22 9.80176 193.795 9.90723 193.402 10.1182C193.016 10.3232 192.737 10.5283 192.567 10.7334L192.339 11.0586L191.161 9.88965C191.196 9.84277 191.246 9.78125 191.311 9.70508C191.381 9.62305 191.527 9.48828 191.75 9.30078C191.973 9.10742 192.21 8.93457 192.462 8.78223C192.714 8.62988 193.039 8.49219 193.438 8.36914C193.842 8.24023 194.255 8.17578 194.677 8.17578C195.89 8.17578 196.944 8.62402 197.841 9.52051ZM202.947 9.97754V17H201.146V8.36035H208.977V17H207.175V9.97754H202.947ZM212.492 8.36035H219.154V17H217.353V9.97754H214.294V10.8828C214.294 12.5293 214.162 13.8301 213.898 14.7852C213.641 15.7344 213.307 16.3701 212.896 16.6924C212.492 17.0146 211.968 17.1758 211.323 17.1758C211.165 17.1758 210.995 17.1611 210.813 17.1318C210.638 17.1025 210.5 17.0703 210.4 17.0352L210.242 17V15.2861C210.482 15.3447 210.69 15.377 210.866 15.3828C211.235 15.3828 211.525 15.2832 211.736 15.084C211.953 14.8848 212.132 14.4453 212.272 13.7656C212.419 13.0801 212.492 12.1191 212.492 10.8828V8.36035ZM229.684 13.3086H222.934C223.027 13.918 223.326 14.4453 223.83 14.8906C224.34 15.3359 224.943 15.5586 225.641 15.5586C226.145 15.5586 226.613 15.4443 227.047 15.2158C227.486 14.9873 227.797 14.7646 227.979 14.5479L228.251 14.2139L229.42 15.3828C229.385 15.4297 229.329 15.4971 229.253 15.585C229.183 15.667 229.027 15.8105 228.787 16.0156C228.547 16.2148 228.292 16.3936 228.022 16.5518C227.753 16.7041 227.401 16.8477 226.968 16.9824C226.54 17.1113 226.098 17.1758 225.641 17.1758C224.416 17.1758 223.358 16.7275 222.468 15.8311C221.583 14.9287 221.141 13.8477 221.141 12.5879C221.141 11.375 221.571 10.3379 222.433 9.47656C223.3 8.60938 224.337 8.17578 225.544 8.17578C226.757 8.17578 227.765 8.58008 228.567 9.38867C229.376 10.1914 229.78 11.1992 229.78 12.4121L229.684 13.3086ZM225.544 9.71387C224.894 9.71387 224.346 9.90723 223.9 10.2939C223.461 10.6748 223.165 11.1699 223.013 11.7793H228.014C227.908 11.1699 227.636 10.6748 227.196 10.2939C226.757 9.90723 226.206 9.71387 225.544 9.71387ZM236.337 17.1758C236.015 17.1758 235.701 17.1377 235.396 17.0615C235.092 16.9854 234.831 16.8916 234.614 16.7803C234.397 16.6631 234.204 16.5459 234.034 16.4287C233.87 16.3057 233.75 16.209 233.674 16.1387L233.551 16.0068V20.7793H231.749V8.36035H233.551V9.35352C233.633 9.27148 233.747 9.16309 233.894 9.02832C234.046 8.89355 234.365 8.71777 234.852 8.50098C235.338 8.28418 235.833 8.17578 236.337 8.17578C237.479 8.17578 238.47 8.61523 239.308 9.49414C240.151 10.3672 240.573 11.4277 240.573 12.6758C240.573 13.9238 240.151 14.9873 239.308 15.8662C238.47 16.7393 237.479 17.1758 236.337 17.1758ZM237.98 10.6455C237.453 10.083 236.847 9.80176 236.161 9.80176C235.476 9.80176 234.869 10.083 234.342 10.6455C233.814 11.208 233.551 11.8877 233.551 12.6846C233.551 13.4756 233.814 14.1523 234.342 14.7148C234.869 15.2773 235.476 15.5586 236.161 15.5586C236.847 15.5586 237.453 15.2773 237.98 14.7148C238.508 14.1523 238.771 13.4756 238.771 12.6846C238.771 11.8877 238.508 11.208 237.98 10.6455ZM248.404 14.7236C248.938 14.167 249.204 13.4873 249.204 12.6846C249.204 11.876 248.938 11.1934 248.404 10.6367C247.871 10.0801 247.238 9.80176 246.506 9.80176C245.773 9.80176 245.138 10.0801 244.599 10.6367C244.065 11.1934 243.799 11.876 243.799 12.6846C243.799 13.4873 244.065 14.167 244.599 14.7236C245.138 15.2803 245.773 15.5586 246.506 15.5586C247.238 15.5586 247.871 15.2803 248.404 14.7236ZM243.351 15.8311C242.454 14.9404 242.006 13.8916 242.006 12.6846C242.006 11.4717 242.451 10.417 243.342 9.52051C244.238 8.62402 245.293 8.17578 246.506 8.17578C247.719 8.17578 248.771 8.62402 249.661 9.52051C250.558 10.417 251.006 11.4717 251.006 12.6846C251.006 13.8916 250.558 14.9434 249.661 15.8398C248.771 16.7305 247.719 17.1758 246.506 17.1758C245.293 17.1758 244.241 16.7275 243.351 15.8311ZM254.785 13.3965V17H252.983V8.36035H254.785V11.7793H259.013V8.36035H260.814V17H259.013V13.3965H254.785ZM270.271 17H268.47V16.1035C268.446 16.127 268.405 16.165 268.347 16.2178C268.294 16.2705 268.183 16.3584 268.013 16.4814C267.849 16.5986 267.67 16.707 267.477 16.8066C267.283 16.9004 267.04 16.9854 266.747 17.0615C266.454 17.1377 266.158 17.1758 265.859 17.1758C264.98 17.1758 264.251 16.9209 263.671 16.4111C263.091 15.9014 262.801 15.3184 262.801 14.6621C262.801 13.9531 263.023 13.3584 263.469 12.8779C263.92 12.3975 264.535 12.0928 265.314 11.9639L268.47 11.4189C268.47 10.9619 268.3 10.5781 267.96 10.2676C267.626 9.95703 267.195 9.80176 266.668 9.80176C266.211 9.80176 265.795 9.89844 265.42 10.0918C265.051 10.2793 264.796 10.4697 264.655 10.6631L264.418 10.9707L263.249 9.80176C263.284 9.75488 263.331 9.69629 263.39 9.62598C263.454 9.5498 263.592 9.4209 263.803 9.23926C264.02 9.05176 264.248 8.88477 264.488 8.73828C264.729 8.5918 265.045 8.46289 265.438 8.35156C265.836 8.23438 266.246 8.17578 266.668 8.17578C267.723 8.17578 268.587 8.48926 269.261 9.11621C269.935 9.7373 270.271 10.5049 270.271 11.4189V17ZM266.132 15.5586C266.864 15.5586 267.436 15.3418 267.846 14.9082C268.262 14.4688 268.47 13.8447 268.47 13.0361V12.8604L265.675 13.3086C265.353 13.3672 265.092 13.499 264.893 13.7041C264.693 13.9092 264.594 14.167 264.594 14.4775C264.594 14.7646 264.731 15.0166 265.007 15.2334C265.288 15.4502 265.663 15.5586 266.132 15.5586Z" fill="black"/>
<path d="M139.209 225.396H144.245C145.446 225.396 146.451 225.792 147.26 226.583C148.074 227.368 148.481 228.326 148.481 229.457C148.481 230.582 148.074 231.537 147.26 232.322C146.451 233.107 145.446 233.5 144.245 233.5H141.187V238H139.209V225.396ZM144.245 227.198H141.187V231.698H144.245C144.866 231.698 145.396 231.484 145.836 231.057C146.275 230.623 146.495 230.09 146.495 229.457C146.495 228.818 146.275 228.282 145.836 227.849C145.396 227.415 144.866 227.198 144.245 227.198ZM158.36 234.309H151.61C151.704 234.918 152.003 235.445 152.507 235.891C153.017 236.336 153.62 236.559 154.317 236.559C154.821 236.559 155.29 236.444 155.724 236.216C156.163 235.987 156.474 235.765 156.655 235.548L156.928 235.214L158.097 236.383C158.062 236.43 158.006 236.497 157.93 236.585C157.859 236.667 157.704 236.811 157.464 237.016C157.224 237.215 156.969 237.394 156.699 237.552C156.43 237.704 156.078 237.848 155.645 237.982C155.217 238.111 154.774 238.176 154.317 238.176C153.093 238.176 152.035 237.728 151.145 236.831C150.26 235.929 149.817 234.848 149.817 233.588C149.817 232.375 150.248 231.338 151.109 230.477C151.977 229.609 153.014 229.176 154.221 229.176C155.434 229.176 156.441 229.58 157.244 230.389C158.053 231.191 158.457 232.199 158.457 233.412L158.36 234.309ZM154.221 230.714C153.57 230.714 153.022 230.907 152.577 231.294C152.138 231.675 151.842 232.17 151.689 232.779H156.69C156.585 232.17 156.312 231.675 155.873 231.294C155.434 230.907 154.883 230.714 154.221 230.714ZM160.426 238V229.36H162.228V236.383H166.279V229.36H168.081V236.383H169.338V240.162H167.536V238H160.426ZM179.138 234.309H172.388C172.481 234.918 172.78 235.445 173.284 235.891C173.794 236.336 174.397 236.559 175.095 236.559C175.599 236.559 176.067 236.444 176.501 236.216C176.94 235.987 177.251 235.765 177.433 235.548L177.705 235.214L178.874 236.383C178.839 236.43 178.783 236.497 178.707 236.585C178.637 236.667 178.481 236.811 178.241 237.016C178.001 237.215 177.746 237.394 177.477 237.552C177.207 237.704 176.855 237.848 176.422 237.982C175.994 238.111 175.552 238.176 175.095 238.176C173.87 238.176 172.812 237.728 171.922 236.831C171.037 235.929 170.595 234.848 170.595 233.588C170.595 232.375 171.025 231.338 171.887 230.477C172.754 229.609 173.791 229.176 174.998 229.176C176.211 229.176 177.219 229.58 178.021 230.389C178.83 231.191 179.234 232.199 179.234 233.412L179.138 234.309ZM174.998 230.714C174.348 230.714 173.8 230.907 173.354 231.294C172.915 231.675 172.619 232.17 172.467 232.779H177.468C177.362 232.17 177.09 231.675 176.65 231.294C176.211 230.907 175.66 230.714 174.998 230.714ZM183.005 230.978V238H181.203V229.36H189.034V238H187.232V230.978H183.005ZM190.66 230.978V229.36H198.395V230.978H195.424V238H193.631V230.978H190.66ZM205.874 235.724C206.407 235.167 206.674 234.487 206.674 233.685C206.674 232.876 206.407 232.193 205.874 231.637C205.341 231.08 204.708 230.802 203.976 230.802C203.243 230.802 202.607 231.08 202.068 231.637C201.535 232.193 201.269 232.876 201.269 233.685C201.269 234.487 201.535 235.167 202.068 235.724C202.607 236.28 203.243 236.559 203.976 236.559C204.708 236.559 205.341 236.28 205.874 235.724ZM200.82 236.831C199.924 235.94 199.476 234.892 199.476 233.685C199.476 232.472 199.921 231.417 200.812 230.521C201.708 229.624 202.763 229.176 203.976 229.176C205.188 229.176 206.24 229.624 207.131 230.521C208.027 231.417 208.476 232.472 208.476 233.685C208.476 234.892 208.027 235.943 207.131 236.84C206.24 237.73 205.188 238.176 203.976 238.176C202.763 238.176 201.711 237.728 200.82 236.831ZM215.041 238.176C214.719 238.176 214.405 238.138 214.101 238.062C213.796 237.985 213.535 237.892 213.318 237.78C213.102 237.663 212.908 237.546 212.738 237.429C212.574 237.306 212.454 237.209 212.378 237.139L212.255 237.007V241.779H210.453V229.36H212.255V230.354C212.337 230.271 212.451 230.163 212.598 230.028C212.75 229.894 213.069 229.718 213.556 229.501C214.042 229.284 214.537 229.176 215.041 229.176C216.184 229.176 217.174 229.615 218.012 230.494C218.855 231.367 219.277 232.428 219.277 233.676C219.277 234.924 218.855 235.987 218.012 236.866C217.174 237.739 216.184 238.176 215.041 238.176ZM216.685 231.646C216.157 231.083 215.551 230.802 214.865 230.802C214.18 230.802 213.573 231.083 213.046 231.646C212.519 232.208 212.255 232.888 212.255 233.685C212.255 234.476 212.519 235.152 213.046 235.715C213.573 236.277 214.18 236.559 214.865 236.559C215.551 236.559 216.157 236.277 216.685 235.715C217.212 235.152 217.476 234.476 217.476 233.685C217.476 232.888 217.212 232.208 216.685 231.646ZM223.048 236.471H224.938C225.348 236.471 225.69 236.333 225.966 236.058C226.241 235.782 226.379 235.439 226.379 235.029C226.379 234.619 226.241 234.276 225.966 234.001C225.69 233.726 225.348 233.588 224.938 233.588H223.048V236.471ZM227.293 232.894C227.885 233.456 228.181 234.171 228.181 235.038C228.181 235.899 227.882 236.608 227.284 237.165C226.692 237.722 225.91 238 224.938 238H221.246V229.36H223.048V232.059H224.938C225.91 232.059 226.695 232.337 227.293 232.894ZM231.239 229.36V238H229.438V229.36H231.239Z" fill="black"/>
<path fill-rule="evenodd" clip-rule="evenodd" d="M52 112C52 112 57.3571 137 77 137C96.6429 137 102 112 102 112H52Z" fill="#EDC41F"/>
<path fill-rule="evenodd" clip-rule="evenodd" d="M124 112C124 112 129.357 137 149 137C168.643 137 174 112 174 112H124Z" fill="#32AD28"/>
<path fill-rule="evenodd" clip-rule="evenodd" d="M196 112C196 112 201.357 137 221 137C240.643 137 246 112 246 112H196Z" fill="#D73030"/>
<path fill-rule="evenodd" clip-rule="evenodd" d="M268 112C268 112 273.357 137 293 137C312.643 137 318 112 318 112H268Z" fill="#38BEBD"/>
<path d="M101.7 113.298C101.729 113.191 101.756 113.092 101.781 113H124.219C124.243 113.092 124.27 113.191 124.299 113.297C124.485 113.972 124.771 114.931 125.173 116.08C125.976 118.375 127.248 121.444 129.125 124.521C132.868 130.658 139.136 137 149 137C158.864 137 165.132 130.658 168.875 124.521C170.752 121.444 172.024 118.375 172.827 116.08C173.229 114.931 173.515 113.972 173.701 113.297C173.73 113.191 173.757 113.092 173.781 113H196.235C196.263 113.097 196.293 113.202 196.327 113.316C196.527 113.99 196.832 114.948 197.256 116.096C198.101 118.389 199.424 121.454 201.334 124.528C205.137 130.649 211.402 137 221 137C230.598 137 236.863 130.649 240.666 124.528C242.576 121.454 243.899 118.389 244.744 116.096C245.168 114.948 245.473 113.99 245.673 113.316C245.707 113.202 245.737 113.097 245.765 113H268.186C268.204 113.081 268.223 113.167 268.245 113.259C268.403 113.935 268.65 114.897 269.009 116.048C269.726 118.347 270.896 121.422 272.707 124.506C276.329 130.674 282.603 137 293 137C303.397 137 309.671 130.674 313.293 124.506C315.104 121.422 316.274 118.347 316.991 116.048C317.35 114.897 317.597 113.935 317.755 113.259C317.777 113.167 317.796 113.081 317.814 113H350C360.493 113 369 121.507 369 132V179C369 189.493 360.493 198 350 198H20C9.5066 198 1 189.493 1 179V132C1 121.507 9.50659 113 20 113H52.2194C52.2439 113.092 52.2708 113.191 52.3002 113.298C52.4867 113.973 52.7733 114.932 53.1761 116.081C53.9804 118.375 55.2545 121.444 57.1324 124.521C60.8778 130.658 67.1452 137 77 137C86.8548 137 93.1222 130.658 96.8676 124.521C98.7456 121.444 100.02 118.375 100.824 116.081C101.227 114.932 101.513 113.973 101.7 113.298Z" fill="white" fill-opacity="0.4" stroke="#4C57B9" stroke-width="2"/>
<path d="M23.5771 153.022L19.6533 158.197L15.7363 153.022V161H14.6836V151.197H15.5928L19.6533 156.522L23.7139 151.197H24.623V161H23.5771V153.022ZM32.1836 154.28H33.0244V161H32.04V155.962L27.9795 161H27.1455V154.28H28.123V159.318L32.1836 154.28ZM40.0928 161V158.061H36.2441V161H35.2666V154.28H36.2441V157.151H40.0928V154.28H41.0771V161H40.0928ZM49.2666 158.006L43.8047 157.992C43.8411 158.598 44.0895 159.122 44.5498 159.564C45.0146 160.007 45.5592 160.228 46.1836 160.228C46.6029 160.228 46.9925 160.134 47.3525 159.947C47.7126 159.76 47.9678 159.574 48.1182 159.387L48.3574 159.113L48.9863 159.742C48.959 159.779 48.918 159.831 48.8633 159.899C48.8132 159.963 48.6992 160.075 48.5215 160.234C48.3483 160.389 48.1592 160.528 47.9541 160.651C47.7536 160.77 47.4915 160.882 47.168 160.986C46.849 161.087 46.5208 161.137 46.1836 161.137C45.2676 161.137 44.4792 160.797 43.8184 160.118C43.1576 159.435 42.8271 158.607 42.8271 157.637C42.8271 156.666 43.153 155.841 43.8047 155.162C44.4609 154.479 45.2311 154.137 46.1152 154.137C47.0312 154.137 47.7969 154.456 48.4121 155.094C49.0273 155.727 49.335 156.529 49.335 157.5L49.2666 158.006ZM47.626 155.647C47.2067 155.251 46.7031 155.053 46.1152 155.053C45.5273 155.053 45.0146 155.26 44.5771 155.675C44.1396 156.09 43.8822 156.582 43.8047 157.151H48.3574C48.2845 156.545 48.0407 156.044 47.626 155.647ZM52.8008 155.825C52.3086 156.345 52.0625 156.951 52.0625 157.644C52.0625 158.332 52.3063 158.936 52.7939 159.455C53.2861 159.97 53.8353 160.228 54.4414 160.228C55.0202 160.228 55.5374 159.977 55.9932 159.476C56.4535 158.97 56.6836 158.359 56.6836 157.644C56.6836 156.924 56.4535 156.313 55.9932 155.812C55.5374 155.306 55.0202 155.053 54.4414 155.053C53.8353 155.053 53.2884 155.31 52.8008 155.825ZM52.0625 159.947V163.939H51.085V154.28H52.0625V155.333C52.0807 155.306 52.1126 155.265 52.1582 155.21C52.2083 155.151 52.3063 155.053 52.4521 154.916C52.6025 154.779 52.7643 154.659 52.9375 154.554C53.1107 154.444 53.3317 154.349 53.6006 154.267C53.874 154.18 54.1543 154.137 54.4414 154.137C55.2982 154.137 56.0479 154.481 56.6904 155.169C57.3376 155.857 57.6611 156.682 57.6611 157.644C57.6611 158.601 57.3398 159.423 56.6973 160.111C56.0547 160.795 55.3027 161.137 54.4414 161.137C54.1543 161.137 53.8763 161.096 53.6074 161.014C53.3431 160.932 53.1198 160.834 52.9375 160.72C52.7552 160.606 52.5957 160.492 52.459 160.378C52.3268 160.259 52.2266 160.159 52.1582 160.077L52.0625 159.947ZM60.8809 157.151L63.4717 156.728C63.4717 156.231 63.3145 155.827 63 155.518C62.6855 155.208 62.2822 155.053 61.79 155.053C61.4346 155.053 61.0996 155.135 60.7852 155.299C60.4753 155.458 60.2497 155.622 60.1084 155.791L59.8965 156.03L59.2676 155.401C59.2949 155.365 59.3314 155.319 59.377 155.265C59.4271 155.205 59.5319 155.105 59.6914 154.964C59.8555 154.818 60.0264 154.688 60.2041 154.574C60.3818 154.46 60.6143 154.36 60.9014 154.273C61.193 154.182 61.4893 154.137 61.79 154.137C62.5557 154.137 63.1891 154.385 63.6904 154.882C64.1963 155.379 64.4492 155.994 64.4492 156.728V161H63.4717V160.091C63.4535 160.118 63.4238 160.157 63.3828 160.207C63.3464 160.253 63.2598 160.337 63.123 160.46C62.9909 160.578 62.8473 160.686 62.6924 160.781C62.5374 160.872 62.3324 160.954 62.0771 161.027C61.8265 161.1 61.5667 161.137 61.2979 161.137C60.6279 161.137 60.0628 160.938 59.6025 160.542C59.1468 160.146 58.9189 159.692 58.9189 159.182C58.9189 158.621 59.0876 158.17 59.4248 157.828C59.762 157.482 60.2474 157.256 60.8809 157.151ZM61.2979 160.228C61.9313 160.228 62.4508 160.02 62.8564 159.605C63.2666 159.191 63.4717 158.653 63.4717 157.992V157.568L61.1611 157.992C60.3226 158.152 59.901 158.548 59.8965 159.182C59.8965 159.482 60.0195 159.733 60.2656 159.934C60.5163 160.13 60.8604 160.228 61.2979 160.228ZM67.3818 154.28H72.2832V161H71.2988V155.189H68.3594V156.242C68.3594 157.231 68.3092 158.056 68.209 158.717C68.1133 159.373 67.9674 159.874 67.7715 160.221C67.5755 160.562 67.359 160.802 67.1221 160.938C66.8851 161.071 66.598 161.137 66.2607 161.137C66.1468 161.137 66.0306 161.125 65.9121 161.103C65.7982 161.08 65.7139 161.055 65.6592 161.027L65.5635 161V160.022C65.7503 160.114 65.9372 160.159 66.124 160.159C66.4111 160.159 66.6367 160.077 66.8008 159.913C66.9648 159.749 67.1016 159.371 67.2109 158.778C67.3249 158.186 67.3818 157.34 67.3818 156.242V154.28ZM79.1875 159.476C79.666 158.979 79.9053 158.368 79.9053 157.644C79.9053 156.914 79.6637 156.301 79.1807 155.805C78.7021 155.303 78.1257 155.053 77.4512 155.053C76.7812 155.053 76.2048 155.303 75.7217 155.805C75.2432 156.301 75.0039 156.912 75.0039 157.637C75.0039 158.357 75.2432 158.97 75.7217 159.476C76.2048 159.977 76.7812 160.228 77.4512 160.228C78.1257 160.228 78.7044 159.977 79.1875 159.476ZM75.0312 160.125C74.3613 159.451 74.0264 158.623 74.0264 157.644C74.0264 156.659 74.359 155.83 75.0244 155.155C75.6943 154.476 76.5055 154.137 77.458 154.137C78.4105 154.137 79.2194 154.476 79.8848 155.155C80.5501 155.83 80.8828 156.659 80.8828 157.644C80.8828 158.623 80.5501 159.451 79.8848 160.125C79.2194 160.799 78.4105 161.137 77.458 161.137C76.5055 161.137 75.6966 160.799 75.0312 160.125ZM81.7988 155.189V154.28H87.5342V155.189H85.1553V161H84.1777V155.189H81.7988ZM93.6113 159.476C94.0898 158.979 94.3291 158.368 94.3291 157.644C94.3291 156.914 94.0876 156.301 93.6045 155.805C93.126 155.303 92.5495 155.053 91.875 155.053C91.2051 155.053 90.6286 155.303 90.1455 155.805C89.667 156.301 89.4277 156.912 89.4277 157.637C89.4277 158.357 89.667 158.97 90.1455 159.476C90.6286 159.977 91.2051 160.228 91.875 160.228C92.5495 160.228 93.1283 159.977 93.6113 159.476ZM89.4551 160.125C88.7852 159.451 88.4502 158.623 88.4502 157.644C88.4502 156.659 88.7829 155.83 89.4482 155.155C90.1182 154.476 90.9294 154.137 91.8818 154.137C92.8343 154.137 93.6432 154.476 94.3086 155.155C94.974 155.83 95.3066 156.659 95.3066 157.644C95.3066 158.623 94.974 159.451 94.3086 160.125C93.6432 160.799 92.8343 161.137 91.8818 161.137C90.9294 161.137 90.1204 160.799 89.4551 160.125ZM98.041 159.113V161H97.0635V154.28H98.041V157.849L101.397 154.28H102.594L100.003 157.008L102.874 161H101.753L99.374 157.712L98.041 159.113ZM104.344 160.111C103.683 159.432 103.353 158.607 103.353 157.637C103.353 156.666 103.683 155.841 104.344 155.162C105.009 154.479 105.798 154.137 106.709 154.137C107.233 154.137 107.721 154.251 108.172 154.479C108.628 154.702 108.953 154.925 109.149 155.148L109.443 155.47L108.739 156.167C108.721 156.14 108.694 156.101 108.657 156.051C108.621 156.001 108.539 155.91 108.411 155.777C108.288 155.645 108.154 155.531 108.008 155.436C107.862 155.335 107.673 155.246 107.44 155.169C107.208 155.091 106.964 155.053 106.709 155.053C106.066 155.053 105.508 155.303 105.034 155.805C104.565 156.301 104.33 156.914 104.33 157.644C104.33 158.368 104.565 158.981 105.034 159.482C105.508 159.979 106.066 160.228 106.709 160.228C107.101 160.228 107.472 160.134 107.823 159.947C108.174 159.76 108.429 159.574 108.589 159.387L108.814 159.113L109.512 159.742C109.484 159.779 109.441 159.831 109.382 159.899C109.327 159.963 109.209 160.075 109.026 160.234C108.844 160.389 108.653 160.528 108.452 160.651C108.252 160.77 107.992 160.882 107.673 160.986C107.358 161.087 107.037 161.137 106.709 161.137C105.793 161.137 105.005 160.795 104.344 160.111ZM112.027 159.113V161H111.05V154.28H112.027V157.849L115.384 154.28H116.58L113.989 157.008L116.86 161H115.739L113.36 157.712L112.027 159.113ZM122.5 159.476C122.979 158.979 123.218 158.368 123.218 157.644C123.218 156.914 122.976 156.301 122.493 155.805C122.015 155.303 121.438 155.053 120.764 155.053C120.094 155.053 119.517 155.303 119.034 155.805C118.556 156.301 118.316 156.912 118.316 157.637C118.316 158.357 118.556 158.97 119.034 159.476C119.517 159.977 120.094 160.228 120.764 160.228C121.438 160.228 122.017 159.977 122.5 159.476ZM118.344 160.125C117.674 159.451 117.339 158.623 117.339 157.644C117.339 156.659 117.672 155.83 118.337 155.155C119.007 154.476 119.818 154.137 120.771 154.137C121.723 154.137 122.532 154.476 123.197 155.155C123.863 155.83 124.195 156.659 124.195 157.644C124.195 158.623 123.863 159.451 123.197 160.125C122.532 160.799 121.723 161.137 120.771 161.137C119.818 161.137 119.009 160.799 118.344 160.125ZM130.99 154.28H131.831V161H130.847V155.962L126.786 161H125.952V154.28H126.93V159.318L130.99 154.28ZM140.301 160.091V162.682H139.323V161H133.93V162.682H132.952V160.091H133.438C133.465 160.063 133.506 160.018 133.561 159.954C133.62 159.886 133.718 159.735 133.854 159.503C133.991 159.271 134.112 159.02 134.217 158.751C134.326 158.478 134.422 158.115 134.504 157.664C134.59 157.208 134.634 156.734 134.634 156.242V154.28H139.248V160.091H140.301ZM135.611 155.189V156.242C135.611 157.008 135.518 157.71 135.331 158.348C135.144 158.986 134.957 159.437 134.771 159.701L134.49 160.091H138.271V155.189H135.611Z" fill="black"/>
<path d="M123.974 181.288L122.087 176.667L120.193 181.288H123.974ZM124.397 182.272H119.776L118.655 185H117.534L121.595 175.197H122.572L126.633 185H125.519L124.397 182.272ZM132.867 185V182.061H129.019V185H128.041V178.28H129.019V181.151H132.867V178.28H133.852V185H132.867ZM142.321 184.091V186.682H141.344V185H135.95V186.682H134.973V184.091H135.458C135.485 184.063 135.526 184.018 135.581 183.954C135.64 183.886 135.738 183.735 135.875 183.503C136.012 183.271 136.132 183.02 136.237 182.751C136.347 182.478 136.442 182.115 136.524 181.664C136.611 181.208 136.654 180.734 136.654 180.242V178.28H141.269V184.091H142.321ZM137.632 179.189V180.242C137.632 181.008 137.538 181.71 137.352 182.348C137.165 182.986 136.978 183.437 136.791 183.701L136.511 184.091H140.291V179.189H137.632ZM145.575 179.825C145.083 180.345 144.837 180.951 144.837 181.644C144.837 182.332 145.081 182.936 145.568 183.455C146.061 183.97 146.61 184.228 147.216 184.228C147.795 184.228 148.312 183.977 148.768 183.476C149.228 182.97 149.458 182.359 149.458 181.644C149.458 180.924 149.228 180.313 148.768 179.812C148.312 179.306 147.795 179.053 147.216 179.053C146.61 179.053 146.063 179.31 145.575 179.825ZM144.837 183.947V187.939H143.859V178.28H144.837V179.333C144.855 179.306 144.887 179.265 144.933 179.21C144.983 179.151 145.081 179.053 145.227 178.916C145.377 178.779 145.539 178.659 145.712 178.554C145.885 178.444 146.106 178.349 146.375 178.267C146.648 178.18 146.929 178.137 147.216 178.137C148.073 178.137 148.822 178.481 149.465 179.169C150.112 179.857 150.436 180.682 150.436 181.644C150.436 182.601 150.114 183.423 149.472 184.111C148.829 184.795 148.077 185.137 147.216 185.137C146.929 185.137 146.651 185.096 146.382 185.014C146.118 184.932 145.894 184.834 145.712 184.72C145.53 184.606 145.37 184.492 145.233 184.378C145.101 184.259 145.001 184.159 144.933 184.077L144.837 183.947ZM156.854 183.476C157.333 182.979 157.572 182.368 157.572 181.644C157.572 180.914 157.331 180.301 156.848 179.805C156.369 179.303 155.793 179.053 155.118 179.053C154.448 179.053 153.872 179.303 153.389 179.805C152.91 180.301 152.671 180.912 152.671 181.637C152.671 182.357 152.91 182.97 153.389 183.476C153.872 183.977 154.448 184.228 155.118 184.228C155.793 184.228 156.371 183.977 156.854 183.476ZM152.698 184.125C152.028 183.451 151.693 182.623 151.693 181.644C151.693 180.659 152.026 179.83 152.691 179.155C153.361 178.476 154.173 178.137 155.125 178.137C156.077 178.137 156.886 178.476 157.552 179.155C158.217 179.83 158.55 180.659 158.55 181.644C158.55 182.623 158.217 183.451 157.552 184.125C156.886 184.799 156.077 185.137 155.125 185.137C154.173 185.137 153.364 184.799 152.698 184.125ZM164.784 178.28V179.189H161.284V185H160.307V178.28H164.784ZM171.996 182.006L166.534 181.992C166.571 182.598 166.819 183.122 167.279 183.564C167.744 184.007 168.289 184.228 168.913 184.228C169.332 184.228 169.722 184.134 170.082 183.947C170.442 183.76 170.697 183.574 170.848 183.387L171.087 183.113L171.716 183.742C171.688 183.779 171.647 183.831 171.593 183.899C171.543 183.963 171.429 184.075 171.251 184.234C171.078 184.389 170.889 184.528 170.684 184.651C170.483 184.77 170.221 184.882 169.897 184.986C169.578 185.087 169.25 185.137 168.913 185.137C167.997 185.137 167.209 184.797 166.548 184.118C165.887 183.435 165.557 182.607 165.557 181.637C165.557 180.666 165.882 179.841 166.534 179.162C167.19 178.479 167.961 178.137 168.845 178.137C169.761 178.137 170.526 178.456 171.142 179.094C171.757 179.727 172.064 180.529 172.064 181.5L171.996 182.006ZM170.355 179.647C169.936 179.251 169.433 179.053 168.845 179.053C168.257 179.053 167.744 179.26 167.307 179.675C166.869 180.09 166.612 180.582 166.534 181.151H171.087C171.014 180.545 170.77 180.044 170.355 179.647ZM178.641 185V182.061H174.792V185H173.814V178.28H174.792V181.151H178.641V178.28H179.625V185H178.641Z" fill="black"/>
<path d="M247.582 185V175.197H253.673V176.182H248.635V185H247.582ZM254.438 178.28H259.34V185H258.355V179.189H255.416V180.242C255.416 181.231 255.366 182.056 255.266 182.717C255.17 183.373 255.024 183.874 254.828 184.221C254.632 184.562 254.416 184.802 254.179 184.938C253.942 185.071 253.655 185.137 253.317 185.137C253.203 185.137 253.087 185.125 252.969 185.103C252.855 185.08 252.771 185.055 252.716 185.027L252.62 185V184.022C252.807 184.114 252.994 184.159 253.181 184.159C253.468 184.159 253.693 184.077 253.857 183.913C254.021 183.749 254.158 183.371 254.268 182.778C254.382 182.186 254.438 181.34 254.438 180.242V178.28ZM269.751 179.155C270.412 179.839 270.742 180.666 270.742 181.637C270.742 182.607 270.41 183.435 269.744 184.118C269.083 184.797 268.297 185.137 267.386 185.137C266.529 185.137 265.779 184.838 265.137 184.241C264.499 183.644 264.127 182.917 264.022 182.061H262.553V185H261.575V178.28H262.553V181.151H264.022C264.136 180.331 264.51 179.625 265.144 179.032C265.777 178.435 266.524 178.137 267.386 178.137C268.302 178.137 269.09 178.476 269.751 179.155ZM265.711 179.798C265.237 180.299 265 180.914 265 181.644C265 182.368 265.235 182.981 265.704 183.482C266.178 183.979 266.736 184.228 267.379 184.228C268.026 184.228 268.584 183.979 269.054 183.482C269.528 182.981 269.765 182.368 269.765 181.644C269.765 180.914 269.528 180.301 269.054 179.805C268.584 179.303 268.026 179.053 267.379 179.053C266.736 179.053 266.18 179.301 265.711 179.798ZM273.477 183.113V185H272.499V178.28H273.477V181.849L276.833 178.28H278.029L275.438 181.008L278.31 185H277.188L274.81 181.712L273.477 183.113ZM283.949 183.476C284.428 182.979 284.667 182.368 284.667 181.644C284.667 180.914 284.425 180.301 283.942 179.805C283.464 179.303 282.887 179.053 282.213 179.053C281.543 179.053 280.966 179.303 280.483 179.805C280.005 180.301 279.766 180.912 279.766 181.637C279.766 182.357 280.005 182.97 280.483 183.476C280.966 183.977 281.543 184.228 282.213 184.228C282.887 184.228 283.466 183.977 283.949 183.476ZM279.793 184.125C279.123 183.451 278.788 182.623 278.788 181.644C278.788 180.659 279.121 179.83 279.786 179.155C280.456 178.476 281.267 178.137 282.22 178.137C283.172 178.137 283.981 178.476 284.646 179.155C285.312 179.83 285.645 180.659 285.645 181.644C285.645 182.623 285.312 183.451 284.646 184.125C283.981 184.799 283.172 185.137 282.22 185.137C281.267 185.137 280.458 184.799 279.793 184.125ZM289.117 179.825C288.625 180.345 288.379 180.951 288.379 181.644C288.379 182.332 288.623 182.936 289.11 183.455C289.603 183.97 290.152 184.228 290.758 184.228C291.337 184.228 291.854 183.977 292.31 183.476C292.77 182.97 293 182.359 293 181.644C293 180.924 292.77 180.313 292.31 179.812C291.854 179.306 291.337 179.053 290.758 179.053C290.152 179.053 289.605 179.31 289.117 179.825ZM288.379 183.947V187.939H287.401V178.28H288.379V179.333C288.397 179.306 288.429 179.265 288.475 179.21C288.525 179.151 288.623 179.053 288.769 178.916C288.919 178.779 289.081 178.659 289.254 178.554C289.427 178.444 289.648 178.349 289.917 178.267C290.19 178.18 290.471 178.137 290.758 178.137C291.615 178.137 292.364 178.481 293.007 179.169C293.654 179.857 293.978 180.682 293.978 181.644C293.978 182.601 293.656 183.423 293.014 184.111C292.371 184.795 291.619 185.137 290.758 185.137C290.471 185.137 290.193 185.096 289.924 185.014C289.66 184.932 289.436 184.834 289.254 184.72C289.072 184.606 288.912 184.492 288.775 184.378C288.643 184.259 288.543 184.159 288.475 184.077L288.379 183.947ZM294.887 179.189V178.28H300.622V179.189H298.243V185H297.266V179.189H294.887ZM307.068 178.28H307.909V185H306.925V179.962L302.864 185H302.03V178.28H303.008V183.318L307.068 178.28ZM311.129 183.113V185H310.151V178.28H311.129V181.849L314.485 178.28H315.682L313.091 181.008L315.962 185H314.841L312.462 181.712L311.129 183.113ZM321.602 183.476C322.08 182.979 322.319 182.368 322.319 181.644C322.319 180.914 322.078 180.301 321.595 179.805C321.116 179.303 320.54 179.053 319.865 179.053C319.195 179.053 318.619 179.303 318.136 179.805C317.657 180.301 317.418 180.912 317.418 181.637C317.418 182.357 317.657 182.97 318.136 183.476C318.619 183.977 319.195 184.228 319.865 184.228C320.54 184.228 321.118 183.977 321.602 183.476ZM317.445 184.125C316.775 183.451 316.44 182.623 316.44 181.644C316.44 180.659 316.773 179.83 317.438 179.155C318.108 178.476 318.92 178.137 319.872 178.137C320.825 178.137 321.633 178.476 322.299 179.155C322.964 179.83 323.297 180.659 323.297 181.644C323.297 182.623 322.964 183.451 322.299 184.125C321.633 184.799 320.825 185.137 319.872 185.137C318.92 185.137 318.111 184.799 317.445 184.125ZM330.092 178.28H330.933V185H329.948V179.962L325.888 185H325.054V178.28H326.031V183.318L330.092 178.28ZM339.402 184.091V186.682H338.425V185H333.031V186.682H332.054V184.091H332.539C332.566 184.063 332.607 184.018 332.662 183.954C332.721 183.886 332.819 183.735 332.956 183.503C333.093 183.271 333.214 183.02 333.318 182.751C333.428 182.478 333.523 182.115 333.605 181.664C333.692 181.208 333.735 180.734 333.735 180.242V178.28H338.35V184.091H339.402ZM334.713 179.189V180.242C334.713 181.008 334.619 181.71 334.433 182.348C334.246 182.986 334.059 183.437 333.872 183.701L333.592 184.091H337.372V179.189H334.713Z" fill="black"/>
<path d="M187.416 151.197V161H186.363V152.182H180.908V161H179.855V151.197H187.416ZM191.654 155.825C191.162 156.345 190.916 156.951 190.916 157.644C190.916 158.332 191.16 158.936 191.647 159.455C192.14 159.97 192.689 160.228 193.295 160.228C193.874 160.228 194.391 159.977 194.847 159.476C195.307 158.97 195.537 158.359 195.537 157.644C195.537 156.924 195.307 156.313 194.847 155.812C194.391 155.306 193.874 155.053 193.295 155.053C192.689 155.053 192.142 155.31 191.654 155.825ZM190.916 159.947V163.939H189.938V154.28H190.916V155.333C190.934 155.306 190.966 155.265 191.012 155.21C191.062 155.151 191.16 155.053 191.306 154.916C191.456 154.779 191.618 154.659 191.791 154.554C191.964 154.444 192.185 154.349 192.454 154.267C192.728 154.18 193.008 154.137 193.295 154.137C194.152 154.137 194.901 154.481 195.544 155.169C196.191 155.857 196.515 156.682 196.515 157.644C196.515 158.601 196.193 159.423 195.551 160.111C194.908 160.795 194.156 161.137 193.295 161.137C193.008 161.137 192.73 161.096 192.461 161.014C192.197 160.932 191.973 160.834 191.791 160.72C191.609 160.606 191.449 160.492 191.312 160.378C191.18 160.259 191.08 160.159 191.012 160.077L190.916 159.947ZM202.934 159.476C203.412 158.979 203.651 158.368 203.651 157.644C203.651 156.914 203.41 156.301 202.927 155.805C202.448 155.303 201.872 155.053 201.197 155.053C200.527 155.053 199.951 155.303 199.468 155.805C198.989 156.301 198.75 156.912 198.75 157.637C198.75 158.357 198.989 158.97 199.468 159.476C199.951 159.977 200.527 160.228 201.197 160.228C201.872 160.228 202.451 159.977 202.934 159.476ZM198.777 160.125C198.107 159.451 197.772 158.623 197.772 157.644C197.772 156.659 198.105 155.83 198.771 155.155C199.44 154.476 200.252 154.137 201.204 154.137C202.157 154.137 202.965 154.476 203.631 155.155C204.296 155.83 204.629 156.659 204.629 157.644C204.629 158.623 204.296 159.451 203.631 160.125C202.965 160.799 202.157 161.137 201.204 161.137C200.252 161.137 199.443 160.799 198.777 160.125ZM210.863 154.28V155.189H207.363V161H206.386V154.28H210.863ZM218.075 158.006L212.613 157.992C212.65 158.598 212.898 159.122 213.358 159.564C213.823 160.007 214.368 160.228 214.992 160.228C215.411 160.228 215.801 160.134 216.161 159.947C216.521 159.76 216.776 159.574 216.927 159.387L217.166 159.113L217.795 159.742C217.768 159.779 217.727 159.831 217.672 159.899C217.622 159.963 217.508 160.075 217.33 160.234C217.157 160.389 216.968 160.528 216.763 160.651C216.562 160.77 216.3 160.882 215.977 160.986C215.658 161.087 215.329 161.137 214.992 161.137C214.076 161.137 213.288 160.797 212.627 160.118C211.966 159.435 211.636 158.607 211.636 157.637C211.636 156.666 211.962 155.841 212.613 155.162C213.27 154.479 214.04 154.137 214.924 154.137C215.84 154.137 216.605 154.456 217.221 155.094C217.836 155.727 218.144 156.529 218.144 157.5L218.075 158.006ZM216.435 155.647C216.015 155.251 215.512 155.053 214.924 155.053C214.336 155.053 213.823 155.26 213.386 155.675C212.948 156.09 212.691 156.582 212.613 157.151H217.166C217.093 156.545 216.849 156.044 216.435 155.647ZM220.393 160.111C219.732 159.432 219.401 158.607 219.401 157.637C219.401 156.666 219.732 155.841 220.393 155.162C221.058 154.479 221.846 154.137 222.758 154.137C223.282 154.137 223.77 154.251 224.221 154.479C224.676 154.702 225.002 154.925 225.198 155.148L225.492 155.47L224.788 156.167C224.77 156.14 224.743 156.101 224.706 156.051C224.67 156.001 224.588 155.91 224.46 155.777C224.337 155.645 224.202 155.531 224.057 155.436C223.911 155.335 223.722 155.246 223.489 155.169C223.257 155.091 223.013 155.053 222.758 155.053C222.115 155.053 221.557 155.303 221.083 155.805C220.614 156.301 220.379 156.914 220.379 157.644C220.379 158.368 220.614 158.981 221.083 159.482C221.557 159.979 222.115 160.228 222.758 160.228C223.15 160.228 223.521 160.134 223.872 159.947C224.223 159.76 224.478 159.574 224.638 159.387L224.863 159.113L225.561 159.742C225.533 159.779 225.49 159.831 225.431 159.899C225.376 159.963 225.257 160.075 225.075 160.234C224.893 160.389 224.701 160.528 224.501 160.651C224.3 160.77 224.041 160.882 223.722 160.986C223.407 161.087 223.086 161.137 222.758 161.137C221.842 161.137 221.053 160.795 220.393 160.111ZM226.258 155.189V154.28H231.993V155.189H229.614V161H228.637V155.189H226.258ZM239.349 158.006L233.887 157.992C233.923 158.598 234.172 159.122 234.632 159.564C235.097 160.007 235.641 160.228 236.266 160.228C236.685 160.228 237.075 160.134 237.435 159.947C237.795 159.76 238.05 159.574 238.2 159.387L238.439 159.113L239.068 159.742C239.041 159.779 239 159.831 238.945 159.899C238.895 159.963 238.781 160.075 238.604 160.234C238.43 160.389 238.241 160.528 238.036 160.651C237.836 160.77 237.574 160.882 237.25 160.986C236.931 161.087 236.603 161.137 236.266 161.137C235.35 161.137 234.561 160.797 233.9 160.118C233.24 159.435 232.909 158.607 232.909 157.637C232.909 156.666 233.235 155.841 233.887 155.162C234.543 154.479 235.313 154.137 236.197 154.137C237.113 154.137 237.879 154.456 238.494 155.094C239.109 155.727 239.417 156.529 239.417 157.5L239.349 158.006ZM237.708 155.647C237.289 155.251 236.785 155.053 236.197 155.053C235.609 155.053 235.097 155.26 234.659 155.675C234.222 156.09 233.964 156.582 233.887 157.151H238.439C238.367 156.545 238.123 156.044 237.708 155.647ZM242.883 155.825C242.391 156.345 242.145 156.951 242.145 157.644C242.145 158.332 242.388 158.936 242.876 159.455C243.368 159.97 243.917 160.228 244.523 160.228C245.102 160.228 245.619 159.977 246.075 159.476C246.535 158.97 246.766 158.359 246.766 157.644C246.766 156.924 246.535 156.313 246.075 155.812C245.619 155.306 245.102 155.053 244.523 155.053C243.917 155.053 243.37 155.31 242.883 155.825ZM242.145 159.947V163.939H241.167V154.28H242.145V155.333C242.163 155.306 242.195 155.265 242.24 155.21C242.29 155.151 242.388 155.053 242.534 154.916C242.685 154.779 242.846 154.659 243.02 154.554C243.193 154.444 243.414 154.349 243.683 154.267C243.956 154.18 244.236 154.137 244.523 154.137C245.38 154.137 246.13 154.481 246.772 155.169C247.42 155.857 247.743 156.682 247.743 157.644C247.743 158.601 247.422 159.423 246.779 160.111C246.137 160.795 245.385 161.137 244.523 161.137C244.236 161.137 243.958 161.096 243.689 161.014C243.425 160.932 243.202 160.834 243.02 160.72C242.837 160.606 242.678 160.492 242.541 160.378C242.409 160.259 242.309 160.159 242.24 160.077L242.145 159.947ZM254.162 159.476C254.641 158.979 254.88 158.368 254.88 157.644C254.88 156.914 254.638 156.301 254.155 155.805C253.677 155.303 253.1 155.053 252.426 155.053C251.756 155.053 251.179 155.303 250.696 155.805C250.218 156.301 249.979 156.912 249.979 157.637C249.979 158.357 250.218 158.97 250.696 159.476C251.179 159.977 251.756 160.228 252.426 160.228C253.1 160.228 253.679 159.977 254.162 159.476ZM250.006 160.125C249.336 159.451 249.001 158.623 249.001 157.644C249.001 156.659 249.334 155.83 249.999 155.155C250.669 154.476 251.48 154.137 252.433 154.137C253.385 154.137 254.194 154.476 254.859 155.155C255.525 155.83 255.857 156.659 255.857 157.644C255.857 158.623 255.525 159.451 254.859 160.125C254.194 160.799 253.385 161.137 252.433 161.137C251.48 161.137 250.671 160.799 250.006 160.125ZM262.44 161V158.061H258.592V161H257.614V154.28H258.592V157.151H262.44V154.28H263.425V161H262.44Z" fill="black"/>
<path d="M92 112C92 120.284 85.2843 127 77 127C68.7157 127 62 120.284 62 112C62 103.716 68.7157 97 77 97C85.2843 97 92 103.716 92 112Z" fill="#EDC41F" stroke="white" stroke-width="2"/>
</svg>
