<svg width="350" height="162" viewBox="0 0 350 162" fill="none" xmlns="http://www.w3.org/2000/svg">
<rect x="1" y="1" width="348" height="160" rx="19" fill="white" fill-opacity="0.4" stroke="#4C57B9" stroke-width="2"/>
<path d="M66.1826 22.3965V35H64.2051V29.5068H57.9912V35H56.0137V22.3965H57.9912V27.7139H64.2051V22.3965H66.1826ZM77.1514 31.3086H70.4014C70.4951 31.918 70.7939 32.4453 71.2979 32.8906C71.8076 33.3359 72.4111 33.5586 73.1084 33.5586C73.6123 33.5586 74.0811 33.4443 74.5146 33.2158C74.9541 32.9873 75.2646 32.7646 75.4463 32.5479L75.7188 32.2139L76.8877 33.3828C76.8525 33.4297 76.7969 33.4971 76.7207 33.585C76.6504 33.667 76.4951 33.8105 76.2549 34.0156C76.0146 34.2148 75.7598 34.3936 75.4902 34.5518C75.2207 34.7041 74.8691 34.8477 74.4355 34.9824C74.0078 35.1113 73.5654 35.1758 73.1084 35.1758C71.8838 35.1758 70.8262 34.7275 69.9355 33.8311C69.0508 32.9287 68.6084 31.8477 68.6084 30.5879C68.6084 29.375 69.0391 28.3379 69.9004 27.4766C70.7676 26.6094 71.8047 26.1758 73.0117 26.1758C74.2246 26.1758 75.2324 26.5801 76.0352 27.3887C76.8438 28.1914 77.248 29.1992 77.248 30.4121L77.1514 31.3086ZM73.0117 27.7139C72.3613 27.7139 71.8135 27.9072 71.3682 28.2939C70.9287 28.6748 70.6328 29.1699 70.4805 29.7793H75.4814C75.376 29.1699 75.1035 28.6748 74.6641 28.2939C74.2246 27.9072 73.6738 27.7139 73.0117 27.7139ZM80.0254 33.8311C79.1289 32.9404 78.6807 31.8916 78.6807 30.6846C78.6807 29.4717 79.126 28.417 80.0166 27.5205C80.9131 26.624 81.9678 26.1758 83.1807 26.1758C83.8545 26.1758 84.4814 26.3223 85.0615 26.6152C85.6416 26.9023 86.0576 27.1895 86.3096 27.4766L86.6875 27.8896L85.5186 29.0586C85.46 28.9648 85.3691 28.8506 85.2461 28.7158C85.1289 28.5752 84.8682 28.3877 84.4639 28.1533C84.0654 27.9189 83.6377 27.8018 83.1807 27.8018C82.4482 27.8018 81.8125 28.0801 81.2734 28.6367C80.7402 29.1934 80.4736 29.876 80.4736 30.6846C80.4736 31.4873 80.7402 32.167 81.2734 32.7236C81.8125 33.2803 82.4482 33.5586 83.1807 33.5586C83.6377 33.5586 84.0654 33.4443 84.4639 33.2158C84.8682 32.9873 85.1582 32.7646 85.334 32.5479L85.6064 32.2139L86.7754 33.3828C86.7402 33.4297 86.6875 33.4971 86.6172 33.585C86.5469 33.667 86.3945 33.8105 86.1602 34.0156C85.9258 34.2148 85.6797 34.3936 85.4219 34.5518C85.1641 34.7041 84.8301 34.8477 84.4199 34.9824C84.0098 35.1113 83.5967 35.1758 83.1807 35.1758C81.9678 35.1758 80.916 34.7275 80.0254 33.8311ZM96.5752 31.3086H89.8252C89.9189 31.918 90.2178 32.4453 90.7217 32.8906C91.2314 33.3359 91.835 33.5586 92.5322 33.5586C93.0361 33.5586 93.5049 33.4443 93.9385 33.2158C94.3779 32.9873 94.6885 32.7646 94.8701 32.5479L95.1426 32.2139L96.3115 33.3828C96.2764 33.4297 96.2207 33.4971 96.1445 33.585C96.0742 33.667 95.9189 33.8105 95.6787 34.0156C95.4385 34.2148 95.1836 34.3936 94.9141 34.5518C94.6445 34.7041 94.293 34.8477 93.8594 34.9824C93.4316 35.1113 92.9893 35.1758 92.5322 35.1758C91.3076 35.1758 90.25 34.7275 89.3594 33.8311C88.4746 32.9287 88.0322 31.8477 88.0322 30.5879C88.0322 29.375 88.4629 28.3379 89.3242 27.4766C90.1914 26.6094 91.2285 26.1758 92.4355 26.1758C93.6484 26.1758 94.6562 26.5801 95.459 27.3887C96.2676 28.1914 96.6719 29.1992 96.6719 30.4121L96.5752 31.3086ZM92.4355 27.7139C91.7852 27.7139 91.2373 27.9072 90.792 28.2939C90.3525 28.6748 90.0566 29.1699 89.9043 29.7793H94.9053C94.7998 29.1699 94.5273 28.6748 94.0879 28.2939C93.6484 27.9072 93.0977 27.7139 92.4355 27.7139ZM99.6338 26.3604H106.296V35H104.494V27.9775H101.436V28.8828C101.436 30.5293 101.304 31.8301 101.04 32.7852C100.782 33.7344 100.448 34.3701 100.038 34.6924C99.6338 35.0146 99.1094 35.1758 98.4648 35.1758C98.3066 35.1758 98.1367 35.1611 97.9551 35.1318C97.7793 35.1025 97.6416 35.0703 97.542 35.0352L97.3838 35V33.2861C97.624 33.3447 97.832 33.377 98.0078 33.3828C98.377 33.3828 98.667 33.2832 98.8779 33.084C99.0947 32.8848 99.2734 32.4453 99.4141 31.7656C99.5605 31.0801 99.6338 30.1191 99.6338 28.8828V26.3604ZM116.825 31.3086H110.075C110.169 31.918 110.468 32.4453 110.972 32.8906C111.481 33.3359 112.085 33.5586 112.782 33.5586C113.286 33.5586 113.755 33.4443 114.188 33.2158C114.628 32.9873 114.938 32.7646 115.12 32.5479L115.393 32.2139L116.562 33.3828C116.526 33.4297 116.471 33.4971 116.395 33.585C116.324 33.667 116.169 33.8105 115.929 34.0156C115.688 34.2148 115.434 34.3936 115.164 34.5518C114.895 34.7041 114.543 34.8477 114.109 34.9824C113.682 35.1113 113.239 35.1758 112.782 35.1758C111.558 35.1758 110.5 34.7275 109.609 33.8311C108.725 32.9287 108.282 31.8477 108.282 30.5879C108.282 29.375 108.713 28.3379 109.574 27.4766C110.441 26.6094 111.479 26.1758 112.686 26.1758C113.898 26.1758 114.906 26.5801 115.709 27.3887C116.518 28.1914 116.922 29.1992 116.922 30.4121L116.825 31.3086ZM112.686 27.7139C112.035 27.7139 111.487 27.9072 111.042 28.2939C110.603 28.6748 110.307 29.1699 110.154 29.7793H115.155C115.05 29.1699 114.777 28.6748 114.338 28.2939C113.898 27.9072 113.348 27.7139 112.686 27.7139ZM126.546 26.3604L123.215 29.9639L126.81 35H124.832L122.046 31.1328L120.692 32.5742V35H118.891V26.3604H120.692V30.2275L124.384 26.3604H126.546ZM127.346 27.9775V26.3604H135.08V27.9775H132.109V35H130.316V27.9775H127.346ZM142.999 26.3604H144.616V35H142.814V29.3311L138.314 35H136.697V26.3604H138.499V32.0293L142.999 26.3604ZM147.139 26.3604H151.278C152.104 26.3604 152.761 26.5742 153.247 27.002C153.733 27.4238 153.977 27.96 153.977 28.6104C153.977 28.9795 153.895 29.3164 153.73 29.6211C153.572 29.9199 153.408 30.1279 153.238 30.2451L152.992 30.4121C153.027 30.4238 153.077 30.4443 153.142 30.4736C153.206 30.5029 153.323 30.5791 153.493 30.7021C153.663 30.8193 153.81 30.9512 153.933 31.0977C154.062 31.2383 154.176 31.4316 154.275 31.6777C154.381 31.9238 154.434 32.1904 154.434 32.4775C154.434 33.2217 154.167 33.8281 153.634 34.2969C153.106 34.7656 152.383 35 151.463 35H147.139V26.3604ZM151.463 31.1328H148.94V33.4707H151.463C151.82 33.4707 152.104 33.3652 152.315 33.1543C152.526 32.9434 152.632 32.6592 152.632 32.3018C152.632 31.9795 152.523 31.7041 152.307 31.4756C152.09 31.2471 151.809 31.1328 151.463 31.1328ZM151.938 29.4453C152.102 29.2871 152.184 29.0703 152.184 28.7949C152.184 28.5137 152.102 28.2939 151.938 28.1357C151.773 27.9717 151.554 27.8896 151.278 27.8896H148.94V29.6914H151.278C151.554 29.6914 151.773 29.6094 151.938 29.4453ZM158.204 31.3965V35H156.402V26.3604H158.204V29.7793H162.432V26.3604H164.233V35H162.432V31.3965H158.204ZM172.618 32.7236C173.151 32.167 173.418 31.4873 173.418 30.6846C173.418 29.876 173.151 29.1934 172.618 28.6367C172.085 28.0801 171.452 27.8018 170.72 27.8018C169.987 27.8018 169.352 28.0801 168.812 28.6367C168.279 29.1934 168.013 29.876 168.013 30.6846C168.013 31.4873 168.279 32.167 168.812 32.7236C169.352 33.2803 169.987 33.5586 170.72 33.5586C171.452 33.5586 172.085 33.2803 172.618 32.7236ZM167.564 33.8311C166.668 32.9404 166.22 31.8916 166.22 30.6846C166.22 29.4717 166.665 28.417 167.556 27.5205C168.452 26.624 169.507 26.1758 170.72 26.1758C171.933 26.1758 172.984 26.624 173.875 27.5205C174.771 28.417 175.22 29.4717 175.22 30.6846C175.22 31.8916 174.771 32.9434 173.875 33.8398C172.984 34.7305 171.933 35.1758 170.72 35.1758C169.507 35.1758 168.455 34.7275 167.564 33.8311ZM185.204 31.3086H178.454C178.548 31.918 178.847 32.4453 179.351 32.8906C179.86 33.3359 180.464 33.5586 181.161 33.5586C181.665 33.5586 182.134 33.4443 182.567 33.2158C183.007 32.9873 183.317 32.7646 183.499 32.5479L183.771 32.2139L184.94 33.3828C184.905 33.4297 184.85 33.4971 184.773 33.585C184.703 33.667 184.548 33.8105 184.308 34.0156C184.067 34.2148 183.812 34.3936 183.543 34.5518C183.273 34.7041 182.922 34.8477 182.488 34.9824C182.061 35.1113 181.618 35.1758 181.161 35.1758C179.937 35.1758 178.879 34.7275 177.988 33.8311C177.104 32.9287 176.661 31.8477 176.661 30.5879C176.661 29.375 177.092 28.3379 177.953 27.4766C178.82 26.6094 179.857 26.1758 181.064 26.1758C182.277 26.1758 183.285 26.5801 184.088 27.3887C184.896 28.1914 185.301 29.1992 185.301 30.4121L185.204 31.3086ZM181.064 27.7139C180.414 27.7139 179.866 27.9072 179.421 28.2939C178.981 28.6748 178.686 29.1699 178.533 29.7793H183.534C183.429 29.1699 183.156 28.6748 182.717 28.2939C182.277 27.9072 181.727 27.7139 181.064 27.7139ZM190.873 26.3604H195.013C195.839 26.3604 196.495 26.5742 196.981 27.002C197.468 27.4238 197.711 27.96 197.711 28.6104C197.711 28.9795 197.629 29.3164 197.465 29.6211C197.307 29.9199 197.143 30.1279 196.973 30.2451L196.727 30.4121C196.762 30.4238 196.812 30.4443 196.876 30.4736C196.94 30.5029 197.058 30.5791 197.228 30.7021C197.397 30.8193 197.544 30.9512 197.667 31.0977C197.796 31.2383 197.91 31.4316 198.01 31.6777C198.115 31.9238 198.168 32.1904 198.168 32.4775C198.168 33.2217 197.901 33.8281 197.368 34.2969C196.841 34.7656 196.117 35 195.197 35H190.873V26.3604ZM195.197 31.1328H192.675V33.4707H195.197C195.555 33.4707 195.839 33.3652 196.05 33.1543C196.261 32.9434 196.366 32.6592 196.366 32.3018C196.366 31.9795 196.258 31.7041 196.041 31.4756C195.824 31.2471 195.543 31.1328 195.197 31.1328ZM195.672 29.4453C195.836 29.2871 195.918 29.0703 195.918 28.7949C195.918 28.5137 195.836 28.2939 195.672 28.1357C195.508 27.9717 195.288 27.8896 195.013 27.8896H192.675V29.6914H195.013C195.288 29.6914 195.508 29.6094 195.672 29.4453ZM205.999 32.7236C206.532 32.167 206.799 31.4873 206.799 30.6846C206.799 29.876 206.532 29.1934 205.999 28.6367C205.466 28.0801 204.833 27.8018 204.101 27.8018C203.368 27.8018 202.732 28.0801 202.193 28.6367C201.66 29.1934 201.394 29.876 201.394 30.6846C201.394 31.4873 201.66 32.167 202.193 32.7236C202.732 33.2803 203.368 33.5586 204.101 33.5586C204.833 33.5586 205.466 33.2803 205.999 32.7236ZM200.945 33.8311C200.049 32.9404 199.601 31.8916 199.601 30.6846C199.601 29.4717 200.046 28.417 200.937 27.5205C201.833 26.624 202.888 26.1758 204.101 26.1758C205.313 26.1758 206.365 26.624 207.256 27.5205C208.152 28.417 208.601 29.4717 208.601 30.6846C208.601 31.8916 208.152 32.9434 207.256 33.8398C206.365 34.7305 205.313 35.1758 204.101 35.1758C202.888 35.1758 201.836 34.7275 200.945 33.8311ZM216.335 28.6104C216.335 29.0088 216.224 29.3574 216.001 29.6562C215.784 29.9551 215.562 30.1514 215.333 30.2451L214.99 30.4121C215.037 30.4238 215.099 30.4443 215.175 30.4736C215.257 30.5029 215.392 30.5732 215.579 30.6846C215.772 30.79 215.942 30.9189 216.089 31.0713C216.241 31.2178 216.379 31.4229 216.502 31.6865C216.631 31.9502 216.695 32.2461 216.695 32.5742C216.695 33.2949 216.373 33.9102 215.729 34.4199C215.09 34.9238 214.214 35.1758 213.101 35.1758C212.679 35.1758 212.271 35.123 211.879 35.0176C211.492 34.9121 211.17 34.7861 210.912 34.6396C210.654 34.4932 210.429 34.3467 210.235 34.2002C210.042 34.0479 209.898 33.9189 209.805 33.8135L209.682 33.6465L210.851 32.4775C210.921 32.5596 211.015 32.6621 211.132 32.7852C211.255 32.9082 211.513 33.0693 211.905 33.2686C212.304 33.4619 212.702 33.5586 213.101 33.5586C213.698 33.5586 214.146 33.4473 214.445 33.2246C214.75 33.002 214.902 32.7236 214.902 32.3896C214.902 32.0557 214.75 31.7773 214.445 31.5547C214.146 31.332 213.698 31.2207 213.101 31.2207H212.107V29.7793H213.101C213.569 29.7793 213.927 29.6885 214.173 29.5068C214.419 29.3193 214.542 29.082 214.542 28.7949C214.542 28.502 214.419 28.2646 214.173 28.083C213.927 27.8955 213.569 27.8018 213.101 27.8018C212.755 27.8018 212.415 27.8691 212.081 28.0039C211.753 28.1328 211.51 28.2676 211.352 28.4082L211.123 28.6104L209.945 27.4414C210.027 27.3477 210.147 27.2305 210.306 27.0898C210.464 26.9492 210.815 26.7617 211.36 26.5273C211.905 26.293 212.485 26.1758 213.101 26.1758C214.097 26.1758 214.885 26.416 215.465 26.8965C216.045 27.377 216.335 27.9482 216.335 28.6104ZM217.425 33.3828H218.049C218.084 33.3477 218.134 33.292 218.198 33.2158C218.269 33.1338 218.386 32.9551 218.55 32.6797C218.72 32.4043 218.866 32.1084 218.989 31.792C219.118 31.4697 219.232 31.0479 219.332 30.5264C219.438 30.0049 219.49 29.457 219.49 28.8828V26.3604H225.792V33.3828H227.049V37.1621H225.256V35H219.227V37.1621H217.425V33.3828ZM221.292 27.9775V28.8828C221.292 29.457 221.242 30.002 221.143 30.5176C221.049 31.0332 220.929 31.4609 220.782 31.8008C220.642 32.1348 220.498 32.4248 220.352 32.6709C220.211 32.917 220.094 33.0928 220 33.1982L219.851 33.3828H223.99V27.9775H221.292ZM236.866 31.3086H230.116C230.21 31.918 230.509 32.4453 231.013 32.8906C231.522 33.3359 232.126 33.5586 232.823 33.5586C233.327 33.5586 233.796 33.4443 234.229 33.2158C234.669 32.9873 234.979 32.7646 235.161 32.5479L235.434 32.2139L236.603 33.3828C236.567 33.4297 236.512 33.4971 236.436 33.585C236.365 33.667 236.21 33.8105 235.97 34.0156C235.729 34.2148 235.475 34.3936 235.205 34.5518C234.936 34.7041 234.584 34.8477 234.15 34.9824C233.723 35.1113 233.28 35.1758 232.823 35.1758C231.599 35.1758 230.541 34.7275 229.65 33.8311C228.766 32.9287 228.323 31.8477 228.323 30.5879C228.323 29.375 228.754 28.3379 229.615 27.4766C230.482 26.6094 231.52 26.1758 232.727 26.1758C233.939 26.1758 234.947 26.5801 235.75 27.3887C236.559 28.1914 236.963 29.1992 236.963 30.4121L236.866 31.3086ZM232.727 27.7139C232.076 27.7139 231.528 27.9072 231.083 28.2939C230.644 28.6748 230.348 29.1699 230.195 29.7793H235.196C235.091 29.1699 234.818 28.6748 234.379 28.2939C233.939 27.9072 233.389 27.7139 232.727 27.7139ZM245.233 26.3604H246.851V35H245.049V29.3311L240.549 35H238.932V26.3604H240.733V32.0293L245.233 26.3604ZM241.99 23.293C242.23 23.5391 242.529 23.6621 242.887 23.6621C243.25 23.6621 243.552 23.542 243.792 23.3018C244.032 23.0615 244.152 22.7598 244.152 22.3965H245.506C245.506 23.1172 245.26 23.7178 244.768 24.1982C244.275 24.6787 243.651 24.9189 242.896 24.9189C242.14 24.9189 241.516 24.6787 241.023 24.1982C240.531 23.7178 240.285 23.1172 240.285 22.3965H241.63C241.63 22.7539 241.75 23.0527 241.99 23.293ZM250.182 33.8311C249.285 32.9404 248.837 31.8916 248.837 30.6846C248.837 29.4717 249.282 28.417 250.173 27.5205C251.069 26.624 252.124 26.1758 253.337 26.1758C254.011 26.1758 254.638 26.3223 255.218 26.6152C255.798 26.9023 256.214 27.1895 256.466 27.4766L256.844 27.8896L255.675 29.0586C255.616 28.9648 255.525 28.8506 255.402 28.7158C255.285 28.5752 255.024 28.3877 254.62 28.1533C254.222 27.9189 253.794 27.8018 253.337 27.8018C252.604 27.8018 251.969 28.0801 251.43 28.6367C250.896 29.1934 250.63 29.876 250.63 30.6846C250.63 31.4873 250.896 32.167 251.43 32.7236C251.969 33.2803 252.604 33.5586 253.337 33.5586C253.794 33.5586 254.222 33.4443 254.62 33.2158C255.024 32.9873 255.314 32.7646 255.49 32.5479L255.763 32.2139L256.932 33.3828C256.896 33.4297 256.844 33.4971 256.773 33.585C256.703 33.667 256.551 33.8105 256.316 34.0156C256.082 34.2148 255.836 34.3936 255.578 34.5518C255.32 34.7041 254.986 34.8477 254.576 34.9824C254.166 35.1113 253.753 35.1758 253.337 35.1758C252.124 35.1758 251.072 34.7275 250.182 33.8311ZM257.828 27.9775V26.3604H265.562V27.9775H262.592V35H260.799V27.9775H257.828ZM267.18 26.3604H271.319C272.146 26.3604 272.802 26.5742 273.288 27.002C273.774 27.4238 274.018 27.96 274.018 28.6104C274.018 28.9795 273.936 29.3164 273.771 29.6211C273.613 29.9199 273.449 30.1279 273.279 30.2451L273.033 30.4121C273.068 30.4238 273.118 30.4443 273.183 30.4736C273.247 30.5029 273.364 30.5791 273.534 30.7021C273.704 30.8193 273.851 30.9512 273.974 31.0977C274.103 31.2383 274.217 31.4316 274.316 31.6777C274.422 31.9238 274.475 32.1904 274.475 32.4775C274.475 33.2217 274.208 33.8281 273.675 34.2969C273.147 34.7656 272.424 35 271.504 35H267.18V26.3604ZM271.504 31.1328H268.981V33.4707H271.504C271.861 33.4707 272.146 33.3652 272.356 33.1543C272.567 32.9434 272.673 32.6592 272.673 32.3018C272.673 31.9795 272.564 31.7041 272.348 31.4756C272.131 31.2471 271.85 31.1328 271.504 31.1328ZM271.979 29.4453C272.143 29.2871 272.225 29.0703 272.225 28.7949C272.225 28.5137 272.143 28.2939 271.979 28.1357C271.814 27.9717 271.595 27.8896 271.319 27.8896H268.981V29.6914H271.319C271.595 29.6914 271.814 29.6094 271.979 29.4453ZM282.745 26.3604H284.362V35H282.561V29.3311L278.061 35H276.443V26.3604H278.245V32.0293L282.745 26.3604ZM294.892 31.3086H288.142C288.235 31.918 288.534 32.4453 289.038 32.8906C289.548 33.3359 290.151 33.5586 290.849 33.5586C291.353 33.5586 291.821 33.4443 292.255 33.2158C292.694 32.9873 293.005 32.7646 293.187 32.5479L293.459 32.2139L294.628 33.3828C294.593 33.4297 294.537 33.4971 294.461 33.585C294.391 33.667 294.235 33.8105 293.995 34.0156C293.755 34.2148 293.5 34.3936 293.23 34.5518C292.961 34.7041 292.609 34.8477 292.176 34.9824C291.748 35.1113 291.306 35.1758 290.849 35.1758C289.624 35.1758 288.566 34.7275 287.676 33.8311C286.791 32.9287 286.349 31.8477 286.349 30.5879C286.349 29.375 286.779 28.3379 287.641 27.4766C288.508 26.6094 289.545 26.1758 290.752 26.1758C291.965 26.1758 292.973 26.5801 293.775 27.3887C294.584 28.1914 294.988 29.1992 294.988 30.4121L294.892 31.3086ZM290.752 27.7139C290.102 27.7139 289.554 27.9072 289.108 28.2939C288.669 28.6748 288.373 29.1699 288.221 29.7793H293.222C293.116 29.1699 292.844 28.6748 292.404 28.2939C291.965 27.9072 291.414 27.7139 290.752 27.7139Z" fill="black"/>
<path fill-rule="evenodd" clip-rule="evenodd" d="M42 95C42 95 47.3571 120 67 120C86.6429 120 92 95 92 95H42Z" fill="#EDC41F"/>
<path fill-rule="evenodd" clip-rule="evenodd" d="M114 95C114 95 119.357 120 139 120C158.643 120 164 95 164 95H114Z" fill="#32AD28"/>
<path fill-rule="evenodd" clip-rule="evenodd" d="M186 95C186 95 191.357 120 211 120C230.643 120 236 95 236 95H186Z" fill="#D73030"/>
<path fill-rule="evenodd" clip-rule="evenodd" d="M258 95C258 95 263.357 120 283 120C302.643 120 308 95 308 95H258Z" fill="#38BEBD"/>
<path d="M307.82 96H349V142C349 152.493 340.493 161 330 161H20C9.50659 161 1 152.493 1 142V96H42.1797C42.1969 96.0789 42.2155 96.163 42.2356 96.2519C42.3887 96.9289 42.6292 97.8905 42.9811 99.0422C43.6838 101.342 44.8363 104.418 46.6362 107.504C50.2374 113.677 56.5127 120 67 120C77.4873 120 83.7626 113.677 87.3638 107.504C89.1637 104.418 90.3162 101.342 91.0189 99.0422C91.3708 97.8905 91.6113 96.9289 91.7644 96.2519C91.7845 96.163 91.8031 96.0789 91.8203 96H114.18C114.197 96.0789 114.215 96.163 114.236 96.2519C114.389 96.9289 114.629 97.8905 114.981 99.0422C115.684 101.342 116.836 104.418 118.636 107.504C122.237 113.677 128.513 120 139 120C149.487 120 155.763 113.677 159.364 107.504C161.164 104.418 162.316 101.342 163.019 99.0422C163.371 97.8905 163.611 96.9289 163.764 96.2519C163.785 96.163 163.803 96.0789 163.82 96H186.18C186.197 96.0789 186.215 96.163 186.236 96.2519C186.389 96.9289 186.629 97.8905 186.981 99.0422C187.684 101.342 188.836 104.418 190.636 107.504C194.237 113.677 200.513 120 211 120C221.487 120 227.763 113.677 231.364 107.504C233.164 104.418 234.316 101.342 235.019 99.0422C235.371 97.8905 235.611 96.9289 235.764 96.2519C235.785 96.163 235.803 96.0789 235.82 96H258.18C258.197 96.0789 258.215 96.163 258.236 96.2519C258.389 96.9289 258.629 97.8905 258.981 99.0422C259.684 101.342 260.836 104.418 262.636 107.504C266.237 113.677 272.513 120 283 120C293.487 120 299.763 113.677 303.364 107.504C305.164 104.418 306.316 101.342 307.019 99.0422C307.371 97.8905 307.611 96.9289 307.764 96.2519C307.785 96.163 307.803 96.0789 307.82 96Z" fill="white" fill-opacity="0.4" stroke="#4C57B9" stroke-width="2"/>
<path d="M91.5 81C91.5 86.799 86.799 91.5 81 91.5C75.201 91.5 70.5 86.799 70.5 81C70.5 75.201 75.201 70.5 81 70.5C86.799 70.5 91.5 75.201 91.5 81Z" fill="#D73030" stroke="white"/>
<path d="M77.5 67C77.5 72.799 72.799 77.5 67 77.5C61.201 77.5 56.5 72.799 56.5 67C56.5 61.201 61.201 56.5 67 56.5C72.799 56.5 77.5 61.201 77.5 67Z" fill="#38BEBD" stroke="white"/>
<path d="M77.5 95C77.5 100.799 72.799 105.5 67 105.5C61.201 105.5 56.5 100.799 56.5 95C56.5 89.201 61.201 84.5 67 84.5C72.799 84.5 77.5 89.201 77.5 95Z" fill="#EDC41F" stroke="white"/>
<path d="M63.5 81C63.5 86.799 58.799 91.5 53 91.5C47.201 91.5 42.5 86.799 42.5 81C42.5 75.201 47.201 70.5 53 70.5C58.799 70.5 63.5 75.201 63.5 81Z" fill="#32AD28" stroke="white"/>
<path d="M163.5 81C163.5 86.799 158.799 91.5 153 91.5C147.201 91.5 142.5 86.799 142.5 81C142.5 75.201 147.201 70.5 153 70.5C158.799 70.5 163.5 75.201 163.5 81Z" fill="#EDC41F" stroke="white"/>
<path d="M149.5 67C149.5 72.799 144.799 77.5 139 77.5C133.201 77.5 128.5 72.799 128.5 67C128.5 61.201 133.201 56.5 139 56.5C144.799 56.5 149.5 61.201 149.5 67Z" fill="#D73030" stroke="white"/>
<path d="M149.5 95C149.5 100.799 144.799 105.5 139 105.5C133.201 105.5 128.5 100.799 128.5 95C128.5 89.201 133.201 84.5 139 84.5C144.799 84.5 149.5 89.201 149.5 95Z" fill="#32AD28" stroke="white"/>
<path d="M135.5 81C135.5 86.799 130.799 91.5 125 91.5C119.201 91.5 114.5 86.799 114.5 81C114.5 75.201 119.201 70.5 125 70.5C130.799 70.5 135.5 75.201 135.5 81Z" fill="#38BEBD" stroke="white"/>
<path d="M235.5 81C235.5 86.799 230.799 91.5 225 91.5C219.201 91.5 214.5 86.799 214.5 81C214.5 75.201 219.201 70.5 225 70.5C230.799 70.5 235.5 75.201 235.5 81Z" fill="#38BEBD" stroke="white"/>
<path d="M221.5 67C221.5 72.799 216.799 77.5 211 77.5C205.201 77.5 200.5 72.799 200.5 67C200.5 61.201 205.201 56.5 211 56.5C216.799 56.5 221.5 61.201 221.5 67Z" fill="#32AD28" stroke="white"/>
<path d="M221.5 95C221.5 100.799 216.799 105.5 211 105.5C205.201 105.5 200.5 100.799 200.5 95C200.5 89.201 205.201 84.5 211 84.5C216.799 84.5 221.5 89.201 221.5 95Z" fill="#D73030" stroke="white"/>
<path d="M207.5 81C207.5 86.799 202.799 91.5 197 91.5C191.201 91.5 186.5 86.799 186.5 81C186.5 75.201 191.201 70.5 197 70.5C202.799 70.5 207.5 75.201 207.5 81Z" fill="#EDC41F" stroke="white"/>
<path d="M307.5 81C307.5 86.799 302.799 91.5 297 91.5C291.201 91.5 286.5 86.799 286.5 81C286.5 75.201 291.201 70.5 297 70.5C302.799 70.5 307.5 75.201 307.5 81Z" fill="#32AD28" stroke="white"/>
<path d="M293.5 67C293.5 72.799 288.799 77.5 283 77.5C277.201 77.5 272.5 72.799 272.5 67C272.5 61.201 277.201 56.5 283 56.5C288.799 56.5 293.5 61.201 293.5 67Z" fill="#EDC41F" stroke="white"/>
<path d="M293.5 95C293.5 100.799 288.799 105.5 283 105.5C277.201 105.5 272.5 100.799 272.5 95C272.5 89.201 277.201 84.5 283 84.5C288.799 84.5 293.5 89.201 293.5 95Z" fill="#38BEBD" stroke="white"/>
<path d="M279.5 81C279.5 86.799 274.799 91.5 269 91.5C263.201 91.5 258.5 86.799 258.5 81C258.5 75.201 263.201 70.5 269 70.5C274.799 70.5 279.5 75.201 279.5 81Z" fill="#D73030" stroke="white"/>
</svg>
