<svg width="259" height="261" viewBox="0 0 259 261" fill="none" xmlns="http://www.w3.org/2000/svg">
<path fill-rule="evenodd" clip-rule="evenodd" d="M67 136L92.9808 151V181L67 196L41.0192 181V151L67 136Z" stroke="#4C57B9" stroke-width="2" stroke-linejoin="round"/>
<path fill-rule="evenodd" clip-rule="evenodd" d="M119 136L144.981 151V181L119 196L93.0192 181V151L119 136Z" stroke="#4C57B9" stroke-width="2" stroke-linejoin="round"/>
<path fill-rule="evenodd" clip-rule="evenodd" d="M145 91L170.981 106V136L145 151L119.019 136V106L145 91Z" stroke="#4C57B9" stroke-width="2" stroke-linejoin="round"/>
<path fill-rule="evenodd" clip-rule="evenodd" d="M151 121C151 117.686 148.314 115 145 115C141.686 115 139 117.686 139 121C139 124.314 141.686 127 145 127C148.314 127 151 124.314 151 121ZM141 121C141 118.791 142.791 117 145 117C147.209 117 149 118.791 149 121C149 123.209 147.209 125 145 125C142.791 125 141 123.209 141 121Z" fill="#4C57B9"/>
<path d="M209.831 55.4619L229 42L257.532 62.7295L246.705 96" stroke="#4C57B9" stroke-width="2" stroke-linecap="round" stroke-linejoin="round"/>
<path d="M207 61.5C207 64.5376 204.538 67 201.5 67C198.462 67 196 64.5376 196 61.5C196 58.4624 198.462 56 201.5 56C204.538 56 207 58.4624 207 61.5Z" stroke="#4C57B9" stroke-width="2"/>
<path fill-rule="evenodd" clip-rule="evenodd" d="M235 6C235 2.68629 232.314 0 229 0C225.686 0 223 2.68629 223 6C223 9.31371 225.686 12 229 12C232.314 12 235 9.31371 235 6ZM225 6C225 3.79086 226.791 2 229 2C231.209 2 233 3.79086 233 6C233 8.20914 231.209 10 229 10C226.791 10 225 8.20914 225 6ZM225 16C225 15.4477 225.448 15 226 15C226.552 15 227 15.4477 227 16V38C227 38.5523 226.552 39 226 39C225.448 39 225 38.5523 225 38V16ZM232 15C231.448 15 231 15.4477 231 16V38C231 38.5523 231.448 39 232 39C232.552 39 233 38.5523 233 38V16C233 15.4477 232.552 15 232 15Z" fill="#4C57B9"/>
<path fill-rule="evenodd" clip-rule="evenodd" d="M5.30846 195.054C2.4387 196.711 1.45545 200.38 3.1123 203.25C4.76916 206.12 8.4387 207.103 11.3085 205.446C14.1782 203.789 15.1615 200.12 13.5046 197.25C11.8478 194.38 8.17821 193.397 5.30846 195.054ZM10.3085 203.714C8.39529 204.819 5.94893 204.163 4.84436 202.25C3.73979 200.337 4.39529 197.89 6.30846 196.786C8.22163 195.681 10.668 196.337 11.7726 198.25C12.8771 200.163 12.2216 202.61 10.3085 203.714ZM18.9687 198.714C18.4904 198.99 17.8788 198.826 17.6027 198.348C17.3265 197.87 17.4904 197.258 17.9687 196.982L37.0213 185.982C37.4996 185.706 38.1112 185.87 38.3873 186.348C38.6634 186.826 38.4996 187.438 38.0213 187.714L18.9687 198.714ZM14.6027 193.152C14.8788 193.63 15.4904 193.794 15.9687 193.518L35.0213 182.518C35.4996 182.242 35.6634 181.63 35.3873 181.152C35.1112 180.674 34.4996 180.51 34.0213 180.786L14.9687 191.786C14.4904 192.062 14.3265 192.674 14.6027 193.152Z" fill="#4C57B9"/>
<path fill-rule="evenodd" clip-rule="evenodd" d="M203.692 182.946C206.561 181.289 207.545 177.62 205.888 174.75C204.231 171.88 200.561 170.897 197.692 172.554C194.822 174.211 193.839 177.88 195.495 180.75C197.152 183.62 200.822 184.603 203.692 182.946ZM198.692 174.286C200.605 173.181 203.051 173.837 204.156 175.75C205.26 177.663 204.605 180.11 202.692 181.214C200.778 182.319 198.332 181.663 197.227 179.75C196.123 177.837 196.778 175.39 198.692 174.286ZM190.031 179.286C190.51 179.01 191.121 179.174 191.397 179.652C191.673 180.13 191.51 180.742 191.031 181.018L171.979 192.018C171.5 192.294 170.889 192.13 170.613 191.652C170.337 191.174 170.5 190.562 170.979 190.286L190.031 179.286ZM194.397 184.848C194.121 184.37 193.51 184.206 193.031 184.482L173.979 195.482C173.5 195.758 173.337 196.37 173.613 196.848C173.889 197.326 174.5 197.49 174.979 197.214L194.031 186.214C194.51 185.938 194.673 185.326 194.397 184.848Z" fill="#4C57B9"/>
<path fill-rule="evenodd" clip-rule="evenodd" d="M203.543 71.7606L209.459 91.0552L203.543 71.7606Z" fill="#4C57B9"/>
<path d="M203.543 71.7606L209.459 91.0552" stroke="#4C57B9" stroke-width="4" stroke-linecap="round" stroke-linejoin="round"/>
<path d="M222.981 136L197 151L171.02 136V106L211 96L222.981 136Z" stroke="#4C57B9" stroke-width="2" stroke-linejoin="round"/>
<path fill-rule="evenodd" clip-rule="evenodd" d="M67.4121 190.633L88.574 178.4L67.4121 190.633Z" fill="#4C57B9"/>
<path d="M67.4121 190.633L88.574 178.4" stroke="#4C57B9" stroke-width="2" stroke-linecap="round" stroke-linejoin="round"/>
<path fill-rule="evenodd" clip-rule="evenodd" d="M242.5 93.5V99.5V93.5Z" fill="#4C57B9"/>
<path d="M242.5 93.5V99.5" stroke="#4C57B9" stroke-linecap="round"/>
<path fill-rule="evenodd" clip-rule="evenodd" d="M239.5 93.5V99.5V93.5Z" fill="#4C57B9"/>
<path d="M239.5 93.5V99.5" stroke="#4C57B9" stroke-linecap="round"/>
<path fill-rule="evenodd" clip-rule="evenodd" d="M236.5 93.5V99.5V93.5Z" fill="#4C57B9"/>
<path d="M236.5 93.5V99.5" stroke="#4C57B9" stroke-linecap="round"/>
<path fill-rule="evenodd" clip-rule="evenodd" d="M233.5 93.5V99.5V93.5Z" fill="#4C57B9"/>
<path d="M233.5 93.5V99.5" stroke="#4C57B9" stroke-linecap="round"/>
<path fill-rule="evenodd" clip-rule="evenodd" d="M230.5 93.5V99.5V93.5Z" fill="#4C57B9"/>
<path d="M230.5 93.5V99.5" stroke="#4C57B9" stroke-linecap="round"/>
<path fill-rule="evenodd" clip-rule="evenodd" d="M227.5 93.5V99.5V93.5Z" fill="#4C57B9"/>
<path d="M227.5 93.5V99.5" stroke="#4C57B9" stroke-linecap="round"/>
<path fill-rule="evenodd" clip-rule="evenodd" d="M224.5 93.5V99.5V93.5Z" fill="#4C57B9"/>
<path d="M224.5 93.5V99.5" stroke="#4C57B9" stroke-linecap="round"/>
<path fill-rule="evenodd" clip-rule="evenodd" d="M221.5 93.5V99.5V93.5Z" fill="#4C57B9"/>
<path d="M221.5 93.5V99.5" stroke="#4C57B9" stroke-linecap="round"/>
<path fill-rule="evenodd" clip-rule="evenodd" d="M218.5 93.5V99.5V93.5Z" fill="#4C57B9"/>
<path d="M218.5 93.5V99.5" stroke="#4C57B9" stroke-linecap="round"/>
<path fill-rule="evenodd" clip-rule="evenodd" d="M215.5 93.5V99.5V93.5Z" fill="#4C57B9"/>
<path d="M215.5 93.5V99.5" stroke="#4C57B9" stroke-linecap="round"/>
<path fill-rule="evenodd" clip-rule="evenodd" d="M166.322 192.065C166.096 191.907 165.784 191.962 165.626 192.188L162.758 196.284C162.6 196.51 162.654 196.822 162.881 196.98C163.107 197.138 163.419 197.083 163.577 196.857L166.445 192.761C166.603 192.535 166.548 192.223 166.322 192.065ZM163.025 190.672C163.183 190.446 163.495 190.391 163.721 190.549C163.948 190.708 164.002 191.019 163.844 191.245L161.263 194.932C161.105 195.158 160.793 195.213 160.567 195.054C160.34 194.896 160.285 194.584 160.444 194.358L163.025 190.672ZM161.12 189.033C160.894 188.875 160.582 188.93 160.424 189.156L158.13 192.433C157.971 192.659 158.026 192.971 158.253 193.129C158.479 193.287 158.791 193.232 158.949 193.006L161.243 189.73C161.402 189.503 161.347 189.192 161.12 189.033ZM157.68 187.845C157.838 187.619 158.15 187.564 158.376 187.722C158.602 187.88 158.657 188.192 158.499 188.418L156.778 190.876C156.62 191.102 156.308 191.157 156.082 190.999C155.856 190.84 155.801 190.528 155.959 190.302L157.68 187.845ZM155.775 186.206C155.549 186.048 155.237 186.103 155.079 186.329L153.645 188.377C153.487 188.603 153.542 188.915 153.768 189.073C153.994 189.232 154.306 189.177 154.464 188.95L155.898 186.902C156.057 186.676 156.002 186.364 155.775 186.206ZM152.478 184.813C152.637 184.587 152.948 184.532 153.175 184.69C153.401 184.849 153.456 185.16 153.297 185.387L152.15 187.025C151.992 187.251 151.68 187.306 151.454 187.148C151.228 186.989 151.173 186.677 151.331 186.451L152.478 184.813ZM150.574 183.174C150.347 183.016 150.036 183.071 149.877 183.297L149.017 184.526C148.859 184.752 148.914 185.064 149.14 185.222C149.366 185.38 149.678 185.326 149.836 185.099L150.696 183.871C150.855 183.644 150.8 183.333 150.574 183.174ZM147.276 181.781C147.435 181.555 147.747 181.5 147.973 181.658C148.199 181.817 148.254 182.128 148.096 182.355L147.522 183.174C147.364 183.4 147.052 183.455 146.826 183.297C146.599 183.138 146.544 182.826 146.703 182.6L147.276 181.781ZM144.532 180.47C144.691 180.244 145.002 180.189 145.229 180.347C145.455 180.506 145.51 180.817 145.351 181.043C145.193 181.27 144.881 181.325 144.655 181.166C144.429 181.008 144.374 180.696 144.532 180.47Z" fill="#4C57B9"/>
<path fill-rule="evenodd" clip-rule="evenodd" d="M139.392 114.402C139.153 114.264 138.847 114.346 138.709 114.585L136.209 118.915C136.071 119.154 136.153 119.46 136.392 119.598C136.631 119.736 136.937 119.654 137.075 119.415L139.575 115.085C139.713 114.846 139.631 114.54 139.392 114.402ZM135.986 113.301C136.124 113.062 136.43 112.98 136.669 113.118C136.908 113.257 136.99 113.562 136.852 113.801L134.602 117.699C134.464 117.938 134.158 118.02 133.919 117.882C133.68 117.744 133.598 117.438 133.736 117.199L135.986 113.301ZM133.946 111.835C133.707 111.697 133.401 111.779 133.263 112.018L131.263 115.482C131.125 115.721 131.207 116.027 131.446 116.165C131.685 116.303 131.991 116.221 132.129 115.982L134.129 112.518C134.267 112.279 134.185 111.973 133.946 111.835ZM130.415 110.951C130.553 110.712 130.859 110.63 131.098 110.768C131.337 110.906 131.419 111.212 131.281 111.451L129.781 114.049C129.643 114.288 129.337 114.37 129.098 114.232C128.859 114.094 128.777 113.788 128.915 113.549L130.415 110.951ZM128.375 109.485C128.136 109.346 127.83 109.428 127.692 109.668L126.442 111.833C126.304 112.072 126.386 112.378 126.625 112.516C126.864 112.654 127.17 112.572 127.308 112.333L128.558 110.168C128.696 109.928 128.614 109.623 128.375 109.485ZM124.969 108.384C125.107 108.145 125.412 108.063 125.652 108.201C125.891 108.339 125.973 108.645 125.835 108.884L124.835 110.616C124.697 110.855 124.391 110.937 124.152 110.799C123.912 110.661 123.831 110.355 123.969 110.116L124.969 108.384ZM122.929 106.918C122.689 106.779 122.384 106.861 122.246 107.101L121.496 108.4C121.357 108.639 121.439 108.945 121.679 109.083C121.918 109.221 122.223 109.139 122.362 108.9L123.112 107.601C123.25 107.361 123.168 107.056 122.929 106.918ZM120.205 105.634C119.966 105.496 119.661 105.578 119.522 105.817L119.022 106.683C118.884 106.922 118.966 107.228 119.205 107.366C119.445 107.504 119.75 107.422 119.888 107.183L120.388 106.317C120.527 106.078 120.445 105.772 120.205 105.634Z" fill="#4C57B9"/>
<path fill-rule="evenodd" clip-rule="evenodd" d="M136.392 122.402C136.153 122.54 136.071 122.846 136.209 123.085L138.709 127.415C138.847 127.654 139.153 127.736 139.392 127.598C139.631 127.46 139.713 127.154 139.575 126.915L137.075 122.585C136.937 122.346 136.631 122.264 136.392 122.402ZM133.736 124.801C133.598 124.562 133.68 124.256 133.919 124.118C134.158 123.98 134.464 124.062 134.602 124.301L136.852 128.198C136.99 128.438 136.908 128.743 136.669 128.882C136.43 129.02 136.124 128.938 135.986 128.698L133.736 124.801ZM131.446 125.835C131.207 125.973 131.125 126.279 131.263 126.518L133.263 129.982C133.401 130.221 133.707 130.303 133.946 130.165C134.185 130.027 134.267 129.721 134.129 129.482L132.129 126.018C131.991 125.779 131.685 125.697 131.446 125.835ZM128.915 128.451C128.777 128.212 128.859 127.906 129.098 127.768C129.337 127.63 129.643 127.712 129.781 127.951L131.281 130.549C131.419 130.788 131.337 131.094 131.098 131.232C130.859 131.37 130.553 131.288 130.415 131.049L128.915 128.451ZM126.625 129.484C126.386 129.622 126.304 129.928 126.442 130.167L127.692 132.332C127.83 132.572 128.136 132.654 128.375 132.515C128.614 132.377 128.696 132.072 128.558 131.832L127.308 129.667C127.17 129.428 126.864 129.346 126.625 129.484ZM123.969 131.884C123.831 131.645 123.912 131.339 124.152 131.201C124.391 131.063 124.697 131.145 124.835 131.384L125.835 133.116C125.973 133.355 125.891 133.661 125.652 133.799C125.412 133.937 125.107 133.855 124.969 133.616L123.969 131.884ZM121.679 132.917C121.439 133.055 121.357 133.361 121.496 133.6L122.246 134.899C122.384 135.139 122.689 135.221 122.929 135.082C123.168 134.944 123.25 134.639 123.112 134.399L122.362 133.1C122.223 132.861 121.918 132.779 121.679 132.917ZM119.205 134.634C118.966 134.772 118.884 135.078 119.022 135.317L119.522 136.183C119.661 136.422 119.966 136.504 120.205 136.366C120.445 136.228 120.527 135.922 120.388 135.683L119.888 134.817C119.75 134.578 119.445 134.496 119.205 134.634Z" fill="#4C57B9"/>
<path fill-rule="evenodd" clip-rule="evenodd" d="M91 138H95L93 153L91 138Z" fill="#4C57B9"/>
<path fill-rule="evenodd" clip-rule="evenodd" d="M169 94H173L171 109L169 94Z" fill="#4C57B9"/>
<path d="M118.758 149.32C117.789 149.32 116.932 148.94 116.188 148.18C115.448 147.414 115.078 146.513 115.078 145.477C115.078 144.43 115.466 143.529 116.242 142.773C117.023 142.018 117.969 141.641 119.078 141.641C120.188 141.641 121.13 142.021 121.906 142.781C122.688 143.536 123.078 144.435 123.078 145.477C123.078 145.904 123.003 146.331 122.852 146.758C122.706 147.185 122.557 147.505 122.406 147.719L119 153H117.234L119.719 149.156C119.453 149.266 119.133 149.32 118.758 149.32ZM117.375 143.836C116.911 144.294 116.68 144.844 116.68 145.484C116.68 146.12 116.911 146.664 117.375 147.117C117.839 147.57 118.406 147.797 119.078 147.797C119.75 147.797 120.318 147.57 120.781 147.117C121.245 146.664 121.477 146.12 121.477 145.484C121.477 144.844 121.245 144.297 120.781 143.844C120.318 143.385 119.75 143.156 119.078 143.156C118.406 143.156 117.839 143.383 117.375 143.836Z" fill="#4C57B9"/>
<path d="M107.048 92.7969H108.407V104H106.649V95.5234H104.649V94.3203C105.321 94.2474 105.831 94.0885 106.18 93.8438C106.534 93.5938 106.824 93.2448 107.048 92.7969ZM112.874 92.7969H114.234V104H112.476V95.5234H110.476V94.3203C111.148 94.2474 111.658 94.0885 112.007 93.8438C112.361 93.5938 112.65 93.2448 112.874 92.7969Z" fill="#4C57B9"/>
<path d="M133.273 169.797H140.719V171.242L136 181H134.234L138.875 171.398H133.273V169.797Z" fill="#4C57B9"/>
<path d="M88.6881 127.242L93.0085 121.797H94.5319V133H92.7741V124.844L88.6881 129.961L84.61 124.844V133H82.8522V121.797H84.3678L88.6881 127.242ZM103.952 129.719H97.9525C98.0358 130.26 98.3014 130.729 98.7494 131.125C99.2025 131.521 99.7389 131.719 100.359 131.719C100.807 131.719 101.223 131.617 101.609 131.414C101.999 131.211 102.275 131.013 102.437 130.82L102.679 130.523L103.718 131.562C103.687 131.604 103.637 131.664 103.57 131.742C103.507 131.815 103.369 131.943 103.156 132.125C102.942 132.302 102.716 132.461 102.476 132.602C102.236 132.737 101.924 132.865 101.538 132.984C101.158 133.099 100.765 133.156 100.359 133.156C99.2702 133.156 98.3301 132.758 97.5384 131.961C96.752 131.159 96.3587 130.198 96.3587 129.078C96.3587 128 96.7415 127.078 97.5072 126.312C98.278 125.542 99.1999 125.156 100.273 125.156C101.351 125.156 102.247 125.516 102.96 126.234C103.679 126.948 104.038 127.844 104.038 128.922L103.952 129.719ZM100.273 126.523C99.6947 126.523 99.2077 126.695 98.8119 127.039C98.4212 127.378 98.1582 127.818 98.0228 128.359H102.468C102.374 127.818 102.132 127.378 101.742 127.039C101.351 126.695 100.861 126.523 100.273 126.523Z" fill="#4C57B9"/>
<path fill-rule="evenodd" clip-rule="evenodd" d="M179.825 248.835V240.219L184.06 245.624L188.303 240.219V248.835H190.128V237H188.546L184.06 242.752L179.574 237H178V248.835H179.825ZM196.179 249C196.601 249 197.011 248.938 197.408 248.814C197.806 248.691 198.129 248.556 198.377 248.41C198.626 248.264 198.862 248.096 199.083 247.906C199.305 247.717 199.45 247.582 199.517 247.502C199.585 247.422 199.635 247.36 199.667 247.316L198.588 246.219L198.337 246.532C198.169 246.736 197.884 246.945 197.481 247.16C197.078 247.374 196.644 247.481 196.179 247.481C195.535 247.481 194.98 247.272 194.512 246.854C194.044 246.436 193.767 245.941 193.68 245.369H199.911L200 244.527C200 243.388 199.628 242.44 198.885 241.684C198.141 240.927 197.211 240.549 196.094 240.549C194.977 240.549 194.02 240.955 193.222 241.766C192.424 242.578 192.025 243.553 192.025 244.692C192.025 245.875 192.435 246.889 193.254 247.733C194.074 248.578 195.049 249 196.179 249ZM193.753 243.933H198.369C198.272 243.36 198.021 242.894 197.615 242.534C197.209 242.173 196.701 241.993 196.09 241.993C195.489 241.993 194.985 242.173 194.577 242.534C194.168 242.894 193.894 243.36 193.753 243.933Z" fill="#4C57B9"/>
<path d="M166.688 82.2422L171.008 76.7969H172.532V88H170.774V79.8438L166.688 84.9609L162.61 79.8438V88H160.852V76.7969H162.368L166.688 82.2422ZM181.952 84.7188H175.952C176.036 85.2604 176.301 85.7292 176.749 86.125C177.202 86.5208 177.739 86.7188 178.359 86.7188C178.807 86.7188 179.223 86.6172 179.609 86.4141C179.999 86.2109 180.275 86.013 180.437 85.8203L180.679 85.5234L181.718 86.5625C181.687 86.6042 181.637 86.6641 181.57 86.7422C181.507 86.8151 181.369 86.9427 181.156 87.125C180.942 87.3021 180.716 87.4609 180.476 87.6016C180.236 87.737 179.924 87.8646 179.538 87.9844C179.158 88.099 178.765 88.1562 178.359 88.1562C177.27 88.1562 176.33 87.7578 175.538 86.9609C174.752 86.1589 174.359 85.1979 174.359 84.0781C174.359 83 174.742 82.0781 175.507 81.3125C176.278 80.5417 177.2 80.1562 178.273 80.1562C179.351 80.1562 180.247 80.5156 180.96 81.2344C181.679 81.9479 182.038 82.8438 182.038 83.9219L181.952 84.7188ZM178.273 81.5234C177.695 81.5234 177.208 81.6953 176.812 82.0391C176.421 82.3776 176.158 82.8177 176.023 83.3594H180.468C180.374 82.8177 180.132 82.3776 179.742 82.0391C179.351 81.6953 178.861 81.5234 178.273 81.5234Z" fill="#4C57B9"/>
<rect x="168" y="199" width="2" height="35" rx="1" fill="#4C57B9"/>
<path fill-rule="evenodd" clip-rule="evenodd" d="M175 243C175 239.686 172.314 237 169 237C165.686 237 163 239.686 163 243C163 246.314 165.686 249 169 249C172.314 249 175 246.314 175 243ZM165 243C165 240.791 166.791 239 169 239C171.209 239 173 240.791 173 243C173 245.209 171.209 247 169 247C166.791 247 165 245.209 165 243Z" fill="#4C57B9"/>
<path d="M158.5 124C158.5 148.024 139.024 167.5 115 167.5C90.9756 167.5 71.5 148.024 71.5 124C71.5 99.9756 90.9756 80.5 115 80.5C139.024 80.5 158.5 99.9756 158.5 124Z" stroke="#E30404" stroke-width="3"/>
<path d="M232.5 211C232.5 237.786 210.786 259.5 184 259.5C157.214 259.5 135.5 237.786 135.5 211C135.5 184.214 157.214 162.5 184 162.5C210.786 162.5 232.5 184.214 232.5 211Z" stroke="#E30404" stroke-width="3"/>
</svg>
