<svg width="350" height="162" viewBox="0 0 350 162" fill="none" xmlns="http://www.w3.org/2000/svg">
<rect x="1" y="1" width="348" height="160" rx="19" fill="white" fill-opacity="0.4" stroke="#4C57B9" stroke-width="2"/>
<path fill-rule="evenodd" clip-rule="evenodd" d="M42 95C42 95 47.3571 120 67 120C86.6429 120 92 95 92 95H42Z" fill="#EDC41F"/>
<path fill-rule="evenodd" clip-rule="evenodd" d="M114 95C114 95 119.357 120 139 120C158.643 120 164 95 164 95H114Z" fill="#32AD28"/>
<path fill-rule="evenodd" clip-rule="evenodd" d="M186 95C186 95 191.357 120 211 120C230.643 120 236 95 236 95H186Z" fill="#D73030"/>
<path fill-rule="evenodd" clip-rule="evenodd" d="M258 95C258 95 263.357 120 283 120C302.643 120 308 95 308 95H258Z" fill="#38BEBD"/>
<path d="M307.82 96H349V142C349 152.493 340.493 161 330 161H20C9.50659 161 1 152.493 1 142V96H42.1797C42.1969 96.0789 42.2155 96.163 42.2356 96.2519C42.3887 96.9289 42.6292 97.8905 42.9811 99.0422C43.6838 101.342 44.8363 104.418 46.6362 107.504C50.2374 113.677 56.5127 120 67 120C77.4873 120 83.7626 113.677 87.3638 107.504C89.1637 104.418 90.3162 101.342 91.0189 99.0422C91.3708 97.8905 91.6113 96.9289 91.7644 96.2519C91.7845 96.163 91.8031 96.0789 91.8203 96H114.18C114.197 96.0789 114.215 96.163 114.236 96.2519C114.389 96.9289 114.629 97.8905 114.981 99.0422C115.684 101.342 116.836 104.418 118.636 107.504C122.237 113.677 128.513 120 139 120C149.487 120 155.763 113.677 159.364 107.504C161.164 104.418 162.316 101.342 163.019 99.0422C163.371 97.8905 163.611 96.9289 163.764 96.2519C163.785 96.163 163.803 96.0789 163.82 96H186.18C186.197 96.0789 186.215 96.163 186.236 96.2519C186.389 96.9289 186.629 97.8905 186.981 99.0422C187.684 101.342 188.836 104.418 190.636 107.504C194.237 113.677 200.513 120 211 120C221.487 120 227.763 113.677 231.364 107.504C233.164 104.418 234.316 101.342 235.019 99.0422C235.371 97.8905 235.611 96.9289 235.764 96.2519C235.785 96.163 235.803 96.0789 235.82 96H258.18C258.197 96.0789 258.215 96.163 258.236 96.2519C258.389 96.9289 258.629 97.8905 258.981 99.0422C259.684 101.342 260.836 104.418 262.636 107.504C266.237 113.677 272.513 120 283 120C293.487 120 299.763 113.677 303.364 107.504C305.164 104.418 306.316 101.342 307.019 99.0422C307.371 97.8905 307.611 96.9289 307.764 96.2519C307.785 96.163 307.803 96.0789 307.82 96Z" fill="white" fill-opacity="0.4" stroke="#4C57B9" stroke-width="2"/>
<path d="M126.555 29.2207C127.193 29.2207 127.806 29.3057 128.392 29.4756C128.978 29.6396 129.461 29.8418 129.842 30.082C130.229 30.3223 130.565 30.5596 130.853 30.7939C131.14 31.0283 131.351 31.2305 131.485 31.4004L131.679 31.6465L130.422 32.9121C130.387 32.8652 130.334 32.8008 130.264 32.7188C130.199 32.6309 130.047 32.4756 129.807 32.2529C129.566 32.0303 129.309 31.8398 129.033 31.6816C128.758 31.5176 128.397 31.3682 127.952 31.2334C127.513 31.0928 127.047 31.0225 126.555 31.0225C125.248 31.0225 124.141 31.4766 123.232 32.3848C122.324 33.2871 121.87 34.3916 121.87 35.6982C121.87 37.0049 122.321 38.1123 123.224 39.0205C124.132 39.9287 125.242 40.3828 126.555 40.3828C127.047 40.3828 127.516 40.3154 127.961 40.1807C128.412 40.04 128.784 39.873 129.077 39.6797C129.376 39.4863 129.637 39.2959 129.859 39.1084C130.088 38.915 130.258 38.751 130.369 38.6162L130.51 38.3965L131.775 39.6621C131.729 39.7324 131.655 39.8262 131.556 39.9434C131.462 40.0547 131.248 40.2539 130.914 40.541C130.586 40.8281 130.234 41.083 129.859 41.3057C129.49 41.5283 129.004 41.7305 128.4 41.9121C127.803 42.0879 127.188 42.1758 126.555 42.1758C124.668 42.1758 123.086 41.5488 121.809 40.2949C120.531 39.041 119.893 37.5088 119.893 35.6982C119.893 33.8877 120.531 32.3555 121.809 31.1016C123.086 29.8477 124.668 29.2207 126.555 29.2207ZM141.663 38.3086H134.913C135.007 38.918 135.306 39.4453 135.81 39.8906C136.319 40.3359 136.923 40.5586 137.62 40.5586C138.124 40.5586 138.593 40.4443 139.026 40.2158C139.466 39.9873 139.776 39.7646 139.958 39.5479L140.23 39.2139L141.399 40.3828C141.364 40.4297 141.309 40.4971 141.232 40.585C141.162 40.667 141.007 40.8105 140.767 41.0156C140.526 41.2148 140.271 41.3936 140.002 41.5518C139.732 41.7041 139.381 41.8477 138.947 41.9824C138.52 42.1113 138.077 42.1758 137.62 42.1758C136.396 42.1758 135.338 41.7275 134.447 40.8311C133.562 39.9287 133.12 38.8477 133.12 37.5879C133.12 36.375 133.551 35.3379 134.412 34.4766C135.279 33.6094 136.316 33.1758 137.523 33.1758C138.736 33.1758 139.744 33.5801 140.547 34.3887C141.355 35.1914 141.76 36.1992 141.76 37.4121L141.663 38.3086ZM137.523 34.7139C136.873 34.7139 136.325 34.9072 135.88 35.2939C135.44 35.6748 135.145 36.1699 134.992 36.7793H139.993C139.888 36.1699 139.615 35.6748 139.176 35.2939C138.736 34.9072 138.186 34.7139 137.523 34.7139ZM144.722 33.3604H151.384V42H149.582V34.9775H146.523V35.8828C146.523 37.5293 146.392 38.8301 146.128 39.7852C145.87 40.7344 145.536 41.3701 145.126 41.6924C144.722 42.0146 144.197 42.1758 143.553 42.1758C143.395 42.1758 143.225 42.1611 143.043 42.1318C142.867 42.1025 142.729 42.0703 142.63 42.0352L142.472 42V40.2861C142.712 40.3447 142.92 40.377 143.096 40.3828C143.465 40.3828 143.755 40.2832 143.966 40.084C144.183 39.8848 144.361 39.4453 144.502 38.7656C144.648 38.0801 144.722 37.1191 144.722 35.8828V33.3604ZM161.913 38.3086H155.163C155.257 38.918 155.556 39.4453 156.06 39.8906C156.569 40.3359 157.173 40.5586 157.87 40.5586C158.374 40.5586 158.843 40.4443 159.276 40.2158C159.716 39.9873 160.026 39.7646 160.208 39.5479L160.48 39.2139L161.649 40.3828C161.614 40.4297 161.559 40.4971 161.482 40.585C161.412 40.667 161.257 40.8105 161.017 41.0156C160.776 41.2148 160.521 41.3936 160.252 41.5518C159.982 41.7041 159.631 41.8477 159.197 41.9824C158.77 42.1113 158.327 42.1758 157.87 42.1758C156.646 42.1758 155.588 41.7275 154.697 40.8311C153.812 39.9287 153.37 38.8477 153.37 37.5879C153.37 36.375 153.801 35.3379 154.662 34.4766C155.529 33.6094 156.566 33.1758 157.773 33.1758C158.986 33.1758 159.994 33.5801 160.797 34.3887C161.605 35.1914 162.01 36.1992 162.01 37.4121L161.913 38.3086ZM157.773 34.7139C157.123 34.7139 156.575 34.9072 156.13 35.2939C155.69 35.6748 155.395 36.1699 155.242 36.7793H160.243C160.138 36.1699 159.865 35.6748 159.426 35.2939C158.986 34.9072 158.436 34.7139 157.773 34.7139ZM171.634 33.3604L168.303 36.9639L171.897 42H169.92L167.134 38.1328L165.78 39.5742V42H163.979V33.3604H165.78V37.2275L169.472 33.3604H171.634ZM172.434 34.9775V33.3604H180.168V34.9775H177.197V42H175.404V34.9775H172.434ZM188.087 33.3604H189.704V42H187.902V36.3311L183.402 42H181.785V33.3604H183.587V39.0293L188.087 33.3604ZM192.227 33.3604H196.366C197.192 33.3604 197.849 33.5742 198.335 34.002C198.821 34.4238 199.064 34.96 199.064 35.6104C199.064 35.9795 198.982 36.3164 198.818 36.6211C198.66 36.9199 198.496 37.1279 198.326 37.2451L198.08 37.4121C198.115 37.4238 198.165 37.4443 198.229 37.4736C198.294 37.5029 198.411 37.5791 198.581 37.7021C198.751 37.8193 198.897 37.9512 199.021 38.0977C199.149 38.2383 199.264 38.4316 199.363 38.6777C199.469 38.9238 199.521 39.1904 199.521 39.4775C199.521 40.2217 199.255 40.8281 198.722 41.2969C198.194 41.7656 197.471 42 196.551 42H192.227V33.3604ZM196.551 38.1328H194.028V40.4707H196.551C196.908 40.4707 197.192 40.3652 197.403 40.1543C197.614 39.9434 197.72 39.6592 197.72 39.3018C197.72 38.9795 197.611 38.7041 197.395 38.4756C197.178 38.2471 196.896 38.1328 196.551 38.1328ZM197.025 36.4453C197.189 36.2871 197.271 36.0703 197.271 35.7949C197.271 35.5137 197.189 35.2939 197.025 35.1357C196.861 34.9717 196.642 34.8896 196.366 34.8896H194.028V36.6914H196.366C196.642 36.6914 196.861 36.6094 197.025 36.4453ZM203.292 38.3965V42H201.49V33.3604H203.292V36.7793H207.52V33.3604H209.321V42H207.52V38.3965H203.292ZM217.706 39.7236C218.239 39.167 218.506 38.4873 218.506 37.6846C218.506 36.876 218.239 36.1934 217.706 35.6367C217.173 35.0801 216.54 34.8018 215.808 34.8018C215.075 34.8018 214.439 35.0801 213.9 35.6367C213.367 36.1934 213.101 36.876 213.101 37.6846C213.101 38.4873 213.367 39.167 213.9 39.7236C214.439 40.2803 215.075 40.5586 215.808 40.5586C216.54 40.5586 217.173 40.2803 217.706 39.7236ZM212.652 40.8311C211.756 39.9404 211.308 38.8916 211.308 37.6846C211.308 36.4717 211.753 35.417 212.644 34.5205C213.54 33.624 214.595 33.1758 215.808 33.1758C217.021 33.1758 218.072 33.624 218.963 34.5205C219.859 35.417 220.308 36.4717 220.308 37.6846C220.308 38.8916 219.859 39.9434 218.963 40.8398C218.072 41.7305 217.021 42.1758 215.808 42.1758C214.595 42.1758 213.543 41.7275 212.652 40.8311ZM230.292 38.3086H223.542C223.636 38.918 223.935 39.4453 224.438 39.8906C224.948 40.3359 225.552 40.5586 226.249 40.5586C226.753 40.5586 227.222 40.4443 227.655 40.2158C228.095 39.9873 228.405 39.7646 228.587 39.5479L228.859 39.2139L230.028 40.3828C229.993 40.4297 229.938 40.4971 229.861 40.585C229.791 40.667 229.636 40.8105 229.396 41.0156C229.155 41.2148 228.9 41.3936 228.631 41.5518C228.361 41.7041 228.01 41.8477 227.576 41.9824C227.148 42.1113 226.706 42.1758 226.249 42.1758C225.024 42.1758 223.967 41.7275 223.076 40.8311C222.191 39.9287 221.749 38.8477 221.749 37.5879C221.749 36.375 222.18 35.3379 223.041 34.4766C223.908 33.6094 224.945 33.1758 226.152 33.1758C227.365 33.1758 228.373 33.5801 229.176 34.3887C229.984 35.1914 230.389 36.1992 230.389 37.4121L230.292 38.3086ZM226.152 34.7139C225.502 34.7139 224.954 34.9072 224.509 35.2939C224.069 35.6748 223.773 36.1699 223.621 36.7793H228.622C228.517 36.1699 228.244 35.6748 227.805 35.2939C227.365 34.9072 226.814 34.7139 226.152 34.7139ZM107.324 54.3604H111.464C112.29 54.3604 112.946 54.5742 113.433 55.002C113.919 55.4238 114.162 55.96 114.162 56.6104C114.162 56.9795 114.08 57.3164 113.916 57.6211C113.758 57.9199 113.594 58.1279 113.424 58.2451L113.178 58.4121C113.213 58.4238 113.263 58.4443 113.327 58.4736C113.392 58.5029 113.509 58.5791 113.679 58.7021C113.849 58.8193 113.995 58.9512 114.118 59.0977C114.247 59.2383 114.361 59.4316 114.461 59.6777C114.566 59.9238 114.619 60.1904 114.619 60.4775C114.619 61.2217 114.353 61.8281 113.819 62.2969C113.292 62.7656 112.568 63 111.648 63H107.324V54.3604ZM111.648 59.1328H109.126V61.4707H111.648C112.006 61.4707 112.29 61.3652 112.501 61.1543C112.712 60.9434 112.817 60.6592 112.817 60.3018C112.817 59.9795 112.709 59.7041 112.492 59.4756C112.275 59.2471 111.994 59.1328 111.648 59.1328ZM112.123 57.4453C112.287 57.2871 112.369 57.0703 112.369 56.7949C112.369 56.5137 112.287 56.2939 112.123 56.1357C111.959 55.9717 111.739 55.8896 111.464 55.8896H109.126V57.6914H111.464C111.739 57.6914 111.959 57.6094 112.123 57.4453ZM122.345 56.6104C122.345 57.0088 122.233 57.3574 122.011 57.6562C121.794 57.9551 121.571 58.1514 121.343 58.2451L121 58.4121C121.047 58.4238 121.108 58.4443 121.185 58.4736C121.267 58.5029 121.401 58.5732 121.589 58.6846C121.782 58.79 121.952 58.9189 122.099 59.0713C122.251 59.2178 122.389 59.4229 122.512 59.6865C122.641 59.9502 122.705 60.2461 122.705 60.5742C122.705 61.2949 122.383 61.9102 121.738 62.4199C121.1 62.9238 120.224 63.1758 119.11 63.1758C118.688 63.1758 118.281 63.123 117.889 63.0176C117.502 62.9121 117.18 62.7861 116.922 62.6396C116.664 62.4932 116.438 62.3467 116.245 62.2002C116.052 62.0479 115.908 61.9189 115.814 61.8135L115.691 61.6465L116.86 60.4775C116.931 60.5596 117.024 60.6621 117.142 60.7852C117.265 60.9082 117.522 61.0693 117.915 61.2686C118.313 61.4619 118.712 61.5586 119.11 61.5586C119.708 61.5586 120.156 61.4473 120.455 61.2246C120.76 61.002 120.912 60.7236 120.912 60.3896C120.912 60.0557 120.76 59.7773 120.455 59.5547C120.156 59.332 119.708 59.2207 119.11 59.2207H118.117V57.7793H119.11C119.579 57.7793 119.937 57.6885 120.183 57.5068C120.429 57.3193 120.552 57.082 120.552 56.7949C120.552 56.502 120.429 56.2646 120.183 56.083C119.937 55.8955 119.579 55.8018 119.11 55.8018C118.765 55.8018 118.425 55.8691 118.091 56.0039C117.763 56.1328 117.52 56.2676 117.361 56.4082L117.133 56.6104L115.955 55.4414C116.037 55.3477 116.157 55.2305 116.315 55.0898C116.474 54.9492 116.825 54.7617 117.37 54.5273C117.915 54.293 118.495 54.1758 119.11 54.1758C120.106 54.1758 120.895 54.416 121.475 54.8965C122.055 55.377 122.345 55.9482 122.345 56.6104ZM131.626 63H129.824V62.1035C129.801 62.127 129.76 62.165 129.701 62.2178C129.648 62.2705 129.537 62.3584 129.367 62.4814C129.203 62.5986 129.024 62.707 128.831 62.8066C128.638 62.9004 128.395 62.9854 128.102 63.0615C127.809 63.1377 127.513 63.1758 127.214 63.1758C126.335 63.1758 125.605 62.9209 125.025 62.4111C124.445 61.9014 124.155 61.3184 124.155 60.6621C124.155 59.9531 124.378 59.3584 124.823 58.8779C125.274 58.3975 125.89 58.0928 126.669 57.9639L129.824 57.4189C129.824 56.9619 129.654 56.5781 129.314 56.2676C128.98 55.957 128.55 55.8018 128.022 55.8018C127.565 55.8018 127.149 55.8984 126.774 56.0918C126.405 56.2793 126.15 56.4697 126.01 56.6631L125.772 56.9707L124.604 55.8018C124.639 55.7549 124.686 55.6963 124.744 55.626C124.809 55.5498 124.946 55.4209 125.157 55.2393C125.374 55.0518 125.603 54.8848 125.843 54.7383C126.083 54.5918 126.399 54.4629 126.792 54.3516C127.19 54.2344 127.601 54.1758 128.022 54.1758C129.077 54.1758 129.941 54.4893 130.615 55.1162C131.289 55.7373 131.626 56.5049 131.626 57.4189V63ZM127.486 61.5586C128.219 61.5586 128.79 61.3418 129.2 60.9082C129.616 60.4688 129.824 59.8447 129.824 59.0361V58.8604L127.029 59.3086C126.707 59.3672 126.446 59.499 126.247 59.7041C126.048 59.9092 125.948 60.167 125.948 60.4775C125.948 60.7646 126.086 61.0166 126.361 61.2334C126.643 61.4502 127.018 61.5586 127.486 61.5586ZM140.45 54.3604H142.067V63H140.266V57.3311L135.766 63H134.148V54.3604H135.95V60.0293L140.45 54.3604ZM149.178 58.1396L152.333 54.3604H153.774V63H151.973V57.3311L149.178 60.6621L146.392 57.3311V63H144.59V54.3604H146.031L149.178 58.1396ZM162.159 60.7236C162.692 60.167 162.959 59.4873 162.959 58.6846C162.959 57.876 162.692 57.1934 162.159 56.6367C161.626 56.0801 160.993 55.8018 160.261 55.8018C159.528 55.8018 158.893 56.0801 158.354 56.6367C157.82 57.1934 157.554 57.876 157.554 58.6846C157.554 59.4873 157.82 60.167 158.354 60.7236C158.893 61.2803 159.528 61.5586 160.261 61.5586C160.993 61.5586 161.626 61.2803 162.159 60.7236ZM157.105 61.8311C156.209 60.9404 155.761 59.8916 155.761 58.6846C155.761 57.4717 156.206 56.417 157.097 55.5205C157.993 54.624 159.048 54.1758 160.261 54.1758C161.474 54.1758 162.525 54.624 163.416 55.5205C164.312 56.417 164.761 57.4717 164.761 58.6846C164.761 59.8916 164.312 60.9434 163.416 61.8398C162.525 62.7305 161.474 63.1758 160.261 63.1758C159.048 63.1758 157.996 62.7275 157.105 61.8311ZM165.481 61.3828H166.105C166.141 61.3477 166.19 61.292 166.255 61.2158C166.325 61.1338 166.442 60.9551 166.606 60.6797C166.776 60.4043 166.923 60.1084 167.046 59.792C167.175 59.4697 167.289 59.0479 167.389 58.5264C167.494 58.0049 167.547 57.457 167.547 56.8828V54.3604H173.849V61.3828H175.105V65.1621H173.312V63H167.283V65.1621H165.481V61.3828ZM169.349 55.9775V56.8828C169.349 57.457 169.299 58.002 169.199 58.5176C169.105 59.0332 168.985 59.4609 168.839 59.8008C168.698 60.1348 168.555 60.4248 168.408 60.6709C168.268 60.917 168.15 61.0928 168.057 61.1982L167.907 61.3828H172.047V55.9775H169.349ZM184.923 59.3086H178.173C178.267 59.918 178.565 60.4453 179.069 60.8906C179.579 61.3359 180.183 61.5586 180.88 61.5586C181.384 61.5586 181.853 61.4443 182.286 61.2158C182.726 60.9873 183.036 60.7646 183.218 60.5479L183.49 60.2139L184.659 61.3828C184.624 61.4297 184.568 61.4971 184.492 61.585C184.422 61.667 184.267 61.8105 184.026 62.0156C183.786 62.2148 183.531 62.3936 183.262 62.5518C182.992 62.7041 182.641 62.8477 182.207 62.9824C181.779 63.1113 181.337 63.1758 180.88 63.1758C179.655 63.1758 178.598 62.7275 177.707 61.8311C176.822 60.9287 176.38 59.8477 176.38 58.5879C176.38 57.375 176.811 56.3379 177.672 55.4766C178.539 54.6094 179.576 54.1758 180.783 54.1758C181.996 54.1758 183.004 54.5801 183.807 55.3887C184.615 56.1914 185.02 57.1992 185.02 58.4121L184.923 59.3086ZM180.783 55.7139C180.133 55.7139 179.585 55.9072 179.14 56.2939C178.7 56.6748 178.404 57.1699 178.252 57.7793H183.253C183.147 57.1699 182.875 56.6748 182.436 56.2939C181.996 55.9072 181.445 55.7139 180.783 55.7139ZM193.29 54.3604H194.907V63H193.105V57.3311L188.605 63H186.988V54.3604H188.79V60.0293L193.29 54.3604ZM190.047 51.293C190.287 51.5391 190.586 51.6621 190.943 51.6621C191.307 51.6621 191.608 51.542 191.849 51.3018C192.089 51.0615 192.209 50.7598 192.209 50.3965H193.562C193.562 51.1172 193.316 51.7178 192.824 52.1982C192.332 52.6787 191.708 52.9189 190.952 52.9189C190.196 52.9189 189.572 52.6787 189.08 52.1982C188.588 51.7178 188.342 51.1172 188.342 50.3965H189.687C189.687 50.7539 189.807 51.0527 190.047 51.293ZM198.238 61.8311C197.342 60.9404 196.894 59.8916 196.894 58.6846C196.894 57.4717 197.339 56.417 198.229 55.5205C199.126 54.624 200.181 54.1758 201.394 54.1758C202.067 54.1758 202.694 54.3223 203.274 54.6152C203.854 54.9023 204.271 55.1895 204.522 55.4766L204.9 55.8896L203.731 57.0586C203.673 56.9648 203.582 56.8506 203.459 56.7158C203.342 56.5752 203.081 56.3877 202.677 56.1533C202.278 55.9189 201.851 55.8018 201.394 55.8018C200.661 55.8018 200.025 56.0801 199.486 56.6367C198.953 57.1934 198.687 57.876 198.687 58.6846C198.687 59.4873 198.953 60.167 199.486 60.7236C200.025 61.2803 200.661 61.5586 201.394 61.5586C201.851 61.5586 202.278 61.4443 202.677 61.2158C203.081 60.9873 203.371 60.7646 203.547 60.5479L203.819 60.2139L204.988 61.3828C204.953 61.4297 204.9 61.4971 204.83 61.585C204.76 61.667 204.607 61.8105 204.373 62.0156C204.139 62.2148 203.893 62.3936 203.635 62.5518C203.377 62.7041 203.043 62.8477 202.633 62.9824C202.223 63.1113 201.81 63.1758 201.394 63.1758C200.181 63.1758 199.129 62.7275 198.238 61.8311ZM205.885 55.9775V54.3604H213.619V55.9775H210.648V63H208.855V55.9775H205.885ZM215.236 54.3604H219.376C220.202 54.3604 220.858 54.5742 221.345 55.002C221.831 55.4238 222.074 55.96 222.074 56.6104C222.074 56.9795 221.992 57.3164 221.828 57.6211C221.67 57.9199 221.506 58.1279 221.336 58.2451L221.09 58.4121C221.125 58.4238 221.175 58.4443 221.239 58.4736C221.304 58.5029 221.421 58.5791 221.591 58.7021C221.761 58.8193 221.907 58.9512 222.03 59.0977C222.159 59.2383 222.273 59.4316 222.373 59.6777C222.479 59.9238 222.531 60.1904 222.531 60.4775C222.531 61.2217 222.265 61.8281 221.731 62.2969C221.204 62.7656 220.48 63 219.561 63H215.236V54.3604ZM219.561 59.1328H217.038V61.4707H219.561C219.918 61.4707 220.202 61.3652 220.413 61.1543C220.624 60.9434 220.729 60.6592 220.729 60.3018C220.729 59.9795 220.621 59.7041 220.404 59.4756C220.188 59.2471 219.906 59.1328 219.561 59.1328ZM220.035 57.4453C220.199 57.2871 220.281 57.0703 220.281 56.7949C220.281 56.5137 220.199 56.2939 220.035 56.1357C219.871 55.9717 219.651 55.8896 219.376 55.8896H217.038V57.6914H219.376C219.651 57.6914 219.871 57.6094 220.035 57.4453ZM230.802 54.3604H232.419V63H230.617V57.3311L226.117 63H224.5V54.3604H226.302V60.0293L230.802 54.3604ZM242.948 59.3086H236.198C236.292 59.918 236.591 60.4453 237.095 60.8906C237.604 61.3359 238.208 61.5586 238.905 61.5586C239.409 61.5586 239.878 61.4443 240.312 61.2158C240.751 60.9873 241.062 60.7646 241.243 60.5479L241.516 60.2139L242.685 61.3828C242.649 61.4297 242.594 61.4971 242.518 61.585C242.447 61.667 242.292 61.8105 242.052 62.0156C241.812 62.2148 241.557 62.3936 241.287 62.5518C241.018 62.7041 240.666 62.8477 240.232 62.9824C239.805 63.1113 239.362 63.1758 238.905 63.1758C237.681 63.1758 236.623 62.7275 235.732 61.8311C234.848 60.9287 234.405 59.8477 234.405 58.5879C234.405 57.375 234.836 56.3379 235.697 55.4766C236.564 54.6094 237.602 54.1758 238.809 54.1758C240.021 54.1758 241.029 54.5801 241.832 55.3887C242.641 56.1914 243.045 57.1992 243.045 58.4121L242.948 59.3086ZM238.809 55.7139C238.158 55.7139 237.61 55.9072 237.165 56.2939C236.726 56.6748 236.43 57.1699 236.277 57.7793H241.278C241.173 57.1699 240.9 56.6748 240.461 56.2939C240.021 55.9072 239.471 55.7139 238.809 55.7139Z" fill="black"/>
<path d="M77.5 95C77.5 100.799 72.799 105.5 67 105.5C61.201 105.5 56.5 100.799 56.5 95C56.5 89.201 61.201 84.5 67 84.5C72.799 84.5 77.5 89.201 77.5 95Z" fill="#EDC41F" stroke="white"/>
</svg>
