<svg width="350" height="210" viewBox="0 0 350 210" fill="none" xmlns="http://www.w3.org/2000/svg">
<path d="M175 208.754L3.02309 81H30H31V80V1H319V80V81H320H346.977L175 208.754Z" fill="#2E55E2" fill-opacity="0.4" stroke="#2E55E2" stroke-width="2"/>
<path d="M77.918 55H70.3008V38.1953H77.5078C79.0312 38.1953 80.2891 38.6406 81.2812 39.5312C82.2812 40.4219 82.7812 41.457 82.7812 42.6367C82.7812 43.082 82.7188 43.5078 82.5938 43.9141C82.4688 44.3125 82.3086 44.6445 82.1133 44.9102C81.918 45.1758 81.7227 45.4062 81.5273 45.6016C81.3398 45.7891 81.1836 45.9219 81.0586 46L80.8594 46.1172C80.9375 46.1484 81.0352 46.1953 81.1523 46.2578C81.2773 46.3125 81.5 46.457 81.8203 46.6914C82.1406 46.918 82.4219 47.168 82.6641 47.4414C82.9062 47.7148 83.125 48.0898 83.3203 48.5664C83.5234 49.0352 83.625 49.5391 83.625 50.0781C83.625 51.4219 83.0898 52.5781 82.0195 53.5469C80.9492 54.5156 79.582 55 77.918 55ZM73.9102 52H77.7422C78.3984 52 78.9414 51.793 79.3711 51.3789C79.8086 50.9648 80.0273 50.4531 80.0273 49.8438C80.0273 49.2344 79.8086 48.7227 79.3711 48.3086C78.9414 47.8867 78.3984 47.6758 77.7422 47.6758H73.9102V52ZM77.2617 41.1953H73.9102V44.8047H77.2617C77.8555 44.8047 78.3242 44.6406 78.668 44.3125C79.0117 43.9844 79.1836 43.5469 79.1836 43C79.1836 42.4531 79.0117 42.0156 78.668 41.6875C78.3242 41.3594 77.8555 41.1953 77.2617 41.1953ZM87.4336 53.3945C86.1758 52.1758 85.5469 50.75 85.5469 49.1172C85.5469 47.4844 86.1758 46.0586 87.4336 44.8398C88.6914 43.6133 90.1836 43 91.9102 43C92.5195 43 93.0977 43.0859 93.6445 43.2578C94.1992 43.4219 94.6523 43.6211 95.0039 43.8555C95.3555 44.082 95.668 44.3125 95.9414 44.5469C96.2148 44.7812 96.4141 44.9844 96.5391 45.1562L96.7148 45.4023L94.6758 47.4414C94.6133 47.332 94.5078 47.1875 94.3594 47.0078C94.2188 46.8281 93.9062 46.5977 93.4219 46.3164C92.9453 46.0273 92.4414 45.8828 91.9102 45.8828C91.0586 45.8828 90.3242 46.1992 89.707 46.832C89.0977 47.4648 88.793 48.2305 88.793 49.1289C88.793 50.0195 89.1016 50.7812 89.7188 51.4141C90.3359 52.0469 91.0664 52.3633 91.9102 52.3633C92.4414 52.3633 92.9453 52.2344 93.4219 51.9766C93.9062 51.7188 94.2578 51.4609 94.4766 51.2031L94.793 50.8047L96.7148 52.8438C96.668 52.9062 96.6016 52.9961 96.5156 53.1133C96.4375 53.2227 96.25 53.4141 95.9531 53.6875C95.6562 53.9531 95.3359 54.1914 94.9922 54.4023C94.6484 54.6055 94.1992 54.7969 93.6445 54.9766C93.0977 55.1484 92.5195 55.2344 91.9102 55.2344C90.1836 55.2344 88.6914 54.6211 87.4336 53.3945ZM110.039 50.1953H101.52C101.645 50.8359 101.984 51.3789 102.539 51.8242C103.094 52.2617 103.793 52.4805 104.637 52.4805C105.246 52.4805 105.809 52.3633 106.324 52.1289C106.848 51.8867 107.215 51.6445 107.426 51.4023L107.766 51.0391L109.441 53.1953L109.23 53.4062C109.129 53.5078 108.918 53.6758 108.598 53.9102C108.277 54.1445 107.938 54.3555 107.578 54.543C107.219 54.7227 106.75 54.8828 106.172 55.0234C105.602 55.1641 105.012 55.2344 104.402 55.2344C102.676 55.2344 101.203 54.6367 99.9844 53.4414C98.7656 52.2383 98.1562 50.7969 98.1562 49.1172C98.1562 47.4375 98.7578 46 99.9609 44.8047C101.164 43.6016 102.605 43 104.285 43C105.965 43 107.363 43.5625 108.48 44.6875C109.598 45.8047 110.156 47.2031 110.156 48.8828L110.039 50.1953ZM106.031 46.375C105.555 45.9688 104.973 45.7656 104.285 45.7656C103.598 45.7656 103.012 45.9648 102.527 46.3633C102.051 46.7617 101.715 47.2812 101.52 47.9219H106.922C106.797 47.2969 106.5 46.7812 106.031 46.375ZM118.652 53.3945C117.395 52.1758 116.766 50.75 116.766 49.1172C116.766 47.4844 117.395 46.0586 118.652 44.8398C119.91 43.6133 121.402 43 123.129 43C123.738 43 124.316 43.0859 124.863 43.2578C125.418 43.4219 125.871 43.6211 126.223 43.8555C126.574 44.082 126.887 44.3125 127.16 44.5469C127.434 44.7812 127.633 44.9844 127.758 45.1562L127.934 45.4023L125.895 47.4414C125.832 47.332 125.727 47.1875 125.578 47.0078C125.438 46.8281 125.125 46.5977 124.641 46.3164C124.164 46.0273 123.66 45.8828 123.129 45.8828C122.277 45.8828 121.543 46.1992 120.926 46.832C120.316 47.4648 120.012 48.2305 120.012 49.1289C120.012 50.0195 120.32 50.7812 120.938 51.4141C121.555 52.0469 122.285 52.3633 123.129 52.3633C123.66 52.3633 124.164 52.2344 124.641 51.9766C125.125 51.7188 125.477 51.4609 125.695 51.2031L126.012 50.8047L127.934 52.8438C127.887 52.9062 127.82 52.9961 127.734 53.1133C127.656 53.2227 127.469 53.4141 127.172 53.6875C126.875 53.9531 126.555 54.1914 126.211 54.4023C125.867 54.6055 125.418 54.7969 124.863 54.9766C124.316 55.1484 123.738 55.2344 123.129 55.2344C121.402 55.2344 119.91 54.6211 118.652 53.3945ZM131.297 43.2344H140.777V55H137.543V46.1172H134.426V46.8438C134.426 49.0391 134.238 50.7852 133.863 52.082C133.496 53.3711 133.02 54.2422 132.434 54.6953C131.855 55.1406 131.117 55.3633 130.219 55.3633C129.93 55.3633 129.645 55.3281 129.363 55.2578C129.09 55.1953 128.887 55.1406 128.754 55.0938L128.543 55V52.1172C128.785 52.1953 129.023 52.2344 129.258 52.2344C129.734 52.2344 130.109 52.1133 130.383 51.8711C130.656 51.6211 130.875 51.0703 131.039 50.2188C131.211 49.3594 131.297 48.1133 131.297 46.4805V43.2344ZM146.66 55.7148L147.023 54.8828L142.465 43.2344H145.828L148.582 51.0391L151.348 43.2344H154.699L150.023 55.7148C148.953 58.5977 147.434 60.0391 145.465 60.0391C145.113 60.0391 144.766 60.0078 144.422 59.9453C144.078 59.8828 143.824 59.8203 143.66 59.7578L143.426 59.6758V56.8047C143.746 56.9609 144.145 57.0391 144.621 57.0391C145.598 57.0391 146.277 56.5977 146.66 55.7148ZM163.336 55V51.0391C162.539 51.6016 161.617 51.8828 160.57 51.8828C159.227 51.8828 158.148 51.457 157.336 50.6055C156.531 49.7461 156.129 48.5703 156.129 47.0781V43.2344H159.375V46.8438C159.375 47.4375 159.559 47.9258 159.926 48.3086C160.293 48.6914 160.75 48.8828 161.297 48.8828C161.68 48.8828 162.043 48.8242 162.387 48.707C162.73 48.582 162.973 48.457 163.113 48.332L163.336 48.1562V43.2344H166.57V55H163.336ZM176.168 55V53.8047C176.074 53.9141 175.941 54.0508 175.77 54.2148C175.605 54.3711 175.242 54.582 174.68 54.8477C174.117 55.1055 173.531 55.2344 172.922 55.2344C171.75 55.2344 170.797 54.9102 170.062 54.2617C169.328 53.6055 168.961 52.8125 168.961 51.8828C168.961 50.9219 169.27 50.1211 169.887 49.4805C170.504 48.8398 171.355 48.4219 172.441 48.2266L176.168 47.5586C176.168 47.0664 175.988 46.6641 175.629 46.3516C175.27 46.0391 174.77 45.8828 174.129 45.8828C173.598 45.8828 173.113 45.9844 172.676 46.1875C172.238 46.3828 171.93 46.5859 171.75 46.7969L171.48 47.0781L169.688 45.2852C169.734 45.2227 169.797 45.1406 169.875 45.0391C169.961 44.9297 170.145 44.7461 170.426 44.4883C170.715 44.2305 171.027 44.0039 171.363 43.8086C171.699 43.6055 172.141 43.4219 172.688 43.2578C173.234 43.0859 173.793 43 174.363 43C175.848 43 177.059 43.4453 177.996 44.3359C178.934 45.2188 179.402 46.332 179.402 47.6758V55H176.168ZM173.766 52.5977C174.5 52.5977 175.082 52.3672 175.512 51.9062C175.949 51.4375 176.168 50.7891 176.168 49.9609V49.5977L173.531 50.0781C172.648 50.2188 172.207 50.6602 172.207 51.4023C172.207 52.1992 172.727 52.5977 173.766 52.5977ZM190.863 43.2344H193.688V55H190.453V48.4023L185.332 55H182.531V43.2344H185.766V49.8438L190.863 43.2344ZM202.887 53.3945C201.629 52.1758 201 50.75 201 49.1172C201 47.4844 201.629 46.0586 202.887 44.8398C204.145 43.6133 205.637 43 207.363 43C207.973 43 208.551 43.0859 209.098 43.2578C209.652 43.4219 210.105 43.6211 210.457 43.8555C210.809 44.082 211.121 44.3125 211.395 44.5469C211.668 44.7812 211.867 44.9844 211.992 45.1562L212.168 45.4023L210.129 47.4414C210.066 47.332 209.961 47.1875 209.812 47.0078C209.672 46.8281 209.359 46.5977 208.875 46.3164C208.398 46.0273 207.895 45.8828 207.363 45.8828C206.512 45.8828 205.777 46.1992 205.16 46.832C204.551 47.4648 204.246 48.2305 204.246 49.1289C204.246 50.0195 204.555 50.7812 205.172 51.4141C205.789 52.0469 206.52 52.3633 207.363 52.3633C207.895 52.3633 208.398 52.2344 208.875 51.9766C209.359 51.7188 209.711 51.4609 209.93 51.2031L210.246 50.8047L212.168 52.8438C212.121 52.9062 212.055 52.9961 211.969 53.1133C211.891 53.2227 211.703 53.4141 211.406 53.6875C211.109 53.9531 210.789 54.1914 210.445 54.4023C210.102 54.6055 209.652 54.7969 209.098 54.9766C208.551 55.1484 207.973 55.2344 207.363 55.2344C205.637 55.2344 204.145 54.6211 202.887 53.3945ZM220.699 52.1172L217.57 48.0391V55H214.336V43.2344H217.09L220.699 47.9219L224.297 43.2344H227.051V55H223.816V48.0391L220.699 52.1172ZM241.336 50.1953H232.816C232.941 50.8359 233.281 51.3789 233.836 51.8242C234.391 52.2617 235.09 52.4805 235.934 52.4805C236.543 52.4805 237.105 52.3633 237.621 52.1289C238.145 51.8867 238.512 51.6445 238.723 51.4023L239.062 51.0391L240.738 53.1953L240.527 53.4062C240.426 53.5078 240.215 53.6758 239.895 53.9102C239.574 54.1445 239.234 54.3555 238.875 54.543C238.516 54.7227 238.047 54.8828 237.469 55.0234C236.898 55.1641 236.309 55.2344 235.699 55.2344C233.973 55.2344 232.5 54.6367 231.281 53.4414C230.062 52.2383 229.453 50.7969 229.453 49.1172C229.453 47.4375 230.055 46 231.258 44.8047C232.461 43.6016 233.902 43 235.582 43C237.262 43 238.66 43.5625 239.777 44.6875C240.895 45.8047 241.453 47.2031 241.453 48.8828L241.336 50.1953ZM237.328 46.375C236.852 45.9688 236.27 45.7656 235.582 45.7656C234.895 45.7656 234.309 45.9648 233.824 46.3633C233.348 46.7617 233.012 47.2812 232.816 47.9219H238.219C238.094 47.2969 237.797 46.7812 237.328 46.375ZM250.582 55.2344C249.91 55.2344 249.281 55.0977 248.695 54.8242C248.117 54.543 247.707 54.2656 247.465 53.9922L247.102 53.5586V60.0391H243.867V43.2344H247.102V44.6758C247.133 44.6289 247.18 44.5703 247.242 44.5C247.312 44.4297 247.453 44.3008 247.664 44.1133C247.883 43.918 248.117 43.7461 248.367 43.5977C248.617 43.4414 248.941 43.3047 249.34 43.1875C249.738 43.0625 250.152 43 250.582 43C252.105 43 253.426 43.5938 254.543 44.7812C255.668 45.9609 256.23 47.4062 256.23 49.1172C256.23 50.8281 255.668 52.2773 254.543 53.4648C253.426 54.6445 252.105 55.2344 250.582 55.2344ZM252.035 46.7852C251.473 46.1836 250.789 45.8828 249.984 45.8828C249.188 45.8828 248.508 46.1875 247.945 46.7969C247.383 47.3984 247.102 48.1719 247.102 49.1172C247.102 50.0625 247.383 50.8398 247.945 51.4492C248.508 52.0586 249.188 52.3633 249.984 52.3633C250.789 52.3633 251.469 52.0586 252.023 51.4492C252.586 50.8398 252.867 50.0625 252.867 49.1172C252.867 48.1719 252.59 47.3945 252.035 46.7852ZM257.426 46.3633V43.2344H268.113V46.3633H264.387V55H261.152V46.3633H257.426ZM278.355 43.2344H281.18V55H277.945V48.4023L272.824 55H270.023V43.2344H273.258V49.8438L278.355 43.2344Z" fill="white"/>
<path d="M136.727 111.688V116H119.922V111.688H136.727ZM162.859 128H140.547C140.547 125.922 140.859 124.039 141.484 122.352C142.109 120.648 142.922 119.234 143.922 118.109C144.938 116.984 146.047 115.953 147.25 115.016C148.469 114.078 149.68 113.227 150.883 112.461C152.086 111.68 153.188 110.914 154.188 110.164C155.203 109.414 156.023 108.539 156.648 107.539C157.273 106.523 157.586 105.422 157.586 104.234C157.586 102.531 157.055 101.188 155.992 100.203C154.945 99.2188 153.477 98.7266 151.586 98.7266C150.664 98.7266 149.797 98.8984 148.984 99.2422C148.188 99.5703 147.562 99.9688 147.109 100.438C146.672 100.891 146.281 101.352 145.938 101.82C145.609 102.289 145.383 102.695 145.258 103.039L145.094 103.531L140.781 101.609C140.844 101.391 140.93 101.109 141.039 100.766C141.164 100.422 141.492 99.8125 142.023 98.9375C142.57 98.0625 143.203 97.2891 143.922 96.6172C144.641 95.9453 145.68 95.3281 147.039 94.7656C148.398 94.2031 149.914 93.9219 151.586 93.9219C154.883 93.9219 157.586 94.9141 159.695 96.8984C161.805 98.8828 162.859 101.328 162.859 104.234C162.859 105.766 162.547 107.188 161.922 108.5C161.297 109.812 160.5 110.914 159.531 111.805C158.578 112.68 157.477 113.586 156.227 114.523C154.992 115.445 153.789 116.289 152.617 117.055C151.445 117.82 150.289 118.742 149.148 119.82C148.023 120.883 147.156 122.008 146.547 123.195H162.859V128ZM189.297 116.469H193.609V121.273H189.297V128H184V121.273H167.688V115.531L182.57 94.3906H189.297V116.469ZM184 116.469V100.391L172.727 116.469H184ZM210.109 96.1016C211.594 97.5547 212.336 99.3047 212.336 101.352C212.336 103.398 211.594 105.156 210.109 106.625C208.625 108.078 206.805 108.805 204.648 108.805C202.508 108.805 200.695 108.078 199.211 106.625C197.727 105.156 196.984 103.398 196.984 101.352C196.984 99.3047 197.727 97.5547 199.211 96.1016C200.695 94.6484 202.508 93.9219 204.648 93.9219C206.805 93.9219 208.625 94.6484 210.109 96.1016ZM201.93 98.6328C201.195 99.3672 200.828 100.281 200.828 101.375C200.828 102.453 201.195 103.359 201.93 104.094C202.664 104.828 203.57 105.195 204.648 105.195C205.742 105.195 206.656 104.828 207.391 104.094C208.125 103.359 208.492 102.453 208.492 101.375C208.492 100.281 208.125 99.3672 207.391 98.6328C206.656 97.8984 205.742 97.5312 204.648 97.5312C203.57 97.5312 202.664 97.8984 201.93 98.6328ZM200.828 128L221.945 94.3906H226.258L205.141 128H200.828ZM216.977 126.289C215.492 124.836 214.75 123.086 214.75 121.039C214.75 118.992 215.492 117.242 216.977 115.789C218.461 114.336 220.273 113.609 222.414 113.609C224.57 113.609 226.391 114.336 227.875 115.789C229.359 117.242 230.102 118.992 230.102 121.039C230.102 123.086 229.359 124.836 227.875 126.289C226.391 127.742 224.57 128.469 222.414 128.469C220.273 128.469 218.461 127.742 216.977 126.289ZM225.156 123.781C225.891 123.047 226.258 122.133 226.258 121.039C226.258 119.945 225.891 119.031 225.156 118.297C224.422 117.562 223.508 117.195 222.414 117.195C221.336 117.195 220.43 117.562 219.695 118.297C218.961 119.031 218.594 119.945 218.594 121.039C218.594 122.133 218.961 123.047 219.695 123.781C220.43 124.516 221.336 124.883 222.414 124.883C223.508 124.883 224.422 124.516 225.156 123.781Z" fill="white"/>
</svg>
