<svg width="350" height="210" viewBox="0 0 350 210" fill="none" xmlns="http://www.w3.org/2000/svg">
<path d="M175 208.754L3.02309 81H30H31V80V1H319V80V81H320H346.977L175 208.754Z" fill="#2E55E2" fill-opacity="0.4" stroke="#2E55E2" stroke-width="2"/>
<path d="M109.945 47H104.867V35.7969H109.672C110.688 35.7969 111.526 36.0938 112.188 36.6875C112.854 37.2812 113.188 37.9714 113.188 38.7578C113.188 39.0547 113.146 39.3385 113.062 39.6094C112.979 39.875 112.872 40.0964 112.742 40.2734C112.612 40.4505 112.482 40.6042 112.352 40.7344C112.227 40.8594 112.122 40.9479 112.039 41L111.906 41.0781C111.958 41.099 112.023 41.1302 112.102 41.1719C112.185 41.2083 112.333 41.3047 112.547 41.4609C112.76 41.612 112.948 41.7786 113.109 41.9609C113.271 42.1432 113.417 42.3932 113.547 42.7109C113.682 43.0234 113.75 43.3594 113.75 43.7188C113.75 44.6146 113.393 45.3854 112.68 46.0312C111.966 46.6771 111.055 47 109.945 47ZM107.273 45H109.828C110.266 45 110.628 44.862 110.914 44.5859C111.206 44.3099 111.352 43.9688 111.352 43.5625C111.352 43.1562 111.206 42.8151 110.914 42.5391C110.628 42.2578 110.266 42.1172 109.828 42.1172H107.273V45ZM109.508 37.7969H107.273V40.2031H109.508C109.904 40.2031 110.216 40.0938 110.445 39.875C110.674 39.6562 110.789 39.3646 110.789 39C110.789 38.6354 110.674 38.3438 110.445 38.125C110.216 37.9062 109.904 37.7969 109.508 37.7969ZM116.289 45.9297C115.451 45.1172 115.031 44.1667 115.031 43.0781C115.031 41.9896 115.451 41.0391 116.289 40.2266C117.128 39.4089 118.122 39 119.273 39C119.68 39 120.065 39.0573 120.43 39.1719C120.799 39.2812 121.102 39.4141 121.336 39.5703C121.57 39.7214 121.779 39.875 121.961 40.0312C122.143 40.1875 122.276 40.3229 122.359 40.4375L122.477 40.6016L121.117 41.9609C121.076 41.888 121.005 41.7917 120.906 41.6719C120.812 41.5521 120.604 41.3984 120.281 41.2109C119.964 41.0182 119.628 40.9219 119.273 40.9219C118.706 40.9219 118.216 41.1328 117.805 41.5547C117.398 41.9766 117.195 42.487 117.195 43.0859C117.195 43.6797 117.401 44.1875 117.812 44.6094C118.224 45.0312 118.711 45.2422 119.273 45.2422C119.628 45.2422 119.964 45.1562 120.281 44.9844C120.604 44.8125 120.839 44.6406 120.984 44.4688L121.195 44.2031L122.477 45.5625C122.445 45.6042 122.401 45.6641 122.344 45.7422C122.292 45.8151 122.167 45.9427 121.969 46.125C121.771 46.3021 121.557 46.4609 121.328 46.6016C121.099 46.737 120.799 46.8646 120.43 46.9844C120.065 47.099 119.68 47.1562 119.273 47.1562C118.122 47.1562 117.128 46.7474 116.289 45.9297ZM131.359 43.7969H125.68C125.763 44.224 125.99 44.5859 126.359 44.8828C126.729 45.1745 127.195 45.3203 127.758 45.3203C128.164 45.3203 128.539 45.2422 128.883 45.0859C129.232 44.9245 129.477 44.763 129.617 44.6016L129.844 44.3594L130.961 45.7969L130.82 45.9375C130.753 46.0052 130.612 46.1172 130.398 46.2734C130.185 46.4297 129.958 46.5703 129.719 46.6953C129.479 46.8151 129.167 46.9219 128.781 47.0156C128.401 47.1094 128.008 47.1562 127.602 47.1562C126.451 47.1562 125.469 46.7578 124.656 45.9609C123.844 45.1589 123.438 44.1979 123.438 43.0781C123.438 41.9583 123.839 41 124.641 40.2031C125.443 39.401 126.404 39 127.523 39C128.643 39 129.576 39.375 130.32 40.125C131.065 40.8698 131.438 41.8021 131.438 42.9219L131.359 43.7969ZM128.688 41.25C128.37 40.9792 127.982 40.8438 127.523 40.8438C127.065 40.8438 126.674 40.9766 126.352 41.2422C126.034 41.5078 125.81 41.8542 125.68 42.2812H129.281C129.198 41.8646 129 41.5208 128.688 41.25ZM137.102 45.9297C136.263 45.1172 135.844 44.1667 135.844 43.0781C135.844 41.9896 136.263 41.0391 137.102 40.2266C137.94 39.4089 138.935 39 140.086 39C140.492 39 140.878 39.0573 141.242 39.1719C141.612 39.2812 141.914 39.4141 142.148 39.5703C142.383 39.7214 142.591 39.875 142.773 40.0312C142.956 40.1875 143.089 40.3229 143.172 40.4375L143.289 40.6016L141.93 41.9609C141.888 41.888 141.818 41.7917 141.719 41.6719C141.625 41.5521 141.417 41.3984 141.094 41.2109C140.776 41.0182 140.44 40.9219 140.086 40.9219C139.518 40.9219 139.029 41.1328 138.617 41.5547C138.211 41.9766 138.008 42.487 138.008 43.0859C138.008 43.6797 138.214 44.1875 138.625 44.6094C139.036 45.0312 139.523 45.2422 140.086 45.2422C140.44 45.2422 140.776 45.1562 141.094 44.9844C141.417 44.8125 141.651 44.6406 141.797 44.4688L142.008 44.2031L143.289 45.5625C143.258 45.6042 143.214 45.6641 143.156 45.7422C143.104 45.8151 142.979 45.9427 142.781 46.125C142.583 46.3021 142.37 46.4609 142.141 46.6016C141.911 46.737 141.612 46.8646 141.242 46.9844C140.878 47.099 140.492 47.1562 140.086 47.1562C138.935 47.1562 137.94 46.7474 137.102 45.9297ZM145.531 39.1562H151.852V47H149.695V41.0781H147.617V41.5625C147.617 43.026 147.492 44.1901 147.242 45.0547C146.997 45.9141 146.68 46.4948 146.289 46.7969C145.904 47.0938 145.411 47.2422 144.812 47.2422C144.62 47.2422 144.43 47.2188 144.242 47.1719C144.06 47.1302 143.924 47.0938 143.836 47.0625L143.695 47V45.0781C143.857 45.1302 144.016 45.1562 144.172 45.1562C144.49 45.1562 144.74 45.0755 144.922 44.9141C145.104 44.7474 145.25 44.3802 145.359 43.8125C145.474 43.2396 145.531 42.4089 145.531 41.3203V39.1562ZM155.773 47.4766L156.016 46.9219L152.977 39.1562H155.219L157.055 44.3594L158.898 39.1562H161.133L158.016 47.4766C157.302 49.3984 156.289 50.3594 154.977 50.3594C154.742 50.3594 154.51 50.3385 154.281 50.2969C154.052 50.2552 153.883 50.2135 153.773 50.1719L153.617 50.1172V48.2031C153.831 48.3073 154.096 48.3594 154.414 48.3594C155.065 48.3594 155.518 48.0651 155.773 47.4766ZM166.891 47V44.3594C166.359 44.7344 165.745 44.9219 165.047 44.9219C164.151 44.9219 163.432 44.638 162.891 44.0703C162.354 43.4974 162.086 42.7135 162.086 41.7188V39.1562H164.25V41.5625C164.25 41.9583 164.372 42.2839 164.617 42.5391C164.862 42.7943 165.167 42.9219 165.531 42.9219C165.786 42.9219 166.029 42.8828 166.258 42.8047C166.487 42.7214 166.648 42.638 166.742 42.5547L166.891 42.4375V39.1562H169.047V47H166.891ZM175.445 47V46.2031C175.383 46.276 175.294 46.3672 175.18 46.4766C175.07 46.5807 174.828 46.7214 174.453 46.8984C174.078 47.0703 173.688 47.1562 173.281 47.1562C172.5 47.1562 171.865 46.9401 171.375 46.5078C170.885 46.0703 170.641 45.5417 170.641 44.9219C170.641 44.2812 170.846 43.7474 171.258 43.3203C171.669 42.8932 172.237 42.6146 172.961 42.4844L175.445 42.0391C175.445 41.7109 175.326 41.4427 175.086 41.2344C174.846 41.026 174.513 40.9219 174.086 40.9219C173.732 40.9219 173.409 40.9896 173.117 41.125C172.826 41.2552 172.62 41.3906 172.5 41.5312L172.32 41.7188L171.125 40.5234C171.156 40.4818 171.198 40.4271 171.25 40.3594C171.307 40.2865 171.43 40.1641 171.617 39.9922C171.81 39.8203 172.018 39.6693 172.242 39.5391C172.466 39.4036 172.76 39.2812 173.125 39.1719C173.49 39.0573 173.862 39 174.242 39C175.232 39 176.039 39.2969 176.664 39.8906C177.289 40.4792 177.602 41.2214 177.602 42.1172V47H175.445ZM173.844 45.3984C174.333 45.3984 174.721 45.2448 175.008 44.9375C175.299 44.625 175.445 44.1927 175.445 43.6406V43.3984L173.688 43.7188C173.099 43.8125 172.805 44.1068 172.805 44.6016C172.805 45.1328 173.151 45.3984 173.844 45.3984ZM185.242 39.1562H187.125V47H184.969V42.6016L181.555 47H179.688V39.1562H181.844V43.5625L185.242 39.1562ZM193.258 45.9297C192.419 45.1172 192 44.1667 192 43.0781C192 41.9896 192.419 41.0391 193.258 40.2266C194.096 39.4089 195.091 39 196.242 39C196.648 39 197.034 39.0573 197.398 39.1719C197.768 39.2812 198.07 39.4141 198.305 39.5703C198.539 39.7214 198.747 39.875 198.93 40.0312C199.112 40.1875 199.245 40.3229 199.328 40.4375L199.445 40.6016L198.086 41.9609C198.044 41.888 197.974 41.7917 197.875 41.6719C197.781 41.5521 197.573 41.3984 197.25 41.2109C196.932 41.0182 196.596 40.9219 196.242 40.9219C195.674 40.9219 195.185 41.1328 194.773 41.5547C194.367 41.9766 194.164 42.487 194.164 43.0859C194.164 43.6797 194.37 44.1875 194.781 44.6094C195.193 45.0312 195.68 45.2422 196.242 45.2422C196.596 45.2422 196.932 45.1562 197.25 44.9844C197.573 44.8125 197.807 44.6406 197.953 44.4688L198.164 44.2031L199.445 45.5625C199.414 45.6042 199.37 45.6641 199.312 45.7422C199.26 45.8151 199.135 45.9427 198.938 46.125C198.74 46.3021 198.526 46.4609 198.297 46.6016C198.068 46.737 197.768 46.8646 197.398 46.9844C197.034 47.099 196.648 47.1562 196.242 47.1562C195.091 47.1562 194.096 46.7474 193.258 45.9297ZM205.133 45.0781L203.047 42.3594V47H200.891V39.1562H202.727L205.133 42.2812L207.531 39.1562H209.367V47H207.211V42.3594L205.133 45.0781ZM218.891 43.7969H213.211C213.294 44.224 213.521 44.5859 213.891 44.8828C214.26 45.1745 214.727 45.3203 215.289 45.3203C215.695 45.3203 216.07 45.2422 216.414 45.0859C216.763 44.9245 217.008 44.763 217.148 44.6016L217.375 44.3594L218.492 45.7969L218.352 45.9375C218.284 46.0052 218.143 46.1172 217.93 46.2734C217.716 46.4297 217.49 46.5703 217.25 46.6953C217.01 46.8151 216.698 46.9219 216.312 47.0156C215.932 47.1094 215.539 47.1562 215.133 47.1562C213.982 47.1562 213 46.7578 212.188 45.9609C211.375 45.1589 210.969 44.1979 210.969 43.0781C210.969 41.9583 211.37 41 212.172 40.2031C212.974 39.401 213.935 39 215.055 39C216.174 39 217.107 39.375 217.852 40.125C218.596 40.8698 218.969 41.8021 218.969 42.9219L218.891 43.7969ZM216.219 41.25C215.901 40.9792 215.513 40.8438 215.055 40.8438C214.596 40.8438 214.206 40.9766 213.883 41.2422C213.565 41.5078 213.341 41.8542 213.211 42.2812H216.812C216.729 41.8646 216.531 41.5208 216.219 41.25ZM225.055 47.1562C224.607 47.1562 224.188 47.0651 223.797 46.8828C223.411 46.6953 223.138 46.5104 222.977 46.3281L222.734 46.0391V50.3594H220.578V39.1562H222.734V40.1172C222.755 40.0859 222.786 40.0469 222.828 40C222.875 39.9531 222.969 39.8672 223.109 39.7422C223.255 39.612 223.411 39.4974 223.578 39.3984C223.745 39.2943 223.961 39.2031 224.227 39.125C224.492 39.0417 224.768 39 225.055 39C226.07 39 226.951 39.3958 227.695 40.1875C228.445 40.974 228.82 41.9375 228.82 43.0781C228.82 44.2188 228.445 45.1849 227.695 45.9766C226.951 46.763 226.07 47.1562 225.055 47.1562ZM226.023 41.5234C225.648 41.1224 225.193 40.9219 224.656 40.9219C224.125 40.9219 223.672 41.125 223.297 41.5312C222.922 41.9323 222.734 42.4479 222.734 43.0781C222.734 43.7083 222.922 44.2266 223.297 44.6328C223.672 45.0391 224.125 45.2422 224.656 45.2422C225.193 45.2422 225.646 45.0391 226.016 44.6328C226.391 44.2266 226.578 43.7083 226.578 43.0781C226.578 42.4479 226.393 41.9297 226.023 41.5234ZM229.617 41.2422V39.1562H236.742V41.2422H234.258V47H232.102V41.2422H229.617ZM243.57 39.1562H245.453V47H243.297V42.6016L239.883 47H238.016V39.1562H240.172V43.5625L243.57 39.1562Z" fill="white"/>
<path d="M136.727 111.688V116H119.922V111.688H136.727ZM162.859 128H140.547C140.547 125.922 140.859 124.039 141.484 122.352C142.109 120.648 142.922 119.234 143.922 118.109C144.938 116.984 146.047 115.953 147.25 115.016C148.469 114.078 149.68 113.227 150.883 112.461C152.086 111.68 153.188 110.914 154.188 110.164C155.203 109.414 156.023 108.539 156.648 107.539C157.273 106.523 157.586 105.422 157.586 104.234C157.586 102.531 157.055 101.188 155.992 100.203C154.945 99.2188 153.477 98.7266 151.586 98.7266C150.664 98.7266 149.797 98.8984 148.984 99.2422C148.188 99.5703 147.562 99.9688 147.109 100.438C146.672 100.891 146.281 101.352 145.938 101.82C145.609 102.289 145.383 102.695 145.258 103.039L145.094 103.531L140.781 101.609C140.844 101.391 140.93 101.109 141.039 100.766C141.164 100.422 141.492 99.8125 142.023 98.9375C142.57 98.0625 143.203 97.2891 143.922 96.6172C144.641 95.9453 145.68 95.3281 147.039 94.7656C148.398 94.2031 149.914 93.9219 151.586 93.9219C154.883 93.9219 157.586 94.9141 159.695 96.8984C161.805 98.8828 162.859 101.328 162.859 104.234C162.859 105.766 162.547 107.188 161.922 108.5C161.297 109.812 160.5 110.914 159.531 111.805C158.578 112.68 157.477 113.586 156.227 114.523C154.992 115.445 153.789 116.289 152.617 117.055C151.445 117.82 150.289 118.742 149.148 119.82C148.023 120.883 147.156 122.008 146.547 123.195H162.859V128ZM189.297 116.469H193.609V121.273H189.297V128H184V121.273H167.688V115.531L182.57 94.3906H189.297V116.469ZM184 116.469V100.391L172.727 116.469H184ZM210.109 96.1016C211.594 97.5547 212.336 99.3047 212.336 101.352C212.336 103.398 211.594 105.156 210.109 106.625C208.625 108.078 206.805 108.805 204.648 108.805C202.508 108.805 200.695 108.078 199.211 106.625C197.727 105.156 196.984 103.398 196.984 101.352C196.984 99.3047 197.727 97.5547 199.211 96.1016C200.695 94.6484 202.508 93.9219 204.648 93.9219C206.805 93.9219 208.625 94.6484 210.109 96.1016ZM201.93 98.6328C201.195 99.3672 200.828 100.281 200.828 101.375C200.828 102.453 201.195 103.359 201.93 104.094C202.664 104.828 203.57 105.195 204.648 105.195C205.742 105.195 206.656 104.828 207.391 104.094C208.125 103.359 208.492 102.453 208.492 101.375C208.492 100.281 208.125 99.3672 207.391 98.6328C206.656 97.8984 205.742 97.5312 204.648 97.5312C203.57 97.5312 202.664 97.8984 201.93 98.6328ZM200.828 128L221.945 94.3906H226.258L205.141 128H200.828ZM216.977 126.289C215.492 124.836 214.75 123.086 214.75 121.039C214.75 118.992 215.492 117.242 216.977 115.789C218.461 114.336 220.273 113.609 222.414 113.609C224.57 113.609 226.391 114.336 227.875 115.789C229.359 117.242 230.102 118.992 230.102 121.039C230.102 123.086 229.359 124.836 227.875 126.289C226.391 127.742 224.57 128.469 222.414 128.469C220.273 128.469 218.461 127.742 216.977 126.289ZM225.156 123.781C225.891 123.047 226.258 122.133 226.258 121.039C226.258 119.945 225.891 119.031 225.156 118.297C224.422 117.562 223.508 117.195 222.414 117.195C221.336 117.195 220.43 117.562 219.695 118.297C218.961 119.031 218.594 119.945 218.594 121.039C218.594 122.133 218.961 123.047 219.695 123.781C220.43 124.516 221.336 124.883 222.414 124.883C223.508 124.883 224.422 124.516 225.156 123.781Z" fill="white"/>
</svg>
