<svg width="350" height="210" viewBox="0 0 350 210" fill="none" xmlns="http://www.w3.org/2000/svg">
<path d="M175 208.754L3.02309 81H30H31V80V1H319V80V81H320H346.977L175 208.754Z" fill="#2E55E2" fill-opacity="0.4" stroke="#2E55E2" stroke-width="2"/>
<path d="M57.4805 26.1953H64.1953C65.7969 26.1953 67.1367 26.7227 68.2148 27.7773C69.3008 28.8242 69.8438 30.1016 69.8438 31.6094C69.8438 33.1094 69.3008 34.3828 68.2148 35.4297C67.1367 36.4766 65.7969 37 64.1953 37H60.1172V43H57.4805V26.1953ZM64.1953 28.5977H60.1172V34.5977H64.1953C65.0234 34.5977 65.7305 34.3125 66.3164 33.7422C66.9023 33.1641 67.1953 32.4531 67.1953 31.6094C67.1953 30.7578 66.9023 30.043 66.3164 29.4648C65.7305 28.8867 65.0234 28.5977 64.1953 28.5977ZM81.2344 31.4805H83.3906V43H80.9883V35.4414L74.9883 43H72.832V31.4805H75.2344V39.0391L81.2344 31.4805ZM87.832 41.4414C86.6367 40.2539 86.0391 38.8555 86.0391 37.2461C86.0391 35.6289 86.6328 34.2227 87.8203 33.0273C89.0156 31.832 90.4219 31.2344 92.0391 31.2344C92.9375 31.2344 93.7734 31.4297 94.5469 31.8203C95.3203 32.2031 95.875 32.5859 96.2109 32.9688L96.7148 33.5195L95.1562 35.0781C95.0781 34.9531 94.957 34.8008 94.793 34.6211C94.6367 34.4336 94.2891 34.1836 93.75 33.8711C93.2188 33.5586 92.6484 33.4023 92.0391 33.4023C91.0625 33.4023 90.2148 33.7734 89.4961 34.5156C88.7852 35.2578 88.4297 36.168 88.4297 37.2461C88.4297 38.3164 88.7852 39.2227 89.4961 39.9648C90.2148 40.707 91.0625 41.0781 92.0391 41.0781C92.6484 41.0781 93.2188 40.9258 93.75 40.6211C94.2891 40.3164 94.6758 40.0195 94.9102 39.7305L95.2734 39.2852L96.832 40.8438C96.7852 40.9062 96.7148 40.9961 96.6211 41.1133C96.5273 41.2227 96.3242 41.4141 96.0117 41.6875C95.6992 41.9531 95.3711 42.1914 95.0273 42.4023C94.6836 42.6055 94.2383 42.7969 93.6914 42.9766C93.1445 43.1484 92.5938 43.2344 92.0391 43.2344C90.4219 43.2344 89.0195 42.6367 87.832 41.4414ZM109.43 31.4805L104.988 36.2852L109.781 43H107.145L103.43 37.8438L101.625 39.7656V43H99.2227V31.4805H101.625V36.6367L106.547 31.4805H109.43ZM124.535 31.4805V33.6367H118.898V43H116.496V31.4805H124.535ZM134.273 39.9648C134.984 39.2227 135.34 38.3164 135.34 37.2461C135.34 36.168 134.984 35.2578 134.273 34.5156C133.562 33.7734 132.719 33.4023 131.742 33.4023C130.766 33.4023 129.918 33.7734 129.199 34.5156C128.488 35.2578 128.133 36.168 128.133 37.2461C128.133 38.3164 128.488 39.2227 129.199 39.9648C129.918 40.707 130.766 41.0781 131.742 41.0781C132.719 41.0781 133.562 40.707 134.273 39.9648ZM127.535 41.4414C126.34 40.2539 125.742 38.8555 125.742 37.2461C125.742 35.6289 126.336 34.2227 127.523 33.0273C128.719 31.832 130.125 31.2344 131.742 31.2344C133.359 31.2344 134.762 31.832 135.949 33.0273C137.145 34.2227 137.742 35.6289 137.742 37.2461C137.742 38.8555 137.145 40.2578 135.949 41.4531C134.762 42.6406 133.359 43.2344 131.742 43.2344C130.125 43.2344 128.723 42.6367 127.535 41.4414ZM141.457 41.4414C140.262 40.2539 139.664 38.8555 139.664 37.2461C139.664 35.6289 140.258 34.2227 141.445 33.0273C142.641 31.832 144.047 31.2344 145.664 31.2344C146.562 31.2344 147.398 31.4297 148.172 31.8203C148.945 32.2031 149.5 32.5859 149.836 32.9688L150.34 33.5195L148.781 35.0781C148.703 34.9531 148.582 34.8008 148.418 34.6211C148.262 34.4336 147.914 34.1836 147.375 33.8711C146.844 33.5586 146.273 33.4023 145.664 33.4023C144.688 33.4023 143.84 33.7734 143.121 34.5156C142.41 35.2578 142.055 36.168 142.055 37.2461C142.055 38.3164 142.41 39.2227 143.121 39.9648C143.84 40.707 144.688 41.0781 145.664 41.0781C146.273 41.0781 146.844 40.9258 147.375 40.6211C147.914 40.3164 148.301 40.0195 148.535 39.7305L148.898 39.2852L150.457 40.8438C150.41 40.9062 150.34 40.9961 150.246 41.1133C150.152 41.2227 149.949 41.4141 149.637 41.6875C149.324 41.9531 148.996 42.1914 148.652 42.4023C148.309 42.6055 147.863 42.7969 147.316 42.9766C146.77 43.1484 146.219 43.2344 145.664 43.2344C144.047 43.2344 142.645 42.6367 141.457 41.4414ZM155.25 33.6367V43H152.848V31.4805H163.289V43H160.887V33.6367H155.25ZM175.055 31.4805H177.211V43H174.809V35.4414L168.809 43H166.652V31.4805H169.055V39.0391L175.055 31.4805ZM179.379 33.6367V31.4805H189.691V33.6367H185.73V43H183.34V33.6367H179.379ZM201.094 43H198.691V41.8047C198.66 41.8359 198.605 41.8867 198.527 41.957C198.457 42.0273 198.309 42.1445 198.082 42.3086C197.863 42.4648 197.625 42.6094 197.367 42.7422C197.109 42.8672 196.785 42.9805 196.395 43.082C196.004 43.1836 195.609 43.2344 195.211 43.2344C194.039 43.2344 193.066 42.8945 192.293 42.2148C191.52 41.5352 191.133 40.7578 191.133 39.8828C191.133 38.9375 191.43 38.1445 192.023 37.5039C192.625 36.8633 193.445 36.457 194.484 36.2852L198.691 35.5586C198.691 34.9492 198.465 34.4375 198.012 34.0234C197.566 33.6094 196.992 33.4023 196.289 33.4023C195.68 33.4023 195.125 33.5312 194.625 33.7891C194.133 34.0391 193.793 34.293 193.605 34.5508L193.289 34.9609L191.73 33.4023C191.777 33.3398 191.84 33.2617 191.918 33.168C192.004 33.0664 192.188 32.8945 192.469 32.6523C192.758 32.4023 193.062 32.1797 193.383 31.9844C193.703 31.7891 194.125 31.6172 194.648 31.4688C195.18 31.3125 195.727 31.2344 196.289 31.2344C197.695 31.2344 198.848 31.6523 199.746 32.4883C200.645 33.3164 201.094 34.3398 201.094 35.5586V43ZM195.574 41.0781C196.551 41.0781 197.312 40.7891 197.859 40.2109C198.414 39.625 198.691 38.793 198.691 37.7148V37.4805L194.965 38.0781C194.535 38.1562 194.188 38.332 193.922 38.6055C193.656 38.8789 193.523 39.2227 193.523 39.6367C193.523 40.0195 193.707 40.3555 194.074 40.6445C194.449 40.9336 194.949 41.0781 195.574 41.0781ZM205.781 31.4805H214.664V43H212.262V33.6367H208.184V34.8438C208.184 37.0391 208.008 38.7734 207.656 40.0469C207.312 41.3125 206.867 42.1602 206.32 42.5898C205.781 43.0195 205.082 43.2344 204.223 43.2344C204.012 43.2344 203.785 43.2148 203.543 43.1758C203.309 43.1367 203.125 43.0938 202.992 43.0469L202.781 43V40.7148C203.102 40.793 203.379 40.8359 203.613 40.8438C204.105 40.8438 204.492 40.7109 204.773 40.4453C205.062 40.1797 205.301 39.5938 205.488 38.6875C205.684 37.7734 205.781 36.4922 205.781 34.8438V31.4805ZM226.43 31.4805H228.586V43H226.184V35.4414L220.184 43H218.027V31.4805H220.43V39.0391L226.43 31.4805ZM239.625 34.4805C239.625 35.0117 239.477 35.4766 239.18 35.875C238.891 36.2734 238.594 36.5352 238.289 36.6602L237.832 36.8828C237.895 36.8984 237.977 36.9258 238.078 36.9648C238.188 37.0039 238.367 37.0977 238.617 37.2461C238.875 37.3867 239.102 37.5586 239.297 37.7617C239.5 37.957 239.684 38.2305 239.848 38.582C240.02 38.9336 240.105 39.3281 240.105 39.7656C240.105 40.7266 239.676 41.5469 238.816 42.2266C237.965 42.8984 236.797 43.2344 235.312 43.2344C234.75 43.2344 234.207 43.1641 233.684 43.0234C233.168 42.8828 232.738 42.7148 232.395 42.5195C232.051 42.3242 231.75 42.1289 231.492 41.9336C231.234 41.7305 231.043 41.5586 230.918 41.418L230.754 41.1953L232.312 39.6367C232.406 39.7461 232.531 39.8828 232.688 40.0469C232.852 40.2109 233.195 40.4258 233.719 40.6914C234.25 40.9492 234.781 41.0781 235.312 41.0781C236.109 41.0781 236.707 40.9297 237.105 40.6328C237.512 40.3359 237.715 39.9648 237.715 39.5195C237.715 39.0742 237.512 38.7031 237.105 38.4062C236.707 38.1094 236.109 37.9609 235.312 37.9609H233.988V36.0391H235.312C235.938 36.0391 236.414 35.918 236.742 35.6758C237.07 35.4258 237.234 35.1094 237.234 34.7266C237.234 34.3359 237.07 34.0195 236.742 33.7773C236.414 33.5273 235.938 33.4023 235.312 33.4023C234.852 33.4023 234.398 33.4922 233.953 33.6719C233.516 33.8438 233.191 34.0234 232.98 34.2109L232.676 34.4805L231.105 32.9219C231.215 32.7969 231.375 32.6406 231.586 32.4531C231.797 32.2656 232.266 32.0156 232.992 31.7031C233.719 31.3906 234.492 31.2344 235.312 31.2344C236.641 31.2344 237.691 31.5547 238.465 32.1953C239.238 32.8359 239.625 33.5977 239.625 34.4805ZM252 43H249.598V41.8047C249.566 41.8359 249.512 41.8867 249.434 41.957C249.363 42.0273 249.215 42.1445 248.988 42.3086C248.77 42.4648 248.531 42.6094 248.273 42.7422C248.016 42.8672 247.691 42.9805 247.301 43.082C246.91 43.1836 246.516 43.2344 246.117 43.2344C244.945 43.2344 243.973 42.8945 243.199 42.2148C242.426 41.5352 242.039 40.7578 242.039 39.8828C242.039 38.9375 242.336 38.1445 242.93 37.5039C243.531 36.8633 244.352 36.457 245.391 36.2852L249.598 35.5586C249.598 34.9492 249.371 34.4375 248.918 34.0234C248.473 33.6094 247.898 33.4023 247.195 33.4023C246.586 33.4023 246.031 33.5312 245.531 33.7891C245.039 34.0391 244.699 34.293 244.512 34.5508L244.195 34.9609L242.637 33.4023C242.684 33.3398 242.746 33.2617 242.824 33.168C242.91 33.0664 243.094 32.8945 243.375 32.6523C243.664 32.4023 243.969 32.1797 244.289 31.9844C244.609 31.7891 245.031 31.6172 245.555 31.4688C246.086 31.3125 246.633 31.2344 247.195 31.2344C248.602 31.2344 249.754 31.6523 250.652 32.4883C251.551 33.3164 252 34.3398 252 35.5586V43ZM246.48 41.0781C247.457 41.0781 248.219 40.7891 248.766 40.2109C249.32 39.625 249.598 38.793 249.598 37.7148V37.4805L245.871 38.0781C245.441 38.1562 245.094 38.332 244.828 38.6055C244.562 38.8789 244.43 39.2227 244.43 39.6367C244.43 40.0195 244.613 40.3555 244.98 40.6445C245.355 40.9336 245.855 41.0781 246.48 41.0781ZM255.363 43V31.4805H257.766V40.8438H263.168V31.4805H265.57V40.8438H267.246V45.8828H264.844V43H255.363ZM278.039 31.4805H280.195V43H277.793V35.4414L271.793 43H269.637V31.4805H272.039V39.0391L278.039 31.4805ZM291.961 31.4805H294.117V43H291.715V35.4414L285.715 43H283.559V31.4805H285.961V39.0391L291.961 31.4805ZM78.3516 61.6367V71H75.9492V59.4805H86.3906V71H83.9883V61.6367H78.3516ZM97.5703 67.9648C98.2812 67.2227 98.6367 66.3164 98.6367 65.2461C98.6367 64.168 98.2812 63.2578 97.5703 62.5156C96.8594 61.7734 96.0156 61.4023 95.0391 61.4023C94.0625 61.4023 93.2148 61.7734 92.4961 62.5156C91.7852 63.2578 91.4297 64.168 91.4297 65.2461C91.4297 66.3164 91.7852 67.2227 92.4961 67.9648C93.2148 68.707 94.0625 69.0781 95.0391 69.0781C96.0156 69.0781 96.8594 68.707 97.5703 67.9648ZM90.832 69.4414C89.6367 68.2539 89.0391 66.8555 89.0391 65.2461C89.0391 63.6289 89.6328 62.2227 90.8203 61.0273C92.0156 59.832 93.4219 59.2344 95.0391 59.2344C96.6562 59.2344 98.0586 59.832 99.2461 61.0273C100.441 62.2227 101.039 63.6289 101.039 65.2461C101.039 66.8555 100.441 68.2578 99.2461 69.4531C98.0586 70.6406 96.6562 71.2344 95.0391 71.2344C93.4219 71.2344 92.0195 70.6367 90.832 69.4414ZM108.48 59.4805H114C115.102 59.4805 115.977 59.7656 116.625 60.3359C117.273 60.8984 117.598 61.6133 117.598 62.4805C117.598 62.9727 117.488 63.4219 117.27 63.8281C117.059 64.2266 116.84 64.5039 116.613 64.6602L116.285 64.8828C116.332 64.8984 116.398 64.9258 116.484 64.9648C116.57 65.0039 116.727 65.1055 116.953 65.2695C117.18 65.4258 117.375 65.6016 117.539 65.7969C117.711 65.9844 117.863 66.2422 117.996 66.5703C118.137 66.8984 118.207 67.2539 118.207 67.6367C118.207 68.6289 117.852 69.4375 117.141 70.0625C116.438 70.6875 115.473 71 114.246 71H108.48V59.4805ZM114.246 65.8438H110.883V68.9609H114.246C114.723 68.9609 115.102 68.8203 115.383 68.5391C115.664 68.2578 115.805 67.8789 115.805 67.4023C115.805 66.9727 115.66 66.6055 115.371 66.3008C115.082 65.9961 114.707 65.8438 114.246 65.8438ZM114.879 63.5938C115.098 63.3828 115.207 63.0938 115.207 62.7266C115.207 62.3516 115.098 62.0586 114.879 61.8477C114.66 61.6289 114.367 61.5195 114 61.5195H110.883V63.9219H114C114.367 63.9219 114.66 63.8125 114.879 63.5938ZM121.91 69.4414C120.715 68.2539 120.117 66.8555 120.117 65.2461C120.117 63.6289 120.711 62.2227 121.898 61.0273C123.094 59.832 124.5 59.2344 126.117 59.2344C127.016 59.2344 127.852 59.4297 128.625 59.8203C129.398 60.2031 129.953 60.5859 130.289 60.9688L130.793 61.5195L129.234 63.0781C129.156 62.9531 129.035 62.8008 128.871 62.6211C128.715 62.4336 128.367 62.1836 127.828 61.8711C127.297 61.5586 126.727 61.4023 126.117 61.4023C125.141 61.4023 124.293 61.7734 123.574 62.5156C122.863 63.2578 122.508 64.168 122.508 65.2461C122.508 66.3164 122.863 67.2227 123.574 67.9648C124.293 68.707 125.141 69.0781 126.117 69.0781C126.727 69.0781 127.297 68.9258 127.828 68.6211C128.367 68.3164 128.754 68.0195 128.988 67.7305L129.352 67.2852L130.91 68.8438C130.863 68.9062 130.793 68.9961 130.699 69.1133C130.605 69.2227 130.402 69.4141 130.09 69.6875C129.777 69.9531 129.449 70.1914 129.105 70.4023C128.762 70.6055 128.316 70.7969 127.77 70.9766C127.223 71.1484 126.672 71.2344 126.117 71.2344C124.5 71.2344 123.098 70.6367 121.91 69.4414ZM143.977 66.0781H134.977C135.102 66.8906 135.5 67.5938 136.172 68.1875C136.852 68.7812 137.656 69.0781 138.586 69.0781C139.258 69.0781 139.883 68.9258 140.461 68.6211C141.047 68.3164 141.461 68.0195 141.703 67.7305L142.066 67.2852L143.625 68.8438C143.578 68.9062 143.504 68.9961 143.402 69.1133C143.309 69.2227 143.102 69.4141 142.781 69.6875C142.461 69.9531 142.121 70.1914 141.762 70.4023C141.402 70.6055 140.934 70.7969 140.355 70.9766C139.785 71.1484 139.195 71.2344 138.586 71.2344C136.953 71.2344 135.543 70.6367 134.355 69.4414C133.176 68.2383 132.586 66.7969 132.586 65.1172C132.586 63.5 133.16 62.1172 134.309 60.9688C135.465 59.8125 136.848 59.2344 138.457 59.2344C140.074 59.2344 141.418 59.7734 142.488 60.8516C143.566 61.9219 144.105 63.2656 144.105 64.8828L143.977 66.0781ZM138.457 61.2852C137.59 61.2852 136.859 61.543 136.266 62.0586C135.68 62.5664 135.285 63.2266 135.082 64.0391H141.75C141.609 63.2266 141.246 62.5664 140.66 62.0586C140.074 61.543 139.34 61.2852 138.457 61.2852ZM152.848 64.5195L157.055 59.4805H158.977V71H156.574V63.4414L152.848 67.8828L149.133 63.4414V71H146.73V59.4805H148.652L152.848 64.5195ZM169.547 61.6367V71H167.145V59.4805H177.586V71H175.184V61.6367H169.547ZM187.066 71.2344C186.637 71.2344 186.219 71.1836 185.812 71.082C185.406 70.9805 185.059 70.8555 184.77 70.707C184.48 70.5508 184.223 70.3945 183.996 70.2383C183.777 70.0742 183.617 69.9453 183.516 69.8516L183.352 69.6758V76.0391H180.949V59.4805H183.352V60.8047C183.461 60.6953 183.613 60.5508 183.809 60.3711C184.012 60.1914 184.438 59.957 185.086 59.668C185.734 59.3789 186.395 59.2344 187.066 59.2344C188.59 59.2344 189.91 59.8203 191.027 60.9922C192.152 62.1562 192.715 63.5703 192.715 65.2344C192.715 66.8984 192.152 68.3164 191.027 69.4883C189.91 70.6523 188.59 71.2344 187.066 71.2344ZM189.258 62.5273C188.555 61.7773 187.746 61.4023 186.832 61.4023C185.918 61.4023 185.109 61.7773 184.406 62.5273C183.703 63.2773 183.352 64.1836 183.352 65.2461C183.352 66.3008 183.703 67.2031 184.406 67.9531C185.109 68.7031 185.918 69.0781 186.832 69.0781C187.746 69.0781 188.555 68.7031 189.258 67.9531C189.961 67.2031 190.312 66.3008 190.312 65.2461C190.312 64.1836 189.961 63.2773 189.258 62.5273ZM203.742 59.4805H205.898V71H203.496V63.4414L197.496 71H195.34V59.4805H197.742V67.0391L203.742 59.4805ZM216.469 71V66.6758C215.672 67.2383 214.711 67.5195 213.586 67.5195C212.195 67.5195 211.086 67.1016 210.258 66.2656C209.438 65.4219 209.027 64.2812 209.027 62.8438V59.4805H211.418V62.8438C211.418 63.5625 211.648 64.1641 212.109 64.6484C212.578 65.125 213.148 65.3633 213.82 65.3633C214.312 65.3633 214.777 65.2852 215.215 65.1289C215.66 64.9648 215.98 64.8008 216.176 64.6367L216.469 64.4023V59.4805H218.859V71H216.469ZM230.625 59.4805H232.781V71H230.379V63.4414L224.379 71H222.223V59.4805H224.625V67.0391L230.625 59.4805ZM238.547 66.1953V71H236.145V59.4805H238.547V64.0391H244.184V59.4805H246.586V71H244.184V66.1953H238.547ZM259.195 71H256.793V69.8047C256.762 69.8359 256.707 69.8867 256.629 69.957C256.559 70.0273 256.41 70.1445 256.184 70.3086C255.965 70.4648 255.727 70.6094 255.469 70.7422C255.211 70.8672 254.887 70.9805 254.496 71.082C254.105 71.1836 253.711 71.2344 253.312 71.2344C252.141 71.2344 251.168 70.8945 250.395 70.2148C249.621 69.5352 249.234 68.7578 249.234 67.8828C249.234 66.9375 249.531 66.1445 250.125 65.5039C250.727 64.8633 251.547 64.457 252.586 64.2852L256.793 63.5586C256.793 62.9492 256.566 62.4375 256.113 62.0234C255.668 61.6094 255.094 61.4023 254.391 61.4023C253.781 61.4023 253.227 61.5312 252.727 61.7891C252.234 62.0391 251.895 62.293 251.707 62.5508L251.391 62.9609L249.832 61.4023C249.879 61.3398 249.941 61.2617 250.02 61.168C250.105 61.0664 250.289 60.8945 250.57 60.6523C250.859 60.4023 251.164 60.1797 251.484 59.9844C251.805 59.7891 252.227 59.6172 252.75 59.4688C253.281 59.3125 253.828 59.2344 254.391 59.2344C255.797 59.2344 256.949 59.6523 257.848 60.4883C258.746 61.3164 259.195 62.3398 259.195 63.5586V71ZM253.676 69.0781C254.652 69.0781 255.414 68.7891 255.961 68.2109C256.516 67.625 256.793 66.793 256.793 65.7148V65.4805L253.066 66.0781C252.637 66.1562 252.289 66.332 252.023 66.6055C251.758 66.8789 251.625 67.2227 251.625 67.6367C251.625 68.0195 251.809 68.3555 252.176 68.6445C252.551 68.9336 253.051 69.0781 253.676 69.0781ZM268.676 64.5195L272.883 59.4805H274.805V71H272.402V63.4414L268.676 67.8828L264.961 63.4414V71H262.559V59.4805H264.48L268.676 64.5195Z" fill="white"/>
<path d="M138.188 111.688V116H121.383V111.688H138.188ZM164.32 128H142.008C142.008 125.922 142.32 124.039 142.945 122.352C143.57 120.648 144.383 119.234 145.383 118.109C146.398 116.984 147.508 115.953 148.711 115.016C149.93 114.078 151.141 113.227 152.344 112.461C153.547 111.68 154.648 110.914 155.648 110.164C156.664 109.414 157.484 108.539 158.109 107.539C158.734 106.523 159.047 105.422 159.047 104.234C159.047 102.531 158.516 101.188 157.453 100.203C156.406 99.2188 154.938 98.7266 153.047 98.7266C152.125 98.7266 151.258 98.8984 150.445 99.2422C149.648 99.5703 149.023 99.9688 148.57 100.438C148.133 100.891 147.742 101.352 147.398 101.82C147.07 102.289 146.844 102.695 146.719 103.039L146.555 103.531L142.242 101.609C142.305 101.391 142.391 101.109 142.5 100.766C142.625 100.422 142.953 99.8125 143.484 98.9375C144.031 98.0625 144.664 97.2891 145.383 96.6172C146.102 95.9453 147.141 95.3281 148.5 94.7656C149.859 94.2031 151.375 93.9219 153.047 93.9219C156.344 93.9219 159.047 94.9141 161.156 96.8984C163.266 98.8828 164.32 101.328 164.32 104.234C164.32 105.766 164.008 107.188 163.383 108.5C162.758 109.812 161.961 110.914 160.992 111.805C160.039 112.68 158.938 113.586 157.688 114.523C156.453 115.445 155.25 116.289 154.078 117.055C152.906 117.82 151.75 118.742 150.609 119.82C149.484 120.883 148.617 122.008 148.008 123.195H164.32V128ZM186.188 110.234C186.344 110.297 186.555 110.391 186.82 110.516C187.102 110.625 187.586 110.906 188.273 111.359C188.961 111.797 189.57 112.305 190.102 112.883C190.633 113.461 191.109 114.266 191.531 115.297C191.969 116.312 192.188 117.43 192.188 118.648C192.188 121.398 191.086 123.727 188.883 125.633C186.695 127.523 183.797 128.469 180.188 128.469C178.656 128.469 177.203 128.289 175.828 127.93C174.453 127.555 173.312 127.117 172.406 126.617C171.516 126.102 170.742 125.586 170.086 125.07C169.43 124.555 168.953 124.125 168.656 123.781L168.188 123.195L171.539 119.844C171.602 119.938 171.711 120.078 171.867 120.266C172.039 120.438 172.398 120.75 172.945 121.203C173.492 121.641 174.062 122.031 174.656 122.375C175.266 122.703 176.062 123.008 177.047 123.289C178.047 123.555 179.094 123.688 180.188 123.688C182.266 123.688 183.906 123.188 185.109 122.188C186.312 121.172 186.914 119.914 186.914 118.414C186.914 116.898 186.312 115.641 185.109 114.641C183.906 113.625 182.266 113.117 180.188 113.117H176.836V108.312H180.188C181.844 108.312 183.133 107.883 184.055 107.023C184.992 106.164 185.461 105 185.461 103.531C185.461 102.047 184.992 100.875 184.055 100.016C183.133 99.1562 181.844 98.7266 180.188 98.7266C178.781 98.7266 177.453 99.0312 176.203 99.6406C174.953 100.25 174.07 100.836 173.555 101.398L172.758 102.312L169.383 98.9609C169.477 98.8359 169.617 98.6641 169.805 98.4453C170.008 98.2109 170.445 97.7969 171.117 97.2031C171.789 96.6094 172.508 96.1016 173.273 95.6797C174.039 95.2422 175.047 94.8438 176.297 94.4844C177.547 94.1094 178.844 93.9219 180.188 93.9219C183.484 93.9219 186.07 94.7734 187.945 96.4766C189.82 98.1641 190.758 100.352 190.758 103.039C190.758 103.961 190.594 104.852 190.266 105.711C189.953 106.555 189.57 107.242 189.117 107.773C188.664 108.305 188.219 108.766 187.781 109.156C187.359 109.531 186.984 109.797 186.656 109.953L186.188 110.234ZM209.648 96.1016C211.133 97.5547 211.875 99.3047 211.875 101.352C211.875 103.398 211.133 105.156 209.648 106.625C208.164 108.078 206.344 108.805 204.188 108.805C202.047 108.805 200.234 108.078 198.75 106.625C197.266 105.156 196.523 103.398 196.523 101.352C196.523 99.3047 197.266 97.5547 198.75 96.1016C200.234 94.6484 202.047 93.9219 204.188 93.9219C206.344 93.9219 208.164 94.6484 209.648 96.1016ZM201.469 98.6328C200.734 99.3672 200.367 100.281 200.367 101.375C200.367 102.453 200.734 103.359 201.469 104.094C202.203 104.828 203.109 105.195 204.188 105.195C205.281 105.195 206.195 104.828 206.93 104.094C207.664 103.359 208.031 102.453 208.031 101.375C208.031 100.281 207.664 99.3672 206.93 98.6328C206.195 97.8984 205.281 97.5312 204.188 97.5312C203.109 97.5312 202.203 97.8984 201.469 98.6328ZM200.367 128L221.484 94.3906H225.797L204.68 128H200.367ZM216.516 126.289C215.031 124.836 214.289 123.086 214.289 121.039C214.289 118.992 215.031 117.242 216.516 115.789C218 114.336 219.812 113.609 221.953 113.609C224.109 113.609 225.93 114.336 227.414 115.789C228.898 117.242 229.641 118.992 229.641 121.039C229.641 123.086 228.898 124.836 227.414 126.289C225.93 127.742 224.109 128.469 221.953 128.469C219.812 128.469 218 127.742 216.516 126.289ZM224.695 123.781C225.43 123.047 225.797 122.133 225.797 121.039C225.797 119.945 225.43 119.031 224.695 118.297C223.961 117.562 223.047 117.195 221.953 117.195C220.875 117.195 219.969 117.562 219.234 118.297C218.5 119.031 218.133 119.945 218.133 121.039C218.133 122.133 218.5 123.047 219.234 123.781C219.969 124.516 220.875 124.883 221.953 124.883C223.047 124.883 223.961 124.516 224.695 123.781Z" fill="white"/>
</svg>
