<svg width="350" height="210" viewBox="0 0 350 210" fill="none" xmlns="http://www.w3.org/2000/svg">
<path d="M175 208.754L3.02309 81H30H31V80V1H319V80V81H320H346.977L175 208.754Z" fill="#2E55E2" fill-opacity="0.4" stroke="#2E55E2" stroke-width="2"/>
<path d="M96.8203 23.7969H101.297C102.365 23.7969 103.258 24.1484 103.977 24.8516C104.701 25.5495 105.062 26.401 105.062 27.4062C105.062 28.4062 104.701 29.2552 103.977 29.9531C103.258 30.651 102.365 31 101.297 31H98.5781V35H96.8203V23.7969ZM101.297 25.3984H98.5781V29.3984H101.297C101.849 29.3984 102.32 29.2083 102.711 28.8281C103.102 28.4427 103.297 27.9688 103.297 27.4062C103.297 26.8385 103.102 26.362 102.711 25.9766C102.32 25.5911 101.849 25.3984 101.297 25.3984ZM112.656 27.3203H114.094V35H112.492V29.9609L108.492 35H107.055V27.3203H108.656V32.3594L112.656 27.3203ZM117.055 33.9609C116.258 33.1693 115.859 32.237 115.859 31.1641C115.859 30.0859 116.255 29.1484 117.047 28.3516C117.844 27.5547 118.781 27.1562 119.859 27.1562C120.458 27.1562 121.016 27.2865 121.531 27.5469C122.047 27.8021 122.417 28.0573 122.641 28.3125L122.977 28.6797L121.938 29.7188C121.885 29.6354 121.805 29.5339 121.695 29.4141C121.591 29.2891 121.359 29.1224 121 28.9141C120.646 28.7057 120.266 28.6016 119.859 28.6016C119.208 28.6016 118.643 28.849 118.164 29.3438C117.69 29.8385 117.453 30.4453 117.453 31.1641C117.453 31.8776 117.69 32.4818 118.164 32.9766C118.643 33.4714 119.208 33.7188 119.859 33.7188C120.266 33.7188 120.646 33.6172 121 33.4141C121.359 33.2109 121.617 33.013 121.773 32.8203L122.016 32.5234L123.055 33.5625C123.023 33.6042 122.977 33.6641 122.914 33.7422C122.852 33.8151 122.716 33.9427 122.508 34.125C122.299 34.3021 122.081 34.4609 121.852 34.6016C121.622 34.737 121.326 34.8646 120.961 34.9844C120.596 35.099 120.229 35.1562 119.859 35.1562C118.781 35.1562 117.846 34.7578 117.055 33.9609ZM131.453 27.3203L128.492 30.5234L131.688 35H129.93L127.453 31.5625L126.25 32.8438V35H124.648V27.3203H126.25V30.7578L129.531 27.3203H131.453ZM141.523 27.3203V28.7578H137.766V35H136.164V27.3203H141.523ZM148.016 32.9766C148.49 32.4818 148.727 31.8776 148.727 31.1641C148.727 30.4453 148.49 29.8385 148.016 29.3438C147.542 28.849 146.979 28.6016 146.328 28.6016C145.677 28.6016 145.112 28.849 144.633 29.3438C144.159 29.8385 143.922 30.4453 143.922 31.1641C143.922 31.8776 144.159 32.4818 144.633 32.9766C145.112 33.4714 145.677 33.7188 146.328 33.7188C146.979 33.7188 147.542 33.4714 148.016 32.9766ZM143.523 33.9609C142.727 33.1693 142.328 32.237 142.328 31.1641C142.328 30.0859 142.724 29.1484 143.516 28.3516C144.312 27.5547 145.25 27.1562 146.328 27.1562C147.406 27.1562 148.341 27.5547 149.133 28.3516C149.93 29.1484 150.328 30.0859 150.328 31.1641C150.328 32.237 149.93 33.1719 149.133 33.9688C148.341 34.7604 147.406 35.1562 146.328 35.1562C145.25 35.1562 144.315 34.7578 143.523 33.9609ZM152.805 33.9609C152.008 33.1693 151.609 32.237 151.609 31.1641C151.609 30.0859 152.005 29.1484 152.797 28.3516C153.594 27.5547 154.531 27.1562 155.609 27.1562C156.208 27.1562 156.766 27.2865 157.281 27.5469C157.797 27.8021 158.167 28.0573 158.391 28.3125L158.727 28.6797L157.688 29.7188C157.635 29.6354 157.555 29.5339 157.445 29.4141C157.341 29.2891 157.109 29.1224 156.75 28.9141C156.396 28.7057 156.016 28.6016 155.609 28.6016C154.958 28.6016 154.393 28.849 153.914 29.3438C153.44 29.8385 153.203 30.4453 153.203 31.1641C153.203 31.8776 153.44 32.4818 153.914 32.9766C154.393 33.4714 154.958 33.7188 155.609 33.7188C156.016 33.7188 156.396 33.6172 156.75 33.4141C157.109 33.2109 157.367 33.013 157.523 32.8203L157.766 32.5234L158.805 33.5625C158.773 33.6042 158.727 33.6641 158.664 33.7422C158.602 33.8151 158.466 33.9427 158.258 34.125C158.049 34.3021 157.831 34.4609 157.602 34.6016C157.372 34.737 157.076 34.8646 156.711 34.9844C156.346 35.099 155.979 35.1562 155.609 35.1562C154.531 35.1562 153.596 34.7578 152.805 33.9609ZM162 28.7578V35H160.398V27.3203H167.359V35H165.758V28.7578H162ZM175.203 27.3203H176.641V35H175.039V29.9609L171.039 35H169.602V27.3203H171.203V32.3594L175.203 27.3203ZM178.086 28.7578V27.3203H184.961V28.7578H182.32V35H180.727V28.7578H178.086ZM192.562 35H190.961V34.2031C190.94 34.224 190.904 34.2578 190.852 34.3047C190.805 34.3516 190.706 34.4297 190.555 34.5391C190.409 34.6432 190.25 34.7396 190.078 34.8281C189.906 34.9115 189.69 34.987 189.43 35.0547C189.169 35.1224 188.906 35.1562 188.641 35.1562C187.859 35.1562 187.211 34.9297 186.695 34.4766C186.18 34.0234 185.922 33.5052 185.922 32.9219C185.922 32.2917 186.12 31.763 186.516 31.3359C186.917 30.9089 187.464 30.638 188.156 30.5234L190.961 30.0391C190.961 29.6328 190.81 29.2917 190.508 29.0156C190.211 28.7396 189.828 28.6016 189.359 28.6016C188.953 28.6016 188.583 28.6875 188.25 28.8594C187.922 29.026 187.695 29.1953 187.57 29.3672L187.359 29.6406L186.32 28.6016C186.352 28.5599 186.393 28.5078 186.445 28.4453C186.503 28.3776 186.625 28.263 186.812 28.1016C187.005 27.9349 187.208 27.7865 187.422 27.6562C187.635 27.526 187.917 27.4115 188.266 27.3125C188.62 27.2083 188.984 27.1562 189.359 27.1562C190.297 27.1562 191.065 27.4349 191.664 27.9922C192.263 28.5443 192.562 29.2266 192.562 30.0391V35ZM188.883 33.7188C189.534 33.7188 190.042 33.526 190.406 33.1406C190.776 32.75 190.961 32.1953 190.961 31.4766V31.3203L188.477 31.7188C188.19 31.7708 187.958 31.888 187.781 32.0703C187.604 32.2526 187.516 32.4818 187.516 32.7578C187.516 33.013 187.638 33.237 187.883 33.4297C188.133 33.6224 188.466 33.7188 188.883 33.7188ZM195.688 27.3203H201.609V35H200.008V28.7578H197.289V29.5625C197.289 31.026 197.172 32.1823 196.938 33.0312C196.708 33.875 196.411 34.4401 196.047 34.7266C195.688 35.013 195.221 35.1562 194.648 35.1562C194.508 35.1562 194.357 35.1432 194.195 35.1172C194.039 35.0911 193.917 35.0625 193.828 35.0312L193.688 35V33.4766C193.901 33.5286 194.086 33.5573 194.242 33.5625C194.57 33.5625 194.828 33.474 195.016 33.2969C195.208 33.1198 195.367 32.7292 195.492 32.125C195.622 31.5156 195.688 30.6615 195.688 29.5625V27.3203ZM209.453 27.3203H210.891V35H209.289V29.9609L205.289 35H203.852V27.3203H205.453V32.3594L209.453 27.3203ZM218.25 29.3203C218.25 29.6745 218.151 29.9844 217.953 30.25C217.76 30.5156 217.562 30.6901 217.359 30.7734L217.055 30.9219C217.096 30.9323 217.151 30.9505 217.219 30.9766C217.292 31.0026 217.411 31.0651 217.578 31.1641C217.75 31.2578 217.901 31.3724 218.031 31.5078C218.167 31.638 218.289 31.8203 218.398 32.0547C218.513 32.2891 218.57 32.5521 218.57 32.8438C218.57 33.4844 218.284 34.0312 217.711 34.4844C217.143 34.9323 216.365 35.1562 215.375 35.1562C215 35.1562 214.638 35.1094 214.289 35.0156C213.945 34.9219 213.659 34.8099 213.43 34.6797C213.201 34.5495 213 34.4193 212.828 34.2891C212.656 34.1536 212.529 34.0391 212.445 33.9453L212.336 33.7969L213.375 32.7578C213.438 32.8307 213.521 32.9219 213.625 33.0312C213.734 33.1406 213.964 33.2839 214.312 33.4609C214.667 33.6328 215.021 33.7188 215.375 33.7188C215.906 33.7188 216.305 33.6198 216.57 33.4219C216.841 33.224 216.977 32.9766 216.977 32.6797C216.977 32.3828 216.841 32.1354 216.57 31.9375C216.305 31.7396 215.906 31.6406 215.375 31.6406H214.492V30.3594H215.375C215.792 30.3594 216.109 30.2786 216.328 30.1172C216.547 29.9505 216.656 29.7396 216.656 29.4844C216.656 29.224 216.547 29.013 216.328 28.8516C216.109 28.6849 215.792 28.6016 215.375 28.6016C215.068 28.6016 214.766 28.6615 214.469 28.7812C214.177 28.8958 213.961 29.0156 213.82 29.1406L213.617 29.3203L212.57 28.2812C212.643 28.1979 212.75 28.0938 212.891 27.9688C213.031 27.8438 213.344 27.6771 213.828 27.4688C214.312 27.2604 214.828 27.1562 215.375 27.1562C216.26 27.1562 216.961 27.3698 217.477 27.7969C217.992 28.224 218.25 28.7318 218.25 29.3203ZM226.5 35H224.898V34.2031C224.878 34.224 224.841 34.2578 224.789 34.3047C224.742 34.3516 224.643 34.4297 224.492 34.5391C224.346 34.6432 224.188 34.7396 224.016 34.8281C223.844 34.9115 223.628 34.987 223.367 35.0547C223.107 35.1224 222.844 35.1562 222.578 35.1562C221.797 35.1562 221.148 34.9297 220.633 34.4766C220.117 34.0234 219.859 33.5052 219.859 32.9219C219.859 32.2917 220.057 31.763 220.453 31.3359C220.854 30.9089 221.401 30.638 222.094 30.5234L224.898 30.0391C224.898 29.6328 224.747 29.2917 224.445 29.0156C224.148 28.7396 223.766 28.6016 223.297 28.6016C222.891 28.6016 222.521 28.6875 222.188 28.8594C221.859 29.026 221.633 29.1953 221.508 29.3672L221.297 29.6406L220.258 28.6016C220.289 28.5599 220.331 28.5078 220.383 28.4453C220.44 28.3776 220.562 28.263 220.75 28.1016C220.943 27.9349 221.146 27.7865 221.359 27.6562C221.573 27.526 221.854 27.4115 222.203 27.3125C222.557 27.2083 222.922 27.1562 223.297 27.1562C224.234 27.1562 225.003 27.4349 225.602 27.9922C226.201 28.5443 226.5 29.2266 226.5 30.0391V35ZM222.82 33.7188C223.471 33.7188 223.979 33.526 224.344 33.1406C224.714 32.75 224.898 32.1953 224.898 31.4766V31.3203L222.414 31.7188C222.128 31.7708 221.896 31.888 221.719 32.0703C221.542 32.2526 221.453 32.4818 221.453 32.7578C221.453 33.013 221.576 33.237 221.82 33.4297C222.07 33.6224 222.404 33.7188 222.82 33.7188ZM228.742 35V27.3203H230.344V33.5625H233.945V27.3203H235.547V33.5625H236.664V36.9219H235.062V35H228.742ZM243.859 27.3203H245.297V35H243.695V29.9609L239.695 35H238.258V27.3203H239.859V32.3594L243.859 27.3203ZM253.141 27.3203H254.578V35H252.977V29.9609L248.977 35H247.539V27.3203H249.141V32.3594L253.141 27.3203ZM110.734 47.7578V54H109.133V46.3203H116.094V54H114.492V47.7578H110.734ZM123.547 51.9766C124.021 51.4818 124.258 50.8776 124.258 50.1641C124.258 49.4453 124.021 48.8385 123.547 48.3438C123.073 47.849 122.51 47.6016 121.859 47.6016C121.208 47.6016 120.643 47.849 120.164 48.3438C119.69 48.8385 119.453 49.4453 119.453 50.1641C119.453 50.8776 119.69 51.4818 120.164 51.9766C120.643 52.4714 121.208 52.7188 121.859 52.7188C122.51 52.7188 123.073 52.4714 123.547 51.9766ZM119.055 52.9609C118.258 52.1693 117.859 51.237 117.859 50.1641C117.859 49.0859 118.255 48.1484 119.047 47.3516C119.844 46.5547 120.781 46.1562 121.859 46.1562C122.938 46.1562 123.872 46.5547 124.664 47.3516C125.461 48.1484 125.859 49.0859 125.859 50.1641C125.859 51.237 125.461 52.1719 124.664 52.9688C123.872 53.7604 122.938 54.1562 121.859 54.1562C120.781 54.1562 119.846 53.7578 119.055 52.9609ZM130.82 46.3203H134.5C135.234 46.3203 135.818 46.5104 136.25 46.8906C136.682 47.2656 136.898 47.7422 136.898 48.3203C136.898 48.6484 136.826 48.9479 136.68 49.2188C136.539 49.4844 136.393 49.6693 136.242 49.7734L136.023 49.9219C136.055 49.9323 136.099 49.9505 136.156 49.9766C136.214 50.0026 136.318 50.0703 136.469 50.1797C136.62 50.2839 136.75 50.401 136.859 50.5312C136.974 50.6562 137.076 50.8281 137.164 51.0469C137.258 51.2656 137.305 51.5026 137.305 51.7578C137.305 52.4193 137.068 52.9583 136.594 53.375C136.125 53.7917 135.482 54 134.664 54H130.82V46.3203ZM134.664 50.5625H132.422V52.6406H134.664C134.982 52.6406 135.234 52.5469 135.422 52.3594C135.609 52.1719 135.703 51.9193 135.703 51.6016C135.703 51.3151 135.607 51.0703 135.414 50.8672C135.221 50.6641 134.971 50.5625 134.664 50.5625ZM135.086 49.0625C135.232 48.9219 135.305 48.7292 135.305 48.4844C135.305 48.2344 135.232 48.0391 135.086 47.8984C134.94 47.7526 134.745 47.6797 134.5 47.6797H132.422V49.2812H134.5C134.745 49.2812 134.94 49.2083 135.086 49.0625ZM139.773 52.9609C138.977 52.1693 138.578 51.237 138.578 50.1641C138.578 49.0859 138.974 48.1484 139.766 47.3516C140.562 46.5547 141.5 46.1562 142.578 46.1562C143.177 46.1562 143.734 46.2865 144.25 46.5469C144.766 46.8021 145.135 47.0573 145.359 47.3125L145.695 47.6797L144.656 48.7188C144.604 48.6354 144.523 48.5339 144.414 48.4141C144.31 48.2891 144.078 48.1224 143.719 47.9141C143.365 47.7057 142.984 47.6016 142.578 47.6016C141.927 47.6016 141.362 47.849 140.883 48.3438C140.409 48.8385 140.172 49.4453 140.172 50.1641C140.172 50.8776 140.409 51.4818 140.883 51.9766C141.362 52.4714 141.927 52.7188 142.578 52.7188C142.984 52.7188 143.365 52.6172 143.719 52.4141C144.078 52.2109 144.336 52.013 144.492 51.8203L144.734 51.5234L145.773 52.5625C145.742 52.6042 145.695 52.6641 145.633 52.7422C145.57 52.8151 145.435 52.9427 145.227 53.125C145.018 53.3021 144.799 53.4609 144.57 53.6016C144.341 53.737 144.044 53.8646 143.68 53.9844C143.315 54.099 142.948 54.1562 142.578 54.1562C141.5 54.1562 140.565 53.7578 139.773 52.9609ZM154.484 50.7188H148.484C148.568 51.2604 148.833 51.7292 149.281 52.125C149.734 52.5208 150.271 52.7188 150.891 52.7188C151.339 52.7188 151.755 52.6172 152.141 52.4141C152.531 52.2109 152.807 52.013 152.969 51.8203L153.211 51.5234L154.25 52.5625C154.219 52.6042 154.169 52.6641 154.102 52.7422C154.039 52.8151 153.901 52.9427 153.688 53.125C153.474 53.3021 153.247 53.4609 153.008 53.6016C152.768 53.737 152.456 53.8646 152.07 53.9844C151.69 54.099 151.297 54.1562 150.891 54.1562C149.802 54.1562 148.862 53.7578 148.07 52.9609C147.284 52.1589 146.891 51.1979 146.891 50.0781C146.891 49 147.273 48.0781 148.039 47.3125C148.81 46.5417 149.732 46.1562 150.805 46.1562C151.883 46.1562 152.779 46.5156 153.492 47.2344C154.211 47.9479 154.57 48.8438 154.57 49.9219L154.484 50.7188ZM150.805 47.5234C150.227 47.5234 149.74 47.6953 149.344 48.0391C148.953 48.3776 148.69 48.8177 148.555 49.3594H153C152.906 48.8177 152.664 48.3776 152.273 48.0391C151.883 47.6953 151.393 47.5234 150.805 47.5234ZM160.398 49.6797L163.203 46.3203H164.484V54H162.883V48.9609L160.398 51.9219L157.922 48.9609V54H156.32V46.3203H157.602L160.398 49.6797ZM171.531 47.7578V54H169.93V46.3203H176.891V54H175.289V47.7578H171.531ZM183.211 54.1562C182.924 54.1562 182.646 54.1224 182.375 54.0547C182.104 53.987 181.872 53.9036 181.68 53.8047C181.487 53.7005 181.315 53.5964 181.164 53.4922C181.018 53.3828 180.911 53.2969 180.844 53.2344L180.734 53.1172V57.3594H179.133V46.3203H180.734V47.2031C180.807 47.1302 180.909 47.0339 181.039 46.9141C181.174 46.7943 181.458 46.638 181.891 46.4453C182.323 46.2526 182.763 46.1562 183.211 46.1562C184.227 46.1562 185.107 46.5469 185.852 47.3281C186.602 48.1042 186.977 49.0469 186.977 50.1562C186.977 51.2656 186.602 52.2109 185.852 52.9922C185.107 53.7682 184.227 54.1562 183.211 54.1562ZM184.672 48.3516C184.203 47.8516 183.664 47.6016 183.055 47.6016C182.445 47.6016 181.906 47.8516 181.438 48.3516C180.969 48.8516 180.734 49.4557 180.734 50.1641C180.734 50.8672 180.969 51.4688 181.438 51.9688C181.906 52.4688 182.445 52.7188 183.055 52.7188C183.664 52.7188 184.203 52.4688 184.672 51.9688C185.141 51.4688 185.375 50.8672 185.375 50.1641C185.375 49.4557 185.141 48.8516 184.672 48.3516ZM194.328 46.3203H195.766V54H194.164V48.9609L190.164 54H188.727V46.3203H190.328V51.3594L194.328 46.3203ZM202.812 54V51.1172C202.281 51.4922 201.641 51.6797 200.891 51.6797C199.964 51.6797 199.224 51.401 198.672 50.8438C198.125 50.2812 197.852 49.5208 197.852 48.5625V46.3203H199.445V48.5625C199.445 49.0417 199.599 49.4427 199.906 49.7656C200.219 50.0833 200.599 50.2422 201.047 50.2422C201.375 50.2422 201.685 50.1901 201.977 50.0859C202.273 49.9766 202.487 49.8672 202.617 49.7578L202.812 49.6016V46.3203H204.406V54H202.812ZM212.25 46.3203H213.688V54H212.086V48.9609L208.086 54H206.648V46.3203H208.25V51.3594L212.25 46.3203ZM217.531 50.7969V54H215.93V46.3203H217.531V49.3594H221.289V46.3203H222.891V54H221.289V50.7969H217.531ZM231.297 54H229.695V53.2031C229.674 53.224 229.638 53.2578 229.586 53.3047C229.539 53.3516 229.44 53.4297 229.289 53.5391C229.143 53.6432 228.984 53.7396 228.812 53.8281C228.641 53.9115 228.424 53.987 228.164 54.0547C227.904 54.1224 227.641 54.1562 227.375 54.1562C226.594 54.1562 225.945 53.9297 225.43 53.4766C224.914 53.0234 224.656 52.5052 224.656 51.9219C224.656 51.2917 224.854 50.763 225.25 50.3359C225.651 49.9089 226.198 49.638 226.891 49.5234L229.695 49.0391C229.695 48.6328 229.544 48.2917 229.242 48.0156C228.945 47.7396 228.562 47.6016 228.094 47.6016C227.688 47.6016 227.318 47.6875 226.984 47.8594C226.656 48.026 226.43 48.1953 226.305 48.3672L226.094 48.6406L225.055 47.6016C225.086 47.5599 225.128 47.5078 225.18 47.4453C225.237 47.3776 225.359 47.263 225.547 47.1016C225.74 46.9349 225.943 46.7865 226.156 46.6562C226.37 46.526 226.651 46.4115 227 46.3125C227.354 46.2083 227.719 46.1562 228.094 46.1562C229.031 46.1562 229.799 46.4349 230.398 46.9922C230.997 47.5443 231.297 48.2266 231.297 49.0391V54ZM227.617 52.7188C228.268 52.7188 228.776 52.526 229.141 52.1406C229.51 51.75 229.695 51.1953 229.695 50.4766V50.3203L227.211 50.7188C226.924 50.7708 226.693 50.888 226.516 51.0703C226.339 51.2526 226.25 51.4818 226.25 51.7578C226.25 52.013 226.372 52.237 226.617 52.4297C226.867 52.6224 227.201 52.7188 227.617 52.7188ZM237.617 49.6797L240.422 46.3203H241.703V54H240.102V48.9609L237.617 51.9219L235.141 48.9609V54H233.539V46.3203H234.82L237.617 49.6797Z" fill="white"/>
<path d="M138.188 111.688V116H121.383V111.688H138.188ZM164.32 128H142.008C142.008 125.922 142.32 124.039 142.945 122.352C143.57 120.648 144.383 119.234 145.383 118.109C146.398 116.984 147.508 115.953 148.711 115.016C149.93 114.078 151.141 113.227 152.344 112.461C153.547 111.68 154.648 110.914 155.648 110.164C156.664 109.414 157.484 108.539 158.109 107.539C158.734 106.523 159.047 105.422 159.047 104.234C159.047 102.531 158.516 101.188 157.453 100.203C156.406 99.2188 154.938 98.7266 153.047 98.7266C152.125 98.7266 151.258 98.8984 150.445 99.2422C149.648 99.5703 149.023 99.9688 148.57 100.438C148.133 100.891 147.742 101.352 147.398 101.82C147.07 102.289 146.844 102.695 146.719 103.039L146.555 103.531L142.242 101.609C142.305 101.391 142.391 101.109 142.5 100.766C142.625 100.422 142.953 99.8125 143.484 98.9375C144.031 98.0625 144.664 97.2891 145.383 96.6172C146.102 95.9453 147.141 95.3281 148.5 94.7656C149.859 94.2031 151.375 93.9219 153.047 93.9219C156.344 93.9219 159.047 94.9141 161.156 96.8984C163.266 98.8828 164.32 101.328 164.32 104.234C164.32 105.766 164.008 107.188 163.383 108.5C162.758 109.812 161.961 110.914 160.992 111.805C160.039 112.68 158.938 113.586 157.688 114.523C156.453 115.445 155.25 116.289 154.078 117.055C152.906 117.82 151.75 118.742 150.609 119.82C149.484 120.883 148.617 122.008 148.008 123.195H164.32V128ZM186.188 110.234C186.344 110.297 186.555 110.391 186.82 110.516C187.102 110.625 187.586 110.906 188.273 111.359C188.961 111.797 189.57 112.305 190.102 112.883C190.633 113.461 191.109 114.266 191.531 115.297C191.969 116.312 192.188 117.43 192.188 118.648C192.188 121.398 191.086 123.727 188.883 125.633C186.695 127.523 183.797 128.469 180.188 128.469C178.656 128.469 177.203 128.289 175.828 127.93C174.453 127.555 173.312 127.117 172.406 126.617C171.516 126.102 170.742 125.586 170.086 125.07C169.43 124.555 168.953 124.125 168.656 123.781L168.188 123.195L171.539 119.844C171.602 119.938 171.711 120.078 171.867 120.266C172.039 120.438 172.398 120.75 172.945 121.203C173.492 121.641 174.062 122.031 174.656 122.375C175.266 122.703 176.062 123.008 177.047 123.289C178.047 123.555 179.094 123.688 180.188 123.688C182.266 123.688 183.906 123.188 185.109 122.188C186.312 121.172 186.914 119.914 186.914 118.414C186.914 116.898 186.312 115.641 185.109 114.641C183.906 113.625 182.266 113.117 180.188 113.117H176.836V108.312H180.188C181.844 108.312 183.133 107.883 184.055 107.023C184.992 106.164 185.461 105 185.461 103.531C185.461 102.047 184.992 100.875 184.055 100.016C183.133 99.1562 181.844 98.7266 180.188 98.7266C178.781 98.7266 177.453 99.0312 176.203 99.6406C174.953 100.25 174.07 100.836 173.555 101.398L172.758 102.312L169.383 98.9609C169.477 98.8359 169.617 98.6641 169.805 98.4453C170.008 98.2109 170.445 97.7969 171.117 97.2031C171.789 96.6094 172.508 96.1016 173.273 95.6797C174.039 95.2422 175.047 94.8438 176.297 94.4844C177.547 94.1094 178.844 93.9219 180.188 93.9219C183.484 93.9219 186.07 94.7734 187.945 96.4766C189.82 98.1641 190.758 100.352 190.758 103.039C190.758 103.961 190.594 104.852 190.266 105.711C189.953 106.555 189.57 107.242 189.117 107.773C188.664 108.305 188.219 108.766 187.781 109.156C187.359 109.531 186.984 109.797 186.656 109.953L186.188 110.234ZM209.648 96.1016C211.133 97.5547 211.875 99.3047 211.875 101.352C211.875 103.398 211.133 105.156 209.648 106.625C208.164 108.078 206.344 108.805 204.188 108.805C202.047 108.805 200.234 108.078 198.75 106.625C197.266 105.156 196.523 103.398 196.523 101.352C196.523 99.3047 197.266 97.5547 198.75 96.1016C200.234 94.6484 202.047 93.9219 204.188 93.9219C206.344 93.9219 208.164 94.6484 209.648 96.1016ZM201.469 98.6328C200.734 99.3672 200.367 100.281 200.367 101.375C200.367 102.453 200.734 103.359 201.469 104.094C202.203 104.828 203.109 105.195 204.188 105.195C205.281 105.195 206.195 104.828 206.93 104.094C207.664 103.359 208.031 102.453 208.031 101.375C208.031 100.281 207.664 99.3672 206.93 98.6328C206.195 97.8984 205.281 97.5312 204.188 97.5312C203.109 97.5312 202.203 97.8984 201.469 98.6328ZM200.367 128L221.484 94.3906H225.797L204.68 128H200.367ZM216.516 126.289C215.031 124.836 214.289 123.086 214.289 121.039C214.289 118.992 215.031 117.242 216.516 115.789C218 114.336 219.812 113.609 221.953 113.609C224.109 113.609 225.93 114.336 227.414 115.789C228.898 117.242 229.641 118.992 229.641 121.039C229.641 123.086 228.898 124.836 227.414 126.289C225.93 127.742 224.109 128.469 221.953 128.469C219.812 128.469 218 127.742 216.516 126.289ZM224.695 123.781C225.43 123.047 225.797 122.133 225.797 121.039C225.797 119.945 225.43 119.031 224.695 118.297C223.961 117.562 223.047 117.195 221.953 117.195C220.875 117.195 219.969 117.562 219.234 118.297C218.5 119.031 218.133 119.945 218.133 121.039C218.133 122.133 218.5 123.047 219.234 123.781C219.969 124.516 220.875 124.883 221.953 124.883C223.047 124.883 223.961 124.516 224.695 123.781Z" fill="white"/>
</svg>
