<svg width="350" height="210" viewBox="0 0 350 210" fill="none" xmlns="http://www.w3.org/2000/svg">
<path d="M175 208.754L3.02309 81H30H31V80V1H319V80V81H320H346.977L175 208.754Z" fill="#2E55E2" fill-opacity="0.4" stroke="#2E55E2" stroke-width="2"/>
<path d="M119.602 35H114.523V23.7969H119.328C120.344 23.7969 121.182 24.0938 121.844 24.6875C122.51 25.2812 122.844 25.9714 122.844 26.7578C122.844 27.0547 122.802 27.3385 122.719 27.6094C122.635 27.875 122.529 28.0964 122.398 28.2734C122.268 28.4505 122.138 28.6042 122.008 28.7344C121.883 28.8594 121.779 28.9479 121.695 29L121.562 29.0781C121.615 29.099 121.68 29.1302 121.758 29.1719C121.841 29.2083 121.99 29.3047 122.203 29.4609C122.417 29.612 122.604 29.7786 122.766 29.9609C122.927 30.1432 123.073 30.3932 123.203 30.7109C123.339 31.0234 123.406 31.3594 123.406 31.7188C123.406 32.6146 123.049 33.3854 122.336 34.0312C121.622 34.6771 120.711 35 119.602 35ZM116.93 33H119.484C119.922 33 120.284 32.862 120.57 32.5859C120.862 32.3099 121.008 31.9688 121.008 31.5625C121.008 31.1562 120.862 30.8151 120.57 30.5391C120.284 30.2578 119.922 30.1172 119.484 30.1172H116.93V33ZM119.164 25.7969H116.93V28.2031H119.164C119.56 28.2031 119.872 28.0938 120.102 27.875C120.331 27.6562 120.445 27.3646 120.445 27C120.445 26.6354 120.331 26.3438 120.102 26.125C119.872 25.9062 119.56 25.7969 119.164 25.7969ZM125.945 33.9297C125.107 33.1172 124.688 32.1667 124.688 31.0781C124.688 29.9896 125.107 29.0391 125.945 28.2266C126.784 27.4089 127.779 27 128.93 27C129.336 27 129.721 27.0573 130.086 27.1719C130.456 27.2812 130.758 27.4141 130.992 27.5703C131.227 27.7214 131.435 27.875 131.617 28.0312C131.799 28.1875 131.932 28.3229 132.016 28.4375L132.133 28.6016L130.773 29.9609C130.732 29.888 130.661 29.7917 130.562 29.6719C130.469 29.5521 130.26 29.3984 129.938 29.2109C129.62 29.0182 129.284 28.9219 128.93 28.9219C128.362 28.9219 127.872 29.1328 127.461 29.5547C127.055 29.9766 126.852 30.487 126.852 31.0859C126.852 31.6797 127.057 32.1875 127.469 32.6094C127.88 33.0312 128.367 33.2422 128.93 33.2422C129.284 33.2422 129.62 33.1562 129.938 32.9844C130.26 32.8125 130.495 32.6406 130.641 32.4688L130.852 32.2031L132.133 33.5625C132.102 33.6042 132.057 33.6641 132 33.7422C131.948 33.8151 131.823 33.9427 131.625 34.125C131.427 34.3021 131.214 34.4609 130.984 34.6016C130.755 34.737 130.456 34.8646 130.086 34.9844C129.721 35.099 129.336 35.1562 128.93 35.1562C127.779 35.1562 126.784 34.7474 125.945 33.9297ZM141.016 31.7969H135.336C135.419 32.224 135.646 32.5859 136.016 32.8828C136.385 33.1745 136.852 33.3203 137.414 33.3203C137.82 33.3203 138.195 33.2422 138.539 33.0859C138.888 32.9245 139.133 32.763 139.273 32.6016L139.5 32.3594L140.617 33.7969L140.477 33.9375C140.409 34.0052 140.268 34.1172 140.055 34.2734C139.841 34.4297 139.615 34.5703 139.375 34.6953C139.135 34.8151 138.823 34.9219 138.438 35.0156C138.057 35.1094 137.664 35.1562 137.258 35.1562C136.107 35.1562 135.125 34.7578 134.312 33.9609C133.5 33.1589 133.094 32.1979 133.094 31.0781C133.094 29.9583 133.495 29 134.297 28.2031C135.099 27.401 136.06 27 137.18 27C138.299 27 139.232 27.375 139.977 28.125C140.721 28.8698 141.094 29.8021 141.094 30.9219L141.016 31.7969ZM138.344 29.25C138.026 28.9792 137.638 28.8438 137.18 28.8438C136.721 28.8438 136.331 28.9766 136.008 29.2422C135.69 29.5078 135.466 29.8542 135.336 30.2812H138.938C138.854 29.8646 138.656 29.5208 138.344 29.25ZM146.758 33.9297C145.919 33.1172 145.5 32.1667 145.5 31.0781C145.5 29.9896 145.919 29.0391 146.758 28.2266C147.596 27.4089 148.591 27 149.742 27C150.148 27 150.534 27.0573 150.898 27.1719C151.268 27.2812 151.57 27.4141 151.805 27.5703C152.039 27.7214 152.247 27.875 152.43 28.0312C152.612 28.1875 152.745 28.3229 152.828 28.4375L152.945 28.6016L151.586 29.9609C151.544 29.888 151.474 29.7917 151.375 29.6719C151.281 29.5521 151.073 29.3984 150.75 29.2109C150.432 29.0182 150.096 28.9219 149.742 28.9219C149.174 28.9219 148.685 29.1328 148.273 29.5547C147.867 29.9766 147.664 30.487 147.664 31.0859C147.664 31.6797 147.87 32.1875 148.281 32.6094C148.693 33.0312 149.18 33.2422 149.742 33.2422C150.096 33.2422 150.432 33.1562 150.75 32.9844C151.073 32.8125 151.307 32.6406 151.453 32.4688L151.664 32.2031L152.945 33.5625C152.914 33.6042 152.87 33.6641 152.812 33.7422C152.76 33.8151 152.635 33.9427 152.438 34.125C152.24 34.3021 152.026 34.4609 151.797 34.6016C151.568 34.737 151.268 34.8646 150.898 34.9844C150.534 35.099 150.148 35.1562 149.742 35.1562C148.591 35.1562 147.596 34.7474 146.758 33.9297ZM155.188 27.1562H161.508V35H159.352V29.0781H157.273V29.5625C157.273 31.026 157.148 32.1901 156.898 33.0547C156.654 33.9141 156.336 34.4948 155.945 34.7969C155.56 35.0938 155.068 35.2422 154.469 35.2422C154.276 35.2422 154.086 35.2188 153.898 35.1719C153.716 35.1302 153.581 35.0938 153.492 35.0625L153.352 35V33.0781C153.513 33.1302 153.672 33.1562 153.828 33.1562C154.146 33.1562 154.396 33.0755 154.578 32.9141C154.76 32.7474 154.906 32.3802 155.016 31.8125C155.13 31.2396 155.188 30.4089 155.188 29.3203V27.1562ZM165.43 35.4766L165.672 34.9219L162.633 27.1562H164.875L166.711 32.3594L168.555 27.1562H170.789L167.672 35.4766C166.958 37.3984 165.945 38.3594 164.633 38.3594C164.398 38.3594 164.167 38.3385 163.938 38.2969C163.708 38.2552 163.539 38.2135 163.43 38.1719L163.273 38.1172V36.2031C163.487 36.3073 163.753 36.3594 164.07 36.3594C164.721 36.3594 165.174 36.0651 165.43 35.4766ZM176.547 35V32.3594C176.016 32.7344 175.401 32.9219 174.703 32.9219C173.807 32.9219 173.089 32.638 172.547 32.0703C172.01 31.4974 171.742 30.7135 171.742 29.7188V27.1562H173.906V29.5625C173.906 29.9583 174.029 30.2839 174.273 30.5391C174.518 30.7943 174.823 30.9219 175.188 30.9219C175.443 30.9219 175.685 30.8828 175.914 30.8047C176.143 30.7214 176.305 30.638 176.398 30.5547L176.547 30.4375V27.1562H178.703V35H176.547ZM185.102 35V34.2031C185.039 34.276 184.951 34.3672 184.836 34.4766C184.727 34.5807 184.484 34.7214 184.109 34.8984C183.734 35.0703 183.344 35.1562 182.938 35.1562C182.156 35.1562 181.521 34.9401 181.031 34.5078C180.542 34.0703 180.297 33.5417 180.297 32.9219C180.297 32.2812 180.503 31.7474 180.914 31.3203C181.326 30.8932 181.893 30.6146 182.617 30.4844L185.102 30.0391C185.102 29.7109 184.982 29.4427 184.742 29.2344C184.503 29.026 184.169 28.9219 183.742 28.9219C183.388 28.9219 183.065 28.9896 182.773 29.125C182.482 29.2552 182.276 29.3906 182.156 29.5312L181.977 29.7188L180.781 28.5234C180.812 28.4818 180.854 28.4271 180.906 28.3594C180.964 28.2865 181.086 28.1641 181.273 27.9922C181.466 27.8203 181.674 27.6693 181.898 27.5391C182.122 27.4036 182.417 27.2812 182.781 27.1719C183.146 27.0573 183.518 27 183.898 27C184.888 27 185.695 27.2969 186.32 27.8906C186.945 28.4792 187.258 29.2214 187.258 30.1172V35H185.102ZM183.5 33.3984C183.99 33.3984 184.378 33.2448 184.664 32.9375C184.956 32.625 185.102 32.1927 185.102 31.6406V31.3984L183.344 31.7188C182.755 31.8125 182.461 32.1068 182.461 32.6016C182.461 33.1328 182.807 33.3984 183.5 33.3984ZM194.898 27.1562H196.781V35H194.625V30.6016L191.211 35H189.344V27.1562H191.5V31.5625L194.898 27.1562ZM207.984 23.6406C208.552 23.6406 209.096 23.7161 209.617 23.8672C210.138 24.013 210.568 24.1927 210.906 24.4062C211.25 24.6198 211.549 24.8307 211.805 25.0391C212.06 25.2474 212.247 25.4271 212.367 25.5781L212.539 25.7969L211.422 26.9219C211.391 26.8802 211.344 26.8229 211.281 26.75C211.224 26.6719 211.089 26.5339 210.875 26.3359C210.661 26.138 210.432 25.9688 210.188 25.8281C209.943 25.6823 209.622 25.5495 209.227 25.4297C208.836 25.3047 208.422 25.2422 207.984 25.2422C206.823 25.2422 205.839 25.6458 205.031 26.4531C204.224 27.2552 203.82 28.237 203.82 29.3984C203.82 30.5599 204.221 31.5443 205.023 32.3516C205.831 33.1589 206.818 33.5625 207.984 33.5625C208.422 33.5625 208.839 33.5026 209.234 33.3828C209.635 33.2578 209.966 33.1094 210.227 32.9375C210.492 32.7656 210.724 32.5964 210.922 32.4297C211.125 32.2578 211.276 32.112 211.375 31.9922L211.5 31.7969L212.625 32.9219C212.583 32.9844 212.518 33.0677 212.43 33.1719C212.346 33.2708 212.156 33.4479 211.859 33.7031C211.568 33.9583 211.255 34.1849 210.922 34.3828C210.594 34.5807 210.161 34.7604 209.625 34.9219C209.094 35.0781 208.547 35.1562 207.984 35.1562C206.307 35.1562 204.901 34.599 203.766 33.4844C202.63 32.3698 202.062 31.0078 202.062 29.3984C202.062 27.7891 202.63 26.4271 203.766 25.3125C204.901 24.1979 206.307 23.6406 207.984 23.6406ZM219.812 23.6406C220.38 23.6406 220.924 23.7161 221.445 23.8672C221.966 24.013 222.396 24.1927 222.734 24.4062C223.078 24.6198 223.378 24.8307 223.633 25.0391C223.888 25.2474 224.076 25.4271 224.195 25.5781L224.367 25.7969L223.25 26.9219C223.219 26.8802 223.172 26.8229 223.109 26.75C223.052 26.6719 222.917 26.5339 222.703 26.3359C222.49 26.138 222.26 25.9688 222.016 25.8281C221.771 25.6823 221.451 25.5495 221.055 25.4297C220.664 25.3047 220.25 25.2422 219.812 25.2422C218.651 25.2422 217.667 25.6458 216.859 26.4531C216.052 27.2552 215.648 28.237 215.648 29.3984C215.648 30.5599 216.049 31.5443 216.852 32.3516C217.659 33.1589 218.646 33.5625 219.812 33.5625C220.25 33.5625 220.667 33.5026 221.062 33.3828C221.464 33.2578 221.794 33.1094 222.055 32.9375C222.32 32.7656 222.552 32.5964 222.75 32.4297C222.953 32.2578 223.104 32.112 223.203 31.9922L223.328 31.7969L224.453 32.9219C224.411 32.9844 224.346 33.0677 224.258 33.1719C224.174 33.2708 223.984 33.4479 223.688 33.7031C223.396 33.9583 223.083 34.1849 222.75 34.3828C222.422 34.5807 221.99 34.7604 221.453 34.9219C220.922 35.0781 220.375 35.1562 219.812 35.1562C218.135 35.1562 216.729 34.599 215.594 33.4844C214.458 32.3698 213.891 31.0078 213.891 29.3984C213.891 27.7891 214.458 26.4271 215.594 25.3125C216.729 24.1979 218.135 23.6406 219.812 23.6406ZM231.641 23.6406C232.208 23.6406 232.753 23.7161 233.273 23.8672C233.794 24.013 234.224 24.1927 234.562 24.4062C234.906 24.6198 235.206 24.8307 235.461 25.0391C235.716 25.2474 235.904 25.4271 236.023 25.5781L236.195 25.7969L235.078 26.9219C235.047 26.8802 235 26.8229 234.938 26.75C234.88 26.6719 234.745 26.5339 234.531 26.3359C234.318 26.138 234.089 25.9688 233.844 25.8281C233.599 25.6823 233.279 25.5495 232.883 25.4297C232.492 25.3047 232.078 25.2422 231.641 25.2422C230.479 25.2422 229.495 25.6458 228.688 26.4531C227.88 27.2552 227.477 28.237 227.477 29.3984C227.477 30.5599 227.878 31.5443 228.68 32.3516C229.487 33.1589 230.474 33.5625 231.641 33.5625C232.078 33.5625 232.495 33.5026 232.891 33.3828C233.292 33.2578 233.622 33.1094 233.883 32.9375C234.148 32.7656 234.38 32.5964 234.578 32.4297C234.781 32.2578 234.932 32.112 235.031 31.9922L235.156 31.7969L236.281 32.9219C236.24 32.9844 236.174 33.0677 236.086 33.1719C236.003 33.2708 235.812 33.4479 235.516 33.7031C235.224 33.9583 234.911 34.1849 234.578 34.3828C234.25 34.5807 233.818 34.7604 233.281 34.9219C232.75 35.0781 232.203 35.1562 231.641 35.1562C229.964 35.1562 228.557 34.599 227.422 33.4844C226.286 32.3698 225.719 31.0078 225.719 29.3984C225.719 27.7891 226.286 26.4271 227.422 25.3125C228.557 24.1979 229.964 23.6406 231.641 23.6406ZM89.9922 46.3203H91.4297V54H89.8281V48.9609L85.8281 54H84.3906V46.3203H85.9922V51.3594L89.9922 46.3203ZM102.234 46.3203V47.7578H98.4766V54H96.875V46.3203H102.234ZM108.727 51.9766C109.201 51.4818 109.438 50.8776 109.438 50.1641C109.438 49.4453 109.201 48.8385 108.727 48.3438C108.253 47.849 107.69 47.6016 107.039 47.6016C106.388 47.6016 105.823 47.849 105.344 48.3438C104.87 48.8385 104.633 49.4453 104.633 50.1641C104.633 50.8776 104.87 51.4818 105.344 51.9766C105.823 52.4714 106.388 52.7188 107.039 52.7188C107.69 52.7188 108.253 52.4714 108.727 51.9766ZM104.234 52.9609C103.438 52.1693 103.039 51.237 103.039 50.1641C103.039 49.0859 103.435 48.1484 104.227 47.3516C105.023 46.5547 105.961 46.1562 107.039 46.1562C108.117 46.1562 109.052 46.5547 109.844 47.3516C110.641 48.1484 111.039 49.0859 111.039 50.1641C111.039 51.237 110.641 52.1719 109.844 52.9688C109.052 53.7604 108.117 54.1562 107.039 54.1562C105.961 54.1562 105.026 53.7578 104.234 52.9609ZM113.516 52.9609C112.719 52.1693 112.32 51.237 112.32 50.1641C112.32 49.0859 112.716 48.1484 113.508 47.3516C114.305 46.5547 115.242 46.1562 116.32 46.1562C116.919 46.1562 117.477 46.2865 117.992 46.5469C118.508 46.8021 118.878 47.0573 119.102 47.3125L119.438 47.6797L118.398 48.7188C118.346 48.6354 118.266 48.5339 118.156 48.4141C118.052 48.2891 117.82 48.1224 117.461 47.9141C117.107 47.7057 116.727 47.6016 116.32 47.6016C115.669 47.6016 115.104 47.849 114.625 48.3438C114.151 48.8385 113.914 49.4453 113.914 50.1641C113.914 50.8776 114.151 51.4818 114.625 51.9766C115.104 52.4714 115.669 52.7188 116.32 52.7188C116.727 52.7188 117.107 52.6172 117.461 52.4141C117.82 52.2109 118.078 52.013 118.234 51.8203L118.477 51.5234L119.516 52.5625C119.484 52.6042 119.438 52.6641 119.375 52.7422C119.312 52.8151 119.177 52.9427 118.969 53.125C118.76 53.3021 118.542 53.4609 118.312 53.6016C118.083 53.737 117.786 53.8646 117.422 53.9844C117.057 54.099 116.69 54.1562 116.32 54.1562C115.242 54.1562 114.307 53.7578 113.516 52.9609ZM122.711 47.7578V54H121.109V46.3203H128.07V54H126.469V47.7578H122.711ZM135.914 46.3203H137.352V54H135.75V48.9609L131.75 54H130.312V46.3203H131.914V51.3594L135.914 46.3203ZM138.797 47.7578V46.3203H145.672V47.7578H143.031V54H141.438V47.7578H138.797ZM152.32 51.9766C152.794 51.4818 153.031 50.8776 153.031 50.1641C153.031 49.4453 152.794 48.8385 152.32 48.3438C151.846 47.849 151.284 47.6016 150.633 47.6016C149.982 47.6016 149.417 47.849 148.938 48.3438C148.464 48.8385 148.227 49.4453 148.227 50.1641C148.227 50.8776 148.464 51.4818 148.938 51.9766C149.417 52.4714 149.982 52.7188 150.633 52.7188C151.284 52.7188 151.846 52.4714 152.32 51.9766ZM147.828 52.9609C147.031 52.1693 146.633 51.237 146.633 50.1641C146.633 49.0859 147.029 48.1484 147.82 47.3516C148.617 46.5547 149.555 46.1562 150.633 46.1562C151.711 46.1562 152.646 46.5547 153.438 47.3516C154.234 48.1484 154.633 49.0859 154.633 50.1641C154.633 51.237 154.234 52.1719 153.438 52.9688C152.646 53.7604 151.711 54.1562 150.633 54.1562C149.555 54.1562 148.62 53.7578 147.828 52.9609ZM157.273 46.3203H163.195V54H161.594V47.7578H158.875V48.5625C158.875 50.026 158.758 51.1823 158.523 52.0312C158.294 52.875 157.997 53.4401 157.633 53.7266C157.273 54.013 156.807 54.1562 156.234 54.1562C156.094 54.1562 155.943 54.1432 155.781 54.1172C155.625 54.0911 155.503 54.0625 155.414 54.0312L155.273 54V52.4766C155.487 52.5286 155.672 52.5573 155.828 52.5625C156.156 52.5625 156.414 52.474 156.602 52.2969C156.794 52.1198 156.953 51.7292 157.078 51.125C157.208 50.5156 157.273 49.6615 157.273 48.5625V46.3203ZM171.039 46.3203H172.477V54H170.875V48.9609L166.875 54H165.438V46.3203H167.039V51.3594L171.039 46.3203ZM179.836 48.3203C179.836 48.6745 179.737 48.9844 179.539 49.25C179.346 49.5156 179.148 49.6901 178.945 49.7734L178.641 49.9219C178.682 49.9323 178.737 49.9505 178.805 49.9766C178.878 50.0026 178.997 50.0651 179.164 50.1641C179.336 50.2578 179.487 50.3724 179.617 50.5078C179.753 50.638 179.875 50.8203 179.984 51.0547C180.099 51.2891 180.156 51.5521 180.156 51.8438C180.156 52.4844 179.87 53.0312 179.297 53.4844C178.729 53.9323 177.951 54.1562 176.961 54.1562C176.586 54.1562 176.224 54.1094 175.875 54.0156C175.531 53.9219 175.245 53.8099 175.016 53.6797C174.786 53.5495 174.586 53.4193 174.414 53.2891C174.242 53.1536 174.115 53.0391 174.031 52.9453L173.922 52.7969L174.961 51.7578C175.023 51.8307 175.107 51.9219 175.211 52.0312C175.32 52.1406 175.549 52.2839 175.898 52.4609C176.253 52.6328 176.607 52.7188 176.961 52.7188C177.492 52.7188 177.891 52.6198 178.156 52.4219C178.427 52.224 178.562 51.9766 178.562 51.6797C178.562 51.3828 178.427 51.1354 178.156 50.9375C177.891 50.7396 177.492 50.6406 176.961 50.6406H176.078V49.3594H176.961C177.378 49.3594 177.695 49.2786 177.914 49.1172C178.133 48.9505 178.242 48.7396 178.242 48.4844C178.242 48.224 178.133 48.013 177.914 47.8516C177.695 47.6849 177.378 47.6016 176.961 47.6016C176.654 47.6016 176.352 47.6615 176.055 47.7812C175.763 47.8958 175.547 48.0156 175.406 48.1406L175.203 48.3203L174.156 47.2812C174.229 47.1979 174.336 47.0938 174.477 46.9688C174.617 46.8438 174.93 46.6771 175.414 46.4688C175.898 46.2604 176.414 46.1562 176.961 46.1562C177.846 46.1562 178.547 46.3698 179.062 46.7969C179.578 47.224 179.836 47.7318 179.836 48.3203ZM188.086 54H186.484V53.2031C186.464 53.224 186.427 53.2578 186.375 53.3047C186.328 53.3516 186.229 53.4297 186.078 53.5391C185.932 53.6432 185.773 53.7396 185.602 53.8281C185.43 53.9115 185.214 53.987 184.953 54.0547C184.693 54.1224 184.43 54.1562 184.164 54.1562C183.383 54.1562 182.734 53.9297 182.219 53.4766C181.703 53.0234 181.445 52.5052 181.445 51.9219C181.445 51.2917 181.643 50.763 182.039 50.3359C182.44 49.9089 182.987 49.638 183.68 49.5234L186.484 49.0391C186.484 48.6328 186.333 48.2917 186.031 48.0156C185.734 47.7396 185.352 47.6016 184.883 47.6016C184.477 47.6016 184.107 47.6875 183.773 47.8594C183.445 48.026 183.219 48.1953 183.094 48.3672L182.883 48.6406L181.844 47.6016C181.875 47.5599 181.917 47.5078 181.969 47.4453C182.026 47.3776 182.148 47.263 182.336 47.1016C182.529 46.9349 182.732 46.7865 182.945 46.6562C183.159 46.526 183.44 46.4115 183.789 46.3125C184.143 46.2083 184.508 46.1562 184.883 46.1562C185.82 46.1562 186.589 46.4349 187.188 46.9922C187.786 47.5443 188.086 48.2266 188.086 49.0391V54ZM184.406 52.7188C185.057 52.7188 185.565 52.526 185.93 52.1406C186.299 51.75 186.484 51.1953 186.484 50.4766V50.3203L184 50.7188C183.714 50.7708 183.482 50.888 183.305 51.0703C183.128 51.2526 183.039 51.4818 183.039 51.7578C183.039 52.013 183.161 52.237 183.406 52.4297C183.656 52.6224 183.99 52.7188 184.406 52.7188ZM190.328 54V46.3203H191.93V52.5625H195.531V46.3203H197.133V52.5625H198.25V55.9219H196.648V54H190.328ZM205.445 46.3203H206.883V54H205.281V48.9609L201.281 54H199.844V46.3203H201.445V51.3594L205.445 46.3203ZM214.727 46.3203H216.164V54H214.562V48.9609L210.562 54H209.125V46.3203H210.727V51.3594L214.727 46.3203ZM223.211 47.7578V54H221.609V46.3203H228.57V54H226.969V47.7578H223.211ZM236.023 51.9766C236.497 51.4818 236.734 50.8776 236.734 50.1641C236.734 49.4453 236.497 48.8385 236.023 48.3438C235.549 47.849 234.987 47.6016 234.336 47.6016C233.685 47.6016 233.12 47.849 232.641 48.3438C232.167 48.8385 231.93 49.4453 231.93 50.1641C231.93 50.8776 232.167 51.4818 232.641 51.9766C233.12 52.4714 233.685 52.7188 234.336 52.7188C234.987 52.7188 235.549 52.4714 236.023 51.9766ZM231.531 52.9609C230.734 52.1693 230.336 51.237 230.336 50.1641C230.336 49.0859 230.732 48.1484 231.523 47.3516C232.32 46.5547 233.258 46.1562 234.336 46.1562C235.414 46.1562 236.349 46.5547 237.141 47.3516C237.938 48.1484 238.336 49.0859 238.336 50.1641C238.336 51.237 237.938 52.1719 237.141 52.9688C236.349 53.7604 235.414 54.1562 234.336 54.1562C233.258 54.1562 232.323 53.7578 231.531 52.9609ZM249.141 42.6406C249.708 42.6406 250.253 42.7161 250.773 42.8672C251.294 43.013 251.724 43.1927 252.062 43.4062C252.406 43.6198 252.706 43.8307 252.961 44.0391C253.216 44.2474 253.404 44.4271 253.523 44.5781L253.695 44.7969L252.578 45.9219C252.547 45.8802 252.5 45.8229 252.438 45.75C252.38 45.6719 252.245 45.5339 252.031 45.3359C251.818 45.138 251.589 44.9688 251.344 44.8281C251.099 44.6823 250.779 44.5495 250.383 44.4297C249.992 44.3047 249.578 44.2422 249.141 44.2422C247.979 44.2422 246.995 44.6458 246.188 45.4531C245.38 46.2552 244.977 47.237 244.977 48.3984C244.977 49.5599 245.378 50.5443 246.18 51.3516C246.987 52.1589 247.974 52.5625 249.141 52.5625C249.578 52.5625 249.995 52.5026 250.391 52.3828C250.792 52.2578 251.122 52.1094 251.383 51.9375C251.648 51.7656 251.88 51.5964 252.078 51.4297C252.281 51.2578 252.432 51.112 252.531 50.9922L252.656 50.7969L253.781 51.9219C253.74 51.9844 253.674 52.0677 253.586 52.1719C253.503 52.2708 253.312 52.4479 253.016 52.7031C252.724 52.9583 252.411 53.1849 252.078 53.3828C251.75 53.5807 251.318 53.7604 250.781 53.9219C250.25 54.0781 249.703 54.1562 249.141 54.1562C247.464 54.1562 246.057 53.599 244.922 52.4844C243.786 51.3698 243.219 50.0078 243.219 48.3984C243.219 46.7891 243.786 45.4271 244.922 44.3125C246.057 43.1979 247.464 42.6406 249.141 42.6406ZM265.055 42.7969V54H263.297V49.1172H257.773V54H256.016V42.7969H257.773V47.5234H263.297V42.7969H265.055Z" fill="white"/>
<path d="M139.141 111.688V116H122.336V111.688H139.141ZM160 110.234C160.156 110.297 160.367 110.391 160.633 110.516C160.914 110.625 161.398 110.906 162.086 111.359C162.773 111.797 163.383 112.305 163.914 112.883C164.445 113.461 164.922 114.266 165.344 115.297C165.781 116.312 166 117.43 166 118.648C166 121.398 164.898 123.727 162.695 125.633C160.508 127.523 157.609 128.469 154 128.469C152.469 128.469 151.016 128.289 149.641 127.93C148.266 127.555 147.125 127.117 146.219 126.617C145.328 126.102 144.555 125.586 143.898 125.07C143.242 124.555 142.766 124.125 142.469 123.781L142 123.195L145.352 119.844C145.414 119.938 145.523 120.078 145.68 120.266C145.852 120.438 146.211 120.75 146.758 121.203C147.305 121.641 147.875 122.031 148.469 122.375C149.078 122.703 149.875 123.008 150.859 123.289C151.859 123.555 152.906 123.688 154 123.688C156.078 123.688 157.719 123.188 158.922 122.188C160.125 121.172 160.727 119.914 160.727 118.414C160.727 116.898 160.125 115.641 158.922 114.641C157.719 113.625 156.078 113.117 154 113.117H150.648V108.312H154C155.656 108.312 156.945 107.883 157.867 107.023C158.805 106.164 159.273 105 159.273 103.531C159.273 102.047 158.805 100.875 157.867 100.016C156.945 99.1562 155.656 98.7266 154 98.7266C152.594 98.7266 151.266 99.0312 150.016 99.6406C148.766 100.25 147.883 100.836 147.367 101.398L146.57 102.312L143.195 98.9609C143.289 98.8359 143.43 98.6641 143.617 98.4453C143.82 98.2109 144.258 97.7969 144.93 97.2031C145.602 96.6094 146.32 96.1016 147.086 95.6797C147.852 95.2422 148.859 94.8438 150.109 94.4844C151.359 94.1094 152.656 93.9219 154 93.9219C157.297 93.9219 159.883 94.7734 161.758 96.4766C163.633 98.1641 164.57 100.352 164.57 103.039C164.57 103.961 164.406 104.852 164.078 105.711C163.766 106.555 163.383 107.242 162.93 107.773C162.477 108.305 162.031 108.766 161.594 109.156C161.172 109.531 160.797 109.797 160.469 109.953L160 110.234ZM168.859 94.3906H191.195V98.7266L177.039 128H171.742L185.664 99.1953H168.859V94.3906ZM207.695 96.1016C209.18 97.5547 209.922 99.3047 209.922 101.352C209.922 103.398 209.18 105.156 207.695 106.625C206.211 108.078 204.391 108.805 202.234 108.805C200.094 108.805 198.281 108.078 196.797 106.625C195.312 105.156 194.57 103.398 194.57 101.352C194.57 99.3047 195.312 97.5547 196.797 96.1016C198.281 94.6484 200.094 93.9219 202.234 93.9219C204.391 93.9219 206.211 94.6484 207.695 96.1016ZM199.516 98.6328C198.781 99.3672 198.414 100.281 198.414 101.375C198.414 102.453 198.781 103.359 199.516 104.094C200.25 104.828 201.156 105.195 202.234 105.195C203.328 105.195 204.242 104.828 204.977 104.094C205.711 103.359 206.078 102.453 206.078 101.375C206.078 100.281 205.711 99.3672 204.977 98.6328C204.242 97.8984 203.328 97.5312 202.234 97.5312C201.156 97.5312 200.25 97.8984 199.516 98.6328ZM198.414 128L219.531 94.3906H223.844L202.727 128H198.414ZM214.562 126.289C213.078 124.836 212.336 123.086 212.336 121.039C212.336 118.992 213.078 117.242 214.562 115.789C216.047 114.336 217.859 113.609 220 113.609C222.156 113.609 223.977 114.336 225.461 115.789C226.945 117.242 227.688 118.992 227.688 121.039C227.688 123.086 226.945 124.836 225.461 126.289C223.977 127.742 222.156 128.469 220 128.469C217.859 128.469 216.047 127.742 214.562 126.289ZM222.742 123.781C223.477 123.047 223.844 122.133 223.844 121.039C223.844 119.945 223.477 119.031 222.742 118.297C222.008 117.562 221.094 117.195 220 117.195C218.922 117.195 218.016 117.562 217.281 118.297C216.547 119.031 216.18 119.945 216.18 121.039C216.18 122.133 216.547 123.047 217.281 123.781C218.016 124.516 218.922 124.883 220 124.883C221.094 124.883 222.008 124.516 222.742 123.781Z" fill="white"/>
</svg>
