<svg width="350" height="210" viewBox="0 0 350 210" fill="none" xmlns="http://www.w3.org/2000/svg">
<path d="M175 208.754L3.02309 81H30H31V80V1H319V80V81H320H346.977L175 208.754Z" fill="#2E55E2" fill-opacity="0.4" stroke="#2E55E2" stroke-width="2"/>
<path d="M107.18 38.4453C106.372 39.2526 105.969 40.237 105.969 41.3984C105.969 42.5599 106.37 43.5443 107.172 44.3516C107.979 45.1589 108.964 45.5625 110.125 45.5625C111.292 45.5625 112.276 45.1589 113.078 44.3516C113.885 43.5443 114.289 42.5599 114.289 41.3984C114.289 40.237 113.885 39.2552 113.078 38.4531C112.276 37.6458 111.292 37.2422 110.125 37.2422C108.964 37.2422 107.982 37.6432 107.18 38.4453ZM105.914 45.4844C104.779 44.3698 104.211 43.0078 104.211 41.3984C104.211 39.7891 104.779 38.4271 105.914 37.3125C107.049 36.1979 108.453 35.6406 110.125 35.6406C111.802 35.6406 113.208 36.1979 114.344 37.3125C115.479 38.4271 116.047 39.7891 116.047 41.3984C116.047 43.0078 115.479 44.3698 114.344 45.4844C113.208 46.599 111.802 47.1562 110.125 47.1562C108.453 47.1562 107.049 46.599 105.914 45.4844ZM125.734 43.2422C125.734 44.3203 125.354 45.2422 124.594 46.0078C123.839 46.7734 122.94 47.1562 121.898 47.1562C120.695 47.1562 119.727 46.7266 118.992 45.8672C118.263 45.0026 117.898 43.7526 117.898 42.1172C117.898 40.2526 118.245 38.8542 118.938 37.9219C119.63 36.9896 120.617 36.4167 121.898 36.2031C122.466 36.1094 122.974 35.9896 123.422 35.8438C123.875 35.6979 124.188 35.5755 124.359 35.4766L124.617 35.3203L125.336 36.5234C125.305 36.5651 125.24 36.625 125.141 36.7031C125.047 36.7812 124.721 36.9219 124.164 37.125C123.612 37.3281 122.909 37.5 122.055 37.6406C121.32 37.7604 120.729 38.0651 120.281 38.5547C119.833 39.0443 119.57 39.7005 119.492 40.5234C119.513 40.4922 119.549 40.4505 119.602 40.3984C119.659 40.3411 119.771 40.2448 119.938 40.1094C120.104 39.9688 120.279 39.8464 120.461 39.7422C120.648 39.6328 120.885 39.5365 121.172 39.4531C121.464 39.3646 121.758 39.3203 122.055 39.3203C123.023 39.3203 123.878 39.7083 124.617 40.4844C125.362 41.2552 125.734 42.1745 125.734 43.2422ZM120.32 41.4688C119.878 41.9479 119.656 42.5391 119.656 43.2422C119.656 43.9453 119.878 44.5339 120.32 45.0078C120.763 45.4818 121.286 45.7188 121.891 45.7188C122.5 45.7188 123.026 45.4818 123.469 45.0078C123.911 44.5339 124.133 43.9453 124.133 43.2422C124.133 42.5391 123.911 41.9505 123.469 41.4766C123.026 40.9974 122.5 40.7578 121.891 40.7578C121.286 40.7578 120.763 40.9948 120.32 41.4688ZM127.648 47V39.3203H129.25V45.5625H132.047V39.3203H133.648V45.5625H136.453V39.3203H138.047V45.5625H139.172V48.9219H137.57V47H127.648ZM146.938 47H145.336V46.2031C145.315 46.224 145.279 46.2578 145.227 46.3047C145.18 46.3516 145.081 46.4297 144.93 46.5391C144.784 46.6432 144.625 46.7396 144.453 46.8281C144.281 46.9115 144.065 46.987 143.805 47.0547C143.544 47.1224 143.281 47.1562 143.016 47.1562C142.234 47.1562 141.586 46.9297 141.07 46.4766C140.555 46.0234 140.297 45.5052 140.297 44.9219C140.297 44.2917 140.495 43.763 140.891 43.3359C141.292 42.9089 141.839 42.638 142.531 42.5234L145.336 42.0391C145.336 41.6328 145.185 41.2917 144.883 41.0156C144.586 40.7396 144.203 40.6016 143.734 40.6016C143.328 40.6016 142.958 40.6875 142.625 40.8594C142.297 41.026 142.07 41.1953 141.945 41.3672L141.734 41.6406L140.695 40.6016C140.727 40.5599 140.768 40.5078 140.82 40.4453C140.878 40.3776 141 40.263 141.188 40.1016C141.38 39.9349 141.583 39.7865 141.797 39.6562C142.01 39.526 142.292 39.4115 142.641 39.3125C142.995 39.2083 143.359 39.1562 143.734 39.1562C144.672 39.1562 145.44 39.4349 146.039 39.9922C146.638 40.5443 146.938 41.2266 146.938 42.0391V47ZM143.258 45.7188C143.909 45.7188 144.417 45.526 144.781 45.1406C145.151 44.75 145.336 44.1953 145.336 43.4766V43.3203L142.852 43.7188C142.565 43.7708 142.333 43.888 142.156 44.0703C141.979 44.2526 141.891 44.4818 141.891 44.7578C141.891 45.013 142.013 45.237 142.258 45.4297C142.508 45.6224 142.841 45.7188 143.258 45.7188ZM151.742 39.3203H155.258V47H153.664V44.6016H151.984L150.461 47H148.703L150.383 44.3594C150.341 44.349 150.284 44.3255 150.211 44.2891C150.143 44.2526 150.023 44.1719 149.852 44.0469C149.68 43.9167 149.526 43.7682 149.391 43.6016C149.26 43.4349 149.138 43.2057 149.023 42.9141C148.914 42.6172 148.859 42.2995 148.859 41.9609C148.859 41.1953 149.122 40.5651 149.648 40.0703C150.18 39.5703 150.878 39.3203 151.742 39.3203ZM153.664 40.6797H151.742C151.378 40.6797 151.073 40.8021 150.828 41.0469C150.583 41.2917 150.461 41.5964 150.461 41.9609C150.461 42.3255 150.583 42.6302 150.828 42.875C151.073 43.1198 151.378 43.2422 151.742 43.2422H153.664V40.6797ZM161.414 45.9609C160.617 45.1693 160.219 44.237 160.219 43.1641C160.219 42.0859 160.615 41.1484 161.406 40.3516C162.203 39.5547 163.141 39.1562 164.219 39.1562C164.818 39.1562 165.375 39.2865 165.891 39.5469C166.406 39.8021 166.776 40.0573 167 40.3125L167.336 40.6797L166.297 41.7188C166.245 41.6354 166.164 41.5339 166.055 41.4141C165.951 41.2891 165.719 41.1224 165.359 40.9141C165.005 40.7057 164.625 40.6016 164.219 40.6016C163.568 40.6016 163.003 40.849 162.523 41.3438C162.049 41.8385 161.812 42.4453 161.812 43.1641C161.812 43.8776 162.049 44.4818 162.523 44.9766C163.003 45.4714 163.568 45.7188 164.219 45.7188C164.625 45.7188 165.005 45.6172 165.359 45.4141C165.719 45.2109 165.977 45.013 166.133 44.8203L166.375 44.5234L167.414 45.5625C167.383 45.6042 167.336 45.6641 167.273 45.7422C167.211 45.8151 167.076 45.9427 166.867 46.125C166.659 46.3021 166.44 46.4609 166.211 46.6016C165.982 46.737 165.685 46.8646 165.32 46.9844C164.956 47.099 164.589 47.1562 164.219 47.1562C163.141 47.1562 162.206 46.7578 161.414 45.9609ZM173.086 42.6797L175.891 39.3203H177.172V47H175.57V41.9609L173.086 44.9219L170.609 41.9609V47H169.008V39.3203H170.289L173.086 42.6797ZM186.531 43.7188H180.531C180.615 44.2604 180.88 44.7292 181.328 45.125C181.781 45.5208 182.318 45.7188 182.938 45.7188C183.385 45.7188 183.802 45.6172 184.188 45.4141C184.578 45.2109 184.854 45.013 185.016 44.8203L185.258 44.5234L186.297 45.5625C186.266 45.6042 186.216 45.6641 186.148 45.7422C186.086 45.8151 185.948 45.9427 185.734 46.125C185.521 46.3021 185.294 46.4609 185.055 46.6016C184.815 46.737 184.503 46.8646 184.117 46.9844C183.737 47.099 183.344 47.1562 182.938 47.1562C181.849 47.1562 180.909 46.7578 180.117 45.9609C179.331 45.1589 178.938 44.1979 178.938 43.0781C178.938 42 179.32 41.0781 180.086 40.3125C180.857 39.5417 181.779 39.1562 182.852 39.1562C183.93 39.1562 184.826 39.5156 185.539 40.2344C186.258 40.9479 186.617 41.8438 186.617 42.9219L186.531 43.7188ZM182.852 40.5234C182.273 40.5234 181.786 40.6953 181.391 41.0391C181 41.3776 180.737 41.8177 180.602 42.3594H185.047C184.953 41.8177 184.711 41.3776 184.32 41.0391C183.93 40.6953 183.44 40.5234 182.852 40.5234ZM192.445 47.1562C192.159 47.1562 191.88 47.1224 191.609 47.0547C191.339 46.987 191.107 46.9036 190.914 46.8047C190.721 46.7005 190.549 46.5964 190.398 46.4922C190.253 46.3828 190.146 46.2969 190.078 46.2344L189.969 46.1172V50.3594H188.367V39.3203H189.969V40.2031C190.042 40.1302 190.143 40.0339 190.273 39.9141C190.409 39.7943 190.693 39.638 191.125 39.4453C191.557 39.2526 191.997 39.1562 192.445 39.1562C193.461 39.1562 194.341 39.5469 195.086 40.3281C195.836 41.1042 196.211 42.0469 196.211 43.1562C196.211 44.2656 195.836 45.2109 195.086 45.9922C194.341 46.7682 193.461 47.1562 192.445 47.1562ZM193.906 41.3516C193.438 40.8516 192.898 40.6016 192.289 40.6016C191.68 40.6016 191.141 40.8516 190.672 41.3516C190.203 41.8516 189.969 42.4557 189.969 43.1641C189.969 43.8672 190.203 44.4688 190.672 44.9688C191.141 45.4688 191.68 45.7188 192.289 45.7188C192.898 45.7188 193.438 45.4688 193.906 44.9688C194.375 44.4688 194.609 43.8672 194.609 43.1641C194.609 42.4557 194.375 41.8516 193.906 41.3516ZM197.164 40.7578V39.3203H204.039V40.7578H201.398V47H199.805V40.7578H197.164ZM207.078 43.7969V47H205.477V39.3203H207.078V42.3594H210.836V39.3203H212.438V47H210.836V43.7969H207.078ZM219.891 44.9766C220.365 44.4818 220.602 43.8776 220.602 43.1641C220.602 42.4453 220.365 41.8385 219.891 41.3438C219.417 40.849 218.854 40.6016 218.203 40.6016C217.552 40.6016 216.987 40.849 216.508 41.3438C216.034 41.8385 215.797 42.4453 215.797 43.1641C215.797 43.8776 216.034 44.4818 216.508 44.9766C216.987 45.4714 217.552 45.7188 218.203 45.7188C218.854 45.7188 219.417 45.4714 219.891 44.9766ZM215.398 45.9609C214.602 45.1693 214.203 44.237 214.203 43.1641C214.203 42.0859 214.599 41.1484 215.391 40.3516C216.188 39.5547 217.125 39.1562 218.203 39.1562C219.281 39.1562 220.216 39.5547 221.008 40.3516C221.805 41.1484 222.203 42.0859 222.203 43.1641C222.203 44.237 221.805 45.1719 221.008 45.9688C220.216 46.7604 219.281 47.1562 218.203 47.1562C217.125 47.1562 216.19 46.7578 215.398 45.9609ZM224.68 45.9609C223.883 45.1693 223.484 44.237 223.484 43.1641C223.484 42.0859 223.88 41.1484 224.672 40.3516C225.469 39.5547 226.406 39.1562 227.484 39.1562C228.083 39.1562 228.641 39.2865 229.156 39.5469C229.672 39.8021 230.042 40.0573 230.266 40.3125L230.602 40.6797L229.562 41.7188C229.51 41.6354 229.43 41.5339 229.32 41.4141C229.216 41.2891 228.984 41.1224 228.625 40.9141C228.271 40.7057 227.891 40.6016 227.484 40.6016C226.833 40.6016 226.268 40.849 225.789 41.3438C225.315 41.8385 225.078 42.4453 225.078 43.1641C225.078 43.8776 225.315 44.4818 225.789 44.9766C226.268 45.4714 226.833 45.7188 227.484 45.7188C227.891 45.7188 228.271 45.6172 228.625 45.4141C228.984 45.2109 229.242 45.013 229.398 44.8203L229.641 44.5234L230.68 45.5625C230.648 45.6042 230.602 45.6641 230.539 45.7422C230.477 45.8151 230.341 45.9427 230.133 46.125C229.924 46.3021 229.706 46.4609 229.477 46.6016C229.247 46.737 228.951 46.8646 228.586 46.9844C228.221 47.099 227.854 47.1562 227.484 47.1562C226.406 47.1562 225.471 46.7578 224.68 45.9609ZM231.477 40.7578V39.3203H238.352V40.7578H235.711V47H234.117V40.7578H231.477ZM241.391 45.6406H243.148C243.513 45.6406 243.818 45.5182 244.062 45.2734C244.307 45.0286 244.43 44.724 244.43 44.3594C244.43 43.9948 244.307 43.6901 244.062 43.4453C243.818 43.2005 243.513 43.0781 243.148 43.0781H241.391V45.6406ZM245.242 42.4609C245.768 42.9609 246.031 43.5964 246.031 44.3672C246.031 45.1328 245.766 45.763 245.234 46.2578C244.708 46.7526 244.013 47 243.148 47H239.789V39.3203H241.391V41.7188H243.148C244.013 41.7188 244.711 41.9661 245.242 42.4609Z" fill="white"/>
<path d="M142.023 111.688V116H125.219V111.688H142.023ZM162.883 110.234C163.039 110.297 163.25 110.391 163.516 110.516C163.797 110.625 164.281 110.906 164.969 111.359C165.656 111.797 166.266 112.305 166.797 112.883C167.328 113.461 167.805 114.266 168.227 115.297C168.664 116.312 168.883 117.43 168.883 118.648C168.883 121.398 167.781 123.727 165.578 125.633C163.391 127.523 160.492 128.469 156.883 128.469C155.352 128.469 153.898 128.289 152.523 127.93C151.148 127.555 150.008 127.117 149.102 126.617C148.211 126.102 147.438 125.586 146.781 125.07C146.125 124.555 145.648 124.125 145.352 123.781L144.883 123.195L148.234 119.844C148.297 119.938 148.406 120.078 148.562 120.266C148.734 120.438 149.094 120.75 149.641 121.203C150.188 121.641 150.758 122.031 151.352 122.375C151.961 122.703 152.758 123.008 153.742 123.289C154.742 123.555 155.789 123.688 156.883 123.688C158.961 123.688 160.602 123.188 161.805 122.188C163.008 121.172 163.609 119.914 163.609 118.414C163.609 116.898 163.008 115.641 161.805 114.641C160.602 113.625 158.961 113.117 156.883 113.117H153.531V108.312H156.883C158.539 108.312 159.828 107.883 160.75 107.023C161.688 106.164 162.156 105 162.156 103.531C162.156 102.047 161.688 100.875 160.75 100.016C159.828 99.1562 158.539 98.7266 156.883 98.7266C155.477 98.7266 154.148 99.0312 152.898 99.6406C151.648 100.25 150.766 100.836 150.25 101.398L149.453 102.312L146.078 98.9609C146.172 98.8359 146.312 98.6641 146.5 98.4453C146.703 98.2109 147.141 97.7969 147.812 97.2031C148.484 96.6094 149.203 96.1016 149.969 95.6797C150.734 95.2422 151.742 94.8438 152.992 94.4844C154.242 94.1094 155.539 93.9219 156.883 93.9219C160.18 93.9219 162.766 94.7734 164.641 96.4766C166.516 98.1641 167.453 100.352 167.453 103.039C167.453 103.961 167.289 104.852 166.961 105.711C166.648 106.555 166.266 107.242 165.812 107.773C165.359 108.305 164.914 108.766 164.477 109.156C164.055 109.531 163.68 109.797 163.352 109.953L162.883 110.234ZM180.414 94.3906H184.492V128H179.219V102.57H173.219V98.9609C175.234 98.7422 176.766 98.2656 177.812 97.5312C178.875 96.7812 179.742 95.7344 180.414 94.3906ZM204.812 96.1016C206.297 97.5547 207.039 99.3047 207.039 101.352C207.039 103.398 206.297 105.156 204.812 106.625C203.328 108.078 201.508 108.805 199.352 108.805C197.211 108.805 195.398 108.078 193.914 106.625C192.43 105.156 191.688 103.398 191.688 101.352C191.688 99.3047 192.43 97.5547 193.914 96.1016C195.398 94.6484 197.211 93.9219 199.352 93.9219C201.508 93.9219 203.328 94.6484 204.812 96.1016ZM196.633 98.6328C195.898 99.3672 195.531 100.281 195.531 101.375C195.531 102.453 195.898 103.359 196.633 104.094C197.367 104.828 198.273 105.195 199.352 105.195C200.445 105.195 201.359 104.828 202.094 104.094C202.828 103.359 203.195 102.453 203.195 101.375C203.195 100.281 202.828 99.3672 202.094 98.6328C201.359 97.8984 200.445 97.5312 199.352 97.5312C198.273 97.5312 197.367 97.8984 196.633 98.6328ZM195.531 128L216.648 94.3906H220.961L199.844 128H195.531ZM211.68 126.289C210.195 124.836 209.453 123.086 209.453 121.039C209.453 118.992 210.195 117.242 211.68 115.789C213.164 114.336 214.977 113.609 217.117 113.609C219.273 113.609 221.094 114.336 222.578 115.789C224.062 117.242 224.805 118.992 224.805 121.039C224.805 123.086 224.062 124.836 222.578 126.289C221.094 127.742 219.273 128.469 217.117 128.469C214.977 128.469 213.164 127.742 211.68 126.289ZM219.859 123.781C220.594 123.047 220.961 122.133 220.961 121.039C220.961 119.945 220.594 119.031 219.859 118.297C219.125 117.562 218.211 117.195 217.117 117.195C216.039 117.195 215.133 117.562 214.398 118.297C213.664 119.031 213.297 119.945 213.297 121.039C213.297 122.133 213.664 123.047 214.398 123.781C215.133 124.516 216.039 124.883 217.117 124.883C218.211 124.883 219.125 124.516 219.859 123.781Z" fill="white"/>
</svg>
