<svg width="350" height="210" viewBox="0 0 350 210" fill="none" xmlns="http://www.w3.org/2000/svg">
<path d="M175 208.754L3.02309 81H30H31V80V1H319V80V81H320H346.977L175 208.754Z" fill="#2E55E2" fill-opacity="0.4" stroke="#2E55E2" stroke-width="2"/>
<path d="M115.641 23.7969H120.359C121.51 23.7969 122.464 24.1589 123.219 24.8828C123.979 25.6016 124.359 26.4948 124.359 27.5625C124.359 28.625 123.982 29.5182 123.227 30.2422C122.471 30.9609 121.516 31.3203 120.359 31.3203H118.047V35H115.641V23.7969ZM120.281 25.9609H118.047V29.1562H120.281C120.76 29.1562 121.159 29.0026 121.477 28.6953C121.799 28.388 121.961 28.0104 121.961 27.5625C121.961 27.1146 121.799 26.737 121.477 26.4297C121.159 26.1172 120.76 25.9609 120.281 25.9609ZM131.594 27.1562H133.477V35H131.32V30.6016L127.906 35H126.039V27.1562H128.195V31.5625L131.594 27.1562ZM136.328 33.9297C135.49 33.1172 135.07 32.1667 135.07 31.0781C135.07 29.9896 135.49 29.0391 136.328 28.2266C137.167 27.4089 138.161 27 139.312 27C139.719 27 140.104 27.0573 140.469 27.1719C140.839 27.2812 141.141 27.4141 141.375 27.5703C141.609 27.7214 141.818 27.875 142 28.0312C142.182 28.1875 142.315 28.3229 142.398 28.4375L142.516 28.6016L141.156 29.9609C141.115 29.888 141.044 29.7917 140.945 29.6719C140.852 29.5521 140.643 29.3984 140.32 29.2109C140.003 29.0182 139.667 28.9219 139.312 28.9219C138.745 28.9219 138.255 29.1328 137.844 29.5547C137.438 29.9766 137.234 30.487 137.234 31.0859C137.234 31.6797 137.44 32.1875 137.852 32.6094C138.263 33.0312 138.75 33.2422 139.312 33.2422C139.667 33.2422 140.003 33.1562 140.32 32.9844C140.643 32.8125 140.878 32.6406 141.023 32.4688L141.234 32.2031L142.516 33.5625C142.484 33.6042 142.44 33.6641 142.383 33.7422C142.331 33.8151 142.206 33.9427 142.008 34.125C141.81 34.3021 141.596 34.4609 141.367 34.6016C141.138 34.737 140.839 34.8646 140.469 34.9844C140.104 35.099 139.719 35.1562 139.312 35.1562C138.161 35.1562 137.167 34.7474 136.328 33.9297ZM151.398 27.1562L148.438 30.5234L151.562 35H149.156L147.078 31.9609L146.117 33.0781V35H143.961V27.1562H146.117V30.3594L148.922 27.1562H151.398ZM155.883 27.1562H159.805C160.586 27.1562 161.221 27.3698 161.711 27.7969C162.201 28.224 162.445 28.7318 162.445 29.3203C162.445 29.6745 162.365 29.9844 162.203 30.25C162.042 30.5156 161.88 30.6901 161.719 30.7734L161.484 30.9219C161.516 30.9323 161.56 30.9479 161.617 30.9688C161.674 30.9896 161.779 31.0495 161.93 31.1484C162.081 31.2422 162.211 31.3516 162.32 31.4766C162.435 31.5964 162.536 31.763 162.625 31.9766C162.719 32.1901 162.766 32.4245 162.766 32.6797C162.766 33.3411 162.51 33.8932 162 34.3359C161.495 34.7786 160.815 35 159.961 35H155.883V27.1562ZM159.805 31.6406H158.039V33.2422H159.805C160.049 33.2422 160.242 33.1667 160.383 33.0156C160.529 32.8646 160.602 32.6719 160.602 32.4375C160.602 32.2031 160.529 32.013 160.383 31.8672C160.242 31.7161 160.049 31.6406 159.805 31.6406ZM159.641 30.2031C160.068 30.2031 160.281 29.9896 160.281 29.5625C160.281 29.1354 160.068 28.9219 159.641 28.9219H158.039V30.2031H159.641ZM166.523 32.0391V35H164.367V27.1562H166.523V30.1172H169.562V27.1562H171.727V35H169.562V32.0391H166.523ZM181.242 31.7969H175.562C175.646 32.224 175.872 32.5859 176.242 32.8828C176.612 33.1745 177.078 33.3203 177.641 33.3203C178.047 33.3203 178.422 33.2422 178.766 33.0859C179.115 32.9245 179.359 32.763 179.5 32.6016L179.727 32.3594L180.844 33.7969L180.703 33.9375C180.635 34.0052 180.495 34.1172 180.281 34.2734C180.068 34.4297 179.841 34.5703 179.602 34.6953C179.362 34.8151 179.049 34.9219 178.664 35.0156C178.284 35.1094 177.891 35.1562 177.484 35.1562C176.333 35.1562 175.352 34.7578 174.539 33.9609C173.727 33.1589 173.32 32.1979 173.32 31.0781C173.32 29.9583 173.721 29 174.523 28.2031C175.326 27.401 176.286 27 177.406 27C178.526 27 179.458 27.375 180.203 28.125C180.948 28.8698 181.32 29.8021 181.32 30.9219L181.242 31.7969ZM178.57 29.25C178.253 28.9792 177.865 28.8438 177.406 28.8438C176.948 28.8438 176.557 28.9766 176.234 29.2422C175.917 29.5078 175.693 29.8542 175.562 30.2812H179.164C179.081 29.8646 178.883 29.5208 178.57 29.25ZM188.445 29.3203C188.445 29.5547 188.404 29.7708 188.32 29.9688C188.237 30.1667 188.13 30.3229 188 30.4375C187.875 30.5469 187.747 30.6432 187.617 30.7266C187.487 30.8047 187.38 30.8542 187.297 30.875L187.172 30.9219C187.214 30.9323 187.271 30.9505 187.344 30.9766C187.417 31.0026 187.544 31.0651 187.727 31.1641C187.909 31.2578 188.068 31.3724 188.203 31.5078C188.344 31.638 188.471 31.8203 188.586 32.0547C188.706 32.2891 188.766 32.5521 188.766 32.8438C188.766 33.4844 188.471 34.0312 187.883 34.4844C187.299 34.9323 186.474 35.1562 185.406 35.1562C184.99 35.1562 184.591 35.1068 184.211 35.0078C183.836 34.9089 183.526 34.7891 183.281 34.6484C183.036 34.5078 182.823 34.3698 182.641 34.2344C182.458 34.0938 182.331 33.9766 182.258 33.8828L182.125 33.7188L183.328 32.5234C183.37 32.5859 183.438 32.6667 183.531 32.7656C183.63 32.8594 183.839 32.9896 184.156 33.1562C184.479 33.3177 184.818 33.3984 185.172 33.3984C185.589 33.3984 185.904 33.3177 186.117 33.1562C186.336 32.9896 186.445 32.7786 186.445 32.5234C186.445 31.9922 186.021 31.724 185.172 31.7188H184.367V30.2812H185.172C185.516 30.2812 185.773 30.2161 185.945 30.0859C186.122 29.9505 186.211 29.776 186.211 29.5625C186.211 29.0312 185.865 28.763 185.172 28.7578C184.917 28.7578 184.654 28.8177 184.383 28.9375C184.117 29.0521 183.914 29.1745 183.773 29.3047L183.57 29.4766L182.367 28.2812C182.388 28.25 182.424 28.2057 182.477 28.1484C182.534 28.0859 182.654 27.9818 182.836 27.8359C183.023 27.6849 183.224 27.5547 183.438 27.4453C183.651 27.3307 183.938 27.2292 184.297 27.1406C184.656 27.0469 185.026 27 185.406 27C186.323 27 187.057 27.2292 187.609 27.6875C188.167 28.1458 188.445 28.6901 188.445 29.3203ZM194.688 35V34.2031C194.625 34.276 194.536 34.3672 194.422 34.4766C194.312 34.5807 194.07 34.7214 193.695 34.8984C193.32 35.0703 192.93 35.1562 192.523 35.1562C191.742 35.1562 191.107 34.9401 190.617 34.5078C190.128 34.0703 189.883 33.5417 189.883 32.9219C189.883 32.2812 190.089 31.7474 190.5 31.3203C190.911 30.8932 191.479 30.6146 192.203 30.4844L194.688 30.0391C194.688 29.7109 194.568 29.4427 194.328 29.2344C194.089 29.026 193.755 28.9219 193.328 28.9219C192.974 28.9219 192.651 28.9896 192.359 29.125C192.068 29.2552 191.862 29.3906 191.742 29.5312L191.562 29.7188L190.367 28.5234C190.398 28.4818 190.44 28.4271 190.492 28.3594C190.549 28.2865 190.672 28.1641 190.859 27.9922C191.052 27.8203 191.26 27.6693 191.484 27.5391C191.708 27.4036 192.003 27.2812 192.367 27.1719C192.732 27.0573 193.104 27 193.484 27C194.474 27 195.281 27.2969 195.906 27.8906C196.531 28.4792 196.844 29.2214 196.844 30.1172V35H194.688ZM193.086 33.3984C193.576 33.3984 193.964 33.2448 194.25 32.9375C194.542 32.625 194.688 32.1927 194.688 31.6406V31.3984L192.93 31.7188C192.341 31.8125 192.047 32.1068 192.047 32.6016C192.047 33.1328 192.393 33.3984 193.086 33.3984ZM201.086 29.0781V35H198.93V27.1562H206.289V35H204.125V29.0781H201.086ZM210.523 32.0391V35H208.367V27.1562H210.523V30.1172H213.562V27.1562H215.727V35H213.562V32.0391H210.523ZM220.133 29.6016C219.753 30.0026 219.562 30.4974 219.562 31.0859C219.562 31.6693 219.753 32.1615 220.133 32.5625C220.513 32.9583 220.964 33.1562 221.484 33.1562C222.005 33.1562 222.456 32.9583 222.836 32.5625C223.216 32.1615 223.406 31.6693 223.406 31.0859C223.406 30.4974 223.216 30.0026 222.836 29.6016C222.456 29.2005 222.005 29 221.484 29C220.964 29 220.513 29.2005 220.133 29.6016ZM224.406 28.2188C225.229 29.0365 225.641 29.9896 225.641 31.0781C225.641 32.1667 225.227 33.1198 224.398 33.9375C223.576 34.75 222.604 35.1562 221.484 35.1562C220.365 35.1562 219.391 34.75 218.562 33.9375C217.734 33.1198 217.32 32.1667 217.32 31.0781C217.32 29.9896 217.734 29.0391 218.562 28.2266C219.391 27.4089 220.365 27 221.484 27C222.604 27 223.578 27.4062 224.406 28.2188ZM230.234 24.4062C230.417 24.5885 230.646 24.6797 230.922 24.6797C231.198 24.6797 231.427 24.5885 231.609 24.4062C231.792 24.224 231.883 23.9948 231.883 23.7188H233.484C233.484 24.401 233.242 24.9714 232.758 25.4297C232.279 25.888 231.667 26.1172 230.922 26.1172C230.177 26.1172 229.562 25.888 229.078 25.4297C228.599 24.9714 228.359 24.401 228.359 23.7188H229.961C229.961 23.9948 230.052 24.224 230.234 24.4062ZM232.797 27.1562H234.68V35H232.523V30.6016L229.109 35H227.242V27.1562H229.398V31.5625L232.797 27.1562ZM149.211 52.9297C148.372 52.1172 147.953 51.1667 147.953 50.0781C147.953 48.9896 148.372 48.0391 149.211 47.2266C150.049 46.4089 151.044 46 152.195 46C152.602 46 152.987 46.0573 153.352 46.1719C153.721 46.2812 154.023 46.4141 154.258 46.5703C154.492 46.7214 154.701 46.875 154.883 47.0312C155.065 47.1875 155.198 47.3229 155.281 47.4375L155.398 47.6016L154.039 48.9609C153.997 48.888 153.927 48.7917 153.828 48.6719C153.734 48.5521 153.526 48.3984 153.203 48.2109C152.885 48.0182 152.549 47.9219 152.195 47.9219C151.628 47.9219 151.138 48.1328 150.727 48.5547C150.32 48.9766 150.117 49.487 150.117 50.0859C150.117 50.6797 150.323 51.1875 150.734 51.6094C151.146 52.0312 151.633 52.2422 152.195 52.2422C152.549 52.2422 152.885 52.1562 153.203 51.9844C153.526 51.8125 153.76 51.6406 153.906 51.4688L154.117 51.2031L155.398 52.5625C155.367 52.6042 155.323 52.6641 155.266 52.7422C155.214 52.8151 155.089 52.9427 154.891 53.125C154.693 53.3021 154.479 53.4609 154.25 53.6016C154.021 53.737 153.721 53.8646 153.352 53.9844C152.987 54.099 152.602 54.1562 152.195 54.1562C151.044 54.1562 150.049 53.7474 149.211 52.9297ZM161.086 52.0781L159 49.3594V54H156.844V46.1562H158.68L161.086 49.2812L163.484 46.1562H165.32V54H163.164V49.3594L161.086 52.0781ZM174.844 50.7969H169.164C169.247 51.224 169.474 51.5859 169.844 51.8828C170.214 52.1745 170.68 52.3203 171.242 52.3203C171.648 52.3203 172.023 52.2422 172.367 52.0859C172.716 51.9245 172.961 51.763 173.102 51.6016L173.328 51.3594L174.445 52.7969L174.305 52.9375C174.237 53.0052 174.096 53.1172 173.883 53.2734C173.669 53.4297 173.443 53.5703 173.203 53.6953C172.964 53.8151 172.651 53.9219 172.266 54.0156C171.885 54.1094 171.492 54.1562 171.086 54.1562C169.935 54.1562 168.953 53.7578 168.141 52.9609C167.328 52.1589 166.922 51.1979 166.922 50.0781C166.922 48.9583 167.323 48 168.125 47.2031C168.927 46.401 169.888 46 171.008 46C172.128 46 173.06 46.375 173.805 47.125C174.549 47.8698 174.922 48.8021 174.922 49.9219L174.844 50.7969ZM172.172 48.25C171.854 47.9792 171.466 47.8438 171.008 47.8438C170.549 47.8438 170.159 47.9766 169.836 48.2422C169.518 48.5078 169.294 48.8542 169.164 49.2812H172.766C172.682 48.8646 172.484 48.5208 172.172 48.25ZM181.008 54.1562C180.56 54.1562 180.141 54.0651 179.75 53.8828C179.365 53.6953 179.091 53.5104 178.93 53.3281L178.688 53.0391V57.3594H176.531V46.1562H178.688V47.1172C178.708 47.0859 178.74 47.0469 178.781 47C178.828 46.9531 178.922 46.8672 179.062 46.7422C179.208 46.612 179.365 46.4974 179.531 46.3984C179.698 46.2943 179.914 46.2031 180.18 46.125C180.445 46.0417 180.721 46 181.008 46C182.023 46 182.904 46.3958 183.648 47.1875C184.398 47.974 184.773 48.9375 184.773 50.0781C184.773 51.2188 184.398 52.1849 183.648 52.9766C182.904 53.763 182.023 54.1562 181.008 54.1562ZM181.977 48.5234C181.602 48.1224 181.146 47.9219 180.609 47.9219C180.078 47.9219 179.625 48.125 179.25 48.5312C178.875 48.9323 178.688 49.4479 178.688 50.0781C178.688 50.7083 178.875 51.2266 179.25 51.6328C179.625 52.0391 180.078 52.2422 180.609 52.2422C181.146 52.2422 181.599 52.0391 181.969 51.6328C182.344 51.2266 182.531 50.7083 182.531 50.0781C182.531 49.4479 182.346 48.9297 181.977 48.5234ZM185.57 48.2422V46.1562H192.695V48.2422H190.211V54H188.055V48.2422H185.57ZM199.523 46.1562H201.406V54H199.25V49.6016L195.836 54H193.969V46.1562H196.125V50.5625L199.523 46.1562Z" fill="white"/>
<path d="M139.141 111.688V116H122.336V111.688H139.141ZM160 110.234C160.156 110.297 160.367 110.391 160.633 110.516C160.914 110.625 161.398 110.906 162.086 111.359C162.773 111.797 163.383 112.305 163.914 112.883C164.445 113.461 164.922 114.266 165.344 115.297C165.781 116.312 166 117.43 166 118.648C166 121.398 164.898 123.727 162.695 125.633C160.508 127.523 157.609 128.469 154 128.469C152.469 128.469 151.016 128.289 149.641 127.93C148.266 127.555 147.125 127.117 146.219 126.617C145.328 126.102 144.555 125.586 143.898 125.07C143.242 124.555 142.766 124.125 142.469 123.781L142 123.195L145.352 119.844C145.414 119.938 145.523 120.078 145.68 120.266C145.852 120.438 146.211 120.75 146.758 121.203C147.305 121.641 147.875 122.031 148.469 122.375C149.078 122.703 149.875 123.008 150.859 123.289C151.859 123.555 152.906 123.688 154 123.688C156.078 123.688 157.719 123.188 158.922 122.188C160.125 121.172 160.727 119.914 160.727 118.414C160.727 116.898 160.125 115.641 158.922 114.641C157.719 113.625 156.078 113.117 154 113.117H150.648V108.312H154C155.656 108.312 156.945 107.883 157.867 107.023C158.805 106.164 159.273 105 159.273 103.531C159.273 102.047 158.805 100.875 157.867 100.016C156.945 99.1562 155.656 98.7266 154 98.7266C152.594 98.7266 151.266 99.0312 150.016 99.6406C148.766 100.25 147.883 100.836 147.367 101.398L146.57 102.312L143.195 98.9609C143.289 98.8359 143.43 98.6641 143.617 98.4453C143.82 98.2109 144.258 97.7969 144.93 97.2031C145.602 96.6094 146.32 96.1016 147.086 95.6797C147.852 95.2422 148.859 94.8438 150.109 94.4844C151.359 94.1094 152.656 93.9219 154 93.9219C157.297 93.9219 159.883 94.7734 161.758 96.4766C163.633 98.1641 164.57 100.352 164.57 103.039C164.57 103.961 164.406 104.852 164.078 105.711C163.766 106.555 163.383 107.242 162.93 107.773C162.477 108.305 162.031 108.766 161.594 109.156C161.172 109.531 160.797 109.797 160.469 109.953L160 110.234ZM168.859 94.3906H191.195V98.7266L177.039 128H171.742L185.664 99.1953H168.859V94.3906ZM207.695 96.1016C209.18 97.5547 209.922 99.3047 209.922 101.352C209.922 103.398 209.18 105.156 207.695 106.625C206.211 108.078 204.391 108.805 202.234 108.805C200.094 108.805 198.281 108.078 196.797 106.625C195.312 105.156 194.57 103.398 194.57 101.352C194.57 99.3047 195.312 97.5547 196.797 96.1016C198.281 94.6484 200.094 93.9219 202.234 93.9219C204.391 93.9219 206.211 94.6484 207.695 96.1016ZM199.516 98.6328C198.781 99.3672 198.414 100.281 198.414 101.375C198.414 102.453 198.781 103.359 199.516 104.094C200.25 104.828 201.156 105.195 202.234 105.195C203.328 105.195 204.242 104.828 204.977 104.094C205.711 103.359 206.078 102.453 206.078 101.375C206.078 100.281 205.711 99.3672 204.977 98.6328C204.242 97.8984 203.328 97.5312 202.234 97.5312C201.156 97.5312 200.25 97.8984 199.516 98.6328ZM198.414 128L219.531 94.3906H223.844L202.727 128H198.414ZM214.562 126.289C213.078 124.836 212.336 123.086 212.336 121.039C212.336 118.992 213.078 117.242 214.562 115.789C216.047 114.336 217.859 113.609 220 113.609C222.156 113.609 223.977 114.336 225.461 115.789C226.945 117.242 227.688 118.992 227.688 121.039C227.688 123.086 226.945 124.836 225.461 126.289C223.977 127.742 222.156 128.469 220 128.469C217.859 128.469 216.047 127.742 214.562 126.289ZM222.742 123.781C223.477 123.047 223.844 122.133 223.844 121.039C223.844 119.945 223.477 119.031 222.742 118.297C222.008 117.562 221.094 117.195 220 117.195C218.922 117.195 218.016 117.562 217.281 118.297C216.547 119.031 216.18 119.945 216.18 121.039C216.18 122.133 216.547 123.047 217.281 123.781C218.016 124.516 218.922 124.883 220 124.883C221.094 124.883 222.008 124.516 222.742 123.781Z" fill="white"/>
</svg>
