<svg width="350" height="210" viewBox="0 0 350 210" fill="none" xmlns="http://www.w3.org/2000/svg">
<path d="M175 208.754L3.02309 81H30H31V80V1H319V80V81H320H346.977L175 208.754Z" fill="#2E55E2" fill-opacity="0.4" stroke="#2E55E2" stroke-width="2"/>
<path d="M91.9023 43H84.2852V26.1953H91.4922C93.0156 26.1953 94.2734 26.6406 95.2656 27.5312C96.2656 28.4219 96.7656 29.457 96.7656 30.6367C96.7656 31.082 96.7031 31.5078 96.5781 31.9141C96.4531 32.3125 96.293 32.6445 96.0977 32.9102C95.9023 33.1758 95.707 33.4062 95.5117 33.6016C95.3242 33.7891 95.168 33.9219 95.043 34L94.8438 34.1172C94.9219 34.1484 95.0195 34.1953 95.1367 34.2578C95.2617 34.3125 95.4844 34.457 95.8047 34.6914C96.125 34.918 96.4062 35.168 96.6484 35.4414C96.8906 35.7148 97.1094 36.0898 97.3047 36.5664C97.5078 37.0352 97.6094 37.5391 97.6094 38.0781C97.6094 39.4219 97.0742 40.5781 96.0039 41.5469C94.9336 42.5156 93.5664 43 91.9023 43ZM87.8945 40H91.7266C92.3828 40 92.9258 39.793 93.3555 39.3789C93.793 38.9648 94.0117 38.4531 94.0117 37.8438C94.0117 37.2344 93.793 36.7227 93.3555 36.3086C92.9258 35.8867 92.3828 35.6758 91.7266 35.6758H87.8945V40ZM91.2461 29.1953H87.8945V32.8047H91.2461C91.8398 32.8047 92.3086 32.6406 92.6523 32.3125C92.9961 31.9844 93.168 31.5469 93.168 31C93.168 30.4531 92.9961 30.0156 92.6523 29.6875C92.3086 29.3594 91.8398 29.1953 91.2461 29.1953ZM101.418 41.3945C100.16 40.1758 99.5312 38.75 99.5312 37.1172C99.5312 35.4844 100.16 34.0586 101.418 32.8398C102.676 31.6133 104.168 31 105.895 31C106.504 31 107.082 31.0859 107.629 31.2578C108.184 31.4219 108.637 31.6211 108.988 31.8555C109.34 32.082 109.652 32.3125 109.926 32.5469C110.199 32.7812 110.398 32.9844 110.523 33.1562L110.699 33.4023L108.66 35.4414C108.598 35.332 108.492 35.1875 108.344 35.0078C108.203 34.8281 107.891 34.5977 107.406 34.3164C106.93 34.0273 106.426 33.8828 105.895 33.8828C105.043 33.8828 104.309 34.1992 103.691 34.832C103.082 35.4648 102.777 36.2305 102.777 37.1289C102.777 38.0195 103.086 38.7812 103.703 39.4141C104.32 40.0469 105.051 40.3633 105.895 40.3633C106.426 40.3633 106.93 40.2344 107.406 39.9766C107.891 39.7188 108.242 39.4609 108.461 39.2031L108.777 38.8047L110.699 40.8438C110.652 40.9062 110.586 40.9961 110.5 41.1133C110.422 41.2227 110.234 41.4141 109.938 41.6875C109.641 41.9531 109.32 42.1914 108.977 42.4023C108.633 42.6055 108.184 42.7969 107.629 42.9766C107.082 43.1484 106.504 43.2344 105.895 43.2344C104.168 43.2344 102.676 42.6211 101.418 41.3945ZM124.023 38.1953H115.504C115.629 38.8359 115.969 39.3789 116.523 39.8242C117.078 40.2617 117.777 40.4805 118.621 40.4805C119.23 40.4805 119.793 40.3633 120.309 40.1289C120.832 39.8867 121.199 39.6445 121.41 39.4023L121.75 39.0391L123.426 41.1953L123.215 41.4062C123.113 41.5078 122.902 41.6758 122.582 41.9102C122.262 42.1445 121.922 42.3555 121.562 42.543C121.203 42.7227 120.734 42.8828 120.156 43.0234C119.586 43.1641 118.996 43.2344 118.387 43.2344C116.66 43.2344 115.188 42.6367 113.969 41.4414C112.75 40.2383 112.141 38.7969 112.141 37.1172C112.141 35.4375 112.742 34 113.945 32.8047C115.148 31.6016 116.59 31 118.27 31C119.949 31 121.348 31.5625 122.465 32.6875C123.582 33.8047 124.141 35.2031 124.141 36.8828L124.023 38.1953ZM120.016 34.375C119.539 33.9688 118.957 33.7656 118.27 33.7656C117.582 33.7656 116.996 33.9648 116.512 34.3633C116.035 34.7617 115.699 35.2812 115.504 35.9219H120.906C120.781 35.2969 120.484 34.7812 120.016 34.375ZM132.637 41.3945C131.379 40.1758 130.75 38.75 130.75 37.1172C130.75 35.4844 131.379 34.0586 132.637 32.8398C133.895 31.6133 135.387 31 137.113 31C137.723 31 138.301 31.0859 138.848 31.2578C139.402 31.4219 139.855 31.6211 140.207 31.8555C140.559 32.082 140.871 32.3125 141.145 32.5469C141.418 32.7812 141.617 32.9844 141.742 33.1562L141.918 33.4023L139.879 35.4414C139.816 35.332 139.711 35.1875 139.562 35.0078C139.422 34.8281 139.109 34.5977 138.625 34.3164C138.148 34.0273 137.645 33.8828 137.113 33.8828C136.262 33.8828 135.527 34.1992 134.91 34.832C134.301 35.4648 133.996 36.2305 133.996 37.1289C133.996 38.0195 134.305 38.7812 134.922 39.4141C135.539 40.0469 136.27 40.3633 137.113 40.3633C137.645 40.3633 138.148 40.2344 138.625 39.9766C139.109 39.7188 139.461 39.4609 139.68 39.2031L139.996 38.8047L141.918 40.8438C141.871 40.9062 141.805 40.9961 141.719 41.1133C141.641 41.2227 141.453 41.4141 141.156 41.6875C140.859 41.9531 140.539 42.1914 140.195 42.4023C139.852 42.6055 139.402 42.7969 138.848 42.9766C138.301 43.1484 137.723 43.2344 137.113 43.2344C135.387 43.2344 133.895 42.6211 132.637 41.3945ZM145.281 31.2344H154.762V43H151.527V34.1172H148.41V34.8438C148.41 37.0391 148.223 38.7852 147.848 40.082C147.48 41.3711 147.004 42.2422 146.418 42.6953C145.84 43.1406 145.102 43.3633 144.203 43.3633C143.914 43.3633 143.629 43.3281 143.348 43.2578C143.074 43.1953 142.871 43.1406 142.738 43.0938L142.527 43V40.1172C142.77 40.1953 143.008 40.2344 143.242 40.2344C143.719 40.2344 144.094 40.1133 144.367 39.8711C144.641 39.6211 144.859 39.0703 145.023 38.2188C145.195 37.3594 145.281 36.1133 145.281 34.4805V31.2344ZM160.645 43.7148L161.008 42.8828L156.449 31.2344H159.812L162.566 39.0391L165.332 31.2344H168.684L164.008 43.7148C162.938 46.5977 161.418 48.0391 159.449 48.0391C159.098 48.0391 158.75 48.0078 158.406 47.9453C158.062 47.8828 157.809 47.8203 157.645 47.7578L157.41 47.6758V44.8047C157.73 44.9609 158.129 45.0391 158.605 45.0391C159.582 45.0391 160.262 44.5977 160.645 43.7148ZM177.32 43V39.0391C176.523 39.6016 175.602 39.8828 174.555 39.8828C173.211 39.8828 172.133 39.457 171.32 38.6055C170.516 37.7461 170.113 36.5703 170.113 35.0781V31.2344H173.359V34.8438C173.359 35.4375 173.543 35.9258 173.91 36.3086C174.277 36.6914 174.734 36.8828 175.281 36.8828C175.664 36.8828 176.027 36.8242 176.371 36.707C176.715 36.582 176.957 36.457 177.098 36.332L177.32 36.1562V31.2344H180.555V43H177.32ZM190.152 43V41.8047C190.059 41.9141 189.926 42.0508 189.754 42.2148C189.59 42.3711 189.227 42.582 188.664 42.8477C188.102 43.1055 187.516 43.2344 186.906 43.2344C185.734 43.2344 184.781 42.9102 184.047 42.2617C183.312 41.6055 182.945 40.8125 182.945 39.8828C182.945 38.9219 183.254 38.1211 183.871 37.4805C184.488 36.8398 185.34 36.4219 186.426 36.2266L190.152 35.5586C190.152 35.0664 189.973 34.6641 189.613 34.3516C189.254 34.0391 188.754 33.8828 188.113 33.8828C187.582 33.8828 187.098 33.9844 186.66 34.1875C186.223 34.3828 185.914 34.5859 185.734 34.7969L185.465 35.0781L183.672 33.2852C183.719 33.2227 183.781 33.1406 183.859 33.0391C183.945 32.9297 184.129 32.7461 184.41 32.4883C184.699 32.2305 185.012 32.0039 185.348 31.8086C185.684 31.6055 186.125 31.4219 186.672 31.2578C187.219 31.0859 187.777 31 188.348 31C189.832 31 191.043 31.4453 191.98 32.3359C192.918 33.2188 193.387 34.332 193.387 35.6758V43H190.152ZM187.75 40.5977C188.484 40.5977 189.066 40.3672 189.496 39.9062C189.934 39.4375 190.152 38.7891 190.152 37.9609V37.5977L187.516 38.0781C186.633 38.2188 186.191 38.6602 186.191 39.4023C186.191 40.1992 186.711 40.5977 187.75 40.5977ZM204.848 31.2344H207.672V43H204.438V36.4023L199.316 43H196.516V31.2344H199.75V37.8438L204.848 31.2344ZM224.477 25.9609C225.328 25.9609 226.145 26.0742 226.926 26.3008C227.707 26.5195 228.352 26.7891 228.859 27.1094C229.375 27.4297 229.824 27.7461 230.207 28.0586C230.59 28.3711 230.871 28.6406 231.051 28.8672L231.309 29.1953L229.633 30.8828C229.586 30.8203 229.516 30.7344 229.422 30.625C229.336 30.5078 229.133 30.3008 228.812 30.0039C228.492 29.707 228.148 29.4531 227.781 29.2422C227.414 29.0234 226.934 28.8242 226.34 28.6445C225.754 28.457 225.133 28.3633 224.477 28.3633C222.734 28.3633 221.258 28.9688 220.047 30.1797C218.836 31.3828 218.23 32.8555 218.23 34.5977C218.23 36.3398 218.832 37.8164 220.035 39.0273C221.246 40.2383 222.727 40.8438 224.477 40.8438C225.133 40.8438 225.758 40.7539 226.352 40.5742C226.953 40.3867 227.449 40.1641 227.84 39.9062C228.238 39.6484 228.586 39.3945 228.883 39.1445C229.188 38.8867 229.414 38.668 229.562 38.4883L229.75 38.1953L231.438 39.8828C231.375 39.9766 231.277 40.1016 231.145 40.2578C231.02 40.4062 230.734 40.6719 230.289 41.0547C229.852 41.4375 229.383 41.7773 228.883 42.0742C228.391 42.3711 227.742 42.6406 226.938 42.8828C226.141 43.1172 225.32 43.2344 224.477 43.2344C221.961 43.2344 219.852 42.3984 218.148 40.7266C216.445 39.0547 215.594 37.0117 215.594 34.5977C215.594 32.1836 216.445 30.1406 218.148 28.4688C219.852 26.7969 221.961 25.9609 224.477 25.9609ZM242.219 25.9609C243.07 25.9609 243.887 26.0742 244.668 26.3008C245.449 26.5195 246.094 26.7891 246.602 27.1094C247.117 27.4297 247.566 27.7461 247.949 28.0586C248.332 28.3711 248.613 28.6406 248.793 28.8672L249.051 29.1953L247.375 30.8828C247.328 30.8203 247.258 30.7344 247.164 30.625C247.078 30.5078 246.875 30.3008 246.555 30.0039C246.234 29.707 245.891 29.4531 245.523 29.2422C245.156 29.0234 244.676 28.8242 244.082 28.6445C243.496 28.457 242.875 28.3633 242.219 28.3633C240.477 28.3633 239 28.9688 237.789 30.1797C236.578 31.3828 235.973 32.8555 235.973 34.5977C235.973 36.3398 236.574 37.8164 237.777 39.0273C238.988 40.2383 240.469 40.8438 242.219 40.8438C242.875 40.8438 243.5 40.7539 244.094 40.5742C244.695 40.3867 245.191 40.1641 245.582 39.9062C245.98 39.6484 246.328 39.3945 246.625 39.1445C246.93 38.8867 247.156 38.668 247.305 38.4883L247.492 38.1953L249.18 39.8828C249.117 39.9766 249.02 40.1016 248.887 40.2578C248.762 40.4062 248.477 40.6719 248.031 41.0547C247.594 41.4375 247.125 41.7773 246.625 42.0742C246.133 42.3711 245.484 42.6406 244.68 42.8828C243.883 43.1172 243.062 43.2344 242.219 43.2344C239.703 43.2344 237.594 42.3984 235.891 40.7266C234.188 39.0547 233.336 37.0117 233.336 34.5977C233.336 32.1836 234.188 30.1406 235.891 28.4688C237.594 26.7969 239.703 25.9609 242.219 25.9609ZM259.961 25.9609C260.812 25.9609 261.629 26.0742 262.41 26.3008C263.191 26.5195 263.836 26.7891 264.344 27.1094C264.859 27.4297 265.309 27.7461 265.691 28.0586C266.074 28.3711 266.355 28.6406 266.535 28.8672L266.793 29.1953L265.117 30.8828C265.07 30.8203 265 30.7344 264.906 30.625C264.82 30.5078 264.617 30.3008 264.297 30.0039C263.977 29.707 263.633 29.4531 263.266 29.2422C262.898 29.0234 262.418 28.8242 261.824 28.6445C261.238 28.457 260.617 28.3633 259.961 28.3633C258.219 28.3633 256.742 28.9688 255.531 30.1797C254.32 31.3828 253.715 32.8555 253.715 34.5977C253.715 36.3398 254.316 37.8164 255.52 39.0273C256.73 40.2383 258.211 40.8438 259.961 40.8438C260.617 40.8438 261.242 40.7539 261.836 40.5742C262.438 40.3867 262.934 40.1641 263.324 39.9062C263.723 39.6484 264.07 39.3945 264.367 39.1445C264.672 38.8867 264.898 38.668 265.047 38.4883L265.234 38.1953L266.922 39.8828C266.859 39.9766 266.762 40.1016 266.629 40.2578C266.504 40.4062 266.219 40.6719 265.773 41.0547C265.336 41.4375 264.867 41.7773 264.367 42.0742C263.875 42.3711 263.227 42.6406 262.422 42.8828C261.625 43.1172 260.805 43.2344 259.961 43.2344C257.445 43.2344 255.336 42.3984 253.633 40.7266C251.93 39.0547 251.078 37.0117 251.078 34.5977C251.078 32.1836 251.93 30.1406 253.633 28.4688C255.336 26.7969 257.445 25.9609 259.961 25.9609ZM48.1445 59.4805H50.3008V71H47.8984V63.4414L41.8984 71H39.7422V59.4805H42.1445V67.0391L48.1445 59.4805ZM66.5078 59.4805V61.6367H60.8711V71H58.4688V59.4805H66.5078ZM76.2461 67.9648C76.957 67.2227 77.3125 66.3164 77.3125 65.2461C77.3125 64.168 76.957 63.2578 76.2461 62.5156C75.5352 61.7734 74.6914 61.4023 73.7148 61.4023C72.7383 61.4023 71.8906 61.7734 71.1719 62.5156C70.4609 63.2578 70.1055 64.168 70.1055 65.2461C70.1055 66.3164 70.4609 67.2227 71.1719 67.9648C71.8906 68.707 72.7383 69.0781 73.7148 69.0781C74.6914 69.0781 75.5352 68.707 76.2461 67.9648ZM69.5078 69.4414C68.3125 68.2539 67.7148 66.8555 67.7148 65.2461C67.7148 63.6289 68.3086 62.2227 69.4961 61.0273C70.6914 59.832 72.0977 59.2344 73.7148 59.2344C75.332 59.2344 76.7344 59.832 77.9219 61.0273C79.1172 62.2227 79.7148 63.6289 79.7148 65.2461C79.7148 66.8555 79.1172 68.2578 77.9219 69.4531C76.7344 70.6406 75.332 71.2344 73.7148 71.2344C72.0977 71.2344 70.6953 70.6367 69.5078 69.4414ZM83.4297 69.4414C82.2344 68.2539 81.6367 66.8555 81.6367 65.2461C81.6367 63.6289 82.2305 62.2227 83.418 61.0273C84.6133 59.832 86.0195 59.2344 87.6367 59.2344C88.5352 59.2344 89.3711 59.4297 90.1445 59.8203C90.918 60.2031 91.4727 60.5859 91.8086 60.9688L92.3125 61.5195L90.7539 63.0781C90.6758 62.9531 90.5547 62.8008 90.3906 62.6211C90.2344 62.4336 89.8867 62.1836 89.3477 61.8711C88.8164 61.5586 88.2461 61.4023 87.6367 61.4023C86.6602 61.4023 85.8125 61.7734 85.0938 62.5156C84.3828 63.2578 84.0273 64.168 84.0273 65.2461C84.0273 66.3164 84.3828 67.2227 85.0938 67.9648C85.8125 68.707 86.6602 69.0781 87.6367 69.0781C88.2461 69.0781 88.8164 68.9258 89.3477 68.6211C89.8867 68.3164 90.2734 68.0195 90.5078 67.7305L90.8711 67.2852L92.4297 68.8438C92.3828 68.9062 92.3125 68.9961 92.2188 69.1133C92.125 69.2227 91.9219 69.4141 91.6094 69.6875C91.2969 69.9531 90.9688 70.1914 90.625 70.4023C90.2812 70.6055 89.8359 70.7969 89.2891 70.9766C88.7422 71.1484 88.1914 71.2344 87.6367 71.2344C86.0195 71.2344 84.6172 70.6367 83.4297 69.4414ZM97.2227 61.6367V71H94.8203V59.4805H105.262V71H102.859V61.6367H97.2227ZM117.027 59.4805H119.184V71H116.781V63.4414L110.781 71H108.625V59.4805H111.027V67.0391L117.027 59.4805ZM121.352 61.6367V59.4805H131.664V61.6367H127.703V71H125.312V61.6367H121.352ZM143.066 71H140.664V69.8047C140.633 69.8359 140.578 69.8867 140.5 69.957C140.43 70.0273 140.281 70.1445 140.055 70.3086C139.836 70.4648 139.598 70.6094 139.34 70.7422C139.082 70.8672 138.758 70.9805 138.367 71.082C137.977 71.1836 137.582 71.2344 137.184 71.2344C136.012 71.2344 135.039 70.8945 134.266 70.2148C133.492 69.5352 133.105 68.7578 133.105 67.8828C133.105 66.9375 133.402 66.1445 133.996 65.5039C134.598 64.8633 135.418 64.457 136.457 64.2852L140.664 63.5586C140.664 62.9492 140.438 62.4375 139.984 62.0234C139.539 61.6094 138.965 61.4023 138.262 61.4023C137.652 61.4023 137.098 61.5312 136.598 61.7891C136.105 62.0391 135.766 62.293 135.578 62.5508L135.262 62.9609L133.703 61.4023C133.75 61.3398 133.812 61.2617 133.891 61.168C133.977 61.0664 134.16 60.8945 134.441 60.6523C134.73 60.4023 135.035 60.1797 135.355 59.9844C135.676 59.7891 136.098 59.6172 136.621 59.4688C137.152 59.3125 137.699 59.2344 138.262 59.2344C139.668 59.2344 140.82 59.6523 141.719 60.4883C142.617 61.3164 143.066 62.3398 143.066 63.5586V71ZM137.547 69.0781C138.523 69.0781 139.285 68.7891 139.832 68.2109C140.387 67.625 140.664 66.793 140.664 65.7148V65.4805L136.938 66.0781C136.508 66.1562 136.16 66.332 135.895 66.6055C135.629 66.8789 135.496 67.2227 135.496 67.6367C135.496 68.0195 135.68 68.3555 136.047 68.6445C136.422 68.9336 136.922 69.0781 137.547 69.0781ZM147.754 59.4805H156.637V71H154.234V61.6367H150.156V62.8438C150.156 65.0391 149.98 66.7734 149.629 68.0469C149.285 69.3125 148.84 70.1602 148.293 70.5898C147.754 71.0195 147.055 71.2344 146.195 71.2344C145.984 71.2344 145.758 71.2148 145.516 71.1758C145.281 71.1367 145.098 71.0938 144.965 71.0469L144.754 71V68.7148C145.074 68.793 145.352 68.8359 145.586 68.8438C146.078 68.8438 146.465 68.7109 146.746 68.4453C147.035 68.1797 147.273 67.5938 147.461 66.6875C147.656 65.7734 147.754 64.4922 147.754 62.8438V59.4805ZM168.402 59.4805H170.559V71H168.156V63.4414L162.156 71H160V59.4805H162.402V67.0391L168.402 59.4805ZM181.598 62.4805C181.598 63.0117 181.449 63.4766 181.152 63.875C180.863 64.2734 180.566 64.5352 180.262 64.6602L179.805 64.8828C179.867 64.8984 179.949 64.9258 180.051 64.9648C180.16 65.0039 180.34 65.0977 180.59 65.2461C180.848 65.3867 181.074 65.5586 181.27 65.7617C181.473 65.957 181.656 66.2305 181.82 66.582C181.992 66.9336 182.078 67.3281 182.078 67.7656C182.078 68.7266 181.648 69.5469 180.789 70.2266C179.938 70.8984 178.77 71.2344 177.285 71.2344C176.723 71.2344 176.18 71.1641 175.656 71.0234C175.141 70.8828 174.711 70.7148 174.367 70.5195C174.023 70.3242 173.723 70.1289 173.465 69.9336C173.207 69.7305 173.016 69.5586 172.891 69.418L172.727 69.1953L174.285 67.6367C174.379 67.7461 174.504 67.8828 174.66 68.0469C174.824 68.2109 175.168 68.4258 175.691 68.6914C176.223 68.9492 176.754 69.0781 177.285 69.0781C178.082 69.0781 178.68 68.9297 179.078 68.6328C179.484 68.3359 179.688 67.9648 179.688 67.5195C179.688 67.0742 179.484 66.7031 179.078 66.4062C178.68 66.1094 178.082 65.9609 177.285 65.9609H175.961V64.0391H177.285C177.91 64.0391 178.387 63.918 178.715 63.6758C179.043 63.4258 179.207 63.1094 179.207 62.7266C179.207 62.3359 179.043 62.0195 178.715 61.7773C178.387 61.5273 177.91 61.4023 177.285 61.4023C176.824 61.4023 176.371 61.4922 175.926 61.6719C175.488 61.8438 175.164 62.0234 174.953 62.2109L174.648 62.4805L173.078 60.9219C173.188 60.7969 173.348 60.6406 173.559 60.4531C173.77 60.2656 174.238 60.0156 174.965 59.7031C175.691 59.3906 176.465 59.2344 177.285 59.2344C178.613 59.2344 179.664 59.5547 180.438 60.1953C181.211 60.8359 181.598 61.5977 181.598 62.4805ZM193.973 71H191.57V69.8047C191.539 69.8359 191.484 69.8867 191.406 69.957C191.336 70.0273 191.188 70.1445 190.961 70.3086C190.742 70.4648 190.504 70.6094 190.246 70.7422C189.988 70.8672 189.664 70.9805 189.273 71.082C188.883 71.1836 188.488 71.2344 188.09 71.2344C186.918 71.2344 185.945 70.8945 185.172 70.2148C184.398 69.5352 184.012 68.7578 184.012 67.8828C184.012 66.9375 184.309 66.1445 184.902 65.5039C185.504 64.8633 186.324 64.457 187.363 64.2852L191.57 63.5586C191.57 62.9492 191.344 62.4375 190.891 62.0234C190.445 61.6094 189.871 61.4023 189.168 61.4023C188.559 61.4023 188.004 61.5312 187.504 61.7891C187.012 62.0391 186.672 62.293 186.484 62.5508L186.168 62.9609L184.609 61.4023C184.656 61.3398 184.719 61.2617 184.797 61.168C184.883 61.0664 185.066 60.8945 185.348 60.6523C185.637 60.4023 185.941 60.1797 186.262 59.9844C186.582 59.7891 187.004 59.6172 187.527 59.4688C188.059 59.3125 188.605 59.2344 189.168 59.2344C190.574 59.2344 191.727 59.6523 192.625 60.4883C193.523 61.3164 193.973 62.3398 193.973 63.5586V71ZM188.453 69.0781C189.43 69.0781 190.191 68.7891 190.738 68.2109C191.293 67.625 191.57 66.793 191.57 65.7148V65.4805L187.844 66.0781C187.414 66.1562 187.066 66.332 186.801 66.6055C186.535 66.8789 186.402 67.2227 186.402 67.6367C186.402 68.0195 186.586 68.3555 186.953 68.6445C187.328 68.9336 187.828 69.0781 188.453 69.0781ZM197.336 71V59.4805H199.738V68.8438H205.141V59.4805H207.543V68.8438H209.219V73.8828H206.816V71H197.336ZM220.012 59.4805H222.168V71H219.766V63.4414L213.766 71H211.609V59.4805H214.012V67.0391L220.012 59.4805ZM233.934 59.4805H236.09V71H233.688V63.4414L227.688 71H225.531V59.4805H227.934V67.0391L233.934 59.4805ZM246.66 61.6367V71H244.258V59.4805H254.699V71H252.297V61.6367H246.66ZM265.879 67.9648C266.59 67.2227 266.945 66.3164 266.945 65.2461C266.945 64.168 266.59 63.2578 265.879 62.5156C265.168 61.7734 264.324 61.4023 263.348 61.4023C262.371 61.4023 261.523 61.7734 260.805 62.5156C260.094 63.2578 259.738 64.168 259.738 65.2461C259.738 66.3164 260.094 67.2227 260.805 67.9648C261.523 68.707 262.371 69.0781 263.348 69.0781C264.324 69.0781 265.168 68.707 265.879 67.9648ZM259.141 69.4414C257.945 68.2539 257.348 66.8555 257.348 65.2461C257.348 63.6289 257.941 62.2227 259.129 61.0273C260.324 59.832 261.73 59.2344 263.348 59.2344C264.965 59.2344 266.367 59.832 267.555 61.0273C268.75 62.2227 269.348 63.6289 269.348 65.2461C269.348 66.8555 268.75 68.2578 267.555 69.4531C266.367 70.6406 264.965 71.2344 263.348 71.2344C261.73 71.2344 260.328 70.6367 259.141 69.4414ZM285.555 53.9609C286.406 53.9609 287.223 54.0742 288.004 54.3008C288.785 54.5195 289.43 54.7891 289.938 55.1094C290.453 55.4297 290.902 55.7461 291.285 56.0586C291.668 56.3711 291.949 56.6406 292.129 56.8672L292.387 57.1953L290.711 58.8828C290.664 58.8203 290.594 58.7344 290.5 58.625C290.414 58.5078 290.211 58.3008 289.891 58.0039C289.57 57.707 289.227 57.4531 288.859 57.2422C288.492 57.0234 288.012 56.8242 287.418 56.6445C286.832 56.457 286.211 56.3633 285.555 56.3633C283.812 56.3633 282.336 56.9688 281.125 58.1797C279.914 59.3828 279.309 60.8555 279.309 62.5977C279.309 64.3398 279.91 65.8164 281.113 67.0273C282.324 68.2383 283.805 68.8438 285.555 68.8438C286.211 68.8438 286.836 68.7539 287.43 68.5742C288.031 68.3867 288.527 68.1641 288.918 67.9062C289.316 67.6484 289.664 67.3945 289.961 67.1445C290.266 66.8867 290.492 66.668 290.641 66.4883L290.828 66.1953L292.516 67.8828C292.453 67.9766 292.355 68.1016 292.223 68.2578C292.098 68.4062 291.812 68.6719 291.367 69.0547C290.93 69.4375 290.461 69.7773 289.961 70.0742C289.469 70.3711 288.82 70.6406 288.016 70.8828C287.219 71.1172 286.398 71.2344 285.555 71.2344C283.039 71.2344 280.93 70.3984 279.227 68.7266C277.523 67.0547 276.672 65.0117 276.672 62.5977C276.672 60.1836 277.523 58.1406 279.227 56.4688C280.93 54.7969 283.039 53.9609 285.555 53.9609ZM309.426 54.1953V71H306.789V63.6758H298.504V71H295.867V54.1953H298.504V61.2852H306.789V54.1953H309.426Z" fill="white"/>
<path d="M139.141 111.688V116H122.336V111.688H139.141ZM160 110.234C160.156 110.297 160.367 110.391 160.633 110.516C160.914 110.625 161.398 110.906 162.086 111.359C162.773 111.797 163.383 112.305 163.914 112.883C164.445 113.461 164.922 114.266 165.344 115.297C165.781 116.312 166 117.43 166 118.648C166 121.398 164.898 123.727 162.695 125.633C160.508 127.523 157.609 128.469 154 128.469C152.469 128.469 151.016 128.289 149.641 127.93C148.266 127.555 147.125 127.117 146.219 126.617C145.328 126.102 144.555 125.586 143.898 125.07C143.242 124.555 142.766 124.125 142.469 123.781L142 123.195L145.352 119.844C145.414 119.938 145.523 120.078 145.68 120.266C145.852 120.438 146.211 120.75 146.758 121.203C147.305 121.641 147.875 122.031 148.469 122.375C149.078 122.703 149.875 123.008 150.859 123.289C151.859 123.555 152.906 123.688 154 123.688C156.078 123.688 157.719 123.188 158.922 122.188C160.125 121.172 160.727 119.914 160.727 118.414C160.727 116.898 160.125 115.641 158.922 114.641C157.719 113.625 156.078 113.117 154 113.117H150.648V108.312H154C155.656 108.312 156.945 107.883 157.867 107.023C158.805 106.164 159.273 105 159.273 103.531C159.273 102.047 158.805 100.875 157.867 100.016C156.945 99.1562 155.656 98.7266 154 98.7266C152.594 98.7266 151.266 99.0312 150.016 99.6406C148.766 100.25 147.883 100.836 147.367 101.398L146.57 102.312L143.195 98.9609C143.289 98.8359 143.43 98.6641 143.617 98.4453C143.82 98.2109 144.258 97.7969 144.93 97.2031C145.602 96.6094 146.32 96.1016 147.086 95.6797C147.852 95.2422 148.859 94.8438 150.109 94.4844C151.359 94.1094 152.656 93.9219 154 93.9219C157.297 93.9219 159.883 94.7734 161.758 96.4766C163.633 98.1641 164.57 100.352 164.57 103.039C164.57 103.961 164.406 104.852 164.078 105.711C163.766 106.555 163.383 107.242 162.93 107.773C162.477 108.305 162.031 108.766 161.594 109.156C161.172 109.531 160.797 109.797 160.469 109.953L160 110.234ZM168.859 94.3906H191.195V98.7266L177.039 128H171.742L185.664 99.1953H168.859V94.3906ZM207.695 96.1016C209.18 97.5547 209.922 99.3047 209.922 101.352C209.922 103.398 209.18 105.156 207.695 106.625C206.211 108.078 204.391 108.805 202.234 108.805C200.094 108.805 198.281 108.078 196.797 106.625C195.312 105.156 194.57 103.398 194.57 101.352C194.57 99.3047 195.312 97.5547 196.797 96.1016C198.281 94.6484 200.094 93.9219 202.234 93.9219C204.391 93.9219 206.211 94.6484 207.695 96.1016ZM199.516 98.6328C198.781 99.3672 198.414 100.281 198.414 101.375C198.414 102.453 198.781 103.359 199.516 104.094C200.25 104.828 201.156 105.195 202.234 105.195C203.328 105.195 204.242 104.828 204.977 104.094C205.711 103.359 206.078 102.453 206.078 101.375C206.078 100.281 205.711 99.3672 204.977 98.6328C204.242 97.8984 203.328 97.5312 202.234 97.5312C201.156 97.5312 200.25 97.8984 199.516 98.6328ZM198.414 128L219.531 94.3906H223.844L202.727 128H198.414ZM214.562 126.289C213.078 124.836 212.336 123.086 212.336 121.039C212.336 118.992 213.078 117.242 214.562 115.789C216.047 114.336 217.859 113.609 220 113.609C222.156 113.609 223.977 114.336 225.461 115.789C226.945 117.242 227.688 118.992 227.688 121.039C227.688 123.086 226.945 124.836 225.461 126.289C223.977 127.742 222.156 128.469 220 128.469C217.859 128.469 216.047 127.742 214.562 126.289ZM222.742 123.781C223.477 123.047 223.844 122.133 223.844 121.039C223.844 119.945 223.477 119.031 222.742 118.297C222.008 117.562 221.094 117.195 220 117.195C218.922 117.195 218.016 117.562 217.281 118.297C216.547 119.031 216.18 119.945 216.18 121.039C216.18 122.133 216.547 123.047 217.281 123.781C218.016 124.516 218.922 124.883 220 124.883C221.094 124.883 222.008 124.516 222.742 123.781Z" fill="white"/>
</svg>
