<svg width="350" height="210" viewBox="0 0 350 210" fill="none" xmlns="http://www.w3.org/2000/svg">
<path d="M175 208.754L3.02309 81H30H31V80V1H319V80V81H320H346.977L175 208.754Z" fill="#2E55E2" fill-opacity="0.4" stroke="#2E55E2" stroke-width="2"/>
<path d="M73.2695 42.168C72.0586 43.3789 71.4531 44.8555 71.4531 46.5977C71.4531 48.3398 72.0547 49.8164 73.2578 51.0273C74.4688 52.2383 75.9453 52.8438 77.6875 52.8438C79.4375 52.8438 80.9141 52.2383 82.1172 51.0273C83.3281 49.8164 83.9336 48.3398 83.9336 46.5977C83.9336 44.8555 83.3281 43.3828 82.1172 42.1797C80.9141 40.9688 79.4375 40.3633 77.6875 40.3633C75.9453 40.3633 74.4727 40.9648 73.2695 42.168ZM71.3711 52.7266C69.668 51.0547 68.8164 49.0117 68.8164 46.5977C68.8164 44.1836 69.668 42.1406 71.3711 40.4688C73.0742 38.7969 75.1797 37.9609 77.6875 37.9609C80.2031 37.9609 82.3125 38.7969 84.0156 40.4688C85.7188 42.1406 86.5703 44.1836 86.5703 46.5977C86.5703 49.0117 85.7188 51.0547 84.0156 52.7266C82.3125 54.3984 80.2031 55.2344 77.6875 55.2344C75.1797 55.2344 73.0742 54.3984 71.3711 52.7266ZM101.102 49.3633C101.102 50.9805 100.531 52.3633 99.3906 53.5117C98.2578 54.6602 96.9102 55.2344 95.3477 55.2344C93.543 55.2344 92.0898 54.5898 90.9883 53.3008C89.8945 52.0039 89.3477 50.1289 89.3477 47.6758C89.3477 44.8789 89.8672 42.7812 90.9062 41.3828C91.9453 39.9844 93.4258 39.125 95.3477 38.8047C96.1992 38.6641 96.9609 38.4844 97.6328 38.2656C98.3125 38.0469 98.7812 37.8633 99.0391 37.7148L99.4258 37.4805L100.504 39.2852C100.457 39.3477 100.359 39.4375 100.211 39.5547C100.07 39.6719 99.582 39.8828 98.7461 40.1875C97.918 40.4922 96.8633 40.75 95.582 40.9609C94.4805 41.1406 93.5938 41.5977 92.9219 42.332C92.25 43.0664 91.8555 44.0508 91.7383 45.2852C91.7695 45.2383 91.8242 45.1758 91.9023 45.0977C91.9883 45.0117 92.1562 44.8672 92.4062 44.6641C92.6562 44.4531 92.918 44.2695 93.1914 44.1133C93.4727 43.9492 93.8281 43.8047 94.2578 43.6797C94.6953 43.5469 95.1367 43.4805 95.582 43.4805C97.0352 43.4805 98.3164 44.0625 99.4258 45.2266C100.543 46.3828 101.102 47.7617 101.102 49.3633ZM92.9805 46.7031C92.3164 47.4219 91.9844 48.3086 91.9844 49.3633C91.9844 50.418 92.3164 51.3008 92.9805 52.0117C93.6445 52.7227 94.4297 53.0781 95.3359 53.0781C96.25 53.0781 97.0391 52.7227 97.7031 52.0117C98.3672 51.3008 98.6992 50.418 98.6992 49.3633C98.6992 48.3086 98.3672 47.4258 97.7031 46.7148C97.0391 45.9961 96.25 45.6367 95.3359 45.6367C94.4297 45.6367 93.6445 45.9922 92.9805 46.7031ZM103.973 55V43.4805H106.375V52.8438H110.57V43.4805H112.973V52.8438H117.18V43.4805H119.57V52.8438H121.258V57.8828H118.855V55H103.973ZM132.906 55H130.504V53.8047C130.473 53.8359 130.418 53.8867 130.34 53.957C130.27 54.0273 130.121 54.1445 129.895 54.3086C129.676 54.4648 129.438 54.6094 129.18 54.7422C128.922 54.8672 128.598 54.9805 128.207 55.082C127.816 55.1836 127.422 55.2344 127.023 55.2344C125.852 55.2344 124.879 54.8945 124.105 54.2148C123.332 53.5352 122.945 52.7578 122.945 51.8828C122.945 50.9375 123.242 50.1445 123.836 49.5039C124.438 48.8633 125.258 48.457 126.297 48.2852L130.504 47.5586C130.504 46.9492 130.277 46.4375 129.824 46.0234C129.379 45.6094 128.805 45.4023 128.102 45.4023C127.492 45.4023 126.938 45.5312 126.438 45.7891C125.945 46.0391 125.605 46.293 125.418 46.5508L125.102 46.9609L123.543 45.4023C123.59 45.3398 123.652 45.2617 123.73 45.168C123.816 45.0664 124 44.8945 124.281 44.6523C124.57 44.4023 124.875 44.1797 125.195 43.9844C125.516 43.7891 125.938 43.6172 126.461 43.4688C126.992 43.3125 127.539 43.2344 128.102 43.2344C129.508 43.2344 130.66 43.6523 131.559 44.4883C132.457 45.3164 132.906 46.3398 132.906 47.5586V55ZM127.387 53.0781C128.363 53.0781 129.125 52.7891 129.672 52.2109C130.227 51.625 130.504 50.793 130.504 49.7148V49.4805L126.777 50.0781C126.348 50.1562 126 50.332 125.734 50.6055C125.469 50.8789 125.336 51.2227 125.336 51.6367C125.336 52.0195 125.52 52.3555 125.887 52.6445C126.262 52.9336 126.762 53.0781 127.387 53.0781ZM140.113 43.4805H145.387V55H142.996V51.4023H140.477L138.191 55H135.555L138.074 51.0391C138.012 51.0234 137.926 50.9883 137.816 50.9336C137.715 50.8789 137.535 50.7578 137.277 50.5703C137.02 50.375 136.789 50.1523 136.586 49.9023C136.391 49.6523 136.207 49.3086 136.035 48.8711C135.871 48.4258 135.789 47.9492 135.789 47.4414C135.789 46.293 136.184 45.3477 136.973 44.6055C137.77 43.8555 138.816 43.4805 140.113 43.4805ZM142.996 45.5195H140.113C139.566 45.5195 139.109 45.7031 138.742 46.0703C138.375 46.4375 138.191 46.8945 138.191 47.4414C138.191 47.9883 138.375 48.4453 138.742 48.8125C139.109 49.1797 139.566 49.3633 140.113 49.3633H142.996V45.5195ZM154.621 53.4414C153.426 52.2539 152.828 50.8555 152.828 49.2461C152.828 47.6289 153.422 46.2227 154.609 45.0273C155.805 43.832 157.211 43.2344 158.828 43.2344C159.727 43.2344 160.562 43.4297 161.336 43.8203C162.109 44.2031 162.664 44.5859 163 44.9688L163.504 45.5195L161.945 47.0781C161.867 46.9531 161.746 46.8008 161.582 46.6211C161.426 46.4336 161.078 46.1836 160.539 45.8711C160.008 45.5586 159.438 45.4023 158.828 45.4023C157.852 45.4023 157.004 45.7734 156.285 46.5156C155.574 47.2578 155.219 48.168 155.219 49.2461C155.219 50.3164 155.574 51.2227 156.285 51.9648C157.004 52.707 157.852 53.0781 158.828 53.0781C159.438 53.0781 160.008 52.9258 160.539 52.6211C161.078 52.3164 161.465 52.0195 161.699 51.7305L162.062 51.2852L163.621 52.8438C163.574 52.9062 163.504 52.9961 163.41 53.1133C163.316 53.2227 163.113 53.4141 162.801 53.6875C162.488 53.9531 162.16 54.1914 161.816 54.4023C161.473 54.6055 161.027 54.7969 160.48 54.9766C159.934 55.1484 159.383 55.2344 158.828 55.2344C157.211 55.2344 155.809 54.6367 154.621 53.4414ZM172.129 48.5195L176.336 43.4805H178.258V55H175.855V47.4414L172.129 51.8828L168.414 47.4414V55H166.012V43.4805H167.934L172.129 48.5195ZM192.297 50.0781H183.297C183.422 50.8906 183.82 51.5938 184.492 52.1875C185.172 52.7812 185.977 53.0781 186.906 53.0781C187.578 53.0781 188.203 52.9258 188.781 52.6211C189.367 52.3164 189.781 52.0195 190.023 51.7305L190.387 51.2852L191.945 52.8438C191.898 52.9062 191.824 52.9961 191.723 53.1133C191.629 53.2227 191.422 53.4141 191.102 53.6875C190.781 53.9531 190.441 54.1914 190.082 54.4023C189.723 54.6055 189.254 54.7969 188.676 54.9766C188.105 55.1484 187.516 55.2344 186.906 55.2344C185.273 55.2344 183.863 54.6367 182.676 53.4414C181.496 52.2383 180.906 50.7969 180.906 49.1172C180.906 47.5 181.48 46.1172 182.629 44.9688C183.785 43.8125 185.168 43.2344 186.777 43.2344C188.395 43.2344 189.738 43.7734 190.809 44.8516C191.887 45.9219 192.426 47.2656 192.426 48.8828L192.297 50.0781ZM186.777 45.2852C185.91 45.2852 185.18 45.543 184.586 46.0586C184 46.5664 183.605 47.2266 183.402 48.0391H190.07C189.93 47.2266 189.566 46.5664 188.98 46.0586C188.395 45.543 187.66 45.2852 186.777 45.2852ZM201.168 55.2344C200.738 55.2344 200.32 55.1836 199.914 55.082C199.508 54.9805 199.16 54.8555 198.871 54.707C198.582 54.5508 198.324 54.3945 198.098 54.2383C197.879 54.0742 197.719 53.9453 197.617 53.8516L197.453 53.6758V60.0391H195.051V43.4805H197.453V44.8047C197.562 44.6953 197.715 44.5508 197.91 44.3711C198.113 44.1914 198.539 43.957 199.188 43.668C199.836 43.3789 200.496 43.2344 201.168 43.2344C202.691 43.2344 204.012 43.8203 205.129 44.9922C206.254 46.1562 206.816 47.5703 206.816 49.2344C206.816 50.8984 206.254 52.3164 205.129 53.4883C204.012 54.6523 202.691 55.2344 201.168 55.2344ZM203.359 46.5273C202.656 45.7773 201.848 45.4023 200.934 45.4023C200.02 45.4023 199.211 45.7773 198.508 46.5273C197.805 47.2773 197.453 48.1836 197.453 49.2461C197.453 50.3008 197.805 51.2031 198.508 51.9531C199.211 52.7031 200.02 53.0781 200.934 53.0781C201.848 53.0781 202.656 52.7031 203.359 51.9531C204.062 51.2031 204.414 50.3008 204.414 49.2461C204.414 48.1836 204.062 47.2773 203.359 46.5273ZM208.246 45.6367V43.4805H218.559V45.6367H214.598V55H212.207V45.6367H208.246ZM223.117 50.1953V55H220.715V43.4805H223.117V48.0391H228.754V43.4805H231.156V55H228.754V50.1953H223.117ZM242.336 51.9648C243.047 51.2227 243.402 50.3164 243.402 49.2461C243.402 48.168 243.047 47.2578 242.336 46.5156C241.625 45.7734 240.781 45.4023 239.805 45.4023C238.828 45.4023 237.98 45.7734 237.262 46.5156C236.551 47.2578 236.195 48.168 236.195 49.2461C236.195 50.3164 236.551 51.2227 237.262 51.9648C237.98 52.707 238.828 53.0781 239.805 53.0781C240.781 53.0781 241.625 52.707 242.336 51.9648ZM235.598 53.4414C234.402 52.2539 233.805 50.8555 233.805 49.2461C233.805 47.6289 234.398 46.2227 235.586 45.0273C236.781 43.832 238.188 43.2344 239.805 43.2344C241.422 43.2344 242.824 43.832 244.012 45.0273C245.207 46.2227 245.805 47.6289 245.805 49.2461C245.805 50.8555 245.207 52.2578 244.012 53.4531C242.824 54.6406 241.422 55.2344 239.805 55.2344C238.188 55.2344 236.785 54.6367 235.598 53.4414ZM249.52 53.4414C248.324 52.2539 247.727 50.8555 247.727 49.2461C247.727 47.6289 248.32 46.2227 249.508 45.0273C250.703 43.832 252.109 43.2344 253.727 43.2344C254.625 43.2344 255.461 43.4297 256.234 43.8203C257.008 44.2031 257.562 44.5859 257.898 44.9688L258.402 45.5195L256.844 47.0781C256.766 46.9531 256.645 46.8008 256.48 46.6211C256.324 46.4336 255.977 46.1836 255.438 45.8711C254.906 45.5586 254.336 45.4023 253.727 45.4023C252.75 45.4023 251.902 45.7734 251.184 46.5156C250.473 47.2578 250.117 48.168 250.117 49.2461C250.117 50.3164 250.473 51.2227 251.184 51.9648C251.902 52.707 252.75 53.0781 253.727 53.0781C254.336 53.0781 254.906 52.9258 255.438 52.6211C255.977 52.3164 256.363 52.0195 256.598 51.7305L256.961 51.2852L258.52 52.8438C258.473 52.9062 258.402 52.9961 258.309 53.1133C258.215 53.2227 258.012 53.4141 257.699 53.6875C257.387 53.9531 257.059 54.1914 256.715 54.4023C256.371 54.6055 255.926 54.7969 255.379 54.9766C254.832 55.1484 254.281 55.2344 253.727 55.2344C252.109 55.2344 250.707 54.6367 249.52 53.4414ZM259.715 45.6367V43.4805H270.027V45.6367H266.066V55H263.676V45.6367H259.715ZM274.586 52.9609H277.223C277.77 52.9609 278.227 52.7773 278.594 52.4102C278.961 52.043 279.145 51.5859 279.145 51.0391C279.145 50.4922 278.961 50.0352 278.594 49.668C278.227 49.3008 277.77 49.1172 277.223 49.1172H274.586V52.9609ZM280.363 48.1914C281.152 48.9414 281.547 49.8945 281.547 51.0508C281.547 52.1992 281.148 53.1445 280.352 53.8867C279.562 54.6289 278.52 55 277.223 55H272.184V43.4805H274.586V47.0781H277.223C278.52 47.0781 279.566 47.4492 280.363 48.1914Z" fill="white"/>
<path d="M142.023 111.688V116H125.219V111.688H142.023ZM162.883 110.234C163.039 110.297 163.25 110.391 163.516 110.516C163.797 110.625 164.281 110.906 164.969 111.359C165.656 111.797 166.266 112.305 166.797 112.883C167.328 113.461 167.805 114.266 168.227 115.297C168.664 116.312 168.883 117.43 168.883 118.648C168.883 121.398 167.781 123.727 165.578 125.633C163.391 127.523 160.492 128.469 156.883 128.469C155.352 128.469 153.898 128.289 152.523 127.93C151.148 127.555 150.008 127.117 149.102 126.617C148.211 126.102 147.438 125.586 146.781 125.07C146.125 124.555 145.648 124.125 145.352 123.781L144.883 123.195L148.234 119.844C148.297 119.938 148.406 120.078 148.562 120.266C148.734 120.438 149.094 120.75 149.641 121.203C150.188 121.641 150.758 122.031 151.352 122.375C151.961 122.703 152.758 123.008 153.742 123.289C154.742 123.555 155.789 123.688 156.883 123.688C158.961 123.688 160.602 123.188 161.805 122.188C163.008 121.172 163.609 119.914 163.609 118.414C163.609 116.898 163.008 115.641 161.805 114.641C160.602 113.625 158.961 113.117 156.883 113.117H153.531V108.312H156.883C158.539 108.312 159.828 107.883 160.75 107.023C161.688 106.164 162.156 105 162.156 103.531C162.156 102.047 161.688 100.875 160.75 100.016C159.828 99.1562 158.539 98.7266 156.883 98.7266C155.477 98.7266 154.148 99.0312 152.898 99.6406C151.648 100.25 150.766 100.836 150.25 101.398L149.453 102.312L146.078 98.9609C146.172 98.8359 146.312 98.6641 146.5 98.4453C146.703 98.2109 147.141 97.7969 147.812 97.2031C148.484 96.6094 149.203 96.1016 149.969 95.6797C150.734 95.2422 151.742 94.8438 152.992 94.4844C154.242 94.1094 155.539 93.9219 156.883 93.9219C160.18 93.9219 162.766 94.7734 164.641 96.4766C166.516 98.1641 167.453 100.352 167.453 103.039C167.453 103.961 167.289 104.852 166.961 105.711C166.648 106.555 166.266 107.242 165.812 107.773C165.359 108.305 164.914 108.766 164.477 109.156C164.055 109.531 163.68 109.797 163.352 109.953L162.883 110.234ZM180.414 94.3906H184.492V128H179.219V102.57H173.219V98.9609C175.234 98.7422 176.766 98.2656 177.812 97.5312C178.875 96.7812 179.742 95.7344 180.414 94.3906ZM204.812 96.1016C206.297 97.5547 207.039 99.3047 207.039 101.352C207.039 103.398 206.297 105.156 204.812 106.625C203.328 108.078 201.508 108.805 199.352 108.805C197.211 108.805 195.398 108.078 193.914 106.625C192.43 105.156 191.688 103.398 191.688 101.352C191.688 99.3047 192.43 97.5547 193.914 96.1016C195.398 94.6484 197.211 93.9219 199.352 93.9219C201.508 93.9219 203.328 94.6484 204.812 96.1016ZM196.633 98.6328C195.898 99.3672 195.531 100.281 195.531 101.375C195.531 102.453 195.898 103.359 196.633 104.094C197.367 104.828 198.273 105.195 199.352 105.195C200.445 105.195 201.359 104.828 202.094 104.094C202.828 103.359 203.195 102.453 203.195 101.375C203.195 100.281 202.828 99.3672 202.094 98.6328C201.359 97.8984 200.445 97.5312 199.352 97.5312C198.273 97.5312 197.367 97.8984 196.633 98.6328ZM195.531 128L216.648 94.3906H220.961L199.844 128H195.531ZM211.68 126.289C210.195 124.836 209.453 123.086 209.453 121.039C209.453 118.992 210.195 117.242 211.68 115.789C213.164 114.336 214.977 113.609 217.117 113.609C219.273 113.609 221.094 114.336 222.578 115.789C224.062 117.242 224.805 118.992 224.805 121.039C224.805 123.086 224.062 124.836 222.578 126.289C221.094 127.742 219.273 128.469 217.117 128.469C214.977 128.469 213.164 127.742 211.68 126.289ZM219.859 123.781C220.594 123.047 220.961 122.133 220.961 121.039C220.961 119.945 220.594 119.031 219.859 118.297C219.125 117.562 218.211 117.195 217.117 117.195C216.039 117.195 215.133 117.562 214.398 118.297C213.664 119.031 213.297 119.945 213.297 121.039C213.297 122.133 213.664 123.047 214.398 123.781C215.133 124.516 216.039 124.883 217.117 124.883C218.211 124.883 219.125 124.516 219.859 123.781Z" fill="white"/>
</svg>
