<svg width="350" height="210" viewBox="0 0 350 210" fill="none" xmlns="http://www.w3.org/2000/svg">
<path d="M175 208.754L3.02309 81H30H31V80V1H319V80V81H320H346.977L175 208.754Z" fill="#2E55E2" fill-opacity="0.4" stroke="#2E55E2" stroke-width="2"/>
<path d="M85.9609 26.1953H93.0391C94.7656 26.1953 96.1953 26.7383 97.3281 27.8242C98.4688 28.9023 99.0391 30.2422 99.0391 31.8438C99.0391 33.4375 98.4727 34.7773 97.3398 35.8633C96.207 36.9414 94.7734 37.4805 93.0391 37.4805H89.5703V43H85.9609V26.1953ZM92.9219 29.4414H89.5703V34.2344H92.9219C93.6406 34.2344 94.2383 34.0039 94.7148 33.543C95.1992 33.082 95.4414 32.5156 95.4414 31.8438C95.4414 31.1719 95.1992 30.6055 94.7148 30.1445C94.2383 29.6758 93.6406 29.4414 92.9219 29.4414ZM109.891 31.2344H112.715V43H109.48V36.4023L104.359 43H101.559V31.2344H104.793V37.8438L109.891 31.2344ZM116.992 41.3945C115.734 40.1758 115.105 38.75 115.105 37.1172C115.105 35.4844 115.734 34.0586 116.992 32.8398C118.25 31.6133 119.742 31 121.469 31C122.078 31 122.656 31.0859 123.203 31.2578C123.758 31.4219 124.211 31.6211 124.562 31.8555C124.914 32.082 125.227 32.3125 125.5 32.5469C125.773 32.7812 125.973 32.9844 126.098 33.1562L126.273 33.4023L124.234 35.4414C124.172 35.332 124.066 35.1875 123.918 35.0078C123.777 34.8281 123.465 34.5977 122.98 34.3164C122.504 34.0273 122 33.8828 121.469 33.8828C120.617 33.8828 119.883 34.1992 119.266 34.832C118.656 35.4648 118.352 36.2305 118.352 37.1289C118.352 38.0195 118.66 38.7812 119.277 39.4141C119.895 40.0469 120.625 40.3633 121.469 40.3633C122 40.3633 122.504 40.2344 122.98 39.9766C123.465 39.7188 123.816 39.4609 124.035 39.2031L124.352 38.8047L126.273 40.8438C126.227 40.9062 126.16 40.9961 126.074 41.1133C125.996 41.2227 125.809 41.4141 125.512 41.6875C125.215 41.9531 124.895 42.1914 124.551 42.4023C124.207 42.6055 123.758 42.7969 123.203 42.9766C122.656 43.1484 122.078 43.2344 121.469 43.2344C119.742 43.2344 118.25 42.6211 116.992 41.3945ZM139.598 31.2344L135.156 36.2852L139.844 43H136.234L133.117 38.4414L131.676 40.1172V43H128.441V31.2344H131.676V36.0391L135.883 31.2344H139.598ZM146.324 31.2344H152.207C153.379 31.2344 154.332 31.5547 155.066 32.1953C155.801 32.8359 156.168 33.5977 156.168 34.4805C156.168 35.0117 156.047 35.4766 155.805 35.875C155.562 36.2734 155.32 36.5352 155.078 36.6602L154.727 36.8828C154.773 36.8984 154.84 36.9219 154.926 36.9531C155.012 36.9844 155.168 37.0742 155.395 37.2227C155.621 37.3633 155.816 37.5273 155.98 37.7148C156.152 37.8945 156.305 38.1445 156.438 38.4648C156.578 38.7852 156.648 39.1367 156.648 39.5195C156.648 40.5117 156.266 41.3398 155.5 42.0039C154.742 42.668 153.723 43 152.441 43H146.324V31.2344ZM152.207 37.9609H149.559V40.3633H152.207C152.574 40.3633 152.863 40.25 153.074 40.0234C153.293 39.7969 153.402 39.5078 153.402 39.1562C153.402 38.8047 153.293 38.5195 153.074 38.3008C152.863 38.0742 152.574 37.9609 152.207 37.9609ZM151.961 35.8047C152.602 35.8047 152.922 35.4844 152.922 34.8438C152.922 34.2031 152.602 33.8828 151.961 33.8828H149.559V35.8047H151.961ZM162.285 38.5586V43H159.051V31.2344H162.285V35.6758H166.844V31.2344H170.09V43H166.844V38.5586H162.285ZM184.363 38.1953H175.844C175.969 38.8359 176.309 39.3789 176.863 39.8242C177.418 40.2617 178.117 40.4805 178.961 40.4805C179.57 40.4805 180.133 40.3633 180.648 40.1289C181.172 39.8867 181.539 39.6445 181.75 39.4023L182.09 39.0391L183.766 41.1953L183.555 41.4062C183.453 41.5078 183.242 41.6758 182.922 41.9102C182.602 42.1445 182.262 42.3555 181.902 42.543C181.543 42.7227 181.074 42.8828 180.496 43.0234C179.926 43.1641 179.336 43.2344 178.727 43.2344C177 43.2344 175.527 42.6367 174.309 41.4414C173.09 40.2383 172.48 38.7969 172.48 37.1172C172.48 35.4375 173.082 34 174.285 32.8047C175.488 31.6016 176.93 31 178.609 31C180.289 31 181.688 31.5625 182.805 32.6875C183.922 33.8047 184.48 35.2031 184.48 36.8828L184.363 38.1953ZM180.355 34.375C179.879 33.9688 179.297 33.7656 178.609 33.7656C177.922 33.7656 177.336 33.9648 176.852 34.3633C176.375 34.7617 176.039 35.2812 175.844 35.9219H181.246C181.121 35.2969 180.824 34.7812 180.355 34.375ZM195.168 34.4805C195.168 34.832 195.105 35.1562 194.98 35.4531C194.855 35.75 194.695 35.9844 194.5 36.1562C194.312 36.3203 194.121 36.4648 193.926 36.5898C193.73 36.707 193.57 36.7812 193.445 36.8125L193.258 36.8828C193.32 36.8984 193.406 36.9258 193.516 36.9648C193.625 37.0039 193.816 37.0977 194.09 37.2461C194.363 37.3867 194.602 37.5586 194.805 37.7617C195.016 37.957 195.207 38.2305 195.379 38.582C195.559 38.9336 195.648 39.3281 195.648 39.7656C195.648 40.7266 195.207 41.5469 194.324 42.2266C193.449 42.8984 192.211 43.2344 190.609 43.2344C189.984 43.2344 189.387 43.1602 188.816 43.0117C188.254 42.8633 187.789 42.6836 187.422 42.4727C187.055 42.2617 186.734 42.0547 186.461 41.8516C186.188 41.6406 185.996 41.4648 185.887 41.3242L185.688 41.0781L187.492 39.2852C187.555 39.3789 187.656 39.5 187.797 39.6484C187.945 39.7891 188.258 39.9844 188.734 40.2344C189.219 40.4766 189.727 40.5977 190.258 40.5977C190.883 40.5977 191.355 40.4766 191.676 40.2344C192.004 39.9844 192.168 39.668 192.168 39.2852C192.168 38.4883 191.531 38.0859 190.258 38.0781H189.051V35.9219H190.258C190.773 35.9219 191.16 35.8242 191.418 35.6289C191.684 35.4258 191.816 35.1641 191.816 34.8438C191.816 34.0469 191.297 33.6445 190.258 33.6367C189.875 33.6367 189.48 33.7266 189.074 33.9062C188.676 34.0781 188.371 34.2617 188.16 34.457L187.855 34.7148L186.051 32.9219C186.082 32.875 186.137 32.8086 186.215 32.7227C186.301 32.6289 186.48 32.4727 186.754 32.2539C187.035 32.0273 187.336 31.832 187.656 31.668C187.977 31.4961 188.406 31.3438 188.945 31.2109C189.484 31.0703 190.039 31 190.609 31C191.984 31 193.086 31.3438 193.914 32.0312C194.75 32.7188 195.168 33.5352 195.168 34.4805ZM204.531 43V41.8047C204.438 41.9141 204.305 42.0508 204.133 42.2148C203.969 42.3711 203.605 42.582 203.043 42.8477C202.48 43.1055 201.895 43.2344 201.285 43.2344C200.113 43.2344 199.16 42.9102 198.426 42.2617C197.691 41.6055 197.324 40.8125 197.324 39.8828C197.324 38.9219 197.633 38.1211 198.25 37.4805C198.867 36.8398 199.719 36.4219 200.805 36.2266L204.531 35.5586C204.531 35.0664 204.352 34.6641 203.992 34.3516C203.633 34.0391 203.133 33.8828 202.492 33.8828C201.961 33.8828 201.477 33.9844 201.039 34.1875C200.602 34.3828 200.293 34.5859 200.113 34.7969L199.844 35.0781L198.051 33.2852C198.098 33.2227 198.16 33.1406 198.238 33.0391C198.324 32.9297 198.508 32.7461 198.789 32.4883C199.078 32.2305 199.391 32.0039 199.727 31.8086C200.062 31.6055 200.504 31.4219 201.051 31.2578C201.598 31.0859 202.156 31 202.727 31C204.211 31 205.422 31.4453 206.359 32.3359C207.297 33.2188 207.766 34.332 207.766 35.6758V43H204.531ZM202.129 40.5977C202.863 40.5977 203.445 40.3672 203.875 39.9062C204.312 39.4375 204.531 38.7891 204.531 37.9609V37.5977L201.895 38.0781C201.012 38.2188 200.57 38.6602 200.57 39.4023C200.57 40.1992 201.09 40.5977 202.129 40.5977ZM214.129 34.1172V43H210.895V31.2344H221.934V43H218.688V34.1172H214.129ZM228.285 38.5586V43H225.051V31.2344H228.285V35.6758H232.844V31.2344H236.09V43H232.844V38.5586H228.285ZM242.699 34.9023C242.129 35.5039 241.844 36.2461 241.844 37.1289C241.844 38.0039 242.129 38.7422 242.699 39.3438C243.27 39.9375 243.945 40.2344 244.727 40.2344C245.508 40.2344 246.184 39.9375 246.754 39.3438C247.324 38.7422 247.609 38.0039 247.609 37.1289C247.609 36.2461 247.324 35.5039 246.754 34.9023C246.184 34.3008 245.508 34 244.727 34C243.945 34 243.27 34.3008 242.699 34.9023ZM249.109 32.8281C250.344 34.0547 250.961 35.4844 250.961 37.1172C250.961 38.75 250.34 40.1797 249.098 41.4062C247.863 42.625 246.406 43.2344 244.727 43.2344C243.047 43.2344 241.586 42.625 240.344 41.4062C239.102 40.1797 238.48 38.75 238.48 37.1172C238.48 35.4844 239.102 34.0586 240.344 32.8398C241.586 31.6133 243.047 31 244.727 31C246.406 31 247.867 31.6094 249.109 32.8281ZM257.852 27.1094C258.125 27.3828 258.469 27.5195 258.883 27.5195C259.297 27.5195 259.641 27.3828 259.914 27.1094C260.188 26.8359 260.324 26.4922 260.324 26.0781H262.727C262.727 27.1016 262.363 27.957 261.637 28.6445C260.918 29.332 260 29.6758 258.883 29.6758C257.766 29.6758 256.844 29.332 256.117 28.6445C255.398 27.957 255.039 27.1016 255.039 26.0781H257.441C257.441 26.4922 257.578 26.8359 257.852 27.1094ZM261.695 31.2344H264.52V43H261.285V36.4023L256.164 43H253.363V31.2344H256.598V37.8438L261.695 31.2344ZM136.316 69.3945C135.059 68.1758 134.43 66.75 134.43 65.1172C134.43 63.4844 135.059 62.0586 136.316 60.8398C137.574 59.6133 139.066 59 140.793 59C141.402 59 141.98 59.0859 142.527 59.2578C143.082 59.4219 143.535 59.6211 143.887 59.8555C144.238 60.082 144.551 60.3125 144.824 60.5469C145.098 60.7812 145.297 60.9844 145.422 61.1562L145.598 61.4023L143.559 63.4414C143.496 63.332 143.391 63.1875 143.242 63.0078C143.102 62.8281 142.789 62.5977 142.305 62.3164C141.828 62.0273 141.324 61.8828 140.793 61.8828C139.941 61.8828 139.207 62.1992 138.59 62.832C137.98 63.4648 137.676 64.2305 137.676 65.1289C137.676 66.0195 137.984 66.7812 138.602 67.4141C139.219 68.0469 139.949 68.3633 140.793 68.3633C141.324 68.3633 141.828 68.2344 142.305 67.9766C142.789 67.7188 143.141 67.4609 143.359 67.2031L143.676 66.8047L145.598 68.8438C145.551 68.9062 145.484 68.9961 145.398 69.1133C145.32 69.2227 145.133 69.4141 144.836 69.6875C144.539 69.9531 144.219 70.1914 143.875 70.4023C143.531 70.6055 143.082 70.7969 142.527 70.9766C141.98 71.1484 141.402 71.2344 140.793 71.2344C139.066 71.2344 137.574 70.6211 136.316 69.3945ZM154.129 68.1172L151 64.0391V71H147.766V59.2344H150.52L154.129 63.9219L157.727 59.2344H160.48V71H157.246V64.0391L154.129 68.1172ZM174.766 66.1953H166.246C166.371 66.8359 166.711 67.3789 167.266 67.8242C167.82 68.2617 168.52 68.4805 169.363 68.4805C169.973 68.4805 170.535 68.3633 171.051 68.1289C171.574 67.8867 171.941 67.6445 172.152 67.4023L172.492 67.0391L174.168 69.1953L173.957 69.4062C173.855 69.5078 173.645 69.6758 173.324 69.9102C173.004 70.1445 172.664 70.3555 172.305 70.543C171.945 70.7227 171.477 70.8828 170.898 71.0234C170.328 71.1641 169.738 71.2344 169.129 71.2344C167.402 71.2344 165.93 70.6367 164.711 69.4414C163.492 68.2383 162.883 66.7969 162.883 65.1172C162.883 63.4375 163.484 62 164.688 60.8047C165.891 59.6016 167.332 59 169.012 59C170.691 59 172.09 59.5625 173.207 60.6875C174.324 61.8047 174.883 63.2031 174.883 64.8828L174.766 66.1953ZM170.758 62.375C170.281 61.9688 169.699 61.7656 169.012 61.7656C168.324 61.7656 167.738 61.9648 167.254 62.3633C166.777 62.7617 166.441 63.2812 166.246 63.9219H171.648C171.523 63.2969 171.227 62.7812 170.758 62.375ZM184.012 71.2344C183.34 71.2344 182.711 71.0977 182.125 70.8242C181.547 70.543 181.137 70.2656 180.895 69.9922L180.531 69.5586V76.0391H177.297V59.2344H180.531V60.6758C180.562 60.6289 180.609 60.5703 180.672 60.5C180.742 60.4297 180.883 60.3008 181.094 60.1133C181.312 59.918 181.547 59.7461 181.797 59.5977C182.047 59.4414 182.371 59.3047 182.77 59.1875C183.168 59.0625 183.582 59 184.012 59C185.535 59 186.855 59.5938 187.973 60.7812C189.098 61.9609 189.66 63.4062 189.66 65.1172C189.66 66.8281 189.098 68.2773 187.973 69.4648C186.855 70.6445 185.535 71.2344 184.012 71.2344ZM185.465 62.7852C184.902 62.1836 184.219 61.8828 183.414 61.8828C182.617 61.8828 181.938 62.1875 181.375 62.7969C180.812 63.3984 180.531 64.1719 180.531 65.1172C180.531 66.0625 180.812 66.8398 181.375 67.4492C181.938 68.0586 182.617 68.3633 183.414 68.3633C184.219 68.3633 184.898 68.0586 185.453 67.4492C186.016 66.8398 186.297 66.0625 186.297 65.1172C186.297 64.1719 186.02 63.3945 185.465 62.7852ZM190.855 62.3633V59.2344H201.543V62.3633H197.816V71H194.582V62.3633H190.855ZM211.785 59.2344H214.609V71H211.375V64.4023L206.254 71H203.453V59.2344H206.688V65.8438L211.785 59.2344Z" fill="white"/>
<path d="M139.141 111.688V116H122.336V111.688H139.141ZM160 110.234C160.156 110.297 160.367 110.391 160.633 110.516C160.914 110.625 161.398 110.906 162.086 111.359C162.773 111.797 163.383 112.305 163.914 112.883C164.445 113.461 164.922 114.266 165.344 115.297C165.781 116.312 166 117.43 166 118.648C166 121.398 164.898 123.727 162.695 125.633C160.508 127.523 157.609 128.469 154 128.469C152.469 128.469 151.016 128.289 149.641 127.93C148.266 127.555 147.125 127.117 146.219 126.617C145.328 126.102 144.555 125.586 143.898 125.07C143.242 124.555 142.766 124.125 142.469 123.781L142 123.195L145.352 119.844C145.414 119.938 145.523 120.078 145.68 120.266C145.852 120.438 146.211 120.75 146.758 121.203C147.305 121.641 147.875 122.031 148.469 122.375C149.078 122.703 149.875 123.008 150.859 123.289C151.859 123.555 152.906 123.688 154 123.688C156.078 123.688 157.719 123.188 158.922 122.188C160.125 121.172 160.727 119.914 160.727 118.414C160.727 116.898 160.125 115.641 158.922 114.641C157.719 113.625 156.078 113.117 154 113.117H150.648V108.312H154C155.656 108.312 156.945 107.883 157.867 107.023C158.805 106.164 159.273 105 159.273 103.531C159.273 102.047 158.805 100.875 157.867 100.016C156.945 99.1562 155.656 98.7266 154 98.7266C152.594 98.7266 151.266 99.0312 150.016 99.6406C148.766 100.25 147.883 100.836 147.367 101.398L146.57 102.312L143.195 98.9609C143.289 98.8359 143.43 98.6641 143.617 98.4453C143.82 98.2109 144.258 97.7969 144.93 97.2031C145.602 96.6094 146.32 96.1016 147.086 95.6797C147.852 95.2422 148.859 94.8438 150.109 94.4844C151.359 94.1094 152.656 93.9219 154 93.9219C157.297 93.9219 159.883 94.7734 161.758 96.4766C163.633 98.1641 164.57 100.352 164.57 103.039C164.57 103.961 164.406 104.852 164.078 105.711C163.766 106.555 163.383 107.242 162.93 107.773C162.477 108.305 162.031 108.766 161.594 109.156C161.172 109.531 160.797 109.797 160.469 109.953L160 110.234ZM168.859 94.3906H191.195V98.7266L177.039 128H171.742L185.664 99.1953H168.859V94.3906ZM207.695 96.1016C209.18 97.5547 209.922 99.3047 209.922 101.352C209.922 103.398 209.18 105.156 207.695 106.625C206.211 108.078 204.391 108.805 202.234 108.805C200.094 108.805 198.281 108.078 196.797 106.625C195.312 105.156 194.57 103.398 194.57 101.352C194.57 99.3047 195.312 97.5547 196.797 96.1016C198.281 94.6484 200.094 93.9219 202.234 93.9219C204.391 93.9219 206.211 94.6484 207.695 96.1016ZM199.516 98.6328C198.781 99.3672 198.414 100.281 198.414 101.375C198.414 102.453 198.781 103.359 199.516 104.094C200.25 104.828 201.156 105.195 202.234 105.195C203.328 105.195 204.242 104.828 204.977 104.094C205.711 103.359 206.078 102.453 206.078 101.375C206.078 100.281 205.711 99.3672 204.977 98.6328C204.242 97.8984 203.328 97.5312 202.234 97.5312C201.156 97.5312 200.25 97.8984 199.516 98.6328ZM198.414 128L219.531 94.3906H223.844L202.727 128H198.414ZM214.562 126.289C213.078 124.836 212.336 123.086 212.336 121.039C212.336 118.992 213.078 117.242 214.562 115.789C216.047 114.336 217.859 113.609 220 113.609C222.156 113.609 223.977 114.336 225.461 115.789C226.945 117.242 227.688 118.992 227.688 121.039C227.688 123.086 226.945 124.836 225.461 126.289C223.977 127.742 222.156 128.469 220 128.469C217.859 128.469 216.047 127.742 214.562 126.289ZM222.742 123.781C223.477 123.047 223.844 122.133 223.844 121.039C223.844 119.945 223.477 119.031 222.742 118.297C222.008 117.562 221.094 117.195 220 117.195C218.922 117.195 218.016 117.562 217.281 118.297C216.547 119.031 216.18 119.945 216.18 121.039C216.18 122.133 216.547 123.047 217.281 123.781C218.016 124.516 218.922 124.883 220 124.883C221.094 124.883 222.008 124.516 222.742 123.781Z" fill="white"/>
</svg>
