<svg width="689" height="660" viewBox="0 0 689 660" fill="none" xmlns="http://www.w3.org/2000/svg">
<path d="M55 493L91.7368 470.113L250 434.299L444 411.859L639 400.984" stroke="#F9A837" stroke-width="4"/>
<path d="M55 493.016L83.4378 467.607L108.814 454.069L188.868 424.868L307 390.315L458 361.875L639 351" stroke="#4965B0" stroke-width="4"/>
<rect x="53" y="79" width="4" height="416" fill="#57585A"/>
<rect x="53" y="491" width="588" height="4" fill="#57585A"/>
<path d="M217.746 518.296H219.53V533H217.223V521.875H214.598V520.295C215.48 520.2 216.15 519.991 216.608 519.67C217.073 519.342 217.452 518.884 217.746 518.296ZM224.461 531.144C223.265 529.777 222.666 527.945 222.666 525.648C222.666 523.351 223.265 521.519 224.461 520.152C225.657 518.778 227.123 518.091 228.86 518.091C230.596 518.091 232.062 518.778 233.259 520.152C234.455 521.519 235.053 523.351 235.053 525.648C235.053 527.945 234.455 529.78 233.259 531.154C232.062 532.521 230.596 533.205 228.86 533.205C227.123 533.205 225.657 532.518 224.461 531.144ZM231.608 529.647C232.367 528.676 232.746 527.343 232.746 525.648C232.746 523.953 232.363 522.62 231.598 521.649C230.839 520.678 229.926 520.193 228.86 520.193C227.793 520.193 226.877 520.678 226.112 521.649C225.353 522.62 224.974 523.953 224.974 525.648C224.974 527.343 225.353 528.68 226.112 529.657C226.877 530.628 227.793 531.113 228.86 531.113C229.926 531.113 230.842 530.625 231.608 529.647ZM239.551 531.113H240.279C240.32 531.072 240.378 531.007 240.454 530.918C240.536 530.823 240.672 530.614 240.864 530.293C241.062 529.972 241.233 529.626 241.376 529.257C241.527 528.881 241.66 528.389 241.776 527.781C241.899 527.172 241.961 526.533 241.961 525.863V522.92H249.313V531.113H250.779V535.522H248.688V533H241.653V535.522H239.551V531.113ZM244.063 524.807V525.863C244.063 526.533 244.005 527.169 243.889 527.771C243.779 528.372 243.639 528.871 243.468 529.268C243.304 529.657 243.137 529.996 242.966 530.283C242.802 530.57 242.665 530.775 242.556 530.898L242.381 531.113H247.211V524.807H244.063ZM254.561 528.796V533H252.459V522.92H254.561V526.909H259.493V522.92H261.595V533H259.493V528.796H254.561ZM273.447 528.693H265.572C265.682 529.404 266.03 530.02 266.618 530.539C267.213 531.059 267.917 531.318 268.731 531.318C269.318 531.318 269.865 531.185 270.371 530.918C270.884 530.652 271.246 530.392 271.458 530.139L271.776 529.75L273.14 531.113C273.099 531.168 273.034 531.247 272.945 531.349C272.863 531.445 272.682 531.612 272.401 531.852C272.121 532.084 271.824 532.292 271.509 532.477C271.195 532.655 270.785 532.822 270.279 532.979C269.78 533.13 269.264 533.205 268.731 533.205C267.302 533.205 266.068 532.682 265.029 531.636C263.997 530.583 263.481 529.322 263.481 527.853C263.481 526.438 263.983 525.228 264.988 524.223C266 523.211 267.21 522.705 268.618 522.705C270.033 522.705 271.209 523.177 272.145 524.12C273.088 525.057 273.56 526.232 273.56 527.647L273.447 528.693ZM268.618 524.5C267.859 524.5 267.22 524.725 266.7 525.176C266.188 525.621 265.842 526.198 265.665 526.909H271.499C271.376 526.198 271.058 525.621 270.545 525.176C270.033 524.725 269.39 524.5 268.618 524.5ZM282.777 522.92H284.663V533H282.561V526.386L277.311 533H275.425V522.92H277.527V529.534L282.777 522.92ZM278.993 519.342C279.273 519.629 279.622 519.772 280.039 519.772C280.463 519.772 280.815 519.632 281.095 519.352C281.375 519.072 281.515 518.72 281.515 518.296H283.095C283.095 519.137 282.807 519.837 282.233 520.398C281.659 520.958 280.931 521.239 280.049 521.239C279.167 521.239 278.439 520.958 277.865 520.398C277.291 519.837 277.004 519.137 277.004 518.296H278.573C278.573 518.713 278.713 519.062 278.993 519.342Z" fill="#57585A"/>
<path d="M416.463 533H406.701C406.701 532.091 406.838 531.267 407.112 530.529C407.385 529.784 407.74 529.165 408.178 528.673C408.622 528.181 409.108 527.729 409.634 527.319C410.167 526.909 410.697 526.537 411.223 526.202C411.75 525.86 412.232 525.525 412.669 525.197C413.113 524.869 413.472 524.486 413.746 524.048C414.019 523.604 414.156 523.122 414.156 522.603C414.156 521.857 413.924 521.27 413.459 520.839C413.001 520.408 412.358 520.193 411.531 520.193C411.128 520.193 410.748 520.268 410.393 520.418C410.044 520.562 409.771 520.736 409.572 520.941C409.381 521.14 409.21 521.341 409.06 521.546C408.916 521.751 408.817 521.929 408.762 522.08L408.691 522.295L406.804 521.454C406.831 521.358 406.869 521.235 406.917 521.085C406.971 520.935 407.115 520.668 407.347 520.285C407.587 519.902 407.863 519.564 408.178 519.27C408.492 518.976 408.947 518.706 409.542 518.46C410.136 518.214 410.799 518.091 411.531 518.091C412.973 518.091 414.156 518.525 415.079 519.393C416.002 520.261 416.463 521.331 416.463 522.603C416.463 523.272 416.326 523.895 416.053 524.469C415.779 525.043 415.431 525.525 415.007 525.915C414.59 526.297 414.108 526.694 413.561 527.104C413.021 527.507 412.495 527.876 411.982 528.211C411.469 528.546 410.964 528.95 410.465 529.421C409.972 529.886 409.593 530.378 409.326 530.898H416.463V533ZM420.358 531.144C419.162 529.777 418.563 527.945 418.563 525.648C418.563 523.351 419.162 521.519 420.358 520.152C421.554 518.778 423.02 518.091 424.757 518.091C426.493 518.091 427.959 518.778 429.156 520.152C430.352 521.519 430.95 523.351 430.95 525.648C430.95 527.945 430.352 529.78 429.156 531.154C427.959 532.521 426.493 533.205 424.757 533.205C423.02 533.205 421.554 532.518 420.358 531.144ZM427.505 529.647C428.264 528.676 428.643 527.343 428.643 525.648C428.643 523.953 428.26 522.62 427.495 521.649C426.736 520.678 425.823 520.193 424.757 520.193C423.69 520.193 422.774 520.678 422.009 521.649C421.25 522.62 420.871 523.953 420.871 525.648C420.871 527.343 421.25 528.68 422.009 529.657C422.774 530.628 423.69 531.113 424.757 531.113C425.823 531.113 426.739 530.625 427.505 529.647ZM435.448 531.113H436.176C436.217 531.072 436.275 531.007 436.351 530.918C436.433 530.823 436.569 530.614 436.761 530.293C436.959 529.972 437.13 529.626 437.273 529.257C437.424 528.881 437.557 528.389 437.673 527.781C437.796 527.172 437.858 526.533 437.858 525.863V522.92H445.21V531.113H446.676V535.522H444.584V533H437.55V535.522H435.448V531.113ZM439.96 524.807V525.863C439.96 526.533 439.902 527.169 439.786 527.771C439.676 528.372 439.536 528.871 439.365 529.268C439.201 529.657 439.034 529.996 438.863 530.283C438.699 530.57 438.562 530.775 438.453 530.898L438.278 531.113H443.108V524.807H439.96ZM450.458 528.796V533H448.356V522.92H450.458V526.909H455.39V522.92H457.492V533H455.39V528.796H450.458ZM469.344 528.693H461.469C461.579 529.404 461.927 530.02 462.515 530.539C463.11 531.059 463.814 531.318 464.627 531.318C465.215 531.318 465.762 531.185 466.268 530.918C466.781 530.652 467.143 530.392 467.355 530.139L467.673 529.75L469.037 531.113C468.996 531.168 468.931 531.247 468.842 531.349C468.76 531.445 468.579 531.612 468.298 531.852C468.018 532.084 467.721 532.292 467.406 532.477C467.092 532.655 466.682 532.822 466.176 532.979C465.677 533.13 465.161 533.205 464.627 533.205C463.199 533.205 461.965 532.682 460.926 531.636C459.894 530.583 459.377 529.322 459.377 527.853C459.377 526.438 459.88 525.228 460.885 524.223C461.897 523.211 463.106 522.705 464.515 522.705C465.93 522.705 467.106 523.177 468.042 524.12C468.985 525.057 469.457 526.232 469.457 527.647L469.344 528.693ZM464.515 524.5C463.756 524.5 463.117 524.725 462.597 525.176C462.085 525.621 461.739 526.198 461.562 526.909H467.396C467.273 526.198 466.955 525.621 466.442 525.176C465.93 524.725 465.287 524.5 464.515 524.5ZM478.674 522.92H480.56V533H478.458V526.386L473.208 533H471.322V522.92H473.424V529.534L478.674 522.92ZM474.89 519.342C475.17 519.629 475.519 519.772 475.936 519.772C476.36 519.772 476.712 519.632 476.992 519.352C477.272 519.072 477.412 518.72 477.412 518.296H478.992C478.992 519.137 478.704 519.837 478.13 520.398C477.556 520.958 476.828 521.239 475.946 521.239C475.064 521.239 474.336 520.958 473.762 520.398C473.188 519.837 472.901 519.137 472.901 518.296H474.47C474.47 518.713 474.61 519.062 474.89 519.342Z" fill="#57585A"/>
<path d="M609.105 525.228C609.173 525.255 609.265 525.296 609.382 525.351C609.505 525.398 609.716 525.521 610.017 525.72C610.318 525.911 610.585 526.133 610.817 526.386C611.049 526.639 611.258 526.991 611.443 527.442C611.634 527.887 611.73 528.375 611.73 528.909C611.73 530.112 611.248 531.13 610.284 531.964C609.327 532.792 608.059 533.205 606.48 533.205C605.81 533.205 605.174 533.126 604.572 532.969C603.971 532.805 603.472 532.614 603.075 532.395C602.686 532.169 602.347 531.944 602.06 531.718C601.773 531.493 601.565 531.305 601.435 531.154L601.23 530.898L602.696 529.432C602.723 529.473 602.771 529.534 602.84 529.616C602.915 529.691 603.072 529.828 603.311 530.026C603.55 530.218 603.8 530.389 604.06 530.539C604.326 530.683 604.675 530.816 605.106 530.939C605.543 531.055 606.001 531.113 606.48 531.113C607.389 531.113 608.107 530.895 608.633 530.457C609.159 530.013 609.423 529.462 609.423 528.806C609.423 528.143 609.159 527.593 608.633 527.155C608.107 526.711 607.389 526.489 606.48 526.489H605.013V524.387H606.48C607.204 524.387 607.768 524.199 608.172 523.823C608.582 523.447 608.787 522.938 608.787 522.295C608.787 521.646 608.582 521.133 608.172 520.757C607.768 520.381 607.204 520.193 606.48 520.193C605.864 520.193 605.283 520.326 604.737 520.593C604.19 520.859 603.803 521.116 603.578 521.362L603.229 521.762L601.753 520.295C601.794 520.241 601.855 520.166 601.937 520.07C602.026 519.967 602.217 519.786 602.511 519.526C602.805 519.267 603.12 519.044 603.455 518.86C603.79 518.668 604.231 518.494 604.778 518.337C605.324 518.173 605.892 518.091 606.48 518.091C607.922 518.091 609.053 518.463 609.874 519.208C610.694 519.947 611.104 520.904 611.104 522.08C611.104 522.483 611.032 522.873 610.889 523.249C610.752 523.618 610.585 523.918 610.386 524.151C610.188 524.383 609.993 524.585 609.802 524.756C609.617 524.92 609.453 525.036 609.31 525.104L609.105 525.228ZM615.409 531.144C614.213 529.777 613.615 527.945 613.615 525.648C613.615 523.351 614.213 521.519 615.409 520.152C616.605 518.778 618.072 518.091 619.808 518.091C621.544 518.091 623.011 518.778 624.207 520.152C625.403 521.519 626.001 523.351 626.001 525.648C626.001 527.945 625.403 529.78 624.207 531.154C623.011 532.521 621.544 533.205 619.808 533.205C618.072 533.205 616.605 532.518 615.409 531.144ZM622.556 529.647C623.315 528.676 623.694 527.343 623.694 525.648C623.694 523.953 623.311 522.62 622.546 521.649C621.787 520.678 620.874 520.193 619.808 520.193C618.742 520.193 617.826 520.678 617.06 521.649C616.301 522.62 615.922 523.953 615.922 525.648C615.922 527.343 616.301 528.68 617.06 529.657C617.826 530.628 618.742 531.113 619.808 531.113C620.874 531.113 621.79 530.625 622.556 529.647ZM630.5 531.113H631.228C631.269 531.072 631.327 531.007 631.402 530.918C631.484 530.823 631.621 530.614 631.812 530.293C632.01 529.972 632.181 529.626 632.325 529.257C632.475 528.881 632.608 528.389 632.725 527.781C632.848 527.172 632.909 526.533 632.909 525.863V522.92H640.261V531.113H641.728V535.522H639.636V533H632.602V535.522H630.5V531.113ZM635.011 524.807V525.863C635.011 526.533 634.953 527.169 634.837 527.771C634.728 528.372 634.587 528.871 634.417 529.268C634.252 529.657 634.085 529.996 633.914 530.283C633.75 530.57 633.613 530.775 633.504 530.898L633.33 531.113H638.159V524.807H635.011ZM645.51 528.796V533H643.407V522.92H645.51V526.909H650.442V522.92H652.544V533H650.442V528.796H645.51ZM664.396 528.693H656.521C656.63 529.404 656.979 530.02 657.566 530.539C658.161 531.059 658.865 531.318 659.679 531.318C660.267 531.318 660.814 531.185 661.319 530.918C661.832 530.652 662.194 530.392 662.406 530.139L662.724 529.75L664.088 531.113C664.047 531.168 663.982 531.247 663.893 531.349C663.811 531.445 663.63 531.612 663.35 531.852C663.069 532.084 662.772 532.292 662.458 532.477C662.143 532.655 661.733 532.822 661.227 532.979C660.728 533.13 660.212 533.205 659.679 533.205C658.25 533.205 657.016 532.682 655.977 531.636C654.945 530.583 654.429 529.322 654.429 527.853C654.429 526.438 654.931 525.228 655.936 524.223C656.948 523.211 658.158 522.705 659.566 522.705C660.981 522.705 662.157 523.177 663.093 524.12C664.037 525.057 664.508 526.232 664.508 527.647L664.396 528.693ZM659.566 524.5C658.807 524.5 658.168 524.725 657.648 525.176C657.136 525.621 656.791 526.198 656.613 526.909H662.447C662.324 526.198 662.006 525.621 661.494 525.176C660.981 524.725 660.338 524.5 659.566 524.5ZM673.725 522.92H675.612V533H673.51V526.386L668.26 533H666.373V522.92H668.475V529.534L673.725 522.92ZM669.941 519.342C670.221 519.629 670.57 519.772 670.987 519.772C671.411 519.772 671.763 519.632 672.043 519.352C672.324 519.072 672.464 518.72 672.464 518.296H674.043C674.043 519.137 673.756 519.837 673.181 520.398C672.607 520.958 671.879 521.239 670.997 521.239C670.116 521.239 669.388 520.958 668.813 520.398C668.239 519.837 667.952 519.137 667.952 518.296H669.521C669.521 518.713 669.661 519.062 669.941 519.342Z" fill="#57585A"/>
<path d="M12.0007 341H2.23899C2.23899 340.091 2.37571 339.267 2.64915 338.529C2.92259 337.784 3.27806 337.165 3.71556 336.673C4.15989 336.181 4.64524 335.729 5.17161 335.319C5.70481 334.909 6.2346 334.537 6.76097 334.202C7.28733 333.86 7.76927 333.525 8.20677 333.197C8.6511 332.869 9.00999 332.486 9.28343 332.048C9.55687 331.604 9.69358 331.122 9.69358 330.603C9.69358 329.857 9.46116 329.27 8.99632 328.839C8.53831 328.408 7.89573 328.193 7.06858 328.193C6.66526 328.193 6.28587 328.268 5.9304 328.418C5.58177 328.562 5.30833 328.736 5.11009 328.941C4.91868 329.14 4.74778 329.341 4.59739 329.546C4.45384 329.751 4.35472 329.929 4.30003 330.08L4.22825 330.295L2.34153 329.454C2.36888 329.358 2.40648 329.235 2.45433 329.085C2.50901 328.935 2.65257 328.668 2.88499 328.285C3.12425 327.902 3.4011 327.564 3.71556 327.27C4.03001 326.976 4.4846 326.706 5.07933 326.46C5.67405 326.214 6.33714 326.091 7.06858 326.091C8.51097 326.091 9.69358 326.525 10.6164 327.393C11.5393 328.261 12.0007 329.331 12.0007 330.603C12.0007 331.272 11.864 331.895 11.5906 332.469C11.3171 333.043 10.9685 333.525 10.5447 333.915C10.1277 334.297 9.64573 334.694 9.09886 335.104C8.55882 335.507 8.03245 335.876 7.51976 336.211C7.00706 336.546 6.5012 336.95 6.00218 337.421C5.50999 337.886 5.1306 338.378 4.86399 338.898H12.0007V341ZM19.4229 327.044C20.0723 327.68 20.397 328.446 20.397 329.341C20.397 330.237 20.0723 331.006 19.4229 331.648C18.7734 332.284 17.9771 332.602 17.0337 332.602C16.0972 332.602 15.3042 332.284 14.6548 331.648C14.0054 331.006 13.6807 330.237 13.6807 329.341C13.6807 328.446 14.0054 327.68 14.6548 327.044C15.3042 326.409 16.0972 326.091 17.0337 326.091C17.9771 326.091 18.7734 326.409 19.4229 327.044ZM15.8442 328.152C15.523 328.473 15.3623 328.873 15.3623 329.352C15.3623 329.823 15.523 330.22 15.8442 330.541C16.1655 330.862 16.562 331.023 17.0337 331.023C17.5122 331.023 17.9121 330.862 18.2334 330.541C18.5547 330.22 18.7153 329.823 18.7153 329.352C18.7153 328.873 18.5547 328.473 18.2334 328.152C17.9121 327.831 17.5122 327.67 17.0337 327.67C16.562 327.67 16.1655 327.831 15.8442 328.152ZM15.3623 341L24.6011 326.296H26.4878L17.249 341H15.3623ZM22.4272 340.251C21.7778 339.616 21.4531 338.85 21.4531 337.955C21.4531 337.059 21.7778 336.293 22.4272 335.658C23.0767 335.022 23.8696 334.704 24.8062 334.704C25.7495 334.704 26.5459 335.022 27.1953 335.658C27.8447 336.293 28.1694 337.059 28.1694 337.955C28.1694 338.85 27.8447 339.616 27.1953 340.251C26.5459 340.887 25.7495 341.205 24.8062 341.205C23.8696 341.205 23.0767 340.887 22.4272 340.251ZM26.0059 339.154C26.3271 338.833 26.4878 338.433 26.4878 337.955C26.4878 337.476 26.3271 337.076 26.0059 336.755C25.6846 336.434 25.2847 336.273 24.8062 336.273C24.3345 336.273 23.938 336.434 23.6167 336.755C23.2954 337.076 23.1348 337.476 23.1348 337.955C23.1348 338.433 23.2954 338.833 23.6167 339.154C23.938 339.476 24.3345 339.636 24.8062 339.636C25.2847 339.636 25.6846 339.476 26.0059 339.154Z" fill="#57585A"/>
<path d="M9.18089 410.296H10.9651V425H8.65794V413.875H6.03294V412.295C6.91478 412.2 7.5847 411.991 8.04271 411.67C8.50755 411.342 8.88694 410.884 9.18089 410.296ZM19.4229 411.044C20.0723 411.68 20.397 412.446 20.397 413.341C20.397 414.237 20.0723 415.006 19.4229 415.648C18.7734 416.284 17.9771 416.602 17.0337 416.602C16.0972 416.602 15.3042 416.284 14.6548 415.648C14.0054 415.006 13.6807 414.237 13.6807 413.341C13.6807 412.446 14.0054 411.68 14.6548 411.044C15.3042 410.409 16.0972 410.091 17.0337 410.091C17.9771 410.091 18.7734 410.409 19.4229 411.044ZM15.8442 412.152C15.523 412.473 15.3623 412.873 15.3623 413.352C15.3623 413.823 15.523 414.22 15.8442 414.541C16.1655 414.862 16.562 415.023 17.0337 415.023C17.5122 415.023 17.9121 414.862 18.2334 414.541C18.5547 414.22 18.7153 413.823 18.7153 413.352C18.7153 412.873 18.5547 412.473 18.2334 412.152C17.9121 411.831 17.5122 411.67 17.0337 411.67C16.562 411.67 16.1655 411.831 15.8442 412.152ZM15.3623 425L24.6011 410.296H26.4878L17.249 425H15.3623ZM22.4272 424.251C21.7778 423.616 21.4531 422.85 21.4531 421.955C21.4531 421.059 21.7778 420.293 22.4272 419.658C23.0767 419.022 23.8696 418.704 24.8062 418.704C25.7495 418.704 26.5459 419.022 27.1953 419.658C27.8447 420.293 28.1694 421.059 28.1694 421.955C28.1694 422.85 27.8447 423.616 27.1953 424.251C26.5459 424.887 25.7495 425.205 24.8062 425.205C23.8696 425.205 23.0767 424.887 22.4272 424.251ZM26.0059 423.154C26.3271 422.833 26.4878 422.433 26.4878 421.955C26.4878 421.476 26.3271 421.076 26.0059 420.755C25.6846 420.434 25.2847 420.273 24.8062 420.273C24.3345 420.273 23.938 420.434 23.6167 420.755C23.2954 421.076 23.1348 421.476 23.1348 421.955C23.1348 422.433 23.2954 422.833 23.6167 423.154C23.938 423.476 24.3345 423.636 24.8062 423.636C25.2847 423.636 25.6846 423.476 26.0059 423.154Z" fill="#57585A"/>
<path d="M9.59105 249.228C9.6594 249.255 9.75169 249.296 9.8679 249.351C9.99095 249.398 10.2029 249.521 10.5036 249.72C10.8044 249.911 11.071 250.133 11.3034 250.386C11.5359 250.639 11.7444 250.991 11.9289 251.442C12.1203 251.887 12.216 252.375 12.216 252.909C12.216 254.112 11.7341 255.13 10.7702 255.964C9.81321 256.792 8.54515 257.205 6.96605 257.205C6.29612 257.205 5.66038 257.126 5.05882 256.969C4.45726 256.805 3.95823 256.614 3.56175 256.395C3.1721 256.169 2.83372 255.944 2.54661 255.718C2.2595 255.493 2.05101 255.305 1.92112 255.154L1.71605 254.898L3.18235 253.432C3.2097 253.473 3.25755 253.534 3.32591 253.616C3.4011 253.691 3.55833 253.828 3.79759 254.026C4.03685 254.218 4.28636 254.389 4.54612 254.539C4.81273 254.683 5.16136 254.816 5.59202 254.939C6.02952 255.055 6.48753 255.113 6.96605 255.113C7.87523 255.113 8.593 254.895 9.11937 254.457C9.64573 254.013 9.90892 253.462 9.90892 252.806C9.90892 252.143 9.64573 251.593 9.11937 251.155C8.593 250.711 7.87523 250.489 6.96605 250.489H5.49974V248.387H6.96605C7.69065 248.387 8.25462 248.199 8.65794 247.823C9.0681 247.447 9.27317 246.938 9.27317 246.295C9.27317 245.646 9.0681 245.133 8.65794 244.757C8.25462 244.381 7.69065 244.193 6.96605 244.193C6.35081 244.193 5.76976 244.326 5.22288 244.593C4.67601 244.859 4.28978 245.116 4.06419 245.362L3.71556 245.762L2.23899 244.295C2.28001 244.241 2.34153 244.166 2.42356 244.07C2.51243 243.967 2.70384 243.786 2.99778 243.526C3.29173 243.267 3.60618 243.044 3.94114 242.86C4.2761 242.668 4.71702 242.494 5.2639 242.337C5.81077 242.173 6.37815 242.091 6.96605 242.091C8.40843 242.091 9.53978 242.463 10.3601 243.208C11.1804 243.947 11.5906 244.904 11.5906 246.08C11.5906 246.483 11.5188 246.873 11.3752 247.249C11.2385 247.618 11.071 247.918 10.8728 248.151C10.6745 248.383 10.4797 248.585 10.2883 248.756C10.1037 248.92 9.93968 249.036 9.79612 249.104L9.59105 249.228ZM19.4229 243.044C20.0723 243.68 20.397 244.446 20.397 245.341C20.397 246.237 20.0723 247.006 19.4229 247.648C18.7734 248.284 17.9771 248.602 17.0337 248.602C16.0972 248.602 15.3042 248.284 14.6548 247.648C14.0054 247.006 13.6807 246.237 13.6807 245.341C13.6807 244.446 14.0054 243.68 14.6548 243.044C15.3042 242.409 16.0972 242.091 17.0337 242.091C17.9771 242.091 18.7734 242.409 19.4229 243.044ZM15.8442 244.152C15.523 244.473 15.3623 244.873 15.3623 245.352C15.3623 245.823 15.523 246.22 15.8442 246.541C16.1655 246.862 16.562 247.023 17.0337 247.023C17.5122 247.023 17.9121 246.862 18.2334 246.541C18.5547 246.22 18.7153 245.823 18.7153 245.352C18.7153 244.873 18.5547 244.473 18.2334 244.152C17.9121 243.831 17.5122 243.67 17.0337 243.67C16.562 243.67 16.1655 243.831 15.8442 244.152ZM15.3623 257L24.6011 242.296H26.4878L17.249 257H15.3623ZM22.4272 256.251C21.7778 255.616 21.4531 254.85 21.4531 253.955C21.4531 253.059 21.7778 252.293 22.4272 251.658C23.0767 251.022 23.8696 250.704 24.8062 250.704C25.7495 250.704 26.5459 251.022 27.1953 251.658C27.8447 252.293 28.1694 253.059 28.1694 253.955C28.1694 254.85 27.8447 255.616 27.1953 256.251C26.5459 256.887 25.7495 257.205 24.8062 257.205C23.8696 257.205 23.0767 256.887 22.4272 256.251ZM26.0059 255.154C26.3271 254.833 26.4878 254.433 26.4878 253.955C26.4878 253.476 26.3271 253.076 26.0059 252.755C25.6846 252.434 25.2847 252.273 24.8062 252.273C24.3345 252.273 23.938 252.434 23.6167 252.755C23.2954 253.076 23.1348 253.476 23.1348 253.955C23.1348 254.433 23.2954 254.833 23.6167 255.154C23.938 255.476 24.3345 255.636 24.8062 255.636C25.2847 255.636 25.6846 255.476 26.0059 255.154Z" fill="#57585A"/>
<path d="M10.7497 167.955H12.6365V170.057H10.7497V173H8.43235V170.057H1.29564V167.545L7.80687 158.296H10.7497V167.955ZM8.43235 167.955V160.921L3.50023 167.955H8.43235ZM19.4229 159.044C20.0723 159.68 20.397 160.446 20.397 161.341C20.397 162.237 20.0723 163.006 19.4229 163.648C18.7734 164.284 17.9771 164.602 17.0337 164.602C16.0972 164.602 15.3042 164.284 14.6548 163.648C14.0054 163.006 13.6807 162.237 13.6807 161.341C13.6807 160.446 14.0054 159.68 14.6548 159.044C15.3042 158.409 16.0972 158.091 17.0337 158.091C17.9771 158.091 18.7734 158.409 19.4229 159.044ZM15.8442 160.152C15.523 160.473 15.3623 160.873 15.3623 161.352C15.3623 161.823 15.523 162.22 15.8442 162.541C16.1655 162.862 16.562 163.023 17.0337 163.023C17.5122 163.023 17.9121 162.862 18.2334 162.541C18.5547 162.22 18.7153 161.823 18.7153 161.352C18.7153 160.873 18.5547 160.473 18.2334 160.152C17.9121 159.831 17.5122 159.67 17.0337 159.67C16.562 159.67 16.1655 159.831 15.8442 160.152ZM15.3623 173L24.6011 158.296H26.4878L17.249 173H15.3623ZM22.4272 172.251C21.7778 171.616 21.4531 170.85 21.4531 169.955C21.4531 169.059 21.7778 168.293 22.4272 167.658C23.0767 167.022 23.8696 166.704 24.8062 166.704C25.7495 166.704 26.5459 167.022 27.1953 167.658C27.8447 168.293 28.1694 169.059 28.1694 169.955C28.1694 170.85 27.8447 171.616 27.1953 172.251C26.5459 172.887 25.7495 173.205 24.8062 173.205C23.8696 173.205 23.0767 172.887 22.4272 172.251ZM26.0059 171.154C26.3271 170.833 26.4878 170.433 26.4878 169.955C26.4878 169.476 26.3271 169.076 26.0059 168.755C25.6846 168.434 25.2847 168.273 24.8062 168.273C24.3345 168.273 23.938 168.434 23.6167 168.755C23.2954 169.076 23.1348 169.476 23.1348 169.955C23.1348 170.433 23.2954 170.833 23.6167 171.154C23.938 171.476 24.3345 171.636 24.8062 171.636C25.2847 171.636 25.6846 171.476 26.0059 171.154Z" fill="#57585A"/>
<path d="M6.9763 79.2383C8.44603 79.2383 9.65257 79.7031 10.5959 80.6328C11.5393 81.5625 12.011 82.7417 12.011 84.1704C12.011 85.6538 11.529 86.8638 10.5652 87.8003C9.6013 88.7368 8.33323 89.2051 6.76097 89.2051C6.09105 89.2051 5.4553 89.1265 4.85374 88.9692C4.25218 88.8052 3.75315 88.6138 3.35667 88.395C2.96702 88.1694 2.62864 87.9438 2.34153 87.7183C2.05442 87.4927 1.84935 87.3047 1.7263 87.1543L1.51097 86.8979L2.98753 85.4316C3.01487 85.4727 3.06273 85.5342 3.13108 85.6162C3.19944 85.6914 3.35325 85.8281 3.59251 86.0264C3.83177 86.2178 4.0847 86.3887 4.3513 86.5391C4.6179 86.6826 4.96653 86.8159 5.3972 86.939C5.8347 87.0552 6.28929 87.1133 6.76097 87.1133C7.60179 87.1133 8.30247 86.833 8.86302 86.2725C9.42356 85.7119 9.70384 85.0112 9.70384 84.1704C9.70384 83.3296 9.42356 82.6289 8.86302 82.0684C8.30247 81.5078 7.60179 81.2275 6.76097 81.2275C6.14573 81.2275 5.59202 81.3403 5.09983 81.5659C4.61448 81.7915 4.27952 82.0171 4.09495 82.2427L3.82835 82.5913H2.14671L2.56712 74.2959H11.0676V76.3979H4.66917L4.45384 79.8638C5.01439 79.4468 5.85521 79.2383 6.9763 79.2383ZM19.4229 75.0444C20.0723 75.6802 20.397 76.4458 20.397 77.3413C20.397 78.2368 20.0723 79.0059 19.4229 79.6484C18.7734 80.2842 17.9771 80.6021 17.0337 80.6021C16.0972 80.6021 15.3042 80.2842 14.6548 79.6484C14.0054 79.0059 13.6807 78.2368 13.6807 77.3413C13.6807 76.4458 14.0054 75.6802 14.6548 75.0444C15.3042 74.4087 16.0972 74.0908 17.0337 74.0908C17.9771 74.0908 18.7734 74.4087 19.4229 75.0444ZM15.8442 76.1519C15.523 76.4731 15.3623 76.873 15.3623 77.3516C15.3623 77.8232 15.523 78.2197 15.8442 78.541C16.1655 78.8623 16.562 79.0229 17.0337 79.0229C17.5122 79.0229 17.9121 78.8623 18.2334 78.541C18.5547 78.2197 18.7153 77.8232 18.7153 77.3516C18.7153 76.873 18.5547 76.4731 18.2334 76.1519C17.9121 75.8306 17.5122 75.6699 17.0337 75.6699C16.562 75.6699 16.1655 75.8306 15.8442 76.1519ZM15.3623 89L24.6011 74.2959H26.4878L17.249 89H15.3623ZM22.4272 88.2515C21.7778 87.6157 21.4531 86.8501 21.4531 85.9546C21.4531 85.0591 21.7778 84.2935 22.4272 83.6577C23.0767 83.022 23.8696 82.7041 24.8062 82.7041C25.7495 82.7041 26.5459 83.022 27.1953 83.6577C27.8447 84.2935 28.1694 85.0591 28.1694 85.9546C28.1694 86.8501 27.8447 87.6157 27.1953 88.2515C26.5459 88.8872 25.7495 89.2051 24.8062 89.2051C23.8696 89.2051 23.0767 88.8872 22.4272 88.2515ZM26.0059 87.1543C26.3271 86.833 26.4878 86.4331 26.4878 85.9546C26.4878 85.4761 26.3271 85.0762 26.0059 84.7549C25.6846 84.4336 25.2847 84.2729 24.8062 84.2729C24.3345 84.2729 23.938 84.4336 23.6167 84.7549C23.2954 85.0762 23.1348 85.4761 23.1348 85.9546C23.1348 86.4331 23.2954 86.833 23.6167 87.1543C23.938 87.4756 24.3345 87.6362 24.8062 87.6362C25.2847 87.6362 25.6846 87.4756 26.0059 87.1543Z" fill="#57585A"/>
<rect x="45" y="331" width="20" height="4" fill="#57585A"/>
<rect x="45" y="415" width="20" height="4" fill="#57585A"/>
<rect x="637" y="483" width="4" height="20" fill="#57585A"/>
<rect x="442" y="483" width="4" height="20" fill="#57585A"/>
<rect x="248" y="483" width="4" height="20" fill="#57585A"/>
<rect x="45" y="247" width="20" height="4" fill="#57585A"/>
<rect x="45" y="163" width="20" height="4" fill="#57585A"/>
<rect x="45" y="79" width="20" height="4" fill="#57585A"/>
<path d="M199.381 15.5078C197.811 17.1133 197.026 19.082 197.026 21.4141C197.026 23.7344 197.811 25.6914 199.381 27.2852C200.951 28.8789 202.862 29.6758 205.112 29.6758C207.373 29.6758 209.289 28.8789 210.86 27.2852C212.43 25.6914 213.215 23.7344 213.215 21.4141C213.215 19.082 212.43 17.1191 210.86 15.5254C209.289 13.9199 207.373 13.1172 205.112 13.1172C202.862 13.1172 200.951 13.9141 199.381 15.5078ZM195.408 30.6777C192.76 28.1113 191.436 25.0176 191.436 21.3965C191.436 17.7754 192.754 14.6816 195.391 12.1152C198.039 9.54883 201.28 8.26562 205.112 8.26562C208.955 8.26562 212.196 9.54883 214.832 12.1152C217.481 14.6816 218.805 17.7754 218.805 21.3965C218.805 25.0176 217.481 28.1172 214.832 30.6953C212.196 33.2617 208.955 34.5449 205.112 34.5449C201.28 34.5449 198.045 33.2559 195.408 30.6777ZM239.861 25.5449C239.861 28.0176 239.029 30.1035 237.365 31.8027C235.712 33.502 233.603 34.3516 231.036 34.3516C228.154 34.3516 225.839 33.3496 224.093 31.3457C222.359 29.3418 221.491 26.5059 221.491 22.8379C221.491 18.7363 222.271 15.6367 223.829 13.5391C225.388 11.4414 227.609 10.0996 230.491 9.51367C231.769 9.24414 232.935 8.95117 233.99 8.63477C235.044 8.31836 235.777 8.06055 236.187 7.86133L236.802 7.54492L238.947 11.1484C238.853 11.2422 238.683 11.3652 238.437 11.5176C238.202 11.6699 237.482 11.9688 236.275 12.4141C235.079 12.8594 233.632 13.2754 231.933 13.6621C230.398 14.002 229.15 14.6582 228.189 15.6309C227.228 16.5918 226.618 17.793 226.361 19.2344C226.407 19.1641 226.484 19.0762 226.589 18.9707C226.695 18.8652 226.917 18.6719 227.257 18.3906C227.597 18.0977 227.954 17.8398 228.329 17.6172C228.716 17.3828 229.202 17.1777 229.788 17.002C230.374 16.8145 230.972 16.7207 231.581 16.7207C233.761 16.7207 235.683 17.5938 237.347 19.3398C239.023 21.0742 239.861 23.1426 239.861 25.5449ZM228.083 22.293C227.286 23.1367 226.888 24.2207 226.888 25.5449C226.888 26.8574 227.286 27.9355 228.083 28.7793C228.88 29.623 229.865 30.0449 231.036 30.0449C232.138 30.0449 233.07 29.623 233.831 28.7793C234.605 27.9355 234.991 26.8574 234.991 25.5449C234.991 24.2207 234.605 23.1426 233.831 22.3105C233.07 21.4668 232.138 21.0449 231.036 21.0449C229.865 21.0449 228.88 21.4609 228.083 22.293ZM243.092 34V16.3516H247.944V29.6758H252.813V16.3516H257.664V29.6758H262.534V16.3516H267.385V29.6758H269.723V38.1484H264.871V34H243.092ZM281.954 34V32.207C281.814 32.3711 281.615 32.5762 281.357 32.8223C281.111 33.0566 280.566 33.373 279.722 33.7715C278.878 34.1582 277.999 34.3516 277.085 34.3516C275.327 34.3516 273.898 33.8652 272.796 32.8926C271.695 31.9082 271.144 30.7188 271.144 29.3242C271.144 27.8828 271.607 26.6816 272.533 25.7207C273.458 24.7598 274.736 24.1328 276.365 23.8398L281.954 22.8379C281.954 22.0996 281.685 21.4961 281.146 21.0273C280.607 20.5586 279.857 20.3242 278.896 20.3242C278.099 20.3242 277.372 20.4766 276.716 20.7812C276.06 21.0742 275.597 21.3789 275.327 21.6953L274.923 22.1172L272.234 19.4277C272.304 19.334 272.398 19.2109 272.515 19.0586C272.644 18.8945 272.919 18.6191 273.341 18.2324C273.775 17.8457 274.243 17.5059 274.747 17.2129C275.251 16.9082 275.913 16.6328 276.734 16.3867C277.554 16.1289 278.392 16 279.247 16C281.474 16 283.29 16.668 284.697 18.0039C286.103 19.3281 286.806 20.998 286.806 23.0137V34H281.954ZM278.351 30.3965C279.452 30.3965 280.326 30.0508 280.97 29.3594C281.626 28.6562 281.954 27.6836 281.954 26.4414V25.8965L277.999 26.6172C276.675 26.8281 276.013 27.4902 276.013 28.6035C276.013 29.7988 276.792 30.3965 278.351 30.3965ZM296.875 16.3516H305.33V34H300.479V28.7793H297.948L294.713 34H289.493L293.272 28.0586C293.178 28.0117 293.055 27.9531 292.903 27.8828C292.762 27.8125 292.504 27.6191 292.129 27.3027C291.766 26.9863 291.438 26.6465 291.145 26.2832C290.864 25.9082 290.606 25.3984 290.371 24.7539C290.149 24.0977 290.037 23.4004 290.037 22.6621C290.037 20.9395 290.688 19.457 291.989 18.2148C293.301 16.9727 294.93 16.3516 296.875 16.3516ZM300.479 20.5H297.245C296.53 20.5 295.955 20.6992 295.522 21.0977C295.1 21.4961 294.889 22.0176 294.889 22.6621C294.889 23.3066 295.1 23.8281 295.522 24.2266C295.944 24.625 296.518 24.8242 297.245 24.8242H300.479V20.5ZM317.664 31.5918C315.778 29.7637 314.834 27.625 314.834 25.1758C314.834 22.7266 315.778 20.5879 317.664 18.7598C319.551 16.9199 321.789 16 324.379 16C325.293 16 326.161 16.1289 326.981 16.3867C327.813 16.6328 328.493 16.9316 329.02 17.2832C329.547 17.623 330.016 17.9688 330.426 18.3203C330.836 18.6719 331.135 18.9766 331.323 19.2344L331.586 19.6035L328.528 22.6621C328.434 22.498 328.276 22.2812 328.053 22.0117C327.842 21.7422 327.373 21.3965 326.647 20.9746C325.932 20.541 325.176 20.3242 324.379 20.3242C323.102 20.3242 322 20.7988 321.075 21.748C320.161 22.6973 319.704 23.8457 319.704 25.1934C319.704 26.5293 320.166 27.6719 321.092 28.6211C322.018 29.5703 323.114 30.0449 324.379 30.0449C325.176 30.0449 325.932 29.8516 326.647 29.4648C327.373 29.0781 327.901 28.6914 328.229 28.3047L328.704 27.707L331.586 30.7656C331.516 30.8594 331.416 30.9941 331.288 31.1699C331.17 31.334 330.889 31.6211 330.444 32.0312C329.998 32.4297 329.518 32.7871 329.002 33.1035C328.487 33.4082 327.813 33.6953 326.981 33.9648C326.161 34.2227 325.293 34.3516 324.379 34.3516C321.789 34.3516 319.551 33.4316 317.664 31.5918ZM343.642 29.6758L338.949 23.5586V34H334.097V16.3516H338.228L343.642 23.3828L349.039 16.3516H353.169V34H348.318V23.5586L343.642 29.6758ZM373.856 26.793H361.077C361.264 27.7539 361.774 28.5684 362.606 29.2363C363.438 29.8926 364.487 30.2207 365.752 30.2207C366.667 30.2207 367.51 30.0449 368.284 29.6934C369.069 29.3301 369.62 28.9668 369.936 28.6035L370.446 28.0586L372.959 31.293L372.643 31.6094C372.491 31.7617 372.174 32.0137 371.694 32.3652C371.213 32.7168 370.704 33.0332 370.165 33.3145C369.626 33.584 368.922 33.8242 368.055 34.0352C367.2 34.2461 366.315 34.3516 365.401 34.3516C362.811 34.3516 360.602 33.4551 358.774 31.6621C356.946 29.8574 356.032 27.6953 356.032 25.1758C356.032 22.6562 356.934 20.5 358.739 18.707C360.543 16.9023 362.706 16 365.225 16C367.745 16 369.842 16.8438 371.518 18.5312C373.194 20.207 374.032 22.3047 374.032 24.8242L373.856 26.793ZM367.844 21.0625C367.129 20.4531 366.256 20.1484 365.225 20.1484C364.194 20.1484 363.315 20.4473 362.588 21.0449C361.874 21.6426 361.37 22.4219 361.077 23.3828H369.18C368.993 22.4453 368.547 21.6719 367.844 21.0625ZM386.984 34.3516C385.976 34.3516 385.033 34.1465 384.154 33.7363C383.287 33.3145 382.671 32.8984 382.308 32.4883L381.763 31.8379V41.5586H376.912V16.3516H381.763V18.5137C381.81 18.4434 381.88 18.3555 381.974 18.25C382.08 18.1445 382.291 17.9512 382.607 17.6699C382.935 17.377 383.287 17.1191 383.662 16.8965C384.037 16.6621 384.523 16.457 385.121 16.2812C385.718 16.0938 386.339 16 386.984 16C389.269 16 391.25 16.8906 392.925 18.6719C394.613 20.4414 395.457 22.6094 395.457 25.1758C395.457 27.7422 394.613 29.916 392.925 31.6973C391.25 33.4668 389.269 34.3516 386.984 34.3516ZM389.164 21.6777C388.32 20.7754 387.294 20.3242 386.087 20.3242C384.892 20.3242 383.873 20.7812 383.029 21.6953C382.185 22.5977 381.763 23.7578 381.763 25.1758C381.763 26.5938 382.185 27.7598 383.029 28.6738C383.873 29.5879 384.892 30.0449 386.087 30.0449C387.294 30.0449 388.314 29.5879 389.146 28.6738C389.99 27.7598 390.412 26.5938 390.412 25.1758C390.412 23.7578 389.996 22.5918 389.164 21.6777ZM396.508 21.0449V16.3516H412.54V21.0449H406.95V34H402.098V21.0449H396.508ZM419.515 27.3379V34H414.664V16.3516H419.515V23.0137H426.353V16.3516H431.222V34H426.353V27.3379H419.515ZM440.395 21.8535C439.54 22.7559 439.112 23.8691 439.112 25.1934C439.112 26.5059 439.54 27.6133 440.395 28.5156C441.251 29.4062 442.264 29.8516 443.436 29.8516C444.608 29.8516 445.622 29.4062 446.477 28.5156C447.333 27.6133 447.76 26.5059 447.76 25.1934C447.76 23.8691 447.333 22.7559 446.477 21.8535C445.622 20.9512 444.608 20.5 443.436 20.5C442.264 20.5 441.251 20.9512 440.395 21.8535ZM450.01 18.7422C451.862 20.582 452.788 22.7266 452.788 25.1758C452.788 27.625 451.856 29.7695 449.993 31.6094C448.141 33.4375 445.956 34.3516 443.436 34.3516C440.917 34.3516 438.725 33.4375 436.862 31.6094C434.999 29.7695 434.067 27.625 434.067 25.1758C434.067 22.7266 434.999 20.5879 436.862 18.7598C438.725 16.9199 440.917 16 443.436 16C445.956 16 448.147 16.9141 450.01 18.7422ZM457.39 31.5918C455.504 29.7637 454.56 27.625 454.56 25.1758C454.56 22.7266 455.504 20.5879 457.39 18.7598C459.277 16.9199 461.515 16 464.105 16C465.019 16 465.886 16.1289 466.707 16.3867C467.539 16.6328 468.218 16.9316 468.746 17.2832C469.273 17.623 469.742 17.9688 470.152 18.3203C470.562 18.6719 470.861 18.9766 471.049 19.2344L471.312 19.6035L468.254 22.6621C468.16 22.498 468.002 22.2812 467.779 22.0117C467.568 21.7422 467.099 21.3965 466.373 20.9746C465.658 20.541 464.902 20.3242 464.105 20.3242C462.828 20.3242 461.726 20.7988 460.8 21.748C459.886 22.6973 459.429 23.8457 459.429 25.1934C459.429 26.5293 459.892 27.6719 460.818 28.6211C461.744 29.5703 462.84 30.0449 464.105 30.0449C464.902 30.0449 465.658 29.8516 466.373 29.4648C467.099 29.0781 467.627 28.6914 467.955 28.3047L468.429 27.707L471.312 30.7656C471.242 30.8594 471.142 30.9941 471.013 31.1699C470.896 31.334 470.615 31.6211 470.17 32.0312C469.724 32.4297 469.244 32.7871 468.728 33.1035C468.213 33.4082 467.539 33.6953 466.707 33.9648C465.886 34.2227 465.019 34.3516 464.105 34.3516C461.515 34.3516 459.277 33.4316 457.39 31.5918ZM472.012 21.0449V16.3516H488.044V21.0449H482.454V34H477.602V21.0449H472.012ZM495.019 30.0449H498.078C498.699 30.0449 499.215 29.8398 499.625 29.4297C500.035 29.0195 500.24 28.5039 500.24 27.8828C500.24 27.2617 500.035 26.7461 499.625 26.3359C499.226 25.9258 498.711 25.7207 498.078 25.7207H495.019V30.0449ZM503.299 23.4531C504.506 24.5781 505.109 26.0547 505.109 27.8828C505.109 29.6992 504.5 31.1758 503.281 32.3125C502.074 33.4375 500.404 34 498.271 34H490.168V16.3516H495.019V21.7656H498.271C500.404 21.7656 502.08 22.3281 503.299 23.4531Z" fill="#F9A837"/>
<path fill-rule="evenodd" clip-rule="evenodd" d="M107 79H247V189L177 209L107 189V79Z" fill="#57585A"/>
<path d="M130.346 93.2207C130.985 93.2207 131.597 93.3057 132.183 93.4756C132.769 93.6396 133.252 93.8418 133.633 94.082C134.02 94.3223 134.357 94.5596 134.644 94.7939C134.931 95.0283 135.142 95.2305 135.277 95.4004L135.47 95.6465L134.213 96.9121C134.178 96.8652 134.125 96.8008 134.055 96.7188C133.991 96.6309 133.838 96.4756 133.598 96.2529C133.358 96.0303 133.1 95.8398 132.825 95.6816C132.549 95.5176 132.189 95.3682 131.744 95.2334C131.304 95.0928 130.838 95.0225 130.346 95.0225C129.039 95.0225 127.932 95.4766 127.024 96.3848C126.116 97.2871 125.662 98.3916 125.662 99.6982C125.662 101.005 126.113 102.112 127.015 103.021C127.923 103.929 129.034 104.383 130.346 104.383C130.838 104.383 131.307 104.315 131.752 104.181C132.204 104.04 132.576 103.873 132.869 103.68C133.167 103.486 133.428 103.296 133.651 103.108C133.879 102.915 134.049 102.751 134.161 102.616L134.301 102.396L135.567 103.662C135.52 103.732 135.447 103.826 135.347 103.943C135.253 104.055 135.039 104.254 134.705 104.541C134.377 104.828 134.026 105.083 133.651 105.306C133.282 105.528 132.795 105.73 132.192 105.912C131.594 106.088 130.979 106.176 130.346 106.176C128.459 106.176 126.877 105.549 125.6 104.295C124.323 103.041 123.684 101.509 123.684 99.6982C123.684 97.8877 124.323 96.3555 125.6 95.1016C126.877 93.8477 128.459 93.2207 130.346 93.2207ZM138.879 102.396V106H137.077V97.3604H138.879V100.779H143.106V97.3604H144.908V106H143.106V102.396H138.879ZM153.362 97.3604H154.979V106H153.177V100.331L148.677 106H147.06V97.3604H148.862V103.029L153.362 97.3604ZM163.608 100.867L166.939 97.3604H169.102L165.77 100.964L169.374 106H167.388L164.602 102.133L163.608 103.214V106H161.815V103.214L160.822 102.133L158.036 106H156.05L159.653 100.964L156.322 97.3604H158.484L161.815 100.867V97.3604H163.608V100.867ZM178.443 102.309H171.693C171.787 102.918 172.085 103.445 172.589 103.891C173.099 104.336 173.703 104.559 174.4 104.559C174.904 104.559 175.373 104.444 175.806 104.216C176.246 103.987 176.556 103.765 176.738 103.548L177.01 103.214L178.179 104.383C178.144 104.43 178.088 104.497 178.012 104.585C177.942 104.667 177.787 104.811 177.546 105.016C177.306 105.215 177.051 105.394 176.782 105.552C176.512 105.704 176.161 105.848 175.727 105.982C175.299 106.111 174.857 106.176 174.4 106.176C173.175 106.176 172.118 105.728 171.227 104.831C170.342 103.929 169.9 102.848 169.9 101.588C169.9 100.375 170.331 99.3379 171.192 98.4766C172.059 97.6094 173.096 97.1758 174.303 97.1758C175.516 97.1758 176.524 97.5801 177.327 98.3887C178.135 99.1914 178.54 100.199 178.54 101.412L178.443 102.309ZM174.303 98.7139C173.653 98.7139 173.105 98.9072 172.66 99.2939C172.22 99.6748 171.924 100.17 171.772 100.779H176.773C176.667 100.17 176.395 99.6748 175.956 99.2939C175.516 98.9072 174.965 98.7139 174.303 98.7139ZM181.939 102.396V106H180.138V97.3604H181.939V100.779H186.167V97.3604H187.969V106H186.167V102.396H181.939ZM196.422 97.3604H198.04V106H196.238V100.331L191.738 106H190.121V97.3604H191.922V103.029L196.422 97.3604ZM208.198 102.309H201.448C201.542 102.918 201.841 103.445 202.345 103.891C202.855 104.336 203.458 104.559 204.155 104.559C204.659 104.559 205.128 104.444 205.562 104.216C206.001 103.987 206.312 103.765 206.493 103.548L206.766 103.214L207.935 104.383C207.899 104.43 207.844 104.497 207.768 104.585C207.697 104.667 207.542 104.811 207.302 105.016C207.062 105.215 206.807 105.394 206.537 105.552C206.268 105.704 205.916 105.848 205.482 105.982C205.055 106.111 204.612 106.176 204.155 106.176C202.931 106.176 201.873 105.728 200.982 104.831C200.098 103.929 199.655 102.848 199.655 101.588C199.655 100.375 200.086 99.3379 200.947 98.4766C201.814 97.6094 202.852 97.1758 204.059 97.1758C205.272 97.1758 206.279 97.5801 207.082 98.3887C207.891 99.1914 208.295 100.199 208.295 101.412L208.198 102.309ZM204.059 98.7139C203.408 98.7139 202.86 98.9072 202.415 99.2939C201.976 99.6748 201.68 100.17 201.527 100.779H206.528C206.423 100.17 206.15 99.6748 205.711 99.2939C205.272 98.9072 204.721 98.7139 204.059 98.7139ZM214.928 102.396V106H213.126V97.3604H214.928V100.779H219.155V97.3604H220.957V106H219.155V102.396H214.928ZM230.044 106H228.242V105.104C228.218 105.127 228.177 105.165 228.119 105.218C228.066 105.271 227.955 105.358 227.785 105.481C227.621 105.599 227.442 105.707 227.249 105.807C227.055 105.9 226.812 105.985 226.519 106.062C226.226 106.138 225.93 106.176 225.631 106.176C224.753 106.176 224.023 105.921 223.443 105.411C222.863 104.901 222.573 104.318 222.573 103.662C222.573 102.953 222.795 102.358 223.241 101.878C223.692 101.397 224.307 101.093 225.087 100.964L228.242 100.419C228.242 99.9619 228.072 99.5781 227.732 99.2676C227.398 98.957 226.967 98.8018 226.44 98.8018C225.983 98.8018 225.567 98.8984 225.192 99.0918C224.823 99.2793 224.568 99.4697 224.427 99.6631L224.19 99.9707L223.021 98.8018C223.056 98.7549 223.103 98.6963 223.162 98.626C223.226 98.5498 223.364 98.4209 223.575 98.2393C223.792 98.0518 224.02 97.8848 224.26 97.7383C224.501 97.5918 224.817 97.4629 225.21 97.3516C225.608 97.2344 226.018 97.1758 226.44 97.1758C227.495 97.1758 228.359 97.4893 229.033 98.1162C229.707 98.7373 230.044 99.5049 230.044 100.419V106ZM225.904 104.559C226.636 104.559 227.208 104.342 227.618 103.908C228.034 103.469 228.242 102.845 228.242 102.036V101.86L225.447 102.309C225.125 102.367 224.864 102.499 224.665 102.704C224.465 102.909 224.366 103.167 224.366 103.478C224.366 103.765 224.504 104.017 224.779 104.233C225.06 104.45 225.435 104.559 225.904 104.559Z" fill="white"/>
<path d="M153.619 175.137C153.368 175.137 153.124 175.107 152.887 175.048C152.65 174.989 152.448 174.916 152.279 174.829C152.11 174.738 151.96 174.647 151.828 174.556C151.7 174.46 151.607 174.385 151.547 174.33L151.452 174.228V177.939H150.05V168.28H151.452V169.053C151.516 168.989 151.604 168.905 151.718 168.8C151.837 168.695 152.085 168.558 152.463 168.39C152.842 168.221 153.227 168.137 153.619 168.137C154.507 168.137 155.278 168.479 155.929 169.162C156.586 169.841 156.914 170.666 156.914 171.637C156.914 172.607 156.586 173.435 155.929 174.118C155.278 174.797 154.507 175.137 153.619 175.137ZM154.897 170.058C154.487 169.62 154.015 169.401 153.482 169.401C152.949 169.401 152.477 169.62 152.067 170.058C151.657 170.495 151.452 171.024 151.452 171.644C151.452 172.259 151.657 172.785 152.067 173.223C152.477 173.66 152.949 173.879 153.482 173.879C154.015 173.879 154.487 173.66 154.897 173.223C155.307 172.785 155.512 172.259 155.512 171.644C155.512 171.024 155.307 170.495 154.897 170.058ZM166.065 171.5V172.758H160.323V171.5H166.065ZM166.065 168.978V170.242H160.323V168.978H166.065ZM170.889 173.763C170.091 172.851 169.692 171.63 169.692 170.099C169.692 168.567 170.091 167.346 170.889 166.435C171.686 165.519 172.664 165.061 173.821 165.061C174.979 165.061 175.956 165.519 176.754 166.435C177.551 167.346 177.95 168.567 177.95 170.099C177.95 171.63 177.551 172.854 176.754 173.77C175.956 174.681 174.979 175.137 173.821 175.137C172.664 175.137 171.686 174.679 170.889 173.763ZM175.653 172.765C176.159 172.118 176.412 171.229 176.412 170.099C176.412 168.968 176.157 168.08 175.646 167.433C175.141 166.785 174.532 166.462 173.821 166.462C173.11 166.462 172.5 166.785 171.989 167.433C171.483 168.08 171.23 168.968 171.23 170.099C171.23 171.229 171.483 172.12 171.989 172.771C172.5 173.419 173.11 173.742 173.821 173.742C174.532 173.742 175.143 173.416 175.653 172.765ZM179.904 173.318L181.162 174.022L179.412 176.818L178.503 176.333L179.904 173.318ZM183.615 173.763C182.817 172.851 182.419 171.63 182.419 170.099C182.419 168.567 182.817 167.346 183.615 166.435C184.412 165.519 185.39 165.061 186.548 165.061C187.705 165.061 188.683 165.519 189.48 166.435C190.278 167.346 190.676 168.567 190.676 170.099C190.676 171.63 190.278 172.854 189.48 173.77C188.683 174.681 187.705 175.137 186.548 175.137C185.39 175.137 184.412 174.679 183.615 173.763ZM188.38 172.765C188.885 172.118 189.138 171.229 189.138 170.099C189.138 168.968 188.883 168.08 188.373 167.433C187.867 166.785 187.258 166.462 186.548 166.462C185.837 166.462 185.226 166.785 184.716 167.433C184.21 168.08 183.957 168.968 183.957 170.099C183.957 171.229 184.21 172.12 184.716 172.771C185.226 173.419 185.837 173.742 186.548 173.742C187.258 173.742 187.869 173.416 188.38 172.765ZM195.85 168.492C196.83 168.492 197.634 168.802 198.263 169.422C198.892 170.042 199.207 170.828 199.207 171.78C199.207 172.769 198.885 173.576 198.243 174.2C197.6 174.825 196.755 175.137 195.707 175.137C195.26 175.137 194.836 175.084 194.435 174.979C194.034 174.87 193.701 174.743 193.437 174.597C193.177 174.446 192.952 174.296 192.76 174.146C192.569 173.995 192.432 173.87 192.35 173.77L192.207 173.599L193.191 172.621C193.209 172.648 193.241 172.689 193.287 172.744C193.332 172.794 193.435 172.885 193.594 173.018C193.754 173.145 193.922 173.259 194.1 173.359C194.278 173.455 194.51 173.544 194.797 173.626C195.089 173.703 195.392 173.742 195.707 173.742C196.267 173.742 196.734 173.555 197.108 173.182C197.482 172.808 197.668 172.341 197.668 171.78C197.668 171.22 197.482 170.753 197.108 170.379C196.734 170.005 196.267 169.818 195.707 169.818C195.296 169.818 194.927 169.894 194.599 170.044C194.276 170.194 194.052 170.345 193.929 170.495L193.752 170.728H192.63L192.911 165.197H198.578V166.599H194.312L194.168 168.909C194.542 168.631 195.103 168.492 195.85 168.492ZM202.131 165.197H203.321V175H201.783V167.583H200.033V166.53C200.62 166.466 201.067 166.327 201.372 166.113C201.682 165.895 201.935 165.589 202.131 165.197Z" fill="white"/>
<path d="M160.919 134.676C161.036 134.723 161.194 134.793 161.394 134.887C161.604 134.969 161.968 135.18 162.483 135.52C162.999 135.848 163.456 136.229 163.854 136.662C164.253 137.096 164.61 137.699 164.927 138.473C165.255 139.234 165.419 140.072 165.419 140.986C165.419 143.049 164.593 144.795 162.94 146.225C161.3 147.643 159.126 148.352 156.419 148.352C155.27 148.352 154.181 148.217 153.149 147.947C152.118 147.666 151.263 147.338 150.583 146.963C149.915 146.576 149.335 146.189 148.843 145.803C148.351 145.416 147.993 145.094 147.77 144.836L147.419 144.396L149.933 141.883C149.979 141.953 150.061 142.059 150.179 142.199C150.308 142.328 150.577 142.562 150.987 142.902C151.397 143.23 151.825 143.523 152.27 143.781C152.728 144.027 153.325 144.256 154.063 144.467C154.813 144.666 155.599 144.766 156.419 144.766C157.978 144.766 159.208 144.391 160.11 143.641C161.013 142.879 161.464 141.936 161.464 140.811C161.464 139.674 161.013 138.73 160.11 137.98C159.208 137.219 157.978 136.838 156.419 136.838H153.905V133.234H156.419C157.661 133.234 158.628 132.912 159.319 132.268C160.022 131.623 160.374 130.75 160.374 129.648C160.374 128.535 160.022 127.656 159.319 127.012C158.628 126.367 157.661 126.045 156.419 126.045C155.364 126.045 154.368 126.273 153.431 126.73C152.493 127.188 151.831 127.627 151.444 128.049L150.847 128.734L148.315 126.221C148.386 126.127 148.491 125.998 148.632 125.834C148.784 125.658 149.112 125.348 149.616 124.902C150.12 124.457 150.659 124.076 151.233 123.76C151.808 123.432 152.563 123.133 153.501 122.863C154.438 122.582 155.411 122.441 156.419 122.441C158.892 122.441 160.831 123.08 162.237 124.357C163.644 125.623 164.347 127.264 164.347 129.279C164.347 129.971 164.224 130.639 163.978 131.283C163.743 131.916 163.456 132.432 163.116 132.83C162.776 133.229 162.442 133.574 162.114 133.867C161.798 134.148 161.517 134.348 161.27 134.465L160.919 134.676ZM173.326 122.793H176.385V148H172.43V128.928H167.93V126.221C169.441 126.057 170.59 125.699 171.375 125.148C172.172 124.586 172.822 123.801 173.326 122.793ZM190.884 124.076C191.997 125.166 192.554 126.479 192.554 128.014C192.554 129.549 191.997 130.867 190.884 131.969C189.771 133.059 188.405 133.604 186.788 133.604C185.183 133.604 183.823 133.059 182.71 131.969C181.597 130.867 181.04 129.549 181.04 128.014C181.04 126.479 181.597 125.166 182.71 124.076C183.823 122.986 185.183 122.441 186.788 122.441C188.405 122.441 189.771 122.986 190.884 124.076ZM184.749 125.975C184.198 126.525 183.923 127.211 183.923 128.031C183.923 128.84 184.198 129.52 184.749 130.07C185.3 130.621 185.98 130.896 186.788 130.896C187.608 130.896 188.294 130.621 188.845 130.07C189.396 129.52 189.671 128.84 189.671 128.031C189.671 127.211 189.396 126.525 188.845 125.975C188.294 125.424 187.608 125.148 186.788 125.148C185.98 125.148 185.3 125.424 184.749 125.975ZM183.923 148L199.761 122.793H202.995L187.157 148H183.923ZM196.034 146.717C194.921 145.627 194.364 144.314 194.364 142.779C194.364 141.244 194.921 139.932 196.034 138.842C197.147 137.752 198.507 137.207 200.112 137.207C201.73 137.207 203.095 137.752 204.208 138.842C205.321 139.932 205.878 141.244 205.878 142.779C205.878 144.314 205.321 145.627 204.208 146.717C203.095 147.807 201.73 148.352 200.112 148.352C198.507 148.352 197.147 147.807 196.034 146.717ZM202.169 144.836C202.72 144.285 202.995 143.6 202.995 142.779C202.995 141.959 202.72 141.273 202.169 140.723C201.618 140.172 200.933 139.896 200.112 139.896C199.304 139.896 198.624 140.172 198.073 140.723C197.522 141.273 197.247 141.959 197.247 142.779C197.247 143.6 197.522 144.285 198.073 144.836C198.624 145.387 199.304 145.662 200.112 145.662C200.933 145.662 201.618 145.387 202.169 144.836Z" fill="white"/>
<path d="M186.966 593.296V608H184.659V595.398H177.409V608H175.102V593.296H186.966ZM191.148 597.92H198.92V608H196.818V599.807H193.25V600.863C193.25 602.784 193.096 604.302 192.788 605.416C192.488 606.523 192.098 607.265 191.619 607.641C191.148 608.017 190.536 608.205 189.784 608.205C189.599 608.205 189.401 608.188 189.189 608.154C188.984 608.12 188.824 608.082 188.707 608.041L188.523 608V606C188.803 606.069 189.046 606.106 189.251 606.113C189.681 606.113 190.02 605.997 190.266 605.765C190.519 605.532 190.727 605.02 190.891 604.227C191.062 603.427 191.148 602.306 191.148 600.863V597.92ZM209.521 608H207.419V606.954C207.392 606.981 207.344 607.026 207.275 607.087C207.214 607.149 207.084 607.251 206.886 607.395C206.694 607.532 206.486 607.658 206.26 607.774C206.035 607.884 205.751 607.983 205.409 608.072C205.067 608.161 204.722 608.205 204.374 608.205C203.348 608.205 202.497 607.908 201.82 607.313C201.144 606.718 200.805 606.038 200.805 605.272C200.805 604.445 201.065 603.751 201.585 603.191C202.111 602.63 202.829 602.275 203.738 602.125L207.419 601.489C207.419 600.956 207.221 600.508 206.824 600.146C206.435 599.783 205.932 599.602 205.317 599.602C204.784 599.602 204.298 599.715 203.861 599.94C203.43 600.159 203.133 600.381 202.969 600.607L202.692 600.966L201.328 599.602C201.369 599.547 201.424 599.479 201.492 599.397C201.567 599.308 201.728 599.158 201.974 598.946C202.227 598.727 202.494 598.532 202.774 598.361C203.054 598.19 203.423 598.04 203.881 597.91C204.346 597.773 204.825 597.705 205.317 597.705C206.547 597.705 207.556 598.071 208.342 598.802C209.128 599.527 209.521 600.422 209.521 601.489V608ZM204.691 606.318C205.546 606.318 206.212 606.065 206.691 605.56C207.176 605.047 207.419 604.319 207.419 603.375V603.17L204.158 603.693C203.782 603.762 203.478 603.916 203.246 604.155C203.013 604.394 202.897 604.695 202.897 605.057C202.897 605.392 203.058 605.686 203.379 605.939C203.707 606.192 204.145 606.318 204.691 606.318ZM212.032 608V597.92H214.134V606.113H218.861V597.92H220.963V606.113H222.429V610.522H220.327V608H212.032ZM233.43 603.693H225.555C225.664 604.404 226.013 605.02 226.601 605.539C227.195 606.059 227.899 606.318 228.713 606.318C229.301 606.318 229.848 606.185 230.354 605.918C230.866 605.652 231.229 605.392 231.441 605.139L231.758 604.75L233.122 606.113C233.081 606.168 233.016 606.247 232.927 606.349C232.845 606.445 232.664 606.612 232.384 606.852C232.104 607.084 231.806 607.292 231.492 607.477C231.177 607.655 230.767 607.822 230.261 607.979C229.762 608.13 229.246 608.205 228.713 608.205C227.284 608.205 226.05 607.682 225.011 606.636C223.979 605.583 223.463 604.322 223.463 602.853C223.463 601.438 223.965 600.228 224.97 599.223C225.982 598.211 227.192 597.705 228.6 597.705C230.015 597.705 231.191 598.177 232.128 599.12C233.071 600.057 233.543 601.232 233.543 602.647L233.43 603.693ZM228.6 599.5C227.841 599.5 227.202 599.725 226.683 600.176C226.17 600.621 225.825 601.198 225.647 601.909H231.482C231.358 601.198 231.041 600.621 230.528 600.176C230.015 599.725 229.373 599.5 228.6 599.5ZM245.487 603.068C245.487 604.483 244.988 605.693 243.99 606.698C242.998 607.703 241.819 608.205 240.452 608.205C238.873 608.205 237.601 607.641 236.638 606.513C235.681 605.378 235.202 603.738 235.202 601.591C235.202 599.144 235.657 597.309 236.566 596.085C237.475 594.861 238.77 594.109 240.452 593.829C241.197 593.706 241.864 593.549 242.452 593.357C243.046 593.166 243.456 593.005 243.682 592.875L244.02 592.67L244.964 594.25C244.923 594.304 244.837 594.383 244.707 594.485C244.584 594.588 244.157 594.772 243.426 595.039C242.701 595.306 241.778 595.531 240.657 595.716C239.693 595.873 238.917 596.273 238.329 596.916C237.742 597.558 237.396 598.419 237.294 599.5C237.321 599.458 237.369 599.404 237.437 599.335C237.513 599.26 237.66 599.134 237.878 598.956C238.097 598.771 238.326 598.611 238.565 598.474C238.811 598.331 239.122 598.204 239.498 598.095C239.881 597.979 240.267 597.92 240.657 597.92C241.929 597.92 243.05 598.43 244.02 599.448C244.998 600.46 245.487 601.667 245.487 603.068ZM238.381 600.74C237.8 601.369 237.509 602.145 237.509 603.068C237.509 603.991 237.8 604.763 238.381 605.385C238.962 606.007 239.649 606.318 240.442 606.318C241.242 606.318 241.932 606.007 242.513 605.385C243.094 604.763 243.385 603.991 243.385 603.068C243.385 602.145 243.094 601.373 242.513 600.75C241.932 600.122 241.242 599.807 240.442 599.807C239.649 599.807 238.962 600.118 238.381 600.74ZM254.406 605.344C255.028 604.695 255.339 603.902 255.339 602.965C255.339 602.022 255.028 601.226 254.406 600.576C253.784 599.927 253.046 599.602 252.191 599.602C251.337 599.602 250.595 599.927 249.966 600.576C249.344 601.226 249.033 602.022 249.033 602.965C249.033 603.902 249.344 604.695 249.966 605.344C250.595 605.994 251.337 606.318 252.191 606.318C253.046 606.318 253.784 605.994 254.406 605.344ZM248.51 606.636C247.464 605.597 246.941 604.374 246.941 602.965C246.941 601.55 247.461 600.32 248.5 599.274C249.546 598.228 250.776 597.705 252.191 597.705C253.606 597.705 254.833 598.228 255.872 599.274C256.918 600.32 257.441 601.55 257.441 602.965C257.441 604.374 256.918 605.601 255.872 606.646C254.833 607.686 253.606 608.205 252.191 608.205C250.776 608.205 249.549 607.682 248.51 606.636ZM268.132 606.534H266.348V602.75H262.565V600.863H266.348V597.08H268.132V600.863H271.906V602.75H268.132V606.534ZM278.404 606.636C277.358 605.597 276.835 604.374 276.835 602.965C276.835 601.55 277.354 600.32 278.393 599.274C279.439 598.228 280.67 597.705 282.085 597.705C282.871 597.705 283.602 597.876 284.279 598.218C284.956 598.553 285.441 598.888 285.735 599.223L286.176 599.705L284.812 601.068C284.744 600.959 284.638 600.826 284.494 600.668C284.358 600.504 284.053 600.286 283.582 600.012C283.117 599.739 282.618 599.602 282.085 599.602C281.23 599.602 280.488 599.927 279.86 600.576C279.238 601.226 278.926 602.022 278.926 602.965C278.926 603.902 279.238 604.695 279.86 605.344C280.488 605.994 281.23 606.318 282.085 606.318C282.618 606.318 283.117 606.185 283.582 605.918C284.053 605.652 284.392 605.392 284.597 605.139L284.915 604.75L286.279 606.113C286.238 606.168 286.176 606.247 286.094 606.349C286.012 606.445 285.834 606.612 285.561 606.852C285.287 607.084 285 607.292 284.699 607.477C284.399 607.655 284.009 607.822 283.53 607.979C283.052 608.13 282.57 608.205 282.085 608.205C280.67 608.205 279.443 607.682 278.404 606.636ZM286.892 599.807V597.92H295.916V599.807H292.45V608H290.358V599.807H286.892ZM305.46 608H303.358V606.954C303.331 606.981 303.283 607.026 303.215 607.087C303.153 607.149 303.023 607.251 302.825 607.395C302.634 607.532 302.425 607.658 302.199 607.774C301.974 607.884 301.69 607.983 301.348 608.072C301.007 608.161 300.661 608.205 300.313 608.205C299.287 608.205 298.436 607.908 297.76 607.313C297.083 606.718 296.744 606.038 296.744 605.272C296.744 604.445 297.004 603.751 297.524 603.191C298.05 602.63 298.768 602.275 299.677 602.125L303.358 601.489C303.358 600.956 303.16 600.508 302.763 600.146C302.374 599.783 301.871 599.602 301.256 599.602C300.723 599.602 300.238 599.715 299.8 599.94C299.369 600.159 299.072 600.381 298.908 600.607L298.631 600.966L297.267 599.602C297.308 599.547 297.363 599.479 297.431 599.397C297.507 599.308 297.667 599.158 297.913 598.946C298.166 598.727 298.433 598.532 298.713 598.361C298.993 598.19 299.363 598.04 299.821 597.91C300.285 597.773 300.764 597.705 301.256 597.705C302.487 597.705 303.495 598.071 304.281 598.802C305.067 599.527 305.46 600.422 305.46 601.489V608ZM300.631 606.318C301.485 606.318 302.152 606.065 302.63 605.56C303.115 605.047 303.358 604.319 303.358 603.375V603.17L300.097 603.693C299.721 603.762 299.417 603.916 299.185 604.155C298.952 604.394 298.836 604.695 298.836 605.057C298.836 605.392 298.997 605.686 299.318 605.939C299.646 606.192 300.084 606.318 300.631 606.318ZM310.073 603.796V608H307.971V597.92H310.073V601.909H315.005V597.92H317.107V608H315.005V603.796H310.073ZM318.151 606.113H318.879C318.92 606.072 318.978 606.007 319.053 605.918C319.136 605.823 319.272 605.614 319.464 605.293C319.662 604.972 319.833 604.626 319.976 604.257C320.127 603.881 320.26 603.389 320.376 602.781C320.499 602.172 320.561 601.533 320.561 600.863V597.92H327.913V606.113H329.379V610.522H327.287V608H320.253V610.522H318.151V606.113ZM322.663 599.807V600.863C322.663 601.533 322.605 602.169 322.489 602.771C322.379 603.372 322.239 603.871 322.068 604.268C321.904 604.657 321.737 604.996 321.566 605.283C321.402 605.57 321.265 605.775 321.156 605.898L320.981 606.113H325.811V599.807H322.663ZM339.149 608H337.047V606.954C337.02 606.981 336.972 607.026 336.904 607.087C336.842 607.149 336.712 607.251 336.514 607.395C336.323 607.532 336.114 607.658 335.889 607.774C335.663 607.884 335.379 607.983 335.038 608.072C334.696 608.161 334.351 608.205 334.002 608.205C332.977 608.205 332.126 607.908 331.449 607.313C330.772 606.718 330.434 606.038 330.434 605.272C330.434 604.445 330.693 603.751 331.213 603.191C331.739 602.63 332.457 602.275 333.366 602.125L337.047 601.489C337.047 600.956 336.849 600.508 336.453 600.146C336.063 599.783 335.561 599.602 334.945 599.602C334.412 599.602 333.927 599.715 333.489 599.94C333.059 600.159 332.761 600.381 332.597 600.607L332.32 600.966L330.957 599.602C330.998 599.547 331.052 599.479 331.121 599.397C331.196 599.308 331.357 599.158 331.603 598.946C331.856 598.727 332.122 598.532 332.402 598.361C332.683 598.19 333.052 598.04 333.51 597.91C333.975 597.773 334.453 597.705 334.945 597.705C336.176 597.705 337.184 598.071 337.97 598.802C338.756 599.527 339.149 600.422 339.149 601.489V608ZM334.32 606.318C335.174 606.318 335.841 606.065 336.319 605.56C336.805 605.047 337.047 604.319 337.047 603.375V603.17L333.787 603.693C333.411 603.762 333.107 603.916 332.874 604.155C332.642 604.394 332.525 604.695 332.525 605.057C332.525 605.392 332.686 605.686 333.007 605.939C333.336 606.192 333.773 606.318 334.32 606.318ZM347.013 608.205C346.637 608.205 346.271 608.161 345.915 608.072C345.56 607.983 345.256 607.874 345.003 607.744C344.75 607.607 344.524 607.47 344.326 607.333C344.135 607.19 343.994 607.077 343.906 606.995L343.762 606.841V612.409H341.66V597.92H343.762V599.079C343.858 598.983 343.991 598.857 344.162 598.7C344.34 598.542 344.712 598.337 345.28 598.084C345.847 597.832 346.425 597.705 347.013 597.705C348.346 597.705 349.501 598.218 350.478 599.243C351.463 600.262 351.955 601.499 351.955 602.955C351.955 604.411 351.463 605.652 350.478 606.677C349.501 607.696 348.346 608.205 347.013 608.205ZM348.93 600.586C348.315 599.93 347.607 599.602 346.807 599.602C346.008 599.602 345.3 599.93 344.685 600.586C344.07 601.243 343.762 602.036 343.762 602.965C343.762 603.888 344.07 604.678 344.685 605.334C345.3 605.99 346.008 606.318 346.807 606.318C347.607 606.318 348.315 605.99 348.93 605.334C349.545 604.678 349.853 603.888 349.853 602.965C349.853 602.036 349.545 601.243 348.93 600.586ZM352.774 599.807V597.92H361.797V599.807H358.331V608H356.239V599.807H352.774ZM365.353 603.796V608H363.251V597.92H365.353V601.909H370.286V597.92H372.388V608H370.286V603.796H365.353ZM382.988 608H380.886V606.954C380.859 606.981 380.811 607.026 380.743 607.087C380.681 607.149 380.551 607.251 380.353 607.395C380.162 607.532 379.953 607.658 379.728 607.774C379.502 607.884 379.218 607.983 378.877 608.072C378.535 608.161 378.19 608.205 377.841 608.205C376.816 608.205 375.964 607.908 375.288 607.313C374.611 606.718 374.273 606.038 374.273 605.272C374.273 604.445 374.532 603.751 375.052 603.191C375.578 602.63 376.296 602.275 377.205 602.125L380.886 601.489C380.886 600.956 380.688 600.508 380.292 600.146C379.902 599.783 379.4 599.602 378.784 599.602C378.251 599.602 377.766 599.715 377.328 599.94C376.898 600.159 376.6 600.381 376.436 600.607L376.159 600.966L374.796 599.602C374.837 599.547 374.891 599.479 374.96 599.397C375.035 599.308 375.195 599.158 375.442 598.946C375.694 598.727 375.961 598.532 376.241 598.361C376.522 598.19 376.891 598.04 377.349 597.91C377.814 597.773 378.292 597.705 378.784 597.705C380.015 597.705 381.023 598.071 381.809 598.802C382.595 599.527 382.988 600.422 382.988 601.489V608ZM378.159 606.318C379.013 606.318 379.68 606.065 380.158 605.56C380.644 605.047 380.886 604.319 380.886 603.375V603.17L377.626 603.693C377.25 603.762 376.945 603.916 376.713 604.155C376.481 604.394 376.364 604.695 376.364 605.057C376.364 605.392 376.525 605.686 376.846 605.939C377.174 606.192 377.612 606.318 378.159 606.318ZM388.862 597.92H393.476V608H391.385V604.852H389.18L387.181 608H384.873L387.078 604.534C387.023 604.521 386.948 604.49 386.852 604.442C386.764 604.394 386.606 604.288 386.381 604.124C386.155 603.953 385.954 603.758 385.776 603.54C385.605 603.321 385.444 603.02 385.294 602.637C385.15 602.248 385.079 601.831 385.079 601.386C385.079 600.381 385.424 599.554 386.114 598.905C386.811 598.249 387.727 597.92 388.862 597.92ZM391.385 599.705H388.862C388.384 599.705 387.984 599.865 387.663 600.187C387.341 600.508 387.181 600.908 387.181 601.386C387.181 601.865 387.341 602.265 387.663 602.586C387.984 602.907 388.384 603.068 388.862 603.068H391.385V599.705ZM398.703 599.807V597.92H407.726V599.807H404.26V608H402.168V599.807H398.703ZM418.522 603.693H410.647C410.756 604.404 411.105 605.02 411.693 605.539C412.287 606.059 412.991 606.318 413.805 606.318C414.393 606.318 414.94 606.185 415.446 605.918C415.958 605.652 416.321 605.392 416.532 605.139L416.85 604.75L418.214 606.113C418.173 606.168 418.108 606.247 418.019 606.349C417.937 606.445 417.756 606.612 417.476 606.852C417.196 607.084 416.898 607.292 416.584 607.477C416.269 607.655 415.859 607.822 415.353 607.979C414.854 608.13 414.338 608.205 413.805 608.205C412.376 608.205 411.142 607.682 410.103 606.636C409.071 605.583 408.555 604.322 408.555 602.853C408.555 601.438 409.057 600.228 410.062 599.223C411.074 598.211 412.284 597.705 413.692 597.705C415.107 597.705 416.283 598.177 417.219 599.12C418.163 600.057 418.634 601.232 418.634 602.647L418.522 603.693ZM413.692 599.5C412.933 599.5 412.294 599.725 411.775 600.176C411.262 600.621 410.917 601.198 410.739 601.909H416.573C416.45 601.198 416.133 600.621 415.62 600.176C415.107 599.725 414.465 599.5 413.692 599.5ZM425.852 608.205C425.476 608.205 425.11 608.161 424.754 608.072C424.399 607.983 424.095 607.874 423.842 607.744C423.589 607.607 423.363 607.47 423.165 607.333C422.974 607.19 422.833 607.077 422.745 606.995L422.601 606.841V612.409H420.499V597.92H422.601V599.079C422.697 598.983 422.83 598.857 423.001 598.7C423.179 598.542 423.551 598.337 424.119 598.084C424.686 597.832 425.264 597.705 425.852 597.705C427.185 597.705 428.34 598.218 429.317 599.243C430.302 600.262 430.794 601.499 430.794 602.955C430.794 604.411 430.302 605.652 429.317 606.677C428.34 607.696 427.185 608.205 425.852 608.205ZM427.769 600.586C427.154 599.93 426.446 599.602 425.646 599.602C424.847 599.602 424.139 599.93 423.524 600.586C422.909 601.243 422.601 602.036 422.601 602.965C422.601 603.888 422.909 604.678 423.524 605.334C424.139 605.99 424.847 606.318 425.646 606.318C426.446 606.318 427.154 605.99 427.769 605.334C428.384 604.678 428.692 603.888 428.692 602.965C428.692 602.036 428.384 601.243 427.769 600.586ZM440.749 608H438.647V606.954C438.619 606.981 438.572 607.026 438.503 607.087C438.442 607.149 438.312 607.251 438.114 607.395C437.922 607.532 437.714 607.658 437.488 607.774C437.262 607.884 436.979 607.983 436.637 608.072C436.295 608.161 435.95 608.205 435.601 608.205C434.576 608.205 433.725 607.908 433.048 607.313C432.371 606.718 432.033 606.038 432.033 605.272C432.033 604.445 432.293 603.751 432.812 603.191C433.339 602.63 434.056 602.275 434.966 602.125L438.647 601.489C438.647 600.956 438.448 600.508 438.052 600.146C437.662 599.783 437.16 599.602 436.545 599.602C436.011 599.602 435.526 599.715 435.089 599.94C434.658 600.159 434.361 600.381 434.197 600.607L433.92 600.966L432.556 599.602C432.597 599.547 432.652 599.479 432.72 599.397C432.795 599.308 432.956 599.158 433.202 598.946C433.455 598.727 433.721 598.532 434.002 598.361C434.282 598.19 434.651 598.04 435.109 597.91C435.574 597.773 436.052 597.705 436.545 597.705C437.775 597.705 438.783 598.071 439.57 598.802C440.356 599.527 440.749 600.422 440.749 601.489V608ZM435.919 606.318C436.774 606.318 437.44 606.065 437.919 605.56C438.404 605.047 438.647 604.319 438.647 603.375V603.17L435.386 603.693C435.01 603.762 434.706 603.916 434.473 604.155C434.241 604.394 434.125 604.695 434.125 605.057C434.125 605.392 434.285 605.686 434.607 605.939C434.935 606.192 435.372 606.318 435.919 606.318ZM445.361 599.807V608H443.259V597.92H452.396V608H450.293V599.807H445.361ZM462.258 597.92H464.145V608H462.043V601.386L456.793 608H454.906V597.92H457.008V604.534L462.258 597.92ZM470.019 597.92H474.633V608H472.541V604.852H470.336L468.337 608H466.03L468.234 604.534C468.18 604.521 468.105 604.49 468.009 604.442C467.92 604.394 467.763 604.288 467.537 604.124C467.312 603.953 467.11 603.758 466.932 603.54C466.761 603.321 466.601 603.02 466.45 602.637C466.307 602.248 466.235 601.831 466.235 601.386C466.235 600.381 466.58 599.554 467.271 598.905C467.968 598.249 468.884 597.92 470.019 597.92ZM472.541 599.705H470.019C469.54 599.705 469.14 599.865 468.819 600.187C468.498 600.508 468.337 600.908 468.337 601.386C468.337 601.865 468.498 602.265 468.819 602.586C469.14 602.907 469.54 603.068 470.019 603.068H472.541V599.705ZM483.427 599.787C483.215 600.785 483.109 601.772 483.109 602.75C483.109 603.728 483.212 604.708 483.417 605.693C483.622 606.67 483.868 607.508 484.155 608.205C484.443 608.909 484.726 609.542 485.006 610.102C485.294 610.663 485.543 611.083 485.755 611.363L486.052 611.784L484.473 612.727C484.391 612.618 484.275 612.464 484.125 612.266C483.981 612.067 483.718 611.637 483.335 610.974C482.959 610.311 482.631 609.617 482.351 608.892C482.07 608.174 481.811 607.255 481.571 606.134C481.339 605.013 481.223 603.885 481.223 602.75C481.223 601.615 481.332 600.498 481.551 599.397C481.776 598.29 482.05 597.353 482.371 596.587C482.699 595.822 483.021 595.142 483.335 594.547C483.65 593.952 483.92 593.508 484.145 593.214L484.473 592.773L486.052 593.716C485.97 593.812 485.861 593.959 485.724 594.157C485.594 594.355 485.359 594.766 485.017 595.388C484.682 596.01 484.384 596.652 484.125 597.315C483.872 597.972 483.639 598.795 483.427 599.787ZM489.711 597.92V598.966L489.845 598.833C489.906 598.771 490.036 598.672 490.234 598.536C490.432 598.392 490.641 598.266 490.86 598.156C491.085 598.04 491.369 597.938 491.711 597.849C492.059 597.753 492.408 597.705 492.757 597.705C493.974 597.705 494.958 598.105 495.71 598.905C496.469 599.705 496.848 600.778 496.848 602.125V608H494.746V602.125C494.746 601.4 494.514 600.798 494.049 600.32C493.591 599.841 493.02 599.602 492.336 599.602C491.536 599.602 490.897 599.862 490.419 600.381C489.947 600.894 489.711 601.615 489.711 602.545V608H487.609V597.92H489.711ZM511.221 602.75V604.637H502.607V602.75H511.221ZM511.221 598.966V600.863H502.607V598.966H511.221ZM523.696 600.228C523.765 600.255 523.857 600.296 523.973 600.351C524.096 600.398 524.308 600.521 524.609 600.72C524.91 600.911 525.176 601.133 525.409 601.386C525.641 601.639 525.85 601.991 526.034 602.442C526.226 602.887 526.321 603.375 526.321 603.909C526.321 605.112 525.839 606.13 524.875 606.964C523.918 607.792 522.65 608.205 521.071 608.205C520.401 608.205 519.766 608.126 519.164 607.969C518.562 607.805 518.063 607.614 517.667 607.395C517.277 607.169 516.939 606.944 516.652 606.718C516.365 606.493 516.156 606.305 516.026 606.154L515.821 605.898L517.288 604.432C517.315 604.473 517.363 604.534 517.431 604.616C517.506 604.691 517.664 604.828 517.903 605.026C518.142 605.218 518.392 605.389 518.651 605.539C518.918 605.683 519.267 605.816 519.697 605.939C520.135 606.055 520.593 606.113 521.071 606.113C521.98 606.113 522.698 605.895 523.225 605.457C523.751 605.013 524.014 604.462 524.014 603.806C524.014 603.143 523.751 602.593 523.225 602.155C522.698 601.711 521.98 601.489 521.071 601.489H519.605V599.387H521.071C521.796 599.387 522.36 599.199 522.763 598.823C523.173 598.447 523.378 597.938 523.378 597.295C523.378 596.646 523.173 596.133 522.763 595.757C522.36 595.381 521.796 595.193 521.071 595.193C520.456 595.193 519.875 595.326 519.328 595.593C518.781 595.859 518.395 596.116 518.169 596.362L517.821 596.762L516.344 595.295C516.385 595.241 516.447 595.166 516.529 595.07C516.618 594.967 516.809 594.786 517.103 594.526C517.397 594.267 517.711 594.044 518.046 593.86C518.381 593.668 518.822 593.494 519.369 593.337C519.916 593.173 520.483 593.091 521.071 593.091C522.514 593.091 523.645 593.463 524.465 594.208C525.286 594.947 525.696 595.904 525.696 597.08C525.696 597.483 525.624 597.873 525.48 598.249C525.344 598.618 525.176 598.918 524.978 599.151C524.78 599.383 524.585 599.585 524.394 599.756C524.209 599.92 524.045 600.036 523.901 600.104L523.696 600.228ZM535.24 600.228C535.309 600.255 535.401 600.296 535.517 600.351C535.64 600.398 535.852 600.521 536.153 600.72C536.454 600.911 536.72 601.133 536.953 601.386C537.185 601.639 537.394 601.991 537.578 602.442C537.77 602.887 537.865 603.375 537.865 603.909C537.865 605.112 537.384 606.13 536.42 606.964C535.463 607.792 534.195 608.205 532.615 608.205C531.946 608.205 531.31 608.126 530.708 607.969C530.107 607.805 529.608 607.614 529.211 607.395C528.822 607.169 528.483 606.944 528.196 606.718C527.909 606.493 527.7 606.305 527.571 606.154L527.365 605.898L528.832 604.432C528.859 604.473 528.907 604.534 528.975 604.616C529.051 604.691 529.208 604.828 529.447 605.026C529.686 605.218 529.936 605.389 530.196 605.539C530.462 605.683 530.811 605.816 531.241 605.939C531.679 606.055 532.137 606.113 532.615 606.113C533.525 606.113 534.242 605.895 534.769 605.457C535.295 605.013 535.558 604.462 535.558 603.806C535.558 603.143 535.295 602.593 534.769 602.155C534.242 601.711 533.525 601.489 532.615 601.489H531.149V599.387H532.615C533.34 599.387 533.904 599.199 534.307 598.823C534.718 598.447 534.923 597.938 534.923 597.295C534.923 596.646 534.718 596.133 534.307 595.757C533.904 595.381 533.34 595.193 532.615 595.193C532 595.193 531.419 595.326 530.872 595.593C530.325 595.859 529.939 596.116 529.714 596.362L529.365 596.762L527.888 595.295C527.929 595.241 527.991 595.166 528.073 595.07C528.162 594.967 528.353 594.786 528.647 594.526C528.941 594.267 529.256 594.044 529.591 593.86C529.926 593.668 530.366 593.494 530.913 593.337C531.46 593.173 532.028 593.091 532.615 593.091C534.058 593.091 535.189 593.463 536.01 594.208C536.83 594.947 537.24 595.904 537.24 597.08C537.24 597.483 537.168 597.873 537.025 598.249C536.888 598.618 536.72 598.918 536.522 599.151C536.324 599.383 536.129 599.585 535.938 599.756C535.753 599.92 535.589 600.036 535.446 600.104L535.24 600.228ZM542.478 593.296H544.262V608H541.955V596.875H539.33V595.295C540.212 595.2 540.882 594.991 541.34 594.67C541.805 594.342 542.184 593.884 542.478 593.296ZM554.432 600.228C554.501 600.255 554.593 600.296 554.709 600.351C554.832 600.398 555.044 600.521 555.345 600.72C555.646 600.911 555.912 601.133 556.145 601.386C556.377 601.639 556.586 601.991 556.77 602.442C556.962 602.887 557.057 603.375 557.057 603.909C557.057 605.112 556.575 606.13 555.612 606.964C554.655 607.792 553.387 608.205 551.807 608.205C551.137 608.205 550.502 608.126 549.9 607.969C549.299 607.805 548.8 607.614 548.403 607.395C548.013 607.169 547.675 606.944 547.388 606.718C547.101 606.493 546.892 606.305 546.762 606.154L546.557 605.898L548.024 604.432C548.051 604.473 548.099 604.534 548.167 604.616C548.242 604.691 548.4 604.828 548.639 605.026C548.878 605.218 549.128 605.389 549.387 605.539C549.654 605.683 550.003 605.816 550.433 605.939C550.871 606.055 551.329 606.113 551.807 606.113C552.717 606.113 553.434 605.895 553.961 605.457C554.487 605.013 554.75 604.462 554.75 603.806C554.75 603.143 554.487 602.593 553.961 602.155C553.434 601.711 552.717 601.489 551.807 601.489H550.341V599.387H551.807C552.532 599.387 553.096 599.199 553.499 598.823C553.909 598.447 554.115 597.938 554.115 597.295C554.115 596.646 553.909 596.133 553.499 595.757C553.096 595.381 552.532 595.193 551.807 595.193C551.192 595.193 550.611 595.326 550.064 595.593C549.517 595.859 549.131 596.116 548.906 596.362L548.557 596.762L547.08 595.295C547.121 595.241 547.183 595.166 547.265 595.07C547.354 594.967 547.545 594.786 547.839 594.526C548.133 594.267 548.448 594.044 548.783 593.86C549.117 593.668 549.558 593.494 550.105 593.337C550.652 593.173 551.22 593.091 551.807 593.091C553.25 593.091 554.381 593.463 555.201 594.208C556.022 594.947 556.432 595.904 556.432 597.08C556.432 597.483 556.36 597.873 556.217 598.249C556.08 598.618 555.912 598.918 555.714 599.151C555.516 599.383 555.321 599.585 555.13 599.756C554.945 599.92 554.781 600.036 554.637 600.104L554.432 600.228ZM560.942 605.703C561.147 604.712 561.25 603.728 561.25 602.75C561.25 601.772 561.147 600.795 560.942 599.817C560.744 598.833 560.501 597.992 560.214 597.295C559.927 596.591 559.64 595.958 559.353 595.398C559.065 594.837 558.816 594.417 558.604 594.137L558.307 593.716L559.886 592.773C559.968 592.882 560.081 593.036 560.224 593.234C560.375 593.433 560.638 593.863 561.014 594.526C561.397 595.189 561.728 595.883 562.008 596.608C562.289 597.326 562.545 598.245 562.777 599.366C563.017 600.487 563.136 601.615 563.136 602.75C563.136 603.885 563.023 605.006 562.798 606.113C562.579 607.214 562.309 608.147 561.988 608.913C561.667 609.678 561.349 610.358 561.034 610.953C560.72 611.548 560.45 611.992 560.224 612.286L559.886 612.727L558.307 611.784C558.389 611.688 558.498 611.541 558.635 611.343C558.772 611.145 559.007 610.734 559.342 610.112C559.677 609.49 559.975 608.848 560.234 608.185C560.494 607.528 560.73 606.701 560.942 605.703Z" fill="#57585A"/>
<rect x="117" y="597" width="40" height="10" fill="#4965B0"/>
<path d="M187.591 655H185.284V644.397L177.091 655H175.102V640.296H177.409V650.909L185.602 640.296H187.591V655ZM192.727 650.796V655H190.625V644.92H192.727V648.909H197.659V644.92H199.761V655H197.659V650.796H192.727ZM203.215 653.636C202.169 652.597 201.646 651.374 201.646 649.965C201.646 648.55 202.166 647.32 203.205 646.274C204.251 645.228 205.481 644.705 206.896 644.705C207.682 644.705 208.414 644.876 209.09 645.218C209.767 645.553 210.252 645.888 210.546 646.223L210.987 646.705L209.624 648.068C209.555 647.959 209.449 647.826 209.306 647.668C209.169 647.504 208.865 647.286 208.393 647.012C207.928 646.739 207.429 646.602 206.896 646.602C206.042 646.602 205.3 646.927 204.671 647.576C204.049 648.226 203.738 649.022 203.738 649.965C203.738 650.902 204.049 651.695 204.671 652.344C205.3 652.994 206.042 653.318 206.896 653.318C207.429 653.318 207.928 653.185 208.393 652.918C208.865 652.652 209.203 652.392 209.408 652.139L209.726 651.75L211.09 653.113C211.049 653.168 210.987 653.247 210.905 653.349C210.823 653.445 210.646 653.612 210.372 653.852C210.099 654.084 209.812 654.292 209.511 654.477C209.21 654.655 208.82 654.822 208.342 654.979C207.863 655.13 207.381 655.205 206.896 655.205C205.481 655.205 204.254 654.682 203.215 653.636ZM214.851 646.807V655H212.749V644.92H221.886V655H219.784V646.807H214.851ZM229.749 655.205C229.373 655.205 229.007 655.161 228.651 655.072C228.296 654.983 227.992 654.874 227.739 654.744C227.486 654.607 227.26 654.47 227.062 654.333C226.871 654.19 226.731 654.077 226.642 653.995L226.498 653.841V659.409H224.396V644.92H226.498V646.079C226.594 645.983 226.727 645.857 226.898 645.7C227.076 645.542 227.448 645.337 228.016 645.084C228.583 644.832 229.161 644.705 229.749 644.705C231.082 644.705 232.237 645.218 233.214 646.243C234.199 647.262 234.691 648.499 234.691 649.955C234.691 651.411 234.199 652.652 233.214 653.677C232.237 654.696 231.082 655.205 229.749 655.205ZM231.666 647.586C231.051 646.93 230.343 646.602 229.544 646.602C228.744 646.602 228.036 646.93 227.421 647.586C226.806 648.243 226.498 649.036 226.498 649.965C226.498 650.888 226.806 651.678 227.421 652.334C228.036 652.99 228.744 653.318 229.544 653.318C230.343 653.318 231.051 652.99 231.666 652.334C232.281 651.678 232.589 650.888 232.589 649.965C232.589 649.036 232.281 648.243 231.666 647.586ZM244.646 655H242.544V653.954C242.516 653.981 242.469 654.026 242.4 654.087C242.339 654.149 242.209 654.251 242.011 654.395C241.819 654.532 241.611 654.658 241.385 654.774C241.16 654.884 240.876 654.983 240.534 655.072C240.192 655.161 239.847 655.205 239.498 655.205C238.473 655.205 237.622 654.908 236.945 654.313C236.268 653.718 235.93 653.038 235.93 652.272C235.93 651.445 236.19 650.751 236.709 650.191C237.236 649.63 237.953 649.275 238.863 649.125L242.544 648.489C242.544 647.956 242.346 647.508 241.949 647.146C241.559 646.783 241.057 646.602 240.442 646.602C239.909 646.602 239.423 646.715 238.986 646.94C238.555 647.159 238.258 647.381 238.094 647.607L237.817 647.966L236.453 646.602C236.494 646.547 236.549 646.479 236.617 646.397C236.692 646.308 236.853 646.158 237.099 645.946C237.352 645.727 237.619 645.532 237.899 645.361C238.179 645.19 238.548 645.04 239.006 644.91C239.471 644.773 239.95 644.705 240.442 644.705C241.672 644.705 242.681 645.071 243.467 645.802C244.253 646.527 244.646 647.422 244.646 648.489V655ZM239.816 653.318C240.671 653.318 241.337 653.065 241.816 652.56C242.301 652.047 242.544 651.319 242.544 650.375V650.17L239.283 650.693C238.907 650.762 238.603 650.916 238.37 651.155C238.138 651.394 238.022 651.695 238.022 652.057C238.022 652.392 238.182 652.686 238.504 652.939C238.832 653.192 239.269 653.318 239.816 653.318ZM256.918 648.284L258.713 651.534H257.031L255.452 648.591H254.088V651.534H252.509V643.762H255.77C256.494 643.762 257.113 644.011 257.626 644.51C258.138 645.009 258.395 645.601 258.395 646.284C258.395 646.715 258.272 647.101 258.026 647.443C257.779 647.778 257.537 648 257.297 648.109L256.918 648.284ZM254.088 645.238V647.125H255.77C256.077 647.125 256.327 647.036 256.518 646.858C256.716 646.674 256.816 646.448 256.816 646.182C256.816 645.915 256.716 645.693 256.518 645.515C256.327 645.331 256.077 645.238 255.77 645.238H254.088ZM259.553 651.955C260.743 650.765 261.338 649.33 261.338 647.648C261.338 645.966 260.739 644.531 259.543 643.341C258.354 642.152 256.918 641.557 255.236 641.557C253.562 641.557 252.13 642.152 250.94 643.341C249.751 644.531 249.156 645.966 249.156 647.648C249.156 649.33 249.751 650.765 250.94 651.955C252.13 653.144 253.562 653.739 255.236 653.739C256.918 653.739 258.357 653.144 259.553 651.955ZM260.774 642.285C262.264 643.748 263.009 645.536 263.009 647.648C263.009 649.76 262.264 651.548 260.774 653.011C259.283 654.474 257.438 655.205 255.236 655.205C253.042 655.205 251.2 654.474 249.71 653.011C248.219 651.548 247.474 649.76 247.474 647.648C247.474 645.536 248.219 643.748 249.71 642.285C251.2 640.822 253.042 640.091 255.236 640.091C257.438 640.091 259.283 640.822 260.774 642.285ZM274.449 653.534H272.665V649.75H268.881V647.863H272.665V644.08H274.449V647.863H278.222V649.75H274.449V653.534ZM284.72 653.636C283.674 652.597 283.151 651.374 283.151 649.965C283.151 648.55 283.671 647.32 284.71 646.274C285.756 645.228 286.986 644.705 288.401 644.705C289.187 644.705 289.919 644.876 290.595 645.218C291.272 645.553 291.758 645.888 292.051 646.223L292.492 646.705L291.129 648.068C291.06 647.959 290.954 647.826 290.811 647.668C290.674 647.504 290.37 647.286 289.898 647.012C289.433 646.739 288.934 646.602 288.401 646.602C287.547 646.602 286.805 646.927 286.176 647.576C285.554 648.226 285.243 649.022 285.243 649.965C285.243 650.902 285.554 651.695 286.176 652.344C286.805 652.994 287.547 653.318 288.401 653.318C288.934 653.318 289.433 653.185 289.898 652.918C290.37 652.652 290.708 652.392 290.913 652.139L291.231 651.75L292.595 653.113C292.554 653.168 292.492 653.247 292.41 653.349C292.328 653.445 292.151 653.612 291.877 653.852C291.604 654.084 291.317 654.292 291.016 654.477C290.715 654.655 290.325 654.822 289.847 654.979C289.368 655.13 288.886 655.205 288.401 655.205C286.986 655.205 285.759 654.682 284.72 653.636ZM293.208 646.807V644.92H302.232V646.807H298.766V655H296.674V646.807H293.208ZM311.777 655H309.675V653.954C309.647 653.981 309.599 654.026 309.531 654.087C309.469 654.149 309.34 654.251 309.141 654.395C308.95 654.532 308.741 654.658 308.516 654.774C308.29 654.884 308.007 654.983 307.665 655.072C307.323 655.161 306.978 655.205 306.629 655.205C305.604 655.205 304.753 654.908 304.076 654.313C303.399 653.718 303.061 653.038 303.061 652.272C303.061 651.445 303.321 650.751 303.84 650.191C304.366 649.63 305.084 649.275 305.993 649.125L309.675 648.489C309.675 647.956 309.476 647.508 309.08 647.146C308.69 646.783 308.188 646.602 307.573 646.602C307.039 646.602 306.554 646.715 306.116 646.94C305.686 647.159 305.388 647.381 305.224 647.607L304.948 647.966L303.584 646.602C303.625 646.547 303.679 646.479 303.748 646.397C303.823 646.308 303.984 646.158 304.23 645.946C304.483 645.727 304.749 645.532 305.03 645.361C305.31 645.19 305.679 645.04 306.137 644.91C306.602 644.773 307.08 644.705 307.573 644.705C308.803 644.705 309.811 645.071 310.597 645.802C311.384 646.527 311.777 647.422 311.777 648.489V655ZM306.947 653.318C307.802 653.318 308.468 653.065 308.947 652.56C309.432 652.047 309.675 651.319 309.675 650.375V650.17L306.414 650.693C306.038 650.762 305.734 650.916 305.501 651.155C305.269 651.394 305.153 651.695 305.153 652.057C305.153 652.392 305.313 652.686 305.635 652.939C305.963 653.192 306.4 653.318 306.947 653.318ZM316.389 650.796V655H314.287V644.92H316.389V648.909H321.321V644.92H323.423V655H321.321V650.796H316.389ZM324.468 653.113H325.196C325.237 653.072 325.295 653.007 325.37 652.918C325.452 652.823 325.589 652.614 325.78 652.293C325.978 651.972 326.149 651.626 326.293 651.257C326.443 650.881 326.576 650.389 326.693 649.781C326.816 649.172 326.877 648.533 326.877 647.863V644.92H334.229V653.113H335.696V657.522H333.604V655H326.57V657.522H324.468V653.113ZM328.979 646.807V647.863C328.979 648.533 328.921 649.169 328.805 649.771C328.696 650.372 328.555 650.871 328.385 651.268C328.22 651.657 328.053 651.996 327.882 652.283C327.718 652.57 327.581 652.775 327.472 652.898L327.298 653.113H332.127V646.807H328.979ZM345.466 655H343.364V653.954C343.336 653.981 343.289 654.026 343.22 654.087C343.159 654.149 343.029 654.251 342.831 654.395C342.639 654.532 342.431 654.658 342.205 654.774C341.98 654.884 341.696 654.983 341.354 655.072C341.012 655.161 340.667 655.205 340.318 655.205C339.293 655.205 338.442 654.908 337.765 654.313C337.088 653.718 336.75 653.038 336.75 652.272C336.75 651.445 337.01 650.751 337.529 650.191C338.056 649.63 338.773 649.275 339.683 649.125L343.364 648.489C343.364 647.956 343.166 647.508 342.769 647.146C342.379 646.783 341.877 646.602 341.262 646.602C340.729 646.602 340.243 646.715 339.806 646.94C339.375 647.159 339.078 647.381 338.914 647.607L338.637 647.966L337.273 646.602C337.314 646.547 337.369 646.479 337.437 646.397C337.512 646.308 337.673 646.158 337.919 645.946C338.172 645.727 338.439 645.532 338.719 645.361C338.999 645.19 339.368 645.04 339.826 644.91C340.291 644.773 340.77 644.705 341.262 644.705C342.492 644.705 343.501 645.071 344.287 645.802C345.073 646.527 345.466 647.422 345.466 648.489V655ZM340.636 653.318C341.491 653.318 342.157 653.065 342.636 652.56C343.121 652.047 343.364 651.319 343.364 650.375V650.17L340.103 650.693C339.727 650.762 339.423 650.916 339.19 651.155C338.958 651.394 338.842 651.695 338.842 652.057C338.842 652.392 339.003 652.686 339.324 652.939C339.652 653.192 340.089 653.318 340.636 653.318ZM353.329 655.205C352.953 655.205 352.587 655.161 352.232 655.072C351.876 654.983 351.572 654.874 351.319 654.744C351.066 654.607 350.841 654.47 350.642 654.333C350.451 654.19 350.311 654.077 350.222 653.995L350.078 653.841V659.409H347.976V644.92H350.078V646.079C350.174 645.983 350.307 645.857 350.478 645.7C350.656 645.542 351.029 645.337 351.596 645.084C352.163 644.832 352.741 644.705 353.329 644.705C354.662 644.705 355.817 645.218 356.795 646.243C357.779 647.262 358.271 648.499 358.271 649.955C358.271 651.411 357.779 652.652 356.795 653.677C355.817 654.696 354.662 655.205 353.329 655.205ZM355.246 647.586C354.631 646.93 353.924 646.602 353.124 646.602C352.324 646.602 351.617 646.93 351.001 647.586C350.386 648.243 350.078 649.036 350.078 649.965C350.078 650.888 350.386 651.678 351.001 652.334C351.617 652.99 352.324 653.318 353.124 653.318C353.924 653.318 354.631 652.99 355.246 652.334C355.862 651.678 356.169 650.888 356.169 649.965C356.169 649.036 355.862 648.243 355.246 647.586ZM359.09 646.807V644.92H368.113V646.807H364.648V655H362.556V646.807H359.09ZM371.67 650.796V655H369.568V644.92H371.67V648.909H376.602V644.92H378.704V655H376.602V650.796H371.67ZM389.305 655H387.203V653.954C387.175 653.981 387.128 654.026 387.059 654.087C386.998 654.149 386.868 654.251 386.67 654.395C386.478 654.532 386.27 654.658 386.044 654.774C385.818 654.884 385.535 654.983 385.193 655.072C384.851 655.161 384.506 655.205 384.157 655.205C383.132 655.205 382.281 654.908 381.604 654.313C380.927 653.718 380.589 653.038 380.589 652.272C380.589 651.445 380.849 650.751 381.368 650.191C381.895 649.63 382.612 649.275 383.522 649.125L387.203 648.489C387.203 647.956 387.005 647.508 386.608 647.146C386.218 646.783 385.716 646.602 385.101 646.602C384.568 646.602 384.082 646.715 383.645 646.94C383.214 647.159 382.917 647.381 382.753 647.607L382.476 647.966L381.112 646.602C381.153 646.547 381.208 646.479 381.276 646.397C381.351 646.308 381.512 646.158 381.758 645.946C382.011 645.727 382.277 645.532 382.558 645.361C382.838 645.19 383.207 645.04 383.665 644.91C384.13 644.773 384.609 644.705 385.101 644.705C386.331 644.705 387.339 645.071 388.126 645.802C388.912 646.527 389.305 647.422 389.305 648.489V655ZM384.475 653.318C385.33 653.318 385.996 653.065 386.475 652.56C386.96 652.047 387.203 651.319 387.203 650.375V650.17L383.942 650.693C383.566 650.762 383.262 650.916 383.029 651.155C382.797 651.394 382.681 651.695 382.681 652.057C382.681 652.392 382.841 652.686 383.163 652.939C383.491 653.192 383.928 653.318 384.475 653.318ZM395.179 644.92H399.793V655H397.701V651.852H395.496L393.497 655H391.19L393.394 651.534C393.34 651.521 393.265 651.49 393.169 651.442C393.08 651.394 392.923 651.288 392.697 651.124C392.472 650.953 392.27 650.758 392.092 650.54C391.921 650.321 391.761 650.02 391.61 649.637C391.467 649.248 391.395 648.831 391.395 648.386C391.395 647.381 391.74 646.554 392.431 645.905C393.128 645.249 394.044 644.92 395.179 644.92ZM397.701 646.705H395.179C394.7 646.705 394.3 646.865 393.979 647.187C393.658 647.508 393.497 647.908 393.497 648.386C393.497 648.865 393.658 649.265 393.979 649.586C394.3 649.907 394.7 650.068 395.179 650.068H397.701V646.705ZM405.019 646.807V644.92H414.042V646.807H410.577V655H408.485V646.807H405.019ZM424.838 650.693H416.963C417.072 651.404 417.421 652.02 418.009 652.539C418.604 653.059 419.308 653.318 420.121 653.318C420.709 653.318 421.256 653.185 421.762 652.918C422.275 652.652 422.637 652.392 422.849 652.139L423.167 651.75L424.53 653.113C424.489 653.168 424.425 653.247 424.336 653.349C424.254 653.445 424.072 653.612 423.792 653.852C423.512 654.084 423.215 654.292 422.9 654.477C422.586 654.655 422.176 654.822 421.67 654.979C421.171 655.13 420.655 655.205 420.121 655.205C418.693 655.205 417.459 654.682 416.42 653.636C415.387 652.583 414.871 651.322 414.871 649.853C414.871 648.438 415.374 647.228 416.379 646.223C417.39 645.211 418.6 644.705 420.009 644.705C421.424 644.705 422.599 645.177 423.536 646.12C424.479 647.057 424.951 648.232 424.951 649.647L424.838 650.693ZM420.009 646.5C419.25 646.5 418.611 646.725 418.091 647.176C417.578 647.621 417.233 648.198 417.055 648.909H422.89C422.767 648.198 422.449 647.621 421.936 647.176C421.424 646.725 420.781 646.5 420.009 646.5ZM432.168 655.205C431.792 655.205 431.426 655.161 431.071 655.072C430.715 654.983 430.411 654.874 430.158 654.744C429.905 654.607 429.68 654.47 429.481 654.333C429.29 654.19 429.15 654.077 429.061 653.995L428.917 653.841V659.409H426.815V644.92H428.917V646.079C429.013 645.983 429.146 645.857 429.317 645.7C429.495 645.542 429.868 645.337 430.435 645.084C431.002 644.832 431.58 644.705 432.168 644.705C433.501 644.705 434.656 645.218 435.634 646.243C436.618 647.262 437.11 648.499 437.11 649.955C437.11 651.411 436.618 652.652 435.634 653.677C434.656 654.696 433.501 655.205 432.168 655.205ZM434.085 647.586C433.47 646.93 432.763 646.602 431.963 646.602C431.163 646.602 430.456 646.93 429.84 647.586C429.225 648.243 428.917 649.036 428.917 649.965C428.917 650.888 429.225 651.678 429.84 652.334C430.456 652.99 431.163 653.318 431.963 653.318C432.763 653.318 433.47 652.99 434.085 652.334C434.701 651.678 435.008 650.888 435.008 649.965C435.008 649.036 434.701 648.243 434.085 647.586ZM447.065 655H444.963V653.954C444.936 653.981 444.888 654.026 444.82 654.087C444.758 654.149 444.628 654.251 444.43 654.395C444.239 654.532 444.03 654.658 443.804 654.774C443.579 654.884 443.295 654.983 442.953 655.072C442.612 655.161 442.266 655.205 441.918 655.205C440.892 655.205 440.041 654.908 439.365 654.313C438.688 653.718 438.349 653.038 438.349 652.272C438.349 651.445 438.609 650.751 439.129 650.191C439.655 649.63 440.373 649.275 441.282 649.125L444.963 648.489C444.963 647.956 444.765 647.508 444.368 647.146C443.979 646.783 443.476 646.602 442.861 646.602C442.328 646.602 441.843 646.715 441.405 646.94C440.974 647.159 440.677 647.381 440.513 647.607L440.236 647.966L438.872 646.602C438.913 646.547 438.968 646.479 439.036 646.397C439.112 646.308 439.272 646.158 439.518 645.946C439.771 645.727 440.038 645.532 440.318 645.361C440.598 645.19 440.968 645.04 441.426 644.91C441.89 644.773 442.369 644.705 442.861 644.705C444.092 644.705 445.1 645.071 445.886 645.802C446.672 646.527 447.065 647.422 447.065 648.489V655ZM442.236 653.318C443.09 653.318 443.757 653.065 444.235 652.56C444.72 652.047 444.963 651.319 444.963 650.375V650.17L441.702 650.693C441.326 650.762 441.022 650.916 440.79 651.155C440.557 651.394 440.441 651.695 440.441 652.057C440.441 652.392 440.602 652.686 440.923 652.939C441.251 653.192 441.689 653.318 442.236 653.318ZM451.678 646.807V655H449.576V644.92H458.712V655H456.61V646.807H451.678ZM468.575 644.92H470.461V655H468.359V648.386L463.109 655H461.222V644.92H463.325V651.534L468.575 644.92ZM476.335 644.92H480.949V655H478.857V651.852H476.653L474.653 655H472.346L474.551 651.534C474.496 651.521 474.421 651.49 474.325 651.442C474.236 651.394 474.079 651.288 473.854 651.124C473.628 650.953 473.426 650.758 473.249 650.54C473.078 650.321 472.917 650.02 472.767 649.637C472.623 649.248 472.551 648.831 472.551 648.386C472.551 647.381 472.897 646.554 473.587 645.905C474.284 645.249 475.2 644.92 476.335 644.92ZM478.857 646.705H476.335C475.857 646.705 475.457 646.865 475.135 647.187C474.814 647.508 474.653 647.908 474.653 648.386C474.653 648.865 474.814 649.265 475.135 649.586C475.457 649.907 475.857 650.068 476.335 650.068H478.857V646.705ZM489.744 646.787C489.532 647.785 489.426 648.772 489.426 649.75C489.426 650.728 489.528 651.708 489.734 652.693C489.939 653.67 490.185 654.508 490.472 655.205C490.759 655.909 491.043 656.542 491.323 657.102C491.61 657.663 491.859 658.083 492.071 658.363L492.369 658.784L490.79 659.727C490.708 659.618 490.591 659.464 490.441 659.266C490.297 659.067 490.034 658.637 489.651 657.974C489.276 657.311 488.947 656.617 488.667 655.892C488.387 655.174 488.127 654.255 487.888 653.134C487.655 652.013 487.539 650.885 487.539 649.75C487.539 648.615 487.649 647.498 487.867 646.397C488.093 645.29 488.366 644.353 488.688 643.587C489.016 642.822 489.337 642.142 489.651 641.547C489.966 640.952 490.236 640.508 490.462 640.214L490.79 639.773L492.369 640.716C492.287 640.812 492.177 640.959 492.041 641.157C491.911 641.355 491.675 641.766 491.333 642.388C490.998 643.01 490.701 643.652 490.441 644.315C490.188 644.972 489.956 645.795 489.744 646.787ZM496.028 644.92V645.966L496.161 645.833C496.223 645.771 496.352 645.672 496.551 645.536C496.749 645.392 496.957 645.266 497.176 645.156C497.402 645.04 497.685 644.938 498.027 644.849C498.376 644.753 498.724 644.705 499.073 644.705C500.29 644.705 501.274 645.105 502.026 645.905C502.785 646.705 503.164 647.778 503.164 649.125V655H501.062V649.125C501.062 648.4 500.83 647.798 500.365 647.32C499.907 646.841 499.336 646.602 498.653 646.602C497.853 646.602 497.214 646.862 496.735 647.381C496.264 647.894 496.028 648.615 496.028 649.545V655H493.926V644.92H496.028ZM517.537 649.75V651.637H508.924V649.75H517.537ZM517.537 645.966V647.863H508.924V645.966H517.537ZM530.013 647.228C530.081 647.255 530.173 647.296 530.29 647.351C530.413 647.398 530.624 647.521 530.925 647.72C531.226 647.911 531.493 648.133 531.725 648.386C531.957 648.639 532.166 648.991 532.351 649.442C532.542 649.887 532.638 650.375 532.638 650.909C532.638 652.112 532.156 653.13 531.192 653.964C530.235 654.792 528.967 655.205 527.388 655.205C526.718 655.205 526.082 655.126 525.48 654.969C524.879 654.805 524.38 654.614 523.983 654.395C523.594 654.169 523.255 653.944 522.968 653.718C522.681 653.493 522.473 653.305 522.343 653.154L522.138 652.898L523.604 651.432C523.631 651.473 523.679 651.534 523.748 651.616C523.823 651.691 523.98 651.828 524.219 652.026C524.458 652.218 524.708 652.389 524.968 652.539C525.234 652.683 525.583 652.816 526.014 652.939C526.451 653.055 526.909 653.113 527.388 653.113C528.297 653.113 529.015 652.895 529.541 652.457C530.067 652.013 530.331 651.462 530.331 650.806C530.331 650.143 530.067 649.593 529.541 649.155C529.015 648.711 528.297 648.489 527.388 648.489H525.921V646.387H527.388C528.112 646.387 528.676 646.199 529.08 645.823C529.49 645.447 529.695 644.938 529.695 644.295C529.695 643.646 529.49 643.133 529.08 642.757C528.676 642.381 528.112 642.193 527.388 642.193C526.772 642.193 526.191 642.326 525.645 642.593C525.098 642.859 524.711 643.116 524.486 643.362L524.137 643.762L522.661 642.295C522.702 642.241 522.763 642.166 522.845 642.07C522.934 641.967 523.125 641.786 523.419 641.526C523.713 641.267 524.028 641.044 524.363 640.86C524.698 640.668 525.139 640.494 525.686 640.337C526.232 640.173 526.8 640.091 527.388 640.091C528.83 640.091 529.961 640.463 530.782 641.208C531.602 641.947 532.012 642.904 532.012 644.08C532.012 644.483 531.94 644.873 531.797 645.249C531.66 645.618 531.493 645.918 531.294 646.151C531.096 646.383 530.901 646.585 530.71 646.756C530.525 646.92 530.361 647.036 530.218 647.104L530.013 647.228ZM541.557 647.228C541.625 647.255 541.718 647.296 541.834 647.351C541.957 647.398 542.169 647.521 542.469 647.72C542.77 647.911 543.037 648.133 543.269 648.386C543.502 648.639 543.71 648.991 543.895 649.442C544.086 649.887 544.182 650.375 544.182 650.909C544.182 652.112 543.7 653.13 542.736 653.964C541.779 654.792 540.511 655.205 538.932 655.205C538.262 655.205 537.626 655.126 537.025 654.969C536.423 654.805 535.924 654.614 535.528 654.395C535.138 654.169 534.8 653.944 534.512 653.718C534.225 653.493 534.017 653.305 533.887 653.154L533.682 652.898L535.148 651.432C535.176 651.473 535.223 651.534 535.292 651.616C535.367 651.691 535.524 651.828 535.763 652.026C536.003 652.218 536.252 652.389 536.512 652.539C536.779 652.683 537.127 652.816 537.558 652.939C537.995 653.055 538.453 653.113 538.932 653.113C539.841 653.113 540.559 652.895 541.085 652.457C541.612 652.013 541.875 651.462 541.875 650.806C541.875 650.143 541.612 649.593 541.085 649.155C540.559 648.711 539.841 648.489 538.932 648.489H537.466V646.387H538.932C539.656 646.387 540.22 646.199 540.624 645.823C541.034 645.447 541.239 644.938 541.239 644.295C541.239 643.646 541.034 643.133 540.624 642.757C540.22 642.381 539.656 642.193 538.932 642.193C538.317 642.193 537.736 642.326 537.189 642.593C536.642 642.859 536.256 643.116 536.03 643.362L535.681 643.762L534.205 642.295C534.246 642.241 534.307 642.166 534.389 642.07C534.478 641.967 534.67 641.786 534.964 641.526C535.258 641.267 535.572 641.044 535.907 640.86C536.242 640.668 536.683 640.494 537.23 640.337C537.777 640.173 538.344 640.091 538.932 640.091C540.374 640.091 541.506 640.463 542.326 641.208C543.146 641.947 543.556 642.904 543.556 644.08C543.556 644.483 543.485 644.873 543.341 645.249C543.204 645.618 543.037 645.918 542.839 646.151C542.64 646.383 542.446 646.585 542.254 646.756C542.07 646.92 541.906 647.036 541.762 647.104L541.557 647.228ZM548.794 640.296H550.579V655H548.271V643.875H545.646V642.295C546.528 642.2 547.198 641.991 547.656 641.67C548.121 641.342 548.5 640.884 548.794 640.296ZM558.544 650.17C557.273 650.17 556.148 649.671 555.171 648.673C554.2 647.668 553.715 646.486 553.715 645.125C553.715 643.751 554.224 642.569 555.242 641.578C556.268 640.586 557.509 640.091 558.965 640.091C560.421 640.091 561.658 640.59 562.677 641.588C563.702 642.579 564.215 643.758 564.215 645.125C564.215 645.686 564.116 646.247 563.917 646.807C563.726 647.368 563.531 647.788 563.333 648.068L558.862 655H556.545L559.805 649.955C559.457 650.099 559.036 650.17 558.544 650.17ZM556.729 642.972C556.121 643.574 555.817 644.295 555.817 645.136C555.817 645.97 556.121 646.684 556.729 647.279C557.338 647.874 558.083 648.171 558.965 648.171C559.846 648.171 560.592 647.874 561.2 647.279C561.808 646.684 562.113 645.97 562.113 645.136C562.113 644.295 561.808 643.577 561.2 642.982C560.592 642.381 559.846 642.08 558.965 642.08C558.083 642.08 557.338 642.377 556.729 642.972ZM568.099 652.703C568.304 651.712 568.407 650.728 568.407 649.75C568.407 648.772 568.304 647.795 568.099 646.817C567.901 645.833 567.658 644.992 567.371 644.295C567.084 643.591 566.797 642.958 566.51 642.398C566.223 641.837 565.973 641.417 565.761 641.137L565.464 640.716L567.043 639.773C567.125 639.882 567.238 640.036 567.381 640.234C567.532 640.433 567.795 640.863 568.171 641.526C568.554 642.189 568.885 642.883 569.166 643.608C569.446 644.326 569.702 645.245 569.935 646.366C570.174 647.487 570.294 648.615 570.294 649.75C570.294 650.885 570.181 652.006 569.955 653.113C569.736 654.214 569.466 655.147 569.145 655.913C568.824 656.678 568.506 657.358 568.191 657.953C567.877 658.548 567.607 658.992 567.381 659.286L567.043 659.727L565.464 658.784C565.546 658.688 565.655 658.541 565.792 658.343C565.929 658.145 566.165 657.734 566.5 657.112C566.835 656.49 567.132 655.848 567.392 655.185C567.651 654.528 567.887 653.701 568.099 652.703Z" fill="#57585A"/>
<rect x="117" y="644" width="40" height="10" fill="#F9A837"/>
</svg>
