<svg width="350" height="210" viewBox="0 0 350 210" fill="none" xmlns="http://www.w3.org/2000/svg">
<path d="M175 208.754L3.02309 81H30H31V80V1H319V80V81H320H346.977L175 208.754Z" fill="#2E55E2" fill-opacity="0.4" stroke="#2E55E2" stroke-width="2"/>
<path d="M94.4922 23.7969H99.2109C100.362 23.7969 101.315 24.1589 102.07 24.8828C102.831 25.6016 103.211 26.4948 103.211 27.5625C103.211 28.625 102.833 29.5182 102.078 30.2422C101.323 30.9609 100.367 31.3203 99.2109 31.3203H96.8984V35H94.4922V23.7969ZM99.1328 25.9609H96.8984V29.1562H99.1328C99.612 29.1562 100.01 29.0026 100.328 28.6953C100.651 28.388 100.812 28.0104 100.812 27.5625C100.812 27.1146 100.651 26.737 100.328 26.4297C100.01 26.1172 99.612 25.9609 99.1328 25.9609ZM110.445 27.1562H112.328V35H110.172V30.6016L106.758 35H104.891V27.1562H107.047V31.5625L110.445 27.1562ZM115.18 33.9297C114.341 33.1172 113.922 32.1667 113.922 31.0781C113.922 29.9896 114.341 29.0391 115.18 28.2266C116.018 27.4089 117.013 27 118.164 27C118.57 27 118.956 27.0573 119.32 27.1719C119.69 27.2812 119.992 27.4141 120.227 27.5703C120.461 27.7214 120.669 27.875 120.852 28.0312C121.034 28.1875 121.167 28.3229 121.25 28.4375L121.367 28.6016L120.008 29.9609C119.966 29.888 119.896 29.7917 119.797 29.6719C119.703 29.5521 119.495 29.3984 119.172 29.2109C118.854 29.0182 118.518 28.9219 118.164 28.9219C117.596 28.9219 117.107 29.1328 116.695 29.5547C116.289 29.9766 116.086 30.487 116.086 31.0859C116.086 31.6797 116.292 32.1875 116.703 32.6094C117.115 33.0312 117.602 33.2422 118.164 33.2422C118.518 33.2422 118.854 33.1562 119.172 32.9844C119.495 32.8125 119.729 32.6406 119.875 32.4688L120.086 32.2031L121.367 33.5625C121.336 33.6042 121.292 33.6641 121.234 33.7422C121.182 33.8151 121.057 33.9427 120.859 34.125C120.661 34.3021 120.448 34.4609 120.219 34.6016C119.99 34.737 119.69 34.8646 119.32 34.9844C118.956 35.099 118.57 35.1562 118.164 35.1562C117.013 35.1562 116.018 34.7474 115.18 33.9297ZM130.25 27.1562L127.289 30.5234L130.414 35H128.008L125.93 31.9609L124.969 33.0781V35H122.812V27.1562H124.969V30.3594L127.773 27.1562H130.25ZM140.414 27.1562V29.1562H136.891V35H134.734V27.1562H140.414ZM143.938 29.6016C143.557 30.0026 143.367 30.4974 143.367 31.0859C143.367 31.6693 143.557 32.1615 143.938 32.5625C144.318 32.9583 144.768 33.1562 145.289 33.1562C145.81 33.1562 146.26 32.9583 146.641 32.5625C147.021 32.1615 147.211 31.6693 147.211 31.0859C147.211 30.4974 147.021 30.0026 146.641 29.6016C146.26 29.2005 145.81 29 145.289 29C144.768 29 144.318 29.2005 143.938 29.6016ZM148.211 28.2188C149.034 29.0365 149.445 29.9896 149.445 31.0781C149.445 32.1667 149.031 33.1198 148.203 33.9375C147.38 34.75 146.409 35.1562 145.289 35.1562C144.169 35.1562 143.195 34.75 142.367 33.9375C141.539 33.1198 141.125 32.1667 141.125 31.0781C141.125 29.9896 141.539 29.0391 142.367 28.2266C143.195 27.4089 144.169 27 145.289 27C146.409 27 147.383 27.4062 148.211 28.2188ZM151.82 33.9297C150.982 33.1172 150.562 32.1667 150.562 31.0781C150.562 29.9896 150.982 29.0391 151.82 28.2266C152.659 27.4089 153.654 27 154.805 27C155.211 27 155.596 27.0573 155.961 27.1719C156.331 27.2812 156.633 27.4141 156.867 27.5703C157.102 27.7214 157.31 27.875 157.492 28.0312C157.674 28.1875 157.807 28.3229 157.891 28.4375L158.008 28.6016L156.648 29.9609C156.607 29.888 156.536 29.7917 156.438 29.6719C156.344 29.5521 156.135 29.3984 155.812 29.2109C155.495 29.0182 155.159 28.9219 154.805 28.9219C154.237 28.9219 153.747 29.1328 153.336 29.5547C152.93 29.9766 152.727 30.487 152.727 31.0859C152.727 31.6797 152.932 32.1875 153.344 32.6094C153.755 33.0312 154.242 33.2422 154.805 33.2422C155.159 33.2422 155.495 33.1562 155.812 32.9844C156.135 32.8125 156.37 32.6406 156.516 32.4688L156.727 32.2031L158.008 33.5625C157.977 33.6042 157.932 33.6641 157.875 33.7422C157.823 33.8151 157.698 33.9427 157.5 34.125C157.302 34.3021 157.089 34.4609 156.859 34.6016C156.63 34.737 156.331 34.8646 155.961 34.9844C155.596 35.099 155.211 35.1562 154.805 35.1562C153.654 35.1562 152.659 34.7474 151.82 33.9297ZM161.609 29.0781V35H159.453V27.1562H166.812V35H164.648V29.0781H161.609ZM174.445 27.1562H176.328V35H174.172V30.6016L170.758 35H168.891V27.1562H171.047V31.5625L174.445 27.1562ZM177.602 29.2422V27.1562H184.727V29.2422H182.242V35H180.086V29.2422H177.602ZM190.32 35V34.2031C190.258 34.276 190.169 34.3672 190.055 34.4766C189.945 34.5807 189.703 34.7214 189.328 34.8984C188.953 35.0703 188.562 35.1562 188.156 35.1562C187.375 35.1562 186.74 34.9401 186.25 34.5078C185.76 34.0703 185.516 33.5417 185.516 32.9219C185.516 32.2812 185.721 31.7474 186.133 31.3203C186.544 30.8932 187.112 30.6146 187.836 30.4844L190.32 30.0391C190.32 29.7109 190.201 29.4427 189.961 29.2344C189.721 29.026 189.388 28.9219 188.961 28.9219C188.607 28.9219 188.284 28.9896 187.992 29.125C187.701 29.2552 187.495 29.3906 187.375 29.5312L187.195 29.7188L186 28.5234C186.031 28.4818 186.073 28.4271 186.125 28.3594C186.182 28.2865 186.305 28.1641 186.492 27.9922C186.685 27.8203 186.893 27.6693 187.117 27.5391C187.341 27.4036 187.635 27.2812 188 27.1719C188.365 27.0573 188.737 27 189.117 27C190.107 27 190.914 27.2969 191.539 27.8906C192.164 28.4792 192.477 29.2214 192.477 30.1172V35H190.32ZM188.719 33.3984C189.208 33.3984 189.596 33.2448 189.883 32.9375C190.174 32.625 190.32 32.1927 190.32 31.6406V31.3984L188.562 31.7188C187.974 31.8125 187.68 32.1068 187.68 32.6016C187.68 33.1328 188.026 33.3984 188.719 33.3984ZM195.359 27.1562H201.68V35H199.523V29.0781H197.445V29.5625C197.445 31.026 197.32 32.1901 197.07 33.0547C196.826 33.9141 196.508 34.4948 196.117 34.7969C195.732 35.0938 195.24 35.2422 194.641 35.2422C194.448 35.2422 194.258 35.2188 194.07 35.1719C193.888 35.1302 193.753 35.0938 193.664 35.0625L193.523 35V33.0781C193.685 33.1302 193.844 33.1562 194 33.1562C194.318 33.1562 194.568 33.0755 194.75 32.9141C194.932 32.7474 195.078 32.3802 195.188 31.8125C195.302 31.2396 195.359 30.4089 195.359 29.3203V27.1562ZM209.32 27.1562H211.203V35H209.047V30.6016L205.633 35H203.766V27.1562H205.922V31.5625L209.32 27.1562ZM218.797 29.3203C218.797 29.5547 218.755 29.7708 218.672 29.9688C218.589 30.1667 218.482 30.3229 218.352 30.4375C218.227 30.5469 218.099 30.6432 217.969 30.7266C217.839 30.8047 217.732 30.8542 217.648 30.875L217.523 30.9219C217.565 30.9323 217.622 30.9505 217.695 30.9766C217.768 31.0026 217.896 31.0651 218.078 31.1641C218.26 31.2578 218.419 31.3724 218.555 31.5078C218.695 31.638 218.823 31.8203 218.938 32.0547C219.057 32.2891 219.117 32.5521 219.117 32.8438C219.117 33.4844 218.823 34.0312 218.234 34.4844C217.651 34.9323 216.826 35.1562 215.758 35.1562C215.341 35.1562 214.943 35.1068 214.562 35.0078C214.188 34.9089 213.878 34.7891 213.633 34.6484C213.388 34.5078 213.174 34.3698 212.992 34.2344C212.81 34.0938 212.682 33.9766 212.609 33.8828L212.477 33.7188L213.68 32.5234C213.721 32.5859 213.789 32.6667 213.883 32.7656C213.982 32.8594 214.19 32.9896 214.508 33.1562C214.831 33.3177 215.169 33.3984 215.523 33.3984C215.94 33.3984 216.255 33.3177 216.469 33.1562C216.688 32.9896 216.797 32.7786 216.797 32.5234C216.797 31.9922 216.372 31.724 215.523 31.7188H214.719V30.2812H215.523C215.867 30.2812 216.125 30.2161 216.297 30.0859C216.474 29.9505 216.562 29.776 216.562 29.5625C216.562 29.0312 216.216 28.763 215.523 28.7578C215.268 28.7578 215.005 28.8177 214.734 28.9375C214.469 29.0521 214.266 29.1745 214.125 29.3047L213.922 29.4766L212.719 28.2812C212.74 28.25 212.776 28.2057 212.828 28.1484C212.885 28.0859 213.005 27.9818 213.188 27.8359C213.375 27.6849 213.576 27.5547 213.789 27.4453C214.003 27.3307 214.289 27.2292 214.648 27.1406C215.008 27.0469 215.378 27 215.758 27C216.674 27 217.409 27.2292 217.961 27.6875C218.518 28.1458 218.797 28.6901 218.797 29.3203ZM225.039 35V34.2031C224.977 34.276 224.888 34.3672 224.773 34.4766C224.664 34.5807 224.422 34.7214 224.047 34.8984C223.672 35.0703 223.281 35.1562 222.875 35.1562C222.094 35.1562 221.458 34.9401 220.969 34.5078C220.479 34.0703 220.234 33.5417 220.234 32.9219C220.234 32.2812 220.44 31.7474 220.852 31.3203C221.263 30.8932 221.831 30.6146 222.555 30.4844L225.039 30.0391C225.039 29.7109 224.919 29.4427 224.68 29.2344C224.44 29.026 224.107 28.9219 223.68 28.9219C223.326 28.9219 223.003 28.9896 222.711 29.125C222.419 29.2552 222.214 29.3906 222.094 29.5312L221.914 29.7188L220.719 28.5234C220.75 28.4818 220.792 28.4271 220.844 28.3594C220.901 28.2865 221.023 28.1641 221.211 27.9922C221.404 27.8203 221.612 27.6693 221.836 27.5391C222.06 27.4036 222.354 27.2812 222.719 27.1719C223.083 27.0573 223.456 27 223.836 27C224.826 27 225.633 27.2969 226.258 27.8906C226.883 28.4792 227.195 29.2214 227.195 30.1172V35H225.039ZM223.438 33.3984C223.927 33.3984 224.315 33.2448 224.602 32.9375C224.893 32.625 225.039 32.1927 225.039 31.6406V31.3984L223.281 31.7188C222.693 31.8125 222.398 32.1068 222.398 32.6016C222.398 33.1328 222.745 33.3984 223.438 33.3984ZM229.281 35V27.1562H231.438V33.0781H234.242V27.1562H236.398V33.0781H237.438V36.8438H235.281V35H229.281ZM244.43 27.1562H246.312V35H244.156V30.6016L240.742 35H238.875V27.1562H241.031V31.5625L244.43 27.1562ZM253.945 27.1562H255.828V35H253.672V30.6016L250.258 35H248.391V27.1562H250.547V31.5625L253.945 27.1562ZM126.398 47.7578V54H124.797V46.3203H131.758V54H130.156V47.7578H126.398ZM139.211 51.9766C139.685 51.4818 139.922 50.8776 139.922 50.1641C139.922 49.4453 139.685 48.8385 139.211 48.3438C138.737 47.849 138.174 47.6016 137.523 47.6016C136.872 47.6016 136.307 47.849 135.828 48.3438C135.354 48.8385 135.117 49.4453 135.117 50.1641C135.117 50.8776 135.354 51.4818 135.828 51.9766C136.307 52.4714 136.872 52.7188 137.523 52.7188C138.174 52.7188 138.737 52.4714 139.211 51.9766ZM134.719 52.9609C133.922 52.1693 133.523 51.237 133.523 50.1641C133.523 49.0859 133.919 48.1484 134.711 47.3516C135.508 46.5547 136.445 46.1562 137.523 46.1562C138.602 46.1562 139.536 46.5547 140.328 47.3516C141.125 48.1484 141.523 49.0859 141.523 50.1641C141.523 51.237 141.125 52.1719 140.328 52.9688C139.536 53.7604 138.602 54.1562 137.523 54.1562C136.445 54.1562 135.51 53.7578 134.719 52.9609ZM148.086 47.7578V54H146.484V46.3203H153.445V54H151.844V47.7578H148.086ZM160.898 51.9766C161.372 51.4818 161.609 50.8776 161.609 50.1641C161.609 49.4453 161.372 48.8385 160.898 48.3438C160.424 47.849 159.862 47.6016 159.211 47.6016C158.56 47.6016 157.995 47.849 157.516 48.3438C157.042 48.8385 156.805 49.4453 156.805 50.1641C156.805 50.8776 157.042 51.4818 157.516 51.9766C157.995 52.4714 158.56 52.7188 159.211 52.7188C159.862 52.7188 160.424 52.4714 160.898 51.9766ZM156.406 52.9609C155.609 52.1693 155.211 51.237 155.211 50.1641C155.211 49.0859 155.607 48.1484 156.398 47.3516C157.195 46.5547 158.133 46.1562 159.211 46.1562C160.289 46.1562 161.224 46.5547 162.016 47.3516C162.812 48.1484 163.211 49.0859 163.211 50.1641C163.211 51.237 162.812 52.1719 162.016 52.9688C161.224 53.7604 160.289 54.1562 159.211 54.1562C158.133 54.1562 157.198 53.7578 156.406 52.9609ZM164.969 46.3203H168.648C169.383 46.3203 169.966 46.5104 170.398 46.8906C170.831 47.2656 171.047 47.7422 171.047 48.3203C171.047 48.6484 170.974 48.9479 170.828 49.2188C170.688 49.4844 170.542 49.6693 170.391 49.7734L170.172 49.9219C170.203 49.9323 170.247 49.9505 170.305 49.9766C170.362 50.0026 170.466 50.0703 170.617 50.1797C170.768 50.2839 170.898 50.401 171.008 50.5312C171.122 50.6562 171.224 50.8281 171.312 51.0469C171.406 51.2656 171.453 51.5026 171.453 51.7578C171.453 52.4193 171.216 52.9583 170.742 53.375C170.273 53.7917 169.63 54 168.812 54H164.969V46.3203ZM168.812 50.5625H166.57V52.6406H168.812C169.13 52.6406 169.383 52.5469 169.57 52.3594C169.758 52.1719 169.852 51.9193 169.852 51.6016C169.852 51.3151 169.755 51.0703 169.562 50.8672C169.37 50.6641 169.12 50.5625 168.812 50.5625ZM169.234 49.0625C169.38 48.9219 169.453 48.7292 169.453 48.4844C169.453 48.2344 169.38 48.0391 169.234 47.8984C169.089 47.7526 168.893 47.6797 168.648 47.6797H166.57V49.2812H168.648C168.893 49.2812 169.089 49.2083 169.234 49.0625ZM178.414 51.9766C178.888 51.4818 179.125 50.8776 179.125 50.1641C179.125 49.4453 178.888 48.8385 178.414 48.3438C177.94 47.849 177.378 47.6016 176.727 47.6016C176.076 47.6016 175.51 47.849 175.031 48.3438C174.557 48.8385 174.32 49.4453 174.32 50.1641C174.32 50.8776 174.557 51.4818 175.031 51.9766C175.51 52.4714 176.076 52.7188 176.727 52.7188C177.378 52.7188 177.94 52.4714 178.414 51.9766ZM173.922 52.9609C173.125 52.1693 172.727 51.237 172.727 50.1641C172.727 49.0859 173.122 48.1484 173.914 47.3516C174.711 46.5547 175.648 46.1562 176.727 46.1562C177.805 46.1562 178.74 46.5547 179.531 47.3516C180.328 48.1484 180.727 49.0859 180.727 50.1641C180.727 51.237 180.328 52.1719 179.531 52.9688C178.74 53.7604 177.805 54.1562 176.727 54.1562C175.648 54.1562 174.714 53.7578 173.922 52.9609ZM181.367 52.5625H181.922C181.953 52.5312 181.997 52.4818 182.055 52.4141C182.117 52.3411 182.221 52.1823 182.367 51.9375C182.518 51.6927 182.648 51.4297 182.758 51.1484C182.872 50.862 182.974 50.487 183.062 50.0234C183.156 49.5599 183.203 49.0729 183.203 48.5625V46.3203H188.805V52.5625H189.922V55.9219H188.328V54H182.969V55.9219H181.367V52.5625ZM184.805 47.7578V48.5625C184.805 49.0729 184.76 49.5573 184.672 50.0156C184.589 50.474 184.482 50.8542 184.352 51.1562C184.227 51.4531 184.099 51.7109 183.969 51.9297C183.844 52.1484 183.74 52.3047 183.656 52.3984L183.523 52.5625H187.203V47.7578H184.805ZM193.375 54.7969L193.695 54L190.57 46.3203H192.25L194.492 51.9219L196.734 46.3203H198.414L194.969 54.7969C194.573 55.7448 194.18 56.4089 193.789 56.7891C193.404 57.1693 192.919 57.3594 192.336 57.3594C192.122 57.3594 191.922 57.3464 191.734 57.3203C191.547 57.2943 191.409 57.2656 191.32 57.2344L191.211 57.2031V55.7578C191.477 55.862 191.745 55.9167 192.016 55.9219C192.625 55.9167 193.078 55.5417 193.375 54.7969ZM208.734 42.6406C209.302 42.6406 209.846 42.7161 210.367 42.8672C210.888 43.013 211.318 43.1927 211.656 43.4062C212 43.6198 212.299 43.8307 212.555 44.0391C212.81 44.2474 212.997 44.4271 213.117 44.5781L213.289 44.7969L212.172 45.9219C212.141 45.8802 212.094 45.8229 212.031 45.75C211.974 45.6719 211.839 45.5339 211.625 45.3359C211.411 45.138 211.182 44.9688 210.938 44.8281C210.693 44.6823 210.372 44.5495 209.977 44.4297C209.586 44.3047 209.172 44.2422 208.734 44.2422C207.573 44.2422 206.589 44.6458 205.781 45.4531C204.974 46.2552 204.57 47.237 204.57 48.3984C204.57 49.5599 204.971 50.5443 205.773 51.3516C206.581 52.1589 207.568 52.5625 208.734 52.5625C209.172 52.5625 209.589 52.5026 209.984 52.3828C210.385 52.2578 210.716 52.1094 210.977 51.9375C211.242 51.7656 211.474 51.5964 211.672 51.4297C211.875 51.2578 212.026 51.112 212.125 50.9922L212.25 50.7969L213.375 51.9219C213.333 51.9844 213.268 52.0677 213.18 52.1719C213.096 52.2708 212.906 52.4479 212.609 52.7031C212.318 52.9583 212.005 53.1849 211.672 53.3828C211.344 53.5807 210.911 53.7604 210.375 53.9219C209.844 54.0781 209.297 54.1562 208.734 54.1562C207.057 54.1562 205.651 53.599 204.516 52.4844C203.38 51.3698 202.812 50.0078 202.812 48.3984C202.812 46.7891 203.38 45.4271 204.516 44.3125C205.651 43.1979 207.057 42.6406 208.734 42.6406ZM224.648 42.7969V54H222.891V49.1172H217.367V54H215.609V42.7969H217.367V47.5234H222.891V42.7969H224.648Z" fill="white"/>
<path d="M136.727 111.688V116H119.922V111.688H136.727ZM162.156 116.469H166.469V121.273H162.156V128H156.859V121.273H140.547V115.531L155.43 94.3906H162.156V116.469ZM156.859 116.469V100.391L145.586 116.469H156.859ZM192.156 128H169.844C169.844 125.922 170.156 124.039 170.781 122.352C171.406 120.648 172.219 119.234 173.219 118.109C174.234 116.984 175.344 115.953 176.547 115.016C177.766 114.078 178.977 113.227 180.18 112.461C181.383 111.68 182.484 110.914 183.484 110.164C184.5 109.414 185.32 108.539 185.945 107.539C186.57 106.523 186.883 105.422 186.883 104.234C186.883 102.531 186.352 101.188 185.289 100.203C184.242 99.2188 182.773 98.7266 180.883 98.7266C179.961 98.7266 179.094 98.8984 178.281 99.2422C177.484 99.5703 176.859 99.9688 176.406 100.438C175.969 100.891 175.578 101.352 175.234 101.82C174.906 102.289 174.68 102.695 174.555 103.039L174.391 103.531L170.078 101.609C170.141 101.391 170.227 101.109 170.336 100.766C170.461 100.422 170.789 99.8125 171.32 98.9375C171.867 98.0625 172.5 97.2891 173.219 96.6172C173.938 95.9453 174.977 95.3281 176.336 94.7656C177.695 94.2031 179.211 93.9219 180.883 93.9219C184.18 93.9219 186.883 94.9141 188.992 96.8984C191.102 98.8828 192.156 101.328 192.156 104.234C192.156 105.766 191.844 107.188 191.219 108.5C190.594 109.812 189.797 110.914 188.828 111.805C187.875 112.68 186.773 113.586 185.523 114.523C184.289 115.445 183.086 116.289 181.914 117.055C180.742 117.82 179.586 118.742 178.445 119.82C177.32 120.883 176.453 122.008 175.844 123.195H192.156V128ZM210.109 96.1016C211.594 97.5547 212.336 99.3047 212.336 101.352C212.336 103.398 211.594 105.156 210.109 106.625C208.625 108.078 206.805 108.805 204.648 108.805C202.508 108.805 200.695 108.078 199.211 106.625C197.727 105.156 196.984 103.398 196.984 101.352C196.984 99.3047 197.727 97.5547 199.211 96.1016C200.695 94.6484 202.508 93.9219 204.648 93.9219C206.805 93.9219 208.625 94.6484 210.109 96.1016ZM201.93 98.6328C201.195 99.3672 200.828 100.281 200.828 101.375C200.828 102.453 201.195 103.359 201.93 104.094C202.664 104.828 203.57 105.195 204.648 105.195C205.742 105.195 206.656 104.828 207.391 104.094C208.125 103.359 208.492 102.453 208.492 101.375C208.492 100.281 208.125 99.3672 207.391 98.6328C206.656 97.8984 205.742 97.5312 204.648 97.5312C203.57 97.5312 202.664 97.8984 201.93 98.6328ZM200.828 128L221.945 94.3906H226.258L205.141 128H200.828ZM216.977 126.289C215.492 124.836 214.75 123.086 214.75 121.039C214.75 118.992 215.492 117.242 216.977 115.789C218.461 114.336 220.273 113.609 222.414 113.609C224.57 113.609 226.391 114.336 227.875 115.789C229.359 117.242 230.102 118.992 230.102 121.039C230.102 123.086 229.359 124.836 227.875 126.289C226.391 127.742 224.57 128.469 222.414 128.469C220.273 128.469 218.461 127.742 216.977 126.289ZM225.156 123.781C225.891 123.047 226.258 122.133 226.258 121.039C226.258 119.945 225.891 119.031 225.156 118.297C224.422 117.562 223.508 117.195 222.414 117.195C221.336 117.195 220.43 117.562 219.695 118.297C218.961 119.031 218.594 119.945 218.594 121.039C218.594 122.133 218.961 123.047 219.695 123.781C220.43 124.516 221.336 124.883 222.414 124.883C223.508 124.883 224.422 124.516 225.156 123.781Z" fill="white"/>
</svg>
