<svg width="292" height="77" viewBox="0 0 292 77" fill="none" xmlns="http://www.w3.org/2000/svg">
<path d="M126 39C126 44.799 121.299 49.5 115.5 49.5C109.701 49.5 105 44.799 105 39C105 33.201 109.701 28.5 115.5 28.5C121.299 28.5 126 33.201 126 39Z" fill="#38BEBD" stroke="white"/>
<path d="M198 39C198 44.799 193.299 49.5 187.5 49.5C181.701 49.5 177 44.799 177 39C177 33.201 181.701 28.5 187.5 28.5C193.299 28.5 198 33.201 198 39Z" fill="#EDC41F" stroke="white"/>
<path d="M270 39C270 44.799 265.299 49.5 259.5 49.5C253.701 49.5 249 44.799 249 39C249 33.201 253.701 28.5 259.5 28.5C265.299 28.5 270 33.201 270 39Z" fill="#32AD28" stroke="white"/>
<path d="M54 39C54 44.799 49.299 49.5 43.5 49.5C37.701 49.5 33 44.799 33 39C33 33.201 37.701 28.5 43.5 28.5C49.299 28.5 54 33.201 54 39Z" fill="#D73030" stroke="white"/>
<path d="M134.077 6.02246L130.153 11.1973L126.236 6.02246V14H125.184V4.19727H126.093L130.153 9.52246L134.214 4.19727H135.123V14H134.077V6.02246ZM142.684 7.28027H143.524V14H142.54V8.96191L138.479 14H137.646V7.28027H138.623V12.3184L142.684 7.28027ZM150.593 14V11.0605H146.744V14H145.767V7.28027H146.744V10.1514H150.593V7.28027H151.577V14H150.593ZM159.767 11.0059L154.305 10.9922C154.341 11.5983 154.59 12.1224 155.05 12.5645C155.515 13.0065 156.059 13.2275 156.684 13.2275C157.103 13.2275 157.493 13.1341 157.853 12.9473C158.213 12.7604 158.468 12.5736 158.618 12.3867L158.857 12.1133L159.486 12.7422C159.459 12.7786 159.418 12.8311 159.363 12.8994C159.313 12.9632 159.199 13.0749 159.021 13.2344C158.848 13.3893 158.659 13.5283 158.454 13.6514C158.254 13.7699 157.992 13.8815 157.668 13.9863C157.349 14.0866 157.021 14.1367 156.684 14.1367C155.768 14.1367 154.979 13.7972 154.318 13.1182C153.658 12.4346 153.327 11.6074 153.327 10.6367C153.327 9.66602 153.653 8.84115 154.305 8.16211C154.961 7.47852 155.731 7.13672 156.615 7.13672C157.531 7.13672 158.297 7.45573 158.912 8.09375C159.527 8.72721 159.835 9.5293 159.835 10.5L159.767 11.0059ZM158.126 8.64746C157.707 8.25098 157.203 8.05273 156.615 8.05273C156.027 8.05273 155.515 8.26009 155.077 8.6748C154.64 9.08952 154.382 9.58171 154.305 10.1514H158.857C158.785 9.54525 158.541 9.04395 158.126 8.64746ZM163.301 8.8252C162.809 9.34473 162.562 9.95085 162.562 10.6436C162.562 11.3317 162.806 11.9355 163.294 12.4551C163.786 12.9701 164.335 13.2275 164.941 13.2275C165.52 13.2275 166.037 12.9769 166.493 12.4756C166.953 11.9697 167.184 11.359 167.184 10.6436C167.184 9.9235 166.953 9.31283 166.493 8.81152C166.037 8.30566 165.52 8.05273 164.941 8.05273C164.335 8.05273 163.788 8.31022 163.301 8.8252ZM162.562 12.9473V16.9395H161.585V7.28027H162.562V8.33301C162.581 8.30566 162.613 8.26465 162.658 8.20996C162.708 8.15072 162.806 8.05273 162.952 7.91602C163.103 7.7793 163.264 7.65853 163.438 7.55371C163.611 7.44434 163.832 7.34863 164.101 7.2666C164.374 7.18001 164.654 7.13672 164.941 7.13672C165.798 7.13672 166.548 7.48079 167.19 8.16895C167.838 8.8571 168.161 9.68197 168.161 10.6436C168.161 11.6006 167.84 12.4232 167.197 13.1113C166.555 13.7949 165.803 14.1367 164.941 14.1367C164.654 14.1367 164.376 14.0957 164.107 14.0137C163.843 13.9316 163.62 13.8337 163.438 13.7197C163.255 13.6058 163.096 13.4919 162.959 13.3779C162.827 13.2594 162.727 13.1592 162.658 13.0771L162.562 12.9473ZM171.381 10.1514L173.972 9.72754C173.972 9.23079 173.814 8.82747 173.5 8.51758C173.186 8.20768 172.782 8.05273 172.29 8.05273C171.935 8.05273 171.6 8.13477 171.285 8.29883C170.975 8.45833 170.75 8.6224 170.608 8.79102L170.396 9.03027L169.768 8.40137C169.795 8.36491 169.831 8.31934 169.877 8.26465C169.927 8.2054 170.032 8.10514 170.191 7.96387C170.355 7.81803 170.526 7.68815 170.704 7.57422C170.882 7.46029 171.114 7.36003 171.401 7.27344C171.693 7.18229 171.989 7.13672 172.29 7.13672C173.056 7.13672 173.689 7.38509 174.19 7.88184C174.696 8.37858 174.949 8.99382 174.949 9.72754V14H173.972V13.0908C173.953 13.1182 173.924 13.1569 173.883 13.207C173.846 13.2526 173.76 13.3369 173.623 13.46C173.491 13.5785 173.347 13.6855 173.192 13.7812C173.037 13.8724 172.832 13.9544 172.577 14.0273C172.326 14.1003 172.067 14.1367 171.798 14.1367C171.128 14.1367 170.563 13.9385 170.103 13.542C169.647 13.1455 169.419 12.6921 169.419 12.1816C169.419 11.6211 169.588 11.1699 169.925 10.8281C170.262 10.4818 170.747 10.2562 171.381 10.1514ZM171.798 13.2275C172.431 13.2275 172.951 13.0202 173.356 12.6055C173.767 12.1908 173.972 11.653 173.972 10.9922V10.5684L171.661 10.9922C170.823 11.1517 170.401 11.5482 170.396 12.1816C170.396 12.4824 170.52 12.7331 170.766 12.9336C171.016 13.1296 171.36 13.2275 171.798 13.2275ZM177.882 7.28027H182.783V14H181.799V8.18945H178.859V9.24219C178.859 10.2311 178.809 11.056 178.709 11.7168C178.613 12.373 178.467 12.8743 178.271 13.2207C178.076 13.5625 177.859 13.8018 177.622 13.9385C177.385 14.0706 177.098 14.1367 176.761 14.1367C176.647 14.1367 176.531 14.1253 176.412 14.1025C176.298 14.0798 176.214 14.0547 176.159 14.0273L176.063 14V13.0225C176.25 13.1136 176.437 13.1592 176.624 13.1592C176.911 13.1592 177.137 13.0771 177.301 12.9131C177.465 12.749 177.602 12.3708 177.711 11.7783C177.825 11.1859 177.882 10.3405 177.882 9.24219V7.28027ZM189.688 12.4756C190.166 11.9788 190.405 11.3682 190.405 10.6436C190.405 9.91439 190.164 9.30143 189.681 8.80469C189.202 8.30339 188.626 8.05273 187.951 8.05273C187.281 8.05273 186.705 8.30339 186.222 8.80469C185.743 9.30143 185.504 9.91211 185.504 10.6367C185.504 11.3568 185.743 11.9697 186.222 12.4756C186.705 12.9769 187.281 13.2275 187.951 13.2275C188.626 13.2275 189.204 12.9769 189.688 12.4756ZM185.531 13.125C184.861 12.4505 184.526 11.6234 184.526 10.6436C184.526 9.65918 184.859 8.82975 185.524 8.15527C186.194 7.47624 187.006 7.13672 187.958 7.13672C188.91 7.13672 189.719 7.47624 190.385 8.15527C191.05 8.82975 191.383 9.65918 191.383 10.6436C191.383 11.6234 191.05 12.4505 190.385 13.125C189.719 13.7995 188.91 14.1367 187.958 14.1367C187.006 14.1367 186.197 13.7995 185.531 13.125ZM192.299 8.18945V7.28027H198.034V8.18945H195.655V14H194.678V8.18945H192.299ZM204.111 12.4756C204.59 11.9788 204.829 11.3682 204.829 10.6436C204.829 9.91439 204.588 9.30143 204.104 8.80469C203.626 8.30339 203.049 8.05273 202.375 8.05273C201.705 8.05273 201.129 8.30339 200.646 8.80469C200.167 9.30143 199.928 9.91211 199.928 10.6367C199.928 11.3568 200.167 11.9697 200.646 12.4756C201.129 12.9769 201.705 13.2275 202.375 13.2275C203.049 13.2275 203.628 12.9769 204.111 12.4756ZM199.955 13.125C199.285 12.4505 198.95 11.6234 198.95 10.6436C198.95 9.65918 199.283 8.82975 199.948 8.15527C200.618 7.47624 201.429 7.13672 202.382 7.13672C203.334 7.13672 204.143 7.47624 204.809 8.15527C205.474 8.82975 205.807 9.65918 205.807 10.6436C205.807 11.6234 205.474 12.4505 204.809 13.125C204.143 13.7995 203.334 14.1367 202.382 14.1367C201.429 14.1367 200.62 13.7995 199.955 13.125ZM208.541 12.1133V14H207.563V7.28027H208.541V10.8486L211.897 7.28027H213.094L210.503 10.0078L213.374 14H212.253L209.874 10.7119L208.541 12.1133ZM214.844 13.1113C214.183 12.4323 213.853 11.6074 213.853 10.6367C213.853 9.66602 214.183 8.84115 214.844 8.16211C215.509 7.47852 216.298 7.13672 217.209 7.13672C217.733 7.13672 218.221 7.25065 218.672 7.47852C219.128 7.70182 219.453 7.92513 219.649 8.14844L219.943 8.46973L219.239 9.16699C219.221 9.13965 219.194 9.10091 219.157 9.05078C219.121 9.00065 219.039 8.90951 218.911 8.77734C218.788 8.64518 218.654 8.53125 218.508 8.43555C218.362 8.33529 218.173 8.24642 217.94 8.16895C217.708 8.09147 217.464 8.05273 217.209 8.05273C216.566 8.05273 216.008 8.30339 215.534 8.80469C215.065 9.30143 214.83 9.91439 214.83 10.6436C214.83 11.3682 215.065 11.9811 215.534 12.4824C216.008 12.9792 216.566 13.2275 217.209 13.2275C217.601 13.2275 217.972 13.1341 218.323 12.9473C218.674 12.7604 218.929 12.5736 219.089 12.3867L219.314 12.1133L220.012 12.7422C219.984 12.7786 219.941 12.8311 219.882 12.8994C219.827 12.9632 219.709 13.0749 219.526 13.2344C219.344 13.3893 219.153 13.5283 218.952 13.6514C218.752 13.7699 218.492 13.8815 218.173 13.9863C217.858 14.0866 217.537 14.1367 217.209 14.1367C216.293 14.1367 215.505 13.7949 214.844 13.1113ZM222.527 12.1133V14H221.55V7.28027H222.527V10.8486L225.884 7.28027H227.08L224.489 10.0078L227.36 14H226.239L223.86 10.7119L222.527 12.1133ZM233 12.4756C233.479 11.9788 233.718 11.3682 233.718 10.6436C233.718 9.91439 233.476 9.30143 232.993 8.80469C232.515 8.30339 231.938 8.05273 231.264 8.05273C230.594 8.05273 230.017 8.30339 229.534 8.80469C229.056 9.30143 228.816 9.91211 228.816 10.6367C228.816 11.3568 229.056 11.9697 229.534 12.4756C230.017 12.9769 230.594 13.2275 231.264 13.2275C231.938 13.2275 232.517 12.9769 233 12.4756ZM228.844 13.125C228.174 12.4505 227.839 11.6234 227.839 10.6436C227.839 9.65918 228.172 8.82975 228.837 8.15527C229.507 7.47624 230.318 7.13672 231.271 7.13672C232.223 7.13672 233.032 7.47624 233.697 8.15527C234.363 8.82975 234.695 9.65918 234.695 10.6436C234.695 11.6234 234.363 12.4505 233.697 13.125C233.032 13.7995 232.223 14.1367 231.271 14.1367C230.318 14.1367 229.509 13.7995 228.844 13.125ZM241.49 7.28027H242.331V14H241.347V8.96191L237.286 14H236.452V7.28027H237.43V12.3184L241.49 7.28027ZM250.801 13.0908V15.6816H249.823V14H244.43V15.6816H243.452V13.0908H243.938C243.965 13.0635 244.006 13.0179 244.061 12.9541C244.12 12.8857 244.218 12.7354 244.354 12.5029C244.491 12.2705 244.612 12.0199 244.717 11.751C244.826 11.4775 244.922 11.1152 245.004 10.6641C245.09 10.2083 245.134 9.73438 245.134 9.24219V7.28027H249.748V13.0908H250.801ZM246.111 8.18945V9.24219C246.111 10.0078 246.018 10.7096 245.831 11.3477C245.644 11.9857 245.457 12.4368 245.271 12.7012L244.99 13.0908H248.771V8.18945H246.111Z" fill="white"/>
<path d="M234.474 70.2881L232.587 65.667L230.693 70.2881H234.474ZM234.897 71.2725H230.276L229.155 74H228.034L232.095 64.1973H233.072L237.133 74H236.019L234.897 71.2725ZM243.367 74V71.0605H239.519V74H238.541V67.2803H239.519V70.1514H243.367V67.2803H244.352V74H243.367ZM252.821 73.0908V75.6816H251.844V74H246.45V75.6816H245.473V73.0908H245.958C245.985 73.0635 246.026 73.0179 246.081 72.9541C246.14 72.8857 246.238 72.7354 246.375 72.5029C246.512 72.2705 246.632 72.0199 246.737 71.751C246.847 71.4775 246.942 71.1152 247.024 70.6641C247.111 70.2083 247.154 69.7344 247.154 69.2422V67.2803H251.769V73.0908H252.821ZM248.132 68.1895V69.2422C248.132 70.0078 248.038 70.7096 247.852 71.3477C247.665 71.9857 247.478 72.4368 247.291 72.7012L247.011 73.0908H250.791V68.1895H248.132ZM256.075 68.8252C255.583 69.3447 255.337 69.9508 255.337 70.6436C255.337 71.3317 255.581 71.9355 256.068 72.4551C256.561 72.9701 257.11 73.2275 257.716 73.2275C258.295 73.2275 258.812 72.9769 259.268 72.4756C259.728 71.9697 259.958 71.359 259.958 70.6436C259.958 69.9235 259.728 69.3128 259.268 68.8115C258.812 68.3057 258.295 68.0527 257.716 68.0527C257.11 68.0527 256.563 68.3102 256.075 68.8252ZM255.337 72.9473V76.9395H254.359V67.2803H255.337V68.333C255.355 68.3057 255.387 68.2646 255.433 68.21C255.483 68.1507 255.581 68.0527 255.727 67.916C255.877 67.7793 256.039 67.6585 256.212 67.5537C256.385 67.4443 256.606 67.3486 256.875 67.2666C257.148 67.18 257.429 67.1367 257.716 67.1367C258.573 67.1367 259.322 67.4808 259.965 68.1689C260.612 68.8571 260.936 69.682 260.936 70.6436C260.936 71.6006 260.614 72.4232 259.972 73.1113C259.329 73.7949 258.577 74.1367 257.716 74.1367C257.429 74.1367 257.151 74.0957 256.882 74.0137C256.618 73.9316 256.394 73.8337 256.212 73.7197C256.03 73.6058 255.87 73.4919 255.733 73.3779C255.601 73.2594 255.501 73.1592 255.433 73.0771L255.337 72.9473ZM267.354 72.4756C267.833 71.9788 268.072 71.3682 268.072 70.6436C268.072 69.9144 267.831 69.3014 267.348 68.8047C266.869 68.3034 266.293 68.0527 265.618 68.0527C264.948 68.0527 264.372 68.3034 263.889 68.8047C263.41 69.3014 263.171 69.9121 263.171 70.6367C263.171 71.3568 263.41 71.9697 263.889 72.4756C264.372 72.9769 264.948 73.2275 265.618 73.2275C266.293 73.2275 266.871 72.9769 267.354 72.4756ZM263.198 73.125C262.528 72.4505 262.193 71.6234 262.193 70.6436C262.193 69.6592 262.526 68.8298 263.191 68.1553C263.861 67.4762 264.673 67.1367 265.625 67.1367C266.577 67.1367 267.386 67.4762 268.052 68.1553C268.717 68.8298 269.05 69.6592 269.05 70.6436C269.05 71.6234 268.717 72.4505 268.052 73.125C267.386 73.7995 266.577 74.1367 265.625 74.1367C264.673 74.1367 263.864 73.7995 263.198 73.125ZM275.284 67.2803V68.1895H271.784V74H270.807V67.2803H275.284ZM282.496 71.0059L277.034 70.9922C277.071 71.5983 277.319 72.1224 277.779 72.5645C278.244 73.0065 278.789 73.2275 279.413 73.2275C279.832 73.2275 280.222 73.1341 280.582 72.9473C280.942 72.7604 281.197 72.5736 281.348 72.3867L281.587 72.1133L282.216 72.7422C282.188 72.7786 282.147 72.8311 282.093 72.8994C282.043 72.9632 281.929 73.0749 281.751 73.2344C281.578 73.3893 281.389 73.5283 281.184 73.6514C280.983 73.7699 280.721 73.8815 280.397 73.9863C280.078 74.0866 279.75 74.1367 279.413 74.1367C278.497 74.1367 277.709 73.7972 277.048 73.1182C276.387 72.4346 276.057 71.6074 276.057 70.6367C276.057 69.666 276.382 68.8411 277.034 68.1621C277.69 67.4785 278.461 67.1367 279.345 67.1367C280.261 67.1367 281.026 67.4557 281.642 68.0938C282.257 68.7272 282.564 69.5293 282.564 70.5L282.496 71.0059ZM280.855 68.6475C280.436 68.251 279.933 68.0527 279.345 68.0527C278.757 68.0527 278.244 68.2601 277.807 68.6748C277.369 69.0895 277.112 69.5817 277.034 70.1514H281.587C281.514 69.5452 281.27 69.0439 280.855 68.6475ZM289.141 74V71.0605H285.292V74H284.314V67.2803H285.292V70.1514H289.141V67.2803H290.125V74H289.141Z" fill="white"/>
<path d="M70.082 74V64.1973H76.1729V65.1816H71.1348V74H70.082ZM76.9385 67.2803H81.8398V74H80.8555V68.1895H77.916V69.2422C77.916 70.2311 77.8659 71.056 77.7656 71.7168C77.6699 72.373 77.5241 72.8743 77.3281 73.2207C77.1322 73.5625 76.9157 73.8018 76.6787 73.9385C76.4417 74.0706 76.1546 74.1367 75.8174 74.1367C75.7035 74.1367 75.5872 74.1253 75.4688 74.1025C75.3548 74.0798 75.2705 74.0547 75.2158 74.0273L75.1201 74V73.0225C75.307 73.1136 75.4938 73.1592 75.6807 73.1592C75.9678 73.1592 76.1934 73.0771 76.3574 72.9131C76.5215 72.749 76.6582 72.3708 76.7676 71.7783C76.8815 71.1859 76.9385 70.3405 76.9385 69.2422V67.2803ZM92.251 68.1553C92.9118 68.8389 93.2422 69.666 93.2422 70.6367C93.2422 71.6074 92.9095 72.4346 92.2441 73.1182C91.5833 73.7972 90.7972 74.1367 89.8857 74.1367C89.029 74.1367 88.2793 73.8382 87.6367 73.2412C86.9987 72.6442 86.6273 71.9173 86.5225 71.0605H85.0527V74H84.0752V67.2803H85.0527V70.1514H86.5225C86.6364 69.3311 87.0101 68.6247 87.6436 68.0322C88.277 67.4352 89.0244 67.1367 89.8857 67.1367C90.8018 67.1367 91.5902 67.4762 92.251 68.1553ZM88.2109 68.7979C87.737 69.2992 87.5 69.9144 87.5 70.6436C87.5 71.3682 87.7347 71.9811 88.2041 72.4824C88.6781 72.9792 89.2363 73.2275 89.8789 73.2275C90.526 73.2275 91.0843 72.9792 91.5537 72.4824C92.0277 71.9811 92.2646 71.3682 92.2646 70.6436C92.2646 69.9144 92.0277 69.3014 91.5537 68.8047C91.0843 68.3034 90.526 68.0527 89.8789 68.0527C89.2363 68.0527 88.6803 68.3011 88.2109 68.7979ZM95.9766 72.1133V74H94.999V67.2803H95.9766V70.8486L99.333 67.2803H100.529L97.9385 70.0078L100.81 74H99.6885L97.3096 70.7119L95.9766 72.1133ZM106.449 72.4756C106.928 71.9788 107.167 71.3682 107.167 70.6436C107.167 69.9144 106.925 69.3014 106.442 68.8047C105.964 68.3034 105.387 68.0527 104.713 68.0527C104.043 68.0527 103.466 68.3034 102.983 68.8047C102.505 69.3014 102.266 69.9121 102.266 70.6367C102.266 71.3568 102.505 71.9697 102.983 72.4756C103.466 72.9769 104.043 73.2275 104.713 73.2275C105.387 73.2275 105.966 72.9769 106.449 72.4756ZM102.293 73.125C101.623 72.4505 101.288 71.6234 101.288 70.6436C101.288 69.6592 101.621 68.8298 102.286 68.1553C102.956 67.4762 103.767 67.1367 104.72 67.1367C105.672 67.1367 106.481 67.4762 107.146 68.1553C107.812 68.8298 108.145 69.6592 108.145 70.6436C108.145 71.6234 107.812 72.4505 107.146 73.125C106.481 73.7995 105.672 74.1367 104.72 74.1367C103.767 74.1367 102.958 73.7995 102.293 73.125ZM111.617 68.8252C111.125 69.3447 110.879 69.9508 110.879 70.6436C110.879 71.3317 111.123 71.9355 111.61 72.4551C112.103 72.9701 112.652 73.2275 113.258 73.2275C113.837 73.2275 114.354 72.9769 114.81 72.4756C115.27 71.9697 115.5 71.359 115.5 70.6436C115.5 69.9235 115.27 69.3128 114.81 68.8115C114.354 68.3057 113.837 68.0527 113.258 68.0527C112.652 68.0527 112.105 68.3102 111.617 68.8252ZM110.879 72.9473V76.9395H109.901V67.2803H110.879V68.333C110.897 68.3057 110.929 68.2646 110.975 68.21C111.025 68.1507 111.123 68.0527 111.269 67.916C111.419 67.7793 111.581 67.6585 111.754 67.5537C111.927 67.4443 112.148 67.3486 112.417 67.2666C112.69 67.18 112.971 67.1367 113.258 67.1367C114.115 67.1367 114.864 67.4808 115.507 68.1689C116.154 68.8571 116.478 69.682 116.478 70.6436C116.478 71.6006 116.156 72.4232 115.514 73.1113C114.871 73.7949 114.119 74.1367 113.258 74.1367C112.971 74.1367 112.693 74.0957 112.424 74.0137C112.16 73.9316 111.936 73.8337 111.754 73.7197C111.572 73.6058 111.412 73.4919 111.275 73.3779C111.143 73.2594 111.043 73.1592 110.975 73.0771L110.879 72.9473ZM117.387 68.1895V67.2803H123.122V68.1895H120.743V74H119.766V68.1895H117.387ZM129.568 67.2803H130.409V74H129.425V68.9619L125.364 74H124.53V67.2803H125.508V72.3184L129.568 67.2803ZM133.629 72.1133V74H132.651V67.2803H133.629V70.8486L136.985 67.2803H138.182L135.591 70.0078L138.462 74H137.341L134.962 70.7119L133.629 72.1133ZM144.102 72.4756C144.58 71.9788 144.819 71.3682 144.819 70.6436C144.819 69.9144 144.578 69.3014 144.095 68.8047C143.616 68.3034 143.04 68.0527 142.365 68.0527C141.695 68.0527 141.119 68.3034 140.636 68.8047C140.157 69.3014 139.918 69.9121 139.918 70.6367C139.918 71.3568 140.157 71.9697 140.636 72.4756C141.119 72.9769 141.695 73.2275 142.365 73.2275C143.04 73.2275 143.618 72.9769 144.102 72.4756ZM139.945 73.125C139.275 72.4505 138.94 71.6234 138.94 70.6436C138.94 69.6592 139.273 68.8298 139.938 68.1553C140.608 67.4762 141.42 67.1367 142.372 67.1367C143.325 67.1367 144.133 67.4762 144.799 68.1553C145.464 68.8298 145.797 69.6592 145.797 70.6436C145.797 71.6234 145.464 72.4505 144.799 73.125C144.133 73.7995 143.325 74.1367 142.372 74.1367C141.42 74.1367 140.611 73.7995 139.945 73.125ZM152.592 67.2803H153.433V74H152.448V68.9619L148.388 74H147.554V67.2803H148.531V72.3184L152.592 67.2803ZM161.902 73.0908V75.6816H160.925V74H155.531V75.6816H154.554V73.0908H155.039C155.066 73.0635 155.107 73.0179 155.162 72.9541C155.221 72.8857 155.319 72.7354 155.456 72.5029C155.593 72.2705 155.714 72.0199 155.818 71.751C155.928 71.4775 156.023 71.1152 156.105 70.6641C156.192 70.2083 156.235 69.7344 156.235 69.2422V67.2803H160.85V73.0908H161.902ZM157.213 68.1895V69.2422C157.213 70.0078 157.119 70.7096 156.933 71.3477C156.746 71.9857 156.559 72.4368 156.372 72.7012L156.092 73.0908H159.872V68.1895H157.213Z" fill="white"/>
<path d="M9.41602 4.19727V14H8.36328V5.18164H2.9082V14H1.85547V4.19727H9.41602ZM13.6543 8.8252C13.1621 9.34473 12.916 9.95085 12.916 10.6436C12.916 11.3317 13.1598 11.9355 13.6475 12.4551C14.1396 12.9701 14.6888 13.2275 15.2949 13.2275C15.8737 13.2275 16.391 12.9769 16.8467 12.4756C17.307 11.9697 17.5371 11.359 17.5371 10.6436C17.5371 9.9235 17.307 9.31283 16.8467 8.81152C16.391 8.30566 15.8737 8.05273 15.2949 8.05273C14.6888 8.05273 14.1419 8.31022 13.6543 8.8252ZM12.916 12.9473V16.9395H11.9385V7.28027H12.916V8.33301C12.9342 8.30566 12.9661 8.26465 13.0117 8.20996C13.0618 8.15072 13.1598 8.05273 13.3057 7.91602C13.4561 7.7793 13.6178 7.65853 13.791 7.55371C13.9642 7.44434 14.1852 7.34863 14.4541 7.2666C14.7275 7.18001 15.0078 7.13672 15.2949 7.13672C16.1517 7.13672 16.9014 7.48079 17.5439 8.16895C18.1911 8.8571 18.5146 9.68197 18.5146 10.6436C18.5146 11.6006 18.1934 12.4232 17.5508 13.1113C16.9082 13.7949 16.1562 14.1367 15.2949 14.1367C15.0078 14.1367 14.7298 14.0957 14.4609 14.0137C14.1966 13.9316 13.9733 13.8337 13.791 13.7197C13.6087 13.6058 13.4492 13.4919 13.3125 13.3779C13.1803 13.2594 13.0801 13.1592 13.0117 13.0771L12.916 12.9473ZM24.9336 12.4756C25.4121 11.9788 25.6514 11.3682 25.6514 10.6436C25.6514 9.91439 25.4098 9.30143 24.9268 8.80469C24.4482 8.30339 23.8717 8.05273 23.1973 8.05273C22.5273 8.05273 21.9508 8.30339 21.4678 8.80469C20.9893 9.30143 20.75 9.91211 20.75 10.6367C20.75 11.3568 20.9893 11.9697 21.4678 12.4756C21.9508 12.9769 22.5273 13.2275 23.1973 13.2275C23.8717 13.2275 24.4505 12.9769 24.9336 12.4756ZM20.7773 13.125C20.1074 12.4505 19.7725 11.6234 19.7725 10.6436C19.7725 9.65918 20.1051 8.82975 20.7705 8.15527C21.4404 7.47624 22.2516 7.13672 23.2041 7.13672C24.1566 7.13672 24.9655 7.47624 25.6309 8.15527C26.2962 8.82975 26.6289 9.65918 26.6289 10.6436C26.6289 11.6234 26.2962 12.4505 25.6309 13.125C24.9655 13.7995 24.1566 14.1367 23.2041 14.1367C22.2516 14.1367 21.4427 13.7995 20.7773 13.125ZM32.8633 7.28027V8.18945H29.3633V14H28.3857V7.28027H32.8633ZM40.0752 11.0059L34.6133 10.9922C34.6497 11.5983 34.8981 12.1224 35.3584 12.5645C35.8232 13.0065 36.3678 13.2275 36.9922 13.2275C37.4115 13.2275 37.8011 13.1341 38.1611 12.9473C38.5212 12.7604 38.7764 12.5736 38.9268 12.3867L39.166 12.1133L39.7949 12.7422C39.7676 12.7786 39.7266 12.8311 39.6719 12.8994C39.6217 12.9632 39.5078 13.0749 39.3301 13.2344C39.1569 13.3893 38.9678 13.5283 38.7627 13.6514C38.5622 13.7699 38.3001 13.8815 37.9766 13.9863C37.6576 14.0866 37.3294 14.1367 36.9922 14.1367C36.0762 14.1367 35.2878 13.7972 34.627 13.1182C33.9661 12.4346 33.6357 11.6074 33.6357 10.6367C33.6357 9.66602 33.9616 8.84115 34.6133 8.16211C35.2695 7.47852 36.0397 7.13672 36.9238 7.13672C37.8398 7.13672 38.6055 7.45573 39.2207 8.09375C39.8359 8.72721 40.1436 9.5293 40.1436 10.5L40.0752 11.0059ZM38.4346 8.64746C38.0153 8.25098 37.5117 8.05273 36.9238 8.05273C36.3359 8.05273 35.8232 8.26009 35.3857 8.6748C34.9482 9.08952 34.6908 9.58171 34.6133 10.1514H39.166C39.0931 9.54525 38.8493 9.04395 38.4346 8.64746ZM42.3926 13.1113C41.7318 12.4323 41.4014 11.6074 41.4014 10.6367C41.4014 9.66602 41.7318 8.84115 42.3926 8.16211C43.0579 7.47852 43.8464 7.13672 44.7578 7.13672C45.2819 7.13672 45.7695 7.25065 46.2207 7.47852C46.6764 7.70182 47.0023 7.92513 47.1982 8.14844L47.4922 8.46973L46.7881 9.16699C46.7699 9.13965 46.7425 9.10091 46.7061 9.05078C46.6696 9.00065 46.5876 8.90951 46.46 8.77734C46.3369 8.64518 46.2025 8.53125 46.0566 8.43555C45.9108 8.33529 45.7217 8.24642 45.4893 8.16895C45.2568 8.09147 45.013 8.05273 44.7578 8.05273C44.1152 8.05273 43.557 8.30339 43.083 8.80469C42.6136 9.30143 42.3789 9.91439 42.3789 10.6436C42.3789 11.3682 42.6136 11.9811 43.083 12.4824C43.557 12.9792 44.1152 13.2275 44.7578 13.2275C45.1497 13.2275 45.5212 13.1341 45.8721 12.9473C46.223 12.7604 46.4782 12.5736 46.6377 12.3867L46.8633 12.1133L47.5605 12.7422C47.5332 12.7786 47.4899 12.8311 47.4307 12.8994C47.376 12.9632 47.2575 13.0749 47.0752 13.2344C46.8929 13.3893 46.7015 13.5283 46.501 13.6514C46.3005 13.7699 46.0407 13.8815 45.7217 13.9863C45.4072 14.0866 45.0859 14.1367 44.7578 14.1367C43.8418 14.1367 43.0534 13.7949 42.3926 13.1113ZM48.2578 8.18945V7.28027H53.9932V8.18945H51.6143V14H50.6367V8.18945H48.2578ZM61.3486 11.0059L55.8867 10.9922C55.9232 11.5983 56.1715 12.1224 56.6318 12.5645C57.0967 13.0065 57.6413 13.2275 58.2656 13.2275C58.6849 13.2275 59.0745 13.1341 59.4346 12.9473C59.7946 12.7604 60.0498 12.5736 60.2002 12.3867L60.4395 12.1133L61.0684 12.7422C61.041 12.7786 61 12.8311 60.9453 12.8994C60.8952 12.9632 60.7812 13.0749 60.6035 13.2344C60.4303 13.3893 60.2412 13.5283 60.0361 13.6514C59.8356 13.7699 59.5736 13.8815 59.25 13.9863C58.931 14.0866 58.6029 14.1367 58.2656 14.1367C57.3496 14.1367 56.5612 13.7972 55.9004 13.1182C55.2396 12.4346 54.9092 11.6074 54.9092 10.6367C54.9092 9.66602 55.235 8.84115 55.8867 8.16211C56.543 7.47852 57.3132 7.13672 58.1973 7.13672C59.1133 7.13672 59.8789 7.45573 60.4941 8.09375C61.1094 8.72721 61.417 9.5293 61.417 10.5L61.3486 11.0059ZM59.708 8.64746C59.2887 8.25098 58.7852 8.05273 58.1973 8.05273C57.6094 8.05273 57.0967 8.26009 56.6592 8.6748C56.2217 9.08952 55.9642 9.58171 55.8867 10.1514H60.4395C60.3665 9.54525 60.1227 9.04395 59.708 8.64746ZM64.8828 8.8252C64.3906 9.34473 64.1445 9.95085 64.1445 10.6436C64.1445 11.3317 64.3883 11.9355 64.876 12.4551C65.3682 12.9701 65.9173 13.2275 66.5234 13.2275C67.1022 13.2275 67.6195 12.9769 68.0752 12.4756C68.5355 11.9697 68.7656 11.359 68.7656 10.6436C68.7656 9.9235 68.5355 9.31283 68.0752 8.81152C67.6195 8.30566 67.1022 8.05273 66.5234 8.05273C65.9173 8.05273 65.3704 8.31022 64.8828 8.8252ZM64.1445 12.9473V16.9395H63.167V7.28027H64.1445V8.33301C64.1628 8.30566 64.1947 8.26465 64.2402 8.20996C64.2904 8.15072 64.3883 8.05273 64.5342 7.91602C64.6846 7.7793 64.8464 7.65853 65.0195 7.55371C65.1927 7.44434 65.4137 7.34863 65.6826 7.2666C65.9561 7.18001 66.2363 7.13672 66.5234 7.13672C67.3802 7.13672 68.1299 7.48079 68.7725 8.16895C69.4196 8.8571 69.7432 9.68197 69.7432 10.6436C69.7432 11.6006 69.4219 12.4232 68.7793 13.1113C68.1367 13.7949 67.3848 14.1367 66.5234 14.1367C66.2363 14.1367 65.9583 14.0957 65.6895 14.0137C65.4251 13.9316 65.2018 13.8337 65.0195 13.7197C64.8372 13.6058 64.6777 13.4919 64.541 13.3779C64.4089 13.2594 64.3086 13.1592 64.2402 13.0771L64.1445 12.9473ZM76.1621 12.4756C76.6406 11.9788 76.8799 11.3682 76.8799 10.6436C76.8799 9.91439 76.6383 9.30143 76.1553 8.80469C75.6768 8.30339 75.1003 8.05273 74.4258 8.05273C73.7559 8.05273 73.1794 8.30339 72.6963 8.80469C72.2178 9.30143 71.9785 9.91211 71.9785 10.6367C71.9785 11.3568 72.2178 11.9697 72.6963 12.4756C73.1794 12.9769 73.7559 13.2275 74.4258 13.2275C75.1003 13.2275 75.679 12.9769 76.1621 12.4756ZM72.0059 13.125C71.3359 12.4505 71.001 11.6234 71.001 10.6436C71.001 9.65918 71.3337 8.82975 71.999 8.15527C72.6689 7.47624 73.4801 7.13672 74.4326 7.13672C75.3851 7.13672 76.194 7.47624 76.8594 8.15527C77.5247 8.82975 77.8574 9.65918 77.8574 10.6436C77.8574 11.6234 77.5247 12.4505 76.8594 13.125C76.194 13.7995 75.3851 14.1367 74.4326 14.1367C73.4801 14.1367 72.6712 13.7995 72.0059 13.125ZM84.4404 14V11.0605H80.5918V14H79.6143V7.28027H80.5918V10.1514H84.4404V7.28027H85.4248V14H84.4404Z" fill="white"/>
</svg>
