<svg width="350" height="210" viewBox="0 0 350 210" fill="none" xmlns="http://www.w3.org/2000/svg">
<path d="M175 208.754L3.02309 81H30H31V80V1H319V80V81H320H346.977L175 208.754Z" fill="#2E55E2" fill-opacity="0.4" stroke="#2E55E2" stroke-width="2"/>
<path d="M54.2383 26.1953H61.3164C63.043 26.1953 64.4727 26.7383 65.6055 27.8242C66.7461 28.9023 67.3164 30.2422 67.3164 31.8438C67.3164 33.4375 66.75 34.7773 65.6172 35.8633C64.4844 36.9414 63.0508 37.4805 61.3164 37.4805H57.8477V43H54.2383V26.1953ZM61.1992 29.4414H57.8477V34.2344H61.1992C61.918 34.2344 62.5156 34.0039 62.9922 33.543C63.4766 33.082 63.7188 32.5156 63.7188 31.8438C63.7188 31.1719 63.4766 30.6055 62.9922 30.1445C62.5156 29.6758 61.918 29.4414 61.1992 29.4414ZM78.168 31.2344H80.9922V43H77.7578V36.4023L72.6367 43H69.8359V31.2344H73.0703V37.8438L78.168 31.2344ZM85.2695 41.3945C84.0117 40.1758 83.3828 38.75 83.3828 37.1172C83.3828 35.4844 84.0117 34.0586 85.2695 32.8398C86.5273 31.6133 88.0195 31 89.7461 31C90.3555 31 90.9336 31.0859 91.4805 31.2578C92.0352 31.4219 92.4883 31.6211 92.8398 31.8555C93.1914 32.082 93.5039 32.3125 93.7773 32.5469C94.0508 32.7812 94.25 32.9844 94.375 33.1562L94.5508 33.4023L92.5117 35.4414C92.4492 35.332 92.3438 35.1875 92.1953 35.0078C92.0547 34.8281 91.7422 34.5977 91.2578 34.3164C90.7812 34.0273 90.2773 33.8828 89.7461 33.8828C88.8945 33.8828 88.1602 34.1992 87.543 34.832C86.9336 35.4648 86.6289 36.2305 86.6289 37.1289C86.6289 38.0195 86.9375 38.7812 87.5547 39.4141C88.1719 40.0469 88.9023 40.3633 89.7461 40.3633C90.2773 40.3633 90.7812 40.2344 91.2578 39.9766C91.7422 39.7188 92.0938 39.4609 92.3125 39.2031L92.6289 38.8047L94.5508 40.8438C94.5039 40.9062 94.4375 40.9961 94.3516 41.1133C94.2734 41.2227 94.0859 41.4141 93.7891 41.6875C93.4922 41.9531 93.1719 42.1914 92.8281 42.4023C92.4844 42.6055 92.0352 42.7969 91.4805 42.9766C90.9336 43.1484 90.3555 43.2344 89.7461 43.2344C88.0195 43.2344 86.5273 42.6211 85.2695 41.3945ZM107.875 31.2344L103.434 36.2852L108.121 43H104.512L101.395 38.4414L99.9531 40.1172V43H96.7188V31.2344H99.9531V36.0391L104.16 31.2344H107.875ZM123.121 31.2344V34.2344H117.836V43H114.602V31.2344H123.121ZM128.406 34.9023C127.836 35.5039 127.551 36.2461 127.551 37.1289C127.551 38.0039 127.836 38.7422 128.406 39.3438C128.977 39.9375 129.652 40.2344 130.434 40.2344C131.215 40.2344 131.891 39.9375 132.461 39.3438C133.031 38.7422 133.316 38.0039 133.316 37.1289C133.316 36.2461 133.031 35.5039 132.461 34.9023C131.891 34.3008 131.215 34 130.434 34C129.652 34 128.977 34.3008 128.406 34.9023ZM134.816 32.8281C136.051 34.0547 136.668 35.4844 136.668 37.1172C136.668 38.75 136.047 40.1797 134.805 41.4062C133.57 42.625 132.113 43.2344 130.434 43.2344C128.754 43.2344 127.293 42.625 126.051 41.4062C124.809 40.1797 124.188 38.75 124.188 37.1172C124.188 35.4844 124.809 34.0586 126.051 32.8398C127.293 31.6133 128.754 31 130.434 31C132.113 31 133.574 31.6094 134.816 32.8281ZM140.23 41.3945C138.973 40.1758 138.344 38.75 138.344 37.1172C138.344 35.4844 138.973 34.0586 140.23 32.8398C141.488 31.6133 142.98 31 144.707 31C145.316 31 145.895 31.0859 146.441 31.2578C146.996 31.4219 147.449 31.6211 147.801 31.8555C148.152 32.082 148.465 32.3125 148.738 32.5469C149.012 32.7812 149.211 32.9844 149.336 33.1562L149.512 33.4023L147.473 35.4414C147.41 35.332 147.305 35.1875 147.156 35.0078C147.016 34.8281 146.703 34.5977 146.219 34.3164C145.742 34.0273 145.238 33.8828 144.707 33.8828C143.855 33.8828 143.121 34.1992 142.504 34.832C141.895 35.4648 141.59 36.2305 141.59 37.1289C141.59 38.0195 141.898 38.7812 142.516 39.4141C143.133 40.0469 143.863 40.3633 144.707 40.3633C145.238 40.3633 145.742 40.2344 146.219 39.9766C146.703 39.7188 147.055 39.4609 147.273 39.2031L147.59 38.8047L149.512 40.8438C149.465 40.9062 149.398 40.9961 149.312 41.1133C149.234 41.2227 149.047 41.4141 148.75 41.6875C148.453 41.9531 148.133 42.1914 147.789 42.4023C147.445 42.6055 146.996 42.7969 146.441 42.9766C145.895 43.1484 145.316 43.2344 144.707 43.2344C142.98 43.2344 141.488 42.6211 140.23 41.3945ZM154.914 34.1172V43H151.68V31.2344H162.719V43H159.473V34.1172H154.914ZM174.168 31.2344H176.992V43H173.758V36.4023L168.637 43H165.836V31.2344H169.07V37.8438L174.168 31.2344ZM178.902 34.3633V31.2344H189.59V34.3633H185.863V43H182.629V34.3633H178.902ZM197.98 43V41.8047C197.887 41.9141 197.754 42.0508 197.582 42.2148C197.418 42.3711 197.055 42.582 196.492 42.8477C195.93 43.1055 195.344 43.2344 194.734 43.2344C193.562 43.2344 192.609 42.9102 191.875 42.2617C191.141 41.6055 190.773 40.8125 190.773 39.8828C190.773 38.9219 191.082 38.1211 191.699 37.4805C192.316 36.8398 193.168 36.4219 194.254 36.2266L197.98 35.5586C197.98 35.0664 197.801 34.6641 197.441 34.3516C197.082 34.0391 196.582 33.8828 195.941 33.8828C195.41 33.8828 194.926 33.9844 194.488 34.1875C194.051 34.3828 193.742 34.5859 193.562 34.7969L193.293 35.0781L191.5 33.2852C191.547 33.2227 191.609 33.1406 191.688 33.0391C191.773 32.9297 191.957 32.7461 192.238 32.4883C192.527 32.2305 192.84 32.0039 193.176 31.8086C193.512 31.6055 193.953 31.4219 194.5 31.2578C195.047 31.0859 195.605 31 196.176 31C197.66 31 198.871 31.4453 199.809 32.3359C200.746 33.2188 201.215 34.332 201.215 35.6758V43H197.98ZM195.578 40.5977C196.312 40.5977 196.895 40.3672 197.324 39.9062C197.762 39.4375 197.98 38.7891 197.98 37.9609V37.5977L195.344 38.0781C194.461 38.2188 194.02 38.6602 194.02 39.4023C194.02 40.1992 194.539 40.5977 195.578 40.5977ZM205.539 31.2344H215.02V43H211.785V34.1172H208.668V34.8438C208.668 37.0391 208.48 38.7852 208.105 40.082C207.738 41.3711 207.262 42.2422 206.676 42.6953C206.098 43.1406 205.359 43.3633 204.461 43.3633C204.172 43.3633 203.887 43.3281 203.605 43.2578C203.332 43.1953 203.129 43.1406 202.996 43.0938L202.785 43V40.1172C203.027 40.1953 203.266 40.2344 203.5 40.2344C203.977 40.2344 204.352 40.1133 204.625 39.8711C204.898 39.6211 205.117 39.0703 205.281 38.2188C205.453 37.3594 205.539 36.1133 205.539 34.4805V31.2344ZM226.48 31.2344H229.305V43H226.07V36.4023L220.949 43H218.148V31.2344H221.383V37.8438L226.48 31.2344ZM240.695 34.4805C240.695 34.832 240.633 35.1562 240.508 35.4531C240.383 35.75 240.223 35.9844 240.027 36.1562C239.84 36.3203 239.648 36.4648 239.453 36.5898C239.258 36.707 239.098 36.7812 238.973 36.8125L238.785 36.8828C238.848 36.8984 238.934 36.9258 239.043 36.9648C239.152 37.0039 239.344 37.0977 239.617 37.2461C239.891 37.3867 240.129 37.5586 240.332 37.7617C240.543 37.957 240.734 38.2305 240.906 38.582C241.086 38.9336 241.176 39.3281 241.176 39.7656C241.176 40.7266 240.734 41.5469 239.852 42.2266C238.977 42.8984 237.738 43.2344 236.137 43.2344C235.512 43.2344 234.914 43.1602 234.344 43.0117C233.781 42.8633 233.316 42.6836 232.949 42.4727C232.582 42.2617 232.262 42.0547 231.988 41.8516C231.715 41.6406 231.523 41.4648 231.414 41.3242L231.215 41.0781L233.02 39.2852C233.082 39.3789 233.184 39.5 233.324 39.6484C233.473 39.7891 233.785 39.9844 234.262 40.2344C234.746 40.4766 235.254 40.5977 235.785 40.5977C236.41 40.5977 236.883 40.4766 237.203 40.2344C237.531 39.9844 237.695 39.668 237.695 39.2852C237.695 38.4883 237.059 38.0859 235.785 38.0781H234.578V35.9219H235.785C236.301 35.9219 236.688 35.8242 236.945 35.6289C237.211 35.4258 237.344 35.1641 237.344 34.8438C237.344 34.0469 236.824 33.6445 235.785 33.6367C235.402 33.6367 235.008 33.7266 234.602 33.9062C234.203 34.0781 233.898 34.2617 233.688 34.457L233.383 34.7148L231.578 32.9219C231.609 32.875 231.664 32.8086 231.742 32.7227C231.828 32.6289 232.008 32.4727 232.281 32.2539C232.562 32.0273 232.863 31.832 233.184 31.668C233.504 31.4961 233.934 31.3438 234.473 31.2109C235.012 31.0703 235.566 31 236.137 31C237.512 31 238.613 31.3438 239.441 32.0312C240.277 32.7188 240.695 33.5352 240.695 34.4805ZM250.059 43V41.8047C249.965 41.9141 249.832 42.0508 249.66 42.2148C249.496 42.3711 249.133 42.582 248.57 42.8477C248.008 43.1055 247.422 43.2344 246.812 43.2344C245.641 43.2344 244.688 42.9102 243.953 42.2617C243.219 41.6055 242.852 40.8125 242.852 39.8828C242.852 38.9219 243.16 38.1211 243.777 37.4805C244.395 36.8398 245.246 36.4219 246.332 36.2266L250.059 35.5586C250.059 35.0664 249.879 34.6641 249.52 34.3516C249.16 34.0391 248.66 33.8828 248.02 33.8828C247.488 33.8828 247.004 33.9844 246.566 34.1875C246.129 34.3828 245.82 34.5859 245.641 34.7969L245.371 35.0781L243.578 33.2852C243.625 33.2227 243.688 33.1406 243.766 33.0391C243.852 32.9297 244.035 32.7461 244.316 32.4883C244.605 32.2305 244.918 32.0039 245.254 31.8086C245.59 31.6055 246.031 31.4219 246.578 31.2578C247.125 31.0859 247.684 31 248.254 31C249.738 31 250.949 31.4453 251.887 32.3359C252.824 33.2188 253.293 34.332 253.293 35.6758V43H250.059ZM247.656 40.5977C248.391 40.5977 248.973 40.3672 249.402 39.9062C249.84 39.4375 250.059 38.7891 250.059 37.9609V37.5977L247.422 38.0781C246.539 38.2188 246.098 38.6602 246.098 39.4023C246.098 40.1992 246.617 40.5977 247.656 40.5977ZM256.422 43V31.2344H259.656V40.1172H263.863V31.2344H267.098V40.1172H268.656V45.7656H265.422V43H256.422ZM279.145 31.2344H281.969V43H278.734V36.4023L273.613 43H270.812V31.2344H274.047V37.8438L279.145 31.2344ZM293.418 31.2344H296.242V43H293.008V36.4023L287.887 43H285.086V31.2344H288.32V37.8438L293.418 31.2344ZM102.098 61.6367V71H99.6953V59.4805H110.137V71H107.734V61.6367H102.098ZM121.316 67.9648C122.027 67.2227 122.383 66.3164 122.383 65.2461C122.383 64.168 122.027 63.2578 121.316 62.5156C120.605 61.7734 119.762 61.4023 118.785 61.4023C117.809 61.4023 116.961 61.7734 116.242 62.5156C115.531 63.2578 115.176 64.168 115.176 65.2461C115.176 66.3164 115.531 67.2227 116.242 67.9648C116.961 68.707 117.809 69.0781 118.785 69.0781C119.762 69.0781 120.605 68.707 121.316 67.9648ZM114.578 69.4414C113.383 68.2539 112.785 66.8555 112.785 65.2461C112.785 63.6289 113.379 62.2227 114.566 61.0273C115.762 59.832 117.168 59.2344 118.785 59.2344C120.402 59.2344 121.805 59.832 122.992 61.0273C124.188 62.2227 124.785 63.6289 124.785 65.2461C124.785 66.8555 124.188 68.2578 122.992 69.4531C121.805 70.6406 120.402 71.2344 118.785 71.2344C117.168 71.2344 115.766 70.6367 114.578 69.4414ZM134.629 61.6367V71H132.227V59.4805H142.668V71H140.266V61.6367H134.629ZM153.848 67.9648C154.559 67.2227 154.914 66.3164 154.914 65.2461C154.914 64.168 154.559 63.2578 153.848 62.5156C153.137 61.7734 152.293 61.4023 151.316 61.4023C150.34 61.4023 149.492 61.7734 148.773 62.5156C148.062 63.2578 147.707 64.168 147.707 65.2461C147.707 66.3164 148.062 67.2227 148.773 67.9648C149.492 68.707 150.34 69.0781 151.316 69.0781C152.293 69.0781 153.137 68.707 153.848 67.9648ZM147.109 69.4414C145.914 68.2539 145.316 66.8555 145.316 65.2461C145.316 63.6289 145.91 62.2227 147.098 61.0273C148.293 59.832 149.699 59.2344 151.316 59.2344C152.934 59.2344 154.336 59.832 155.523 61.0273C156.719 62.2227 157.316 63.6289 157.316 65.2461C157.316 66.8555 156.719 68.2578 155.523 69.4531C154.336 70.6406 152.934 71.2344 151.316 71.2344C149.699 71.2344 148.297 70.6367 147.109 69.4414ZM159.953 59.4805H165.473C166.574 59.4805 167.449 59.7656 168.098 60.3359C168.746 60.8984 169.07 61.6133 169.07 62.4805C169.07 62.9727 168.961 63.4219 168.742 63.8281C168.531 64.2266 168.312 64.5039 168.086 64.6602L167.758 64.8828C167.805 64.8984 167.871 64.9258 167.957 64.9648C168.043 65.0039 168.199 65.1055 168.426 65.2695C168.652 65.4258 168.848 65.6016 169.012 65.7969C169.184 65.9844 169.336 66.2422 169.469 66.5703C169.609 66.8984 169.68 67.2539 169.68 67.6367C169.68 68.6289 169.324 69.4375 168.613 70.0625C167.91 70.6875 166.945 71 165.719 71H159.953V59.4805ZM165.719 65.8438H162.355V68.9609H165.719C166.195 68.9609 166.574 68.8203 166.855 68.5391C167.137 68.2578 167.277 67.8789 167.277 67.4023C167.277 66.9727 167.133 66.6055 166.844 66.3008C166.555 65.9961 166.18 65.8438 165.719 65.8438ZM166.352 63.5938C166.57 63.3828 166.68 63.0938 166.68 62.7266C166.68 62.3516 166.57 62.0586 166.352 61.8477C166.133 61.6289 165.84 61.5195 165.473 61.5195H162.355V63.9219H165.473C165.84 63.9219 166.133 63.8125 166.352 63.5938ZM180.121 67.9648C180.832 67.2227 181.188 66.3164 181.188 65.2461C181.188 64.168 180.832 63.2578 180.121 62.5156C179.41 61.7734 178.566 61.4023 177.59 61.4023C176.613 61.4023 175.766 61.7734 175.047 62.5156C174.336 63.2578 173.98 64.168 173.98 65.2461C173.98 66.3164 174.336 67.2227 175.047 67.9648C175.766 68.707 176.613 69.0781 177.59 69.0781C178.566 69.0781 179.41 68.707 180.121 67.9648ZM173.383 69.4414C172.188 68.2539 171.59 66.8555 171.59 65.2461C171.59 63.6289 172.184 62.2227 173.371 61.0273C174.566 59.832 175.973 59.2344 177.59 59.2344C179.207 59.2344 180.609 59.832 181.797 61.0273C182.992 62.2227 183.59 63.6289 183.59 65.2461C183.59 66.8555 182.992 68.2578 181.797 69.4531C180.609 70.6406 179.207 71.2344 177.59 71.2344C175.973 71.2344 174.57 70.6367 173.383 69.4414ZM184.551 68.8438H185.383C185.43 68.7969 185.496 68.7227 185.582 68.6211C185.676 68.5117 185.832 68.2734 186.051 67.9062C186.277 67.5391 186.473 67.1445 186.637 66.7227C186.809 66.293 186.961 65.7305 187.094 65.0352C187.234 64.3398 187.305 63.6094 187.305 62.8438V59.4805H195.707V68.8438H197.383V73.8828H194.992V71H186.953V73.8828H184.551V68.8438ZM189.707 61.6367V62.8438C189.707 63.6094 189.641 64.3359 189.508 65.0234C189.383 65.7109 189.223 66.2812 189.027 66.7344C188.84 67.1797 188.648 67.5664 188.453 67.8945C188.266 68.2227 188.109 68.457 187.984 68.5977L187.785 68.8438H193.305V61.6367H189.707ZM202.562 72.1953L203.043 71L198.355 59.4805H200.875L204.238 67.8828L207.602 59.4805H210.121L204.953 72.1953C204.359 73.6172 203.77 74.6133 203.184 75.1836C202.605 75.7539 201.879 76.0391 201.004 76.0391C200.684 76.0391 200.383 76.0195 200.102 75.9805C199.82 75.9414 199.613 75.8984 199.48 75.8516L199.316 75.8047V73.6367C199.715 73.793 200.117 73.875 200.523 73.8828C201.438 73.875 202.117 73.3125 202.562 72.1953ZM225.602 53.9609C226.453 53.9609 227.27 54.0742 228.051 54.3008C228.832 54.5195 229.477 54.7891 229.984 55.1094C230.5 55.4297 230.949 55.7461 231.332 56.0586C231.715 56.3711 231.996 56.6406 232.176 56.8672L232.434 57.1953L230.758 58.8828C230.711 58.8203 230.641 58.7344 230.547 58.625C230.461 58.5078 230.258 58.3008 229.938 58.0039C229.617 57.707 229.273 57.4531 228.906 57.2422C228.539 57.0234 228.059 56.8242 227.465 56.6445C226.879 56.457 226.258 56.3633 225.602 56.3633C223.859 56.3633 222.383 56.9688 221.172 58.1797C219.961 59.3828 219.355 60.8555 219.355 62.5977C219.355 64.3398 219.957 65.8164 221.16 67.0273C222.371 68.2383 223.852 68.8438 225.602 68.8438C226.258 68.8438 226.883 68.7539 227.477 68.5742C228.078 68.3867 228.574 68.1641 228.965 67.9062C229.363 67.6484 229.711 67.3945 230.008 67.1445C230.312 66.8867 230.539 66.668 230.688 66.4883L230.875 66.1953L232.562 67.8828C232.5 67.9766 232.402 68.1016 232.27 68.2578C232.145 68.4062 231.859 68.6719 231.414 69.0547C230.977 69.4375 230.508 69.7773 230.008 70.0742C229.516 70.3711 228.867 70.6406 228.062 70.8828C227.266 71.1172 226.445 71.2344 225.602 71.2344C223.086 71.2344 220.977 70.3984 219.273 68.7266C217.57 67.0547 216.719 65.0117 216.719 62.5977C216.719 60.1836 217.57 58.1406 219.273 56.4688C220.977 54.7969 223.086 53.9609 225.602 53.9609ZM249.473 54.1953V71H246.836V63.6758H238.551V71H235.914V54.1953H238.551V61.2852H246.836V54.1953H249.473Z" fill="white"/>
<path d="M136.727 111.688V116H119.922V111.688H136.727ZM162.156 116.469H166.469V121.273H162.156V128H156.859V121.273H140.547V115.531L155.43 94.3906H162.156V116.469ZM156.859 116.469V100.391L145.586 116.469H156.859ZM192.156 128H169.844C169.844 125.922 170.156 124.039 170.781 122.352C171.406 120.648 172.219 119.234 173.219 118.109C174.234 116.984 175.344 115.953 176.547 115.016C177.766 114.078 178.977 113.227 180.18 112.461C181.383 111.68 182.484 110.914 183.484 110.164C184.5 109.414 185.32 108.539 185.945 107.539C186.57 106.523 186.883 105.422 186.883 104.234C186.883 102.531 186.352 101.188 185.289 100.203C184.242 99.2188 182.773 98.7266 180.883 98.7266C179.961 98.7266 179.094 98.8984 178.281 99.2422C177.484 99.5703 176.859 99.9688 176.406 100.438C175.969 100.891 175.578 101.352 175.234 101.82C174.906 102.289 174.68 102.695 174.555 103.039L174.391 103.531L170.078 101.609C170.141 101.391 170.227 101.109 170.336 100.766C170.461 100.422 170.789 99.8125 171.32 98.9375C171.867 98.0625 172.5 97.2891 173.219 96.6172C173.938 95.9453 174.977 95.3281 176.336 94.7656C177.695 94.2031 179.211 93.9219 180.883 93.9219C184.18 93.9219 186.883 94.9141 188.992 96.8984C191.102 98.8828 192.156 101.328 192.156 104.234C192.156 105.766 191.844 107.188 191.219 108.5C190.594 109.812 189.797 110.914 188.828 111.805C187.875 112.68 186.773 113.586 185.523 114.523C184.289 115.445 183.086 116.289 181.914 117.055C180.742 117.82 179.586 118.742 178.445 119.82C177.32 120.883 176.453 122.008 175.844 123.195H192.156V128ZM210.109 96.1016C211.594 97.5547 212.336 99.3047 212.336 101.352C212.336 103.398 211.594 105.156 210.109 106.625C208.625 108.078 206.805 108.805 204.648 108.805C202.508 108.805 200.695 108.078 199.211 106.625C197.727 105.156 196.984 103.398 196.984 101.352C196.984 99.3047 197.727 97.5547 199.211 96.1016C200.695 94.6484 202.508 93.9219 204.648 93.9219C206.805 93.9219 208.625 94.6484 210.109 96.1016ZM201.93 98.6328C201.195 99.3672 200.828 100.281 200.828 101.375C200.828 102.453 201.195 103.359 201.93 104.094C202.664 104.828 203.57 105.195 204.648 105.195C205.742 105.195 206.656 104.828 207.391 104.094C208.125 103.359 208.492 102.453 208.492 101.375C208.492 100.281 208.125 99.3672 207.391 98.6328C206.656 97.8984 205.742 97.5312 204.648 97.5312C203.57 97.5312 202.664 97.8984 201.93 98.6328ZM200.828 128L221.945 94.3906H226.258L205.141 128H200.828ZM216.977 126.289C215.492 124.836 214.75 123.086 214.75 121.039C214.75 118.992 215.492 117.242 216.977 115.789C218.461 114.336 220.273 113.609 222.414 113.609C224.57 113.609 226.391 114.336 227.875 115.789C229.359 117.242 230.102 118.992 230.102 121.039C230.102 123.086 229.359 124.836 227.875 126.289C226.391 127.742 224.57 128.469 222.414 128.469C220.273 128.469 218.461 127.742 216.977 126.289ZM225.156 123.781C225.891 123.047 226.258 122.133 226.258 121.039C226.258 119.945 225.891 119.031 225.156 118.297C224.422 117.562 223.508 117.195 222.414 117.195C221.336 117.195 220.43 117.562 219.695 118.297C218.961 119.031 218.594 119.945 218.594 121.039C218.594 122.133 218.961 123.047 219.695 123.781C220.43 124.516 221.336 124.883 222.414 124.883C223.508 124.883 224.422 124.516 225.156 123.781Z" fill="white"/>
</svg>
