<svg width="365" height="84" viewBox="0 0 365 84" fill="none" xmlns="http://www.w3.org/2000/svg">
<path d="M158 40.5C158 47.1274 152.627 52.5 146 52.5C139.373 52.5 134 47.1274 134 40.5C134 33.8726 139.373 28.5 146 28.5C152.627 28.5 158 33.8726 158 40.5Z" fill="#38BEBD" stroke="white"/>
<path d="M249 40.5C249 47.1274 243.627 52.5 237 52.5C230.373 52.5 225 47.1274 225 40.5C225 33.8726 230.373 28.5 237 28.5C243.627 28.5 249 33.8726 249 40.5Z" fill="#EDC41F" stroke="white"/>
<path d="M331 40.5C331 47.1274 325.627 52.5 319 52.5C312.373 52.5 307 47.1274 307 40.5C307 33.8726 312.373 28.5 319 28.5C325.627 28.5 331 33.8726 331 40.5Z" fill="#32AD28" stroke="white"/>
<path d="M76 40.5C76 47.1274 70.6274 52.5 64 52.5C57.3726 52.5 52 47.1274 52 40.5C52 33.8726 57.3726 28.5 64 28.5C70.6274 28.5 76 33.8726 76 40.5Z" fill="#D73030" stroke="white"/>
<path d="M159.08 7.60352L153.475 14.9961L147.879 7.60352V19H146.375V4.99609H147.674L153.475 12.6035L159.275 4.99609H160.574V19H159.08V7.60352ZM171.375 9.40039H172.576V19H171.17V11.8027L165.369 19H164.178V9.40039H165.574V16.5977L171.375 9.40039ZM182.674 19V14.8008H177.176V19H175.779V9.40039H177.176V13.502H182.674V9.40039H184.08V19H182.674ZM195.779 14.7227L187.977 14.7031C188.029 15.569 188.383 16.3177 189.041 16.9492C189.705 17.5807 190.483 17.8965 191.375 17.8965C191.974 17.8965 192.531 17.763 193.045 17.4961C193.559 17.2292 193.924 16.9622 194.139 16.6953L194.48 16.3047L195.379 17.2031C195.34 17.2552 195.281 17.3301 195.203 17.4277C195.132 17.5189 194.969 17.6784 194.715 17.9062C194.467 18.1276 194.197 18.3262 193.904 18.502C193.618 18.6712 193.243 18.8307 192.781 18.9805C192.326 19.1237 191.857 19.1953 191.375 19.1953C190.066 19.1953 188.94 18.7103 187.996 17.7402C187.052 16.7637 186.58 15.582 186.58 14.1953C186.58 12.8086 187.046 11.6302 187.977 10.6602C188.914 9.68359 190.014 9.19531 191.277 9.19531C192.586 9.19531 193.68 9.65104 194.559 10.5625C195.438 11.4674 195.877 12.6133 195.877 14L195.779 14.7227ZM193.436 11.3535C192.837 10.7871 192.117 10.5039 191.277 10.5039C190.438 10.5039 189.705 10.8001 189.08 11.3926C188.455 11.985 188.087 12.6882 187.977 13.502H194.48C194.376 12.6361 194.028 11.9199 193.436 11.3535ZM200.828 11.6074C200.125 12.3496 199.773 13.2155 199.773 14.2051C199.773 15.1882 200.122 16.0508 200.818 16.793C201.521 17.5286 202.306 17.8965 203.172 17.8965C203.999 17.8965 204.738 17.5384 205.389 16.8223C206.046 16.0996 206.375 15.2272 206.375 14.2051C206.375 13.1764 206.046 12.304 205.389 11.5879C204.738 10.8652 203.999 10.5039 203.172 10.5039C202.306 10.5039 201.525 10.8717 200.828 11.6074ZM199.773 17.4961V23.1992H198.377V9.40039H199.773V10.9043C199.799 10.8652 199.845 10.8066 199.91 10.7285C199.982 10.6439 200.122 10.5039 200.33 10.3086C200.545 10.1133 200.776 9.94076 201.023 9.79102C201.271 9.63477 201.587 9.49805 201.971 9.38086C202.361 9.25716 202.762 9.19531 203.172 9.19531C204.396 9.19531 205.467 9.68685 206.385 10.6699C207.309 11.653 207.771 12.8314 207.771 14.2051C207.771 15.5723 207.312 16.7474 206.395 17.7305C205.477 18.707 204.402 19.1953 203.172 19.1953C202.762 19.1953 202.365 19.1367 201.98 19.0195C201.603 18.9023 201.284 18.7624 201.023 18.5996C200.763 18.4368 200.535 18.2741 200.34 18.1113C200.151 17.9421 200.008 17.7988 199.91 17.6816L199.773 17.4961ZM212.371 13.502L216.072 12.8965C216.072 12.1868 215.848 11.6107 215.398 11.168C214.949 10.7253 214.373 10.5039 213.67 10.5039C213.162 10.5039 212.684 10.6211 212.234 10.8555C211.792 11.0833 211.469 11.3177 211.268 11.5586L210.965 11.9004L210.066 11.002C210.105 10.9499 210.158 10.8848 210.223 10.8066C210.294 10.722 210.444 10.5788 210.672 10.377C210.906 10.1686 211.15 9.98307 211.404 9.82031C211.658 9.65755 211.99 9.51432 212.4 9.39062C212.817 9.26042 213.24 9.19531 213.67 9.19531C214.764 9.19531 215.669 9.55013 216.385 10.2598C217.107 10.9694 217.469 11.8483 217.469 12.8965V19H216.072V17.7012C216.046 17.7402 216.004 17.7956 215.945 17.8672C215.893 17.9323 215.77 18.0527 215.574 18.2285C215.385 18.3978 215.18 18.5508 214.959 18.6875C214.738 18.8177 214.445 18.9349 214.08 19.0391C213.722 19.1432 213.351 19.1953 212.967 19.1953C212.01 19.1953 211.202 18.9121 210.545 18.3457C209.894 17.7793 209.568 17.1315 209.568 16.4023C209.568 15.6016 209.809 14.957 210.291 14.4688C210.773 13.974 211.466 13.6517 212.371 13.502ZM212.967 17.8965C213.872 17.8965 214.614 17.6003 215.193 17.0078C215.779 16.4154 216.072 15.6471 216.072 14.7031V14.0977L212.771 14.7031C211.574 14.931 210.971 15.4974 210.965 16.4023C210.965 16.832 211.141 17.1901 211.492 17.4766C211.85 17.7565 212.342 17.8965 212.967 17.8965ZM221.658 9.40039H228.66V19H227.254V10.6992H223.055V12.2031C223.055 13.6159 222.983 14.7943 222.84 15.7383C222.703 16.6758 222.495 17.3919 222.215 17.8867C221.935 18.375 221.626 18.7168 221.287 18.9121C220.949 19.1009 220.538 19.1953 220.057 19.1953C219.894 19.1953 219.728 19.179 219.559 19.1465C219.396 19.1139 219.275 19.0781 219.197 19.0391L219.061 19V17.6035C219.327 17.7337 219.594 17.7988 219.861 17.7988C220.271 17.7988 220.594 17.6816 220.828 17.4473C221.062 17.2129 221.258 16.6725 221.414 15.8262C221.577 14.9798 221.658 13.7721 221.658 12.2031V9.40039ZM238.523 16.8223C239.207 16.1126 239.549 15.2402 239.549 14.2051C239.549 13.1634 239.204 12.2878 238.514 11.5781C237.83 10.862 237.007 10.5039 236.043 10.5039C235.086 10.5039 234.262 10.862 233.572 11.5781C232.889 12.2878 232.547 13.1602 232.547 14.1953C232.547 15.224 232.889 16.0996 233.572 16.8223C234.262 17.5384 235.086 17.8965 236.043 17.8965C237.007 17.8965 237.833 17.5384 238.523 16.8223ZM232.586 17.75C231.629 16.7865 231.15 15.6048 231.15 14.2051C231.15 12.7988 231.626 11.6139 232.576 10.6504C233.533 9.68034 234.692 9.19531 236.053 9.19531C237.413 9.19531 238.569 9.68034 239.52 10.6504C240.47 11.6139 240.945 12.7988 240.945 14.2051C240.945 15.6048 240.47 16.7865 239.52 17.75C238.569 18.7135 237.413 19.1953 236.053 19.1953C234.692 19.1953 233.536 18.7135 232.586 17.75ZM244.852 16.3047V19H243.455V9.40039H244.852V14.498L249.646 9.40039H251.355L247.654 13.2969L251.756 19H250.154L246.756 14.3027L244.852 16.3047ZM259.812 16.8223C260.496 16.1126 260.838 15.2402 260.838 14.2051C260.838 13.1634 260.493 12.2878 259.803 11.5781C259.119 10.862 258.296 10.5039 257.332 10.5039C256.375 10.5039 255.551 10.862 254.861 11.5781C254.178 12.2878 253.836 13.1602 253.836 14.1953C253.836 15.224 254.178 16.0996 254.861 16.8223C255.551 17.5384 256.375 17.8965 257.332 17.8965C258.296 17.8965 259.122 17.5384 259.812 16.8223ZM253.875 17.75C252.918 16.7865 252.439 15.6048 252.439 14.2051C252.439 12.7988 252.915 11.6139 253.865 10.6504C254.822 9.68034 255.981 9.19531 257.342 9.19531C258.702 9.19531 259.858 9.68034 260.809 10.6504C261.759 11.6139 262.234 12.7988 262.234 14.2051C262.234 15.6048 261.759 16.7865 260.809 17.75C259.858 18.7135 258.702 19.1953 257.342 19.1953C255.981 19.1953 254.826 18.7135 253.875 17.75ZM267.195 11.6074C266.492 12.3496 266.141 13.2155 266.141 14.2051C266.141 15.1882 266.489 16.0508 267.186 16.793C267.889 17.5286 268.673 17.8965 269.539 17.8965C270.366 17.8965 271.105 17.5384 271.756 16.8223C272.413 16.0996 272.742 15.2272 272.742 14.2051C272.742 13.1764 272.413 12.304 271.756 11.5879C271.105 10.8652 270.366 10.5039 269.539 10.5039C268.673 10.5039 267.892 10.8717 267.195 11.6074ZM266.141 17.4961V23.1992H264.744V9.40039H266.141V10.9043C266.167 10.8652 266.212 10.8066 266.277 10.7285C266.349 10.6439 266.489 10.5039 266.697 10.3086C266.912 10.1133 267.143 9.94076 267.391 9.79102C267.638 9.63477 267.954 9.49805 268.338 9.38086C268.729 9.25716 269.129 9.19531 269.539 9.19531C270.763 9.19531 271.834 9.68685 272.752 10.6699C273.676 11.653 274.139 12.8314 274.139 14.2051C274.139 15.5723 273.68 16.7474 272.762 17.7305C271.844 18.707 270.77 19.1953 269.539 19.1953C269.129 19.1953 268.732 19.1367 268.348 19.0195C267.97 18.9023 267.651 18.7624 267.391 18.5996C267.13 18.4368 266.902 18.2741 266.707 18.1113C266.518 17.9421 266.375 17.7988 266.277 17.6816L266.141 17.4961ZM275.438 10.6992V9.40039H283.631V10.6992H280.232V19H278.836V10.6992H275.438ZM292.84 9.40039H294.041V19H292.635V11.8027L286.834 19H285.643V9.40039H287.039V16.5977L292.84 9.40039ZM298.641 16.3047V19H297.244V9.40039H298.641V14.498L303.436 9.40039H305.145L301.443 13.2969L305.545 19H303.943L300.545 14.3027L298.641 16.3047ZM313.602 16.8223C314.285 16.1126 314.627 15.2402 314.627 14.2051C314.627 13.1634 314.282 12.2878 313.592 11.5781C312.908 10.862 312.085 10.5039 311.121 10.5039C310.164 10.5039 309.34 10.862 308.65 11.5781C307.967 12.2878 307.625 13.1602 307.625 14.1953C307.625 15.224 307.967 16.0996 308.65 16.8223C309.34 17.5384 310.164 17.8965 311.121 17.8965C312.085 17.8965 312.911 17.5384 313.602 16.8223ZM307.664 17.75C306.707 16.7865 306.229 15.6048 306.229 14.2051C306.229 12.7988 306.704 11.6139 307.654 10.6504C308.611 9.68034 309.77 9.19531 311.131 9.19531C312.492 9.19531 313.647 9.68034 314.598 10.6504C315.548 11.6139 316.023 12.7988 316.023 14.2051C316.023 15.6048 315.548 16.7865 314.598 17.75C313.647 18.7135 312.492 19.1953 311.131 19.1953C309.77 19.1953 308.615 18.7135 307.664 17.75ZM325.73 9.40039H326.932V19H325.525V11.8027L319.725 19H318.533V9.40039H319.93V16.5977L325.73 9.40039ZM339.031 17.7012V21.4023H337.635V19H329.93V21.4023H328.533V17.7012H329.227C329.266 17.6621 329.324 17.597 329.402 17.5059C329.487 17.4082 329.627 17.1934 329.822 16.8613C330.018 16.5293 330.19 16.1712 330.34 15.7871C330.496 15.3965 330.633 14.8789 330.75 14.2344C330.874 13.5833 330.936 12.9062 330.936 12.2031V9.40039H337.527V17.7012H339.031ZM332.332 10.6992V12.2031C332.332 13.2969 332.199 14.2995 331.932 15.2109C331.665 16.1224 331.398 16.7669 331.131 17.1445L330.73 17.7012H336.131V10.6992H332.332Z" fill="white"/>
<path d="M283.248 73.6973L280.553 67.0957L277.848 73.6973H283.248ZM283.854 75.1035H277.252L275.65 79H274.049L279.85 64.9961H281.246L287.047 79H285.455L283.854 75.1035ZM295.953 79V74.8008H290.455V79H289.059V69.4004H290.455V73.502H295.953V69.4004H297.359V79H295.953ZM309.459 77.7012V81.4023H308.062V79H300.357V81.4023H298.961V77.7012H299.654C299.693 77.6621 299.752 77.597 299.83 77.5059C299.915 77.4082 300.055 77.1934 300.25 76.8613C300.445 76.5293 300.618 76.1712 300.768 75.7871C300.924 75.3965 301.061 74.8789 301.178 74.2344C301.301 73.5833 301.363 72.9062 301.363 72.2031V69.4004H307.955V77.7012H309.459ZM302.76 70.6992V72.2031C302.76 73.2969 302.626 74.2995 302.359 75.2109C302.092 76.1224 301.826 76.7669 301.559 77.1445L301.158 77.7012H306.559V70.6992H302.76ZM314.107 71.6074C313.404 72.3496 313.053 73.2155 313.053 74.2051C313.053 75.1882 313.401 76.0508 314.098 76.793C314.801 77.5286 315.585 77.8965 316.451 77.8965C317.278 77.8965 318.017 77.5384 318.668 76.8223C319.326 76.0996 319.654 75.2272 319.654 74.2051C319.654 73.1764 319.326 72.304 318.668 71.5879C318.017 70.8652 317.278 70.5039 316.451 70.5039C315.585 70.5039 314.804 70.8717 314.107 71.6074ZM313.053 77.4961V83.1992H311.656V69.4004H313.053V70.9043C313.079 70.8652 313.124 70.8066 313.189 70.7285C313.261 70.6439 313.401 70.5039 313.609 70.3086C313.824 70.1133 314.055 69.9408 314.303 69.791C314.55 69.6348 314.866 69.498 315.25 69.3809C315.641 69.2572 316.041 69.1953 316.451 69.1953C317.675 69.1953 318.746 69.6868 319.664 70.6699C320.589 71.653 321.051 72.8314 321.051 74.2051C321.051 75.5723 320.592 76.7474 319.674 77.7305C318.756 78.707 317.682 79.1953 316.451 79.1953C316.041 79.1953 315.644 79.1367 315.26 79.0195C314.882 78.9023 314.563 78.7624 314.303 78.5996C314.042 78.4368 313.814 78.2741 313.619 78.1113C313.43 77.9421 313.287 77.7988 313.189 77.6816L313.053 77.4961ZM330.221 76.8223C330.904 76.1126 331.246 75.2402 331.246 74.2051C331.246 73.1634 330.901 72.2878 330.211 71.5781C329.527 70.862 328.704 70.5039 327.74 70.5039C326.783 70.5039 325.96 70.862 325.27 71.5781C324.586 72.2878 324.244 73.1602 324.244 74.1953C324.244 75.224 324.586 76.0996 325.27 76.8223C325.96 77.5384 326.783 77.8965 327.74 77.8965C328.704 77.8965 329.531 77.5384 330.221 76.8223ZM324.283 77.75C323.326 76.7865 322.848 75.6048 322.848 74.2051C322.848 72.7988 323.323 71.6139 324.273 70.6504C325.23 69.6803 326.389 69.1953 327.75 69.1953C329.111 69.1953 330.266 69.6803 331.217 70.6504C332.167 71.6139 332.643 72.7988 332.643 74.2051C332.643 75.6048 332.167 76.7865 331.217 77.75C330.266 78.7135 329.111 79.1953 327.75 79.1953C326.389 79.1953 325.234 78.7135 324.283 77.75ZM341.549 69.4004V70.6992H336.549V79H335.152V69.4004H341.549ZM351.852 74.7227L344.049 74.7031C344.101 75.569 344.456 76.3177 345.113 76.9492C345.777 77.5807 346.555 77.8965 347.447 77.8965C348.046 77.8965 348.603 77.763 349.117 77.4961C349.632 77.2292 349.996 76.9622 350.211 76.6953L350.553 76.3047L351.451 77.2031C351.412 77.2552 351.354 77.3301 351.275 77.4277C351.204 77.5189 351.041 77.6784 350.787 77.9062C350.54 78.1276 350.27 78.3262 349.977 78.502C349.69 78.6712 349.316 78.8307 348.854 78.9805C348.398 79.1237 347.929 79.1953 347.447 79.1953C346.139 79.1953 345.012 78.7103 344.068 77.7402C343.124 76.7637 342.652 75.582 342.652 74.1953C342.652 72.8086 343.118 71.6302 344.049 70.6602C344.986 69.6836 346.087 69.1953 347.35 69.1953C348.658 69.1953 349.752 69.651 350.631 70.5625C351.51 71.4674 351.949 72.6133 351.949 74L351.852 74.7227ZM349.508 71.3535C348.909 70.7871 348.189 70.5039 347.35 70.5039C346.51 70.5039 345.777 70.8001 345.152 71.3926C344.527 71.985 344.16 72.6882 344.049 73.502H350.553C350.449 72.6361 350.1 71.9199 349.508 71.3535ZM361.344 79V74.8008H355.846V79H354.449V69.4004H355.846V73.502H361.344V69.4004H362.75V79H361.344Z" fill="white"/>
<path d="M79.6172 79V64.9961H88.3184V66.4023H81.1211V79H79.6172ZM89.4121 69.4004H96.4141V79H95.0078V70.6992H90.8086V72.2031C90.8086 73.6159 90.737 74.7943 90.5938 75.7383C90.457 76.6758 90.2487 77.3919 89.9688 77.8867C89.6888 78.375 89.3796 78.7168 89.041 78.9121C88.7025 79.1009 88.2923 79.1953 87.8105 79.1953C87.6478 79.1953 87.4818 79.179 87.3125 79.1465C87.1497 79.1139 87.0293 79.0781 86.9512 79.0391L86.8145 79V77.6035C87.0814 77.7337 87.3483 77.7988 87.6152 77.7988C88.0254 77.7988 88.3477 77.6816 88.582 77.4473C88.8164 77.2129 89.0117 76.6725 89.168 75.8262C89.3307 74.9798 89.4121 73.7721 89.4121 72.2031V69.4004ZM111.287 70.6504C112.231 71.627 112.703 72.8086 112.703 74.1953C112.703 75.582 112.228 76.7637 111.277 77.7402C110.333 78.7103 109.21 79.1953 107.908 79.1953C106.684 79.1953 105.613 78.7689 104.695 77.916C103.784 77.0632 103.253 76.0247 103.104 74.8008H101.004V79H99.6074V69.4004H101.004V73.502H103.104C103.266 72.3301 103.8 71.321 104.705 70.4746C105.61 69.6217 106.678 69.1953 107.908 69.1953C109.217 69.1953 110.343 69.6803 111.287 70.6504ZM105.516 71.5684C104.839 72.2845 104.5 73.1634 104.5 74.2051C104.5 75.2402 104.835 76.1159 105.506 76.832C106.183 77.5417 106.98 77.8965 107.898 77.8965C108.823 77.8965 109.62 77.5417 110.291 76.832C110.968 76.1159 111.307 75.2402 111.307 74.2051C111.307 73.1634 110.968 72.2878 110.291 71.5781C109.62 70.862 108.823 70.5039 107.898 70.5039C106.98 70.5039 106.186 70.8587 105.516 71.5684ZM116.609 76.3047V79H115.213V69.4004H116.609V74.498L121.404 69.4004H123.113L119.412 73.2969L123.514 79H121.912L118.514 74.3027L116.609 76.3047ZM131.57 76.8223C132.254 76.1126 132.596 75.2402 132.596 74.2051C132.596 73.1634 132.251 72.2878 131.561 71.5781C130.877 70.862 130.053 70.5039 129.09 70.5039C128.133 70.5039 127.309 70.862 126.619 71.5781C125.936 72.2878 125.594 73.1602 125.594 74.1953C125.594 75.224 125.936 76.0996 126.619 76.8223C127.309 77.5384 128.133 77.8965 129.09 77.8965C130.053 77.8965 130.88 77.5384 131.57 76.8223ZM125.633 77.75C124.676 76.7865 124.197 75.6048 124.197 74.2051C124.197 72.7988 124.673 71.6139 125.623 70.6504C126.58 69.6803 127.739 69.1953 129.1 69.1953C130.46 69.1953 131.616 69.6803 132.566 70.6504C133.517 71.6139 133.992 72.7988 133.992 74.2051C133.992 75.6048 133.517 76.7865 132.566 77.75C131.616 78.7135 130.46 79.1953 129.1 79.1953C127.739 79.1953 126.583 78.7135 125.633 77.75ZM138.953 71.6074C138.25 72.3496 137.898 73.2155 137.898 74.2051C137.898 75.1882 138.247 76.0508 138.943 76.793C139.646 77.5286 140.431 77.8965 141.297 77.8965C142.124 77.8965 142.863 77.5384 143.514 76.8223C144.171 76.0996 144.5 75.2272 144.5 74.2051C144.5 73.1764 144.171 72.304 143.514 71.5879C142.863 70.8652 142.124 70.5039 141.297 70.5039C140.431 70.5039 139.65 70.8717 138.953 71.6074ZM137.898 77.4961V83.1992H136.502V69.4004H137.898V70.9043C137.924 70.8652 137.97 70.8066 138.035 70.7285C138.107 70.6439 138.247 70.5039 138.455 70.3086C138.67 70.1133 138.901 69.9408 139.148 69.791C139.396 69.6348 139.712 69.498 140.096 69.3809C140.486 69.2572 140.887 69.1953 141.297 69.1953C142.521 69.1953 143.592 69.6868 144.51 70.6699C145.434 71.653 145.896 72.8314 145.896 74.2051C145.896 75.5723 145.438 76.7474 144.52 77.7305C143.602 78.707 142.527 79.1953 141.297 79.1953C140.887 79.1953 140.49 79.1367 140.105 79.0195C139.728 78.9023 139.409 78.7624 139.148 78.5996C138.888 78.4368 138.66 78.2741 138.465 78.1113C138.276 77.9421 138.133 77.7988 138.035 77.6816L137.898 77.4961ZM147.195 70.6992V69.4004H155.389V70.6992H151.99V79H150.594V70.6992H147.195ZM164.598 69.4004H165.799V79H164.393V71.8027L158.592 79H157.4V69.4004H158.797V76.5977L164.598 69.4004ZM170.398 76.3047V79H169.002V69.4004H170.398V74.498L175.193 69.4004H176.902L173.201 73.2969L177.303 79H175.701L172.303 74.3027L170.398 76.3047ZM185.359 76.8223C186.043 76.1126 186.385 75.2402 186.385 74.2051C186.385 73.1634 186.04 72.2878 185.35 71.5781C184.666 70.862 183.842 70.5039 182.879 70.5039C181.922 70.5039 181.098 70.862 180.408 71.5781C179.725 72.2878 179.383 73.1602 179.383 74.1953C179.383 75.224 179.725 76.0996 180.408 76.8223C181.098 77.5384 181.922 77.8965 182.879 77.8965C183.842 77.8965 184.669 77.5384 185.359 76.8223ZM179.422 77.75C178.465 76.7865 177.986 75.6048 177.986 74.2051C177.986 72.7988 178.462 71.6139 179.412 70.6504C180.369 69.6803 181.528 69.1953 182.889 69.1953C184.249 69.1953 185.405 69.6803 186.355 70.6504C187.306 71.6139 187.781 72.7988 187.781 74.2051C187.781 75.6048 187.306 76.7865 186.355 77.75C185.405 78.7135 184.249 79.1953 182.889 79.1953C181.528 79.1953 180.372 78.7135 179.422 77.75ZM197.488 69.4004H198.689V79H197.283V71.8027L191.482 79H190.291V69.4004H191.688V76.5977L197.488 69.4004ZM210.789 77.7012V81.4023H209.393V79H201.688V81.4023H200.291V77.7012H200.984C201.023 77.6621 201.082 77.597 201.16 77.5059C201.245 77.4082 201.385 77.1934 201.58 76.8613C201.775 76.5293 201.948 76.1712 202.098 75.7871C202.254 75.3965 202.391 74.8789 202.508 74.2344C202.632 73.5833 202.693 72.9062 202.693 72.2031V69.4004H209.285V77.7012H210.789ZM204.09 70.6992V72.2031C204.09 73.2969 203.956 74.2995 203.689 75.2109C203.423 76.1224 203.156 76.7669 202.889 77.1445L202.488 77.7012H207.889V70.6992H204.09Z" fill="white"/>
<path d="M13.3086 4.99609V19H11.8047V6.40234H4.01172V19H2.50781V4.99609H13.3086ZM19.3633 11.6074C18.6602 12.3496 18.3086 13.2155 18.3086 14.2051C18.3086 15.1882 18.6569 16.0508 19.3535 16.793C20.0566 17.5286 20.8411 17.8965 21.707 17.8965C22.5339 17.8965 23.2728 17.5384 23.9238 16.8223C24.5814 16.0996 24.9102 15.2272 24.9102 14.2051C24.9102 13.1764 24.5814 12.304 23.9238 11.5879C23.2728 10.8652 22.5339 10.5039 21.707 10.5039C20.8411 10.5039 20.0599 10.8717 19.3633 11.6074ZM18.3086 17.4961V23.1992H16.9121V9.40039H18.3086V10.9043C18.3346 10.8652 18.3802 10.8066 18.4453 10.7285C18.5169 10.6439 18.6569 10.5039 18.8652 10.3086C19.0801 10.1133 19.3112 9.94076 19.5586 9.79102C19.806 9.63477 20.1217 9.49805 20.5059 9.38086C20.8965 9.25716 21.2969 9.19531 21.707 9.19531C22.931 9.19531 24.002 9.68685 24.9199 10.6699C25.8444 11.653 26.3066 12.8314 26.3066 14.2051C26.3066 15.5723 25.8477 16.7474 24.9297 17.7305C24.0117 18.707 22.9375 19.1953 21.707 19.1953C21.2969 19.1953 20.8997 19.1367 20.5156 19.0195C20.138 18.9023 19.819 18.7624 19.5586 18.5996C19.2982 18.4368 19.0703 18.2741 18.875 18.1113C18.6862 17.9421 18.543 17.7988 18.4453 17.6816L18.3086 17.4961ZM35.4766 16.8223C36.1602 16.1126 36.502 15.2402 36.502 14.2051C36.502 13.1634 36.1569 12.2878 35.4668 11.5781C34.7832 10.862 33.9596 10.5039 32.9961 10.5039C32.0391 10.5039 31.2155 10.862 30.5254 11.5781C29.8418 12.2878 29.5 13.1602 29.5 14.1953C29.5 15.224 29.8418 16.0996 30.5254 16.8223C31.2155 17.5384 32.0391 17.8965 32.9961 17.8965C33.9596 17.8965 34.7865 17.5384 35.4766 16.8223ZM29.5391 17.75C28.582 16.7865 28.1035 15.6048 28.1035 14.2051C28.1035 12.7988 28.5788 11.6139 29.5293 10.6504C30.4863 9.68034 31.6452 9.19531 33.0059 9.19531C34.3665 9.19531 35.5221 9.68034 36.4727 10.6504C37.4232 11.6139 37.8984 12.7988 37.8984 14.2051C37.8984 15.6048 37.4232 16.7865 36.4727 17.75C35.5221 18.7135 34.3665 19.1953 33.0059 19.1953C31.6452 19.1953 30.4896 18.7135 29.5391 17.75ZM46.8047 9.40039V10.6992H41.8047V19H40.4082V9.40039H46.8047ZM57.1074 14.7227L49.3047 14.7031C49.3568 15.569 49.7116 16.3177 50.3691 16.9492C51.0332 17.5807 51.8112 17.8965 52.7031 17.8965C53.3021 17.8965 53.8587 17.763 54.373 17.4961C54.8874 17.2292 55.252 16.9622 55.4668 16.6953L55.8086 16.3047L56.707 17.2031C56.668 17.2552 56.6094 17.3301 56.5312 17.4277C56.4596 17.5189 56.2969 17.6784 56.043 17.9062C55.7956 18.1276 55.5254 18.3262 55.2324 18.502C54.946 18.6712 54.5716 18.8307 54.1094 18.9805C53.6536 19.1237 53.1849 19.1953 52.7031 19.1953C51.3945 19.1953 50.2682 18.7103 49.3242 17.7402C48.3802 16.7637 47.9082 15.582 47.9082 14.1953C47.9082 12.8086 48.3737 11.6302 49.3047 10.6602C50.2422 9.68359 51.3424 9.19531 52.6055 9.19531C53.9141 9.19531 55.0078 9.65104 55.8867 10.5625C56.7656 11.4674 57.2051 12.6133 57.2051 14L57.1074 14.7227ZM54.7637 11.3535C54.1647 10.7871 53.4453 10.5039 52.6055 10.5039C51.7656 10.5039 51.0332 10.8001 50.4082 11.3926C49.7832 11.985 49.4154 12.6882 49.3047 13.502H55.8086C55.7044 12.6361 55.3561 11.9199 54.7637 11.3535ZM60.418 17.7305C59.474 16.7604 59.002 15.582 59.002 14.1953C59.002 12.8086 59.474 11.6302 60.418 10.6602C61.3685 9.68359 62.4948 9.19531 63.7969 9.19531C64.5456 9.19531 65.2422 9.35807 65.8867 9.68359C66.5378 10.0026 67.0033 10.3216 67.2832 10.6406L67.7031 11.0996L66.6973 12.0957C66.6712 12.0566 66.6322 12.0013 66.5801 11.9297C66.528 11.8581 66.4108 11.7279 66.2285 11.5391C66.0527 11.3503 65.8607 11.1875 65.6523 11.0508C65.444 10.9076 65.1738 10.7806 64.8418 10.6699C64.5098 10.5592 64.1615 10.5039 63.7969 10.5039C62.8789 10.5039 62.0814 10.862 61.4043 11.5781C60.7337 12.2878 60.3984 13.1634 60.3984 14.2051C60.3984 15.2402 60.7337 16.1159 61.4043 16.832C62.0814 17.5417 62.8789 17.8965 63.7969 17.8965C64.3568 17.8965 64.8874 17.763 65.3887 17.4961C65.89 17.2292 66.2546 16.9622 66.4824 16.6953L66.8047 16.3047L67.8008 17.2031C67.7617 17.2552 67.6999 17.3301 67.6152 17.4277C67.5371 17.5189 67.3678 17.6784 67.1074 17.9062C66.847 18.1276 66.5736 18.3262 66.2871 18.502C66.0007 18.6712 65.6296 18.8307 65.1738 18.9805C64.7246 19.1237 64.2656 19.1953 63.7969 19.1953C62.4883 19.1953 61.362 18.707 60.418 17.7305ZM68.7969 10.6992V9.40039H76.9902V10.6992H73.5918V19H72.1953V10.6992H68.7969ZM87.498 14.7227L79.6953 14.7031C79.7474 15.569 80.1022 16.3177 80.7598 16.9492C81.4238 17.5807 82.2018 17.8965 83.0938 17.8965C83.6927 17.8965 84.2493 17.763 84.7637 17.4961C85.278 17.2292 85.6426 16.9622 85.8574 16.6953L86.1992 16.3047L87.0977 17.2031C87.0586 17.2552 87 17.3301 86.9219 17.4277C86.8503 17.5189 86.6875 17.6784 86.4336 17.9062C86.1862 18.1276 85.916 18.3262 85.623 18.502C85.3366 18.6712 84.9622 18.8307 84.5 18.9805C84.0443 19.1237 83.5755 19.1953 83.0938 19.1953C81.7852 19.1953 80.6589 18.7103 79.7148 17.7402C78.7708 16.7637 78.2988 15.582 78.2988 14.1953C78.2988 12.8086 78.7643 11.6302 79.6953 10.6602C80.6328 9.68359 81.7331 9.19531 82.9961 9.19531C84.3047 9.19531 85.3984 9.65104 86.2773 10.5625C87.1562 11.4674 87.5957 12.6133 87.5957 14L87.498 14.7227ZM85.1543 11.3535C84.5553 10.7871 83.8359 10.5039 82.9961 10.5039C82.1562 10.5039 81.4238 10.8001 80.7988 11.3926C80.1738 11.985 79.806 12.6882 79.6953 13.502H86.1992C86.0951 12.6361 85.7467 11.9199 85.1543 11.3535ZM92.5469 11.6074C91.8438 12.3496 91.4922 13.2155 91.4922 14.2051C91.4922 15.1882 91.8405 16.0508 92.5371 16.793C93.2402 17.5286 94.0247 17.8965 94.8906 17.8965C95.7174 17.8965 96.4564 17.5384 97.1074 16.8223C97.765 16.0996 98.0938 15.2272 98.0938 14.2051C98.0938 13.1764 97.765 12.304 97.1074 11.5879C96.4564 10.8652 95.7174 10.5039 94.8906 10.5039C94.0247 10.5039 93.2435 10.8717 92.5469 11.6074ZM91.4922 17.4961V23.1992H90.0957V9.40039H91.4922V10.9043C91.5182 10.8652 91.5638 10.8066 91.6289 10.7285C91.7005 10.6439 91.8405 10.5039 92.0488 10.3086C92.2637 10.1133 92.4948 9.94076 92.7422 9.79102C92.9896 9.63477 93.3053 9.49805 93.6895 9.38086C94.0801 9.25716 94.4805 9.19531 94.8906 9.19531C96.1146 9.19531 97.1855 9.68685 98.1035 10.6699C99.028 11.653 99.4902 12.8314 99.4902 14.2051C99.4902 15.5723 99.0312 16.7474 98.1133 17.7305C97.1953 18.707 96.1211 19.1953 94.8906 19.1953C94.4805 19.1953 94.0833 19.1367 93.6992 19.0195C93.3216 18.9023 93.0026 18.7624 92.7422 18.5996C92.4818 18.4368 92.2539 18.2741 92.0586 18.1113C91.8698 17.9421 91.7266 17.7988 91.6289 17.6816L91.4922 17.4961ZM108.66 16.8223C109.344 16.1126 109.686 15.2402 109.686 14.2051C109.686 13.1634 109.34 12.2878 108.65 11.5781C107.967 10.862 107.143 10.5039 106.18 10.5039C105.223 10.5039 104.399 10.862 103.709 11.5781C103.025 12.2878 102.684 13.1602 102.684 14.1953C102.684 15.224 103.025 16.0996 103.709 16.8223C104.399 17.5384 105.223 17.8965 106.18 17.8965C107.143 17.8965 107.97 17.5384 108.66 16.8223ZM102.723 17.75C101.766 16.7865 101.287 15.6048 101.287 14.2051C101.287 12.7988 101.762 11.6139 102.713 10.6504C103.67 9.68034 104.829 9.19531 106.189 9.19531C107.55 9.19531 108.706 9.68034 109.656 10.6504C110.607 11.6139 111.082 12.7988 111.082 14.2051C111.082 15.6048 110.607 16.7865 109.656 17.75C108.706 18.7135 107.55 19.1953 106.189 19.1953C104.829 19.1953 103.673 18.7135 102.723 17.75ZM120.486 19V14.8008H114.988V19H113.592V9.40039H114.988V13.502H120.486V9.40039H121.893V19H120.486Z" fill="white"/>
</svg>
