<svg width="274" height="184" viewBox="0 0 274 184" fill="none" xmlns="http://www.w3.org/2000/svg">
<path d="M24.5 171.5C24.5 178.127 19.1274 183.5 12.5 183.5C5.87258 183.5 0.5 178.127 0.5 171.5C0.5 164.873 5.87258 159.5 12.5 159.5C19.1274 159.5 24.5 164.873 24.5 171.5Z" fill="#38BEBD" stroke="white"/>
<path d="M24.5 12.5C24.5 19.1274 19.1274 24.5 12.5 24.5C5.87258 24.5 0.5 19.1274 0.5 12.5C0.5 5.87258 5.87258 0.5 12.5 0.5C19.1274 0.5 24.5 5.87258 24.5 12.5Z" fill="#EDC41F" stroke="white"/>
<path d="M24.5 65.5C24.5 72.1274 19.1274 77.5 12.5 77.5C5.87258 77.5 0.5 72.1274 0.5 65.5C0.5 58.8726 5.87258 53.5 12.5 53.5C19.1274 53.5 24.5 58.8726 24.5 65.5Z" fill="#32AD28" stroke="white"/>
<path d="M24.5 118.5C24.5 125.127 19.1274 130.5 12.5 130.5C5.87258 130.5 0.5 125.127 0.5 118.5C0.5 111.873 5.87258 106.5 12.5 106.5C19.1274 106.5 24.5 111.873 24.5 118.5Z" fill="#D73030" stroke="white"/>
<path d="M56.9355 7.60352L51.3301 14.9961L45.7344 7.60352V19H44.2305V4.99609H45.5293L51.3301 12.6035L57.1309 4.99609H58.4297V19H56.9355V7.60352ZM69.2305 9.40039H70.4316V19H69.0254V11.8027L63.2246 19H62.0332V9.40039H63.4297V16.5977L69.2305 9.40039ZM80.5293 19V14.8008H75.0312V19H73.6348V9.40039H75.0312V13.502H80.5293V9.40039H81.9355V19H80.5293ZM93.6348 14.7227L85.832 14.7031C85.8841 15.569 86.2389 16.3177 86.8965 16.9492C87.5605 17.5807 88.3385 17.8965 89.2305 17.8965C89.8294 17.8965 90.3861 17.763 90.9004 17.4961C91.4147 17.2292 91.7793 16.9622 91.9941 16.6953L92.3359 16.3047L93.2344 17.2031C93.1953 17.2552 93.1367 17.3301 93.0586 17.4277C92.987 17.5189 92.8242 17.6784 92.5703 17.9062C92.3229 18.1276 92.0527 18.3262 91.7598 18.502C91.4733 18.6712 91.099 18.8307 90.6367 18.9805C90.181 19.1237 89.7122 19.1953 89.2305 19.1953C87.9219 19.1953 86.7956 18.7103 85.8516 17.7402C84.9076 16.7637 84.4355 15.582 84.4355 14.1953C84.4355 12.8086 84.901 11.6302 85.832 10.6602C86.7695 9.68359 87.8698 9.19531 89.1328 9.19531C90.4414 9.19531 91.5352 9.65104 92.4141 10.5625C93.293 11.4674 93.7324 12.6133 93.7324 14L93.6348 14.7227ZM91.291 11.3535C90.6921 10.7871 89.9727 10.5039 89.1328 10.5039C88.293 10.5039 87.5605 10.8001 86.9355 11.3926C86.3105 11.985 85.9427 12.6882 85.832 13.502H92.3359C92.2318 12.6361 91.8835 11.9199 91.291 11.3535ZM98.6836 11.6074C97.9805 12.3496 97.6289 13.2155 97.6289 14.2051C97.6289 15.1882 97.9772 16.0508 98.6738 16.793C99.377 17.5286 100.161 17.8965 101.027 17.8965C101.854 17.8965 102.593 17.5384 103.244 16.8223C103.902 16.0996 104.23 15.2272 104.23 14.2051C104.23 13.1764 103.902 12.304 103.244 11.5879C102.593 10.8652 101.854 10.5039 101.027 10.5039C100.161 10.5039 99.3802 10.8717 98.6836 11.6074ZM97.6289 17.4961V23.1992H96.2324V9.40039H97.6289V10.9043C97.6549 10.8652 97.7005 10.8066 97.7656 10.7285C97.8372 10.6439 97.9772 10.5039 98.1855 10.3086C98.4004 10.1133 98.6315 9.94076 98.8789 9.79102C99.1263 9.63477 99.4421 9.49805 99.8262 9.38086C100.217 9.25716 100.617 9.19531 101.027 9.19531C102.251 9.19531 103.322 9.68685 104.24 10.6699C105.165 11.653 105.627 12.8314 105.627 14.2051C105.627 15.5723 105.168 16.7474 104.25 17.7305C103.332 18.707 102.258 19.1953 101.027 19.1953C100.617 19.1953 100.22 19.1367 99.8359 19.0195C99.4583 18.9023 99.1393 18.7624 98.8789 18.5996C98.6185 18.4368 98.3906 18.2741 98.1953 18.1113C98.0065 17.9421 97.8633 17.7988 97.7656 17.6816L97.6289 17.4961ZM110.227 13.502L113.928 12.8965C113.928 12.1868 113.703 11.6107 113.254 11.168C112.805 10.7253 112.229 10.5039 111.525 10.5039C111.018 10.5039 110.539 10.6211 110.09 10.8555C109.647 11.0833 109.325 11.3177 109.123 11.5586L108.82 11.9004L107.922 11.002C107.961 10.9499 108.013 10.8848 108.078 10.8066C108.15 10.722 108.299 10.5788 108.527 10.377C108.762 10.1686 109.006 9.98307 109.26 9.82031C109.514 9.65755 109.846 9.51432 110.256 9.39062C110.673 9.26042 111.096 9.19531 111.525 9.19531C112.619 9.19531 113.524 9.55013 114.24 10.2598C114.963 10.9694 115.324 11.8483 115.324 12.8965V19H113.928V17.7012C113.902 17.7402 113.859 17.7956 113.801 17.8672C113.749 17.9323 113.625 18.0527 113.43 18.2285C113.241 18.3978 113.036 18.5508 112.814 18.6875C112.593 18.8177 112.3 18.9349 111.936 19.0391C111.577 19.1432 111.206 19.1953 110.822 19.1953C109.865 19.1953 109.058 18.9121 108.4 18.3457C107.749 17.7793 107.424 17.1315 107.424 16.4023C107.424 15.6016 107.665 14.957 108.146 14.4688C108.628 13.974 109.322 13.6517 110.227 13.502ZM110.822 17.8965C111.727 17.8965 112.469 17.6003 113.049 17.0078C113.635 16.4154 113.928 15.6471 113.928 14.7031V14.0977L110.627 14.7031C109.429 14.931 108.827 15.4974 108.82 16.4023C108.82 16.832 108.996 17.1901 109.348 17.4766C109.706 17.7565 110.197 17.8965 110.822 17.8965ZM119.514 9.40039H126.516V19H125.109V10.6992H120.91V12.2031C120.91 13.6159 120.839 14.7943 120.695 15.7383C120.559 16.6758 120.35 17.3919 120.07 17.8867C119.79 18.375 119.481 18.7168 119.143 18.9121C118.804 19.1009 118.394 19.1953 117.912 19.1953C117.749 19.1953 117.583 19.179 117.414 19.1465C117.251 19.1139 117.131 19.0781 117.053 19.0391L116.916 19V17.6035C117.183 17.7337 117.45 17.7988 117.717 17.7988C118.127 17.7988 118.449 17.6816 118.684 17.4473C118.918 17.2129 119.113 16.6725 119.27 15.8262C119.432 14.9798 119.514 13.7721 119.514 12.2031V9.40039ZM136.379 16.8223C137.062 16.1126 137.404 15.2402 137.404 14.2051C137.404 13.1634 137.059 12.2878 136.369 11.5781C135.686 10.862 134.862 10.5039 133.898 10.5039C132.941 10.5039 132.118 10.862 131.428 11.5781C130.744 12.2878 130.402 13.1602 130.402 14.1953C130.402 15.224 130.744 16.0996 131.428 16.8223C132.118 17.5384 132.941 17.8965 133.898 17.8965C134.862 17.8965 135.689 17.5384 136.379 16.8223ZM130.441 17.75C129.484 16.7865 129.006 15.6048 129.006 14.2051C129.006 12.7988 129.481 11.6139 130.432 10.6504C131.389 9.68034 132.548 9.19531 133.908 9.19531C135.269 9.19531 136.424 9.68034 137.375 10.6504C138.326 11.6139 138.801 12.7988 138.801 14.2051C138.801 15.6048 138.326 16.7865 137.375 17.75C136.424 18.7135 135.269 19.1953 133.908 19.1953C132.548 19.1953 131.392 18.7135 130.441 17.75ZM142.707 16.3047V19H141.311V9.40039H142.707V14.498L147.502 9.40039H149.211L145.51 13.2969L149.611 19H148.01L144.611 14.3027L142.707 16.3047ZM157.668 16.8223C158.352 16.1126 158.693 15.2402 158.693 14.2051C158.693 13.1634 158.348 12.2878 157.658 11.5781C156.975 10.862 156.151 10.5039 155.188 10.5039C154.23 10.5039 153.407 10.862 152.717 11.5781C152.033 12.2878 151.691 13.1602 151.691 14.1953C151.691 15.224 152.033 16.0996 152.717 16.8223C153.407 17.5384 154.23 17.8965 155.188 17.8965C156.151 17.8965 156.978 17.5384 157.668 16.8223ZM151.73 17.75C150.773 16.7865 150.295 15.6048 150.295 14.2051C150.295 12.7988 150.77 11.6139 151.721 10.6504C152.678 9.68034 153.837 9.19531 155.197 9.19531C156.558 9.19531 157.714 9.68034 158.664 10.6504C159.615 11.6139 160.09 12.7988 160.09 14.2051C160.09 15.6048 159.615 16.7865 158.664 17.75C157.714 18.7135 156.558 19.1953 155.197 19.1953C153.837 19.1953 152.681 18.7135 151.73 17.75ZM165.051 11.6074C164.348 12.3496 163.996 13.2155 163.996 14.2051C163.996 15.1882 164.344 16.0508 165.041 16.793C165.744 17.5286 166.529 17.8965 167.395 17.8965C168.221 17.8965 168.96 17.5384 169.611 16.8223C170.269 16.0996 170.598 15.2272 170.598 14.2051C170.598 13.1764 170.269 12.304 169.611 11.5879C168.96 10.8652 168.221 10.5039 167.395 10.5039C166.529 10.5039 165.747 10.8717 165.051 11.6074ZM163.996 17.4961V23.1992H162.6V9.40039H163.996V10.9043C164.022 10.8652 164.068 10.8066 164.133 10.7285C164.204 10.6439 164.344 10.5039 164.553 10.3086C164.768 10.1133 164.999 9.94076 165.246 9.79102C165.493 9.63477 165.809 9.49805 166.193 9.38086C166.584 9.25716 166.984 9.19531 167.395 9.19531C168.618 9.19531 169.689 9.68685 170.607 10.6699C171.532 11.653 171.994 12.8314 171.994 14.2051C171.994 15.5723 171.535 16.7474 170.617 17.7305C169.699 18.707 168.625 19.1953 167.395 19.1953C166.984 19.1953 166.587 19.1367 166.203 19.0195C165.826 18.9023 165.507 18.7624 165.246 18.5996C164.986 18.4368 164.758 18.2741 164.562 18.1113C164.374 17.9421 164.23 17.7988 164.133 17.6816L163.996 17.4961ZM173.293 10.6992V9.40039H181.486V10.6992H178.088V19H176.691V10.6992H173.293ZM190.695 9.40039H191.896V19H190.49V11.8027L184.689 19H183.498V9.40039H184.895V16.5977L190.695 9.40039ZM196.496 16.3047V19H195.1V9.40039H196.496V14.498L201.291 9.40039H203L199.299 13.2969L203.4 19H201.799L198.4 14.3027L196.496 16.3047ZM211.457 16.8223C212.141 16.1126 212.482 15.2402 212.482 14.2051C212.482 13.1634 212.137 12.2878 211.447 11.5781C210.764 10.862 209.94 10.5039 208.977 10.5039C208.02 10.5039 207.196 10.862 206.506 11.5781C205.822 12.2878 205.48 13.1602 205.48 14.1953C205.48 15.224 205.822 16.0996 206.506 16.8223C207.196 17.5384 208.02 17.8965 208.977 17.8965C209.94 17.8965 210.767 17.5384 211.457 16.8223ZM205.52 17.75C204.562 16.7865 204.084 15.6048 204.084 14.2051C204.084 12.7988 204.559 11.6139 205.51 10.6504C206.467 9.68034 207.626 9.19531 208.986 9.19531C210.347 9.19531 211.503 9.68034 212.453 10.6504C213.404 11.6139 213.879 12.7988 213.879 14.2051C213.879 15.6048 213.404 16.7865 212.453 17.75C211.503 18.7135 210.347 19.1953 208.986 19.1953C207.626 19.1953 206.47 18.7135 205.52 17.75ZM223.586 9.40039H224.787V19H223.381V11.8027L217.58 19H216.389V9.40039H217.785V16.5977L223.586 9.40039ZM236.887 17.7012V21.4023H235.49V19H227.785V21.4023H226.389V17.7012H227.082C227.121 17.6621 227.18 17.597 227.258 17.5059C227.342 17.4082 227.482 17.1934 227.678 16.8613C227.873 16.5293 228.046 16.1712 228.195 15.7871C228.352 15.3965 228.488 14.8789 228.605 14.2344C228.729 13.5833 228.791 12.9062 228.791 12.2031V9.40039H235.383V17.7012H236.887ZM230.188 10.6992V12.2031C230.188 13.2969 230.054 14.2995 229.787 15.2109C229.52 16.1224 229.253 16.7669 228.986 17.1445L228.586 17.7012H233.986V10.6992H230.188ZM245.979 19V14.8008H240.48V19H239.084V9.40039H240.48V13.502H245.979V9.40039H247.385V19H245.979ZM261.086 9.40039V19H259.68V9.40039H261.086ZM251.984 17.7012H254.406C255.031 17.7012 255.533 17.5254 255.91 17.1738C256.294 16.8158 256.486 16.3568 256.486 15.7969C256.486 15.237 256.294 14.7812 255.91 14.4297C255.533 14.0781 255.025 13.9023 254.387 13.9023H251.984V17.7012ZM256.945 13.4824C257.57 14.0684 257.883 14.8431 257.883 15.8066C257.883 16.7637 257.574 17.5352 256.955 18.1211C256.337 18.707 255.487 19 254.406 19H250.588V9.40039H251.984V12.6035H254.387C255.467 12.6035 256.32 12.8965 256.945 13.4824ZM272.775 14.7227L264.973 14.7031C265.025 15.569 265.38 16.3177 266.037 16.9492C266.701 17.5807 267.479 17.8965 268.371 17.8965C268.97 17.8965 269.527 17.763 270.041 17.4961C270.555 17.2292 270.92 16.9622 271.135 16.6953L271.477 16.3047L272.375 17.2031C272.336 17.2552 272.277 17.3301 272.199 17.4277C272.128 17.5189 271.965 17.6784 271.711 17.9062C271.464 18.1276 271.193 18.3262 270.9 18.502C270.614 18.6712 270.24 18.8307 269.777 18.9805C269.322 19.1237 268.853 19.1953 268.371 19.1953C267.062 19.1953 265.936 18.7103 264.992 17.7402C264.048 16.7637 263.576 15.582 263.576 14.1953C263.576 12.8086 264.042 11.6302 264.973 10.6602C265.91 9.68359 267.01 9.19531 268.273 9.19531C269.582 9.19531 270.676 9.65104 271.555 10.5625C272.434 11.4674 272.873 12.6133 272.873 14L272.775 14.7227ZM270.432 11.3535C269.833 10.7871 269.113 10.5039 268.273 10.5039C267.434 10.5039 266.701 10.8001 266.076 11.3926C265.451 11.985 265.083 12.6882 264.973 13.502H271.477C271.372 12.6361 271.024 11.9199 270.432 11.3535Z" fill="white"/>
<path d="M51.8594 66.6973L49.1641 60.0957L46.459 66.6973H51.8594ZM52.4648 68.1035H45.8633L44.2617 72H42.6602L48.4609 57.9961H49.8574L55.6582 72H54.0664L52.4648 68.1035ZM64.5645 72V67.8008H59.0664V72H57.6699V62.4004H59.0664V66.502H64.5645V62.4004H65.9707V72H64.5645ZM78.0703 70.7012V74.4023H76.6738V72H68.9688V74.4023H67.5723V70.7012H68.2656C68.3047 70.6621 68.3633 70.597 68.4414 70.5059C68.526 70.4082 68.666 70.1934 68.8613 69.8613C69.0566 69.5293 69.2292 69.1712 69.3789 68.7871C69.5352 68.3965 69.6719 67.8789 69.7891 67.2344C69.9128 66.5833 69.9746 65.9062 69.9746 65.2031V62.4004H76.5664V70.7012H78.0703ZM71.3711 63.6992V65.2031C71.3711 66.2969 71.2376 67.2995 70.9707 68.2109C70.7038 69.1224 70.4368 69.7669 70.1699 70.1445L69.7695 70.7012H75.1699V63.6992H71.3711ZM82.7188 64.6074C82.0156 65.3496 81.6641 66.2155 81.6641 67.2051C81.6641 68.1882 82.0124 69.0508 82.709 69.793C83.4121 70.5286 84.1966 70.8965 85.0625 70.8965C85.8893 70.8965 86.6283 70.5384 87.2793 69.8223C87.9368 69.0996 88.2656 68.2272 88.2656 67.2051C88.2656 66.1764 87.9368 65.304 87.2793 64.5879C86.6283 63.8652 85.8893 63.5039 85.0625 63.5039C84.1966 63.5039 83.4154 63.8717 82.7188 64.6074ZM81.6641 70.4961V76.1992H80.2676V62.4004H81.6641V63.9043C81.6901 63.8652 81.7357 63.8066 81.8008 63.7285C81.8724 63.6439 82.0124 63.5039 82.2207 63.3086C82.4355 63.1133 82.6667 62.9408 82.9141 62.791C83.1615 62.6348 83.4772 62.498 83.8613 62.3809C84.252 62.2572 84.6523 62.1953 85.0625 62.1953C86.2865 62.1953 87.3574 62.6868 88.2754 63.6699C89.1999 64.653 89.6621 65.8314 89.6621 67.2051C89.6621 68.5723 89.2031 69.7474 88.2852 70.7305C87.3672 71.707 86.293 72.1953 85.0625 72.1953C84.6523 72.1953 84.2552 72.1367 83.8711 72.0195C83.4935 71.9023 83.1745 71.7624 82.9141 71.5996C82.6536 71.4368 82.4258 71.2741 82.2305 71.1113C82.0417 70.9421 81.8984 70.7988 81.8008 70.6816L81.6641 70.4961ZM98.832 69.8223C99.5156 69.1126 99.8574 68.2402 99.8574 67.2051C99.8574 66.1634 99.5124 65.2878 98.8223 64.5781C98.1387 63.862 97.3151 63.5039 96.3516 63.5039C95.3945 63.5039 94.571 63.862 93.8809 64.5781C93.1973 65.2878 92.8555 66.1602 92.8555 67.1953C92.8555 68.224 93.1973 69.0996 93.8809 69.8223C94.571 70.5384 95.3945 70.8965 96.3516 70.8965C97.3151 70.8965 98.1419 70.5384 98.832 69.8223ZM92.8945 70.75C91.9375 69.7865 91.459 68.6048 91.459 67.2051C91.459 65.7988 91.9342 64.6139 92.8848 63.6504C93.8418 62.6803 95.0007 62.1953 96.3613 62.1953C97.722 62.1953 98.8776 62.6803 99.8281 63.6504C100.779 64.6139 101.254 65.7988 101.254 67.2051C101.254 68.6048 100.779 69.7865 99.8281 70.75C98.8776 71.7135 97.722 72.1953 96.3613 72.1953C95.0007 72.1953 93.8451 71.7135 92.8945 70.75ZM110.16 62.4004V63.6992H105.16V72H103.764V62.4004H110.16ZM120.463 67.7227L112.66 67.7031C112.712 68.569 113.067 69.3177 113.725 69.9492C114.389 70.5807 115.167 70.8965 116.059 70.8965C116.658 70.8965 117.214 70.763 117.729 70.4961C118.243 70.2292 118.607 69.9622 118.822 69.6953L119.164 69.3047L120.062 70.2031C120.023 70.2552 119.965 70.3301 119.887 70.4277C119.815 70.5189 119.652 70.6784 119.398 70.9062C119.151 71.1276 118.881 71.3262 118.588 71.502C118.301 71.6712 117.927 71.8307 117.465 71.9805C117.009 72.1237 116.54 72.1953 116.059 72.1953C114.75 72.1953 113.624 71.7103 112.68 70.7402C111.736 69.7637 111.264 68.582 111.264 67.1953C111.264 65.8086 111.729 64.6302 112.66 63.6602C113.598 62.6836 114.698 62.1953 115.961 62.1953C117.27 62.1953 118.363 62.651 119.242 63.5625C120.121 64.4674 120.561 65.6133 120.561 67L120.463 67.7227ZM118.119 64.3535C117.52 63.7871 116.801 63.5039 115.961 63.5039C115.121 63.5039 114.389 63.8001 113.764 64.3926C113.139 64.985 112.771 65.6882 112.66 66.502H119.164C119.06 65.6361 118.712 64.9199 118.119 64.3535ZM129.955 72V67.8008H124.457V72H123.061V62.4004H124.457V66.502H129.955V62.4004H131.361V72H129.955ZM141.234 69.8223C141.918 69.1126 142.26 68.2402 142.26 67.2051C142.26 66.1634 141.915 65.2878 141.225 64.5781C140.541 63.862 139.717 63.5039 138.754 63.5039C137.797 63.5039 136.973 63.862 136.283 64.5781C135.6 65.2878 135.258 66.1602 135.258 67.1953C135.258 68.224 135.6 69.0996 136.283 69.8223C136.973 70.5384 137.797 70.8965 138.754 70.8965C139.717 70.8965 140.544 70.5384 141.234 69.8223ZM135.297 70.75C134.34 69.7865 133.861 68.6048 133.861 67.2051C133.861 65.7988 134.337 64.6139 135.287 63.6504C136.244 62.6803 137.403 62.1953 138.764 62.1953C140.124 62.1953 141.28 62.6803 142.23 63.6504C143.181 64.6139 143.656 65.7988 143.656 67.2051C143.656 68.6048 143.181 69.7865 142.23 70.75C141.28 71.7135 140.124 72.1953 138.764 72.1953C137.403 72.1953 136.247 71.7135 135.297 70.75ZM146.166 62.4004H150.561C151.439 62.4004 152.143 62.638 152.67 63.1133C153.197 63.582 153.461 64.1777 153.461 64.9004C153.461 65.3105 153.36 65.6849 153.158 66.0234C152.963 66.3555 152.764 66.5866 152.562 66.7168L152.26 66.9023C152.299 66.9154 152.354 66.9349 152.426 66.9609C152.504 66.987 152.634 67.0586 152.816 67.1758C153.005 67.2865 153.168 67.4199 153.305 67.5762C153.448 67.7259 153.575 67.944 153.686 68.2305C153.803 68.5169 153.861 68.8392 153.861 69.1973C153.861 70.0632 153.591 70.7467 153.051 71.248C152.51 71.7493 151.749 72 150.766 72H146.166V62.4004ZM150.766 67.498H147.562V70.7012H150.766C151.312 70.7012 151.732 70.5612 152.025 70.2812C152.318 70.0013 152.465 69.6074 152.465 69.0996C152.465 68.5918 152.318 68.1979 152.025 67.918C151.732 67.638 151.312 67.498 150.766 67.498ZM150.561 66.2969C151.563 66.2969 152.064 65.8639 152.064 64.998C152.064 64.1322 151.563 63.6992 150.561 63.6992H147.562V66.2969H150.561ZM167.055 62.4004V72H165.648V62.4004H167.055ZM157.953 70.7012H160.375C161 70.7012 161.501 70.5254 161.879 70.1738C162.263 69.8158 162.455 69.3568 162.455 68.7969C162.455 68.237 162.263 67.7812 161.879 67.4297C161.501 67.0781 160.993 66.9023 160.355 66.9023H157.953V70.7012ZM162.914 66.4824C163.539 67.0684 163.852 67.8431 163.852 68.8066C163.852 69.7637 163.542 70.5352 162.924 71.1211C162.305 71.707 161.456 72 160.375 72H156.557V62.4004H157.953V65.6035H160.355C161.436 65.6035 162.289 65.8965 162.914 66.4824ZM178.744 67.7227L170.941 67.7031C170.993 68.569 171.348 69.3177 172.006 69.9492C172.67 70.5807 173.448 70.8965 174.34 70.8965C174.939 70.8965 175.495 70.763 176.01 70.4961C176.524 70.2292 176.889 69.9622 177.104 69.6953L177.445 69.3047L178.344 70.2031C178.305 70.2552 178.246 70.3301 178.168 70.4277C178.096 70.5189 177.934 70.6784 177.68 70.9062C177.432 71.1276 177.162 71.3262 176.869 71.502C176.583 71.6712 176.208 71.8307 175.746 71.9805C175.29 72.1237 174.822 72.1953 174.34 72.1953C173.031 72.1953 171.905 71.7103 170.961 70.7402C170.017 69.7637 169.545 68.582 169.545 67.1953C169.545 65.8086 170.01 64.6302 170.941 63.6602C171.879 62.6836 172.979 62.1953 174.242 62.1953C175.551 62.1953 176.645 62.651 177.523 63.5625C178.402 64.4674 178.842 65.6133 178.842 67L178.744 67.7227ZM176.4 64.3535C175.801 63.7871 175.082 63.5039 174.242 63.5039C173.402 63.5039 172.67 63.8001 172.045 64.3926C171.42 64.985 171.052 65.6882 170.941 66.502H177.445C177.341 65.6361 176.993 64.9199 176.4 64.3535Z" fill="white"/>
<path d="M44.4727 178V163.996H53.1738V165.402H45.9766V178H44.4727ZM54.2676 168.4H61.2695V178H59.8633V169.699H55.6641V171.203C55.6641 172.616 55.5924 173.794 55.4492 174.738C55.3125 175.676 55.1042 176.392 54.8242 176.887C54.5443 177.375 54.235 177.717 53.8965 177.912C53.5579 178.101 53.1478 178.195 52.666 178.195C52.5033 178.195 52.3372 178.179 52.168 178.146C52.0052 178.114 51.8848 178.078 51.8066 178.039L51.6699 178V176.604C51.9368 176.734 52.2038 176.799 52.4707 176.799C52.8809 176.799 53.2031 176.682 53.4375 176.447C53.6719 176.213 53.8672 175.673 54.0234 174.826C54.1862 173.98 54.2676 172.772 54.2676 171.203V168.4ZM76.1426 169.65C77.0866 170.627 77.5586 171.809 77.5586 173.195C77.5586 174.582 77.0833 175.764 76.1328 176.74C75.1888 177.71 74.0658 178.195 72.7637 178.195C71.5397 178.195 70.4688 177.769 69.5508 176.916C68.6393 176.063 68.1087 175.025 67.959 173.801H65.8594V178H64.4629V168.4H65.8594V172.502H67.959C68.1217 171.33 68.6556 170.321 69.5605 169.475C70.4655 168.622 71.5332 168.195 72.7637 168.195C74.0723 168.195 75.1986 168.68 76.1426 169.65ZM70.3711 170.568C69.694 171.285 69.3555 172.163 69.3555 173.205C69.3555 174.24 69.6908 175.116 70.3613 175.832C71.0384 176.542 71.8359 176.896 72.7539 176.896C73.6784 176.896 74.4759 176.542 75.1465 175.832C75.8236 175.116 76.1621 174.24 76.1621 173.205C76.1621 172.163 75.8236 171.288 75.1465 170.578C74.4759 169.862 73.6784 169.504 72.7539 169.504C71.8359 169.504 71.0417 169.859 70.3711 170.568ZM81.4648 175.305V178H80.0684V168.4H81.4648V173.498L86.2598 168.4H87.9688L84.2676 172.297L88.3691 178H86.7676L83.3691 173.303L81.4648 175.305ZM96.4258 175.822C97.1094 175.113 97.4512 174.24 97.4512 173.205C97.4512 172.163 97.1061 171.288 96.416 170.578C95.7324 169.862 94.9089 169.504 93.9453 169.504C92.9883 169.504 92.1647 169.862 91.4746 170.578C90.791 171.288 90.4492 172.16 90.4492 173.195C90.4492 174.224 90.791 175.1 91.4746 175.822C92.1647 176.538 92.9883 176.896 93.9453 176.896C94.9089 176.896 95.7357 176.538 96.4258 175.822ZM90.4883 176.75C89.5312 175.786 89.0527 174.605 89.0527 173.205C89.0527 171.799 89.528 170.614 90.4785 169.65C91.4355 168.68 92.5944 168.195 93.9551 168.195C95.3158 168.195 96.4714 168.68 97.4219 169.65C98.3724 170.614 98.8477 171.799 98.8477 173.205C98.8477 174.605 98.3724 175.786 97.4219 176.75C96.4714 177.714 95.3158 178.195 93.9551 178.195C92.5944 178.195 91.4388 177.714 90.4883 176.75ZM103.809 170.607C103.105 171.35 102.754 172.215 102.754 173.205C102.754 174.188 103.102 175.051 103.799 175.793C104.502 176.529 105.286 176.896 106.152 176.896C106.979 176.896 107.718 176.538 108.369 175.822C109.027 175.1 109.355 174.227 109.355 173.205C109.355 172.176 109.027 171.304 108.369 170.588C107.718 169.865 106.979 169.504 106.152 169.504C105.286 169.504 104.505 169.872 103.809 170.607ZM102.754 176.496V182.199H101.357V168.4H102.754V169.904C102.78 169.865 102.826 169.807 102.891 169.729C102.962 169.644 103.102 169.504 103.311 169.309C103.525 169.113 103.757 168.941 104.004 168.791C104.251 168.635 104.567 168.498 104.951 168.381C105.342 168.257 105.742 168.195 106.152 168.195C107.376 168.195 108.447 168.687 109.365 169.67C110.29 170.653 110.752 171.831 110.752 173.205C110.752 174.572 110.293 175.747 109.375 176.73C108.457 177.707 107.383 178.195 106.152 178.195C105.742 178.195 105.345 178.137 104.961 178.02C104.583 177.902 104.264 177.762 104.004 177.6C103.743 177.437 103.516 177.274 103.32 177.111C103.132 176.942 102.988 176.799 102.891 176.682L102.754 176.496ZM112.051 169.699V168.4H120.244V169.699H116.846V178H115.449V169.699H112.051ZM129.453 168.4H130.654V178H129.248V170.803L123.447 178H122.256V168.4H123.652V175.598L129.453 168.4ZM135.254 175.305V178H133.857V168.4H135.254V173.498L140.049 168.4H141.758L138.057 172.297L142.158 178H140.557L137.158 173.303L135.254 175.305ZM150.215 175.822C150.898 175.113 151.24 174.24 151.24 173.205C151.24 172.163 150.895 171.288 150.205 170.578C149.521 169.862 148.698 169.504 147.734 169.504C146.777 169.504 145.954 169.862 145.264 170.578C144.58 171.288 144.238 172.16 144.238 173.195C144.238 174.224 144.58 175.1 145.264 175.822C145.954 176.538 146.777 176.896 147.734 176.896C148.698 176.896 149.525 176.538 150.215 175.822ZM144.277 176.75C143.32 175.786 142.842 174.605 142.842 173.205C142.842 171.799 143.317 170.614 144.268 169.65C145.225 168.68 146.383 168.195 147.744 168.195C149.105 168.195 150.26 168.68 151.211 169.65C152.161 170.614 152.637 171.799 152.637 173.205C152.637 174.605 152.161 175.786 151.211 176.75C150.26 177.714 149.105 178.195 147.744 178.195C146.383 178.195 145.228 177.714 144.277 176.75ZM162.344 168.4H163.545V178H162.139V170.803L156.338 178H155.146V168.4H156.543V175.598L162.344 168.4ZM175.645 176.701V180.402H174.248V178H166.543V180.402H165.146V176.701H165.84C165.879 176.662 165.938 176.597 166.016 176.506C166.1 176.408 166.24 176.193 166.436 175.861C166.631 175.529 166.803 175.171 166.953 174.787C167.109 174.396 167.246 173.879 167.363 173.234C167.487 172.583 167.549 171.906 167.549 171.203V168.4H174.141V176.701H175.645ZM168.945 169.699V171.203C168.945 172.297 168.812 173.299 168.545 174.211C168.278 175.122 168.011 175.767 167.744 176.145L167.344 176.701H172.744V169.699H168.945ZM184.736 178V173.801H179.238V178H177.842V168.4H179.238V172.502H184.736V168.4H186.143V178H184.736ZM199.844 168.4V178H198.438V168.4H199.844ZM190.742 176.701H193.164C193.789 176.701 194.29 176.525 194.668 176.174C195.052 175.816 195.244 175.357 195.244 174.797C195.244 174.237 195.052 173.781 194.668 173.43C194.29 173.078 193.783 172.902 193.145 172.902H190.742V176.701ZM195.703 172.482C196.328 173.068 196.641 173.843 196.641 174.807C196.641 175.764 196.331 176.535 195.713 177.121C195.094 177.707 194.245 178 193.164 178H189.346V168.4H190.742V171.604H193.145C194.225 171.604 195.078 171.896 195.703 172.482ZM211.533 173.723L203.73 173.703C203.783 174.569 204.137 175.318 204.795 175.949C205.459 176.581 206.237 176.896 207.129 176.896C207.728 176.896 208.285 176.763 208.799 176.496C209.313 176.229 209.678 175.962 209.893 175.695L210.234 175.305L211.133 176.203C211.094 176.255 211.035 176.33 210.957 176.428C210.885 176.519 210.723 176.678 210.469 176.906C210.221 177.128 209.951 177.326 209.658 177.502C209.372 177.671 208.997 177.831 208.535 177.98C208.079 178.124 207.611 178.195 207.129 178.195C205.82 178.195 204.694 177.71 203.75 176.74C202.806 175.764 202.334 174.582 202.334 173.195C202.334 171.809 202.799 170.63 203.73 169.66C204.668 168.684 205.768 168.195 207.031 168.195C208.34 168.195 209.434 168.651 210.312 169.562C211.191 170.467 211.631 171.613 211.631 173L211.533 173.723ZM209.189 170.354C208.59 169.787 207.871 169.504 207.031 169.504C206.191 169.504 205.459 169.8 204.834 170.393C204.209 170.985 203.841 171.688 203.73 172.502H210.234C210.13 171.636 209.782 170.92 209.189 170.354Z" fill="white"/>
<path d="M54.9199 110.996V125H53.416V112.402H45.623V125H44.1191V110.996H54.9199ZM60.9746 117.607C60.2715 118.35 59.9199 119.215 59.9199 120.205C59.9199 121.188 60.2682 122.051 60.9648 122.793C61.668 123.529 62.4525 123.896 63.3184 123.896C64.1452 123.896 64.8841 123.538 65.5352 122.822C66.1927 122.1 66.5215 121.227 66.5215 120.205C66.5215 119.176 66.1927 118.304 65.5352 117.588C64.8841 116.865 64.1452 116.504 63.3184 116.504C62.4525 116.504 61.6712 116.872 60.9746 117.607ZM59.9199 123.496V129.199H58.5234V115.4H59.9199V116.904C59.946 116.865 59.9915 116.807 60.0566 116.729C60.1283 116.644 60.2682 116.504 60.4766 116.309C60.6914 116.113 60.9225 115.941 61.1699 115.791C61.4173 115.635 61.7331 115.498 62.1172 115.381C62.5078 115.257 62.9082 115.195 63.3184 115.195C64.5423 115.195 65.6133 115.687 66.5312 116.67C67.4557 117.653 67.918 118.831 67.918 120.205C67.918 121.572 67.459 122.747 66.541 123.73C65.623 124.707 64.5488 125.195 63.3184 125.195C62.9082 125.195 62.5111 125.137 62.127 125.02C61.7493 124.902 61.4303 124.762 61.1699 124.6C60.9095 124.437 60.6816 124.274 60.4863 124.111C60.2975 123.942 60.1543 123.799 60.0566 123.682L59.9199 123.496ZM77.0879 122.822C77.7715 122.113 78.1133 121.24 78.1133 120.205C78.1133 119.163 77.7682 118.288 77.0781 117.578C76.3945 116.862 75.571 116.504 74.6074 116.504C73.6504 116.504 72.8268 116.862 72.1367 117.578C71.4531 118.288 71.1113 119.16 71.1113 120.195C71.1113 121.224 71.4531 122.1 72.1367 122.822C72.8268 123.538 73.6504 123.896 74.6074 123.896C75.571 123.896 76.3978 123.538 77.0879 122.822ZM71.1504 123.75C70.1934 122.786 69.7148 121.605 69.7148 120.205C69.7148 118.799 70.1901 117.614 71.1406 116.65C72.0977 115.68 73.2565 115.195 74.6172 115.195C75.9779 115.195 77.1335 115.68 78.084 116.65C79.0345 117.614 79.5098 118.799 79.5098 120.205C79.5098 121.605 79.0345 122.786 78.084 123.75C77.1335 124.714 75.9779 125.195 74.6172 125.195C73.2565 125.195 72.1009 124.714 71.1504 123.75ZM88.416 115.4V116.699H83.416V125H82.0195V115.4H88.416ZM98.7188 120.723L90.916 120.703C90.9681 121.569 91.3229 122.318 91.9805 122.949C92.6445 123.581 93.4225 123.896 94.3145 123.896C94.9134 123.896 95.4701 123.763 95.9844 123.496C96.4987 123.229 96.8633 122.962 97.0781 122.695L97.4199 122.305L98.3184 123.203C98.2793 123.255 98.2207 123.33 98.1426 123.428C98.071 123.519 97.9082 123.678 97.6543 123.906C97.4069 124.128 97.1367 124.326 96.8438 124.502C96.5573 124.671 96.1829 124.831 95.7207 124.98C95.265 125.124 94.7962 125.195 94.3145 125.195C93.0059 125.195 91.8796 124.71 90.9355 123.74C89.9915 122.764 89.5195 121.582 89.5195 120.195C89.5195 118.809 89.985 117.63 90.916 116.66C91.8535 115.684 92.9538 115.195 94.2168 115.195C95.5254 115.195 96.6191 115.651 97.498 116.562C98.377 117.467 98.8164 118.613 98.8164 120L98.7188 120.723ZM96.375 117.354C95.776 116.787 95.0566 116.504 94.2168 116.504C93.377 116.504 92.6445 116.8 92.0195 117.393C91.3945 117.985 91.0267 118.688 90.916 119.502H97.4199C97.3158 118.636 96.9674 117.92 96.375 117.354ZM102.029 123.73C101.085 122.76 100.613 121.582 100.613 120.195C100.613 118.809 101.085 117.63 102.029 116.66C102.98 115.684 104.106 115.195 105.408 115.195C106.157 115.195 106.854 115.358 107.498 115.684C108.149 116.003 108.615 116.322 108.895 116.641L109.314 117.1L108.309 118.096C108.283 118.057 108.243 118.001 108.191 117.93C108.139 117.858 108.022 117.728 107.84 117.539C107.664 117.35 107.472 117.188 107.264 117.051C107.055 116.908 106.785 116.781 106.453 116.67C106.121 116.559 105.773 116.504 105.408 116.504C104.49 116.504 103.693 116.862 103.016 117.578C102.345 118.288 102.01 119.163 102.01 120.205C102.01 121.24 102.345 122.116 103.016 122.832C103.693 123.542 104.49 123.896 105.408 123.896C105.968 123.896 106.499 123.763 107 123.496C107.501 123.229 107.866 122.962 108.094 122.695L108.416 122.305L109.412 123.203C109.373 123.255 109.311 123.33 109.227 123.428C109.148 123.519 108.979 123.678 108.719 123.906C108.458 124.128 108.185 124.326 107.898 124.502C107.612 124.671 107.241 124.831 106.785 124.98C106.336 125.124 105.877 125.195 105.408 125.195C104.1 125.195 102.973 124.707 102.029 123.73ZM110.408 116.699V115.4H118.602V116.699H115.203V125H113.807V116.699H110.408ZM129.109 120.723L121.307 120.703C121.359 121.569 121.714 122.318 122.371 122.949C123.035 123.581 123.813 123.896 124.705 123.896C125.304 123.896 125.861 123.763 126.375 123.496C126.889 123.229 127.254 122.962 127.469 122.695L127.811 122.305L128.709 123.203C128.67 123.255 128.611 123.33 128.533 123.428C128.462 123.519 128.299 123.678 128.045 123.906C127.798 124.128 127.527 124.326 127.234 124.502C126.948 124.671 126.574 124.831 126.111 124.98C125.656 125.124 125.187 125.195 124.705 125.195C123.396 125.195 122.27 124.71 121.326 123.74C120.382 122.764 119.91 121.582 119.91 120.195C119.91 118.809 120.376 117.63 121.307 116.66C122.244 115.684 123.344 115.195 124.607 115.195C125.916 115.195 127.01 115.651 127.889 116.562C128.768 117.467 129.207 118.613 129.207 120L129.109 120.723ZM126.766 117.354C126.167 116.787 125.447 116.504 124.607 116.504C123.768 116.504 123.035 116.8 122.41 117.393C121.785 117.985 121.417 118.688 121.307 119.502H127.811C127.706 118.636 127.358 117.92 126.766 117.354ZM134.158 117.607C133.455 118.35 133.104 119.215 133.104 120.205C133.104 121.188 133.452 122.051 134.148 122.793C134.852 123.529 135.636 123.896 136.502 123.896C137.329 123.896 138.068 123.538 138.719 122.822C139.376 122.1 139.705 121.227 139.705 120.205C139.705 119.176 139.376 118.304 138.719 117.588C138.068 116.865 137.329 116.504 136.502 116.504C135.636 116.504 134.855 116.872 134.158 117.607ZM133.104 123.496V129.199H131.707V115.4H133.104V116.904C133.13 116.865 133.175 116.807 133.24 116.729C133.312 116.644 133.452 116.504 133.66 116.309C133.875 116.113 134.106 115.941 134.354 115.791C134.601 115.635 134.917 115.498 135.301 115.381C135.691 115.257 136.092 115.195 136.502 115.195C137.726 115.195 138.797 115.687 139.715 116.67C140.639 117.653 141.102 118.831 141.102 120.205C141.102 121.572 140.643 122.747 139.725 123.73C138.807 124.707 137.732 125.195 136.502 125.195C136.092 125.195 135.695 125.137 135.311 125.02C134.933 124.902 134.614 124.762 134.354 124.6C134.093 124.437 133.865 124.274 133.67 124.111C133.481 123.942 133.338 123.799 133.24 123.682L133.104 123.496ZM150.271 122.822C150.955 122.113 151.297 121.24 151.297 120.205C151.297 119.163 150.952 118.288 150.262 117.578C149.578 116.862 148.755 116.504 147.791 116.504C146.834 116.504 146.01 116.862 145.32 117.578C144.637 118.288 144.295 119.16 144.295 120.195C144.295 121.224 144.637 122.1 145.32 122.822C146.01 123.538 146.834 123.896 147.791 123.896C148.755 123.896 149.581 123.538 150.271 122.822ZM144.334 123.75C143.377 122.786 142.898 121.605 142.898 120.205C142.898 118.799 143.374 117.614 144.324 116.65C145.281 115.68 146.44 115.195 147.801 115.195C149.161 115.195 150.317 115.68 151.268 116.65C152.218 117.614 152.693 118.799 152.693 120.205C152.693 121.605 152.218 122.786 151.268 123.75C150.317 124.714 149.161 125.195 147.801 125.195C146.44 125.195 145.285 124.714 144.334 123.75ZM162.098 125V120.801H156.6V125H155.203V115.4H156.6V119.502H162.098V115.4H163.504V125H162.098ZM173.377 122.822C174.061 122.113 174.402 121.24 174.402 120.205C174.402 119.163 174.057 118.288 173.367 117.578C172.684 116.862 171.86 116.504 170.896 116.504C169.939 116.504 169.116 116.862 168.426 117.578C167.742 118.288 167.4 119.16 167.4 120.195C167.4 121.224 167.742 122.1 168.426 122.822C169.116 123.538 169.939 123.896 170.896 123.896C171.86 123.896 172.687 123.538 173.377 122.822ZM167.439 123.75C166.482 122.786 166.004 121.605 166.004 120.205C166.004 118.799 166.479 117.614 167.43 116.65C168.387 115.68 169.546 115.195 170.906 115.195C172.267 115.195 173.423 115.68 174.373 116.65C175.324 117.614 175.799 118.799 175.799 120.205C175.799 121.605 175.324 122.786 174.373 123.75C173.423 124.714 172.267 125.195 170.906 125.195C169.546 125.195 168.39 124.714 167.439 123.75ZM178.309 115.4H182.703C183.582 115.4 184.285 115.638 184.812 116.113C185.34 116.582 185.604 117.178 185.604 117.9C185.604 118.311 185.503 118.685 185.301 119.023C185.105 119.355 184.907 119.587 184.705 119.717L184.402 119.902C184.441 119.915 184.497 119.935 184.568 119.961C184.646 119.987 184.777 120.059 184.959 120.176C185.148 120.286 185.311 120.42 185.447 120.576C185.59 120.726 185.717 120.944 185.828 121.23C185.945 121.517 186.004 121.839 186.004 122.197C186.004 123.063 185.734 123.747 185.193 124.248C184.653 124.749 183.891 125 182.908 125H178.309V115.4ZM182.908 120.498H179.705V123.701H182.908C183.455 123.701 183.875 123.561 184.168 123.281C184.461 123.001 184.607 122.607 184.607 122.1C184.607 121.592 184.461 121.198 184.168 120.918C183.875 120.638 183.455 120.498 182.908 120.498ZM182.703 119.297C183.706 119.297 184.207 118.864 184.207 117.998C184.207 117.132 183.706 116.699 182.703 116.699H179.705V119.297H182.703ZM199.197 115.4V125H197.791V115.4H199.197ZM190.096 123.701H192.518C193.143 123.701 193.644 123.525 194.021 123.174C194.406 122.816 194.598 122.357 194.598 121.797C194.598 121.237 194.406 120.781 194.021 120.43C193.644 120.078 193.136 119.902 192.498 119.902H190.096V123.701ZM195.057 119.482C195.682 120.068 195.994 120.843 195.994 121.807C195.994 122.764 195.685 123.535 195.066 124.121C194.448 124.707 193.598 125 192.518 125H188.699V115.4H190.096V118.604H192.498C193.579 118.604 194.432 118.896 195.057 119.482ZM210.887 120.723L203.084 120.703C203.136 121.569 203.491 122.318 204.148 122.949C204.812 123.581 205.59 123.896 206.482 123.896C207.081 123.896 207.638 123.763 208.152 123.496C208.667 123.229 209.031 122.962 209.246 122.695L209.588 122.305L210.486 123.203C210.447 123.255 210.389 123.33 210.311 123.428C210.239 123.519 210.076 123.678 209.822 123.906C209.575 124.128 209.305 124.326 209.012 124.502C208.725 124.671 208.351 124.831 207.889 124.98C207.433 125.124 206.964 125.195 206.482 125.195C205.174 125.195 204.048 124.71 203.104 123.74C202.16 122.764 201.688 121.582 201.688 120.195C201.688 118.809 202.153 117.63 203.084 116.66C204.021 115.684 205.122 115.195 206.385 115.195C207.693 115.195 208.787 115.651 209.666 116.562C210.545 117.467 210.984 118.613 210.984 120L210.887 120.723ZM208.543 117.354C207.944 116.787 207.225 116.504 206.385 116.504C205.545 116.504 204.812 116.8 204.188 117.393C203.562 117.985 203.195 118.688 203.084 119.502H209.588C209.484 118.636 209.135 117.92 208.543 117.354Z" fill="white"/>
</svg>
