<svg width="370" height="351" viewBox="0 0 370 351" fill="none" xmlns="http://www.w3.org/2000/svg">
<path d="M124.5 46C124.5 50.1421 121.142 53.5 117 53.5C112.858 53.5 109.5 50.1421 109.5 46C109.5 41.8579 112.858 38.5 117 38.5C121.142 38.5 124.5 41.8579 124.5 46Z" fill="#EDC41F" stroke="white"/>
<path d="M117.5 84C117.5 88.1421 114.142 91.5 110 91.5C105.858 91.5 102.5 88.1421 102.5 84C102.5 79.8579 105.858 76.5 110 76.5C114.142 76.5 117.5 79.8579 117.5 84Z" fill="#EDC41F" stroke="white"/>
<path d="M178.5 51C178.5 55.1421 175.142 58.5 171 58.5C166.858 58.5 163.5 55.1421 163.5 51C163.5 46.8579 166.858 43.5 171 43.5C175.142 43.5 178.5 46.8579 178.5 51Z" fill="#EDC41F" stroke="white"/>
<path d="M75.5 54C75.5 58.1421 72.1421 61.5 68 61.5C63.8579 61.5 60.5 58.1421 60.5 54C60.5 49.8579 63.8579 46.5 68 46.5C72.1421 46.5 75.5 49.8579 75.5 54Z" fill="#EDC41F" stroke="white"/>
<path d="M231.5 51C231.5 55.1421 228.142 58.5 224 58.5C219.858 58.5 216.5 55.1421 216.5 51C216.5 46.8579 219.858 43.5 224 43.5C228.142 43.5 231.5 46.8579 231.5 51Z" fill="#EDC41F" stroke="white"/>
<path d="M170.5 84C170.5 88.1421 167.142 91.5 163 91.5C158.858 91.5 155.5 88.1421 155.5 84C155.5 79.8579 158.858 76.5 163 76.5C167.142 76.5 170.5 79.8579 170.5 84Z" fill="#EDC41F" stroke="white"/>
<path d="M280.5 54C280.5 58.1421 277.142 61.5 273 61.5C268.858 61.5 265.5 58.1421 265.5 54C265.5 49.8579 268.858 46.5 273 46.5C277.142 46.5 280.5 49.8579 280.5 54Z" fill="#EDC41F" stroke="white"/>
<path d="M261.5 93C261.5 97.1421 258.142 100.5 254 100.5C249.858 100.5 246.5 97.1421 246.5 93C246.5 88.8579 249.858 85.5 254 85.5C258.142 85.5 261.5 88.8579 261.5 93Z" fill="#EDC41F" stroke="white"/>
<path d="M220.5 84C220.5 88.1421 217.142 91.5 213 91.5C208.858 91.5 205.5 88.1421 205.5 84C205.5 79.8579 208.858 76.5 213 76.5C217.142 76.5 220.5 79.8579 220.5 84Z" fill="#EDC41F" stroke="white"/>
<path d="M306.5 65C306.5 69.1421 303.142 72.5 299 72.5C294.858 72.5 291.5 69.1421 291.5 65C291.5 60.8579 294.858 57.5 299 57.5C303.142 57.5 306.5 60.8579 306.5 65Z" fill="#EDC41F" stroke="white"/>
<path d="M89.3516 13.083L95.292 5.5957H97.3867V21H94.9697V9.78516L89.3516 16.8213L83.7441 9.78516V21H81.3271V5.5957H83.4111L89.3516 13.083ZM108.172 18.2178C108.824 17.5374 109.149 16.7067 109.149 15.7256C109.149 14.7373 108.824 13.903 108.172 13.2227C107.52 12.5423 106.747 12.2021 105.852 12.2021C104.956 12.2021 104.179 12.5423 103.521 13.2227C102.869 13.903 102.543 14.7373 102.543 15.7256C102.543 16.7067 102.869 17.5374 103.521 18.2178C104.179 18.8981 104.956 19.2383 105.852 19.2383C106.747 19.2383 107.52 18.8981 108.172 18.2178ZM101.995 19.5713C100.899 18.4827 100.352 17.2008 100.352 15.7256C100.352 14.2432 100.896 12.9541 101.984 11.8584C103.08 10.7627 104.369 10.2148 105.852 10.2148C107.334 10.2148 108.619 10.7627 109.708 11.8584C110.804 12.9541 111.352 14.2432 111.352 15.7256C111.352 17.2008 110.804 18.4863 109.708 19.582C108.619 20.6706 107.334 21.2148 105.852 21.2148C104.369 21.2148 103.084 20.667 101.995 19.5713ZM114.982 10.4404H123.125V21H120.923V12.417H117.185V13.5234C117.185 15.5358 117.023 17.1257 116.701 18.293C116.386 19.4531 115.978 20.2301 115.477 20.624C114.982 21.0179 114.341 21.2148 113.554 21.2148C113.36 21.2148 113.153 21.1969 112.931 21.1611C112.716 21.1253 112.548 21.0859 112.426 21.043L112.232 21V18.9053C112.526 18.9769 112.78 19.0163 112.995 19.0234C113.446 19.0234 113.801 18.9017 114.059 18.6582C114.324 18.4147 114.542 17.8776 114.714 17.0469C114.893 16.209 114.982 15.0345 114.982 13.5234V10.4404ZM135.994 16.4883H127.744C127.859 17.2331 128.224 17.8776 128.84 18.4219C129.463 18.9661 130.201 19.2383 131.053 19.2383C131.669 19.2383 132.242 19.0986 132.771 18.8193C133.309 18.54 133.688 18.2679 133.91 18.0029L134.243 17.5947L135.672 19.0234C135.629 19.0807 135.561 19.1631 135.468 19.2705C135.382 19.3708 135.192 19.5462 134.898 19.7969C134.605 20.0404 134.293 20.2588 133.964 20.4521C133.634 20.6383 133.205 20.8138 132.675 20.9785C132.152 21.1361 131.611 21.2148 131.053 21.2148C129.556 21.2148 128.263 20.667 127.175 19.5713C126.093 18.4684 125.553 17.1471 125.553 15.6074C125.553 14.125 126.079 12.8574 127.132 11.8047C128.192 10.7448 129.459 10.2148 130.935 10.2148C132.417 10.2148 133.649 10.709 134.63 11.6973C135.618 12.6784 136.112 13.9102 136.112 15.3926L135.994 16.4883ZM130.935 12.0947C130.14 12.0947 129.47 12.3311 128.926 12.8037C128.389 13.2692 128.027 13.8743 127.841 14.6191H133.953C133.824 13.8743 133.491 13.2692 132.954 12.8037C132.417 12.3311 131.744 12.0947 130.935 12.0947ZM147.875 10.4404L143.804 14.8447L148.197 21H145.78L142.375 16.2734L140.721 18.0352V21H138.519V10.4404H140.721V15.167L145.232 10.4404H147.875ZM152.483 22.0957L152.924 21L148.627 10.4404H150.937L154.02 18.1426L157.103 10.4404H159.412L154.675 22.0957C154.131 23.3991 153.59 24.3122 153.053 24.835C152.523 25.3577 151.857 25.6191 151.055 25.6191C150.761 25.6191 150.485 25.6012 150.228 25.5654C149.97 25.5296 149.78 25.4902 149.658 25.4473L149.508 25.4043V23.417C149.873 23.5602 150.242 23.6354 150.614 23.6426C151.452 23.6354 152.075 23.1198 152.483 22.0957ZM162.377 10.4404H170.52V21H168.317V12.417H164.579V13.5234C164.579 15.5358 164.418 17.1257 164.096 18.293C163.781 19.4531 163.372 20.2301 162.871 20.624C162.377 21.0179 161.736 21.2148 160.948 21.2148C160.755 21.2148 160.547 21.1969 160.325 21.1611C160.11 21.1253 159.942 21.0859 159.82 21.043L159.627 21V18.9053C159.921 18.9769 160.175 19.0163 160.39 19.0234C160.841 19.0234 161.195 18.9017 161.453 18.6582C161.718 18.4147 161.937 17.8776 162.108 17.0469C162.287 16.209 162.377 15.0345 162.377 13.5234V10.4404ZM175.805 19.1309H178.114C178.616 19.1309 179.035 18.9626 179.371 18.626C179.708 18.2894 179.876 17.8704 179.876 17.3691C179.876 16.8678 179.708 16.4489 179.371 16.1123C179.035 15.7757 178.616 15.6074 178.114 15.6074H175.805V19.1309ZM180.993 14.7588C181.716 15.4463 182.078 16.32 182.078 17.3799C182.078 18.4326 181.713 19.2992 180.982 19.9795C180.259 20.6598 179.303 21 178.114 21H173.603V10.4404H175.805V13.7383H178.114C179.303 13.7383 180.263 14.0785 180.993 14.7588ZM185.816 10.4404V21H183.614V10.4404H185.816ZM200.694 11.8584C201.783 12.9541 202.327 14.2432 202.327 15.7256C202.327 17.2008 201.779 18.4863 200.684 19.582C199.595 20.6706 198.31 21.2148 196.827 21.2148C196.312 21.2148 195.807 21.1396 195.312 20.9893C194.826 20.8317 194.417 20.6491 194.088 20.4414C193.758 20.2266 193.461 20.0153 193.196 19.8076C192.931 19.5928 192.742 19.403 192.627 19.2383L192.423 19.0234L193.852 17.5947C193.88 17.6377 193.923 17.695 193.98 17.7666C194.045 17.8382 194.17 17.9707 194.356 18.1641C194.55 18.3503 194.75 18.5186 194.958 18.6689C195.173 18.8122 195.449 18.9447 195.785 19.0664C196.129 19.181 196.476 19.2383 196.827 19.2383C197.328 19.2383 197.776 19.1452 198.17 18.959C198.564 18.7656 198.868 18.5365 199.083 18.2715C199.305 18.0065 199.488 17.738 199.631 17.4658C199.781 17.1937 199.882 16.9645 199.932 16.7783L200.018 16.4883H195.173V14.6191H199.91C199.896 14.5618 199.864 14.4795 199.813 14.3721C199.771 14.2575 199.667 14.0605 199.502 13.7812C199.344 13.502 199.162 13.2585 198.954 13.0508C198.754 12.8359 198.46 12.6426 198.073 12.4707C197.694 12.2917 197.278 12.2021 196.827 12.2021C196.269 12.2021 195.749 12.3311 195.27 12.5889C194.797 12.8395 194.457 13.0902 194.249 13.3408L193.97 13.7383L192.53 12.3096C192.573 12.2523 192.634 12.1771 192.713 12.084C192.799 11.9837 192.978 11.819 193.25 11.5898C193.522 11.3535 193.812 11.1423 194.12 10.9561C194.428 10.7699 194.826 10.6016 195.312 10.4512C195.807 10.2936 196.312 10.2148 196.827 10.2148C198.31 10.2148 199.599 10.7627 200.694 11.8584ZM206.936 12.417V21H204.733V10.4404H214.305V21H212.103V12.417H206.936ZM218.602 10.4404H226.744V21H224.542V12.417H220.804V13.5234C220.804 15.5358 220.643 17.1257 220.32 18.293C220.005 19.4531 219.597 20.2301 219.096 20.624C218.602 21.0179 217.961 21.2148 217.173 21.2148C216.979 21.2148 216.772 21.1969 216.55 21.1611C216.335 21.1253 216.167 21.0859 216.045 21.043L215.852 21V18.9053C216.145 18.9769 216.399 19.0163 216.614 19.0234C217.065 19.0234 217.42 18.9017 217.678 18.6582C217.943 18.4147 218.161 17.8776 218.333 17.0469C218.512 16.209 218.602 15.0345 218.602 13.5234V10.4404ZM239.613 16.4883H231.363C231.478 17.2331 231.843 17.8776 232.459 18.4219C233.082 18.9661 233.82 19.2383 234.672 19.2383C235.288 19.2383 235.861 19.0986 236.391 18.8193C236.928 18.54 237.307 18.2679 237.529 18.0029L237.862 17.5947L239.291 19.0234C239.248 19.0807 239.18 19.1631 239.087 19.2705C239.001 19.3708 238.811 19.5462 238.518 19.7969C238.224 20.0404 237.912 20.2588 237.583 20.4521C237.254 20.6383 236.824 20.8138 236.294 20.9785C235.771 21.1361 235.23 21.2148 234.672 21.2148C233.175 21.2148 231.882 20.667 230.794 19.5713C229.713 18.4684 229.172 17.1471 229.172 15.6074C229.172 14.125 229.698 12.8574 230.751 11.8047C231.811 10.7448 233.078 10.2148 234.554 10.2148C236.036 10.2148 237.268 10.709 238.249 11.6973C239.237 12.6784 239.731 13.9102 239.731 15.3926L239.613 16.4883ZM234.554 12.0947C233.759 12.0947 233.089 12.3311 232.545 12.8037C232.008 13.2692 231.646 13.8743 231.46 14.6191H237.572C237.443 13.8743 237.11 13.2692 236.573 12.8037C236.036 12.3311 235.363 12.0947 234.554 12.0947ZM247.745 21.2148C247.351 21.2148 246.968 21.1683 246.596 21.0752C246.223 20.9821 245.905 20.8675 245.64 20.7314C245.375 20.5882 245.138 20.445 244.931 20.3018C244.73 20.1514 244.583 20.0332 244.49 19.9473L244.34 19.7861V25.6191H242.138V10.4404H244.34V11.6543C244.44 11.554 244.58 11.4215 244.759 11.2568C244.945 11.0921 245.335 10.8773 245.93 10.6123C246.524 10.3473 247.129 10.2148 247.745 10.2148C249.142 10.2148 250.352 10.752 251.376 11.8262C252.407 12.8932 252.923 14.1895 252.923 15.7148C252.923 17.2402 252.407 18.54 251.376 19.6143C250.352 20.6813 249.142 21.2148 247.745 21.2148ZM249.754 13.2334C249.109 12.5459 248.368 12.2021 247.53 12.2021C246.692 12.2021 245.951 12.5459 245.307 13.2334C244.662 13.9209 244.34 14.7516 244.34 15.7256C244.34 16.6924 244.662 17.5195 245.307 18.207C245.951 18.8945 246.692 19.2383 247.53 19.2383C248.368 19.2383 249.109 18.8945 249.754 18.207C250.398 17.5195 250.721 16.6924 250.721 15.7256C250.721 14.7516 250.398 13.9209 249.754 13.2334ZM262.494 18.2178C263.146 17.5374 263.472 16.7067 263.472 15.7256C263.472 14.7373 263.146 13.903 262.494 13.2227C261.842 12.5423 261.069 12.2021 260.174 12.2021C259.279 12.2021 258.502 12.5423 257.843 13.2227C257.191 13.903 256.865 14.7373 256.865 15.7256C256.865 16.7067 257.191 17.5374 257.843 18.2178C258.502 18.8981 259.279 19.2383 260.174 19.2383C261.069 19.2383 261.842 18.8981 262.494 18.2178ZM256.317 19.5713C255.222 18.4827 254.674 17.2008 254.674 15.7256C254.674 14.2432 255.218 12.9541 256.307 11.8584C257.402 10.7627 258.691 10.2148 260.174 10.2148C261.656 10.2148 262.942 10.7627 264.03 11.8584C265.126 12.9541 265.674 14.2432 265.674 15.7256C265.674 17.2008 265.126 18.4863 264.03 19.582C262.942 20.6706 261.656 21.2148 260.174 21.2148C258.691 21.2148 257.406 20.667 256.317 19.5713ZM270.293 16.5957V21H268.091V10.4404H270.293V14.6191H275.46V10.4404H277.662V21H275.46V16.5957H270.293ZM289.221 21H287.019V19.9043C286.99 19.9329 286.94 19.9795 286.868 20.0439C286.804 20.1084 286.668 20.2158 286.46 20.3662C286.259 20.5094 286.041 20.6419 285.805 20.7637C285.568 20.8783 285.271 20.9821 284.913 21.0752C284.555 21.1683 284.193 21.2148 283.828 21.2148C282.754 21.2148 281.862 20.9033 281.153 20.2803C280.444 19.6572 280.09 18.9447 280.09 18.1426C280.09 17.276 280.362 16.5492 280.906 15.9619C281.458 15.3747 282.21 15.0023 283.162 14.8447L287.019 14.1787C287.019 13.6201 286.811 13.151 286.396 12.7715C285.987 12.3919 285.461 12.2021 284.816 12.2021C284.258 12.2021 283.749 12.3203 283.291 12.5566C282.84 12.7858 282.528 13.0186 282.356 13.2549L282.066 13.6309L280.638 12.2021C280.681 12.1449 280.738 12.0732 280.81 11.9873C280.888 11.8942 281.057 11.7367 281.314 11.5146C281.579 11.2855 281.859 11.0814 282.152 10.9023C282.446 10.7233 282.833 10.5658 283.312 10.4297C283.799 10.2865 284.301 10.2148 284.816 10.2148C286.105 10.2148 287.162 10.598 287.985 11.3643C288.809 12.1234 289.221 13.0615 289.221 14.1787V21ZM284.161 19.2383C285.056 19.2383 285.755 18.9733 286.256 18.4434C286.764 17.9062 287.019 17.1436 287.019 16.1553V15.9404L283.603 16.4883C283.209 16.5599 282.89 16.721 282.646 16.9717C282.403 17.2223 282.281 17.5374 282.281 17.917C282.281 18.2679 282.45 18.5758 282.786 18.8408C283.13 19.1058 283.588 19.2383 284.161 19.2383Z" fill="black"/>
<path d="M129.533 330.596H135.688C137.157 330.596 138.385 331.079 139.373 332.046C140.368 333.006 140.866 334.176 140.866 335.559C140.866 336.934 140.368 338.101 139.373 339.061C138.385 340.02 137.157 340.5 135.688 340.5H131.95V346H129.533V330.596ZM135.688 332.798H131.95V338.298H135.688C136.448 338.298 137.096 338.036 137.633 337.514C138.17 336.984 138.438 336.332 138.438 335.559C138.438 334.778 138.17 334.123 137.633 333.593C137.096 333.063 136.448 332.798 135.688 332.798ZM152.94 341.488H144.69C144.805 342.233 145.17 342.878 145.786 343.422C146.409 343.966 147.147 344.238 147.999 344.238C148.615 344.238 149.188 344.099 149.718 343.819C150.255 343.54 150.634 343.268 150.856 343.003L151.189 342.595L152.618 344.023C152.575 344.081 152.507 344.163 152.414 344.271C152.328 344.371 152.138 344.546 151.845 344.797C151.551 345.04 151.24 345.259 150.91 345.452C150.581 345.638 150.151 345.814 149.621 345.979C149.098 346.136 148.558 346.215 147.999 346.215C146.502 346.215 145.21 345.667 144.121 344.571C143.04 343.468 142.499 342.147 142.499 340.607C142.499 339.125 143.025 337.857 144.078 336.805C145.138 335.745 146.406 335.215 147.881 335.215C149.363 335.215 150.595 335.709 151.576 336.697C152.564 337.678 153.059 338.91 153.059 340.393L152.94 341.488ZM147.881 337.095C147.086 337.095 146.416 337.331 145.872 337.804C145.335 338.269 144.973 338.874 144.787 339.619H150.899C150.771 338.874 150.438 338.269 149.9 337.804C149.363 337.331 148.69 337.095 147.881 337.095ZM155.465 346V335.44H157.667V344.023H162.619V335.44H164.821V344.023H166.357V348.643H164.155V346H155.465ZM178.335 341.488H170.085C170.2 342.233 170.565 342.878 171.181 343.422C171.804 343.966 172.541 344.238 173.394 344.238C174.009 344.238 174.582 344.099 175.112 343.819C175.649 343.54 176.029 343.268 176.251 343.003L176.584 342.595L178.013 344.023C177.97 344.081 177.902 344.163 177.809 344.271C177.723 344.371 177.533 344.546 177.239 344.797C176.946 345.04 176.634 345.259 176.305 345.452C175.975 345.638 175.546 345.814 175.016 345.979C174.493 346.136 173.952 346.215 173.394 346.215C171.897 346.215 170.604 345.667 169.516 344.571C168.434 343.468 167.894 342.147 167.894 340.607C167.894 339.125 168.42 337.857 169.473 336.805C170.533 335.745 171.8 335.215 173.275 335.215C174.758 335.215 175.99 335.709 176.971 336.697C177.959 337.678 178.453 338.91 178.453 340.393L178.335 341.488ZM173.275 337.095C172.48 337.095 171.811 337.331 171.267 337.804C170.729 338.269 170.368 338.874 170.182 339.619H176.294C176.165 338.874 175.832 338.269 175.295 337.804C174.758 337.331 174.085 337.095 173.275 337.095ZM183.062 337.417V346H180.859V335.44H190.431V346H188.229V337.417H183.062ZM192.418 337.417V335.44H201.871V337.417H198.24V346H196.049V337.417H192.418ZM211.013 343.218C211.664 342.537 211.99 341.707 211.99 340.726C211.99 339.737 211.664 338.903 211.013 338.223C210.361 337.542 209.588 337.202 208.692 337.202C207.797 337.202 207.02 337.542 206.361 338.223C205.71 338.903 205.384 339.737 205.384 340.726C205.384 341.707 205.71 342.537 206.361 343.218C207.02 343.898 207.797 344.238 208.692 344.238C209.588 344.238 210.361 343.898 211.013 343.218ZM204.836 344.571C203.74 343.483 203.192 342.201 203.192 340.726C203.192 339.243 203.737 337.954 204.825 336.858C205.921 335.763 207.21 335.215 208.692 335.215C210.175 335.215 211.46 335.763 212.549 336.858C213.645 337.954 214.192 339.243 214.192 340.726C214.192 342.201 213.645 343.486 212.549 344.582C211.46 345.671 210.175 346.215 208.692 346.215C207.21 346.215 205.924 345.667 204.836 344.571ZM222.217 346.215C221.823 346.215 221.44 346.168 221.067 346.075C220.695 345.982 220.376 345.868 220.111 345.731C219.846 345.588 219.61 345.445 219.402 345.302C219.202 345.151 219.055 345.033 218.962 344.947L218.812 344.786V350.619H216.609V335.44H218.812V336.654C218.912 336.554 219.051 336.422 219.23 336.257C219.417 336.092 219.807 335.877 220.401 335.612C220.996 335.347 221.601 335.215 222.217 335.215C223.613 335.215 224.824 335.752 225.848 336.826C226.879 337.893 227.395 339.189 227.395 340.715C227.395 342.24 226.879 343.54 225.848 344.614C224.824 345.681 223.613 346.215 222.217 346.215ZM224.226 338.233C223.581 337.546 222.84 337.202 222.002 337.202C221.164 337.202 220.423 337.546 219.778 338.233C219.134 338.921 218.812 339.752 218.812 340.726C218.812 341.692 219.134 342.52 219.778 343.207C220.423 343.895 221.164 344.238 222.002 344.238C222.84 344.238 223.581 343.895 224.226 343.207C224.87 342.52 225.192 341.692 225.192 340.726C225.192 339.752 224.87 338.921 224.226 338.233ZM232.003 344.131H234.312C234.814 344.131 235.233 343.963 235.569 343.626C235.906 343.289 236.074 342.87 236.074 342.369C236.074 341.868 235.906 341.449 235.569 341.112C235.233 340.776 234.814 340.607 234.312 340.607H232.003V344.131ZM237.191 339.759C237.915 340.446 238.276 341.32 238.276 342.38C238.276 343.433 237.911 344.299 237.181 344.979C236.457 345.66 235.501 346 234.312 346H229.801V335.44H232.003V338.738H234.312C235.501 338.738 236.461 339.078 237.191 339.759ZM242.015 335.44V346H239.812V335.44H242.015Z" fill="black"/>
<path fill-rule="evenodd" clip-rule="evenodd" d="M52 112C52 112 57.3571 137 77 137C96.6429 137 102 112 102 112H52Z" fill="#EDC41F"/>
<path fill-rule="evenodd" clip-rule="evenodd" d="M124 112C124 112 129.357 137 149 137C168.643 137 174 112 174 112H124Z" fill="#32AD28"/>
<path fill-rule="evenodd" clip-rule="evenodd" d="M196 112C196 112 201.357 137 221 137C240.643 137 246 112 246 112H196Z" fill="#D73030"/>
<path fill-rule="evenodd" clip-rule="evenodd" d="M268 112C268 112 273.357 137 293 137C312.643 137 318 112 318 112H268Z" fill="#38BEBD"/>
<path d="M101.703 113.334C101.734 113.214 101.763 113.102 101.789 113H124.21C124.236 113.102 124.265 113.214 124.296 113.333C124.482 114.038 124.767 115.04 125.169 116.24C125.97 118.636 127.241 121.841 129.115 125.055C132.848 131.457 139.113 138.103 149 138.103C158.887 138.103 165.152 131.457 168.885 125.055C170.759 121.841 172.03 118.636 172.831 116.24C173.233 115.04 173.518 114.038 173.704 113.333C173.735 113.214 173.764 113.102 173.79 113H196.226C196.255 113.107 196.288 113.225 196.324 113.352C196.523 114.055 196.828 115.056 197.251 116.255C198.095 118.649 199.416 121.852 201.324 125.062C205.117 131.448 211.38 138.103 221 138.103C230.62 138.103 236.883 131.448 240.676 125.062C242.584 121.852 243.905 118.649 244.749 116.255C245.172 115.056 245.477 114.055 245.676 113.352C245.712 113.225 245.745 113.107 245.774 113H268.178C268.197 113.092 268.219 113.191 268.243 113.296C268.4 114.003 268.647 115.006 269.005 116.208C269.721 118.609 270.889 121.82 272.698 125.041C276.309 131.474 282.58 138.103 293 138.103C303.42 138.103 309.691 131.474 313.302 125.041C315.111 121.82 316.279 118.609 316.995 116.208C317.353 115.006 317.6 114.003 317.757 113.296C317.781 113.191 317.803 113.092 317.822 113H350C360.493 113 369 121.507 369 132V293C369 303.493 360.493 312 350 312H20C9.5066 312 1 303.493 1 293V132C1 121.507 9.50659 113 20 113H52.2107C52.2367 113.102 52.2655 113.214 52.2973 113.334C52.4834 114.039 52.7694 115.04 53.1716 116.24C53.9748 118.637 55.2469 121.842 57.1223 125.056C60.8574 131.457 67.1229 138.103 77 138.103C86.8771 138.103 93.1426 131.457 96.8777 125.056C98.7531 121.842 100.025 118.637 100.828 116.24C101.231 115.04 101.517 114.039 101.703 113.334Z" fill="white" fill-opacity="0.4" stroke="#4C57B9" stroke-width="2"/>
<path d="M113.936 164.604L108.33 171.996L102.734 164.604V176H101.23V161.996H102.529L108.33 169.604L114.131 161.996H115.43V176H113.936V164.604ZM126.23 166.4H127.432V176H126.025V168.803L120.225 176H119.033V166.4H120.43V173.598L126.23 166.4ZM137.529 176V171.801H132.031V176H130.635V166.4H132.031V170.502H137.529V166.4H138.936V176H137.529ZM150.635 171.723L142.832 171.703C142.884 172.569 143.239 173.318 143.896 173.949C144.561 174.581 145.339 174.896 146.23 174.896C146.829 174.896 147.386 174.763 147.9 174.496C148.415 174.229 148.779 173.962 148.994 173.695L149.336 173.305L150.234 174.203C150.195 174.255 150.137 174.33 150.059 174.428C149.987 174.519 149.824 174.678 149.57 174.906C149.323 175.128 149.053 175.326 148.76 175.502C148.473 175.671 148.099 175.831 147.637 175.98C147.181 176.124 146.712 176.195 146.23 176.195C144.922 176.195 143.796 175.71 142.852 174.74C141.908 173.764 141.436 172.582 141.436 171.195C141.436 169.809 141.901 168.63 142.832 167.66C143.77 166.684 144.87 166.195 146.133 166.195C147.441 166.195 148.535 166.651 149.414 167.562C150.293 168.467 150.732 169.613 150.732 171L150.635 171.723ZM148.291 168.354C147.692 167.787 146.973 167.504 146.133 167.504C145.293 167.504 144.561 167.8 143.936 168.393C143.311 168.985 142.943 169.688 142.832 170.502H149.336C149.232 169.636 148.883 168.92 148.291 168.354ZM155.684 168.607C154.98 169.35 154.629 170.215 154.629 171.205C154.629 172.188 154.977 173.051 155.674 173.793C156.377 174.529 157.161 174.896 158.027 174.896C158.854 174.896 159.593 174.538 160.244 173.822C160.902 173.1 161.23 172.227 161.23 171.205C161.23 170.176 160.902 169.304 160.244 168.588C159.593 167.865 158.854 167.504 158.027 167.504C157.161 167.504 156.38 167.872 155.684 168.607ZM154.629 174.496V180.199H153.232V166.4H154.629V167.904C154.655 167.865 154.701 167.807 154.766 167.729C154.837 167.644 154.977 167.504 155.186 167.309C155.4 167.113 155.632 166.941 155.879 166.791C156.126 166.635 156.442 166.498 156.826 166.381C157.217 166.257 157.617 166.195 158.027 166.195C159.251 166.195 160.322 166.687 161.24 167.67C162.165 168.653 162.627 169.831 162.627 171.205C162.627 172.572 162.168 173.747 161.25 174.73C160.332 175.707 159.258 176.195 158.027 176.195C157.617 176.195 157.22 176.137 156.836 176.02C156.458 175.902 156.139 175.762 155.879 175.6C155.618 175.437 155.391 175.274 155.195 175.111C155.007 174.942 154.863 174.799 154.766 174.682L154.629 174.496ZM167.227 170.502L170.928 169.896C170.928 169.187 170.703 168.611 170.254 168.168C169.805 167.725 169.229 167.504 168.525 167.504C168.018 167.504 167.539 167.621 167.09 167.855C166.647 168.083 166.325 168.318 166.123 168.559L165.82 168.9L164.922 168.002C164.961 167.95 165.013 167.885 165.078 167.807C165.15 167.722 165.299 167.579 165.527 167.377C165.762 167.169 166.006 166.983 166.26 166.82C166.514 166.658 166.846 166.514 167.256 166.391C167.673 166.26 168.096 166.195 168.525 166.195C169.619 166.195 170.524 166.55 171.24 167.26C171.963 167.969 172.324 168.848 172.324 169.896V176H170.928V174.701C170.902 174.74 170.859 174.796 170.801 174.867C170.749 174.932 170.625 175.053 170.43 175.229C170.241 175.398 170.036 175.551 169.814 175.688C169.593 175.818 169.3 175.935 168.936 176.039C168.577 176.143 168.206 176.195 167.822 176.195C166.865 176.195 166.058 175.912 165.4 175.346C164.749 174.779 164.424 174.132 164.424 173.402C164.424 172.602 164.665 171.957 165.146 171.469C165.628 170.974 166.322 170.652 167.227 170.502ZM167.822 174.896C168.727 174.896 169.469 174.6 170.049 174.008C170.635 173.415 170.928 172.647 170.928 171.703V171.098L167.627 171.703C166.429 171.931 165.827 172.497 165.82 173.402C165.82 173.832 165.996 174.19 166.348 174.477C166.706 174.757 167.197 174.896 167.822 174.896ZM176.514 166.4H183.516V176H182.109V167.699H177.91V169.203C177.91 170.616 177.839 171.794 177.695 172.738C177.559 173.676 177.35 174.392 177.07 174.887C176.79 175.375 176.481 175.717 176.143 175.912C175.804 176.101 175.394 176.195 174.912 176.195C174.749 176.195 174.583 176.179 174.414 176.146C174.251 176.114 174.131 176.078 174.053 176.039L173.916 176V174.604C174.183 174.734 174.45 174.799 174.717 174.799C175.127 174.799 175.449 174.682 175.684 174.447C175.918 174.213 176.113 173.673 176.27 172.826C176.432 171.98 176.514 170.772 176.514 169.203V166.4ZM193.379 173.822C194.062 173.113 194.404 172.24 194.404 171.205C194.404 170.163 194.059 169.288 193.369 168.578C192.686 167.862 191.862 167.504 190.898 167.504C189.941 167.504 189.118 167.862 188.428 168.578C187.744 169.288 187.402 170.16 187.402 171.195C187.402 172.224 187.744 173.1 188.428 173.822C189.118 174.538 189.941 174.896 190.898 174.896C191.862 174.896 192.689 174.538 193.379 173.822ZM187.441 174.75C186.484 173.786 186.006 172.605 186.006 171.205C186.006 169.799 186.481 168.614 187.432 167.65C188.389 166.68 189.548 166.195 190.908 166.195C192.269 166.195 193.424 166.68 194.375 167.65C195.326 168.614 195.801 169.799 195.801 171.205C195.801 172.605 195.326 173.786 194.375 174.75C193.424 175.714 192.269 176.195 190.908 176.195C189.548 176.195 188.392 175.714 187.441 174.75ZM199.707 173.305V176H198.311V166.4H199.707V171.498L204.502 166.4H206.211L202.51 170.297L206.611 176H205.01L201.611 171.303L199.707 173.305ZM214.668 173.822C215.352 173.113 215.693 172.24 215.693 171.205C215.693 170.163 215.348 169.288 214.658 168.578C213.975 167.862 213.151 167.504 212.188 167.504C211.23 167.504 210.407 167.862 209.717 168.578C209.033 169.288 208.691 170.16 208.691 171.195C208.691 172.224 209.033 173.1 209.717 173.822C210.407 174.538 211.23 174.896 212.188 174.896C213.151 174.896 213.978 174.538 214.668 173.822ZM208.73 174.75C207.773 173.786 207.295 172.605 207.295 171.205C207.295 169.799 207.77 168.614 208.721 167.65C209.678 166.68 210.837 166.195 212.197 166.195C213.558 166.195 214.714 166.68 215.664 167.65C216.615 168.614 217.09 169.799 217.09 171.205C217.09 172.605 216.615 173.786 215.664 174.75C214.714 175.714 213.558 176.195 212.197 176.195C210.837 176.195 209.681 175.714 208.73 174.75ZM222.051 168.607C221.348 169.35 220.996 170.215 220.996 171.205C220.996 172.188 221.344 173.051 222.041 173.793C222.744 174.529 223.529 174.896 224.395 174.896C225.221 174.896 225.96 174.538 226.611 173.822C227.269 173.1 227.598 172.227 227.598 171.205C227.598 170.176 227.269 169.304 226.611 168.588C225.96 167.865 225.221 167.504 224.395 167.504C223.529 167.504 222.747 167.872 222.051 168.607ZM220.996 174.496V180.199H219.6V166.4H220.996V167.904C221.022 167.865 221.068 167.807 221.133 167.729C221.204 167.644 221.344 167.504 221.553 167.309C221.768 167.113 221.999 166.941 222.246 166.791C222.493 166.635 222.809 166.498 223.193 166.381C223.584 166.257 223.984 166.195 224.395 166.195C225.618 166.195 226.689 166.687 227.607 167.67C228.532 168.653 228.994 169.831 228.994 171.205C228.994 172.572 228.535 173.747 227.617 174.73C226.699 175.707 225.625 176.195 224.395 176.195C223.984 176.195 223.587 176.137 223.203 176.02C222.826 175.902 222.507 175.762 222.246 175.6C221.986 175.437 221.758 175.274 221.562 175.111C221.374 174.942 221.23 174.799 221.133 174.682L220.996 174.496ZM230.293 167.699V166.4H238.486V167.699H235.088V176H233.691V167.699H230.293ZM247.695 166.4H248.896V176H247.49V168.803L241.689 176H240.498V166.4H241.895V173.598L247.695 166.4ZM253.496 173.305V176H252.1V166.4H253.496V171.498L258.291 166.4H260L256.299 170.297L260.4 176H258.799L255.4 171.303L253.496 173.305ZM268.457 173.822C269.141 173.113 269.482 172.24 269.482 171.205C269.482 170.163 269.137 169.288 268.447 168.578C267.764 167.862 266.94 167.504 265.977 167.504C265.02 167.504 264.196 167.862 263.506 168.578C262.822 169.288 262.48 170.16 262.48 171.195C262.48 172.224 262.822 173.1 263.506 173.822C264.196 174.538 265.02 174.896 265.977 174.896C266.94 174.896 267.767 174.538 268.457 173.822ZM262.52 174.75C261.562 173.786 261.084 172.605 261.084 171.205C261.084 169.799 261.559 168.614 262.51 167.65C263.467 166.68 264.626 166.195 265.986 166.195C267.347 166.195 268.503 166.68 269.453 167.65C270.404 168.614 270.879 169.799 270.879 171.205C270.879 172.605 270.404 173.786 269.453 174.75C268.503 175.714 267.347 176.195 265.986 176.195C264.626 176.195 263.47 175.714 262.52 174.75ZM280.586 166.4H281.787V176H280.381V168.803L274.58 176H273.389V166.4H274.785V173.598L280.586 166.4ZM293.887 174.701V178.402H292.49V176H284.785V178.402H283.389V174.701H284.082C284.121 174.662 284.18 174.597 284.258 174.506C284.342 174.408 284.482 174.193 284.678 173.861C284.873 173.529 285.046 173.171 285.195 172.787C285.352 172.396 285.488 171.879 285.605 171.234C285.729 170.583 285.791 169.906 285.791 169.203V166.4H292.383V174.701H293.887ZM287.188 167.699V169.203C287.188 170.297 287.054 171.299 286.787 172.211C286.52 173.122 286.253 173.767 285.986 174.145L285.586 174.701H290.986V167.699H287.188ZM302.979 176V171.801H297.48V176H296.084V166.4H297.48V170.502H302.979V166.4H304.385V176H302.979ZM318.086 166.4V176H316.68V166.4H318.086ZM308.984 174.701H311.406C312.031 174.701 312.533 174.525 312.91 174.174C313.294 173.816 313.486 173.357 313.486 172.797C313.486 172.237 313.294 171.781 312.91 171.43C312.533 171.078 312.025 170.902 311.387 170.902H308.984V174.701ZM313.945 170.482C314.57 171.068 314.883 171.843 314.883 172.807C314.883 173.764 314.574 174.535 313.955 175.121C313.337 175.707 312.487 176 311.406 176H307.588V166.4H308.984V169.604H311.387C312.467 169.604 313.32 169.896 313.945 170.482ZM329.775 171.723L321.973 171.703C322.025 172.569 322.38 173.318 323.037 173.949C323.701 174.581 324.479 174.896 325.371 174.896C325.97 174.896 326.527 174.763 327.041 174.496C327.555 174.229 327.92 173.962 328.135 173.695L328.477 173.305L329.375 174.203C329.336 174.255 329.277 174.33 329.199 174.428C329.128 174.519 328.965 174.678 328.711 174.906C328.464 175.128 328.193 175.326 327.9 175.502C327.614 175.671 327.24 175.831 326.777 175.98C326.322 176.124 325.853 176.195 325.371 176.195C324.062 176.195 322.936 175.71 321.992 174.74C321.048 173.764 320.576 172.582 320.576 171.195C320.576 169.809 321.042 168.63 321.973 167.66C322.91 166.684 324.01 166.195 325.273 166.195C326.582 166.195 327.676 166.651 328.555 167.562C329.434 168.467 329.873 169.613 329.873 171L329.775 171.723ZM327.432 168.354C326.833 167.787 326.113 167.504 325.273 167.504C324.434 167.504 323.701 167.8 323.076 168.393C322.451 168.985 322.083 169.688 321.973 170.502H328.477C328.372 169.636 328.024 168.92 327.432 168.354Z" fill="black"/>
<path d="M108.859 208.697L106.164 202.096L103.459 208.697H108.859ZM109.465 210.104H102.863L101.262 214H99.6602L105.461 199.996H106.857L112.658 214H111.066L109.465 210.104ZM121.564 214V209.801H116.066V214H114.67V204.4H116.066V208.502H121.564V204.4H122.971V214H121.564ZM135.07 212.701V216.402H133.674V214H125.969V216.402H124.572V212.701H125.266C125.305 212.662 125.363 212.597 125.441 212.506C125.526 212.408 125.666 212.193 125.861 211.861C126.057 211.529 126.229 211.171 126.379 210.787C126.535 210.396 126.672 209.879 126.789 209.234C126.913 208.583 126.975 207.906 126.975 207.203V204.4H133.566V212.701H135.07ZM128.371 205.699V207.203C128.371 208.297 128.238 209.299 127.971 210.211C127.704 211.122 127.437 211.767 127.17 212.145L126.77 212.701H132.17V205.699H128.371ZM139.719 206.607C139.016 207.35 138.664 208.215 138.664 209.205C138.664 210.188 139.012 211.051 139.709 211.793C140.412 212.529 141.197 212.896 142.062 212.896C142.889 212.896 143.628 212.538 144.279 211.822C144.937 211.1 145.266 210.227 145.266 209.205C145.266 208.176 144.937 207.304 144.279 206.588C143.628 205.865 142.889 205.504 142.062 205.504C141.197 205.504 140.415 205.872 139.719 206.607ZM138.664 212.496V218.199H137.268V204.4H138.664V205.904C138.69 205.865 138.736 205.807 138.801 205.729C138.872 205.644 139.012 205.504 139.221 205.309C139.436 205.113 139.667 204.941 139.914 204.791C140.161 204.635 140.477 204.498 140.861 204.381C141.252 204.257 141.652 204.195 142.062 204.195C143.286 204.195 144.357 204.687 145.275 205.67C146.2 206.653 146.662 207.831 146.662 209.205C146.662 210.572 146.203 211.747 145.285 212.73C144.367 213.707 143.293 214.195 142.062 214.195C141.652 214.195 141.255 214.137 140.871 214.02C140.493 213.902 140.174 213.762 139.914 213.6C139.654 213.437 139.426 213.274 139.23 213.111C139.042 212.942 138.898 212.799 138.801 212.682L138.664 212.496ZM155.832 211.822C156.516 211.113 156.857 210.24 156.857 209.205C156.857 208.163 156.512 207.288 155.822 206.578C155.139 205.862 154.315 205.504 153.352 205.504C152.395 205.504 151.571 205.862 150.881 206.578C150.197 207.288 149.855 208.16 149.855 209.195C149.855 210.224 150.197 211.1 150.881 211.822C151.571 212.538 152.395 212.896 153.352 212.896C154.315 212.896 155.142 212.538 155.832 211.822ZM149.895 212.75C148.938 211.786 148.459 210.605 148.459 209.205C148.459 207.799 148.934 206.614 149.885 205.65C150.842 204.68 152.001 204.195 153.361 204.195C154.722 204.195 155.878 204.68 156.828 205.65C157.779 206.614 158.254 207.799 158.254 209.205C158.254 210.605 157.779 211.786 156.828 212.75C155.878 213.714 154.722 214.195 153.361 214.195C152.001 214.195 150.845 213.714 149.895 212.75ZM167.16 204.4V205.699H162.16V214H160.764V204.4H167.16ZM177.463 209.723L169.66 209.703C169.712 210.569 170.067 211.318 170.725 211.949C171.389 212.581 172.167 212.896 173.059 212.896C173.658 212.896 174.214 212.763 174.729 212.496C175.243 212.229 175.607 211.962 175.822 211.695L176.164 211.305L177.062 212.203C177.023 212.255 176.965 212.33 176.887 212.428C176.815 212.519 176.652 212.678 176.398 212.906C176.151 213.128 175.881 213.326 175.588 213.502C175.301 213.671 174.927 213.831 174.465 213.98C174.009 214.124 173.54 214.195 173.059 214.195C171.75 214.195 170.624 213.71 169.68 212.74C168.736 211.764 168.264 210.582 168.264 209.195C168.264 207.809 168.729 206.63 169.66 205.66C170.598 204.684 171.698 204.195 172.961 204.195C174.27 204.195 175.363 204.651 176.242 205.562C177.121 206.467 177.561 207.613 177.561 209L177.463 209.723ZM175.119 206.354C174.52 205.787 173.801 205.504 172.961 205.504C172.121 205.504 171.389 205.8 170.764 206.393C170.139 206.985 169.771 207.688 169.66 208.502H176.164C176.06 207.636 175.712 206.92 175.119 206.354ZM186.955 214V209.801H181.457V214H180.061V204.4H181.457V208.502H186.955V204.4H188.361V214H186.955ZM198.234 211.822C198.918 211.113 199.26 210.24 199.26 209.205C199.26 208.163 198.915 207.288 198.225 206.578C197.541 205.862 196.717 205.504 195.754 205.504C194.797 205.504 193.973 205.862 193.283 206.578C192.6 207.288 192.258 208.16 192.258 209.195C192.258 210.224 192.6 211.1 193.283 211.822C193.973 212.538 194.797 212.896 195.754 212.896C196.717 212.896 197.544 212.538 198.234 211.822ZM192.297 212.75C191.34 211.786 190.861 210.605 190.861 209.205C190.861 207.799 191.337 206.614 192.287 205.65C193.244 204.68 194.403 204.195 195.764 204.195C197.124 204.195 198.28 204.68 199.23 205.65C200.181 206.614 200.656 207.799 200.656 209.205C200.656 210.605 200.181 211.786 199.23 212.75C198.28 213.714 197.124 214.195 195.764 214.195C194.403 214.195 193.247 213.714 192.297 212.75ZM203.166 204.4H207.561C208.439 204.4 209.143 204.638 209.67 205.113C210.197 205.582 210.461 206.178 210.461 206.9C210.461 207.311 210.36 207.685 210.158 208.023C209.963 208.355 209.764 208.587 209.562 208.717L209.26 208.902C209.299 208.915 209.354 208.935 209.426 208.961C209.504 208.987 209.634 209.059 209.816 209.176C210.005 209.286 210.168 209.42 210.305 209.576C210.448 209.726 210.575 209.944 210.686 210.23C210.803 210.517 210.861 210.839 210.861 211.197C210.861 212.063 210.591 212.747 210.051 213.248C209.51 213.749 208.749 214 207.766 214H203.166V204.4ZM207.766 209.498H204.562V212.701H207.766C208.312 212.701 208.732 212.561 209.025 212.281C209.318 212.001 209.465 211.607 209.465 211.1C209.465 210.592 209.318 210.198 209.025 209.918C208.732 209.638 208.312 209.498 207.766 209.498ZM207.561 208.297C208.563 208.297 209.064 207.864 209.064 206.998C209.064 206.132 208.563 205.699 207.561 205.699H204.562V208.297H207.561ZM224.055 204.4V214H222.648V204.4H224.055ZM214.953 212.701H217.375C218 212.701 218.501 212.525 218.879 212.174C219.263 211.816 219.455 211.357 219.455 210.797C219.455 210.237 219.263 209.781 218.879 209.43C218.501 209.078 217.993 208.902 217.355 208.902H214.953V212.701ZM219.914 208.482C220.539 209.068 220.852 209.843 220.852 210.807C220.852 211.764 220.542 212.535 219.924 213.121C219.305 213.707 218.456 214 217.375 214H213.557V204.4H214.953V207.604H217.355C218.436 207.604 219.289 207.896 219.914 208.482ZM235.744 209.723L227.941 209.703C227.993 210.569 228.348 211.318 229.006 211.949C229.67 212.581 230.448 212.896 231.34 212.896C231.939 212.896 232.495 212.763 233.01 212.496C233.524 212.229 233.889 211.962 234.104 211.695L234.445 211.305L235.344 212.203C235.305 212.255 235.246 212.33 235.168 212.428C235.096 212.519 234.934 212.678 234.68 212.906C234.432 213.128 234.162 213.326 233.869 213.502C233.583 213.671 233.208 213.831 232.746 213.98C232.29 214.124 231.822 214.195 231.34 214.195C230.031 214.195 228.905 213.71 227.961 212.74C227.017 211.764 226.545 210.582 226.545 209.195C226.545 207.809 227.01 206.63 227.941 205.66C228.879 204.684 229.979 204.195 231.242 204.195C232.551 204.195 233.645 204.651 234.523 205.562C235.402 206.467 235.842 207.613 235.842 209L235.744 209.723ZM233.4 206.354C232.801 205.787 232.082 205.504 231.242 205.504C230.402 205.504 229.67 205.8 229.045 206.393C228.42 206.985 228.052 207.688 227.941 208.502H234.445C234.341 207.636 233.993 206.92 233.4 206.354Z" fill="black"/>
<path d="M101.473 290V275.996H110.174V277.402H102.977V290H101.473ZM111.268 280.4H118.27V290H116.863V281.699H112.664V283.203C112.664 284.616 112.592 285.794 112.449 286.738C112.312 287.676 112.104 288.392 111.824 288.887C111.544 289.375 111.235 289.717 110.896 289.912C110.558 290.101 110.148 290.195 109.666 290.195C109.503 290.195 109.337 290.179 109.168 290.146C109.005 290.114 108.885 290.078 108.807 290.039L108.67 290V288.604C108.937 288.734 109.204 288.799 109.471 288.799C109.881 288.799 110.203 288.682 110.438 288.447C110.672 288.213 110.867 287.673 111.023 286.826C111.186 285.98 111.268 284.772 111.268 283.203V280.4ZM133.143 281.65C134.087 282.627 134.559 283.809 134.559 285.195C134.559 286.582 134.083 287.764 133.133 288.74C132.189 289.71 131.066 290.195 129.764 290.195C128.54 290.195 127.469 289.769 126.551 288.916C125.639 288.063 125.109 287.025 124.959 285.801H122.859V290H121.463V280.4H122.859V284.502H124.959C125.122 283.33 125.656 282.321 126.561 281.475C127.465 280.622 128.533 280.195 129.764 280.195C131.072 280.195 132.199 280.68 133.143 281.65ZM127.371 282.568C126.694 283.285 126.355 284.163 126.355 285.205C126.355 286.24 126.691 287.116 127.361 287.832C128.038 288.542 128.836 288.896 129.754 288.896C130.678 288.896 131.476 288.542 132.146 287.832C132.824 287.116 133.162 286.24 133.162 285.205C133.162 284.163 132.824 283.288 132.146 282.578C131.476 281.862 130.678 281.504 129.754 281.504C128.836 281.504 128.042 281.859 127.371 282.568ZM138.465 287.305V290H137.068V280.4H138.465V285.498L143.26 280.4H144.969L141.268 284.297L145.369 290H143.768L140.369 285.303L138.465 287.305ZM153.426 287.822C154.109 287.113 154.451 286.24 154.451 285.205C154.451 284.163 154.106 283.288 153.416 282.578C152.732 281.862 151.909 281.504 150.945 281.504C149.988 281.504 149.165 281.862 148.475 282.578C147.791 283.288 147.449 284.16 147.449 285.195C147.449 286.224 147.791 287.1 148.475 287.822C149.165 288.538 149.988 288.896 150.945 288.896C151.909 288.896 152.736 288.538 153.426 287.822ZM147.488 288.75C146.531 287.786 146.053 286.605 146.053 285.205C146.053 283.799 146.528 282.614 147.479 281.65C148.436 280.68 149.594 280.195 150.955 280.195C152.316 280.195 153.471 280.68 154.422 281.65C155.372 282.614 155.848 283.799 155.848 285.205C155.848 286.605 155.372 287.786 154.422 288.75C153.471 289.714 152.316 290.195 150.955 290.195C149.594 290.195 148.439 289.714 147.488 288.75ZM160.809 282.607C160.105 283.35 159.754 284.215 159.754 285.205C159.754 286.188 160.102 287.051 160.799 287.793C161.502 288.529 162.286 288.896 163.152 288.896C163.979 288.896 164.718 288.538 165.369 287.822C166.027 287.1 166.355 286.227 166.355 285.205C166.355 284.176 166.027 283.304 165.369 282.588C164.718 281.865 163.979 281.504 163.152 281.504C162.286 281.504 161.505 281.872 160.809 282.607ZM159.754 288.496V294.199H158.357V280.4H159.754V281.904C159.78 281.865 159.826 281.807 159.891 281.729C159.962 281.644 160.102 281.504 160.311 281.309C160.525 281.113 160.757 280.941 161.004 280.791C161.251 280.635 161.567 280.498 161.951 280.381C162.342 280.257 162.742 280.195 163.152 280.195C164.376 280.195 165.447 280.687 166.365 281.67C167.29 282.653 167.752 283.831 167.752 285.205C167.752 286.572 167.293 287.747 166.375 288.73C165.457 289.707 164.383 290.195 163.152 290.195C162.742 290.195 162.345 290.137 161.961 290.02C161.583 289.902 161.264 289.762 161.004 289.6C160.743 289.437 160.516 289.274 160.32 289.111C160.132 288.942 159.988 288.799 159.891 288.682L159.754 288.496ZM169.051 281.699V280.4H177.244V281.699H173.846V290H172.449V281.699H169.051ZM186.453 280.4H187.654V290H186.248V282.803L180.447 290H179.256V280.4H180.652V287.598L186.453 280.4ZM192.254 287.305V290H190.857V280.4H192.254V285.498L197.049 280.4H198.758L195.057 284.297L199.158 290H197.557L194.158 285.303L192.254 287.305ZM207.215 287.822C207.898 287.113 208.24 286.24 208.24 285.205C208.24 284.163 207.895 283.288 207.205 282.578C206.521 281.862 205.698 281.504 204.734 281.504C203.777 281.504 202.954 281.862 202.264 282.578C201.58 283.288 201.238 284.16 201.238 285.195C201.238 286.224 201.58 287.1 202.264 287.822C202.954 288.538 203.777 288.896 204.734 288.896C205.698 288.896 206.525 288.538 207.215 287.822ZM201.277 288.75C200.32 287.786 199.842 286.605 199.842 285.205C199.842 283.799 200.317 282.614 201.268 281.65C202.225 280.68 203.383 280.195 204.744 280.195C206.105 280.195 207.26 280.68 208.211 281.65C209.161 282.614 209.637 283.799 209.637 285.205C209.637 286.605 209.161 287.786 208.211 288.75C207.26 289.714 206.105 290.195 204.744 290.195C203.383 290.195 202.228 289.714 201.277 288.75ZM219.344 280.4H220.545V290H219.139V282.803L213.338 290H212.146V280.4H213.543V287.598L219.344 280.4ZM232.645 288.701V292.402H231.248V290H223.543V292.402H222.146V288.701H222.84C222.879 288.662 222.938 288.597 223.016 288.506C223.1 288.408 223.24 288.193 223.436 287.861C223.631 287.529 223.803 287.171 223.953 286.787C224.109 286.396 224.246 285.879 224.363 285.234C224.487 284.583 224.549 283.906 224.549 283.203V280.4H231.141V288.701H232.645ZM225.945 281.699V283.203C225.945 284.297 225.812 285.299 225.545 286.211C225.278 287.122 225.011 287.767 224.744 288.145L224.344 288.701H229.744V281.699H225.945ZM241.736 290V285.801H236.238V290H234.842V280.4H236.238V284.502H241.736V280.4H243.143V290H241.736ZM256.844 280.4V290H255.438V280.4H256.844ZM247.742 288.701H250.164C250.789 288.701 251.29 288.525 251.668 288.174C252.052 287.816 252.244 287.357 252.244 286.797C252.244 286.237 252.052 285.781 251.668 285.43C251.29 285.078 250.783 284.902 250.145 284.902H247.742V288.701ZM252.703 284.482C253.328 285.068 253.641 285.843 253.641 286.807C253.641 287.764 253.331 288.535 252.713 289.121C252.094 289.707 251.245 290 250.164 290H246.346V280.4H247.742V283.604H250.145C251.225 283.604 252.078 283.896 252.703 284.482ZM268.533 285.723L260.73 285.703C260.783 286.569 261.137 287.318 261.795 287.949C262.459 288.581 263.237 288.896 264.129 288.896C264.728 288.896 265.285 288.763 265.799 288.496C266.313 288.229 266.678 287.962 266.893 287.695L267.234 287.305L268.133 288.203C268.094 288.255 268.035 288.33 267.957 288.428C267.885 288.519 267.723 288.678 267.469 288.906C267.221 289.128 266.951 289.326 266.658 289.502C266.372 289.671 265.997 289.831 265.535 289.98C265.079 290.124 264.611 290.195 264.129 290.195C262.82 290.195 261.694 289.71 260.75 288.74C259.806 287.764 259.334 286.582 259.334 285.195C259.334 283.809 259.799 282.63 260.73 281.66C261.668 280.684 262.768 280.195 264.031 280.195C265.34 280.195 266.434 280.651 267.312 281.562C268.191 282.467 268.631 283.613 268.631 285L268.533 285.723ZM266.189 282.354C265.59 281.787 264.871 281.504 264.031 281.504C263.191 281.504 262.459 281.8 261.834 282.393C261.209 282.985 260.841 283.688 260.73 284.502H267.234C267.13 283.636 266.782 282.92 266.189 282.354Z" fill="black"/>
<path d="M111.92 237.996V252H110.416V239.402H102.623V252H101.119V237.996H111.92ZM117.975 244.607C117.271 245.35 116.92 246.215 116.92 247.205C116.92 248.188 117.268 249.051 117.965 249.793C118.668 250.529 119.452 250.896 120.318 250.896C121.145 250.896 121.884 250.538 122.535 249.822C123.193 249.1 123.521 248.227 123.521 247.205C123.521 246.176 123.193 245.304 122.535 244.588C121.884 243.865 121.145 243.504 120.318 243.504C119.452 243.504 118.671 243.872 117.975 244.607ZM116.92 250.496V256.199H115.523V242.4H116.92V243.904C116.946 243.865 116.992 243.807 117.057 243.729C117.128 243.644 117.268 243.504 117.477 243.309C117.691 243.113 117.923 242.941 118.17 242.791C118.417 242.635 118.733 242.498 119.117 242.381C119.508 242.257 119.908 242.195 120.318 242.195C121.542 242.195 122.613 242.687 123.531 243.67C124.456 244.653 124.918 245.831 124.918 247.205C124.918 248.572 124.459 249.747 123.541 250.73C122.623 251.707 121.549 252.195 120.318 252.195C119.908 252.195 119.511 252.137 119.127 252.02C118.749 251.902 118.43 251.762 118.17 251.6C117.91 251.437 117.682 251.274 117.486 251.111C117.298 250.942 117.154 250.799 117.057 250.682L116.92 250.496ZM134.088 249.822C134.771 249.113 135.113 248.24 135.113 247.205C135.113 246.163 134.768 245.288 134.078 244.578C133.395 243.862 132.571 243.504 131.607 243.504C130.65 243.504 129.827 243.862 129.137 244.578C128.453 245.288 128.111 246.16 128.111 247.195C128.111 248.224 128.453 249.1 129.137 249.822C129.827 250.538 130.65 250.896 131.607 250.896C132.571 250.896 133.398 250.538 134.088 249.822ZM128.15 250.75C127.193 249.786 126.715 248.605 126.715 247.205C126.715 245.799 127.19 244.614 128.141 243.65C129.098 242.68 130.257 242.195 131.617 242.195C132.978 242.195 134.133 242.68 135.084 243.65C136.035 244.614 136.51 245.799 136.51 247.205C136.51 248.605 136.035 249.786 135.084 250.75C134.133 251.714 132.978 252.195 131.617 252.195C130.257 252.195 129.101 251.714 128.15 250.75ZM145.416 242.4V243.699H140.416V252H139.02V242.4H145.416ZM155.719 247.723L147.916 247.703C147.968 248.569 148.323 249.318 148.98 249.949C149.645 250.581 150.423 250.896 151.314 250.896C151.913 250.896 152.47 250.763 152.984 250.496C153.499 250.229 153.863 249.962 154.078 249.695L154.42 249.305L155.318 250.203C155.279 250.255 155.221 250.33 155.143 250.428C155.071 250.519 154.908 250.678 154.654 250.906C154.407 251.128 154.137 251.326 153.844 251.502C153.557 251.671 153.183 251.831 152.721 251.98C152.265 252.124 151.796 252.195 151.314 252.195C150.006 252.195 148.88 251.71 147.936 250.74C146.992 249.764 146.52 248.582 146.52 247.195C146.52 245.809 146.985 244.63 147.916 243.66C148.854 242.684 149.954 242.195 151.217 242.195C152.525 242.195 153.619 242.651 154.498 243.562C155.377 244.467 155.816 245.613 155.816 247L155.719 247.723ZM153.375 244.354C152.776 243.787 152.057 243.504 151.217 243.504C150.377 243.504 149.645 243.8 149.02 244.393C148.395 244.985 148.027 245.688 147.916 246.502H154.42C154.316 245.636 153.967 244.92 153.375 244.354ZM159.029 250.73C158.085 249.76 157.613 248.582 157.613 247.195C157.613 245.809 158.085 244.63 159.029 243.66C159.98 242.684 161.106 242.195 162.408 242.195C163.157 242.195 163.854 242.358 164.498 242.684C165.149 243.003 165.615 243.322 165.895 243.641L166.314 244.1L165.309 245.096C165.283 245.057 165.243 245.001 165.191 244.93C165.139 244.858 165.022 244.728 164.84 244.539C164.664 244.35 164.472 244.188 164.264 244.051C164.055 243.908 163.785 243.781 163.453 243.67C163.121 243.559 162.773 243.504 162.408 243.504C161.49 243.504 160.693 243.862 160.016 244.578C159.345 245.288 159.01 246.163 159.01 247.205C159.01 248.24 159.345 249.116 160.016 249.832C160.693 250.542 161.49 250.896 162.408 250.896C162.968 250.896 163.499 250.763 164 250.496C164.501 250.229 164.866 249.962 165.094 249.695L165.416 249.305L166.412 250.203C166.373 250.255 166.311 250.33 166.227 250.428C166.148 250.519 165.979 250.678 165.719 250.906C165.458 251.128 165.185 251.326 164.898 251.502C164.612 251.671 164.241 251.831 163.785 251.98C163.336 252.124 162.877 252.195 162.408 252.195C161.1 252.195 159.973 251.707 159.029 250.73ZM167.408 243.699V242.4H175.602V243.699H172.203V252H170.807V243.699H167.408ZM186.109 247.723L178.307 247.703C178.359 248.569 178.714 249.318 179.371 249.949C180.035 250.581 180.813 250.896 181.705 250.896C182.304 250.896 182.861 250.763 183.375 250.496C183.889 250.229 184.254 249.962 184.469 249.695L184.811 249.305L185.709 250.203C185.67 250.255 185.611 250.33 185.533 250.428C185.462 250.519 185.299 250.678 185.045 250.906C184.798 251.128 184.527 251.326 184.234 251.502C183.948 251.671 183.574 251.831 183.111 251.98C182.656 252.124 182.187 252.195 181.705 252.195C180.396 252.195 179.27 251.71 178.326 250.74C177.382 249.764 176.91 248.582 176.91 247.195C176.91 245.809 177.376 244.63 178.307 243.66C179.244 242.684 180.344 242.195 181.607 242.195C182.916 242.195 184.01 242.651 184.889 243.562C185.768 244.467 186.207 245.613 186.207 247L186.109 247.723ZM183.766 244.354C183.167 243.787 182.447 243.504 181.607 243.504C180.768 243.504 180.035 243.8 179.41 244.393C178.785 244.985 178.417 245.688 178.307 246.502H184.811C184.706 245.636 184.358 244.92 183.766 244.354ZM191.158 244.607C190.455 245.35 190.104 246.215 190.104 247.205C190.104 248.188 190.452 249.051 191.148 249.793C191.852 250.529 192.636 250.896 193.502 250.896C194.329 250.896 195.068 250.538 195.719 249.822C196.376 249.1 196.705 248.227 196.705 247.205C196.705 246.176 196.376 245.304 195.719 244.588C195.068 243.865 194.329 243.504 193.502 243.504C192.636 243.504 191.855 243.872 191.158 244.607ZM190.104 250.496V256.199H188.707V242.4H190.104V243.904C190.13 243.865 190.175 243.807 190.24 243.729C190.312 243.644 190.452 243.504 190.66 243.309C190.875 243.113 191.106 242.941 191.354 242.791C191.601 242.635 191.917 242.498 192.301 242.381C192.691 242.257 193.092 242.195 193.502 242.195C194.726 242.195 195.797 242.687 196.715 243.67C197.639 244.653 198.102 245.831 198.102 247.205C198.102 248.572 197.643 249.747 196.725 250.73C195.807 251.707 194.732 252.195 193.502 252.195C193.092 252.195 192.695 252.137 192.311 252.02C191.933 251.902 191.614 251.762 191.354 251.6C191.093 251.437 190.865 251.274 190.67 251.111C190.481 250.942 190.338 250.799 190.24 250.682L190.104 250.496ZM207.271 249.822C207.955 249.113 208.297 248.24 208.297 247.205C208.297 246.163 207.952 245.288 207.262 244.578C206.578 243.862 205.755 243.504 204.791 243.504C203.834 243.504 203.01 243.862 202.32 244.578C201.637 245.288 201.295 246.16 201.295 247.195C201.295 248.224 201.637 249.1 202.32 249.822C203.01 250.538 203.834 250.896 204.791 250.896C205.755 250.896 206.581 250.538 207.271 249.822ZM201.334 250.75C200.377 249.786 199.898 248.605 199.898 247.205C199.898 245.799 200.374 244.614 201.324 243.65C202.281 242.68 203.44 242.195 204.801 242.195C206.161 242.195 207.317 242.68 208.268 243.65C209.218 244.614 209.693 245.799 209.693 247.205C209.693 248.605 209.218 249.786 208.268 250.75C207.317 251.714 206.161 252.195 204.801 252.195C203.44 252.195 202.285 251.714 201.334 250.75ZM219.098 252V247.801H213.6V252H212.203V242.4H213.6V246.502H219.098V242.4H220.504V252H219.098ZM230.377 249.822C231.061 249.113 231.402 248.24 231.402 247.205C231.402 246.163 231.057 245.288 230.367 244.578C229.684 243.862 228.86 243.504 227.896 243.504C226.939 243.504 226.116 243.862 225.426 244.578C224.742 245.288 224.4 246.16 224.4 247.195C224.4 248.224 224.742 249.1 225.426 249.822C226.116 250.538 226.939 250.896 227.896 250.896C228.86 250.896 229.687 250.538 230.377 249.822ZM224.439 250.75C223.482 249.786 223.004 248.605 223.004 247.205C223.004 245.799 223.479 244.614 224.43 243.65C225.387 242.68 226.546 242.195 227.906 242.195C229.267 242.195 230.423 242.68 231.373 243.65C232.324 244.614 232.799 245.799 232.799 247.205C232.799 248.605 232.324 249.786 231.373 250.75C230.423 251.714 229.267 252.195 227.906 252.195C226.546 252.195 225.39 251.714 224.439 250.75ZM235.309 242.4H239.703C240.582 242.4 241.285 242.638 241.812 243.113C242.34 243.582 242.604 244.178 242.604 244.9C242.604 245.311 242.503 245.685 242.301 246.023C242.105 246.355 241.907 246.587 241.705 246.717L241.402 246.902C241.441 246.915 241.497 246.935 241.568 246.961C241.646 246.987 241.777 247.059 241.959 247.176C242.148 247.286 242.311 247.42 242.447 247.576C242.59 247.726 242.717 247.944 242.828 248.23C242.945 248.517 243.004 248.839 243.004 249.197C243.004 250.063 242.734 250.747 242.193 251.248C241.653 251.749 240.891 252 239.908 252H235.309V242.4ZM239.908 247.498H236.705V250.701H239.908C240.455 250.701 240.875 250.561 241.168 250.281C241.461 250.001 241.607 249.607 241.607 249.1C241.607 248.592 241.461 248.198 241.168 247.918C240.875 247.638 240.455 247.498 239.908 247.498ZM239.703 246.297C240.706 246.297 241.207 245.864 241.207 244.998C241.207 244.132 240.706 243.699 239.703 243.699H236.705V246.297H239.703ZM256.197 242.4V252H254.791V242.4H256.197ZM247.096 250.701H249.518C250.143 250.701 250.644 250.525 251.021 250.174C251.406 249.816 251.598 249.357 251.598 248.797C251.598 248.237 251.406 247.781 251.021 247.43C250.644 247.078 250.136 246.902 249.498 246.902H247.096V250.701ZM252.057 246.482C252.682 247.068 252.994 247.843 252.994 248.807C252.994 249.764 252.685 250.535 252.066 251.121C251.448 251.707 250.598 252 249.518 252H245.699V242.4H247.096V245.604H249.498C250.579 245.604 251.432 245.896 252.057 246.482ZM267.887 247.723L260.084 247.703C260.136 248.569 260.491 249.318 261.148 249.949C261.812 250.581 262.59 250.896 263.482 250.896C264.081 250.896 264.638 250.763 265.152 250.496C265.667 250.229 266.031 249.962 266.246 249.695L266.588 249.305L267.486 250.203C267.447 250.255 267.389 250.33 267.311 250.428C267.239 250.519 267.076 250.678 266.822 250.906C266.575 251.128 266.305 251.326 266.012 251.502C265.725 251.671 265.351 251.831 264.889 251.98C264.433 252.124 263.964 252.195 263.482 252.195C262.174 252.195 261.048 251.71 260.104 250.74C259.16 249.764 258.688 248.582 258.688 247.195C258.688 245.809 259.153 244.63 260.084 243.66C261.021 242.684 262.122 242.195 263.385 242.195C264.693 242.195 265.787 242.651 266.666 243.562C267.545 244.467 267.984 245.613 267.984 247L267.887 247.723ZM265.543 244.354C264.944 243.787 264.225 243.504 263.385 243.504C262.545 243.504 261.812 243.8 261.188 244.393C260.562 244.985 260.195 245.688 260.084 246.502H266.588C266.484 245.636 266.135 244.92 265.543 244.354Z" fill="black"/>
<path d="M92 112C92 120.284 85.2843 127 77 127C68.7157 127 62 120.284 62 112C62 103.716 68.7157 97 77 97C85.2843 97 92 103.716 92 112Z" fill="#EDC41F" stroke="white" stroke-width="2"/>
<path d="M92 207C92 215.284 85.2843 222 77 222C68.7157 222 62 215.284 62 207C62 198.716 68.7157 192 77 192C85.2843 192 92 198.716 92 207Z" fill="#32AD28" stroke="white" stroke-width="2"/>
<path d="M92 245C92 253.284 85.2843 260 77 260C68.7157 260 62 253.284 62 245C62 236.716 68.7157 230 77 230C85.2843 230 92 236.716 92 245Z" fill="#D73030" stroke="white" stroke-width="2"/>
<path d="M92 283C92 291.284 85.2843 298 77 298C68.7157 298 62 291.284 62 283C62 274.716 68.7157 268 77 268C85.2843 268 92 274.716 92 283Z" fill="#38BEBD" stroke="white" stroke-width="2"/>
<path d="M92 169C92 177.284 85.2843 184 77 184C68.7157 184 62 177.284 62 169C62 160.716 68.7157 154 77 154C85.2843 154 92 160.716 92 169Z" fill="#EDC41F" stroke="white" stroke-width="2"/>
</svg>
