<svg width="362" height="217" viewBox="0 0 362 217" fill="none" xmlns="http://www.w3.org/2000/svg">
<rect x="35" y="80" width="320" height="2" rx="1" fill="white"/>
<rect x="35" y="5" width="2" height="177" rx="1" fill="white"/>
<rect width="6" height="1" rx="0.5" transform="matrix(1 0 0 -1 31 31)" fill="white"/>
<rect width="6" height="1" rx="0.5" transform="matrix(1 0 0 -1 31 6)" fill="white"/>
<rect width="6" height="1" rx="0.5" transform="matrix(1 0 0 -1 31 56)" fill="white"/>
<rect width="6" height="1" rx="0.5" transform="matrix(1 0 0 -1 31 107)" fill="white"/>
<rect width="1" height="10" rx="0.5" transform="matrix(1 0 0 -1 87 86)" fill="white"/>
<rect width="1" height="10" rx="0.5" transform="matrix(1 0 0 -1 151 86)" fill="white"/>
<rect width="1" height="10" rx="0.5" transform="matrix(1 0 0 -1 215 86)" fill="white"/>
<rect width="1" height="10" rx="0.5" transform="matrix(1 0 0 -1 279 86)" fill="white"/>
<rect width="1" height="10" rx="0.5" transform="matrix(1 0 0 -1 343 86)" fill="white"/>
<rect width="6" height="1" rx="0.5" transform="matrix(1 0 0 -1 31 132)" fill="white"/>
<rect width="6" height="1" rx="0.5" transform="matrix(1 0 0 -1 31 157)" fill="white"/>
<rect width="6" height="1" rx="0.5" transform="matrix(1 0 0 -1 31 182)" fill="white"/>
<path d="M11.1035 2.59766H12.123V11H10.8047V4.64258H9.30469V3.74023C9.80859 3.68555 10.1914 3.56641 10.4531 3.38281C10.7188 3.19531 10.9355 2.93359 11.1035 2.59766ZM17.4023 5.42188C18.2422 5.42188 18.9316 5.6875 19.4707 6.21875C20.0098 6.75 20.2793 7.42383 20.2793 8.24023C20.2793 9.08789 20.0039 9.7793 19.4531 10.3145C18.9023 10.8496 18.1777 11.1172 17.2793 11.1172C16.8965 11.1172 16.5332 11.0723 16.1895 10.9824C15.8457 10.8887 15.5605 10.7793 15.334 10.6543C15.1113 10.5254 14.918 10.3965 14.7539 10.2676C14.5898 10.1387 14.4727 10.0312 14.4023 9.94531L14.2793 9.79883L15.123 8.96094C15.1387 8.98438 15.166 9.01953 15.2051 9.06641C15.2441 9.10938 15.332 9.1875 15.4688 9.30078C15.6055 9.41016 15.75 9.50781 15.9023 9.59375C16.0547 9.67578 16.2539 9.75195 16.5 9.82227C16.75 9.88867 17.0098 9.92188 17.2793 9.92188C17.7598 9.92188 18.1602 9.76172 18.4805 9.44141C18.8008 9.12109 18.9609 8.7207 18.9609 8.24023C18.9609 7.75977 18.8008 7.35938 18.4805 7.03906C18.1602 6.71875 17.7598 6.55859 17.2793 6.55859C16.9277 6.55859 16.6113 6.62305 16.3301 6.75195C16.0527 6.88086 15.8613 7.00977 15.7559 7.13867L15.6035 7.33789H14.6426L14.8828 2.59766H19.7402V3.79883H16.084L15.9609 5.7793C16.2812 5.54102 16.7617 5.42188 17.4023 5.42188Z" fill="white"/>
<path d="M10.1426 26.5977H11.1621V35H9.84375V28.6426H8.34375V27.7402C8.84766 27.6855 9.23047 27.5664 9.49219 27.3828C9.75781 27.1953 9.97461 26.9336 10.1426 26.5977ZM14.2266 33.9395C13.543 33.1582 13.2012 32.1113 13.2012 30.7988C13.2012 29.4863 13.543 28.4395 14.2266 27.6582C14.9102 26.873 15.748 26.4805 16.7402 26.4805C17.7324 26.4805 18.5703 26.873 19.2539 27.6582C19.9375 28.4395 20.2793 29.4863 20.2793 30.7988C20.2793 32.1113 19.9375 33.1602 19.2539 33.9453C18.5703 34.7266 17.7324 35.1172 16.7402 35.1172C15.748 35.1172 14.9102 34.7246 14.2266 33.9395ZM18.3105 33.084C18.7441 32.5293 18.9609 31.7676 18.9609 30.7988C18.9609 29.8301 18.7422 29.0684 18.3047 28.5137C17.8711 27.959 17.3496 27.6816 16.7402 27.6816C16.1309 27.6816 15.6074 27.959 15.1699 28.5137C14.7363 29.0684 14.5195 29.8301 14.5195 30.7988C14.5195 31.7676 14.7363 32.5312 15.1699 33.0898C15.6074 33.6445 16.1309 33.9219 16.7402 33.9219C17.3496 33.9219 17.873 33.6426 18.3105 33.084Z" fill="white"/>
<path d="M17.4023 55.4219C18.2422 55.4219 18.9316 55.6875 19.4707 56.2188C20.0098 56.75 20.2793 57.4238 20.2793 58.2402C20.2793 59.0879 20.0039 59.7793 19.4531 60.3145C18.9023 60.8496 18.1777 61.1172 17.2793 61.1172C16.8965 61.1172 16.5332 61.0723 16.1895 60.9824C15.8457 60.8887 15.5605 60.7793 15.334 60.6543C15.1113 60.5254 14.918 60.3965 14.7539 60.2676C14.5898 60.1387 14.4727 60.0312 14.4023 59.9453L14.2793 59.7988L15.123 58.9609C15.1387 58.9844 15.166 59.0195 15.2051 59.0664C15.2441 59.1094 15.332 59.1875 15.4688 59.3008C15.6055 59.4102 15.75 59.5078 15.9023 59.5938C16.0547 59.6758 16.2539 59.752 16.5 59.8223C16.75 59.8887 17.0098 59.9219 17.2793 59.9219C17.7598 59.9219 18.1602 59.7617 18.4805 59.4414C18.8008 59.1211 18.9609 58.7207 18.9609 58.2402C18.9609 57.7598 18.8008 57.3594 18.4805 57.0391C18.1602 56.7188 17.7598 56.5586 17.2793 56.5586C16.9277 56.5586 16.6113 56.623 16.3301 56.752C16.0527 56.8809 15.8613 57.0098 15.7559 57.1387L15.6035 57.3379H14.6426L14.8828 52.5977H19.7402V53.7988H16.084L15.9609 55.7793C16.2812 55.541 16.7617 55.4219 17.4023 55.4219Z" fill="white"/>
<path d="M14.2266 83.9395C13.543 83.1582 13.2012 82.1113 13.2012 80.7988C13.2012 79.4863 13.543 78.4395 14.2266 77.6582C14.9102 76.873 15.748 76.4805 16.7402 76.4805C17.7324 76.4805 18.5703 76.873 19.2539 77.6582C19.9375 78.4395 20.2793 79.4863 20.2793 80.7988C20.2793 82.1113 19.9375 83.1602 19.2539 83.9453C18.5703 84.7266 17.7324 85.1172 16.7402 85.1172C15.748 85.1172 14.9102 84.7246 14.2266 83.9395ZM18.3105 83.084C18.7441 82.5293 18.9609 81.7676 18.9609 80.7988C18.9609 79.8301 18.7422 79.0684 18.3047 78.5137C17.8711 77.959 17.3496 77.6816 16.7402 77.6816C16.1309 77.6816 15.6074 77.959 15.1699 78.5137C14.7363 79.0684 14.5195 79.8301 14.5195 80.7988C14.5195 81.7676 14.7363 82.5312 15.1699 83.0898C15.6074 83.6445 16.1309 83.9219 16.7402 83.9219C17.3496 83.9219 17.873 83.6426 18.3105 83.084Z" fill="white"/>
<path d="M12.9668 104.922V106H8.76562V104.922H12.9668ZM17.4023 103.422C18.2422 103.422 18.9316 103.688 19.4707 104.219C20.0098 104.75 20.2793 105.424 20.2793 106.24C20.2793 107.088 20.0039 107.779 19.4531 108.314C18.9023 108.85 18.1777 109.117 17.2793 109.117C16.8965 109.117 16.5332 109.072 16.1895 108.982C15.8457 108.889 15.5605 108.779 15.334 108.654C15.1113 108.525 14.918 108.396 14.7539 108.268C14.5898 108.139 14.4727 108.031 14.4023 107.945L14.2793 107.799L15.123 106.961C15.1387 106.984 15.166 107.02 15.2051 107.066C15.2441 107.109 15.332 107.188 15.4688 107.301C15.6055 107.41 15.75 107.508 15.9023 107.594C16.0547 107.676 16.2539 107.752 16.5 107.822C16.75 107.889 17.0098 107.922 17.2793 107.922C17.7598 107.922 18.1602 107.762 18.4805 107.441C18.8008 107.121 18.9609 106.721 18.9609 106.24C18.9609 105.76 18.8008 105.359 18.4805 105.039C18.1602 104.719 17.7598 104.559 17.2793 104.559C16.9277 104.559 16.6113 104.623 16.3301 104.752C16.0527 104.881 15.8613 105.01 15.7559 105.139L15.6035 105.338H14.6426L14.8828 100.598H19.7402V101.799H16.084L15.9609 103.779C16.2812 103.541 16.7617 103.422 17.4023 103.422Z" fill="white"/>
<path d="M7.38867 129.922V131H3.1875V129.922H7.38867ZM10.1426 125.598H11.1621V134H9.84375V127.643H8.34375V126.74C8.84766 126.686 9.23047 126.566 9.49219 126.383C9.75781 126.195 9.97461 125.934 10.1426 125.598ZM14.2266 132.939C13.543 132.158 13.2012 131.111 13.2012 129.799C13.2012 128.486 13.543 127.439 14.2266 126.658C14.9102 125.873 15.748 125.48 16.7402 125.48C17.7324 125.48 18.5703 125.873 19.2539 126.658C19.9375 127.439 20.2793 128.486 20.2793 129.799C20.2793 131.111 19.9375 132.16 19.2539 132.945C18.5703 133.727 17.7324 134.117 16.7402 134.117C15.748 134.117 14.9102 133.725 14.2266 132.939ZM18.3105 132.084C18.7441 131.529 18.9609 130.768 18.9609 129.799C18.9609 128.83 18.7422 128.068 18.3047 127.514C17.8711 126.959 17.3496 126.682 16.7402 126.682C16.1309 126.682 15.6074 126.959 15.1699 127.514C14.7363 128.068 14.5195 128.83 14.5195 129.799C14.5195 130.768 14.7363 131.531 15.1699 132.09C15.6074 132.645 16.1309 132.922 16.7402 132.922C17.3496 132.922 17.873 132.643 18.3105 132.084Z" fill="white"/>
<path d="M8.34961 154.922V156H4.14844V154.922H8.34961ZM11.1035 150.598H12.123V159H10.8047V152.643H9.30469V151.74C9.80859 151.686 10.1914 151.566 10.4531 151.383C10.7188 151.195 10.9355 150.934 11.1035 150.598ZM17.4023 153.422C18.2422 153.422 18.9316 153.688 19.4707 154.219C20.0098 154.75 20.2793 155.424 20.2793 156.24C20.2793 157.088 20.0039 157.779 19.4531 158.314C18.9023 158.85 18.1777 159.117 17.2793 159.117C16.8965 159.117 16.5332 159.072 16.1895 158.982C15.8457 158.889 15.5605 158.779 15.334 158.654C15.1113 158.525 14.918 158.396 14.7539 158.268C14.5898 158.139 14.4727 158.031 14.4023 157.945L14.2793 157.799L15.123 156.961C15.1387 156.984 15.166 157.02 15.2051 157.066C15.2441 157.109 15.332 157.188 15.4688 157.301C15.6055 157.41 15.75 157.508 15.9023 157.594C16.0547 157.676 16.2539 157.752 16.5 157.822C16.75 157.889 17.0098 157.922 17.2793 157.922C17.7598 157.922 18.1602 157.762 18.4805 157.441C18.8008 157.121 18.9609 156.721 18.9609 156.24C18.9609 155.76 18.8008 155.359 18.4805 155.039C18.1602 154.719 17.7598 154.559 17.2793 154.559C16.9277 154.559 16.6113 154.623 16.3301 154.752C16.0527 154.881 15.8613 155.01 15.7559 155.139L15.6035 155.338H14.6426L14.8828 150.598H19.7402V151.799H16.084L15.9609 153.779C16.2812 153.541 16.7617 153.422 17.4023 153.422Z" fill="white"/>
<path d="M5.2207 179.922V181H1.01953V179.922H5.2207ZM11.7539 184H6.17578C6.17578 183.48 6.25391 183.01 6.41016 182.588C6.56641 182.162 6.76953 181.809 7.01953 181.527C7.27344 181.246 7.55078 180.988 7.85156 180.754C8.15625 180.52 8.45898 180.307 8.75977 180.115C9.06055 179.92 9.33594 179.729 9.58594 179.541C9.83984 179.354 10.0449 179.135 10.2012 178.885C10.3574 178.631 10.4355 178.355 10.4355 178.059C10.4355 177.633 10.3027 177.297 10.0371 177.051C9.77539 176.805 9.4082 176.682 8.93555 176.682C8.70508 176.682 8.48828 176.725 8.28516 176.811C8.08594 176.893 7.92969 176.992 7.81641 177.109C7.70703 177.223 7.60938 177.338 7.52344 177.455C7.44141 177.572 7.38477 177.674 7.35352 177.76L7.3125 177.883L6.23438 177.402C6.25 177.348 6.27148 177.277 6.29883 177.191C6.33008 177.105 6.41211 176.953 6.54492 176.734C6.68164 176.516 6.83984 176.322 7.01953 176.154C7.19922 175.986 7.45898 175.832 7.79883 175.691C8.13867 175.551 8.51758 175.48 8.93555 175.48C9.75977 175.48 10.4355 175.729 10.9629 176.225C11.4902 176.721 11.7539 177.332 11.7539 178.059C11.7539 178.441 11.6758 178.797 11.5195 179.125C11.3633 179.453 11.1641 179.729 10.9219 179.951C10.6836 180.17 10.4082 180.396 10.0957 180.631C9.78711 180.861 9.48633 181.072 9.19336 181.264C8.90039 181.455 8.61133 181.686 8.32617 181.955C8.04492 182.221 7.82812 182.502 7.67578 182.799H11.7539V184ZM14.2266 182.939C13.543 182.158 13.2012 181.111 13.2012 179.799C13.2012 178.486 13.543 177.439 14.2266 176.658C14.9102 175.873 15.748 175.48 16.7402 175.48C17.7324 175.48 18.5703 175.873 19.2539 176.658C19.9375 177.439 20.2793 178.486 20.2793 179.799C20.2793 181.111 19.9375 182.16 19.2539 182.945C18.5703 183.727 17.7324 184.117 16.7402 184.117C15.748 184.117 14.9102 183.725 14.2266 182.939ZM18.3105 182.084C18.7441 181.529 18.9609 180.768 18.9609 179.799C18.9609 178.83 18.7422 178.068 18.3047 177.514C17.8711 176.959 17.3496 176.682 16.7402 176.682C16.1309 176.682 15.6074 176.959 15.1699 177.514C14.7363 178.068 14.5195 178.83 14.5195 179.799C14.5195 180.768 14.7363 181.531 15.1699 182.09C15.6074 182.645 16.1309 182.922 16.7402 182.922C17.3496 182.922 17.873 182.643 18.3105 182.084Z" fill="white"/>
<path d="M74.084 97.9395C73.4004 97.1582 73.0586 96.1113 73.0586 94.7988C73.0586 93.4863 73.4004 92.4395 74.084 91.6582C74.7676 90.873 75.6055 90.4805 76.5977 90.4805C77.5898 90.4805 78.4277 90.873 79.1113 91.6582C79.7949 92.4395 80.1367 93.4863 80.1367 94.7988C80.1367 96.1113 79.7949 97.1602 79.1113 97.9453C78.4277 98.7266 77.5898 99.1172 76.5977 99.1172C75.6055 99.1172 74.7676 98.7246 74.084 97.9395ZM78.168 97.084C78.6016 96.5293 78.8184 95.7676 78.8184 94.7988C78.8184 93.8301 78.5996 93.0684 78.1621 92.5137C77.7285 91.959 77.207 91.6816 76.5977 91.6816C75.9883 91.6816 75.4648 91.959 75.0273 92.5137C74.5938 93.0684 74.377 93.8301 74.377 94.7988C74.377 95.7676 74.5938 96.5312 75.0273 97.0898C75.4648 97.6445 75.9883 97.9219 76.5977 97.9219C77.207 97.9219 77.7305 97.6426 78.168 97.084ZM85.2402 96.5977V99H84.0391V93.2402H85.2402V95.5195H88.0586V93.2402H89.2598V99H88.0586V96.5977H85.2402ZM96.2793 96.5391H91.7793C91.8418 96.9453 92.041 97.2969 92.377 97.5938C92.7168 97.8906 93.1191 98.0391 93.584 98.0391C93.9199 98.0391 94.2324 97.9629 94.5215 97.8105C94.8145 97.6582 95.0215 97.5098 95.1426 97.3652L95.3242 97.1426L96.1035 97.9219C96.0801 97.9531 96.043 97.998 95.9922 98.0566C95.9453 98.1113 95.8418 98.207 95.6816 98.3438C95.5215 98.4766 95.3516 98.5957 95.1719 98.7012C94.9922 98.8027 94.7578 98.8984 94.4688 98.9883C94.1836 99.0742 93.8887 99.1172 93.584 99.1172C92.7676 99.1172 92.0625 98.8184 91.4688 98.2207C90.8789 97.6191 90.584 96.8984 90.584 96.0586C90.584 95.25 90.8711 94.5586 91.4453 93.9844C92.0234 93.4062 92.7148 93.1172 93.5195 93.1172C94.3281 93.1172 95 93.3867 95.5352 93.9258C96.0742 94.4609 96.3438 95.1328 96.3438 95.9414L96.2793 96.5391ZM93.5195 94.1426C93.0859 94.1426 92.7207 94.2715 92.4238 94.5293C92.1309 94.7832 91.9336 95.1133 91.832 95.5195H95.166C95.0957 95.1133 94.9141 94.7832 94.6211 94.5293C94.3281 94.2715 93.9609 94.1426 93.5195 94.1426ZM96.8184 97.9219H97.2344C97.2578 97.8984 97.291 97.8613 97.334 97.8105C97.3809 97.7559 97.459 97.6367 97.5684 97.4531C97.6816 97.2695 97.7793 97.0723 97.8613 96.8613C97.9473 96.6465 98.0234 96.3652 98.0898 96.0176C98.1602 95.6699 98.1953 95.3047 98.1953 94.9219V93.2402H102.396V97.9219H103.234V100.441H102.039V99H98.0195V100.441H96.8184V97.9219ZM99.3965 94.3184V94.9219C99.3965 95.3047 99.3633 95.668 99.2969 96.0117C99.2344 96.3555 99.1543 96.6406 99.0566 96.8672C98.9629 97.0898 98.8672 97.2832 98.7695 97.4473C98.6758 97.6113 98.5977 97.7285 98.5352 97.7988L98.4355 97.9219H101.195V94.3184H99.3965Z" fill="white"/>
<path d="M200.416 90.5977H201.436V99H200.117V92.6426H198.617V91.7402C199.121 91.6855 199.504 91.5664 199.766 91.3828C200.031 91.1953 200.248 90.9336 200.416 90.5977ZM203.111 90.5977H208.695V91.6816L205.156 99H203.832L207.312 91.7988H203.111V90.5977ZM213.441 96.5977V99H212.24V93.2402H213.441V95.5195H216.26V93.2402H217.461V99H216.26V96.5977H213.441ZM224.48 96.5391H219.98C220.043 96.9453 220.242 97.2969 220.578 97.5938C220.918 97.8906 221.32 98.0391 221.785 98.0391C222.121 98.0391 222.434 97.9629 222.723 97.8105C223.016 97.6582 223.223 97.5098 223.344 97.3652L223.525 97.1426L224.305 97.9219C224.281 97.9531 224.244 97.998 224.193 98.0566C224.146 98.1113 224.043 98.207 223.883 98.3438C223.723 98.4766 223.553 98.5957 223.373 98.7012C223.193 98.8027 222.959 98.8984 222.67 98.9883C222.385 99.0742 222.09 99.1172 221.785 99.1172C220.969 99.1172 220.264 98.8184 219.67 98.2207C219.08 97.6191 218.785 96.8984 218.785 96.0586C218.785 95.25 219.072 94.5586 219.646 93.9844C220.225 93.4062 220.916 93.1172 221.721 93.1172C222.529 93.1172 223.201 93.3867 223.736 93.9258C224.275 94.4609 224.545 95.1328 224.545 95.9414L224.48 96.5391ZM221.721 94.1426C221.287 94.1426 220.922 94.2715 220.625 94.5293C220.332 94.7832 220.135 95.1133 220.033 95.5195H223.367C223.297 95.1133 223.115 94.7832 222.822 94.5293C222.529 94.2715 222.162 94.1426 221.721 94.1426ZM225.02 97.9219H225.436C225.459 97.8984 225.492 97.8613 225.535 97.8105C225.582 97.7559 225.66 97.6367 225.77 97.4531C225.883 97.2695 225.98 97.0723 226.062 96.8613C226.148 96.6465 226.225 96.3652 226.291 96.0176C226.361 95.6699 226.396 95.3047 226.396 94.9219V93.2402H230.598V97.9219H231.436V100.441H230.24V99H226.221V100.441H225.02V97.9219ZM227.598 94.3184V94.9219C227.598 95.3047 227.564 95.668 227.498 96.0117C227.436 96.3555 227.355 96.6406 227.258 96.8672C227.164 97.0898 227.068 97.2832 226.971 97.4473C226.877 97.6113 226.799 97.7285 226.736 97.7988L226.637 97.9219H229.396V94.3184H227.598Z" fill="white"/>
<path d="M330.896 96.1172H331.975V97.3184H330.896V99H329.572V97.3184H325.494V95.8828L329.215 90.5977H330.896V96.1172ZM329.572 96.1172V92.0977L326.754 96.1172H329.572ZM337.078 94.5586C337.117 94.5742 337.17 94.5977 337.236 94.6289C337.307 94.6562 337.428 94.7266 337.6 94.8398C337.771 94.9492 337.924 95.0762 338.057 95.2207C338.189 95.3652 338.309 95.5664 338.414 95.8242C338.523 96.0781 338.578 96.3574 338.578 96.6621C338.578 97.3496 338.303 97.9316 337.752 98.4082C337.205 98.8809 336.48 99.1172 335.578 99.1172C335.195 99.1172 334.832 99.0723 334.488 98.9824C334.145 98.8887 333.859 98.7793 333.633 98.6543C333.41 98.5254 333.217 98.3965 333.053 98.2676C332.889 98.1387 332.77 98.0312 332.695 97.9453L332.578 97.7988L333.416 96.9609C333.432 96.9844 333.459 97.0195 333.498 97.0664C333.541 97.1094 333.631 97.1875 333.768 97.3008C333.904 97.4102 334.047 97.5078 334.195 97.5938C334.348 97.6758 334.547 97.752 334.793 97.8223C335.043 97.8887 335.305 97.9219 335.578 97.9219C336.098 97.9219 336.508 97.7969 336.809 97.5469C337.109 97.293 337.26 96.9785 337.26 96.6035C337.26 96.2246 337.109 95.9102 336.809 95.6602C336.508 95.4062 336.098 95.2793 335.578 95.2793H334.74V94.0781H335.578C335.992 94.0781 336.314 93.9707 336.545 93.7559C336.779 93.541 336.896 93.25 336.896 92.8828C336.896 92.5117 336.779 92.2188 336.545 92.0039C336.314 91.7891 335.992 91.6816 335.578 91.6816C335.227 91.6816 334.895 91.7578 334.582 91.9102C334.27 92.0625 334.049 92.209 333.92 92.3496L333.721 92.5781L332.877 91.7402C332.9 91.709 332.936 91.666 332.982 91.6113C333.033 91.5527 333.143 91.4492 333.311 91.3008C333.479 91.1523 333.658 91.0254 333.85 90.9199C334.041 90.8105 334.293 90.7109 334.605 90.6211C334.918 90.5273 335.242 90.4805 335.578 90.4805C336.402 90.4805 337.049 90.6934 337.518 91.1191C337.986 91.541 338.221 92.0879 338.221 92.7598C338.221 92.9902 338.18 93.2129 338.098 93.4277C338.02 93.6387 337.924 93.8105 337.811 93.9434C337.697 94.0762 337.586 94.1914 337.477 94.2891C337.371 94.3828 337.277 94.4492 337.195 94.4883L337.078 94.5586ZM343.564 96.5977V99H342.363V93.2402H343.564V95.5195H346.383V93.2402H347.584V99H346.383V96.5977H343.564ZM354.604 96.5391H350.104C350.166 96.9453 350.365 97.2969 350.701 97.5938C351.041 97.8906 351.443 98.0391 351.908 98.0391C352.244 98.0391 352.557 97.9629 352.846 97.8105C353.139 97.6582 353.346 97.5098 353.467 97.3652L353.648 97.1426L354.428 97.9219C354.404 97.9531 354.367 97.998 354.316 98.0566C354.27 98.1113 354.166 98.207 354.006 98.3438C353.846 98.4766 353.676 98.5957 353.496 98.7012C353.316 98.8027 353.082 98.8984 352.793 98.9883C352.508 99.0742 352.213 99.1172 351.908 99.1172C351.092 99.1172 350.387 98.8184 349.793 98.2207C349.203 97.6191 348.908 96.8984 348.908 96.0586C348.908 95.25 349.195 94.5586 349.77 93.9844C350.348 93.4062 351.039 93.1172 351.844 93.1172C352.652 93.1172 353.324 93.3867 353.859 93.9258C354.398 94.4609 354.668 95.1328 354.668 95.9414L354.604 96.5391ZM351.844 94.1426C351.41 94.1426 351.045 94.2715 350.748 94.5293C350.455 94.7832 350.258 95.1133 350.156 95.5195H353.49C353.42 95.1133 353.238 94.7832 352.945 94.5293C352.652 94.2715 352.285 94.1426 351.844 94.1426ZM355.143 97.9219H355.559C355.582 97.8984 355.615 97.8613 355.658 97.8105C355.705 97.7559 355.783 97.6367 355.893 97.4531C356.006 97.2695 356.104 97.0723 356.186 96.8613C356.271 96.6465 356.348 96.3652 356.414 96.0176C356.484 95.6699 356.52 95.3047 356.52 94.9219V93.2402H360.721V97.9219H361.559V100.441H360.363V99H356.344V100.441H355.143V97.9219ZM357.721 94.3184V94.9219C357.721 95.3047 357.688 95.668 357.621 96.0117C357.559 96.3555 357.479 96.6406 357.381 96.8672C357.287 97.0898 357.191 97.2832 357.094 97.4473C357 97.6113 356.922 97.7285 356.859 97.7988L356.76 97.9219H359.52V94.3184H357.721Z" fill="white"/>
<path d="M87.5 81L214 181.5L342.5 72" stroke="#FF1414" stroke-width="2" stroke-linejoin="round"/>
<path d="M87.5 81L215.5 77L342.5 49" stroke="#FFA114" stroke-width="2" stroke-linejoin="round"/>
<path d="M87.5 81L215.5 64.5L343.5 31" stroke="#229CDB" stroke-width="2" stroke-linejoin="round"/>
<path d="M91.9023 212.799H94.0645C94.4551 212.799 94.7812 212.668 95.043 212.406C95.3086 212.141 95.4414 211.812 95.4414 211.422C95.4414 211.027 95.3086 210.699 95.043 210.438C94.7812 210.172 94.4551 210.039 94.0645 210.039H91.9023V212.799ZM94.0645 214H90.584V205.598H96.1035V206.799H91.9023V208.838H94.0645C94.8418 208.838 95.4863 209.086 95.998 209.582C96.5098 210.078 96.7656 210.691 96.7656 211.422C96.7656 212.148 96.5098 212.76 95.998 213.256C95.4863 213.752 94.8418 214 94.0645 214ZM98.6816 205.598H102.039C102.84 205.598 103.51 205.861 104.049 206.389C104.592 206.912 104.863 207.551 104.863 208.305C104.863 209.055 104.592 209.691 104.049 210.215C103.51 210.738 102.84 211 102.039 211H100V214H98.6816V205.598ZM102.039 206.799H100V209.799H102.039C102.453 209.799 102.807 209.656 103.1 209.371C103.393 209.082 103.539 208.727 103.539 208.305C103.539 207.879 103.393 207.521 103.1 207.232C102.807 206.943 102.453 206.799 102.039 206.799ZM105.092 214L108.572 205.598H109.891L113.371 214H111.994L111.092 211.779H107.371L106.469 214H105.092ZM109.234 207.098L107.852 210.578H110.611L109.234 207.098Z" fill="white"/>
<path d="M160.432 208.24H161.51V214H160.309V210.221L157.309 214H156.23V208.24H157.432V212.02L160.432 208.24ZM162.652 214L166.133 205.598H167.451L170.932 214H169.555L168.652 211.779H164.932L164.029 214H162.652ZM166.795 207.098L165.412 210.578H168.172L166.795 207.098ZM179.158 205.598V214H177.84V206.799H173.697V214H172.379V205.598H179.158ZM188.896 207.279C189.6 207.928 189.951 208.729 189.951 209.682C189.951 210.631 189.6 211.43 188.896 212.078C188.193 212.727 187.266 213.066 186.113 213.098V214.24H184.795V213.098C183.643 213.066 182.713 212.727 182.006 212.078C181.303 211.43 180.951 210.631 180.951 209.682C180.951 208.729 181.303 207.928 182.006 207.279C182.713 206.631 183.643 206.291 184.795 206.26V205.357H186.113V206.26C187.266 206.291 188.193 206.631 188.896 207.279ZM187.977 211.299C188.414 210.893 188.633 210.354 188.633 209.682C188.633 209.01 188.412 208.471 187.971 208.064C187.533 207.654 186.914 207.434 186.113 207.402V211.961C186.914 211.93 187.535 211.709 187.977 211.299ZM182.938 208.059C182.496 208.469 182.275 209.01 182.275 209.682C182.275 210.354 182.494 210.895 182.932 211.305C183.373 211.711 183.994 211.93 184.795 211.961V207.402C183.994 207.434 183.375 207.652 182.938 208.059Z" fill="white"/>
<path d="M233.701 212.799H235.863C236.254 212.799 236.58 212.668 236.842 212.406C237.107 212.141 237.24 211.812 237.24 211.422C237.24 211.027 237.107 210.699 236.842 210.438C236.58 210.172 236.254 210.039 235.863 210.039H233.701V212.799ZM235.863 214H232.383V205.598H237.902V206.799H233.701V208.838H235.863C236.641 208.838 237.285 209.086 237.797 209.582C238.309 210.078 238.564 210.691 238.564 211.422C238.564 212.148 238.309 212.76 237.797 213.256C237.285 213.752 236.641 214 235.863 214ZM240.48 205.598H243.838C244.639 205.598 245.309 205.861 245.848 206.389C246.391 206.912 246.662 207.551 246.662 208.305C246.662 209.055 246.391 209.691 245.848 210.215C245.309 210.738 244.639 211 243.838 211H241.799V214H240.48V205.598ZM243.838 206.799H241.799V209.799H243.838C244.252 209.799 244.605 209.656 244.898 209.371C245.191 209.082 245.338 208.727 245.338 208.305C245.338 207.879 245.191 207.521 244.898 207.232C244.605 206.943 244.252 206.799 243.838 206.799ZM246.891 214L250.371 205.598H251.689L255.17 214H253.793L252.891 211.779H249.17L248.268 214H246.891ZM251.033 207.098L249.65 210.578H252.41L251.033 207.098ZM259.078 213.162H258.059V211H255.896V209.922H258.059V207.76H259.078V209.922H261.234V211H259.078V213.162ZM266.701 208.24H267.779V214H266.578V210.221L263.578 214H262.5V208.24H263.701V212.02L266.701 208.24ZM268.922 214L272.402 205.598H273.721L277.201 214H275.824L274.922 211.779H271.201L270.299 214H268.922ZM273.064 207.098L271.682 210.578H274.441L273.064 207.098ZM285.428 205.598V214H284.109V206.799H279.967V214H278.648V205.598H285.428ZM295.166 207.279C295.869 207.928 296.221 208.729 296.221 209.682C296.221 210.631 295.869 211.43 295.166 212.078C294.463 212.727 293.535 213.066 292.383 213.098V214.24H291.064V213.098C289.912 213.066 288.982 212.727 288.275 212.078C287.572 211.43 287.221 210.631 287.221 209.682C287.221 208.729 287.572 207.928 288.275 207.279C288.982 206.631 289.912 206.291 291.064 206.26V205.357H292.383V206.26C293.535 206.291 294.463 206.631 295.166 207.279ZM294.246 211.299C294.684 210.893 294.902 210.354 294.902 209.682C294.902 209.01 294.682 208.471 294.24 208.064C293.803 207.654 293.184 207.434 292.383 207.402V211.961C293.184 211.93 293.805 211.709 294.246 211.299ZM289.207 208.059C288.766 208.469 288.545 209.01 288.545 209.682C288.545 210.354 288.764 210.895 289.201 211.305C289.643 211.711 290.264 211.93 291.064 211.961V207.402C290.264 207.434 289.645 207.652 289.207 208.059Z" fill="white"/>
<rect x="64" y="208" width="20" height="4" fill="#229CDB"/>
<rect x="130" y="208" width="20" height="4" fill="#FFA114"/>
<rect x="207" y="208" width="20" height="4" fill="#FF1414"/>
</svg>
