<svg width="92" height="56" viewBox="0 0 92 56" fill="none" xmlns="http://www.w3.org/2000/svg">
<rect width="92" height="56" rx="22" fill="#4C57B9"/>
<path d="M19.4678 26.8105H20.6895C21.457 26.7988 22.0605 26.5967 22.5 26.2041C22.9395 25.8115 23.1592 25.2812 23.1592 24.6133C23.1592 23.1133 22.4121 22.3633 20.918 22.3633C20.2148 22.3633 19.6523 22.5654 19.2305 22.9697C18.8145 23.3682 18.6064 23.8984 18.6064 24.5605H16.9805C16.9805 23.5469 17.3496 22.7061 18.0879 22.0381C18.832 21.3643 19.7754 21.0273 20.918 21.0273C22.125 21.0273 23.0713 21.3467 23.7568 21.9854C24.4424 22.624 24.7852 23.5117 24.7852 24.6484C24.7852 25.2051 24.6035 25.7441 24.2402 26.2656C23.8828 26.7871 23.3936 27.1768 22.7725 27.4346C23.4756 27.6572 24.0176 28.0264 24.3984 28.542C24.7852 29.0576 24.9785 29.6875 24.9785 30.4316C24.9785 31.5801 24.6035 32.4912 23.8535 33.165C23.1035 33.8389 22.1279 34.1758 20.9268 34.1758C19.7256 34.1758 18.7471 33.8506 17.9912 33.2002C17.2412 32.5498 16.8662 31.6914 16.8662 30.625H18.501C18.501 31.2988 18.7207 31.8379 19.1602 32.2422C19.5996 32.6465 20.1885 32.8486 20.9268 32.8486C21.7119 32.8486 22.3125 32.6436 22.7285 32.2334C23.1445 31.8232 23.3525 31.2344 23.3525 30.4668C23.3525 29.7227 23.124 29.1514 22.667 28.7529C22.21 28.3545 21.5508 28.1494 20.6895 28.1377H19.4678V26.8105ZM27.6328 34V21.2031H31.2451C32.3584 21.2031 33.3428 21.4492 34.1982 21.9414C35.0537 22.4336 35.7129 23.1338 36.1758 24.042C36.6445 24.9502 36.8818 25.9932 36.8877 27.1709V27.9883C36.8877 29.1953 36.6533 30.2529 36.1846 31.1611C35.7217 32.0693 35.0566 32.7666 34.1895 33.2529C33.3281 33.7393 32.3232 33.9883 31.1748 34H27.6328ZM29.3203 22.5918V32.6201H31.0957C32.3965 32.6201 33.4072 32.2158 34.1279 31.4072C34.8545 30.5986 35.2178 29.4473 35.2178 27.9531V27.2061C35.2178 25.7529 34.875 24.625 34.1895 23.8223C33.5098 23.0137 32.543 22.6035 31.2891 22.5918H29.3203Z" fill="white"/>
<path fill-rule="evenodd" clip-rule="evenodd" d="M63.2189 13.0589L75.7811 20.3391C75.9165 20.4176 76 20.5628 76 20.7198V35.2803C76 35.4373 75.9165 35.5822 75.7811 35.6607L63.2189 42.9409C63.1512 42.9803 63.0755 43 63 43C62.9243 43 62.8488 42.9803 62.7811 42.9409L59.4523 41.0119C59.2429 40.8904 59.1711 40.6217 59.292 40.4116C59.4128 40.2015 59.6805 40.1291 59.8901 40.2507L62.5622 41.7993V28.5441C62.5077 28.5672 62.4505 28.5784 62.3937 28.5784C62.2423 28.5784 62.0952 28.4997 62.0143 28.3587C61.9358 28.2223 61.9388 28.0616 62.0074 27.9323L50.8756 21.4808V34.319C50.8986 34.2975 50.9244 34.2782 50.9529 34.2618L51.5594 33.9102C51.7687 33.7889 52.0367 33.8608 52.1575 34.0711C52.2784 34.2812 52.2068 34.5499 51.9972 34.6712L51.3907 35.0228C51.3218 35.0629 51.2463 35.0818 51.172 35.0818C51.0632 35.0818 50.957 35.0404 50.8756 34.9651V35.0265L58.3562 39.3619C58.5655 39.4832 58.6373 39.7522 58.5165 39.9623C58.3956 40.1724 58.1277 40.2445 57.9184 40.1232L50.2189 35.6609C50.0835 35.5824 50 35.4373 50 35.2803V20.7198C50 20.5628 50.0835 20.4176 50.2189 20.3391L62.7811 13.0589C62.9165 12.9804 63.0835 12.9804 63.2189 13.0589ZM63.4378 27.0843V27.2388L74.6866 20.7198L63.4378 14.2005V14.7805C63.4378 15.0231 63.2419 15.22 63 15.22C62.7583 15.22 62.5622 15.0231 62.5622 14.7805V14.2005L51.3134 20.7198L62.5622 27.2388V27.0843C62.5622 26.8414 62.7583 26.6448 63 26.6448C63.2419 26.6448 63.4378 26.8414 63.4378 27.0843ZM63.4378 28.5443V41.7993L75.1244 35.0265V34.9651C75.0428 35.0404 74.9368 35.0818 74.828 35.0818C74.7537 35.0818 74.6784 35.0629 74.6093 35.0228L74.0028 34.6712C73.7932 34.5499 73.7216 34.2812 73.8425 34.0711C73.9633 33.8608 74.231 33.7887 74.4406 33.9102L75.0471 34.2618C75.0756 34.278 75.1012 34.2975 75.1244 34.3188V21.4808L63.9926 27.9323C64.0612 28.0616 64.0642 28.2225 63.9857 28.3587C63.9048 28.4997 63.7575 28.5784 63.6063 28.5784C63.5495 28.5784 63.4923 28.5672 63.4378 28.5443ZM68.5323 30.4859L69.7339 31.1824C69.9435 31.3037 70.0151 31.5726 69.8942 31.7828C69.8133 31.9237 69.666 32.0025 69.5148 32.0025C69.4405 32.0025 69.3652 31.9835 69.2961 31.9437L68.0945 31.2472C67.8851 31.1259 67.8133 30.8569 67.9342 30.6468C68.055 30.4367 68.3227 30.3646 68.5323 30.4859ZM66.7796 29.4704L65.5779 28.7739C65.3686 28.6526 65.1007 28.7244 64.9798 28.9348C64.859 29.1449 64.9308 29.4138 65.1401 29.5351L66.3418 30.2316C66.4109 30.2714 66.4861 30.2904 66.5602 30.2904C66.7116 30.2904 66.8587 30.2117 66.9399 30.0707C67.0607 29.8606 66.9889 29.5917 66.7796 29.4704ZM71.4864 32.1979L72.688 32.8944C72.8973 33.0157 72.9692 33.2847 72.8483 33.4948C72.7671 33.6358 72.6201 33.7145 72.4687 33.7145C72.3946 33.7145 72.3193 33.6955 72.2502 33.6557L71.0486 32.9592C70.8392 32.8379 70.7674 32.569 70.8883 32.3588C71.0091 32.1487 71.2768 32.0766 71.4864 32.1979ZM59.6582 30.2316L60.8599 29.5351C61.0692 29.4138 61.141 29.1449 61.0202 28.9348C60.8993 28.7247 60.6314 28.6526 60.4221 28.7739L59.2204 29.4704C59.0111 29.5917 58.9393 29.8606 59.0601 30.0707C59.1413 30.2117 59.2884 30.2904 59.4398 30.2904C59.5139 30.2904 59.5891 30.2714 59.6582 30.2316ZM53.312 32.8947L54.5136 32.1982C54.723 32.0769 54.9907 32.1487 55.1117 32.3588C55.2326 32.5692 55.1608 32.8379 54.9514 32.9592L53.7498 33.6557C53.6809 33.6955 53.6057 33.7147 53.5313 33.7147C53.3799 33.7147 53.2329 33.6358 53.1517 33.4948C53.0308 33.2847 53.1027 33.016 53.312 32.8947ZM57.4677 30.4861L56.2661 31.1824C56.0568 31.3039 55.9849 31.5726 56.1058 31.7828C56.187 31.9237 56.334 32.0025 56.4854 32.0025C56.5596 32.0025 56.635 31.9835 56.7039 31.9437L57.9055 31.2472C58.1149 31.1259 58.1867 30.8572 58.0658 30.6468C57.945 30.4367 57.6771 30.3646 57.4677 30.4861ZM62.5623 23.6602C62.5623 23.4174 62.7584 23.2208 63.0001 23.2208C63.2417 23.2208 63.4378 23.4174 63.4378 23.6602V25.053C63.4378 25.2956 63.242 25.4924 63.0001 25.4924C62.7584 25.4924 62.5623 25.2956 62.5623 25.053V23.6602ZM63.0001 16.3724C62.7584 16.3724 62.5623 16.5692 62.5623 16.8118V18.2046C62.5623 18.4474 62.7584 18.644 63.0001 18.644C63.242 18.644 63.4378 18.4474 63.4378 18.2046V16.8118C63.4378 16.5692 63.2417 16.3724 63.0001 16.3724ZM62.5623 20.2359C62.5623 19.9933 62.7584 19.7965 63.0001 19.7965C63.2417 19.7965 63.4378 19.9933 63.4378 20.2359V21.6287C63.4378 21.8715 63.242 22.0681 63.0001 22.0681C62.7584 22.0681 62.5623 21.8715 62.5623 21.6287V20.2359Z" fill="white"/>
</svg>
