<svg width="92" height="56" viewBox="0 0 92 56" fill="none" xmlns="http://www.w3.org/2000/svg">
<rect width="92" height="56" rx="22" fill="#4C57B9"/>
<path d="M24.6348 30.6602H19.2734L18.0693 34H16.3291L21.2158 21.2031H22.6924L27.5879 34H25.8564L24.6348 30.6602ZM19.7832 29.2715H24.1338L21.9541 23.2861L19.7832 29.2715ZM34.0039 28.8232H30.998V34H29.3018V21.2031H33.5381C34.9795 21.2031 36.0869 21.5312 36.8604 22.1875C37.6396 22.8438 38.0293 23.7988 38.0293 25.0527C38.0293 25.8496 37.8125 26.5439 37.3789 27.1357C36.9512 27.7275 36.3535 28.1699 35.5859 28.4629L38.5918 33.8945V34H36.7812L34.0039 28.8232ZM30.998 27.4434H33.5908C34.4287 27.4434 35.0938 27.2266 35.5859 26.793C36.084 26.3594 36.333 25.7793 36.333 25.0527C36.333 24.2617 36.0957 23.6553 35.6211 23.2334C35.1523 22.8115 34.4727 22.5977 33.582 22.5918H30.998V27.4434Z" fill="white"/>
<path fill-rule="evenodd" clip-rule="evenodd" d="M63.3434 12.1034C63.1355 11.9655 62.8646 11.9655 62.6566 12.1034L58.9423 14.5649L59.6291 15.589L62.381 13.7652V17.5385H63.6191V13.7653L66.3709 15.589L67.0577 14.5649L63.3434 12.1034ZM50.2757 20.3085C50.1034 20.4226 50 20.6148 50 20.8205V25.7436H51.2381V21.9704L55.228 24.6146L55.9148 23.5905L51.7351 20.8205L55.9148 18.0505L55.228 17.0264L50.2757 20.3085ZM50.2757 35.6915C50.1034 35.5774 50 35.3852 50 35.1795V30.6667H51.2381V34.1336L54.0326 32.5903L54.6339 33.6661L51.8072 35.2273L54.6767 37.129L53.9899 38.1531L50.2757 35.6915ZM76 35.1795C76 35.3852 75.8966 35.5774 75.7243 35.6915L72.0101 38.1531L71.3233 37.129L74.1928 35.2273L71.3661 33.6661L71.9674 32.5903L74.7619 34.1336V30.6667H76V35.1795ZM76 20.8205C76 20.6148 75.8966 20.4226 75.7243 20.3085L70.772 17.0264L70.0852 18.0505L74.2649 20.8205L70.0852 23.5905L70.772 24.6146L74.762 21.9703V25.7436H76.0001V20.8205L76 20.8205ZM62.381 29.355L58.9423 27.0761L59.629 26.0521L62.9999 28.286L66.3708 26.0521L67.0576 27.0761L63.6191 29.3549V33.1282H62.381V29.355ZM62.6566 43.8966L58.9423 41.4351L59.629 40.411L62.381 42.2348V38.4615H63.6191V42.2347L66.3708 40.411L67.0576 41.4351L63.3433 43.8966C63.1354 44.0345 62.8645 44.0345 62.6566 43.8966Z" fill="white"/>
</svg>
